<?xml version="1.0" encoding="UTF-8"?>
<svg id="Layer_18" xmlns="http://www.w3.org/2000/svg" xmlns:xlink="http://www.w3.org/1999/xlink" viewBox="0 0 538.59 494.63">
  <defs>
    <style>
      .cls-1, .cls-2 {
        fill: none;
      }

      .cls-3, .cls-4 {
        fill: #f4cf88;
      }

      .cls-5 {
        clip-path: url(#clippath-10);
      }

      .cls-6 {
        clip-path: url(#clippath-1);
      }

      .cls-7 {
        clip-path: url(#clippath-3);
      }

      .cls-8 {
        clip-path: url(#clippath-4);
      }

      .cls-9 {
        clip-path: url(#clippath-2);
      }

      .cls-10 {
        clip-path: url(#clippath-7);
      }

      .cls-11 {
        clip-path: url(#clippath-6);
      }

      .cls-12 {
        clip-path: url(#clippath-9);
      }

      .cls-13 {
        clip-path: url(#clippath-8);
      }

      .cls-14 {
        clip-path: url(#clippath-5);
      }

      .cls-2, .cls-4, .cls-15, .cls-16 {
        stroke: #101111;
        stroke-linecap: round;
        stroke-linejoin: round;
        stroke-width: 2px;
      }

      .cls-15, .cls-17 {
        fill: #d46ba9;
      }

      .cls-16, .cls-18 {
        fill: #e44325;
      }

      .cls-19 {
        clip-path: url(#clippath);
      }
    </style>
    <clipPath id="clippath">
      <rect class="cls-1" x="113.65" y="215.35" width="77.33" height="18.07"/>
    </clipPath>
    <clipPath id="clippath-1">
      <rect class="cls-1" x="112.92" y="215.35" width="79.4" height="19.4"/>
    </clipPath>
    <clipPath id="clippath-2">
      <rect class="cls-1" x="112.92" y="220.09" width="74.07" height="17.33"/>
    </clipPath>
    <clipPath id="clippath-3">
      <rect class="cls-1" x="112.92" y="220.09" width="75.4" height="18.67"/>
    </clipPath>
    <clipPath id="clippath-4">
      <rect class="cls-1" x="348.32" y="215.35" width="78.6" height="18.07"/>
    </clipPath>
    <clipPath id="clippath-5">
      <rect class="cls-1" x="348.32" y="215.35" width="78.6" height="19.4"/>
    </clipPath>
    <clipPath id="clippath-6">
      <rect class="cls-1" x="353.65" y="228.09" width="73.27" height="18.67"/>
    </clipPath>
    <clipPath id="clippath-7">
      <rect class="cls-1" x="352.32" y="220.09" width="74.6" height="17.33"/>
    </clipPath>
    <clipPath id="clippath-8">
      <rect class="cls-1" x="352.32" y="220.09" width="74.6" height="18.67"/>
    </clipPath>
    <clipPath id="clippath-9">
      <rect class="cls-1" x="257.65" y="268.09" width="25.33" height="102.27"/>
    </clipPath>
    <clipPath id="clippath-10">
      <rect class="cls-1" x="256.32" y="266.75" width="26.67" height="103.6"/>
    </clipPath>
  </defs>
  <path class="cls-16" d="M258.21,257.91v1.43s.13,1.54.13,1.54l-1.48-.54-1.37-.28-1.3-.54-1.44-.02-1.3-.56-1.34-.38-1.36-.28-1.41-.12-1.3-.56-1.4-.14-1.3-.59-1.38-.27-1.39-.17-1.4-.16-1.35-.35-1.38-.19-1.34-.42-1.38-.22-1.36-.27-1.35-.36-1.4-.09-1.37-.29-1.34-.46-1.39-.11-1.4-.05-1.33-.49-1.4-.03-1.38-.21-1.41.07-1.38-.18-1.34-.51-1.41.09-1.46-.11-.36-1.45-.07-1.38-.15-1.4.7-1.21.79-1.18,1.31-.56,1.15-.82,1.39-.32-.2-.55,1.38.21,1.28.65h1.45s1.26.69,1.26.69l1.36.36,1.4.2,1.33.47,1.36.32,1.3.54,1.35.39,1.28.59,1.29.54,1.43.15,1.28.6,1.33.43,1.37.32,1.32.46,1.3.55,1.31.5,1.21.75,1.41.25,1.3.53,1.26.61,1.31.51,1.23.68,1.33.46,1.34.42,1.23.69,1.27.6,1.24.64,1.12.57Z"/>
  <path class="cls-16" d="M258.22,260.8l-.07,1.61-.36,1.59v1.58s-1.3-.19-1.3-.19l-1.41-.21-1.41-.16-1.34-.57-1.39-.27-1.41-.17-1.43-.05-1.39-.32-1.4-.27-1.45.17-1.38-.42-1.43-.04-1.37-.46-1.45.21-1.39-.36-1.44.12-1.38-.49-1.44.22-1.41-.1-1.4-.33-1.41-.22h-1.42l-1.43.16-1.4-.35-1.42.04-1.41-.24-1.42.31-1.42-.24-1.41-.06-1.42.05-1.41.22-1.4-.23-1.2-.85-.72-1.32-.72-1.26-.43-1.4.13-1.51.85-1.26,1.05-1.09,1.35-.69,1.41.1,1.38.16,1.37.28,1.4.02,1.37.22,1.34.42,1.39.09,1.4.05,1.33.5,1.4.05,1.37.25h1.41s1.37.24,1.37.24l1.3.59,1.42.02,1.38.2,1.32.48,1.33.44h1.42l1.32.44,1.4.12,1.29.61,1.41.08,1.33.43,1.36.28,1.39.19,1.27.63,1.45-.05,1.27.68,1.36.32,1.4.17,1.33.44,1.4.4Z"/>
  <path class="cls-4" d="M212.94,272.53l-1.45.03-1.39.03-1.36.38-1.4-.16-1.38.15-1.38.26-1.39-.15h-1.39s-1.38.4-1.38.4l-1.39.04-1.39-.02-1.39-.3-1.39.04-1.39.28-1.39-.28-1.39-.08-1.4.32-1.37-.41-1.39-.05-1.4.04-1.37-.2-1.37-.23h-1.39s-1.37-.17-1.37-.17l-1.32-.49-1.37-.16-1.38-.17-1.36-.29-1.36-.29-1.21-.76-1.27-.52-1.28-.49-1.31-.46-1.09-.71,1.29-.34,1.24-.77,1.43-.17,1.33-.52,1.45-.08,1.29-.7,1.43-.12,1.33-.56,1.46.06,1.32-.62,1.39-.27,1.44-.04,1.42-.11,1.39-.31,1.36-.44,1.45.07,1.39-.29h1.43s1.36-.52,1.36-.52l1.44.06,1.41-.1,1.41-.19,1.4-.35,1.44.14,1.41-.28,1.44.19,1.42-.12,1.41-.19,1.41-.2,1.43.02,1.42-.12,1.42.12,1.52.04-1.13.87-1.05.88-.64,1.2-.54,1.23-.37,1.34.36,1.35.71,1.17.55,1.29,1.05.9,1.13.93Z"/>
  <path class="cls-16" d="M257.9,265.62l-1.42.19-1.41.24-1.33.59-1.44.07-1.42.17-1.37.41-1.35.47-1.41.19h-1.45s-1.37.42-1.37.42l-1.44.05-1.39.35-1.38.38-1.44.02-1.38.43-1.4.3-1.45-.09-1.41.19-1.41.22-1.39.34h-1.43s-1.41.2-1.41.2l-1.38.43-1.43.04-1.43.09-1.38.44-1.44-.09-1.41.22-1.4.32-1.44-.07-1.42.09-1.46.45-1.09-.95-.91-1.05-.51-1.3-.58-1.2-.53-1.28.38-1.33.53-1.21.47-1.33,1.2-.73,1.03-.81,1.39-.15,1.42.08,1.42.09,1.42-.16h1.42s1.41.32,1.41.32l1.42-.05,1.42-.08,1.42.02h1.42s1.39.41,1.39.41l1.41.14,1.42.05,1.42-.05,1.41.23,1.41.19,1.45-.21,1.39.39,1.42.02,1.38.45,1.45-.19,1.38.4,1.44-.06,1.36.56,1.45-.13,1.4.21,1.37.44,1.38.35,1.42.16,1.44.02,1.35.53,1.41.16Z"/>
  <path class="cls-15" d="M212.86,261.36l-1.48.09-1.42.03-1.42.14-1.43-.22-1.43-.03-1.4.45-1.42.07h-1.42s-1.41.18-1.41.18h-1.43s-1.4.22-1.4.22h-1.43s-1.42.11-1.42.11l-1.44-.08-1.38.41-1.42.12-1.4.24-1.42.12-1.4.24-1.37.42-1.41.19-1.41.23-1.39.28-1.45-.02-1.36.41-1.34.54-1.41.19-1.41.22-1.39.31-1.28.68-1.41.21-1.39.33-1.28.61-1.35-.7-1.1-1.05-.79-1.25-.14-1.29.27-1.32.04-1.33.05-1.34.46-1.27.1-1.35.29-1.31.68-1.12,1.32-.31,1.37-.34,1.35-.45,1.43-.08,1.39-.29,1.36-.49,1.42-.09,1.42-.13,1.37-.47,1.44.07,1.41-.22,1.4-.32,1.44.08,1.42-.06,1.4-.43,1.42-.08,1.43-.03,1.44.27,1.42-.08,1.42-.31,1.43.24,1.42.04,1.43-.35,1.42.36h1.42l1.43-.09,1.43.14,1.42.16,1.43-.1,1.42.07,1.41.37h1.43s1.44,0,1.44,0l1.51.18-1.22.94-1.31.75-.84,1.28-.22,1.53.48,1.43.6,1.36.9,1.19,1.27.9Z"/>
  <path class="cls-4" d="M221.55,238.77l-1.31-.57-1.39-.27-1.34-.46-1.35-.42-1.41-.22-1.37-.35-1.39-.28-1.33-.55-1.42-.15-1.36-.41-1.44.02-1.37-.36-1.36-.46-1.42-.07-1.39-.3-1.4-.22-1.41-.18-1.42-.07-1.43.1-1.41-.08-1.42-.06-1.42.06-1.41-.29-1.42-.08-1.43.41-.45-.41.92-1.16.88-1.15,1.16-.88,1.22-.85,1.44.11h1.41s1.4.26,1.4.26l1.41-.19,1.4.12,1.41.04,1.4.2,1.4.11,1.42-.03,1.39.23,1.39.23,1.39.21,1.32.54,1.4.15,1.42.07,1.34.45,1.33.44,1.34.39,1.44.06,1.3.58,1.32.49,1.38.27,1.4.23,1.3.51,1.21.46-1.41.39-1.45.53-.66,1.41.26,1.49Z"/>
  <g class="cls-19">
    <path class="cls-18" d="M190.68,229.25l-1.49.57-.94,1.1-1.08.96-.75,1.14-1.17-.57-1.39-.35-1.16-.82-1.26-.63-1.38-.35-1.19-.76-2.64-.94-1.23-.68-1.24-.67-1.34-.42-1.31-.51-1.39-.25-1.24-.7-1.35-.37-1.34-.42-1.35-.38-1.42-.12-1.36-.34-1.29-.61-1.41-.12-1.4-.12-1.3-.64h-1.42s-1.34-.48-1.34-.48l-1.43.09-1.35-.44-1.42.15-1.39-.18-1.4-.06-1.4.09-1.4-.32-1.4.12-1.41-.11-1.4.21-1.4.05-1.4.1-1.37.33-1.38.2-1.36.31-1.42.06-1.33.49-1.38.26-1.26.68-1.35.34-1.4.28-1.23.67-1.32.48-1.28.58-1.24.65-1.17.77-1.06.94-1.13.82-1.08.87-1.25.87.6-1.3.57-1.25.34-1.4.84-1.14,1.04-.95,1.04-.95,1.26-.63,1.21-.74,1.34-.49,1.29-.57,1.39-.35,1.22-.76,1.34-.45,1.31-.53,1.37-.36,1.34-.44,1.3-.57,1.38-.31,1.38-.3,1.39-.31,1.44.04,1.36-.34,1.37-.42,1.42-.03,1.42-.02,1.4-.06,1.4-.39,1.42.16,1.41.09,1.41-.13,1.41-.16,1.41.15,1.39.37,1.42-.03,1.38.35,1.41.09,1.42.07,1.35.47,1.43.08,1.4.23,1.3.64,1.35.38,1.36.38,1.39.28,1.28.65,1.34.44,1.41.26,1.26.65,1.28.61,1.41.3,1.19.81,1.3.55,1.34.47,1.16.83,1.22.7,1.4.39,1.23.7,1.2.76,1.04,1.02,1.47.6Z"/>
  </g>
  <g class="cls-6">
    <path class="cls-2" d="M190.68,229.25l-1.49.57-.94,1.1-1.08.96-.75,1.14-1.17-.57-1.39-.35-1.16-.82-1.26-.63-1.37-.35-1.19-.76-2.64-.94-1.23-.68-1.24-.67-1.34-.42-1.31-.51-1.39-.25-1.24-.7-1.35-.37-1.34-.42-1.35-.38-1.42-.12-1.36-.34-1.29-.61-1.41-.12-1.4-.12-1.3-.64h-1.42s-1.34-.48-1.34-.48l-1.43.09-1.35-.44-1.42.15-1.39-.18-1.4-.06-1.4.09-1.4-.32-1.4.12-1.41-.11-1.4.21-1.4.05-1.4.1-1.37.33-1.38.2-1.36.31-1.42.06-1.33.49-1.38.26-1.26.68-1.35.34-1.4.28-1.23.67-1.32.48-1.28.58-1.24.65-1.17.77-1.06.94-1.12.82-1.08.87-1.25.87.6-1.3.57-1.25.34-1.4.84-1.14,1.04-.95,1.04-.95,1.26-.63,1.21-.74,1.34-.49,1.29-.57,1.39-.35,1.22-.76,1.34-.45,1.31-.53,1.37-.36,1.34-.44,1.3-.57,1.38-.31,1.38-.3,1.39-.31,1.44.04,1.36-.34,1.37-.42,1.42-.03,1.42-.02,1.4-.06,1.4-.39,1.42.16,1.41.09,1.41-.13,1.41-.16,1.41.15,1.39.37,1.42-.03,1.38.35,1.41.09,1.42.07,1.35.47,1.43.08,1.4.23,1.3.64,1.35.38,1.36.37,1.39.28,1.28.65,1.34.44,1.41.26,1.26.65,1.28.61,1.41.3,1.19.81,1.3.55,1.34.47,1.16.83,1.22.7,1.4.39,1.23.7,1.2.76,1.04,1.02,1.47.6Z"/>
  </g>
  <path class="cls-16" d="M184.86,236.1l-.52,1.05-.38,1.17-.22,1.21-1.41-.18-1.38-.33-1.34-.55-1.44-.1-1.34-.58-1.44-.06-1.41-.18-1.35-.51-1.44.03-1.38-.37-1.41-.23-1.45.18-1.41-.2-1.39-.41-1.44.25-1.4-.33-1.43.14-1.42-.13-1.42-.06-1.42.03-1.42-.06-1.42.14-1.42-.06-1.43-.04-1.42.09-1.4.33-1.41.16-1.39.32h-1.44s-1.37.36-1.37.36l-1.39.3-1.34.49h-1.46s-1.32.59-1.32.59l-1.44.24-1.35.46-1.32.54-1.2.8-1.4.34-1.3.58-1.15.87-1.33.52-1.15.83-1.1.89-1.06.83-.93-.97-1.07-.79-.96-.91-1.11-.76-.74-1.13-.94-.93-.85-1.15-.71-1.24-.41-.46,1.32-.6,1.42-.27,1.24-.69,1.27-.65,1.46-.1,1.26-.68,1.43-.15,1.27-.67,1.44-.1,1.29-.64,1.39-.27,1.37-.33,1.35-.43,1.44.03,1.37-.35,1.42-.07,1.37-.35,1.41-.11,1.41-.12,1.39-.29,1.41-.11,1.41-.15,1.43.15,1.41-.22,1.42.08,1.41-.3,1.41.11,1.41.27,1.41-.09,1.41.17,1.41.14,1.41.13,1.41.08,1.43-.06,1.41.16,1.4.19,1.42.1,1.35.5,1.37.33,1.46-.1,1.39.29,1.36.4,1.4.24,1.34.45,1.39.27,1.33.52,1.35.42,1.28.64,1.42.21,1.32.51,1.26.49Z"/>
  <g class="cls-9">
    <path class="cls-17" d="M186.38,233.16l-.69,1.43-.72,1.54-1.44-.37-1.29-.61-1.32-.5-1.41-.21-1.33-.49-1.3-.6-1.35-.44-1.42-.18-1.36-.39-1.4-.22-1.36-.35-1.39-.29-1.39-.24-1.43-.05-1.39-.27-1.38-.34-1.43.05-1.41-.1-1.38-.44-1.42.02-1.42.05-1.4-.3-1.41-.06-1.42.03-1.42-.06-1.41.34-1.42-.33-1.42.15-1.41.1-1.42.02-1.4.21-1.42.05-1.38.43-1.42.02-1.41.17-1.41.16-1.4.27-1.37.39-1.35.45-1.37.3-1.43.1-1.32.55-1.44.08-1.3.6-1.33.48-1.43.18-1.26.7-1.39.32-1.34.46-1.17.86-1.31.52.06-.24-.83-1.34-.04-1.56-.26-1.54.25-1.53.05-.03,1.01-.98,1.14-.81,1.08-.89,1.24-.65,1.27-.6,1.23-.64,1.16-.79,1.28-.56,1.24-.65,1.39-.28,1.29-.56,1.33-.42,1.31-.54,1.44.02,1.32-.49,1.41-.07,1.38-.23,1.38-.23,1.36-.44,1.41.13,1.4-.04,1.39-.29,1.41.21,1.4-.07,1.4-.03,1.39.26,1.38.28,1.39.05,1.38.2,1.41-.03,1.34.48,1.39.17,1.37.28,1.38.29,1.43.05,1.36.33,1.28.63,1.4.18,1.39.22,1.22.78,1.41.18,1.24.71,1.41.19,1.22.73,1.41.22,1.28.57,1.31.51,1.35.4,1.17.83,1.32.46,1.21.71,1.33.46,1.23.66,1.24.65,1.23.54Z"/>
  </g>
  <g class="cls-7">
    <path class="cls-2" d="M186.38,233.16l-.69,1.43-.72,1.54-1.44-.37-1.29-.61-1.32-.5-1.41-.21-1.33-.49-1.3-.6-1.35-.44-1.42-.18-1.36-.39-1.4-.22-1.36-.35-1.39-.29-1.39-.24-1.43-.05-1.39-.27-1.38-.34-1.43.05-1.41-.1-1.38-.44-1.42.02-1.42.05-1.4-.3-1.41-.06-1.42.03-1.42-.06-1.41.34-1.42-.33-1.42.15-1.41.1-1.42.02-1.4.21-1.42.05-1.38.43-1.42.02-1.41.17-1.41.16-1.4.27-1.37.39-1.35.45-1.37.3-1.43.1-1.32.55-1.44.08-1.3.6-1.33.48-1.43.18-1.26.7-1.39.32-1.34.46-1.17.86-1.31.52.06-.24-.83-1.34-.04-1.56-.26-1.54.25-1.53.05-.03,1.01-.98,1.14-.81,1.08-.89,1.24-.65,1.27-.6,1.23-.64,1.16-.79,1.28-.56,1.24-.65,1.39-.28,1.29-.56,1.33-.42,1.31-.54,1.44.02,1.32-.49,1.41-.07,1.38-.23,1.37-.23,1.36-.44,1.41.13,1.4-.04,1.39-.29,1.41.21,1.4-.07,1.4-.03,1.39.26,1.37.28,1.39.05,1.38.2,1.41-.03,1.34.48,1.39.17,1.37.28,1.38.29,1.43.05,1.36.33,1.28.63,1.4.18,1.39.22,1.22.78,1.41.18,1.24.71,1.41.19,1.22.73,1.41.22,1.28.57,1.31.51,1.35.4,1.17.83,1.32.46,1.21.71,1.33.46,1.23.66,1.24.65,1.23.54Z"/>
  </g>
  <path class="cls-15" d="M183.72,239.54l-1.31.27-1.34.2-1.31.39-1.28.45-1.27.49-1.33.35-1.11.81-1.14.72-1.19.68-.99.93-1.06.86-.91.96-1.35-.08-1.38-.24-1.41.21-1.4-.04-1.39-.03-1.4-.39-1.39.4-1.4-.06-1.39.1-1.4-.07-1.41-.06-1.36.39-1.42-.07-1.36.34-1.39.17-1.33.46-1.38.25-1.3.52-1.32.44-1.27.57-1.35.37-1.3.52-1.14.83-1.23.62-1.29.59-1.02.79-1.15-.45-1.16-.7-1.22-.58-1.13-.73-1.14-.71-1.15-.71-1.23-.58-1.09-.8-1.02-.9-1.22-.6-1.1-.79,1.2-.98,1.07-.93,1.13-.88,1.35-.5,1.27-.63,1.26-.66,1.33-.52,1.2-.82,1.46-.15,1.32-.53,1.34-.44,1.39-.3,1.35-.43,1.4-.23,1.34-.55,1.42-.09,1.41-.19,1.41-.13,1.41-.19,1.4-.27,1.41-.28,1.42-.09,1.43.17,1.41-.24,1.42.28,1.42-.21,1.43-.04,1.41.32,1.43-.18,1.41.27,1.41.16,1.45-.22,1.41.2,1.38.44,1.46-.18,1.37.44,1.43.02,1.4.31,1.39.28,1.41.23,1.38.36,1.41.2,1.36.44,1.35.46,1.37.19Z"/>
  <path class="cls-15" d="M163.15,264.99l-1.16-.53-1.39-.24-1.3-.54-1.35-.35-1.36-.35-1.27-.59-1.28-.57-1.4-.25-1.23-.71-1.36-.48,1.36-.66,1.29-.68,1.31-.64,1.34-.58,1.44-.33,1.29-.7,1.36-.51,1.43-.34,1.35-.53,1.42-.32,1.33-.39-.38,1.2-.49,1.26v1.37s-.23,1.31-.23,1.31l-.18,1.32-.51,1.29.3,1.35-.32,1.19Z"/>
  <path class="cls-16" d="M169.53,246.73l-1.13,1.06-.64,1.42-.94,1.21-.63,1.39-.56,1.42-.69,1.31-1.31.49-1.46.19-1.3.74-1.44.29-1.41.41-1.29.7-1.31.64-1.42.39-1.2.89-1.44.34-1.24.88-1.26-.8-1.28-.59-1.39-.33-1.27-.64-1.33-.46-1.34-.45-1.23-.7-1.24-.69-1.38-.38-1.17-.82-1.3-.55-1.21-.71,1.04-.93,1.14-.82,1.21-.71,1.34-.43,1.18-.76,1.29-.53,1.36-.34,1.3-.51,1.36-.28,1.36-.31,1.35-.35,1.39-.12,1.33-.52,1.38-.21,1.39-.17,1.42.25,1.37-.48,1.41.04,1.4-.08,1.4.16,1.4.2,1.4-.2,1.38.32,1.4-.03,1.39.19,1.41-.04Z"/>
  <path class="cls-4" d="M258.82,316.1l-.1,1.44.15,1.47-.37,1.43.17,1.47-.34,1.43.05,1.48-.42,1.41-.29,1.42-.3,1.41-.42,1.39-.19,1.45-1.09.97-1.05.91-1.17.76-1.22.71-1.34.48-1.32.62-1.45.06-1.41.2-1.42.11-1.42.17-1.42.24-1.43.1-1.43-.33-1.43.31-1.43-.26-1.42-.17-1.44.09-1.41-.39-1.45.19-1.31-.4-.03-1.28-.33-1.41.22-1.41.02-1.41.19-1.41.36-1.38-.11-1.43.39-1.37.16-1.4.2-1.4.49-1.34.21-1.4.6-1.3.12-1.44.63-1.28.58-1.28.34-1.38.47-1.33.79-1.19.37-1.4.95-1.09.53-1.33,1.01-1.03.85-1.12.67-1.27.95-1.05.84-1.14.87-1.13,1.07-.95,1.03-.99.74-1.26,1.08-.96.82-1.17.92-1.1.79-1.19.77-1.2.78-1.2.95-1.09.56-1.33.68-1.26.78-1.21.54-1.33.67-1.27.56-1.31.44-1.36.59-1.31.13-1.45.33-1.38.29-1.39.6-1.35.05-1.63.19,1.68.19,1.49-.03,1.52-.05,1.52.37,1.48-.13,1.52.24,1.49-.12,1.42.14,1.43-.11,1.43.12,1.43v1.43s.11,1.43.11,1.43l-.16,1.43-.06,1.43.23,1.42-.07,1.43-.2,1.43-.04,1.43.22,1.42-.02,1.43.15,1.42v1.43s.04,1.43.04,1.43l.07,1.43.27,1.42.03,1.43-.06,1.43.33,1.41.15,1.42-.18,1.45Z"/>
  <path class="cls-15" d="M242.19,300.03l-.93,1.06-1.08.93-.85,1.14-.78,1.19-.66,1.26-.98,1.04-.56,1.31-.69,1.23-.82,1.17-.66,1.25-.45,1.35-.68,1.26-.34,1.39-.36,1.37-.46,1.33-.33,1.37-.43,1.35-.1,1.42-.65,1.31.08,1.45-.35,1.38-.32,1.39.03,1.42-.24,1.4-.15,1.41.29,1.42-.14,1.41.07,1.47-1.47-.29-1.44-.13-1.42-.31-1.47.03-1.41-.41-1.46-.09-1.41-.37-1.45-.1-1.41-.39-1.37-.2-.54-1.24-.47-1.34-.65-1.29-.07-1.44-.55-1.35.02-1.44-.32-1.42.21-1.43.11-1.42.17-1.41.3-1.39-.06-1.47.67-1.3.43-1.35.44-1.35.39-1.37.54-1.32.36-1.41.84-1.18.69-1.24.74-1.21.7-1.24.64-1.29.76-1.21,1.12-.94.62-1.33,1.07-.94,1.34-.36,1.23-.66,1.4-.25,1.16-.84,1.39-.3,1.23-.65,1.08-.93,1.3-.5,1.18-.73,1.22-.65,1.29-.56.99-1.01,1.24-.65,1.07-.89,1.06-.9,1.2-.72.97-1,1.2-.74.82-1.16,1.14-.82,1.06-.91.82-1.14.87-1.09,1.07-.91.66-1.26,1.11-.88.66-1.24,1.06-.95.84-1.11.58-1.28.8-1.13.59-1.26h.19s-.28,1.43-.28,1.43l-.34,1.39-.05,1.45-.58,1.33-.33,1.39-.53,1.33-.44,1.36-.5,1.34-.58,1.32-.82,1.18-.48,1.35-.68,1.26-.84,1.17-.67,1.26-.86,1.15-.82,1.17-.79,1.19-.97,1.05-.66,1.31-.9,1.12-.92,1.1-1.24.81-.84,1.18Z"/>
  <path class="cls-16" d="M215.22,334.33l-1.36-.36-1.41-.14-1.41-.14-1.33-.53-1.37-.33h-1.44l-1.35-.44-1.35-.43-1.4-.21-1.41-.19-1.35-.42-1.37-.37-1.44-.06-1.32-.56-1.44-.05-1.3-.63-1.36-.37-1.38-.29-1.38-.33-1.33-.48-1.45-.02-1.36-.36-1.33-.48-1.33-.48-1.42-.17-1.33-.47-1.33-.46-1.33-.47h-.19s.35.06.35.06l.35-.93-.15-.6.79-1.1.73-1.12.71-1.13.73-1.12.86-1.01.8-1.08.85-1.03.73-1.04.24.13.48-.53.35-.7.92-.72.93-.69.7-.41.39-.28.4-.29.61-.61,1.23-.86.58-.62.67-.23,1.72-.88.69-.49.59-.25.83-.37.79-.74.61-.26.5-.15.9-.43,1.96-.57.97-.41.82-.38,1.15-.57,1.1-.08.05-.21,1.03-.29,1.17-.12,1.38-.28,1.33-.44,1.95-.24.31-.22,1.22-.31,1.43-.18,1.21-.24,1.22-.13,1.16-.46,1.28.1,1.26-.64,1.36-.21,1.36-.25,1.27-.57-1.02,1.02-.94,1.08-.58,1.35-.92,1.09-.72,1.23-.87,1.14-.68,1.26-.79,1.2-.44,1.37-.78,1.21-.44,1.36-.64,1.29-.32,1.4-.55,1.33-.32,1.4-.28,1.41-.25,1.42.09,1.44-.34,1.42.31,1.43-.1,1.43.4,1.39.04,1.44.29,1.4.4,1.38.42,1.37.73,1.19Z"/>
  <path class="cls-15" d="M218.26,300.44l-1.3.08-1.15.51-1.28-.14-1.18.43-1.41.3-1.21.3-.41-.32-1.9.48-1.34.43-1.38.26-1.38-.06-1.4-.07-1.39-.03-1.4.05-1.39.03-1.4.1-1.4-.05-1.4-.04-1.4.16-1.39.19-1.37.33-1.37.24-1.43-.18-1.37.29-1.36.32-1.37.28-1.35.33-1.4.18-1.31.53-1.35.35-1.36.31-1.32.47-1.3.51-1.32.45-1.22.71-1.39.35-1.09.94-1.28.57-1.13.82-1.16.78-1.12.83-1.01.95-1.28.66-.87,1.1-.94,1.04-.94,1.04-.93,1.06-.67,1.24-.6,1.27-.87,1.12-.64,1.26-.29,1.47-1.44-.35-1.36-.38-1.4-.16-1.4-.17-1.34-.43-1.35-.39-1.43-.1-1.29-.63-1.43-.15-1.24-.73-1.31-.52-1.32-.47-1.3-.54-1.22-.71-.23.19-.11-1.45.22-1.42.4-1.36.22-1.42.66-1.27.77-1.2.86-1.12.67-1.29,1.22-.81,1.03-.96.84-1.2,1.28-.68,1.23-.71,1.21-.73,1.22-.72,1.3-.57,1.25-.66,1.28-.61,1.25-.7,1.42-.26,1.32-.51,1.27-.69,1.39-.32,1.39-.31,1.4-.24,1.39-.31,1.39-.31,1.36-.42,1.4-.26,1.36-.46,1.43-.08,1.43-.09,1.39-.32,2.83-.26,1.56-.52,1.59-.17,1.6-.12v-.03s1.45.13,1.45.13l1.43-.12,1.42-.16,1.42-.23,1.44.2,1.42-.24,1.42-.03,1.43.17,1.42.04,1.43-.14,1.42.15,1.43-.16,1.42-.07,1.43.08h1.42l1.43.16,1.44-.13,1.39.49,1.45-.19,1.4.31,1.39.33,1.43.07,1.36.41,1.35.43,1.45.15,1.23.73,1.2.8.57,1.29-.18,1.43Z"/>
  <path class="cls-4" d="M205.89,302.73l-1.32.34-.99.41h-.11s-1.05.26-1.05.26l-1.19.42-.92.11-.94.47-1.8,1-.89.42-.47.21h-.73s-.91.48-.91.48l-.86.33-.41.6-.79.31-1.62,1.05-.57.36-.62.55-1.37.67-.57.68-.47.19-.48.16-.54.62-.99.62-.64,1.02-.7.33-.3.71-.09.02-.91.86-.96.94-.72,1.14-.82,1.05-.77,1.09-.67,1.16-.82,1.08-.44,1.27-.4.36-.31.97-.02.06.04-.1-1.42.1-1.41.41-1.44.11-1.44-.27-1.43.05-1.44.04-1.44-.1-1.44.19-1.44-.02-1.43-.12-1.45.02-1.43-.19-1.41-.37-1.46.1-1.26-.48.31-1.23.51-1.32.59-1.28,1.05-1,.7-1.21.74-1.19.95-1.02.95-1.03,1.02-.96,2.1-1.83,1.11-.84,1.12-.84,1.24-.64,1.27-.59,1.2-.7,1.23-.66,1.2-.74,1.27-.59,1.44-.15,1.3-.52,1.31-.49,2.69-.79,1.39-.18,1.33-.47,1.38-.23,1.39-.14,1.37-.23,1.38-.21,1.4-.09,1.37-.3,1.42.16,1.37-.43,1.4.06,1.4-.16,1.4-.05,1.4-.02,1.4-.11,1.39.38,1.4-.14,1.56.04Z"/>
  <path class="cls-4" d="M179.99,294.78h-.06s-1.58.19-1.58.19l-1.6.15-1.62-.05-1.38.48-1.46-.15-1.39.3-1.41.19-1.4.26-1.37.43h-1.45s-1.32.63-1.32.63l-1.37.37-1.43.11-1.38.34-1.29.64-1.44.13-1.37.4-1.32.53-1.23.78-1.45.21-1.22.75-1.33.51-1.3.59-1.13.89-1.26.66-1.09.93-1.09.9-1.3.66-.85,1.17-1.16.87-.67,1.28-.84,1.14-.54,1.31-.81,1.18-.3,1.4-.31,1.38.07,1.41-.08,1.36-1.31-.51-1.22-.69-1.19-.74-1.22-.69-1.06-.93-1.22-.69-1.28-.64-1.1-.87-1.07-.92-.82-1.19-1.03-.95-.87-1.1-1.17-.84-.79-1.17-.89-1.09-.79-1.16-.83-1.14-.49-1.34-.79-1.22-.27-1.43.06-1.42.1-1.41.71-1.22.56-1.34,1.18-.85.94-1.11,1.23-.74,1.29-.64,1.32-.53,1.25-.71,1.34-.48,1.36-.46,1.35-.47,1.42-.21,1.33-.53,1.43-.14,1.37-.39,1.39-.31,1.41-.2,1.4-.26,1.34-.57,1.4-.3,1.45.07,2.81-.5,1.42-.13,1.39-.43,1.41-.23,1.42-.15,1.41-.31,1.44-.1,1.41.29,1.42-.2,1.39.44,1.42-.15h1.41s1.41.04,1.41.04l1.38.49,1.41.03h1.41s1.39.22,1.39.22l1.41.15,1.4.18,1.4.18,1.41.14,1.4.19,1.41.16,1.37.35,1.35.4,1.38.26,1.37.31,1.4.28,1.34.53.89,1.14.38,1.18-.72,1.16-1.11.85-1.21.73-1.34.47-1.23.71-1.31.57Z"/>
  <path class="cls-16" d="M256.68,271.7l-.79,1.04-.76,1.21-.87,1.13-1.05.97-1.08.92-1.16.83-1.21.74-1.14.85-1.39.43-1.15.85-1.22.73-1.27.63-1.31.54-1.36.43-1.26.67-1.4.3-1.29.61-1.38.32-1.38.31-1.26.73-1.4.26-1.35.4-1.37.35-1.36.4-1.43.1-1.35.41-1.35.44-1.43.1-1.41.15-1.35.47-1.39.29-1.45-.08-1.36.36-1.4.23-1.38.33-1.41.15-1.38.38-1.38.33-1.41.15-1.39.31-1.44-.08-1.38.35-1.4.23-1.44-.06-1.37.46-1.43-.04-1.42.13-1.38.33-1.42.05-1.36.51-1.41.18-1.41.17-1.41.13-1.44-.06-1.37.47-1.45-.16-1.4.26-1.28.25,1.24-.41,1.23-.69,1.4-.36,1.07-.98,1.07-.86.96-1.01-.34-1.37-1.27-.63-1.15-.86-1.33-.51-1.38-.32-1.44-.04-1.3-.63-1.43-.06-1.37-.34-1.39-.28-1.42.03-1.39-.28h-1.42l-1.37-.1-1.38-.46-1.43.14-1.39-.37-1.42.17-1.4-.16-1.42.08-1.4-.36-1.41.06-1.41-.1-1.59-.18,1.6-.04,1.4-.27,1.41-.1,1.41-.08,1.41-.17,1.42.07,1.4-.25,1.39-.39,1.41-.14,1.41-.12,1.44.2,1.41-.16h1.41s1.38-.45,1.38-.45h1.42s1.4-.16,1.4-.16l1.42-.1,1.4-.21,1.43.14,1.4-.3,1.42.04,1.42.08,1.41-.23,1.43.08,1.39-.41,1.43.16,1.39-.38,1.42-.03,1.42-.02h1.42s1.41-.24,1.41-.24l1.42-.06,1.42-.07,1.41-.13,1.42.11,1.41-.25,1.43.13,1.41-.15,1.41-.09h1.42l1.42-.07,1.39-.41,1.41-.15,1.44.21,1.41-.12,1.41-.15,1.42-.03,1.39-.34,1.41-.16,1.41-.08,1.4-.25,1.41-.06,1.43.09,1.38-.41,1.44.22,1.38-.38,1.4-.24,1.39-.23,1.46.21,1.39-.28,1.39-.31,1.41-.14,1.4-.22,1.4-.22,1.39-.26,1.37-.34,1.38-.35,1.34-.43,1.38-.32,1.38-.38,1.28-.65,1.18-.79.78-1.04Z"/>
  <path class="cls-2" d="M258.95,316.25l-.06-1.58-.23-1.42-.18-1.42v-1.44s.08-1.43.08-1.43l-.08-1.43.06-1.43-.44-1.41-.02-1.43.28-1.44-.25-1.42-.04-1.43.09-1.43-.15-1.43-.04-1.43.19-1.43-.03-1.43-.2-1.43-.15-1.43.04-2.85.08-1.43.12-1.42.09-1.54-.13,1.56.29,1.41.2,1.41.11,1.42.06,1.43-.04,1.43.24,1.42-.13,1.43.22,1.42-.06,1.43-.05,1.43.39,1.42-.09,1.43.07,1.43.03,1.43.09,1.43-.2,1.43.1,1.43.14,1.43-.2,1.43-.16,1.42.17,1.43-.02,1.43-.19,1.58Z"/>
  <path class="cls-16" d="M258.5,252.83l.1,1.58-.27,1.55-1.06-.7-1.18-.77-1.12-.88-1.27-.6-1.32-.53-1.08-.96-1.23-.68-1.4-.39-1.15-.84-1.25-.65-1.29-.57-1.18-.78-1.34-.47-1.29-.56-1.3-.54-1.27-.62-1.18-.81-1.44-.23-1.22-.73-1.35-.43-1.34-.45-1.28-.61-1.26-.66-1.32-.51-1.28-.6-1.45-.12-1.32-.49-1.23-.77-1.4-.23-.23-1.47.79-1.19,1.26-.77,1.48-.26,1.27.67,1.33.48,1.4.32,1.37.38,1.31.55,1.3.56,1.28.62,1.27.66,1.33.5,1.14.91,1.36.45,1.32.54,1.28.63,1.24.69,1.2.78,1.32.54,1.14.87,1.31.58,1.16.82,1.16.83,1.39.46,1.13.86,1.21.74,1.18.79,1.21.74,1.03.99,1.01.81Z"/>
  <path class="cls-15" d="M217.63,243.37l-1.51-.32-1.31-.65-1.41-.25-1.41-.2-1.39-.33-1.44-.07-1.39-.31-1.4-.29-1.38-.38-1.4-.27-1.42-.16-1.4-.3-1.41-.23-1.46.2-1.41-.19-1.42-.16-1.42-.17-1.43.1-1.42-.09-1.43-.21-1.42.04-1.42.26-1.43-.09-1.42.27.43-1.34.63-1.25.43-1.33.44-1.34.95-1.01.13.2,1.43-.36,1.42.21,1.41.02,1.42-.03,1.41.24,1.43-.07,1.42.07,1.42.07,1.41.19,1.38.43,1.45-.17,1.37.41,1.42.1,1.41.17,1.37.36,1.35.44,1.38.31,1.35.45,1.46-.03,1.37.39,1.28.69,1.42.19,1.36.4,1.32.53,1.38.28-1.41.19-1.45.33-1.09,1.07-.2,1.47.23,1.53Z"/>
  <path class="cls-4" d="M213.25,252.07l-1.55-.19-1.41-.32-1.44.09h-1.43s-1.41-.33-1.41-.33l-1.43.03-1.42-.22-1.43.05-1.42-.18-1.43.26-1.42-.38-1.42.02-1.43.17-1.42.12h-1.43s-1.42.05-1.42.05l-1.43.02-1.42.2-1.43-.05-1.43-.05-1.43.03-1.39.43-1.44-.09-1.38.45-1.44-.03-1.43.06-1.41.2-1.35.57-1.4.24-1.46-.05-1.38.36-1.36.42-1.39.3-1.52.49.56-1.6.66-1.38.83-1.29.83-1.28.83-1.27,1.05-1.1.97-.94.75-1.18,1.09-.82,1.14-.75,1.2-.64,1.13-.78,1.26-.51,1.34-.29,1.29-.42,1.27-.53,1.36-.08,1.32-.36,1.42-.09,1.43.09,1.41-.17,1.42-.23,1.42.32,1.42.04,1.44-.27,1.41.3,1.42.1,1.42.06,1.4.33h1.43s1.42.15,1.42.15l1.42.15,1.4.26,1.36.49,1.47-.1,1.36.45,1.42.16,1.41.21,1.37.4,1.35.48,1.39.33,1.28.43.4.46-1.37.4-1.41.31-1.04.99-.92,1.06-.69,1.25-.02,1.43.27,1.38.64,1.39Z"/>
  <path class="cls-16" d="M258.55,255.99l-.36,1.82-1.04-.64-1.26-.62-1.32-.48-1.3-.53-1.24-.65-1.27-.6-1.31-.5-1.43-.19-1.3-.53-1.22-.73-1.36-.34-1.31-.51-1.23-.71-1.38-.31-1.28-.59-1.24-.68-1.44-.11-1.25-.67-1.33-.43-1.38-.29-1.34-.42-1.29-.55-1.28-.61-1.4-.22-1.38-.29-1.27-.64-1.38-.28-1.31-.52-1.38-.27-1.32-.48-1.49-.09.12-1.52.32-1.29.87-1.08,1.32-.6,1.46-.15,1.35.42,1.33.48,1.38.33,1.29.6,1.28.63,1.29.57,1.42.23,1.22.74,1.41.26,1.22.73,1.24.68,1.29.57,1.43.26,1.28.58,1.14.9,1.3.55,1.32.52,1.25.66,1.36.44,1.23.68,1.22.69,1.17.8,1.21.72,1.25.65,1.17.8,1.18.77,1.38.43,1.16.8,1.2.81Z"/>
  <path class="cls-16" d="M257.17,271.45l-.72,1.16-.87,1.09-.47,1.35-1,.99-.93,1.03-.67,1.23-.83,1.11-.82,1.12-1.07.91-1.01.95-.84,1.1-.85,1.12-1.2.76-1.06.89-1.05.91-1.09.84-.83,1.19-1.35.52-.91,1.1-1.12.83-1.34.49-1.01,1.01-1.25.63-1.31.49-1.18.74-1.19.72-1.21.7-1.3.48-1.37.32-1.23.65-1.27.6-1.37.27-1.26.56-1.29.47-1.42.02-1.21.52.29-1.37-.84-1.15-1.09-.89-1.29-.6-1.36-.39-1.31-.61-1.41-.23-1.4-.28-1.43-.1-1.42-.13-1.41-.24-1.42-.16-1.43-.05-1.44.3-1.42-.05-1.41-.26-1.43.16h-1.42s-1.43-.23-1.43-.23l-1.42.2-1.43-.09-1.43-.18-1.41.41-1.43-.17-1.43.08-1.42.23-1.43.09-1.43-.05h-1.28s1.25-.16,1.25-.16l1.39-.3,1.44.08,1.4-.29,1.42-.03,1.4-.28,1.42-.05,1.37-.48,1.45.17,1.4-.21,1.38-.36,1.39-.29,1.41-.16,1.4-.2,1.41-.16,1.38-.33,1.42-.07,1.42-.06,1.42-.12,1.35-.51h1.44s1.35-.49,1.35-.49l1.43-.03,1.42-.09,1.4-.22,1.33-.59,1.4-.24,1.45.06,1.39-.34,1.36-.39,1.4-.25,1.33-.51,1.39-.27,1.39-.29,1.41-.19,1.39-.3,1.35-.41,1.4-.27,1.38-.33,1.25-.75,1.36-.38,1.36-.42,1.35-.41,1.26-.66,1.32-.49,1.38-.39,1.28-.62,1.18-.82,1.33-.52,1.14-.85,1.2-.74,1.26-.68,1.05-.96.95-1.07,1.24-.74.98-1.03.67-1.29,1.02-.99.21-.31Z"/>
  <path class="cls-16" d="M282.81,257.47l1.12-.92,1.27-.6,1.3-.52,1.33-.45,1.27-.57,1.26-.62,1.31-.48,1.28-.58,1.4-.28,1.28-.58,1.3-.51,1.34-.43,1.26-.65,1.32-.46,1.28-.6,1.44-.14,1.29-.54,1.28-.59,1.39-.27,1.3-.56,1.29-.57,1.41-.2,1.36-.32,1.31-.51,2.64-.98,1.41-.17,1.38-.27,1.28-.66,1.31-.05-.17.46,1.49.11,1.07.98,1.37.48.91,1.12.57,1.32.08,1.43-.52,1.32-.32,1.35-1.35.3-1.39.06-1.41-.05-1.37.27-1.38.22-1.35.41-1.39.05-1.42-.05-1.32.56-1.4.05-1.36.3h-1.42s-1.31.6-1.31.6l-1.44-.15-1.31.58-1.38.19-1.37.26-1.38.2-1.3.55-1.44-.05-1.3.62h-1.43s-1.35.37-1.35.37l-1.39.2-1.27.69-1.44.03-1.31.52-1.37.28-1.32.44-1.38.24-1.32.43-1.34.37-1.51.43.13-1.54-.25-1.49,1.46-.39Z"/>
  <path class="cls-16" d="M283.02,260.59l1.32-.47,1.33-.46,1.32-.45,1.41-.14,1.37-.24,1.28-.64,1.43-.02,1.34-.37,1.28-.66,1.45.09,1.27-.71,1.36-.25,1.36-.28,1.37-.22h1.42s1.33-.47,1.33-.47l1.34-.43,1.39-.16,1.41-.05,1.36-.33,1.36-.28,1.34-.45,1.4-.07,1.41.04,1.32-.56,1.4-.03,1.36-.26,1.41.07,1.34-.54,1.43.24,1.35-.47,1.41-.07,1.24.82,1.02,1.06,1.02,1.13-.08,1.52v1.51s-.96,1.16-.96,1.16l-.89,1.16-1.1.86-1.34.35-1.41-.32-1.41.19-1.42-.05-1.41.13-1.42-.08-1.41.12-1.41.07-1.41.23-1.43-.15-1.41.26-1.42-.03-1.41.1-1.41.21-1.43-.11-1.38.46-1.43-.04-1.4.19-1.43.05-1.4.24-1.41.19-1.39.35-1.44-.02-1.43.05-1.39.33-1.41.17-1.35.52-1.41.15-1.4.28-1.44-.03-1.38.33-1.44.32-.24-1.61.21-1.62-.27-1.61,1.47-.21Z"/>
  <path class="cls-4" d="M327.81,271.45l1.02-.9.99-.98.25-1.39.42-1.29-.2-1.34-.28-1.37-1.08-.92-.67-1.26-1.34-.65,1.53-.02,1.42.04,1.42.12,1.43-.22,1.41.41,1.44-.27,1.4.39,1.42.04,1.41.22,1.44-.26,1.39.44,1.43-.04,1.41.21,1.42.05,1.4.29,1.42.1,1.41.18,1.43.04,1.36.44,1.43.06,1.38.36,1.4.26,1.41.18,1.34.52,1.45-.03,1.34.48,1.39.29,1.35.45,1.4.29,1.37.36,1.41.24,1.29.63,1.17.48-1.04.63-1.26.57-1.16.83-1.33.41-1.31.46-1.41.11-1.32.41-1.33.4-1.34.39-1.42-.07-1.34.38-1.39-.04-1.36.36-1.38.1-1.4-.14-1.37.32-1.38.16-1.4-.15-1.39-.08-1.38.35-1.4-.09-1.39-.24-1.39.31-1.39.04-1.38-.3-1.38-.11-1.39.04-1.4.14-1.37-.3-1.39-.06-1.37-.16-1.38-.08-1.38-.14-1.27-.07.75-1.04Z"/>
  <path class="cls-16" d="M283.31,265.35l1.36-.42,1.44-.03,1.37-.41,1.43-.11,1.4-.22,1.39-.3,1.44.02,1.36-.53h1.43s1.4-.23,1.4-.23l1.42-.07,1.4-.24,1.41-.18,1.4-.32,1.43.07,1.43.02,1.4-.25,1.42-.06,1.39-.41,1.42-.02,1.41-.12,1.43.2,1.41-.15,1.42-.17,1.41-.19,1.42.26,1.41-.21,1.42.19,1.41-.23,1.42.03,1.36.24,1.18.59,1.03.92.61,1.24.38,1.28.45,1.32-.35,1.35-.77,1.14-.52,1.3-.88,1.07-1.18.71-1.4-.19-1.43-.04-1.44.06-1.4-.37-1.42-.13-1.41-.23-1.41-.15-1.41-.2-1.41-.22-1.45.1-1.39-.39-1.39-.3-1.43-.06-1.42-.16-1.37-.45-1.45.11-1.4-.28-1.43-.13-1.38-.41-1.42-.17-1.38-.37-1.43-.07-1.38-.37-1.42-.16-1.39-.33-1.39-.27-1.43-.08-1.33-.63-1.41-.19-1.43-.15-1.42-.13-1.31-.52,1.37-.23Z"/>
  <path class="cls-15" d="M328.12,260.39l1.06-1.06.6-1.38.36-1.45-.54-1.37-.68-1.24-1.09-.95-1.02-.93,1.3-.09,1.41-.22,1.41-.25,1.45.19,1.41-.27,1.44.12,1.41-.29,1.42-.03,1.43.2,1.42-.27,1.43-.11,1.42.2,1.43.11,1.42-.32,1.43.12,1.42.27,1.44-.27h1.43s1.41.34,1.41.34l1.42.15,1.42.02,1.44-.08,1.4.36,1.42.14,1.41.24,1.41.17,1.4.24,1.4.28,1.45-.03,1.36.47,1.36.4,1.42.17,1.39.29,1.24.54.67,1.09.31,1.31.4,1.28.07,1.34.26,1.32.02,1.34.27,1.32-.1,1.33-.94,1.17-1.18.94-1.23.86-1.39-.29-1.24-.78-1.39-.32-1.41-.24-1.41-.2-1.31-.59-1.4-.29-1.39-.3-1.38-.32-1.41-.17-1.37-.41-1.41-.21-1.38-.37-1.41-.23-1.42-.13-1.41-.17h-1.43l-1.36-.55-1.44.05-1.41-.2-1.42-.13-1.42-.11-1.4-.33-1.44.1-1.41-.29-1.42-.15-1.42-.06-1.43.21-1.42.05-1.41-.42-1.43.05-1.42-.1-1.59.14,1.3-.98Z"/>
  <path class="cls-4" d="M318.43,237.29l-.6-1.36-1.42-.52-1.45-.35,1.29-.51,1.35-.38,1.34-.42,1.29-.59,1.45-.04,1.32-.46,1.32-.49,1.32-.49,1.43-.08,1.36-.34,1.37-.3,1.38-.24,1.36-.36,1.41-.08,1.38-.24,1.41-.06,1.39-.16,1.39-.22,1.39-.16,1.39-.28,1.42.31,1.39-.27,1.41.03,1.4-.02h1.41l1.1.92,1.2.78.79,1.2.74,1.15-.09-.14-1.41.25-1.41.1-1.42-.35-1.42.13h-1.42s-1.39.42-1.39.42l-1.44-.22-1.41.2-1.4.32-1.41.16-1.38.34-1.41.1-1.39.25-1.4.27-1.41.14-1.41.16-1.38.33-1.36.41-1.39.29-1.36.36-1.37.33-1.31.55-1.36.39-1.33.47-1.48.32.24-1.53Z"/>
  <g class="cls-8">
    <path class="cls-18" d="M350.61,228.62l1.04-1.02,1.19-.78,1.36-.46,1.26-.63,1.2-.74,1.17-.83,1.36-.43,1.27-.62,1.32-.52,1.29-.58,1.32-.52,1.33-.47,1.22-.76,1.4-.28,1.38-.34,1.31-.55,1.34-.44,1.42-.13,1.3-.66,1.39-.26,1.37-.38,1.42-.08,1.39-.29,1.42-.07,1.38-.34,1.42-.02,1.4-.19h1.41s1.41-.04,1.41-.04l1.41-.21,1.41.38,1.41-.04,1.42-.06,1.42-.05,1.38.39,1.41.13,1.4.19,1.39.26,1.41.15,1.35.44,1.38.28,1.33.47,1.35.39,1.38.33,1.35.41,1.4.29,1.19.85,1.39.32,1.28.6,1.29.58,1.28.59,1.16.83,1.29.54.96,1.01.9,1.02.82,1.08.9,1.08.61,1.27-.03,1.42-.79-1.02-1.05-.93-1.33-.55-.98-1.04-1.24-.65-1.31-.53-1.24-.64-1.33-.44-1.24-.64-1.31-.47-1.32-.44-1.3-.53-1.32-.49-1.36-.31-1.39-.2-1.36-.3-1.38-.21-1.38-.21-1.41.04-1.4-.12h-1.4s-1.39-.11-1.39-.11l-1.4-.22-1.39.27-1.4-.09-1.39.2-1.4.05-1.41.03-1.39.12-1.38.23-1.34.47-1.44-.1-1.35.38-1.33.48-1.4.13-1.32.48-1.35.36-1.41.14-1.29.58-1.32.44-1.37.31-1.41.22-1.31.49-1.22.75-1.38.31-1.33.45-1.3.53-1.21.72-1.38.33-1.2.75-1.22.69-1.38.35-1.2.73-1.3.53-1.23.76-.81-1.22-.82-1.18-1.08-.97-1.46-.58,1.44-.62Z"/>
  </g>
  <g class="cls-14">
    <path class="cls-2" d="M350.61,228.62l1.04-1.02,1.19-.78,1.36-.46,1.26-.63,1.2-.74,1.17-.83,1.36-.43,1.27-.62,1.32-.52,1.29-.58,1.32-.52,1.33-.47,1.22-.76,1.4-.28,1.37-.34,1.31-.55,1.34-.44,1.42-.13,1.3-.66,1.39-.26,1.37-.38,1.42-.08,1.39-.29,1.42-.07,1.38-.34,1.42-.02,1.4-.19h1.41s1.41-.04,1.41-.04l1.41-.21,1.41.38,1.41-.04,1.42-.06,1.42-.05,1.38.39,1.41.12,1.4.19,1.39.26,1.41.15,1.35.44,1.38.28,1.33.47,1.35.39,1.37.33,1.35.41,1.4.29,1.19.85,1.39.32,1.28.6,1.29.58,1.28.59,1.16.83,1.29.54.96,1.01.9,1.02.82,1.08.9,1.08.61,1.27-.03,1.42-.79-1.02-1.05-.93-1.33-.55-.98-1.04-1.24-.65-1.31-.53-1.24-.64-1.33-.44-1.24-.64-1.31-.47-1.32-.44-1.3-.53-1.32-.49-1.36-.31-1.39-.2-1.36-.3-1.38-.21-1.38-.21-1.41.04-1.4-.12h-1.4s-1.39-.11-1.39-.11l-1.4-.22-1.39.27-1.4-.09-1.39.2-1.4.05-1.41.03-1.39.12-1.38.23-1.34.47-1.44-.1-1.35.37-1.33.48-1.4.13-1.32.48-1.35.36-1.41.14-1.29.58-1.32.44-1.37.31-1.41.22-1.31.49-1.22.75-1.37.31-1.33.45-1.3.53-1.21.72-1.38.33-1.2.75-1.22.69-1.38.35-1.2.73-1.3.53-1.23.76-.81-1.22-.82-1.18-1.08-.97-1.46-.58,1.44-.62Z"/>
  </g>
  <path class="cls-18" d="M356.15,235.4l1.46-.1,1.28-.66,1.37-.38,1.35-.42,1.35-.41,1.42-.16,1.32-.56,1.42-.15,1.39-.25,1.38-.3,1.34-.55,1.38-.36,1.45.14,1.39-.3,1.41-.12,1.36-.5,1.44.19,1.4-.2,1.4-.27,1.41-.07,1.41-.21,1.42.06,1.41-.05,1.42-.02,1.42.14,1.4.16,1.41.04h1.42s1.41.14,1.41.14l1.41.11,1.4.18h1.43s1.4.18,1.4.18l1.42.14,1.39.29,1.35.45,1.43.03,1.35.43,1.41.19,1.36.4,1.34.45,1.35.42,1.37.35,1.43.17,1.23.77,1.37.36,1.39.3,1.25.67,1.37.39,1.34.59-.39.52-.55,1.35-.86,1.19-.98.9-1.1.78-.94.93-.8,1.1-1.14.71-1.07.78-.81-.97-1.28-.66-1.07-.96-1.33-.53-1.31-.54-1.17-.84-1.36-.44-1.28-.62-1.38-.35-1.33-.49-1.32-.57-1.38-.39-1.45-.05-1.31-.62-1.4-.27-1.41-.21-1.41-.16-1.4-.26-1.44.06-1.39-.43-1.44.18-1.4-.34-1.43.04-1.42-.27-1.43.04h-1.42s-1.43-.06-1.43-.06l-1.4.44-1.44-.24-1.41.19-1.4.31-1.41.14-1.44-.11-1.42.13-1.39.38-1.44-.04-1.35.54-1.41.18-1.4.24-1.42.16-1.42.17-1.39.35-1.33.59-1.44.07-1.39.46-.49-1.17-.06-1.28-.62-1.08,1.27-.67Z"/>
  <g class="cls-11">
    <path class="cls-2" d="M356.14,235.4l1.46-.1,1.28-.66,1.37-.38,1.35-.42,1.35-.41,1.42-.16,1.32-.56,1.42-.15,1.39-.25,1.38-.3,1.34-.55,1.37-.36,1.45.14,1.39-.3,1.41-.12,1.36-.5,1.44.19,1.4-.2,1.4-.27,1.41-.07,1.41-.21,1.42.06,1.41-.05,1.42-.02,1.42.14,1.4.16,1.41.04h1.42s1.41.14,1.41.14l1.41.11,1.4.18h1.43s1.4.18,1.4.18l1.42.14,1.39.29,1.35.45,1.43.03,1.35.43,1.41.19,1.36.4,1.34.45,1.35.42,1.37.35,1.43.17,1.23.77,1.37.36,1.39.3,1.25.67,1.37.39,1.34.59-.39.52-.55,1.35-.86,1.19-.98.9-1.1.78-.94.93-.8,1.1-1.14.71-1.07.78-.81-.97-1.28-.66-1.07-.96-1.33-.53-1.31-.54-1.17-.84-1.36-.44-1.28-.62-1.38-.35-1.33-.49-1.32-.57-1.38-.39-1.45-.05-1.31-.62-1.4-.27-1.41-.21-1.41-.16-1.4-.26-1.44.06-1.39-.43-1.44.18-1.4-.34-1.43.04-1.42-.27-1.43.04h-1.42s-1.43-.06-1.43-.06l-1.4.44-1.44-.24-1.41.19-1.4.31-1.41.14-1.44-.11-1.42.13-1.39.38-1.44-.04-1.35.54-1.41.18-1.4.24-1.42.16-1.42.17-1.39.35-1.33.59-1.44.07-1.39.46-.49-1.17-.06-1.28-.62-1.08,1.27-.67Z"/>
  </g>
  <g class="cls-10">
    <path class="cls-17" d="M354.63,232.59l1.18-.78,1.27-.59,1.24-.66,1.3-.52,1.37-.37,1.19-.78,1.35-.4,1.26-.64,1.33-.44,1.35-.4,1.33-.43,1.31-.5,1.24-.69,1.44-.09,1.31-.51,1.29-.58,1.4-.2,1.31-.51,1.36-.33,1.42-.07,1.33-.48,1.37-.3,1.4-.13,1.42.02,1.38-.22,1.35-.45,1.41.05,1.39-.04,1.4-.08,1.39-.26,1.4.22,1.39-.19,1.4-.08,1.38.34,1.4-.03,1.38.24,1.4.04,1.38.27,1.34.41,1.36.29,1.43.03,1.27.67,1.34.39,1.34.4,1.33.43,1.27.59,1.36.36,1.13.88,1.37.41,1.07.93,1.23.68,1,.99,1.13.82,1.03.93-.12-.03.56,1.48-.36,1.53-.17,1.52-.31,1.53-.24.15-1.19-.81-1.29-.58-1.39-.33-1.24-.72-1.44-.16-1.32-.49-1.34-.43-1.32-.51-1.34-.49-1.38-.3-1.44-.06-1.32-.57-1.41-.17-1.41-.14-1.33-.6-1.42-.05-1.41-.12-1.4-.18-1.38-.4-1.42.04-1.4-.28-1.42.15-1.4-.4-1.42.28-1.41-.34-1.42.38-1.41-.21-1.41.17-1.42-.06-1.41.06-1.43-.15-1.4.3-1.43-.04-1.37.51-1.41.11-1.41.14-1.37.35-1.44-.06-1.4.22-1.37.39-1.39.25-1.41.16-1.3.64-1.41.21-1.41.21-1.36.39-1.25.76-1.34.44-1.36.37-1.35.41-1.46.59-.73-1.6-.82-1.52,1.39-.52Z"/>
  </g>
  <g class="cls-13">
    <path class="cls-2" d="M354.63,232.59l1.18-.78,1.27-.59,1.24-.66,1.3-.52,1.37-.37,1.19-.78,1.35-.4,1.26-.64,1.33-.44,1.35-.4,1.33-.43,1.31-.5,1.24-.69,1.44-.09,1.31-.51,1.29-.58,1.4-.2,1.31-.51,1.36-.33,1.42-.07,1.33-.48,1.37-.3,1.4-.13,1.42.02,1.37-.22,1.35-.45,1.41.05,1.39-.04,1.4-.08,1.39-.26,1.4.22,1.39-.19,1.4-.08,1.38.34,1.4-.03,1.38.24,1.4.04,1.37.27,1.34.41,1.36.29,1.43.03,1.27.67,1.34.39,1.34.4,1.33.43,1.27.59,1.36.36,1.13.88,1.37.41,1.07.93,1.23.68,1,.99,1.13.82,1.03.93-.12-.03.56,1.48-.36,1.53-.17,1.52-.31,1.53-.24.15-1.19-.81-1.29-.58-1.39-.33-1.24-.72-1.44-.16-1.32-.49-1.34-.43-1.32-.51-1.34-.49-1.38-.3-1.44-.06-1.32-.57-1.41-.17-1.41-.14-1.33-.6-1.42-.05-1.41-.12-1.4-.18-1.38-.4-1.42.04-1.4-.28-1.42.15-1.4-.4-1.42.28-1.41-.34-1.42.38-1.41-.21-1.41.17-1.42-.06-1.41.06-1.43-.15-1.4.3-1.43-.04-1.37.51-1.41.11-1.41.14-1.37.35-1.44-.06-1.4.22-1.37.39-1.39.25-1.41.16-1.3.64-1.41.21-1.41.21-1.36.39-1.25.76-1.34.44-1.36.37-1.35.41-1.46.59-.73-1.6-.82-1.52,1.39-.52Z"/>
  </g>
  <path class="cls-15" d="M357.41,239.02l1.44-.09,1.37-.41,1.44-.08,1.38-.34,1.39-.27,1.42-.15,1.34-.62,1.46.09,1.39-.3,1.38-.38,1.41-.17,1.44.11,1.42-.09,1.4-.3,1.43.16,1.41-.39h1.42s1.43,0,1.43,0l1.42.11,1.42.14,1.42-.02,1.43-.22,1.4.36,1.43-.02,1.43.02,1.36.53,1.43.03,1.42.14,1.4.26,1.34.51,1.42.15,1.34.5,1.43.14,1.26.73,1.45.13,1.23.78,1.47.16,1.22.77,1.35.48,1.21.75,1.23.71,1.08.95,1.26.66.9.81-.85,1.1-1.13.76-1.14.73-1.04.87-1.3.48-1.16.68-1.09.79-1.19.65-1.25.53-1.03.93-1.24.51-.96-1.01-1.17-.79-1.39-.39-1.24-.61-1.23-.64-1.28-.56-1.35-.34-1.31-.48-1.34-.39-1.29-.6-1.4-.16-1.36-.26-1.38-.21-1.37-.27-1.41.03-1.4-.08-1.37-.33-1.4-.16-1.41.24-1.4-.27-1.39.32-1.4.09-1.4-.18-1.39.2-1.37.32-1.47.09-.95-1.08-1.03-.86-1.01-.89-.93-1.04-1.13-.78-1.28-.5-1.18-.71-1.42-.09-1.22-.64-1.36-.13-1.26-.66h-1.26l1.21-.54Z"/>
  <path class="cls-15" d="M376.48,263.79l.17-1.35-.45-1.3-.25-1.31v-1.36s-.41-1.28-.41-1.28l-.55-1.23-.34-1.47,1.57.39,1.43.34,1.37.48,1.28.76,1.34.56,1.41.38,1.29.7,1.51.18,1.22.82,1.41.43,1.02.8-1.14.42-1.26.6-1.26.63-1.31.49-1.35.37-1.38.29-1.29.54-1.28.56-1.29.54-1.42.4-.04-1.39Z"/>
  <path class="cls-16" d="M371.69,246.61l1.4-.1,1.39-.09,1.4.02,1.39-.22,1.4-.06,1.4.25,1.39.13,1.41-.21,1.37.35,1.41-.18,1.39.1,1.35.43,1.39.11,1.41.05,1.36.32,1.35.39,1.36.3,1.33.46,1.21.76,1.26.59,1.33.43,1.16.78,1.42.33,1.03.98,1.28.89-1.53.44-1.22.71-1.22.71-1.2.74-1.28.6-1.33.48-1.36.41-1.26.63-1.25.66-1.27.64-1.32.49-1.34.49-1.35-.59-1.29-.66-1.28-.7-1.26-.76-1.45-.31-1.38-.46-1.32-.61-1.43-.32-1.32-.65-1.44-.25-1.28-.59-.81-1.24-.47-1.45-.79-1.31-.7-1.35-1-1.15-1.01-1.33,1.57-.08Z"/>
  <path class="cls-4" d="M281.14,314.68l-.24-1.45.16-1.42.15-1.42-.06-1.43.37-1.41.11-1.43-.05-1.44.1-1.43.2-1.42-.28-1.43.18-1.42.19-1.42.03-1.43-.34-1.43v-1.43s.08-1.43.08-1.43l.04-1.43-.15-1.43.05-1.43v-1.43l.25-1.43-.18-1.42-.03-1.43.11-1.5.21-1.5-.06-1.52.09-1.5.38-1.48.24-1.49-.08-1.57-.03,1.49.55,1.36.35,1.38.12,1.45.51,1.34.65,1.28.47,1.34.49,1.34.65,1.27.57,1.3.38,1.42.62,1.3.86,1.16.61,1.31,1.14.96.6,1.32,1.01,1.03.55,1.37.95,1.07.99,1.03,1.04.98.96,1.05.9,1.11.82,1.16.97,1.02.97,1.03.93,1.08.78,1.19.73,1.21.79,1.18.66,1.26.55,1.31.42,1.36.81,1.19.59,1.29.38,1.36.59,1.29.21,1.41.54,1.32.1,1.43.64,1.31.11,1.42.34,1.38.11,1.41.33,1.39.17,1.41-.23,1.44.2,1.4-.14,1.41.38,1.41-.13,1.49-1.51-.15-1.4.5-1.42.13-1.43.09-1.43.09-1.43-.05-1.43-.02h-1.43l-1.43.06-1.43-.11-1.41-.24-1.42-.13-1.38-.38-1.38-.33-1.39-.31-1.43-.22-1.14-.91-1.28-.62-1.23-.79-.72-1.28-.55-1.33-.16-1.45-.23-1.43-.22-1.43-.31-1.42-.16-1.44-.4-1.42-.14-1.45.07-1.46-.32-1.44-.02-1.46.43-1.39Z"/>
  <path class="cls-15" d="M296.79,298.82l-1.19-.85-.98-1.05-.72-1.27-.97-1.05-1.03-1.01-.82-1.18-.77-1.21-.85-1.16-.72-1.24-.45-1.39-.62-1.29-.79-1.19-.47-1.35-.97-1.13-.32-1.42-.7-1.27-.08-1.47-.49-1.34-.46-1.35-.45-1.36-.25-1.42-.04-1.44-.11.08.75,1.18.82,1.11.84,1.1.77,1.16.79,1.14.91,1.05.84,1.1.81,1.13.77,1.18,1.14.84,1.01.96.9,1.06,1.11.85.88,1.1,1.16.78.9,1.08,1.29.61,1,.97,1.17.74,1.08.87,1.24.64,1.18.72,1.01,1.02,1.28.57,1.14.82,1.41.3,1.22.65,1.14.85,1.42.2,1.29.49,1.3.47,1.36.46.89,1.19.84,1.15.85,1.15.89,1.13.75,1.22.63,1.29.74,1.22.53,1.33.58,1.3.65,1.27.8,1.21.19,1.45.6,1.29.64,1.3.2,1.43.3,1.41.04,1.44.08,1.42.05,1.41.09,1.42-.1,1.42.07,1.44-.24,1.42-.51,1.34-.2,1.43-.55,1.33-.78,1.13-1.33.37-1.45.16-1.42.32-1.44.16-1.4.48-1.46.03-1.46.05-1.42.35-1.42.37-1.47-.05.23-1.41-.1-1.42.04-1.41-.44-1.39-.12-1.4.05-1.42-.3-1.39-.17-1.4-.14-1.41-.32-1.38-.31-1.37-.2-1.41-.5-1.33-.58-1.3-.35-1.37-.41-1.35-.39-1.37-.62-1.27-.73-1.22-.6-1.28-.6-1.29-.88-1.12-.83-1.14-.77-1.19-.64-1.29-1-1.02-.93-1.06-.9-1.1-.91-1.13Z"/>
  <path class="cls-16" d="M325.1,333l.67-1.28.48-1.36.36-1.4.16-1.43.19-1.42-.16-1.44v-1.42s.11-1.43.11-1.43l-.37-1.4-.17-1.42v-1.46s-.49-1.35-.49-1.35l-.31-1.4-.53-1.33-.44-1.35-.8-1.21-.43-1.37-.49-1.34-.83-1.18-.88-1.13-.57-1.32-.62-1.3-.9-1.11-.78-1.19-1.16-.9-.97-1.28,1.52.48,1.35.27,1.31.4,1.3.43,1.21.22,1.2.24,1.19.36,1.24.07,1.45.06,1.22.32.33.15,1.88.54,1.38.25,1.39.21,1.11.35.99.39.15-.14,1.06.25,1.19.44.76.55,1.03.23,1.9.75.86.48.49.17.6.28.86.59.94.16.61.22.71.47,1.63,1.06.6.32.66.51,1.09,1.07.71.47.36.34.37.31.76.35.75.9.96.66.67.38.47.54v.11s.85.92.85.92l.8,1.08,1.07.86.6,1.22.62,1.19.73,1.11.69,1.14.78,1.11-.08.57.58.86-.03.07v.05l-1.36.37-1.39.31-1.38.3-1.28.67-1.42.14-1.35.4-1.3.64-1.36.38-1.38.32-1.37.35-1.35.41-1.4.25-1.41.17-1.37.34-1.39.29-1.4.22-1.33.51-1.41.19-1.37.34-1.4.19-1.31.66-1.37.35-1.47-.13-1.32.6-1.37.34-1.45-.09-1.4.27-1.53.52.68-1.44Z"/>
  <path class="cls-15" d="M321.14,298.94l.9-1.18,1.23-.68,1.22-.69,1.36-.39,1.29-.7,1.4-.32,1.44-.04,1.4-.32,1.43-.12,1.43-.02,1.42-.15,1.42-.08,1.43.07,1.42-.18,1.42-.2,1.43.08,1.42.08,1.43.16,1.42-.05,1.43-.11,1.42.08,1.43.14,1.43-.13,1.43-.03,1.43.1,1.41.33,1.43-.07,1.43.06v.09s1.6.14,1.6.14l1.59.19,1.57.35,1.45-.09,1.42.09,1.4.28,1.39.3,1.41.2,1.39.33,1.34.52,1.4.26,1.37.37,1.37.36,1.42.16,1.31.57,1.41.26,1.41.26,1.32.52,1.31.57,1.31.54,1.26.67,1.41.35,1.15.87,1.16.83,1.22.71,1.2.75,1.27.68.9,1.14,1.2.8.93,1.08.88,1.11.77,1.19.61,1.28.49,1.32.71,1.26.04,1.44.14,1.4.17,1.44-.08.13-1.3.56-1.3.55-1.29.58-1.35.4-1.39.29-1.33.43-1.36.35-1.39.27-1.32.53-1.4.19-1.37.32-1.4.15-1.33.6-1.52.24-.21-1.56-.89-1.14-.7-1.2-.41-1.39-.8-1.16-1.12-.91-.73-1.2-1.08-.9-.79-1.19-1.03-.95-1.07-.91-1.14-.82-1.2-.73-1.25-.64-1.13-.86-1.3-.55-1.23-.67-1.39-.31-1.26-.61-1.29-.55-1.3-.54-1.37-.28-1.32-.47-1.42-.09-1.34-.37-1.32-.48-1.37-.28-1.41-.05-1.38-.21-1.36-.33-1.4-.08-1.39-.18-1.4-.06-1.39-.12-1.4-.05-1.4.08-1.39-.44-1.4.2-1.4-.24-1.4.29-1.39-.04-1.41.2-1.39-.3-1.37-.31-1.89-.49-.34-.04-1.22-.24-1.42-.26-1.2-.26-1.19-.32h-1.25s-1.12-.46-1.12-.46l-.56-1.32Z"/>
  <path class="cls-4" d="M335.48,302.57l1.4.26,1.4.02,1.39.03h1.4s1.39-.02,1.39-.02l1.4-.06,1.38.27,1.4-.02,1.39.2,1.42-.14,1.38.27,1.37.26,1.37.3,1.4.1,1.35.36,1.42.03,1.35.37,1.3.53,1.34.39,1.39.24,1.33.44,1.26.63,1.33.44,1.27.59,1.29.55,1.23.67,1.23.67,1.27.62.93,1.11,1.25.65.93,1.06,1.22.72.94,1.04,1.05.94.94,1.05.84,1.13.69,1.22.73,1.2.64,1.25.55,1.29.47,1.3-1.42.09-1.4.41-1.45-.05-1.43.12-1.42.33-1.45-.14-1.43.18-1.44.17-1.44-.06-1.44-.24-1.44.3h-1.44l-1.43-.21h-1.44l-1.39-.49.1.13h-.24s-.15-1.02-.15-1.02l-.45-.34-.37-1.3-.6-1.2-.82-1.08-.61-1.21-.79-1.09-.97-.95-.92-.97-.83-.95.02-.12-.67-.34-.52-.52-.84-.79-.8-.84-.74-.37-.24-.47-.45-.22-.61-.61-1.27-.83-.72-.4-.67-.2-1.52-1.23-.79-.32-.52-.4-.94-.16-.76-.79h-.73s-.37-.43-.37-.43l-1.04-.1-1.83-.91-.97-.38-.83-.34-1.21-.34-1.01-.4h-.11s-.99-.4-.99-.4l-.96-.11,1.22-.35Z"/>
  <path class="cls-4" d="M358.59,294.03l-1.4-.3-1.26-.65-1.14-.86-1.1-.84-.96-1.06.36-1.42,1.22-.75,1.24-.67,1.35-.42,1.35-.43,2.76-.6,1.37-.39,1.45.18,1.36-.42,1.43.06,1.37-.44,1.41-.07,1.4-.28,1.4-.18,1.41-.13,1.41-.02,1.41-.12,1.41-.08,1.41-.06,1.41-.03,1.41.02,1.4-.31,1.41.13,1.41.17,1.44-.04,1.39.41,1.43.08,1.43.07,1.4.28,1.38.45,1.46-.08,1.42.19,1.38.39,1.42.17,1.33.64,1.41.24,1.44.08,1.33.54,1.45.08,1.31.6,1.35.45,1.39.31,1.29.63,1.32.53,1.37.42,1.31.57,1.22.74,1.14.85,1.26.7,1.01,1.03.83,1.18.45,1.36.41,1.38-.32,1.41-.3,1.39-.71,1.23-.66,1.24-.69,1.23-.63,1.27-1.06.97-.8,1.16-.99.99-.74,1.23-1.26.72-.81,1.18-1.23.72-.89,1.13-1.22.71-1.16.78-1.2.73-1.18.77-1.26.63-1.22.69-1.3.5.34-1.3-.38-1.4-.38-1.36-.44-1.33-.41-1.35-.56-1.32-.83-1.17-1.01-1.01-1.05-.95-.92-1.08-.93-1.1-1.22-.75-1.13-.89-1.27-.66-1.17-.81-1.38-.43-1.18-.84-1.43-.28-1.21-.8-1.36-.44-1.36-.41-1.4-.31-1.31-.58-1.33-.5-1.43-.17-1.34-.49-1.43-.11-1.4-.25-1.37-.41-2.82-.33-1.38-.35-1.43-.05-1.35-.55-1.41-.2-1.61-.07-1.59-.18-1.6-.09-.03-.02-1.28-.63Z"/>
  <path class="cls-16" d="M283.97,272.67l1.23.68,1.27.6,1.33.46,1.39.29,1.26.76,1.43.11,1.33.53h1.44s1.38.33,1.38.33l1.42.1,1.41.16,1.4.19,1.39.29,1.41.16,1.41.19,1.4.19,1.4.21,1.4.23,1.43-.1,1.39.33,1.4.12,1.43-.1,1.4.34h1.42l1.42-.02,1.41.18,1.4.34,1.44-.21,1.42.05,1.41.24h1.42l1.39.46,1.42.03,1.43-.15,1.4.31,1.43-.19,1.4.33,1.41.14,1.43-.04,1.41.26,1.41.11,1.42-.08,1.42.03,1.41.14,1.41.19,1.43-.15,1.41.1,1.42.09,1.4.21,1.43-.09,1.4.31h1.42l1.4.22,1.41.05,1.41.04,1.42-.09,1.39.38h1.42s1.4.21,1.4.21l1.43-.17,1.38.48,1.44-.2,1.39.38,1.44-.21,1.4.29,1.41.15,1.41.18,1.41.08,1.4.22,1.41.1,1.4.28,1.22.13-1.21.05-1.4.17-1.41.1-1.42-.09-1.42-.06-1.41.14-1.39.26-1.4.24-1.42-.03-1.43-.11-1.39.28-1.41.05-1.39.28-1.42.06-1.35.46-1.43-.03-1.33.57h-1.44l-1.36.39-1.34.44-1.29.58-1.35.43-1.22.78-.2,1.41.68,1.26,1.27.67,1.25.65,1.22.72,1.34.46,1.45.59-1.59-.14-1.43-.02-1.36-.53-1.41-.19-1.42-.06-1.41-.16-1.41-.07-1.41-.19-1.41-.11-1.38-.37-1.42-.06-1.37-.38-1.4-.19-1.41-.17-1.42-.06-1.39-.31-1.4-.2-1.43-.03-1.36-.47-1.44.07-1.41-.14-1.4-.23-1.34-.6-1.39-.22-1.43-.05-1.39-.27-1.42-.06-1.34-.54-1.42-.12-1.4-.24-1.39-.29-1.39-.28-1.35-.44-1.43-.11-1.3-.64-1.42-.17-1.32-.51-1.35-.42-1.33-.48-1.39-.29-1.33-.47-1.39-.29-1.28-.62-1.38-.35-1.3-.58-1.24-.68-1.28-.61-1.39-.4-1.23-.7-1.09-.94-1.12-.87-1.27-.66-1.09-.9-1.02-.98-1.2-.79-.83-1.16-.98-1.02-.73-1.14.91.97Z"/>
  <path class="cls-16" d="M282.33,252.02l1.06-.96,1.32-.58,1.03-1.02,1.14-.84,1.21-.74,1.41-.43,1.2-.74,1.13-.88,1.24-.69,1.14-.86,1.38-.44,1.18-.81,1.23-.7,1.27-.64,1.26-.65,1.34-.49,1.19-.81,1.42-.31,1.22-.75,1.36-.43,1.32-.52,1.34-.45,1.27-.65,1.34-.48,1.27-.66,1.37-.34,1.51.07,1.35.72.62,1.35-.22,1.43-1.23.68-1.34.43-1.41.22-1.37.35-1.26.67-1.33.46-1.35.42-1.22.76-1.38.34-1.27.62-1.34.44-1.33.47-1.19.8-1.25.65-1.28.58-1.29.57-1.36.41-1.19.77-1.22.7-1.25.65-1.17.8-1.38.4-1.27.61-1.03,1.04-1.42.36-1.11.88-1.15.81-1.38.45-1.05.93-.04-1.6-.26-1.61,1.26-.76Z"/>
  <path class="cls-15" d="M322.53,241.81l-.36-1.43-1.16-.88-1.3-.64-1.54-.06,1.42-.53,1.39-.29,1.36-.39,1.29-.64,1.38-.34,1.44-.11,1.41-.21,1.34-.51,1.39-.27,1.41-.19,1.34-.52,1.43-.05,1.38-.31,1.42-.1,1.41-.1,1.37-.41,1.4-.22,1.41-.11,1.42-.07,1.43.15,1.4-.22,1.42-.12,1.42-.03,1.42-.16,1.42.33.15-.11,1.02.97.26,1.43.71,1.21.56,1.28.11,1.23h-1.24s-1.42-.15-1.42-.15l-1.43.12-1.42-.16-1.42.22-1.43-.24-1.41.26-1.44-.16-1.42.08-1.4.42-1.41.22-1.42.11h-1.44s-1.41.22-1.41.22l-1.39.31-1.43.13-1.4.26-1.36.51-1.41.19-2.76.7-1.4.27h-1.46s-1.41.66-1.41.66l.35-1.55Z"/>
  <path class="cls-4" d="M327.26,250.7l.07-1.4-.09-1.37-.46-1.32-.93-1.07-1.28-.59-1.22-.62-1.22-.65.26-.29,1.26-.5,1.4-.3,1.41-.23,1.34-.55,1.43-.09,1.39-.36,1.42-.15,1.42-.16,1.36-.47,1.39-.29,1.41-.18,1.42-.15,1.45.06,1.4-.3,1.41-.2,1.42-.11,1.41-.25,1.44.24,1.42.04,1.43-.41,1.42.42,1.42-.14,1.43-.02,1.38.45,1.37.02,1.32.32,1.35.17,1.27.53,1.35.28,1.13.81,1.29.46,1.03.92,1.09.8,1.23.64,1.04.89.89,1.04.82,1.3.88,1.24.86,1.26.6,1.4.63,1.38.73,1.53-1.55-.39-1.4-.27-1.39-.27-1.37-.35-1.34-.6-1.46.08-1.37-.46-1.4-.29-1.42-.09-1.44.07-1.37-.5-1.42-.17-1.43.06-1.42-.23-1.42-.08-1.43-.08-1.43.14-1.41-.36-1.43.19-1.43-.21-1.42.09-1.42-.13-1.43.13-1.42.1-1.43-.19-1.41.36-1.43-.17-1.42.23-1.43-.07h-1.43l-1.41.35-1.43.04-1.43.11-1.44.2.62-1.28Z"/>
  <path class="cls-16" d="M282.61,255.39l1.05-.98,1.17-.78,1.25-.67,1.31-.54,1.22-.7,1.19-.76,1.29-.57,1.23-.67,1.15-.86,1.3-.55,1.24-.68,1.25-.66,1.3-.55,1.42-.3,1.14-.89,1.38-.36,1.32-.49,1.25-.66,1.21-.77,1.43-.21,1.32-.5,1.24-.68,1.36-.38,1.32-.51,1.32-.47,1.27-.66,1.44-.16,1.28-.65,1.41.36,1.36.39.91,1.04.47,1.3-.12,1.45-1.43.14-1.27.67-1.42.14-1.3.54-1.39.24-1.36.31-1.27.65-1.36.34-1.34.41-1.31.49-1.4.22-1.23.74-1.41.22-1.26.63-1.29.55-1.3.53-1.38.3-1.29.54-1.4.26-1.3.52-1.28.58-1.26.64-1.22.7-1.32.46-1.41.27-1.3.53-1.18.8-1.41.28-1.19.78-1.28.57-1.44.61.06-1.92,1.25-.62Z"/>
  <path class="cls-3" d="M310.13,336.43l.03.62"/>
  <path class="cls-16" d="M282.95,271.71l.98,1.02.69,1.27.93,1.08,1.3.68.82,1.21,1.24.71,1.21.73,1.01,1.05,1.32.56,1.21.73,1.33.49,1.22.72,1.38.37,1.2.8,1.39.33,1.24.71,1.33.48,1.44.16,1.37.35,1.34.46,1.31.56,1.36.35,1.4.26,1.35.44,1.38.31,1.43.07,1.36.39,1.4.23,1.39.24,1.38.33,1.33.59,1.45-.08,1.36.47,1.38.31,1.41.12,1.44-.02,1.34.56,1.39.23,1.43.03,1.38.33,1.41.18,1.4.2h1.43s1.36.49,1.36.49l1.43-.03,1.38.37,1.42.07,1.39.31,1.42.07,1.41.1,1.37.41,1.44-.13,1.37.41,1.43.02,1.39.32,1.39.27,1.44-.08,1.37.22-1.4-.11h-1.43s-1.41-.31-1.41-.31l-1.44.25-1.42-.3-1.43.13-1.43.06-1.42.02-1.43-.22-1.42.04-1.43-.26-1.42.03-1.42.09-1.42.16-1.42.25h-1.43s-1.43-.22-1.43-.22l-1.43.09-1.39.4-1.45-.15-1.38.42-1.4.23-1.36.42-1.42.18-1.34.48-1.26.67-1.32.64-.77,1.31.37,1.4-1.17-.52h-1.43s-1.28-.51-1.28-.51l-1.28-.52-1.29-.5-1.3-.47-1.26-.59-1.35-.37-1.27-.54-1.26-.6-1.14-.82-1.42-.3-1.06-.95-1.26-.6-1.11-.84-1.29-.56-1.01-.98-1.06-.9-1.17-.76-1.11-.82-1.15-.79-.95-1.03-.89-1.07-1.25-.7-.73-1.23-1.25-.72-.73-1.21-.92-1.03-1.1-.89-.67-1.24-.86-1.08-.79-1.13-.76-1.17-.92-1.05-.82-1.13-.62-1.2.37.27Z"/>
  <g class="cls-12">
    <path class="cls-18" d="M280.33,318.74v1.42s-.1,1.4-.1,1.4l-.29,1.38-.02,1.42-.19,1.39-.31,1.38-.17,1.39-.38,1.36-.14,1.4-.04,1.41-.08,1.41-.4,1.36-.36,1.36-.17,1.4-.03,1.42-.23,1.39-.45,1.34-.34,1.36-.02,1.44-.33,1.37-.41,1.35-.42,1.35-.02,1.44-.29,1.38-.57,1.31-.4,1.35-.16,1.42-.63,1.28-.03,1.45-.59,1.3-.58,1.3-.06,1.45-.69,1.26-.34,1.37-.48,1.32-.24,1.41-.63,1.43-.29-1.55-.7-1.24-.58-1.28-.21-1.41-.52-1.31-.21-1.4-.67-1.26-.45-1.33-.1-1.43-.64-1.28-.09-1.43-.34-1.35-.57-1.3-.03-1.43-.41-1.35-.49-1.33-.25-1.38-.26-1.38-.29-1.37v-1.43s-.53-1.32-.53-1.32l-.26-1.38.04-1.43-.63-1.31.13-1.45-.57-1.33-.02-1.41-.05-1.41-.32-1.37-.23-1.38-.29-1.38-.07-1.41.07-1.42-.4-1.36-.03-1.41-.28-1.38.17-1.43-.53-1.35.1-1.41-.13-1.42-.14-1.42-.28-1.42v-1.43s-.1-1.43-.1-1.43l-.03-1.43.03-1.43.07-1.43-.44-1.41.05-1.43-.15-1.43-.03-1.43.24-1.43-.1-1.43-.05-1.43.17-1.43-.15-1.43v-1.43l-.22-1.43.32-1.43-.25-1.43.04-1.43.33-1.42.11-1.41-.15-1.46-.07-1.46v-1.46s.05-1.46.05-1.46l.24.04.92-1.25,1.16-1.04,1.03-1.15,1.08-1.11,1.04-1.04,1.36-.59,1.16-.95,1.45-.29,1.41-.36,1.46-.05,1.43.25,1.47.16,1.31.69,1.17.89,1.26.76.81,1.05,1.13.73.66,1.16.83,1,.81,1.07-.03,1.48.19,1.44-.11,1.43.28,1.41-.26,1.43.25,1.42.03,1.42.05,1.42-.11,1.42.2,1.42-.02,1.42-.34,1.42.24,1.43.09,1.42-.1,1.42-.26,1.42.3,1.43-.39,1.41-.11,1.42-.02,1.42v1.42s-.18,1.41-.18,1.41l.16,1.44-.08,1.42-.2,1.42v1.43s-.11,1.42-.11,1.42l-.3,1.4-.18,1.41.04,1.45Z"/>
  </g>
  <g class="cls-5">
    <path class="cls-2" d="M280.33,318.74v1.42s-.1,1.4-.1,1.4l-.29,1.38-.02,1.42-.19,1.39-.31,1.37-.17,1.39-.38,1.36-.14,1.4-.04,1.41-.08,1.41-.4,1.36-.36,1.36-.17,1.4-.03,1.42-.23,1.39-.45,1.34-.34,1.36-.02,1.44-.33,1.37-.41,1.35-.42,1.35-.02,1.44-.29,1.38-.57,1.31-.4,1.35-.16,1.42-.63,1.28-.03,1.45-.59,1.3-.58,1.3-.06,1.45-.69,1.26-.34,1.37-.48,1.32-.24,1.41-.63,1.43-.29-1.55-.7-1.24-.58-1.28-.21-1.41-.52-1.31-.21-1.4-.67-1.26-.45-1.33-.1-1.43-.64-1.28-.09-1.43-.34-1.35-.57-1.3-.03-1.43-.41-1.35-.49-1.33-.25-1.38-.26-1.38-.29-1.37v-1.43s-.53-1.32-.53-1.32l-.26-1.38.04-1.43-.63-1.31.13-1.45-.57-1.33-.02-1.41-.05-1.41-.32-1.37-.23-1.38-.29-1.38-.07-1.41.07-1.42-.4-1.36-.03-1.41-.28-1.38.17-1.43-.53-1.35.1-1.41-.13-1.42-.14-1.42-.28-1.42v-1.43s-.1-1.43-.1-1.43l-.03-1.43.03-1.43.07-1.43-.44-1.41.05-1.43-.15-1.43-.03-1.43.24-1.43-.1-1.43-.05-1.43.17-1.43-.15-1.43v-1.43l-.22-1.43.32-1.43-.25-1.43.04-1.43.33-1.42.11-1.41-.15-1.46-.07-1.46v-1.46s.05-1.46.05-1.46l.24.04.92-1.25,1.16-1.04,1.03-1.15,1.08-1.11,1.04-1.04,1.36-.59,1.16-.95,1.45-.29,1.41-.36,1.46-.05,1.43.25,1.47.16,1.31.69,1.17.89,1.26.76.81,1.05,1.13.73.66,1.16.83,1,.81,1.07-.03,1.48.19,1.44-.11,1.43.28,1.41-.26,1.43.25,1.42.03,1.42.05,1.42-.11,1.42.2,1.42-.02,1.42-.34,1.42.24,1.43.09,1.42-.1,1.42-.26,1.42.3,1.43-.39,1.41-.11,1.42-.02,1.42v1.42s-.18,1.41-.18,1.41l.16,1.44-.08,1.42-.2,1.42v1.43s-.11,1.42-.11,1.42l-.3,1.4-.18,1.41.04,1.45Z"/>
  </g>
  <path class="cls-4" d="M269.75,244.73l1.56-.1,1.57.16,1.57-.16,1.32.3,1.19.58,1.25.46.91.97,1.05.85.36,1.33.84,1.07.28,1.31.23,1.41.36,1.38.15,1.41.06,1.43.41,1.4-.16,1.44.19,1.44-.56,1.38-.03,1.42-.03,1.41-.11,1.4.03,1.41-.51,1.35v1.41s-.21,1.39-.21,1.39l.1,1.42-.32,1.38-.14,1.39-.21,1.39-.07,1.41-.18,1.4-.38,1.36-.14,1.41-.32,1.37-.46,1.33-.35,1.35-.59,1.29-.4,1.34-.36,1.36-.47,1.33-.83,1.15-.87,1.09-.83,1.1-.9,1.09-1.2.76-1.39.28-1.37.07-1.42.11-1.33-.5-1.14-.83-.95-1.01-1.13-.89-.81-1.16-.46-1.35-.53-1.3-.7-1.22-.19-1.42-.75-1.24-.16-1.41-.15-1.41-.66-1.29.02-1.44-.34-1.36-.19-1.39-.44-1.36-.18-1.4.18-1.44-.41-1.36-.29-1.39.1-1.42-.23-1.39.07-1.41-.41-1.38-.19-1.39.15-1.42-.45-1.35.13-1.44-.05-1.42-.2-1.43.41-1.4.07-1.42.03-1.44.31-1.39.34-1.38.36-1.28.78-1.09.46-1.26.85-1.03,1.18-.64.94-1.01,1.37-.08,1.27-.5,1.56.19,1.57.15,1.58-.2Z"/>
  <path class="cls-16" d="M269.75,255.3l1.42.23,1.43-.25,1.3.28.99.85,1.06.74.64,1.14.55,1.19-.07,1.43.56,1.31.07,1.39-.31,1.38.08,1.38-.33,1.42.08,1.47-.33,1.42-.12,1.44-.17,1.43.08,1.46-.1,1.45-.39,1.41-.12,1.46-.48,1.39-.55,1.34-.26,1.44-.73,1.26-.53,1.39-1.24.81-1.04,1.04-1.46.17-1.39-.35-1.26-.68-.91-1.13-.64-1.29-.87-1.19-.29-1.43-.62-1.33.08-1.51-.41-1.39-.34-1.42-.22-1.43-.32-1.42.23-1.48-.26-1.43-.07-1.45-.39-1.42v-1.45s-.14-1.37-.14-1.37l.06-1.38v-1.39l.17-1.38.43-1.32.29-1.27.7-1.1,1-.82,1.1-.62,1.24-.03,1.43-.06,1.4-.32Z"/>
  <path class="cls-16" d="M263.22,245.03l-.03-1.3v-1.43s-.27-1.44-.27-1.44l.02-1.44.52-1.4-.07-1.46.3-1.42.36-1.41.66-1.31,1.04-1.05,1.42-.47,1.35.56,1.26.49,1.1-.73,1.41-.21h1.41l1.08.95.87,1.15.19,1.45.73,1.26.25,1.41-.08,1.44.38,1.38v1.42s.32,1.39.32,1.39l-.11,1.42.22,1.53-1.35-.31-1.46.21-1.45.06-1.44-.21-1.46.1-1.45-.22-1.45-.23-1.46.16-1.44-.21-1.34-.14Z"/>
  <path class="cls-16" d="M276.49,237.19l-.34-1.2-.36-1.19-.16-1.25.35-1.39.97-1.07.93-1.1,1.37-.51,1.28-.56,1.19-.82,1.45-.06,1.33-.48,1.38-.28,1.33-.52,1.43-.03,1.39-.27,1.3-.61,1.41-.26,1.22-.76.91-1.16.16-.42.84-.99,1.34.02,1.25.77-.31,1.42-.45,1.28-.42,1.34-.87,1.09-1.01.98-1.19.73-1.3.51-1.4.05-1.31.52-1.39-.09-1.44-.11-1.44.1-1.39.44-1.46.06-1.36.53-1.29.65-1.2.82-1,1.05-.9,1.11-.59,1.27"/>
  <path class="cls-16" d="M263.21,236.76l-.69-1.21-.81-1.2-1.24-.76-1.08-.94-1.36-.46-1.3-.6-1.36-.45-1.45.04-1.42-.26-1.43-.23-1.36.05-1.37-.07-1.32-.37-1.31-.45-.97-1.01-1.09-.81-.88-1.05-.81-1.12-.55-1.28.05-1.53,1.12-1.07,1.45.26,1.11.9.15.45.7,1.16,1.17.81,1.43.15,1.28.67,1.37.36,1.38.33,1.39.26,1.37.33,1.44.06,1.38.35,1.18.87,1.39.36,1.19.78,1.1.91.84,1.18.53,1.39-.31,1.23-.58,1.13-.11,1.27"/>
  <path class="cls-4" d="M269.9,263.25l1.27-.17,1.39.45.66,1.33.15,1.54.04,1.54.02,1.37-.21,1.36-.14,1.37-.48,1.31-.09,1.39-.5,1.3-.91,1.02-1.17.72-1.21-.69-.93-1.03-.36-1.34-.2-1.36-.48-1.31-.02-1.39.08-1.39-.22-1.35-.13-1.52.27-1.51.59-1.32,1.33-.28,1.27-.06Z"/>
</svg>