<?xml version="1.0" encoding="UTF-8"?>
<svg id="Layer_25" xmlns="http://www.w3.org/2000/svg" xmlns:xlink="http://www.w3.org/1999/xlink" viewBox="0 0 538.59 494.63">
  <defs>
    <style>
      .cls-1, .cls-2 {
        fill: none;
      }

      .cls-2 {
        stroke: #101111;
        stroke-miterlimit: 3.99;
        stroke-width: .8px;
      }

      .cls-3 {
        fill: #f4cf88;
      }

      .cls-4 {
        clip-path: url(#clippath-1);
      }

      .cls-5 {
        clip-path: url(#clippath-3);
      }

      .cls-6 {
        clip-path: url(#clippath-2);
      }

      .cls-7 {
        fill: #101111;
      }

      .cls-8 {
        clip-path: url(#clippath);
      }

      .cls-9 {
        fill: #d46ba9;
      }
    </style>
    <clipPath id="clippath">
      <rect class="cls-1" x="183.12" y="257.37" width="169.33" height="53.31"/>
    </clipPath>
    <clipPath id="clippath-1">
      <rect class="cls-1" x="181.78" y="256.04" width="170.81" height="54.64"/>
    </clipPath>
    <clipPath id="clippath-2">
      <rect class="cls-1" x="291.12" y="133.68" width="10.67" height="31.69"/>
    </clipPath>
    <clipPath id="clippath-3">
      <rect class="cls-1" x="175.59" y="189.37" width="2.19" height="2.67"/>
    </clipPath>
  </defs>
  <g class="cls-8">
    <path class="cls-7" d="M184.07,257.79l.76-.05.76-.08.76-.05.76.24.76-.24.76.03.76-.03.76.21.76-.19.76.04.76.1.76-.06.76.16.76-.19.76.07.76-.13.76.28.76-.16.76-.03.76.04.76.06.76.03.76-.11.76-.03.75.04.76-.08.76.19.76-.07.76.07.76-.09.76.06.76-.13.76-.05h.76l.76.24.76-.12.76.06.76-.09.76.04.76.06.76.04h.76s.76-.13.76-.13l.76.02.76-.11.76-.04.76.17.76.08.76-.18.76.14.76.04.76-.25.76.03.76-.02.76.19h.76s.76,0,.76,0l.76-.06.76-.09.76.1.76.04.76.06.76-.15.76.02.76-.06.76.13h.76s.76-.19.76-.19h.76s.76.19.76.19h.76s.76-.04.76-.04l.76.06.76-.07.76-.09.76-.05.76.07.76.16.76-.18.76.02h.76s.76.08.76.08l.76-.03.76.13.76-.2.75.04.76.09.76-.02.76-.05.76.1h.76s.76-.07.76-.07l.76-.14.76.2.76-.07.76-.02.76-.03.76-.05,1.51.18.76-.1.76.06.76-.2.76.22.76-.1.76.07.76-.04h.76s.76.07.76.07l.76.02.76-.14.76.09.76.04.76-.03.76-.02.75.04.76.02.76-.25.76.24.76-.11.76-.04.76-.07.76.08.76.17.76-.23.76.02.76.16.76-.15.76.1.76-.11.76.08.76.04.76-.11.76-.05.75.2.76-.05.76-.1.76.06.76.03.76.05.76-.13.76-.08.76.05.76.11h.76s.76.02.76.02l.76.04.76-.09.76-.06.76-.07.76.18.76-.1.76.11.76-.04.75.02.76-.15.76.02h.76l.76.17.76-.08.76.13.76-.04.76-.22.76.04.76.07.76-.03.76.07.76-.16.76.16.76-.04.76-.11.76.2.76.02.76-.15.75.16h.76s.76-.02.76-.02l.76-.18.76.14.76.05.76.02.76-.1.76.06.76-.2.76-.03.76.06.76.05.76.09.76-.2.76.2.76-.09.76.09.76-.09.76.09.75-.07.76.09.76-.19.76.07h.76s.76.16.76.16h.76s.76,0,.76,0l.76-.06.76-.18h.76s.76.24.76.24h.76s.76-.08.76-.08l.76-.12.76.17.76.03.76-.15.76.15.75-.26.76.05.76.11.76-.05h.76s.76-.13.76-.13l.76.26h.76s.66-.03.66-.03l.06.67.13.77-.17.76.19.76-.15.76-.08.76.17.76-.13.76-.04.76v.76s.16.76.16.76l-.05.76-.02.76.09.76-.16.76-.02.76.27.76-.13.76-.14.76.13.76-.07.76.03.76v.76l.04.76-.1.76.15.76v.76s-.01.76-.01.76l-.04.76-.15.76.14.76.11.76-.18.76.2.76-.27.76.06.76.18.76-.06.76-.11.76.08.76v.76s0,.76,0,.76l.09.76-.13.76v.76s.04.76.04.76l-.12.74-.21.72-.4.64-.42.61-.38.67-.63.44-.62.43-.52.57-.68.35-.57.52-.73.24-.6.47-.69.32-.66.38-1.42.55-.73.21-.65.43-.69.33-.72.25-.77.1-.74.16-.65.45-.72.24-.76.13-.7.29-.74.18-.76.1-.7.3-.78.03-.7.34-.77.05-.76.1-.73.19-.7.33-.78-.03-.71.32-.75.12-.73.24-.74.16-.77-.02-.75.12-.74.18-.71.3-.75.11-.76.07-.74.17-.75.08-.74.15-.77.03-.76.02-.74.14-.72.29-.76.09-.76.07-.75.12-.77.03-.75.1-.75.12-.75.16-.76.04-.76.09-.76.07-.76.08-.74.2-.76.07h-.76l-.77-.05-.74.26-.76.02-.76.03-.75.19-.76.08h-.76s-.77-.05-.77-.05l-.74.23-.76.06-.76.05-.77-.13-.76.08-.76.04-.75.16-.76.11-.76.14-.77-.08-.76.06-.77-.03-.74.23-.77-.06-.77-.09-.75.26-.76-.06-.77-.11-.76.15-.76.05-.77-.09-.76.08-.76.02-.76.05-.76.06-.76-.09-.76.09-.76.2-.76-.03-.77-.17-.76.17-.77-.1-.76.16-.77-.02-.76-.15-.76.26-.77-.04-.76-.15-.76.19-.76-.18-.76.07-.76-.02-.77.17h-.76s-.77-.23-.77-.23l-.76-.03-.77.03-.76.05-.77.03-.76.02-.77-.02-.76-.04-.76-.12-.77.04-.76-.07-.77.14-.76-.06h-.76s-.76-.18-.76-.18l-.77.2-.76-.11-.76-.09-.77.08-.76-.12-.76-.11-.76.08-.77.05-.74-.27-.77.14-.76-.14-.76-.08-.77.07-.75-.09-.77.09-.75-.17-.76.02-.74-.23h-.76s-.77.09-.77.09l-.74-.23h-.76s-.77.05-.77.05l-.74-.2-.76-.02-.75-.09-.77.04-.75-.19-.76-.08-.76-.08-.78.15-.76-.09-.73-.27-.76-.13-.78.17-.74-.17-.74-.26-.75-.09-.76-.08-.75-.09h-.77s-.77.04-.77.04l-.74-.24-.74-.17-.77.05-.73-.23-.78.09-.71-.34-.75-.12-.75-.09-.78.09-.74-.15-.61-.37-.79.13-.73-.2-.76-.11-.72-.25-.78.02-.72-.26-.73-.24-1.48-.35-.76-.1-.73-.21-.74-.16-.77-.02-.74-.17-.76-.13-.74-.16-.7-.34-.76-.12-.76-.1-.7-.31-.7-.31h-.79l-.68-.36-.72-.26-.72-.23-.73-.22-.73-.22-.75-.15-.7-.31-.71-.28-.66-.4-.76-.16-1.28-.85-.7-.28-.76-.2-.53-.59-.73-.26-.6-.46-.59-.47-.52-.56-.67-.41-.35-.7-.6-.51-.18-.77-.32-.69-.08-.76v-.77s.11-.77.11-.77l-.1-.76.11-.76.05-.76-.21-.76-.06-.76.14-.76-.11-.76.17-.76.04-.76-.11-.76.05-.76-.12-.76v-.76s.15-.76.15-.76l-.02-.75.06-.76-.07-.76.02-.76.07-.76-.13-.76-.02-.76-.12-.76.18-.76-.16-.76.2-.76-.08-.76-.03-.76-.07-.76v-.76s.05-.76.05-.76l-.04-.76.16-.76-.17-.76.21-.76-.25-.76.27-.76-.09-.76.08-.76-.24-.76.22-.76-.06-.76-.14-.76.21-.76-.04-.67.68-.04Z"/>
  </g>
  <g class="cls-4">
    <path class="cls-7" d="M266.92,310.66l-.93-.02-.71-.21-.71-.03-3.03.13-.78-.02-.82-.05-.72-.12-.74.04-.73-.07-.76.14-.81-.06h-.78s-.71-.17-.71-.17l-.75.19-1.54-.21-.77.08-1.51-.23-.71.08-.86.05-.73-.26-.73.13-.82-.15-.69-.07-.77.06-.75-.09-.79.09-.77-.18-.78.03-.75-.24h-.67s-.83.1-.83.1l-.77-.24h-.7s-.81.05-.81.05l-.76-.2h-.71s-.76-.1-.76-.1l-.79.03-.77-.19-1.42-.16-.78.16-.91-.12-.7-.26-.64-.1-.8.17-.87-.21-.69-.24-2.19-.26h-.74s-.83.04-.83.04l-.8-.26-.65-.15-.79.05-.72-.23-.81.09-.77-.37-.69-.11-.69-.09-.8.09-.9-.19-.6-.29-.76.13-.8-.22-.8-.13-.66-.23-.78.03-1.52-.52-1.43-.34-.79-.1-.73-.22-.68-.14-.81-.03-.74-.16-.73-.13-.84-.2-.65-.31-.69-.11-.86-.13-1.33-.59h-.8l-.74-.4-.69-.24-2.14-.66-.82-.17-.7-.31-.75-.3-.6-.36-.77-.17-1.3-.87-.65-.25-.84-.23-.55-.6-.75-.28-.6-.46-.65-.53-.48-.52-.72-.44-.36-.72-.65-.54-.19-.85-.34-.71-.09-.85.02-.84.09-.71-.1-.76.13-.82.04-.66-.21-.77-.06-.81.14-.75-.12-.77.18-.8.04-.69-.11-.76.05-.76-.12-.75v-.86s.14-.72.14-.72v-.71s.05-.76.05-.76l-.08-.76.03-.78.07-.73-.13-.77-.02-.73-.13-.81.17-.74-.16-.76.21-.78-.07-.69-.03-.79-.06-.74v-.79s.05-.77.05-.77l-.05-.78.15-.73-.18-.77.21-.73-.26-.77.29-.8-.08-.71.08-.72-.26-.8.24-.81-.05-.66-.15-.83.22-.79-.05-.99,1.83-.12.73-.08.85-.06.71.23.7-.22.83.03.8-.03.71.2.71-.18.82.04.75.09.78-.06.72.15.74-.18.77.07.81-.14.75.28.71-.14.76-.03.79.04.77.06.71.03.77-.11.76-.03.76.04.8-.09.76.19.73-.07.75.07.76-.1.75.06.71-.12.79-.06.91.02.67.21.71-.11.76.06.76-.09.79.05.77.06.75.04h.7s.77-.14.77-.14l.76.03.72-.11.85-.04.79.18.67.07.77-.18.82.15.65.03.76-.25.83.03.78-.02.77.19h.71s.75,0,.75,0l.73-.06.79-.09.81.11.72.04.71.06.74-.14.8.02.77-.05.77.13h.68s.8-.18.8-.18h.81s.77.19.77.19h.7s.76-.04.76-.04l.76.06,2.27-.21.83.08.67.14.72-.17,1.56.02.77.07.77-.03.71.13.73-.19.82.05.75.09.73-.02.78-.05.77.1h.71s.73-.07.73-.07l.82-.15.77.2.68-.07,2.32-.09,1.49.18.75-.1.73.06.79-.21.79.22.72-.1.77.08.72-.04h.8s.78.07.78.07l.68.02.78-.14.82.1.72.03,1.49-.05.79.05h.67s.81-.26.81-.26l.79.26.66-.1.8-.04.78-.07.84.09.66.14.72-.22.89.04.68.15.74-.15.77.1.75-.1.8.08.7.03.72-.11.85-.05.76.19.69-.04.77-.11.8.07.73.03.72.05.71-.11.82-.09.79.05.76.11h.73s1.5.06,1.5.06l.72-.08,1.59-.14.75.18.74-.1.77.12.71-.04.74.02.76-.15,1.64.03.69.16.74-.08.77.13.67-.03.78-.22.82.04.74.07.76-.03.72.06.78-.17.79.17.7-.04.8-.11.79.2.67.02.79-.16.8.16h.71s.7-.01.7-.01l.8-.19.81.15.73.05.71.02.77-.09.73.05.78-.19.78-.04,1.54.11.7.08.78-.21.78.21.73-.09.76.09.76-.09.76.09.76-.07.72.09.75-.2.82.08h.76s.76.16.76.16h.71s.76,0,.76,0l.69-.06.82-.18.88.02.7.22h.67l.73-.09.81-.13.8.18.67.02.79-.16.73.15.73-.24.84.06.74.11.71-.04h.74l.82-.14.79.27,1.72-.04.09,1.05.13.81-.17.74.19.75-.16.85-.07.67.17.77-.14.81-.04.73v.7l.16.77-.05.82-.02.71.09.8-.17.79-.02.65.27.79-.27,1.56.13.74-.07.78.03.73v.77s.04.78.04.78l-.09.72.15.77v.76s-.06,1.6-.06,1.6l-.14.68.13.68.12.85-.17.74.21.78-.28.79.05.65.19.79-.07.82-.11.73.08.76v.76s0,.73,0,.73l.09.8-.14.78v.72s.05.78.05.78l-.14.83-.25.83-.4.64-.43.63-.4.72-1.29.91-.54.58-.69.36-.59.54-.74.24-.63.48-.69.32-.68.39-1.42.55-.7.21-.65.42-.72.34-.8.27-.77.1-.64.14-.69.45-.78.26-.71.13-.72.29-.78.19-.7.09-.72.31-.77.02-.69.34-.85.06-.71.09-.67.18-.76.36-.79-.03-.72.31-.72.11-.74.24-.79.16-.79-.02-.71.12-.68.16-.78.31-.75.11-.76.07-.76.17-.76.08-.77.15-1.51.05-.68.13-.79.3-1.52.17-.77.11-.77.03-1.46.22-.79.16-.76.05-2.21.24-.78.2-.76.07h-.8s-.71-.04-.71-.04l-.79.25-1.47.05-.76.19-.8.08h-.77s-.71-.05-.71-.05l-.76.23-1.57.1-.76-.13-.7.07-.75.04-.72.15-.78.11-.8.15-.79-.09-.74.06-.72-.03-.76.23-.84-.07-.69-.08-.74.26-.84-.07-.73-.1-.73.14-.8.06-.76-.09-.71.08-.79.02-1.54.11-.76-.09-.68.08-.79.21-.9-.04-.68-.16-.74.17-.77-.1-.73.16-.88-.02-.66-.13-.73.25-.9-.05-.67-.14-.77.19-.79-.19-.72.06-.73-.02-.76.22ZM266.17,309.86h.67s.77-.17.77-.17l.79.02.8-.07.73.18.75-.18.82.16.66.04.78-.27.83.16h.68s.78-.15.78-.15l.76.1.78-.17.81.19.67.02.76-.19.8-.1.77.1,1.49-.1.78-.02.77-.09.77.09.7-.05.8-.16.83.12.66.05.76-.26.85.1.68.05.74-.22.81.04.77-.06.74.08.7-.12.77-.11.79-.16.76-.04.79-.08.78.13,1.42-.1.77-.24.84.05h.72s.7-.07.7-.07l.8-.19,1.46-.05.76-.27.85.06h.73s.69-.07.69-.07l.77-.2,2.27-.25.76-.04.71-.15,1.53-.23.78-.04.73-.11,1.47-.16.75-.29.81-.15,1.49-.05.71-.14.77-.08.77-.17.76-.07.68-.1.73-.3.74-.17.81-.14.77.02.68-.14.77-.24.69-.11.74-.33.78.03.68-.32.78-.2.76-.09.71-.05.7-.35.79-.03.73-.3.74-.1.69-.17.76-.3.72-.12.64-.22.67-.46.82-.18.76-.1.66-.23.64-.31.73-.46.73-.21,1.35-.54.63-.36.68-.32.62-.48.72-.24.59-.52.61-.32.54-.57,1.17-.82.33-.59.44-.65.36-.57.19-.65.11-.68-.05-.71v-.85s.13-.7.13-.7l-.09-.74v-.76s0-.74,0-.74l-.09-.79.12-.81.05-.66-.17-.76-.07-.84.26-.72-.2-.74.18-.78-.1-.69-.15-.82.16-.81.05-1.48v-.7s-.17-.79-.17-.79l.1-.79-.03-.72v-.78s-.04-.77-.04-.77l.06-.73-.13-.78.25-1.48-.26-.73.03-.9.15-.7-.08-.72.02-.79.05-.72-.16-.75v-.8s.05-.83.05-.83l.11-.68-.16-.75.09-.82.13-.71-.19-.77.18-.78-.11-.68-.03-.32-1.11.02-.72-.25-.69.12h-.79s-.77.04-.77.04l-.8-.12-.64-.05-.79.27-.78-.16-.72.15-.88-.04-.68-.16-.68.11-.8.09-.9-.02-.7-.22h-.65l-.77.17-.76.06h-1.58s-.76-.16-.76-.16h-.71s-.72-.06-.72-.06l-.77.19-.79-.1-.76.07-.75-.1-.76.09-.76-.09-.78.09-.73-.19-.72.2-.84-.1-1.47-.11-.69.03-.78.2-.78-.06-.75.09-.79-.02-.81-.06-.68-.13-.76.18-.76.02-.84-.02-.68-.14-.72.15-.89-.04-.68-.17-.67.09-.84.04-.72-.16-.73.16-.79-.07-.76.04-.78-.08-.67-.04-.79.22-.8.03-.74-.13-.77.08-.78-.18-1.44-.02-.76.16-.8-.02-.76.05-.74-.11-.78.1-.76-.18-2.23.21-1.54-.07h-.77s-.79-.1-.79-.1l-.69-.05-.72.07-.78.13-.8-.06-.74-.03-.73-.06-.71.1-.85.05-.75-.2-.7.04-.76.12-.8-.04-.73-.07-.77.11-.74-.1-.78.16-.8-.17-.65-.02-.8.24-.83-.18-.7-.07-.71.07-.78.04-.81.12-.72-.22-.7.23-.83-.02-.77-.05-1.47.05-.79-.04-.72-.09-.74.13-.8-.02-.76-.08h-.73s-.77.05-.77.05l-.74-.08-.79.11-.73-.21-.72.19-.78-.07-.76.1-1.53-.18-.72.04-1.52.05-.81.07-.73-.19-.67.12-.8.09-.83-.02-.72-.09-.71.05-.8.03-.79-.1-.67-.04-.78.2-.8-.14-.74.03-.78-.08h-1.43s-.8.17-.8.17l-.82-.17-.7-.07-.72.05-1.53.16-.77-.06-.72.04-.89-.03-.7-.19h-.66s-.8.19-.8.19h-.79s-.74-.11-.74-.11l-.71.05-.75-.02-.77.15-.81-.07-.74-.04-.74-.1-.7.09-.77.06h-.79s-.85-.01-.85-.01l-.71-.17-.7.02-.71-.03-.76.26-.89-.05-.67-.13-.74.18-.88-.1-.7-.16-.7.04-.75.11-.76-.03-.75.14h-.79s-.78-.05-.78-.05l-1.48-.1-.76.09-.75-.06-.81.13-.79-.25h-.7s-.72.05-.72.05l-.77.14-.77-.07-.76.1-.77-.07-.79.07-.75-.19-.71.08-.79-.04-.7.03-.77.11-.79-.03-.78-.06-.74-.04-.69.03-.84.17-.77-.28-.7.1-.74-.07-.78.2-.79-.16-.74.06-.8-.1-.67-.03-.8.21-.8-.23-.7.03-.72-.03-.81.26-.81-.26-.68.04-.74.08-1.06.07.02.34-.21.73.13.71.06.83-.21.71.23.72-.08.8.09.8-.26.72.25.74-.22.78.17.74-.17.8.05.73-.07.79.02.72.06.73.03.78.08.81-.2.73.16.76-.18.77.11.73.02.73.13.78-.08.81-.02.71.08.77-.06.8v.77s-.14.76-.14.76v.69s.12.78.12.78l-.05.76.11.76-.05.86-.15.69.11.75-.15.78.05.67.22.79-.05.83-.11.74.11.76-.11.79v.71s.07.67.07.67l.32.71.14.63.56.47.34.67.65.42.5.54.57.46.55.41.77.28.53.57.68.19.78.32,1.21.81.74.16.69.41.68.27.67.3.76.15,2.18.68.78.28.6.32h.78l1.42.64.7.09.88.16.66.32.69.15.73.13.72.16.8.03.74.15.73.21.77.1,1.48.35,1.42.48.77-.03.76.27.77.11.65.18.83-.14.78.37.63.13.77-.09.8.1.88.16.61.29.75-.09.74.24.75-.04.8.18.7.22.7-.03h.8s2.37.28,2.37.28l.71.24.64.15.77-.16.9.16.69.26.65.08.78-.16,1.63.19.69.17.74-.03.79.09.82.03.68.18.7-.04h.84s.72.22.72.22l.71-.1.91.03.68.22.75-.03.73.17.74-.08.76.09.77-.06.79.08.71.13.8-.14.77.28.68-.05.8-.08,1.51.23.76-.08.8.1.69.1.79-.2.81.2h.71s.74.05.74.05l.77-.14.79.07.78-.04.78.13.74.04.75.02,1.49-.05,1.52-.08.9.04.7.2Z"/>
  </g>
  <path class="cls-9" d="M352.01,257.75l.02.79-.28.73-.37.68-.38.67-.62.48-.52.56-.61.45-.59.47-.64.42-.65.39-.59.49-.67.38-.74.21-.72.26-.59.54-.74.21-.66.4-.79.08-.65.43-.72.26-.72.25-.76.14-.71.28-.77.07-.7.31-.69.34-.72.26-.78.03-.75.14-.72.25-.71.28-.78.02-.7.33-.77.07-.75.1-.72.27-.76.06-.7.36-.73.2-.75.15-.79-.08-.75.11-.72.23-.76.08-.75.11-.74.18-.73.27-.74.17h-1.53s-.73.23-.73.23l-.74.17-.78-.07-.72.29-.74.17-.77-.02-.75.1-.74.15-.77-.04-.74.17-.77-.03-.73.28-.77-.02-.77-.02-.72.32-.77-.06-.76.08-.76.12-.76.07-.74.17-.76.08-.77-.06-.75.17-.77-.12-.76.06-.76.06-.75.09-.74.2-.75.1-.77-.04h-.76s-.75.21-.75.21l-.76.08-.76.06-.76-.02-.76.09-.76.07-.77-.15h-.76s-.76.18-.76.18l-.76.09-.77-.16-.76.05-.75.2-.76.08-.77-.21-.76.1-.76.05-.76.12-.76-.11-.77-.03-.76.17-.76.1-.77.02-.77-.22-.76.2-.77-.17h-.76l-.76.18-.76-.11-.76.21-.77-.19-.76.08-.77-.12-.76.24-.77-.17-.77-.06-.76.06-.76.08-.76-.05-.76-.07-.77.04-.76-.05-.76.21h-.76s-.76-.24-.76-.24l-.76.13-.77.04-.75-.24-.77.23-.76-.1-.77.07-.75-.29-.77.23-.76-.24-.77.14-.75-.18-.77.02-.76-.09-.76-.02-.77.03h-.76s-.77.03-.77.03l-.75-.24-.77.13-.75-.22-.77.08-.76-.03-.77.08-.76-.11-.76-.07-.77.03-.76-.11-.76-.05-.75-.2-.76-.06-.77.06-.76-.1-.77.05-.76-.1-.74-.23-.77.05-.74-.21h-.76s-.78.13-.78.13l-.75-.13-.74-.2-.77.03-.74-.19-.76-.09-.76-.08-.77.02-.73-.28-.78.13-.73-.28-.77.07-.74-.18-.75-.13-.75-.14-.78.06-.72-.34-.77.07-.77-.04-.73-.22-.73-.24-.78.03-.73-.23-.75-.13-.74-.17-.77-.02-.75-.11-.75-.11-.75-.14-.74-.17-.71-.29-.79.07-1.44-.53-.77-.06-.76-.1-.7-.33-.74-.16-.75-.14-.73-.18-.77-.05-.74-.19-.72-.26-.74-.15-.71-.26-.72-.24-.69-.32-.68-.34-.77-.08-.68-.36-.72-.23-.68-.33-.8-.04-.62-.49-.68-.33-.78-.12-.69-.31-.68-.35-.56-.57-.76-.2-.57-.52-.71-.3-.57-.52-.48-.59-.63-.44-.57-.51-.44-.64-.36-.69-.22-.74.09-.78.17-.73-.02-.8.39-.67.59-.52.49-.55.38-.69.59-.48.61-.45.69-.33.59-.49.67-.36.65-.4.74-.22.65-.42.66-.38.77-.14.65-.44.69-.32.78-.09.69-.33.76-.13.67-.37.73-.19.7-.33.74-.18.76-.12.68-.38.79.03.71-.28.71-.3.76-.11.76-.09.72-.28.76-.11.76-.08.7-.38h.77s.74-.19.74-.19l.76-.12.71-.3.76-.09.73-.19.77-.04.75-.11.75-.13.74-.16.74-.16.74-.18.74-.16.75-.09.78.1.74-.11.72-.28.75-.09.74-.17.78.08.72-.28.77.06.76-.05.72-.34.77.07.76-.07.73-.23.77.03.74-.23.78.11.76-.03.73-.26.74-.14.77.04.75-.11.76-.09.76-.06.76-.13.77.06.76-.08.74-.17.77.09.77.04.74-.28.77.08.76.05.74-.23.77.03.76-.06.77.09.75-.14.76-.1.75-.15.76-.03.76-.06.77.15.76-.02.76-.03.75-.2.77.08.76.04.76-.04.76-.15.77.02.76.03.76-.21.76.11.77.06h.76s.76-.14.76-.14l.76-.02h1.53s.77.03.77.03l.76-.07.77-.03.76-.02.77.07.76-.02.77.03.77.02.76-.18.77-.02.76.1.76.09.76-.02.76.05.76-.03.76.07.76.04.76-.16.77-.02.76.04.76.18h.76s.76-.05.76-.05l.76.06.77-.14.76.22.77-.15h.76s.76.11.76.11l.76.16.77-.13.75.21.77-.08.76.15.76.06.77-.04.76.14.76.03.78-.18.75.13.76.2.76.06.77-.02.77-.1.75.13.76.08.76.1h.76l.76.08.77-.07.74.22.77-.07.75.16.77-.06.75.15.74.19.77-.07.75.08.75.16.76.07.75.13.76.04.76.09.74.22h.76l.76.09.75.1.77.02.74.21.74.16.78-.07.76.05.71.38.78-.08.72.29h.77s.77-.01.77-.01l.72.27.74.16.74.15.74.13.78-.02.73.23.75.11.74.14.76.12.73.22.77.03.71.29.72.28.8-.09.73.19.7.33.76.1.73.2.72.24.78.04.73.2.72.24.69.34.78.06.7.31.68.36.78.06.66.41.76.14.74.18.7.29.71.28.59.54.74.19.68.33.7.31.61.46.63.43.78.19.54.56.7.34.56.52.42.65.58.5.51.58.34.7v.79s.23.72.23.72Z"/>
  <path class="cls-7" d="M269.19,275.72l-.84-.18-.71-.05-.73.05-.78.09-.8-.05-.74-.07-.76.04-.72-.05-.76.21-.93-.03-.67-.2-.71.12-.83.04-.71-.22-.73.22-.8-.11-.81.07-.71-.28-.76.22-.78-.24-.75.14-.79-.19-.74.02-.79-.1-.72-.02-.73.03h-.78s-.81.03-.81.03l-.72-.23-.77.12-.76-.22-.72.07-.76-.04-.79.09-.81-.13-.71-.07-.78.03-.79-.11-.81-.06-.71-.19-.69-.06-.78.07-.76-.11-.77.05-.86-.13-.67-.21-.76.04-.76-.21-.67-.02-.81.15-.82-.14-.72-.19-.77.03-.78-.2-1.45-.17-.82.02-.71-.27-.79.12-.74-.28-.75.07-.81-.2-1.42-.24-.83.07-.71-.34-.7.05-.88-.05-.73-.22-.67-.22-.77.03-.77-.25-.72-.13-.72-.17-.78-.03-1.5-.22-.76-.14-.81-.2-.63-.26-.78.06-1.47-.55-.7-.06-.89-.13-.67-.31-2.16-.45-.81-.06-.73-.19-.73-.26-.76-.16-1.45-.48-.73-.33-.64-.32-.78-.08-.71-.38-.74-.24-.61-.3-.84-.04-.68-.54-.59-.29-.82-.14-.69-.31-.8-.44-.47-.49-.74-.2-.59-.54-.71-.3-.66-.6-.45-.55-.62-.44-.64-.58-.46-.68-.39-.76-.24-.82.1-.9.16-.68-.02-.86.47-.83.62-.54.45-.51.4-.72.65-.53.7-.51.65-.31.61-.5.67-.36.72-.44.68-.2.59-.38.74-.42.75-.13.63-.42.81-.36.71-.08.73-.33.69-.12.71-.38.7-.18.73-.34.74-.18.72-.11.72-.4.82.03.64-.25.8-.33,1.47-.19.76-.29.76-.1.69-.08.71-.39h.83s.69-.18.69-.18l.73-.11.78-.31.73-.1.8-.2.77-.03,1.45-.23,2.95-.66.84-.11.78.1.65-.09.78-.29.73-.08.79-.18.75.07.72-.28.83.06.66-.04.75-.35.85.07.68-.06.76-.24.77.03.76-.24.83.12.66-.03.73-.26.8-.16.78.05,1.48-.19.78-.07.77-.13.78.06.69-.08.79-.18.83.09.66.03.75-.28,1.54.13.74-.23.81.03.77-.06.74.08.7-.12.77-.1.79-.15.76-.03.79-.06.78.15,1.42-.05.78-.21.84.09.72.04.7-.04.77-.16,1.52.05.78-.21.84.12.74.06h.69s.79-.14.79-.14l.76-.02h1.53s.76.03.76.03l.73-.07,1.55-.05.79.06.74-.02,1.5.05.79-.18.79-.03,1.53.19.73-.02.78.05.77-.03.79.08.69.03.78-.15.77-.02.86.05.71.17h.7s.78-.06.78-.06l.73.06.81-.15.76.22.71-.13h.85s.76.13.76.13l.7.15.78-.13.77.21.75-.08.79.15.71.06.78-.04.78.14.68.03.8-.19.84.15.74.2.72.05.7-.02.81-.11.81.15,1.47.17h.78s.72.08.72.08l.81-.07.74.22.75-.07.75.16.77-.06.81.16.7.18.74-.07.8.08.76.16.74.07.76.13.73.04.85.11.68.2h.75s1.49.19,1.49.19l.85.03.74.22.65.14.75-.07.88.06.68.36.76-.08.74.3h.69s.83-.01.83-.01l.77.29,1.45.31.7.11.8-.02.76.24.72.1.76.15.79.13.68.2.79.03,1.4.56.77-.09.88.24.64.3.75.1.73.2.69.22.81.05.73.21.79.27.63.3.77.06.76.33.64.34.79.06.68.42.68.13.83.2,1.46.6.58.52.72.2.68.33.76.34.61.46.55.37.82.2.57.59.73.38.64.59.39.6.58.5.56.67.39.78v.83s.21.78.21.78l.02.86-.33.87-.79,1.42-.66.51-.55.58-.61.45-.61.49-.64.42-.64.38-.62.52-.76.42-.74.21-.61.22-.6.55-.78.22-.69.42-.78.07-.65.43-1.5.52-.72.13-.78.29-.71.07-.65.28-.71.35-.83.28-.76.03-.69.13-.69.24-.76.31-.77.02-.69.32-.83.07-.7.09-.79.28-.68.05-.71.36-.73.2-.83.17-.8-.08-.67.1-.77.24-.76.09-.74.1-.68.17-.75.27-.83.19h-.77l-.7-.02-.67.22-.84.19-.74-.07-.7.28-.79.18-.79-.02-.72.09-.77.16-.76-.04-.74.17-.74-.03-.73.28-1.52-.04-.74.32-.83-.07-.71.08-.73.11-.76.07-.77.17-.79.08-.74-.06-.77.18-.8-.13-1.46.11-.7.09-.77.2-.79.11-.8-.04h-.68s-.76.21-.76.21l-1.54.14-.76-.02-.72.09-.83.07-.79-.15h-.68s-.76.18-.76.18l-.82.1-.78-.17-.66.05-.77.19-.83.09-.76-.2-.68.09-.79.05-.78.12-.8-.11-.69-.02-.71.16-.8.1-.86.03-.72-.21-.74.2-.82-.18h-.67l-.79.19-.76-.12-.78.22-.8-.2-.74.08-.72-.11-.77.25ZM261.61,274.89h.65s.78-.21.78-.21l.8.06.77-.05.79.08.71.04.73-.08.8-.06.85.07.66.14.76-.23.8.13.78-.08.73.18.73-.21.77.11.78-.17h.81s.71.16.71.16l.77-.2.81.23.7-.02.72-.09.77-.18.85.03.71.1.7-.11.8-.05.8-.11.78.21.65-.07.8-.2.81-.06.76.16.67-.08.82-.18h.8s.75.14.75.14l.7-.06.77-.09.77.02,1.45-.13.77-.23h.82s.74.05.74.05l.69-.1.78-.2.75-.1,1.57-.12.74.11.73-.17.8.06.69-.07.78-.17.76-.07.72-.11.81-.09.7.06.72-.32,1.54.04.73-.28.8.03.75-.17.77.04.7-.14.81-.1h.75s.66-.14.66-.14l.78-.32.81.07.68-.16.76-.25h.83s.71.01.71.01l.67-.16.75-.27.73-.18.79-.11.73-.08.76-.24.8-.11.78.08.69-.14.67-.19.73-.38.79-.06.76-.27.76-.09.71-.07.71-.33.79-.02.65-.26.8-.27.81-.15.72-.03.64-.23.67-.33.78-.34.79-.07.73-.28.73-.13,1.35-.48.69-.46.8-.07.68-.4.65-.18.58-.53.79-.28.72-.2.59-.34.61-.51.65-.39.6-.4.57-.46.59-.44.54-.58.55-.43.7-1.25.23-.64-.02-.65-.23-.73v-.76s-.27-.57-.27-.57l-.45-.52-.64-.56-.39-.61-.48-.45-.7-.34-.51-.53-.73-.18-.69-.46-.59-.44-.65-.29-.66-.32-.8-.21-.61-.56-1.32-.55-.71-.17-.81-.15-.64-.4-.77-.06-.76-.41-.6-.26-.79-.06-.74-.36-.7-.23-.67-.19-.83-.05-.72-.24-.69-.19-.84-.13-.67-.32-.63-.16-.82.09-1.46-.59-.79-.04-.7-.21-.72-.11-.76-.15-.8-.13-.67-.21-.74.02-.78-.14-1.56-.33-.65-.24-.69.02-.85-.02-.7-.28-.81.09-.74-.4-.65-.04-.81.07-.8-.17-.71-.21-.76-.02-1.48-.19-.85-.02-.71-.21-.72-.09-.78-.04-.75-.13-.77-.07-.75-.16-.68-.07-.8.08-.82-.21-.67-.13-.77.06-.74-.16-.79.07-.75-.22-.73.06-.77-.08h-.79s-1.5-.19-1.5-.19l-.72-.13-.76.1-.77.02-.87-.07-.75-.2-.64-.11-.74.17-.87-.04-.71-.13-.74.04-.82-.07-.7-.14-.78.08-.74-.2-.76.13-.83-.18-.7-.1h-.69s-.82.15-.82.15l-.76-.22-.72.13-.78-.06-.75.06-.87-.02-.72-.17-.72-.04-.7.02-.78.16-.81-.03-.76-.07-.76.03-.79-.05-.75.02-1.52-.19-.69.03-.78.18-1.58-.05-.76.02-.78-.07-1.47.04-.77.07-.79-.04h-.73s-.77.01-.77.01l-.72.02-.8.13h-.76s-.79-.06-.79-.06l-.71-.1-.73.2-1.54-.05-.77.15-.78.04-.79-.04-.71-.08-.77.2-1.57.06-.76-.15-.7.06-.74.03-.72.14-.78.1-.79.14-.79-.08-.74.06-.72-.03-.75.24-.84-.06-.69-.07-.73.28-.85-.05-.72-.08-.72.17-.79.08-.76-.05-.71.11-.79.06-1.52.2-.76-.05-.67.14-.82.27-.8.04-.72-.1-.72.23-.77-.03-.76.23-.79.07-.7-.06-.69.33-.86.05-.71-.05-.73.29-.81-.08-.72.16-.7.09-.76.28-.8.12-.79-.1-.7.09-2.93.65-.77.14-.76.1-.77.04-.74.19-.7.09-.76.31-.75.11-.8.19h-.67s-.68.38-.68.38l-.84.09-.7.1-.77.29-1.45.19-.66.28-.8.31-.77-.02-.65.36-.82.13-.67.17-.73.33-.69.18-.69.38-.77.13-.7.33-.78.09-.6.28-.69.46-.79.14-.59.35-.72.45-.69.2-.6.38-.66.36-.65.52-.66.32-.58.43-.52.42-.4.7-.53.59-.54.47-.29.52.02.74-.18.76-.08.67.18.63.33.64.4.57.52.46.69.51.46.57.49.45.71.31.55.49.77.21.59.6.61.33.63.28.84.14.76.38.52.42.76.03.73.36.76.25.6.32.77.08.75.38.68.31,1.38.45.78.17.72.26.66.17.81.06.73.18,1.57.32.65.3.7.09.85.09,1.35.5.8-.07.78.32.7.17.73.14,1.46.22.82.03.74.17.78.14.66.22.78-.03,1.47.47.69.04.86-.07.72.34.72-.06,1.54.27.71.17.8-.07.72.28.78-.12.76.28.71-.02,1.59.19.69.17.77-.03.8.21.65.1.74-.14.91.03.68.19.77-.04.78.24.68.09.77-.05.75.11.76-.06.86.08.71.19.72.05.76.11.76-.03.78.08.72.11.74-.07.77.03.81-.08.74.21.78-.13.77.25.69-.04h.79s.74-.03.74-.03l.79.02.77.09.79-.02.72.18.78-.15.73.23.78-.23.8.31.71-.06.71.09.8-.24.8.26.67-.04.83-.14.78.23Z"/>
  <path class="cls-3" d="M339.04,257.75l-.13.7-.18.76-.5.59-.65.42-.53.57-.77.21-.62.44-.67.36-.69.31-.69.31-.69.32-.76.12-.74.18-.66.42-.72.23-.79.02-.69.34-.71.3h-.78s-.73.23-.73.23l-1.49.29-.71.32-.76.12-.74.17-.75.14-.77.02-.72.29h-.77s-.74.19-.74.19l-.74.16-.76.1-.74.19-.76.06-.74.15-.75.11-.78-.13-.73.25-.73.23h-.76s-.75.14-.75.14l-.75.1-.76.04-.77-.04-.74.22-.77-.03h-.77s-.74.19-.74.19l-.76.02-.75.18-.76.07-.77-.08-.74.21-.75.15h-.77l-.77-.05-.75.18-.76.03-.76.07-.75.16-.77-.02h-.76s-.77-.02-.77-.02l-.76.08-.76.14-.76.03-.77-.04-.76.02-.76.14-.77-.03-.76-.02-.76.16-.77-.06-.76.11-.76.09-.76-.05-.76.1-.77-.05-.76.14-.77-.15-.76.14-.76.02-.77-.05-.76.06-.76-.1-.76.05-.76.02-.76.18-.76-.12-.77.14-.76-.08-.77.13-.76-.16-.77-.07-.76.18-.77-.16-.77.12-.76-.16-.77.24-.76-.25-.77.1-.76-.07-.77.08-.76.04-.77.08-.76-.06-.77-.05-.76.06-.76-.18-.77.03-.76-.07h-.77s-.76-.04-.76-.04l-.76-.04-.77.11h-.77s-.76-.19-.76-.19l-.76-.11-.77.22-.75-.13-.77.08-.75-.25-.77.15-.76-.04-.76-.04-.76-.15h-.77l-.75-.2-.76.04-.77.09h-.76l-.75-.23-.76-.11h-.76s-.77.05-.77.05l-.75-.22-.77.09-.75-.16-.75-.14-.77.04-.75-.17-.78.14-.76-.02-.76-.08-.73-.3-.75-.11-.77.02-.75-.13-.76-.11-.76-.04-.77.05-.77-.04-.74-.22-.73-.23-.77.03-.76-.05-.72-.28-.78.07-.76-.04-.73-.23-.75-.12-.76-.07-.73-.26-.76-.05-.73-.25-.78.05-.73-.24-.72-.24-.79.08-.71-.29-.74-.16-.75-.12-.74-.18-.76-.08-.74-.18-.7-.32-.76-.09-.68-.39-.73-.22-.72-.22-.73-.2-.77-.11-.73-.21-.68-.36-.67-.35-.77-.16-.69-.32-.68-.35-.61-.46-.65-.41-.59-.5-.35-.7-.31-.67-.26-.71.08-.78.53-.58.47-.58.46-.62.59-.49.77-.19.63-.43.68-.34.65-.4.76-.16.72-.22.67-.4.69-.32.72-.23h.8s.68-.38.68-.38l.78-.03.73-.18.69-.35.77-.06.7-.37.78.02.73-.23.77-.04.7-.38.78.02.76-.08.74-.19.73-.22.76-.08.76-.05.74-.18.76-.07.72-.34.75-.11.78.1.73-.24.74-.16.79.12.72-.34h.76s.74-.19.74-.19l.79.18.72-.34.78.13.73-.26.77.08.75-.13.77-.02.76-.09.75-.14.76-.1.75-.15.78.14.74-.23.77.11.75-.18.76-.08.74-.18h.76s.76-.02.76-.02l.75-.13h.77s.76-.04.76-.04l.77.09.76-.05.76-.16h.76l.76-.15h.77l.77.13.76-.15.77.11.76-.09.75-.24.76.02.77.09.76-.14.76.08h.77s.76-.04.76-.04l.76-.13.77.17.76-.23.77.17.76-.19.77.07.76.02.77.02.76-.18.77.23.76-.18.76-.08.76.1.77.12.77-.15.77.11h.77s.76.05.76.05l.77-.11.76-.02.77-.02h.76s.77.04.77.04l.76.16.77-.21.76.13.76.13.77-.08.76-.06.76.18h.76l.77-.02h.76s.77-.11.77-.11l.76.02.76.08.76-.03.76.05.76.06.76.13.76.16.77-.13.76.16.76.02.76.11.78-.22.74.27.76.07.78-.17.76.03.76.06.74.29.78-.15.75.19.77-.09.76.13.74.2.77-.07.77-.04.76.07.76.06.76.08.74.24.74.17.79-.17.75.12.73.28.76.1.78-.14,1.51.2.74.21h.77s.75.11.75.11l.76.05.73.24h.77s.77.05.77.05l.72.29.78-.04.76.07.72.31.77.05.72.26h.77l.74.18.77.04.73.18.73.25.78-.02.69.39.76.08.77.06.72.26.71.27.77.09.71.27.7.3h.79s.67.39.67.39l.73.21.7.29.77.13.68.34.72.27.64.43.65.39.64.41.64.42.59.48.54.55.4.67-.14.8Z"/>
  <path class="cls-7" d="M266.59,270.21l-.8-.27-.72.09-.76-.07-.72.08-.79.04-.78.09-1.53-.1-.8.06-.77-.18-.74.02-.78-.07h-.72s-1.51-.07-1.51-.07l-.76.11-.88-.02-.76-.18-.64-.09-.78.22-.79-.14-.8.09-.73-.25-.71.13-1.63-.09-.72-.14h-.78s-.74-.2-.74-.2l-.7.04-.79.09h-.82l-.78-.23-.69-.1h-.73s-.81.05-.81.05l-.73-.22-.76.09-.82-.18-.69-.13-.78.04-.72-.16-.74.13-.8-.02-.9-.1-.69-.29-.67-.1-.77.02-.79-.14-.74-.1-.7-.04-.78.06-.88-.05-1.42-.43-.7.03-.92-.07-.64-.24-.71.07-.89-.06-.7-.22-.72-.11-.83-.09-.68-.23-.81-.07-.65-.22-.78.05-1.44-.48-.8.08-.78-.32-.71-.15-.73-.13-.74-.17-.78-.09-.81-.2-.65-.29-.78-.09-.71-.4-2.11-.62-.79-.12-.81-.24-1.3-.68-.79-.17-.7-.32-.76-.4-.61-.47-.66-.42-.66-.55-.7-1.46-.31-.83.11-1,.62-.67.45-.56.52-.68.67-.55.79-.2.61-.41.68-.35.69-.42.81-.18.64-.2.67-.4.74-.33.79-.26h.75s.67-.38.67-.38l.84-.03.65-.16.72-.36.77-.06.71-.38.82.03.77-.23.67-.03.71-.39.86.02.7-.08.71-.19.79-.23.76-.08.75-.05.76-.17.69-.07.77-.34.81-.12.75.1.68-.22.82-.18.73.11.69-.33h.81s.79-.2.79-.2l.74.17.71-.33.8.13.72-.26.81.08.76-.12.76-.02.72-.08.72-.14.78-.1.8-.15.76.13.74-.22.79.11.73-.17.72-.07.77-.19.82.02.71-.03.77-.14h.8s.77-.04.77-.04l.77.09.69-.04.77-.17h.77s.79-.15.79-.15h.79l.73.13.75-.15.78.1.67-.08.78-.26.83.02.74.08.76-.14.8.08,1.46-.04.81-.14.74.16.76-.23.78.17.73-.19.83.08,1.45.03.81-.19.77.23.71-.17.81-.09.81.11.7.11.77-.15.81.12h.73l.74.05.77-.12,1.53-.04h.78s.84.05.84.05l.67.14.76-.21,1.55.26.71-.08.84-.06.77.18h.71l.76-.02h.74s.77-.11.77-.11l.8.02.77.08.76-.03,1.55.11.79.13.7.14.77-.14.79.17.78.02.67.1.82-.23.82.29.65.06.76-.16.81.03.89.08.64.25.74-.15.77.19.76-.09.81.14.72.19.7-.05.81-.04,2.39.22.74.24.63.14.77-.17.9.16.69.26.65.08.78-.14,1.63.22.69.2h.74l.78.12.82.07.68.22h.7s.84.05.84.05l.7.28.72-.04.91.11.66.28.8.07.66.23h.8s.7.18.7.18l.81.05.74.18.69.23.82-.02.71.41.68.08.85.08,1.4.52.81.1.71.27.65.27h.82s.72.42.72.42l.72.21.66.27.83.15.67.33.79.3.64.43,1.28.79.64.43.65.53.6.63.47.79-.13.94-.13.7-.21.87-.65.73-.6.4-.57.62-.8.22-.6.43-.67.36-1.42.63-.79.36-.77.12-.64.15-.69.43-.84.25-.7.02-.61.3-.8.34h-.81s-.71.22-.71.22l-1.44.29-.77.33-.75.13-.72.16-.83.15-.7.02-.72.29h-.8l-.69.18-.77.17-.76.1-.79.2-.73.06-.72.15-.83.13-.75-.13-1.49.46h-.73s-.71.14-.71.14l-.77.1-.8.04-.74-.03-.74.21-.83-.03h-.7s-.79.19-.79.19h-.71s-.76.2-.76.2l-.79.07-.73-.07-.67.19-.86.17h-.76l-.73-.05-.77.18-.76.02-.71.07-.77.17-2.3-.04-.73.08-.78.14-.76.03-.8-.04-.7.02-.77.14-1.52-.05-.77.17-.78-.07-1.52.19-.76-.05-.76.1-.76-.05-.78.14-.77-.15-.75.14-.76.02-.77-.05-.77.07-.77-.1-.72.05h-.74s-.79.2-.79.2l-.78-.12-.75.14-.77-.08-.79.14-.81-.17-.68-.06-.79.18-.78-.16-.77.12-.73-.15-.82.23ZM270.38,269.16l.88.08.69.15.74-.13.77.08.77-.15.76.12.77-.18h.76s.78-.06.78-.06l.76.1.75-.06.79.05.69-.02.8-.15.77.14.73-.13.77.05.76-.1.77.05,1.52-.19.75.06.74-.17,1.53.05.78-.14.76-.02.79.04.7-.03.72-.13.81-.09,2.27.04.75-.16.76-.07.74-.03.77-.19.83.06h.7l.71-.14.78-.23.81.08.69-.07.81-.19h.72s.79-.19.79-.19h.76s.72.02.72.02l.74-.22.83.04.72-.04.72-.1.8-.14h.71s1.49-.49,1.49-.49l.82.13.69-.1.77-.16.73-.06.75-.19.76-.1.71-.15.77-.2h.75l.71-.29h.81s.71-.15.71-.15l.73-.17.72-.12.75-.32,1.47-.29.82-.24h.7s.64-.28.64-.28l.75-.36.82-.03.61-.2.68-.43.81-.19.74-.11,1.34-.61.7-.3.61-.34.66-.47.72-.2.53-.56.59-.39.4-.47.16-.66.12-.67.08-.63-.31-.52-.49-.49-.57-.46-1.23-.8-.64-.39-.61-.42-.71-.27-.63-.31-.8-.14-.68-.28-.79-.25-.58-.33h-.77s-.78-.33-.78-.33l-.65-.24-.81-.11-1.38-.51-.71-.06-.85-.1-.67-.38-.74.02-.79-.27-.67-.17-.8-.05-.69-.17h-.79l-.74-.26-.77-.06-.72-.31-.67-.06-.83.04-.74-.3-.7-.04-.88-.03-.68-.22-.71-.05-.76-.12h-.79l-.77-.21-1.42-.19-.78.14-.91-.13-.7-.27-.64-.1-.79.18-.84-.19-.73-.24-.71-.08-1.48-.12-.74.04-.82.07-.82-.21-.66-.11-.79.1-.74-.19-.8.16-.8-.31-.7-.06-.69-.02-.79.17-.92-.1-.63-.22-.73.21-.82-.13-.81-.03-.68-.14-.77.13-.83-.17-.74-.13-1.46-.1-.77.03-.79-.09h-.69s-.77.11-.77.11h-.8s-.74.01-.74.01h-.82l-.74-.17-.7.05-.81.09-1.48-.25-.78.21-.82-.17-.73-.04h-.74s-1.49.04-1.49.04l-.78.12-.8-.05h-.8s-.7-.11-.7-.11l-.77.15-1.54-.22-.69.07-.84.21-.77-.23-.7.17-1.57-.04-.72-.07-.79.2-.76-.17-.76.23-.79-.17-.74.13-1.55.04-.73-.07-.76.14-.82-.09-.66-.02-.76.24-.81.1-.75-.1-.77.15-.81-.14h-.68l-.76.15h-.76s-.77.16-.77.16l-.8.04-.76-.09-.72.05h-.76s-.77.12-.77.12l-.76.03-.73-.02-.76.18-.73.07-.8.19-.76-.11-.75.23-.8-.14-.68.13-.78.1-.73.14-.78.09-.77.02-.78.13-.73-.07-.76.26-.76-.13-.74.34-.82-.19-.74.17-.68.02-.75.36-.83-.13-.65.14-.8.27-.82-.11-.64.09-.72.34-.8.08-.78.18-.77.05-.7.08-.7.21-.81.21-.78.09-.7-.02-.68.38-.81.03-.74.24-.75-.02-.67.36-.78.06-.71.34-.82.19-.68.02-.69.39h-.84s-.64.2-.64.2l-.66.3-.76.43-.72.22-.72.16-.6.36-.67.35-.67.45-.76.19-.49.4-.44.58-.47.59-.46.5-.06.55.22.61.6,1.26.51.43.63.4.61.46.65.34.64.29.82.18,1.32.69.67.19.79.12.73.2,1.54.48.61.35.8.11.67.3.68.16.79.09.74.18.72.11.83.18.63.26.78-.08,1.46.49.79-.05.76.26.81.07.68.24.71.07.83.14.69.21.68.04.84-.08.76.3.7.04.8-.03,1.49.44.69.03.77-.05.78.04.79.11.72.13.77-.02.88.15.68.28.7.07.69.02.81-.15.78.17.76-.04.79.15.7.15.79-.09.76.22.7-.04h.81s.84.13.84.13l.69.21h.68l.74-.09.85-.05.76.21h.75s.77.15.77.15l1.44.07.82-.15.77.26.73-.08.72.13.76-.22.84.12.74.18h.69s.78-.1.78-.1l1.56.08h.74s.78.06.78.06l.79-.03.75.17.73-.05,1.52.1.72-.08.79-.04.78-.08.76.07.81-.1.72.24.74-.23.8.17.77-.12.75.16.73-.18Z"/>
  <path class="cls-7" d="M323.47,159.67l.05.77.14.77.03.77v.77s-.01.76-.01.76l-.19.77.1.77-.13.77v.76s.1.77.1.77v.77s.03.76.03.76v.77l-.14.77.23.77-.11.76-.1.77.19.77-.12.77.07.77-.13.76.05.77v.77s-.12.77-.12.77l.06.76.19.77-.18.77.05.77.13.76-.13.77-.12.77.05.77.14.76.05.77-.02.77-.05.77.1.76-.04.77-.23.77v.77l.05.76.21.77-.11.78-.77.11-.76-.07-.76-.1-.75.15-.76-.17-.76.1-.75.06-.76-.06-.76-.18-.75.05-.76.14-.75.09-.76-.15-.75.04-.75-.11h-1.5l-.76.18-.75-.21-.75.12-.75-.1-.75.26-.75-.08-.76-.15-.75.02-.75.14-1.5-.03-.76.02-.75-.05-.75.04-.75-.16-.75.07-.75-.03-.76-.05-.75.1-.75.05-.75.09-.75-.07-.76.1-.75-.25-.75.24-.75-.16-.75.12-.75-.16-.76.18-.75-.07-.75-.17-.75.13-.75-.09-.76.13-.75-.14-.75.17h-.75l-.75.03-.75-.11-.76.05-.75-.06h-.75s-.75.11-.75.11l-.75-.17-.76.11-.75-.08-.75.08-.73-.08-.03-.71-.08-.75.1-.75-.13-.76.05-.75.07-.76-.1-.75.03-.76.08-.75.02-.76-.09-.75-.04-.75.06-.76.06-.75.07-.76-.11-.75-.02-.76.03-.75-.12-.76.12-.75.07-.75-.08-.76-.15-.76.15-.76v-.76l-.11-.75.06-.75-.1-.76.07-.75.11-.76-.13-.75.13-.76.05-.75v-.76s-.05-.75-.05-.75l.09-.76-.13-.75-.15-.75.23-.76v-.75l-.04-.76.06-.75-.07-.76.02-.75-.03-.76-.06-.74.15-.75-.16-.75.14-.76v-.75s0-.76,0-.76l.05-.77-.13-.78.08-.77.14-.76.12-.77.42-.67.21-.74.27-.74.62-.5.51-.57.43-.67.66-.42.72-.31.63-.44.67-.38.69-.33.69-.35.68-.38.8-.07.67-.4.77-.14.73-.23.68-.41.74-.21.81.05.71-.33.78-.04.72-.3.77-.02.74-.18.76-.11.77.05.76.08h.76s.78-.08.78-.08l.73.24.69.36.74.18.7.29.74.23.55.56.59.48.57.51.57.5.53.55.56.53.54.54.41.66.47.6.47.6.49.59.69.39.52.56.56.55.71.32.78.11.71.28.74-.04.73-.13.63-.4.58-.48.58-.49.64-.43.61-.45.64-.44.76-.16.72-.22.75-.17.76-.09.77.05.77-.1.72.32.78-.05.64.45.79.09.47.65.66.4.51.57.19.76.29.68.3.69.13.74.29.71.15.75-.2.77.08.75-.13.74.11.76-.15.74-.12.75-.05.76Z"/>
  <path class="cls-7" d="M291.99,193.12l-.78-.16-.75.12-.73-.16-.73.17-.86-.08-.68-.15-.73.13-.75-.09-.77.13-.74-.13-.71.16h-.8s-.77.03-.77.03l-.74-.11-.74.04-.78-.07h-.69l-.8.13-.75-.16-.73.1-.76-.07-.75.07-1.12-.12-.05-1.05-.07-.78.09-.73-.13-.74.12-1.52-.1-.74.03-.79.08-.78v-.69s-.07-.73-.07-.73l-.05-.8.19-2.24-.1-.76-.02-.76.03-.73-.13-.78.13-.82.06-.69-.08-.72-.16-.8.16-.79v-.69l-.11-.77.06-.76-.1-.76.08-.8.1-.71-.14-.76.14-.82.05-.72v-.72s-.05-.77-.05-.77l.09-.73-.28-1.54.24-.79v-.69l-.04-.76.06-.74-.07-.74.03-.78-.03-.73-.07-.79.14-.72-.15-.75.14-.8v-.71s0-.74,0-.74l.05-.76-.13-.78.09-.82.14-.79.14-.83.43-.69.19-.68.32-.87.68-.55.46-.52.46-.72.79-.49.68-.29.59-.42.69-.41,1.41-.68.73-.41.79-.07.66-.4.82-.15.67-.21.73-.42.81-.23.78.05.69-.32.79-.04.72-.3.8-.02.7-.17.83-.13.81.05.77.08h.7s.84-.09.84-.09l.89.31.64.34.75.19.7.29.8.26.63.63.56.45,1.15,1.01.55.57.55.51.61.63.39.64.93,1.19.44.51.72.44.52.56.49.49.59.27.81.13.63.24.64-.03.63-.11.54-.35,1.18-.98.64-.43.6-.44.72-.48.83-.18.69-.22.82-.18.79-.09.77.04.84-.11.74.32.82-.06.67.47.87.1.52.72.68.43.58.64.21.83.6,1.43.13.7.3.76.16.83-.2.78.08.73-.12.74.11.77-.17.81-.11.71-.04.72.05.72.14.8.03.77-.02,1.65-.17.69.1.75-.14.79v.71s.09.77.09.77v.79s.03.74.03.74v.82l-.13.71.23.76-.21,1.54.19.77-.13.79.08.77-.14.77.05.72v.85s-.12.71-.12.71l.06.69.2.82-.19.8.05.7.14.8-.26,1.54.05.7.14.79.05.77-.03.8-.05.74.09.76-.05.9-.21.71v.71l.05.7.22.8-.16,1.17-1.11.16-.81-.08-.7-.09-.77.16-.77-.17-.68.09-.81.06-.84-.07-.69-.16-.67.04-.73.14-.84.1-.77-.17-.73.04-.77-.11h-.72s-.7,0-.7,0l-.81.19-.77-.22-.72.11-.71-.09-.74.24-.84-.09-.74-.15-.68.02-.76.14-1.54-.03-.75.03-.74-.05-.78.04-.74-.16-.72.07-1.5-.08-.71.1-.78.05-.77.09-.75-.07-.8.11-.71-.23-.72.24ZM313.79,192.14l.74.16.69-.08.77-.14.81-.06.78.19.69.06.72-.06.8-.11.74.17.73-.15.82.11.69.07.43-.06.06-.4-.21-.76-.05-.77.02-.91.22-.71.03-.68-.1-.77.05-.8.03-.76-.04-.7-.14-.78-.06-.81.25-1.52-.11-.7-.07-.86.17-.73-.17-.73-.07-.81.12-.78v-.73l-.05-.78.13-.76-.07-.76.11-.74-.19-.76.21-1.52-.24-.78.16-.82v-.73s-.04-.75-.04-.75v-.77s-.09-.78-.09-.78v-.8l.13-.74-.1-.78.19-.8v-1.48s-.02-.72-.02-.72l-.14-.79-.05-.79.05-.83.12-.75.14-.69-.1-.76.12-.75-.09-.77.19-.75-.12-.62-.3-.76-.13-.69-.59-1.39-.17-.67-.41-.45-.68-.41-.41-.57-.72-.08-.6-.43-.73.05-.71-.31-.69.09-.77-.04-.71.08-.73.16-.69.22-.71.16-.58.39-.61.44-.63.42-1.19.99-.69.44-.85.15-.84.04-.74-.29-.84-.14-.77-.35-.61-.6-.48-.53-.68-.4-.54-.64-.98-1.26-.38-.61-1.6-1.59-1.7-1.46-.51-.51-.65-.2-.7-.29-.8-.21-.66-.35-.62-.21-.72.09-.79-.02-.79-.08-.71-.04-.71.11-.8.19-.69.02-.71.29-.77.04-.74.34-.84-.06-.63.18-.72.42-.79.24-.69.12-.69.42-.8.07-.6.34-1.41.69-.64.36-.67.46-.69.3-.55.35-.43.65-.55.61-.53.43-.23.64-.24.81-.38.6-.1.68-.15.77-.07.68.12.77-.05.81v.72s0,.83,0,.83l-.13.68.16.75-.15.78.06.69.03.77-.02.75.07.76-.06.76.04.73v.83s-.22.71-.22.71l.27,1.47-.09.78.04.71v.77s-.05.78-.05.78l-.11.72.13.74-.13.82-.06.68.1.76-.06.75.11.77v.79l-.14.72.13.68.09.83-.07.79-.11.71.12.73-.04.79.02.7.11.78-.19,2.28.04.72.09.76-.02.78-.08.79-.03.69.1.77-.12,1.49.13.77-.1.77.07.7.02.39.35.04.75-.08.74.08.77-.11.76.17.73-.11h.76s.76.07.76.07l.77-.05.76.12.71-.04h.73s.78-.17.78-.17l.77.14.74-.13.75.09.77-.13.8.17.66.06.78-.18.77.16.75-.12.72.15.78-.26.79.27.7-.1.76.07.71-.09.77-.05.77-.1,1.51.09.78-.07.76.16.72-.04.76.05.73-.03,1.48.03.77-.13.79-.02.8.17.63.06.76-.25.79.1.78-.12.73.21.74-.16h1.56s.71.11.71.11l.76-.05Z"/>
  <path class="cls-3" d="M298.19,163.01l-.63.46-.69.33-.79.27-.78-.26-.6-.52-.58-.5-.36-.69-.37-.69-.05-.78-.16-.76-.16-.75-.2-.74-.15-.75-.19-.74-.18-.76.02-.78-.07-.76-.02-.77-.02-.77-.23-.76.08-.77.15-.77-.02-.77-.13-.78.15-.76v-.78l.13-.76.07-.77.12-.76.16-.75.23-.74.15-.75.1-.77.32-.71.19-.74.2-.74.23-.74.32-.7.15-.77.51-.62.1-.8.51-.61.18-.9.34.83.55.56.42.64.15.78.31.69.36.67.23.72.41.66.29.71v.8s.26.71.26.71l.08.76.32.71.07.76.13.75.24.74.07.76.11.76-.11.78v.76s.08.76.08.76l.16.76-.18.76.13.76v.76s-.03.76-.03.76l-.04.76-.24.74.17.79-.29.73-.02.77-.29.72-.03.77-.29.71-.02.79-.34.69-.21.73-.46.66Z"/>
  <g class="cls-6">
    <path class="cls-7" d="M296.1,164.49l-.98-.32-1.31-1.11-.82-1.52-.05-.84-.32-1.47-.19-.73-.16-.78-.38-1.53v-.82s-.05-.72-.05-.72l-.04-1.51-.24-.79.09-.85.14-.76-.02-.69-.14-.83.16-.79v-.8s.13-.76.13-.76l.06-.74.13-.79.17-.77.23-.76.15-.73.14-.85.3-.68.38-1.46.25-.8.3-.66.17-.82.49-.61.1-.79.52-.63.42-2.1.81,1.99.54.56.46.71.16.81.29.65.38.72.21.67.42.68.32.79v.8s.26.74.26.74l.08.7.32.71.08.83.11.69.26.79.07.76.13.79-.12.81v.71s.07.73.07.73l.18.8-.18.78.12.75v.76s-.09,1.65-.09,1.65l-.21.64.17.8-.31.78-.03.77-.28.72-.04.77-.29.71-.02.8-.36.74-.22.76-.53.76-.74.53-.73.35-.91.32ZM295.51,163.45l.58.19.64-.22.65-.31.54-.4.39-.55.22-.73.3-.61.02-.77.29-.72.03-.77.28-.72.03-.77.27-.68-.17-.77.27-.8.06-1.46v-.71s-.13-.81-.13-.81l.17-.75-.15-.67-.09-.82.02-.84.11-.71-.11-.7-.07-.73-.25-.75-.12-.76-.07-.72-.33-.77-.08-.71-.28-.73v-.79s-.24-.6-.24-.6l-.44-.71-.22-.69-.34-.65-.34-.8-.14-.7-.35-.55-.46-.47-.42.5-.09.8-.52.64-.16.75-.31.68-.22.71-.4,1.54-.3.66-.09.71-.17.82-.22.74-.15.72-.12.74-.06.74-.13.76v.82s-.14.69-.14.69l.13.76.03.81-.15.81-.07.66.22.79.04,1.54.06.74v.77s.34,1.44.34,1.44l.15.78.19.71.34,1.57.05.7.66,1.23,1.06.91Z"/>
  </g>
  <path class="cls-7" d="M325.49,250.71v.79l-.1.78-.31.72-.26.73-.29.72-.43.64-.32.72-.64.47-.48.63-.68.39-.72.29-.68.35-.7.29-.7.28-.76.09-.68.34-.71.27-.73.18-.72.24-.77.03-.71.28-.76.07-.72.24-.76.04-.73.16-.73.17-.76.03-.72.26h-.77s-.74.11-.74.11l-.73.22-.76.03-.75.07-.74.1-.74.16-.77-.16-.74.21-.75.1-.76-.11-.75.14-.75.08-.76-.23-.75.16-.75-.1h-.75s-.76.15-.76.15h-.76s-.74-.28-.74-.28l-.77.18h-.76s-.74-.13-.74-.13l-.73-.26-.76-.02-.76.03-.73-.25-.76.04-.73-.16-.73-.18-.74-.07-.72-.22-.78.07-.69-.36-.74-.14-.72-.2-.73-.15-.76-.04-.72-.23-.67-.35-.61-.44-.63-.4-.63-.41-.48-.58-.46-.59-.37-.65-.32-.68-.42-.64-.15-.74-.14-.74.05-.76-.06-.76-.13-.76-.09-.76.12-.77-.13-.76v-.76l-.09-.76v-.76l.14-.76-.23-.76.19-.77-.23-.76.13-.76-.1-.76.03-.76v-.76l-.03-.76-.14-.76.02-.76-.08-.76.09-.77-.21-.75.08-.77-.15-.76.13-.77-.12-.76.17-.77-.28-.75.16-.77-.04-.76-.03-.76-.05-.76-.16-.76.16-.77-.17-.76-.07-.76.03-.76.16-.77-.06-.76v-.76l-.16-.76-.02-.76.05-.76-.19-.76.08-.76-.1-.76.22-.77-.08-.76-.18-.76.03-.76-.09-.76v-.76s.19-.77.19-.77l-.07-.76-.19-.76.23-.77-.29-.75.2-.77-.23-.76.23-.77-.15-.76.05-.77-.04-.76-.05-.76-.04-.76.11-.77-.1-.76-.03-.76.06-.77v-.76s-.01-.77-.01-.77l-.05-.76.02-.77-.08-.76.08-.77-.19-.76-.06-.76.13-.76.08-.77-.21-.76v-.77s.04-.77.04-.77v-.76l.1-.77-.08-.76-.07-.76-.02-.76-.04-.76v-.76s.04-.76.04-.76l.16-.76-.16-.76-.02-.76-.08-.76.17-.76.1-.76-.2-.76-.04-.76.07-.76.08-.76-.05-.77-.08-.76.12-.76-.15-.76.15-.76-.14-.76.28-.76v-.76s-.17-.76-.17-.76l.02-.76.13-.76-.12-.82.82-.09.72-.19.76-.02.74.12.73.17.73.2.63.43.63.41.74.21.63.43.45.63.63.43.55.54.17.76.35.67.4.64.55.52.73.21.69.23.73.07h.74s.76.04.76.04l.71-.29.76-.04.7-.27.7-.26.71-.23.67-.34.72-.23.69-.34.7-.32.8-.11.64-.46.64-.45.74-.24.69-.34.73-.26.77-.11.77.07.78-.09.73.23.73.24.76.11.71.29.76.14.73.26.69.39.79.05.77.06.76.14.78.13.76-.19.77-.11.74-.23.67-.38.72-.27.7-.34.68-.38.61-.48.56-.54.63-.45.68-.38.68-.33.69-.04.52.52.38.63.47.59.22.72.34.67.3.69.14.73.27.7.1.74.27.7-.03.77.24.71.11.74.03.75.12.74-.05.75.08.74.02.74.18.75-.15.74.09.75-.15.73.02.76-.29.71-.21.72.03.77-.31.71-.03.76-.29.71.12.78-.35.7.02.76-.11.75.09.75.11.73.24.7.17.72.27.69.41.61.26.71.46.59.37.66.36.67.24.72.15.74.22.74.05.77-.18.76-.14.75.17.79-.2.74.02.77-.32.72.07.78-.09.75-.09.76-.19.74-.02.77-.21.75.05.77.1.75v.75s-.21.74-.21.74l-.11.74.02.74.06.76-.2.73.13.75-.1.74-.05.75.18.74.06.76.46.62.44.56.55.43.61.47.75.14.73-.12-.04.74v.76s.05.77.05.77l.15.76.07.77-.11.77-.11.77.14.76.07.77-.17.77.2.76.08.77-.1.77v.77s.07.77.07.77l-.12.77.09.77-.1.77.2.76-.09.77-.09.76.25.76-.13.76.02.76.06.76v.76l.11.76.02.76-.11.77.12.76-.18.77v.76s.02.76.02.76l.05.76.15.76.06.76-.08.76.11.77Z"/>
  <path class="cls-7" d="M299.15,262.25l-.73-.22-.71.16-.8-.11h-.68s-.79.14-.79.14h-.82s-.7-.26-.7-.26l-.69.16-.87-.02-.81-.14-.67-.24-.69-.02-.81.04-.72-.26-.74.05-1.5-.35-.8-.08-.65-.2-.81.07-.74-.39-.68-.13-.76-.21-.68-.14-.84-.06-.78-.26-.72-.39-.61-.44-1.33-.89-.48-.58-.5-.65-.38-.65-.32-.68-.45-.68-.32-1.61.05-.78-.06-.73-.12-.72-.1-.83.11-.76-.12-.76v-.74l-.1-.78v-.83s.13-.68.13-.68l-.23-.76.19-.77-.22-.73.14-.8-.09-.73.03-.8v-.74l-.03-.71-.15-.77.02-.78-.09-.77.08-.73-.21-.76.09-.78-.15-.76.13-.78-.12-.77.16-.72-.28-.75.17-.83-.11-2.19-.17-.81.16-.77-.16-.72-.08-.79.04-.85.15-.71-.06-.7v-.74s-.17-.79-.17-.79l-.02-.76.04-.73-.19-.77.08-.79-.1-.79.22-.77-.07-.65-.19-.79.03-.79-.08-.73v-.85s.18-.74.18-.74l-.06-.66-.21-.84.22-.74-.29-.75.21-.78-.23-.76.23-.79-.13-.71.05-.79-.13-2.3.1-.74-.09-.71-.04-.82.06-.79v-.74s-.01-.75-.01-.75l-.06-.77.03-.75-.09-.78.08-.74-.19-.76-.06-.81.13-.81.07-.67-.21-.74.05-2.39.09-.72-.15-1.47v-.8s-.06-.74-.06-.74v-.79s.05-.84.05-.84l.14-.68-.14-.75-.03-.76-.08-.8.18-.82.08-.65-.19-.77-.04-.79.16-1.52-.04-.73-.08-.8.12-.74-.15-.77.15-.76-.14-.79.29-.79v-.65s-.17-.76-.17-.76l.02-.87.12-.69-.17-1.16,1.2-.14.79-.2h.79s.78.11.78.11l.76.17.81.22,1.26.84.75.21.73.51.45.64.62.43.63.63.19.83.33.62.36.57.44.42.64.19.67.22.69.06h.7s.7.04.7.04l.69-.28.77-.04,1.35-.51.7-.23.7-.35.69-.22.67-.33.82-.35.7-.09,1.31-.91.71-.23.71-.34.81-.28.82-.12.78.07.82-.09,1.52.49.82.14.68.28.78.15.79.29.61.34,1.52.11,1.44.26.72-.18.73-.1.67-.2.69-.38.72-.27.66-.32.63-.35.58-.46.58-.55.67-.48.67-.37.77-.38.94-.06.7.72.37.6.5.63.22.76.33.63.33.8.14.7.28.76.1.7.28.73-.02.78.23.71.11.78.03.72.13.76-.05.77.07.7.03.73.19.8-.16.77.09.76-.16.76.03.79-.33.79-.18.61.03.79-.31.72-.03.76-.28.67.12.79-.36.73.02.69-.11.73.09.7.11.69.23.67.17.72.24.63.43.66.24.66.45.58.77,1.4.26.76.16.74.23.8.05.82-.19.81-.12.66.17.8-.21.79.02.8-.32.71.07.72-.2,1.6-.18.7-.04.82-.2.68.05.7.11.77v.81s-.22.77-.22.77l-.1.68.02.72.06.8-.2.72.13.72-.11.81-.03.66.17.74.05.65.39.53.4.51,1.04.81.59.11,1.16-.18-.08,1.23v.74s.05.7.05.7l.16.78.07.81-.22,1.52.13.7.08.86-.16.73.19.73.08.81-.1.79v.73s.07.78.07.78l-.12.76.09.76-.1.73.2.76-.18,1.52.26.77-.14.83.02.72.05.74v.76s.11.78.11.78l.02.79-.11.74.13.78-.19.79.02,1.47.05.71.15.78.07.8-.08.75.11.77v.83s-.14.88-.14.88l-.31.72-.24.7-.34.8-.41.61-.35.8-.68.5-.49.64-.8.45-.72.29-.64.33-1.55.62-.69.07-.66.33-.76.29-.73.17-.8.26-.7.02-.75.28-.71.07-.78.24-.73.04-1.51.33-.7.03-.73.25h-.8s-.69.1-.69.1l-.8.23-.76.03-.73.06-.72.1-.8.17-.75-.16-.7.2-.8.11-.75-.11-.68.13-.89.1ZM298.46,261.2l.78.23.67-.07.78-.15.77.11.66-.09.8-.24.78.16.66-.14.77-.11.78-.07.72-.03.73-.21.78-.13h.73s.77-.24.77-.24l.72-.03,1.5-.33.7-.05.76-.23.7-.07.72-.28.77-.03.66-.22.74-.18.66-.25.73-.36.77-.09,1.35-.55.65-.34.72-.3.58-.34.52-.64.55-.41.31-.69.41-.6.28-.68.25-.71.3-.7.09-.69v-.72l-.12-.78.08-.78-.06-.7-.16-.79-.05-.76-.02-1.59.17-.73-.12-.74.12-.79-.02-.7-.11-.79v-.76s-.06-.73-.06-.73l-.02-.82.12-.71-.24-.74.18-1.54-.2-.77.11-.8-.08-.77.12-.77-.07-.71v-.83s.09-.74.09-.74l-.07-.69-.21-.82.18-.8-.07-.7-.15-.79.23-1.55-.06-.69-.16-.79-.06-.76.03-1.07-.3.05-.91-.16-1.31-1.02-.44-.56-.54-.73-.06-.84-.19-.76.05-.81.1-.72-.14-.78.2-.76-.06-.68-.02-.81.13-.83.2-.68v-.66s-.11-.73-.11-.73l-.06-.87.22-.77.04-.8.18-.72.18-1.44-.07-.84.33-.74v-.74s.18-.7.18-.7l-.16-.77.15-.82.17-.72-.04-.66-.21-.7-.16-.75-.22-.67-.7-1.27-.51-.67-.24-.67-.42-.66-.28-.74-.17-.71-.24-.74-.11-.73-.1-.82.11-.77-.02-.82.34-.68-.12-.76.31-.74.02-.77.3-.69-.03-.74.23-.78.27-.66-.02-.72.15-.72-.09-.75.15-.72-.17-.74-.02-.74-.08-.74.06-.74-.12-.74-.03-.73-.1-.68-.26-.75.03-.76-.27-.72-.09-.69-.27-.73-.14-.7-.28-.65-.36-.71-.19-.65-.45-.57-.36-.58-.36-.36-.43.02-.61.3-.64.35-.58.42-.55.52-.69.55-.68.38-.71.35-.72.28-.73.4-.8.24-.74.1-.82.2-1.59-.28-1.63-.12-.74-.41-.67-.23-.81-.16-.67-.28-.78-.12-1.38-.45-.73.08-.77-.07-.67.1-.68.23-.73.35-.68.22-1.3.93-.84.11-.65.29-.73.35-.69.22-.7.35-.71.23-1.52.55-.69.03-.73.3-.85-.06h-.71s-.87-.07-.87-.07l-.69-.23-.81-.23-.68-.67-.4-.64-.41-.79-.15-.65-.44-.44-.66-.45-.45-.64-.52-.35-.79-.24-1.21-.81-.67-.18-.72-.17-.68-.11h-.67s-.73.2-.73.2l-.41.05.07.47-.14.79-.02.68.18.76v.88s-.27.72-.27.72l.13.73-.15.76.15.75-.12.78.07.71.05.81-.16,1.52.04.69.2.8-.11.84-.16.73.07.7.02.76.17.81-.17.81-.03.73v.76s.04.73.04.73v.78s.17,1.54.17,1.54l-.1.79v.73l-.04,1.47.22.78-.09.84-.12.74.05.68.2.8-.09.79.09.75-.02.77.05.74.02.78v.78s-.07.77-.07.77l.03.73.1.78-.1.78.13,2.27-.05.73.15.81-.22.74.23.75-.2.74.3.76-.24.79.17.71.08.83-.2.79v.7s.09.75.09.75l-.03.73.18.76.09.83-.21.76.09.72-.07.74.18.74-.05.82.02.68.17.8v.76l.06.78-.17.79-.03.7.07.7.18.82-.16.77.15.73.11,2.33-.14.7.28.75-.18.81.12.74-.13.76.15.74-.09.74.22.76-.09.8.08.74-.02.74.14.77.03.76v.78l-.03.74.1.78-.13.73.23.77-.19.77.22.73-.15.82v.7l.09.78v.73l.13.79-.11.78.08.7.13.73.07.82-.05.73.27,1.34.41.63.31.67.34.6.45.57.43.53,1.21.78.6.44.61.32.64.21.77.05.73.15.76.21.81.17.59.31.74-.06.76.23.76.07,1.41.32.79-.05.73.26.68-.03.84.02.76.27.68.12h.68s.83-.19.83-.19l.78.29h.65l.76-.15h.84s.68.1.68.1l.79-.15Z"/>
  <path class="cls-9" d="M328.6,200.09l.18.77.21.76.3.72.13.78.32.72-.07.81.16.76.06.78.17.78-.27.76-.26.72-.22.77-.69.4-.46.67.08.8-.12.73-.02.76.1.74.12.74-.05.77.15.74.02.76-.06.76.07.76-.2.73-.07.76-.29.69-.43.61-.56.48-.69.27-.68.41-.67-.19-.74.23-.71-.3-.76-.08-.49-.58-.54-.53-.23-.71-.23-.72-.02-.76.07-.75.06-.74-.02-.74-.16-.76.22-.73.1-.74-.19-.76.25-.73.08-.74.03-.75-.14-.77v-.77s.16-.76.16-.76l.03-.77.05-.76.31-.73.03-.77-.07-.78.29-.73.04-.77-.04-.77.11-.75-.03-.76-.02-.76.02-.76-.16-.74-.29-.7-.41-.64-.39-.64-.26-.73-.41-.62-.39-.63-.23-.7-.23-.69-.24-.7-.18-.74.05-.74.08-.74.19-.72.02-.76-.03-.76.21-.72.14-.73.23-.71.23-.72-.02-.77.14-.73.06-.74.05-.74.04-.74.15-.74v-.75l-.06-.74v-.75s-.23-.72-.23-.72l.09-.76-.23-.73-.02-.75v-.76l-.17-.73-.19-.72-.23-.71-.07-.76-.35-.67-.31-.68-.26-.7-.36-.65-.22-.72-.52-.54-.5-.54-.69.02-.73.27-.63.45-.59.49-.67.39-.55.56-.71.32-.66.4-.64.45-.74.22-.75.19-.75.17-.77.15-.77-.23-.78.09-.78-.08-.71-.34-.77-.14-.74-.2-.65-.48-.78-.09-.71-.31-.76-.17-.79.04h-.76s-.79-.2-.79-.2l-.7.38-.7.29-.73.23-.78.15-.67.39-.65.43-.77.17-.64.45-.73.26-.72.23-.68.32-.73.17-.65.44h-.78s-.72.2-.72.2l-.74.1-.73.11-.74.17-.76-.08-.71-.26-.61-.43-.56-.47-.52-.55-.26-.71-.32-.65-.43-.62-.51-.55-.68-.36-.57-.48-.65-.38-.61-.45-.71-.27-.74-.16-.73-.13-.72-.26-.75.07-.74.07-.76.31v-.83s.2-.74.2-.74l-.17-.76.25-.74-.16-.76.2-.74-.03-.76.1-.74.08-.74.05-.75-.05-.76.12-.74.03-.76.21-.73-.08-.77.26-.72.06-.76.41-.65.55-.46.63.45.79.12.55.56.61.44.58.48.57.5.63.44.4.67.61.46.55.52.47.59.39.68.56.52.53.55.66.4.58.48.56.52.72.29.59.47.7.28.59.53.73.22.77.07.71.22.74.02.73-.02.78.05.69-.35.56-.53.76-.24.41-.69.72-.31.44-.66.73-.3.51-.57.63-.42.59-.47.59-.47.6-.45.7-.31.59-.47.66-.41.72-.29.71-.29.73-.23.74-.16.76.09.73.2.55.54.65.45.52.57.38.69.48.63.74.3.67.35.73.22.77.07.79.07.77-.18.74-.26.72-.29.66-.41.65-.43.64-.46.7-.38.53-.59.65-.44.69-.4.81-.05h.8l.74-.31h.8s.76.23.76.23l.68.4.65.42.58.54.32.73.45.67.1.79.31.74-.16.82.07.74.24.73.04.74-.09.76.17.74-.21.76.1.75.05.74.02.75.08.74.14.73v.76s.1.75.1.75l.43.65.3.68.17.76.48.62.42.66.13.78.32.7.23.74.22.74.37.7.17.76.2.75.16.76v.79s.28.74.28.74l-.06.79.11.77.04.78-.07.78-.05.78-.26.74-.29.73-.46.65-.64.43-.26.71-.18.71-.31.67-.12.72-.09.72-.11.72-.14.74.16.73-.05.74.02.74.22.71.08.73.28.69.2.71.08.75.49.59Z"/>
  <path class="cls-7" d="M324.09,222.26l-.79-.34-.85-.08-.6-.7-.58-.57-.52-1.65-.02-.78.13-1.49-.02-.69-.16-.82.24-.8.09-.64-.2-.8.28-.8.07-.7.03-.68-.14-.77.02-.88.15-.72.04-.73.05-.84.31-.72.03-.67-.07-.85.3-.76.03-.7-.04-.77.11-.75-.05-1.47.02-.73-.14-.66-.26-.64-.82-1.33-.24-.69-.38-.58-.43-.73-.7-2.1-.2-.83.05-.81.09-.83.18-.67v-.7s-.03-.8-.03-.8l.22-.79.15-.75.44-1.36v-.74s.13-.76.13-.76l.1-1.45.05-.8.14-.7v-.7l-.05-.72v-.71l-.24-.76.09-.76-.22-.75-.02-1.48-.16-.69-.19-.71-.24-.78-.06-.68-.32-.6-.32-.7-.26-.7-.38-.7-.19-.63-.83-.88-.45.02-.61.22-.58.42-.63.53-.63.36-.56.57-.76.34-.64.39-.67.47-.8.24-.76.19-.77.18-.88.18-.79-.23-.74.09-.89-.1-.72-.35-.71-.13-.85-.23-.63-.46-.79-.11-.68-.3-.67-.15-.73.04-.88-.03-.64-.15-.61.32-.7.29-.81.26-.71.14-.61.35-.68.46-.76.18-.68.45-1.43.48-.73.34-.67.15-.69.46h-.84s-.72.2-.72.2l-1.47.21-.79.18-.91-.11-.81-.31-.61-.43-.63-.53-.57-.61-.28-.77-.31-.63-.4-.57-.45-.48-.68-.38-.55-.46-.61-.38-.6-.44-.63-.24-.71-.15-.79-.14-.64-.23-1.34.13-1.27.52.03-1.54.17-.65-.18-.77.25-.74-.16-.74.2-.78-.03-.73.11-.78.08-.73.05-.71-.05-.78.12-.76.04-.82.19-.66-.08-.78.27-.75.06-.81.55-.83.79-.66.8.58.82.13.61.62.58.42.6.5.56.49.68.48.4.68.59.44.59.56.49.65.36.62.51.47.52.52.66.41.58.48.53.47.75.32.55.43.71.28.58.52.6.18.8.08.67.2.69.03.71-.02.71.04.54-.27.58-.56.7-.22.4-.67.73-.32.44-.66.76-.31.52-.57.63-.42,1.15-.92.69-.5.65-.29.59-.47.72-.44,1.43-.58.8-.26.81-.17.88.11.83.23.59.58.69.49.57.65.37.66.4.52.64.26.67.35.65.2,1.45.14.69-.16.72-.26.67-.27.64-.39.63-.42.67-.48.64-.34.56-.61.66-.44.79-.47.91-.05h.74l.74-.31h.94s.91.29.91.29l.67.4.72.48.65.59.34.77.48.72.1.84.33.81-.17.88.06.64.26.8.04.78-.08.72.18.78-.22.77.09.67.05.78.02.76.08.72.15.73v.77s.08.63.08.63l.42.63.32.75.15.67.43.54.49.76.14.82.32.7.44,1.44.4.77.17.76.19.73.17.86v.72s.28.76.28.76l-.06.83.11.76.04.81-.07.8-.06.88-.26.74-.34.84-.5.71-.6.4-.2.57-.2.77-.28.61-.11.67-.2,1.44-.13.67.16.71-.06.8.02.65.22.73.08.69.28.68.21.77.07.63.48.58.2.86.19.71.32.79.11.72.34.77-.07.85.16.75.06.74.18.87-.57,1.58-.26.9-.76.44-.33.47.07.7-.13.77-.03.69.1.71.13.78-.06.76.15.76.02.78-.06.75.08.79-.21.77-.09.84-.33.78-.5.68-.61.53-.72.28-.8.48-.72-.21-.77.23ZM322.84,221.07l.72.09.57.24.72-.23.62.18.59-.35.62-.24.46-.41.38-.53.24-.6.07-.76.18-.67-.07-.72.07-.77-.02-.7-.16-.77.06-.78-.11-.7-.11-.79.03-.84.11-.68-.09-.9.59-.86.64-.37.18-.61.5-1.39-.15-.73-.06-.74-.16-.79.06-.77-.31-.73-.11-.73-.31-.72-.2-.75-.17-.69-.51-.63-.09-.83-.18-.66-.3-.78-.08-.7-.23-.79-.02-.74.05-.72-.17-.76.16-.81.35-2.27.29-.63.18-.72.31-.84.69-.46.39-.54.26-.69.24-.67.04-.73.07-.76-.03-.73-.11-.79.06-.74-.26-.73v-.82s-.16-.72-.16-.72l-.2-.73-.16-.72-.38-.72-.45-1.45-.35-.78-.11-.7-.38-.59-.52-.66-.17-.81-.27-.61-.46-.69-.13-.87v-.75s-.13-.69-.13-.69l-.08-.78-.03-.78-.05-.73-.11-.81.21-.73-.16-.72.09-.79-.04-.66-.24-.77-.08-.8.15-.76-.29-.74-.09-.7-.44-.65-.29-.66-.5-.46-.63-.41-.63-.36-.66-.21h-.66s-.75.31-.75.31h-.88l-.68.04-.61.36-.59.4-.55.61-.74.4-.61.45-.66.44-.73.44-.72.29-.8.28-.84.19-1.7-.16-.79-.26-.67-.35-.81-.33-.58-.76-.36-.65-.46-.51-.66-.46-.47-.46-.6-.17-.65-.08-.66.14-.71.23-1.38.56-.61.38-.66.52-.66.29-.57.43-1.17.93-.61.4-.53.6-.7.29-.43.65-.71.31-.43.71-.81.26-.59.54-.78.4-.89-.06-.7.02-.87-.04-.68-.2-.8-.09-.82-.24-.6-.54-.74-.31-.55-.43-.73-.29-.61-.56-.55-.45-.7-.45-.53-.54-.62-.6-.38-.65-.43-.55-.51-.48-.66-.49-.39-.67-.6-.42-.57-.5-.57-.47-.65-.46-.45-.46-.75-.11-.46-.33-.26.21-.32.51-.07.77-.22.64.07.76-.21.75-.03.75-.11.7.05.73-.05.78-.08.76-.1.72.03.78-.19.71.17.77-.25.74.17.74-.2.79v.19l.32-.11,1.58-.15.77.28.7.12.82.18.8.32.61.45.66.4.54.45.69.38.6.65.45.67.35.71.23.64.44.48.55.46.54.38.62.22.64.07.68-.16,1.48-.22.8-.2h.66s.61-.42.61-.42l.77-.18.69-.32,1.39-.46.66-.46.77-.18.58-.4.76-.43.82-.15.71-.23.66-.27.82-.44.89.21.71.02.81-.04.88.21.66.29.82.09.68.49.67.19.83.17.65.31.67.07.81-.09.75.22.67-.14.74-.17.73-.19.67-.2.59-.41.72-.44.64-.29.58-.57.64-.37.57-.47.74-.52.79-.29.94-.03,1.2,1.28.23.78.36.67.26.7.3.66.38.72.07.79.22.67.2.74.18.84.02,1.44.23.75-.09.76.23.71v.81s.05.71.05.71v.82s-.15.76-.15.76l-.08,1.45-.07.79-.13.69.02.8-.47,1.47-.14.71-.2.7.03.7-.03.87-.19.7-.07.71-.05.67.16.68.67,2.03.36.59.44.7.24.69.81,1.3.31.77.17.79-.02.81.05,1.52-.11.74.03.73-.04.87-.28.7.06.71-.03.86-.31.73-.05.7-.04.82-.15.72v.69s.13.78.13.78l-.03.79-.1.86-.21.63.18.72-.13.88-.19.64.14.72.02.76-.13,1.49.02.68.41,1.29.47.46.43.48Z"/>
  <path class="cls-7" d="M214.91,202.93l.07-.78.29-.73.22-.74-.07-.8.33-.72-.07-.8.24-.73.1-.77.24-.73.11-.76.41-.69.19-.74.1-.77.16-.76.33-.7.27-.72.23-.74.33-.69.34-.69.33-.69.24-.74.29-.72.58-.54.35-.71.64-.45.69-.33.73-.13h.73s.71.18.71.18l.65.34.44.58.37.61.29.67.47.6.15.76.5.58.67.34.67.29.73.1.73-.05.74.04.76-.06.74-.17.71-.27.68-.33.68-.35.51-.56.56-.51.39-.65.49-.58.49-.57.53-.53.47-.59.57-.52.77-.17.63-.46.75-.14.77-.09.73-.24.77-.05.74-.26h.78s.77,0,.77,0l.77-.11.77.08.77-.1.74.29.76.06.75.15.79.05.66.43.67.38.74.26.46.65.55.53.7.41.38.68.41.68.54.58.6.49.58.53.77.13.76-.07.74-.28.55-.57.63-.5.42-.68.48-.64.64-.26.64.38.47.6.64.49.17.8.56.58.14.79.47.64.12.78.39.69.19.76.27.73.1.78.04.78.03.78.1.77.19.78-.23.77-.06.76.24.76-.21.76-.04.76v.76l.18.75.04.76-.09.75.05.76.04.76-.21.76.08.76.17.76-.18.76.06.76.12.76-.06.76.06.76v.76s-.11.76-.11.76l-.02.76.03.76.08.76-.02.76-.21.76.02.76.04.76-.06.76v.76s.11.76.11.76l.1.76-.05.76-.03.76-.76-.11-.76.09-.76.16-.76-.07h-.76s-.76-.08-.76-.08l-.76-.08-.76.17h-.76s-.76.03-.76.03l-.76.03h-.76l-.76-.14h-.76s-.76.03-.76.03l-.76-.05-.76.17-.76-.17-.76.14-.76-.09-.76-.13-.76.03-.76.04-.76.06-.76-.13-.76.14-.76.07-.76-.02-.76.06-.76-.16-.76.1-.76-.09-.76.08-.76-.1h-.76s-.76.05-.76.05l-.76-.1-.76.14-.76-.13-.76.02-.76.13-.76-.06-.76-.02-.76.04-.76.09-.76-.22-.76.17-.76.06-.76-.16-.76.11-.76.06-.77-.24-.76.15-.76-.1h-.76s-.76.17-.76.17l-.76.04-.76-.24-.77.22-.76.04-.76-.07-.77-.19-.76.05-.77.12-.76-.16-.79.14.03-.77.04-.75-.08-.75.07-.75-.23-.74.19-.76-.04-.74v-.76s-.05-.75-.05-.75l-.18-.75-.02-.75.03-.76.07-.75-.05-.76-.13-.74.04-.76-.02-.75.02-.76v-.75s-.17-.75-.17-.75l.04-.75-.03-.76.1-.76-.05-.75-.11-.76-.04-.78Z"/>
  <path class="cls-7" d="M252.73,223.04l-.77-.17-.74.14-.82-.1-.74-.12-1.47.06-.8.06-.74-.13-.69.13-.82.08-.79-.02-.77.06-.75-.16-.74.1-.77-.09-.76.08-.78-.11-.72.02-.79.04-.73-.09-.77.13-.79-.13-.69.02-.78.13-.81-.07-.74-.02-.73.03-.81.09-.74-.21-.71.15-.81.06-.75-.16-.69.1-.86.07-.74-.23-.72.14-.8-.11h-.69s-.79.17-.79.17l-.83.03-.71-.23-.73.2-.79.05-.85-.08-.7-.17-.69.05-.81.12-.76-.16-1.19.21.08-1.99-.07-.76.06-.71-.24-.78.2-.81-.04-.69v-.78s-.04-.69-.04-.69l-.18-.8-.02-.75.03-.78.07-.74-.04-.7-.13-.77.04-.8-.02-.72.03-1.47-.18-.76.04-.81-.02-.75.1-.75-.05-.71-.12-.76-.03-.79.09-.91.28-.73.2-.64-.07-.82.34-.72-.07-.78.26-.78.11-.8.23-.7.13-.81.42-.7.17-.67.1-.75.18-.88.33-.7.26-.69.24-.77.99-2.06.23-.71.34-.83.59-.55.36-.74.78-.54.8-.36.77-.13.86.02.8.21.73.39.48.66.42.7.27.62.49.64.15.74.38.44.6.3.59.26.63.09.72-.05.73.05.7-.06.68-.16.68-.26,1.25-.63.46-.51.54-.49.4-.66.98-1.15.54-.53.5-.62.65-.59.79-.17.63-.47.84-.17.76-.08.8-.25.72-.05.76-.26h.84s.73,0,.73,0l.79-.11.77.08.83-.11.79.3.74.07.72.15.87.05.74.49.61.34.83.29.52.73.48.46.75.44.44.78.39.63.49.53.58.48.51.47.6.1.65-.06.61-.22.53-.54.57-.45.39-.62.57-.76.92-.37.88.51.49.62.72.55.17.83.57.59.14.82.48.64.13.81.39.72.18.74.28.8.1.78.07,1.59.09.71.21.86-.25.83-.05.64.26.79-.23.83-.04.71v.69l.18.78.05.79-.09.75.08,1.54-.21.74.07.65.19.82-.19.79.06.69.13.77-.06.78.05.72v.84s-.11.73-.11.73l-.02.73.03.73.07.76-.04.88-.19.7v.7s.05.77.05.77l-.07.79v.69s.22,1.53.22,1.53l-.1,1.99-1.15-.18-.7.09-.79.16-.8-.07h-.77l-1.47-.17-.74.17h-.8s-1.51.05-1.51.05h-.84s-.72-.14-.72-.14h-.72l-.76.03-.72-.04-.81.18ZM242.87,222.06l.77.16.7-.05.78.02.73-.07.79-.15.78.14.71-.06,1.57-.06.8.13.68.08.78-.14.75.16.72-.17.8.05.74-.03h.84s.72.14.72.14h.72l1.5-.06h.73s.78-.17.78-.17l1.56.18h.76s.72.06.72.06l.7-.14.84-.11.37.06.06-1.04-.21-1.53v-.76s.06-.77.06-.77l-.04-.73-.02-.83.22-.76.02-.68-.08-.73-.03-.78.02-.83.1-.72v-.73s-.05-.76-.05-.76l.05-.73-.11-.71-.08-.85.18-.72-.17-.71-.08-.83.22-.77-.08-1.48.09-.76-.04-.68-.18-.81v-.76l.06-.86.18-.64-.22-.72.08-.92.2-.66-.17-.72-.09-.77-.07-1.59-.09-.7-.27-.74-.17-.7-.4-.7-.11-.76-.47-.64-.14-.77-.55-.58-.17-.77-.6-.47-.42-.54-.4-.22-.35.14-.41.55-.44.71-.66.52-.6.62-.93.33-.81.07-.93-.15-.67-.61-.63-.53-.58-.65-.41-.67-.34-.6-.68-.42-.59-.58-.39-.55-.69-.24-.67-.38-.59-.39-.74-.05-.72-.15-.85-.09-.65-.26-.72.1-.77-.07-.77.11-.77.02h-.72s-.78.24-.78.24l-.72.05-.77.24-.77.08-.63.13-.63.46-.74.16-.46.42-.48.6-.54.53-.93,1.09-.45.72-.55.51-.53.59-1.43.71-.79.31-.79.18-.79.07-.74-.04-.74.05-.88-.13-.67-.29-.76-.39-.62-.72-.15-.77-.46-.61-.28-.65-.36-.59-.36-.47-.53-.28-.61-.15h-.65s-.64.1-.64.1l-.61.29-.53.38-.34.69-.57.53-.26.64-.25.76-.99,2.06-.22.71-.28.74-.32.69-.15.71-.1.79-.23.85-.37.62-.12.76-.23.69-.11.81-.22.66.07.82-.33.72.07.77-.25.81-.28.71-.06.69.03.71.11.73.06.83-.1.77.02.72-.04.73.17.74-.03,1.56.02.73-.03.74.13.74.05.79-.07.78-.03.73.02.68.18.77.06.76v.79s.04.78.04.78l-.18.7.22.71-.07.8.07.74-.05,1.05.38-.07.77.16.69-.1.85-.07.8.2.7.06.69-.04.83-.24.81.26.66-.03.81-.16h.79s.72.09.72.09l.8-.16.78.26.68-.05.8-.11.78.16.68-.05.83-.18.78.23.68-.08.79-.04.79.02.73.06.77-.12.8-.02.73.12.76-.13.79.1.72-.04.8-.02.74.1.76-.07.76.09.76-.11Z"/>
  <path class="cls-3" d="M235.5,191.78l.39.68-.03.8.27.72.29.72.11.76.11.76.11.76.26.72.09.76.25.73.08.77.15.75.17.75.13.76.07.77v.77s.17.75.17.75l.11.76.05.77.19.75.08.76-.18.78.23.76v1.54l-.11.76-.04.77-.08.76-.08.77-.2.74-.28.71-.39.66-.23.74-.64.45-.55.52-.68.38-.78.08-.76-.11-.69-.3-.62-.41-.46-.59-.26-.7-.32-.67-.29-.7-.13-.74.15-.77-.11-.74.06-.75-.05-.74.13-.74-.17-.77.26-.73-.14-.77.19-.73.27-.71.06-.75-.05-.77.19-.73.31-.7.09-.74.16-.73.22-.72.2-.72.17-.73-.05-.79.28-.7.22-.71.14-.74.16-.73.29-.7.16-.73.21-.72.4-.66.27-.7.14-.74.19-.64.13.69Z"/>
  <path class="cls-7" d="M234.56,218.36l-.91-.16-.74-.34-.68-.45-.55-.75-.26-.69-.31-.64-.32-.81-.14-.82.16-.77-.1-.72.06-.76-.06-.77.12-.71-.18-.8.27-.74-.13-.75.21-.82.26-.7.06-.67-.06-.8.23-.85.29-.65.09-.69.17-.81.23-.71.2-.71.16-.65-.06-.81.32-.79.21-.66.13-.71.18-.82.27-.66.15-.7.26-.84.38-.63.24-.63.14-.76.71-2.31.35,2.33.41.72-.03.83.55,1.45.33,2.23.27.77.09.72.26.78.07.74.32,1.47.13.78.07.8v.76s.17.71.17.71l.11.78.05.76.19.77.09.83-.17.74.21.77v1.57s-.11.78-.11.78l-.03.74-.17,1.61-.21.79-.31.77-.36.62-.26.83-.72.51-.61.55-.75.43-.91.1ZM233.93,217.44l.65.1.65-.07.57-.32.55-.52.53-.38.23-.7.37-.63.26-.66.18-.69.16-1.5.04-.78.11-.73v-1.44s-.25-.81-.25-.81l.19-.81-.07-.67-.2-.8-.05-.77-.11-.72-.17-.8v-.77s-.08-.73-.08-.73l-.12-.73-.32-1.53-.07-.72-.26-.77-.09-.71-.27-.76-.33-2.23-.57-1.48.02-.76-.02-.04-.03.1-.29.76-.38.62-.19.67-.17.78-.28.67-.15.7-.14.78-.22.72-.26.64.06.76-.19.79-.21.73-.23.71-.15.71-.12.82-.3.67-.17.64.05.73-.09.89-.27.72-.16.61.14.79-.26.72.16.73-.13.77.05.73-.06.73.11.77-.15.76.11.63.27.66.31.65.25.67.38.49.54.36.6.27Z"/>
  <path class="cls-9" d="M267.5,207.14v.02l-.31.71-.16.74.07.8-.26.72-.39.68v.8s-.49.63-.49.63l-.24.72-.23.74-.63.48-.54.49-.6.41-.74.16-.69-.31-.72-.22-.65-.39-.53-.57-.58-.48-.65-.42-.68-.31-.76-.1-.8.16-.59.58-.42.69-.24.78-.3.73-.34.72-.32.73-.33.73-.25.73-.39.67-.42.67-.61.49-.79.17-.68.38-.74.21-.75.19-.76.15-.75.21h-.79l-.74.28-.49.61-.22.74-.35.67-.14.74v.76s-.29.73-.29.73l-.05.75-.06.75.1.76.05.75-.15.76.23.75-.17.76.12.75.16.74.07.74-.04.76-.07.77.18.74.05.75.1.75.18.74.06.76-.17.78.22.73-.05.76.17.74.07.75.1.74.06.76-.18.76.05.76v.77l-.15.74-.4.68-.24.71-.29.7-.57.5-.73-.03-.54-.47-.58-.52-.29-.71-.35-.69-.16-.76.04-.79-.12-.76-.15-.76.02-.77-.1-.76-.11-.76v-.77s.06-.77.06-.77l-.28-.76-.03-.77v-.77s.06-.77.06-.77l-.03-.77-.08-.77.15-.77.03-.77-.21-.77-.09-.77.11-.78.05-.77-.28-.75.11-.78-.32-.73-.04-.77-.24-.72-.19-.72-.48-.53-.69-.26-.67.22-.71.11-.71-.23-.47-.59-.4-.6-.41-.6-.33-.65-.35-.64-.42-.6-.57-.47-.59-.43-.46-.58-.73-.22-.65-.35-.73-.15-.74.15-.63.43-.53.53-.44.6-.48.58-.36.65-.36.66-.16.75-.53.57-.3.69-.24.69-.48.55-.59.43-.73.17-.67-.33-.56-.46-.49-.52-.46-.56-.39-.61-.26-.68-.36-.65-.13-.72-.32-.71-.33-.69-.51-.58-.66-.44-.79-.1-.77.02-.79-.18-.73.33-.76.14-.77.17-.72.28-.77-.09-.78-.1-.59-.52-.48-.59-.48-.6-.26-.72-.4-.67v-.79s-.04.02-.04.02l.02-.74-.15-.76.21-.73.1-.74-.1-.76.32-.71.1-.74-.14-.78.22-.72.2-.72.14-.73.16-.74.36-.67.18-.73.33-.68.42-.62.32-.68.54-.52.44-.6.58-.46.66-.34.7-.25.67.14.7.41.1.82.44.68-.04.81.31.74-.08.8.2.77.03.8.19.78.14.77.35.71.8.2.77-.19.83-.04.46.7.29.72.49.58.14.74.37.65.51.56.71.24.7.1.72.02.68-.26.65-.33.74-.17.58-.46.5-.56.69-.28.57-.47.6-.46.72-.22.73-.19.76.02.7.28.66.34.61.42.58.47.46.59.24.73.39.63.38.63.26.69.42.71.62.54.72.35.72.31.79.08.82-.09.61-.55.28-.73.22-.7v-.75s.03-.76.03-.76l.05-.76-.11-.77.2-.74.33-.7.48-.61.59-.5.71-.31.66-.43,1.16-1.05.35-.71.58-.54.29-.74.46-.63.49-.61.38-.68.41-.65.48-.61.7-.33.66-.4.37-.65.47-.59.44-.62.64-.44.49-.58.67-.36.65-.41.76-.08.74-.02.74.14.63.41.69.31.48.59.53.54.57.5.4.64.63.47.58-.31.03-.78.31-.75v-.8s.21-.77.21-.77l.54-.59.47-.63.65-.47.81-.05.73-.31.69.19.53.43.4.64.09.75-.19.77.28.73.09.75-.02.76-.15.77.1.74.17.74-.11.76.19.74.07.76Z"/>
  <path class="cls-7" d="M244.77,250.04l-1.03-.04-1.3-1.14-.31-.78-.39-.77-.17-.81.04-.8-.11-.72-.15-.78.02-.78-.21-1.54v-.77s.05-.71.05-.71l-.27-.8-.03-.77v-.79s.06-.78.06-.78l-.03-.73-.09-.8.16-.8.02-.68-.21-.77-.09-.82.13-.83.04-.65-.29-.77.11-.78-.3-.69-.05-.79-.22-.67-.17-.66-.34-.39-.46-.17-.6.19-.81.13-.92-.3-.54-.67-.85-1.28-.33-.66-.34-.6-.38-.54-.53-.45-.65-.48-.39-.48-.69-.21-.59-.32-.6-.12-.58.11-.53.36-.48.48-.42.58-.47.57-.67,1.22-.17.8-.56.6-.27.63-.27.74-.6.66-.65.47-.95.22-.88-.44-.59-.49-.49-.52-.51-.63-.42-.69-.24-.66-.38-.68-.14-.73-.6-1.3-.44-.51-.54-.36-.66-.09-.79.02-.71-.16-.71.31-.76.14-.72.16-.78.31-1.78-.21-.73-.65-1-1.25-.27-.76-.44-.72v-.23s-.05.03-.05.03l.03-1.38-.15-.81.22-.8.09-.66-.11-.82.34-.77.09-.61-.14-.81.45-1.53.13-.7.2-.85.33-.63.2-.76.36-.72.4-.59.34-.72.57-.55.49-.65.65-.49.7-.36.8-.29.84.18.93.54.11.93.46.71-.05.85.31.76-.08.83.2.79.03.76.18.73.13.74.25.49.53.13.75-.17,1.06-.06.62.96.27.66.53.62.15.79.31.55.41.45.58.2.64.09.61.02.58-.22.72-.35.65-.15.48-.38.54-.6.72-.3.53-.43.67-.52.79-.24.81-.21.89.02.77.31.73.39.61.42.68.56.49.64.24.75.77,1.29.24.66.37.63.53.46.67.33.65.28.69.07.65-.07.45-.41.24-.65.19-.62v-.69s.08-1.51.08-1.51l-.12-.81.24-.89.38-.78.54-.67.69-.56.68-.29.6-.39,1.08-.98.34-.71.56-.53.31-.74.46-.63.48-.6.36-.65.45-.7.54-.68.77-.36.55-.33.35-.61.47-.59.47-.66.65-.45.51-.59.73-.4.7-.44.84-.09.82-.03.85.16.67.43.75.34.54.66.5.51.63.57.36.58.36.27.16-.08.03-.63.31-.74v-.77s.25-.92.25-.92l.6-.66.54-.68.74-.54.86-.05.8-.34.9.26.65.53.48.77.1.91-.18.72.24.71.1.78-.02.85-.13.7.09.69.18.79-.11.76.19.73.07.85-.34.78-.14.65.07.83-.31.86-.33.59v.83s-.54.68-.54.68l-.48,1.52-.72.56-.56.52-.67.44-.93.21-.79-.35-.78-.26-.73-.46-.51-.55-.55-.45-.6-.39-.59-.28-.63-.08-.63.13-.47.46-.37.61-.22.72-.32.77-.99,2.19-.27.77-.39.67-.46.74-.74.6-.82.18-.71.38-.74.21-.77.19-.78.16-.82.22h-.72s-.57.22-.57.22l-.38.46-.22.73-.32.62-.11.65-.02.8-.29.73-.1,1.41.1.71.05.83-.14.71.23.75-.17.79.11.68.16.77.08.78-.05.79-.07.71.17.75.05.75.08.7.19.78.07.81-.16.73.21.71-.05.78.16.73.07.75.1.73.06.84-.18.76.05.7v.87s-.17.82-.17.82l-.4.7-.22.67-.34.81-.76.67ZM244.06,249.21l.43.02.38-.33.27-.61.26-.75.35-.62.13-.65v-.73s-.05-.79-.05-.79l.18-.76-.05-.7-.1-.72-.07-.74-.17-.77.05-.75-.23-.76.18-.82-.06-.66-.18-.75-.1-.75-.05-.74-.18-.78.07-.83.04-.71-.07-.7-.16-.72-.14-.84.16-.73-.23-.74.16-.8-.04-.7-.1-.77.14-1.66.25-.66.02-.76.17-.86.33-.64.23-.78.61-.75.91-.34h.8s.69-.2.69-.2l.79-.16.73-.18.68-.2.74-.39.7-.16.49-.4.39-.61.36-.63.24-.69,1-2.22.29-.71.27-.83.48-.77.67-.66.98-.2.94.14.72.34.68.44.63.52.48.53.57.34.71.23.57.25.53-.12.52-.34.51-.48.56-.43.45-1.42.45-.57v-.77s.42-.74.42-.74l.22-.61-.07-.77.19-.88.28-.62-.05-.64-.2-.78.11-.77-.15-.67-.12-.84.15-.8.02-.69-.09-.67-.3-.81.2-.82-.07-.59-.31-.5-.41-.34-.48-.13-.66.28-.77.05-.51.36-.44.58-.49.55-.18.63v.82s-.31.76-.31.76l-.04.94-1.01.54-.9-.67-.41-.66-.53-.46-.55-.56-.45-.54-.66-.31-.56-.36-.62-.11-.7.02-.63.07-.57.35-.63.34-.52.59-.58.4-.41.56-.46.58-.4.72-.78.47-.61.3-.42.52-.4.64-.41.71-.49.61-.42.58-.31.77-.58.55-.35.72-1.26,1.15-.71.46-.66.28-.52.44-.43.54-.3.63-.17.63.11.72-.08,1.56v.79s-.23.76-.23.76l-.32.85-.78.7-.99.11-.95-.11-.72-.31-.82-.42-.67-.58-.48-.83-.24-.66-.78-1.3-.22-.66-.38-.5-.55-.44-.56-.39-.64-.33-.6-.24-.64-.02-1.32.37-.54.42-.67.53-.61.25-.49.54-.65.51-.78.18-.64.33-.75.29-.84-.03-.77-.12-.81-.27-.63-.71-.4-.71-.13-.71-.47-.55-.3-.75-.31-.47-.56.03-.83.2-1.07-.27-.47-.98-.14-.77-.19-.83-.03-.75-.21-.8.07-.77-.31-.73.04-.78-.42-.65-.09-.72-.47-.27-.49-.1-.56.2-.6.32-.52.4-.45.61-.49.47-.32.67-.4.6-.3.61-.21.78-.33.62-.28,1.41-.41,1.39.14.76-.15.9-.28.6.1.7-.11.85-.19.64.14.71v.1s.04-.02.04-.02l-.02,1.34.38.64.24.66.89,1.11.48.42,1.32.16.68-.26.77-.17.73-.13.81-.37.87.2.76-.02.91.12.81.56.57.68.33.69.35.81.12.65.35.64.24.65.35.56.44.54.46.48.5.42.5.24.52-.11.48-.35.41-.45.22-.63.33-.77.5-.54.18-.75.76-1.38.48-.58.47-.63.58-.57.69-.48.9-.17.93.2.6.34.81.24.51.64.55.4.66.57.45.64.35.64.32.64.79,1.19.38.46.51.17.58-.09.78-.25.91.34.6.68.21.82.26.81.04.69.34.78-.11.8.27.73-.05.86-.11.76.08.68.22.8-.04.89-.14.71.08.71.03.8-.04.81-.02.75.03.68.28.78-.07.86v.7s.22,1.53.22,1.53l-.02.76.14.71.13.81-.04.78.14.66.34.67.25.63.97.83Z"/>
  <path class="cls-7" d="M268.41,251.44l-.27.76-.12.75-.21.74-.22.74-.36.69-.58.53-.33.74-.59.52-.74.3-.6.53-.79.13-.73.2-.68.39-.78.02-.69.34-.76.11-.72.22-.75.14-.72.25-.74.17-.76.09-.75.13-.76.09-.78-.06-.74.17-.73.27-.77-.05-.76.07h-.77s-.74.18-.74.18l-.75.18-.77-.04-.77-.05-.75.15-.76.16-.77-.03-.76-.05-.76.2-.77-.22-.76.03-.76.02-.76.24-.76.04-.77-.04-.76-.14-.77.13-.76-.03-.76-.06-.76-.09-.76.04h-.76l-.76.08-.76.03h-.76s-.76-.09-.76-.09l-.76-.03-.76.06h-.77s-.76,0-.76,0l-.76-.18h-.76s-.76-.03-.76-.03l-.76-.09-.76-.03-.77.03-.76.02-.75-.19-.77.08-.76-.08-.74-.29-.77.04-.75-.11-.77.07-.72-.34-.77-.06-.74-.2-.73-.26-.67-.4-.53-.57-.68-.4-.43-.65-.38-.66-.34-.68-.3-.7-.36-.7-.11-.77-.16-.79.18-.76-.13-.76.12-.76-.14-.76.04-.76.1-.76-.06-.76v-.76s.16-.76.16-.76v-.76l-.25-.76.07-.76.17-.76-.24-.76.23-.76-.08-.76-.16-.76.23-.76.02-.76-.07-.76-.08-.76.15-.76-.11-.76-.03-.77.13-.76v-.76s-.08-.76-.08-.76l-.07-.77v-.76l.17-.76.02-.76-.03-.76-.14-.76-.02-.77.05-.77.04-.77.06-.76-.06-.77v-.77s-.13-.76-.13-.76v-.77s.22-.76.22-.76l-.1-.77v-.77s0-.77,0-.77v-.76l-.06-.96.2.76.22.73.39.68.54.56.43.64.66.4.74.13.76.19.76-.2.74-.22.72-.31.77-.17.78.11.8-.15.7.4.7.31.64.48.42.69.13.79.05.74.36.65.3.66.39.62.51.52.48.52.45.63.75.1.76.02.57-.5.45-.57.31-.66.31-.68.48-.59.25-.71.27-.7.38-.65.57-.52.42-.6.45-.59.64-.4.73-.09.71.15.76.08.62.43.65.37.51.54.33.68.43.58.44.58.3.66.42.6.48.55.51.53.65.39.72-.25.67-.2.83.11.42.68.27.72.23.74-.04.79.04.76.26.74.11.76-.11.78-.05.77.26.76-.16.77.25.76-.06.78.09.76-.05.78.09.77-.2.78.04.77.15.77.1.76-.06.78.02.77.08.77v.77s.05.77.05.77l.1.77.27.73.29.7.09.77.49.6.34.67.57.49.78-.02.55-.54.39-.66.26-.71.28-.71.13-.75.1-.76-.16-.77.23-.76-.06-.77-.17-.74-.03-.75-.09-.75-.14-.74.03-.76-.03-.76-.07-.74-.11-.74-.09-.75v-.76l-.17-.74v-.76s-.17-.74-.17-.74v-1.52s.03-.76.03-.76l-.14-.75-.11-.75.21-.76-.2-.76.07-.76.12-.75-.04-.76.17-.74-.02-.77.27-.71.29-.7.29-.7.57-.48.64-.43.8.08.76-.19.76-.16.71-.35.79-.07.74-.25.59-.53.74-.31.52-.6.17-.8.38-.67.32-.73.23-.77.24-.77.44-.68.29-.75.46-.66.62-.49.69-.38.76.21.68.3.58.49.56.51.6.47.61.48.78.11.68.42.73-.31.76-.17.41-.67.57-.53.23-.73.34-.68.2-.73.3-.7.3-.7.25-.72.14-.75-.03-.79.27-.67-.07.72.28.76-.17.78v.76l.04.77.21.76.08.76-.06.77.08.76.07.77-.18.77.1.76.21.76-.15.77.09.76.15.76-.03.77.08.77.02.77-.08.77v.77s.05.77.05.77l.09.76v.76l-.19.77.03.77.06.76-.05.77.02.77.11.76.12.76-.04.77-.02.76-.1.77.11.76.17.76-.07.77.02.77-.08.76-.07.77.17.77v.77l.04.76.03.77v.77l-.14.77v.76s.03.77.03.77l-.05.77.17.77-.17.76.13.76-.09.77-.13.76.02.76.03.76.05.76.04.74Z"/>
  <path class="cls-7" d="M239.61,261.6l-.86-.04-.69-.13-.74.13-.8-.03-.78-.06-.74-.09-.73.04h-.76s-.74.08-.74.08l-1.59.05-.79-.1-.7-.03-.74.05h-.79s-.85-.02-.85-.02l-.71-.17h-.71s-.78-.03-.78-.03l-.78-.09-.73-.02-1.56.04-.73-.19-.74.08-.9-.12-.66-.26-.72.05-.74-.12-.83.08-.76-.36-.77-.06-.74-.2-.83-.3-.75-.47-.49-.53-.71-.41-.48-.73-.39-.68-.35-.69-.31-.72-.38-.73-.13-.83-.16-.84.18-.77-.14-.75.12-.76-.14-.73.04-.81.1-.75-.06-.72v-.84s.17-.76.17-.76v-.66l-.26-.78.08-.9.15-.66-.24-.78.24-.81-.07-.66-.17-.84.24-.81.02-.69-.16-1.55.15-.75-.11-.74-.04-.8.13-.77v-.72s-.15-1.49-.15-1.49l.02-.89.16-.72.02-.72-.03-.71-.14-.8-.02-.77.15-2.3-.06-.73v-.76s-.13-.8-.13-.8v-.82s.21-.74.21-.74l-.1-.7v-.79s0-1.53,0-1.53l-.06-.94.79-.12.2.76.21.67.34.59.55.58.38.57.52.32.67.11.69.18.65-.17.71-.21.77-.32.84-.19.8.12.88-.16.8.45.77.35.7.52.5.82.14.88.05.68.32.57.3.68.35.55.48.49.53.57.35.49.56.07.58.02.42-.38.41-.51.64-1.39.44-.54.22-.65.3-.77.45-.74.53-.49.4-.57.52-.67.77-.48.88-.11.77.16.82.09.7.48.71.42.58.64.31.64.89,1.21.29.63.39.55.47.53.45.48.45.26.55-.19.77-.23,1.1.15.56.91.27.72.26.82-.05.84.04.69.26.76.12.82-.11.83-.04.67.26.79-.16.77.24.73-.07.81.09.76-.05.77.1.81-.21.79.03.68.14.74.11.83-.06.8.02.74.09.73.02.81.04.76.09.69.25.69.32.79.07.66.46.59.3.6.4.34h.47s.4-.41.4-.41l.34-.57.25-.68.28-.69.13-.71.09-.67-.16-.8.24-.78-.05-.66-.18-.79-.03-.76-.09-.71-.15-.76.03-.8-.03-.72-.07-.72-.11-.73-.09-.81v-.71l-.17-.78v-.71s-.17-.79-.17-.79v-.76l.03-1.49-.13-.71-.13-.85.2-.73-.2-.72.08-.83.12-.73-.04-.78.17-.75-.02-.79.3-.79.62-1.49.68-.58.76-.51.88.09.69-.17.72-.16.73-.37.81-.07.61-.21.58-.53.72-.29.39-.45.19-.81.38-.67.29-.68.52-1.6.42-.65.32-.8.55-.73.68-.53.83-.46.96.28.78.36.58.48.58.52,1.1.86.77.11.57.36.61-.25.6-.14.39-.61.49-.45.22-.69.32-.64.2-.74.6-1.41.23-.67.12-.68-.02-.83,1.33-3.28-.32,3.34.29.78-.18.85v.72l.03.7.21.78.08.8-.05.77.15,1.56-.18.77.09.66.22.82-.16.8.08.7.16.78-.03.79.08.73.02.83-.09.77v.74s.05.74.05.74l.1.79-.02.86-.18.71.03.7.05.78-.05.79.03.7.23,1.54-.06,1.6-.1.71.1.7.17.79-.07.82v.75s-.14,1.48-.14,1.48l.17.74v.81s.06,1.52.06,1.52v.81l-.14.76v.73s.03.77.03.77l-.05.73.18.8-.17.77.13.74-.1.82-.13.74.05,1.47.12,1.59-.29.81-.13.76-.46,1.55-.39.75-.57.53-.33.74-.71.63-.74.3-.64.56-.9.15-.65.17-.72.41-.79.02-.67.34-.79.11-.74.22-.71.13-.74.26-.79.18-.76.09-.73.13-.81.1-.76-.06-.66.16-.79.29-.82-.05-.73.06-.75.02-1.51.34-1.54-.08-1.5.3-1.52-.07-.8.2-.81-.22-1.41.04-.8.24-.76.04ZM238.87,260.77l.73.03.67-.04.82-.24,1.58-.04.72.2.71-.19.83.05.7.02,1.52-.3,1.52.08,1.53-.33.76-.02.76-.07.72.05.7-.25.8-.19.8.07.71-.09.73-.12.76-.09.7-.16.76-.26.73-.14.77-.22.69-.1.71-.36.77-.02.68-.37.73-.2.72-.12.57-.49.73-.3.48-.42.33-.74.58-.54.31-.59.41-1.42.14-.8.23-.68-.1-1.44-.05-1.58.14-.8.09-.69-.13-.78.17-.76-.16-.73.05-.8-.03-.74v-.85s.14-.73.14-.73v-.73l-.07-1.51v-.74l-.17-.78.16-1.57v-.74s.05-.74.05-.74l-.15-.71-.12-.84.11-.8.05-1.47-.23-1.54-.03-.76.05-.78-.05-.74-.03-.83.19-.78v-.69s-.09-.73-.09-.73l-.05-.79v-.81s.08-.77.08-.77l-.02-.74-.08-.76.03-.74-.14-.72-.1-.85.15-.74-.19-.71-.11-.84.18-.78-.15-1.49.06-.77-.07-.69-.21-.81-.03-.52-.51,1.19-.22.79-.32.65-.26.81-.6.56-.47.77-.9.2-.89.38-.79-.49-.81-.11-1.29-1.01-.58-.53-.53-.44-.6-.26-.57-.17-.52.29-.55.44-.41.57-.31.78-.41.64-.48,1.51-.32.73-.36.65-.18.84-.65.76-.77.31-.59.54-.92.3-.7.06-.74.35-.76.17-.81.2-.73-.07-.49.33-.48.41-.78,1.94.02.74-.17.73.03.75-.12.79-.07.66.22.79-.22.79.1.67.14.78-.03,1.55v.71l.16.78v.71s.18.79.18.79v.73s.09.72.09.72l.11.73.08.77.03.78-.02.74.13.7.09.77.04.74.17.77.07.84-.22.73.14.73-.1.82-.16.84-.29.71-.29.77-.45.74-.67.65-1.08.03-.75-.65-.36-.7-.53-.66-.09-.83-.28-.65-.29-.83-.1-.77-.04-.8v-.79s-.09-.73-.09-.73l-.02-.82.06-.75-.1-.72-.15-.8-.04-.83.2-.77-.09-.73.05-.77-.09-.77.06-.73-.26-.78.16-.77-.24-.73.06-.85.1-.74-.1-.67-.27-.82-.04-.79.04-.74-.21-.67-.25-.67-.3-.48-.56-.07-.58.18-.89.31-.9-.55-.5-.52-.53-.6-.46-.66-.28-.63-.89-1.19-.31-.62-.42-.45-.59-.34-.57-.39-.66-.08-.67-.14-.58.08-.51.31-.41.53-.46.66-.52.48-.32.57-.26.67-.27.77-.49.6-.64,1.38-.51.63-.68.6-.96-.03-.92-.13-.54-.75-.47-.5-.56-.58-.42-.67-.3-.67-.39-.69-.06-.83-.11-.68-.33-.56-.54-.41-.7-.3-.57-.32-.72.13-.77-.11-.66.15-.73.31-.74.22-.87.23-.86-.22-.79-.13-.8-.49-.46-.68-.58-.61v.86s.11.82.11.82l-.23.79v.67s.13.79.13.79v.77s.07.77.07.77l-.15,2.32.02.7.14.79.03.77-.02.86-.16.72v.72l.14,1.48v.83s-.11.76-.11.76l.03.7.12.81-.15.77.15,1.49-.04.89-.2.66.14.71.08.84-.22.72.24.75-.2.84-.06.66.25.74v.92s-.17.71-.17.71v.72s.07.77.07.77l-.1.8-.04.69.14.78-.12.76.14.78-.17.76.13.69.11.72.33.64.31.72.33.65.37.65.36.55.69.42.49.53.58.35.69.24.68.19.8.06.69.33.71-.07.76.11.81-.05.77.3.66.07.79-.09.77.2,1.47-.05.79.03.78.08.73.03h.79s.76.17.76.17h.72s.75,0,.75,0l.76-.06.78.04.77.1,1.48-.04.78-.08h.76s.77-.04.77-.04l.79.09.75.06.7.03.79-.14.81.15Z"/>
  <path class="cls-3" d="M275.28,292.55v.77s-.02.77-.02.77l-.21.73-.2.73-.3.7-.27.72-.56.55-.38.66-.39.67-.59.49-.53.56-.74.27-.55.56-.73.24-.7.31-.71.31h-.78s-.75.12-.75.12l-.76.04-.75-.15-.78.13-.7-.36-.72-.2-.7-.26-.72-.26-.67-.36-.52-.57-.74-.3-.55-.55-.35-.7-.59-.52-.24-.75-.29-.7-.43-.65-.03-.79-.31-.71-.02-.76-.08-.76.05-.76v-.77s.11-.76.11-.76l.27-.72.28-.72.36-.67.54-.57.38-.66.36-.69.64-.45.58-.48.65-.39.6-.47.64-.44.75-.19.75-.12.72-.25.75-.2.77.04.76.11.78-.07.69.4.72.21.7.28.78.13.68.38.6.48.49.61.63.45.47.61.4.66.31.69.38.66.28.71.31.7.2.74.12.76-.11.77Z"/>
  <path class="cls-3" d="M266.3,288.87l.6-.38.58-.44.67-.3.68-.28.56-.48.72-.22.56-.49.58-.45.72-.21.59-.43.66-.33.65-.33.55-.52.76-.43-.57.67-.16.76-.4.62-.46.58-.39.62-.24.7-.34.66-.52.55-.3.68-.28.69-.42.6-.44.6-.4.62-.37.7.41.71.42.64.41.66.43.64.32.7.39.67.35.68.44.64.2.77.44.63.49.61.32.71.43.76-.68-.56-.76-.22-.6-.48-.67-.36-.7-.31-.58-.52-.66-.38-.67-.38-.59-.49-.77-.2-.55-.58-.67-.38-.72-.4-.64.48-.63.4-.71.26-.51.6-.64.39-.73.22-.55.54-.73.22-.67.34-.55.53-.73.21-.56.52-.68.32-.6.43.4-.66.3-.73.36-.7.43-.66.38-.68.41-.67.53-.6.32-.72.24-.77.5-.61.4-.68.44-.65.31-.73-.46-.59-.28-.69-.28-.69-.44-.59-.45-.58-.3-.67-.29-.69-.51-.56-.15-.76-.72-1.29-.55-.53-.39-.63-.31-.78.68.48.7.26.62.39.61.42.59.44.66.32.64.36.68.28.66.33.65.34.6.44.63.38.67.3.58.41Z"/>
  <path class="cls-7" d="M276.39,303.15l-2.29-1.91-.76-.22-.64-.51-.64-.34-.78-.36-.55-.49-1.34-.78-.53-.44-.79-.21-.58-.61-1.1-.63-.44.32-.73.46-.61.22-.48.57-.78.46-.64.2-.55.53-.79.25-.58.3-.58.56-.74.22-.59.52-.65.31-2.17,1.54,1.41-2.3.28-.7.38-.73.45-.69.36-.66.46-.74.49-.55.28-.65.26-.82.54-.66.39-.65.43-.64.2-.48-.38-.5-.53-1.33-.91-1.21-.57-1.3-.53-.59-.16-.81-.66-1.18-.58-.57-.42-.69-.82-2.04,1.74,1.23.72.28.62.39.61.43.58.42.63.31.64.36.66.28,1.39.72.59.44.57.34.72.32.38.26.39-.23.63-.47.67-.3.64-.26.58-.49.71-.22.49-.44.67-.51.72-.22.6-.42,1.25-.64.58-.55,2.69-1.51-1.94,2.29-.16.73-.44.68-.48.61-.35.54-.26.71-.4.75-.47.5-.27.61-.32.76-.42.6-.45.6-.38.6-.24.48.3.52,1.29,1.97.32.7.37.64.35.68.46.67.2.77.4.57.54.68.32.71,1.48,2.63ZM260.03,297.77l-.39.64-.38.67-.44.68-.4.83.07-.04.58-.54.73-.22.57-.52.73-.38.64-.2.55-.53.78-.24.54-.33.54-.64.78-.27.58-.38.83-.61,1.7.98.47.49.74.2.64.53,1.36.79.53.48.64.28.76.42.54.44.24.07-.08-.19-.46-.57-.51-.71-.2-.77-.42-.63-.35-.69-.38-.65-.32-.7-.42-.61-.83-1.31-.53-.93.47-.9.42-.65.85-1.18.26-.65.33-.75.53-.56.3-.58.28-.77.4-.62.48-.61.32-.49-1.27.65-.63.45-.72.21-.53.4-.6.53-.72.22-.61.49-.68.28-.61.28-.55.42-.85.53-.78-.53-.68-.3-.64-.38-.6-.45-1.27-.66-.7-.29-.64-.36-.7-.35-.59-.44-.6-.41-.57-.36-.29-.1.1.16.59.59.76,1.41.13.65.47.53.59,1.36.92,1.24.53,1.32.57.73-.44,1.02-.44.66-.42.71-.45.55-.23.74-.39.82-.52.58Z"/>
  <path class="cls-3" d="M263.76,289.95l.11-.78.12-.72.35-.66v-.76s.18-.71.18-.71l.35-.66.06-.74.2-.71.05-.74.23-.7.21-.7.3-.68v-.76s.29-.62.29-.62l.2.64.22.7.24.69-.02.77.22.7.38.66.08.74.24.7.29.68.11.73.04.75.4.65.07.74.22.72.73.29.78.08.74.2.76.13.71.29.71.31.77.09.69.38.78.08.77.13.69.39.77.15.68.2-.7.07-.7.35-.72.27-.8-.07-.68.42-.75.14-.77.08-.75.15-.71.32-.72.22-.79.02-.72.27-.68.26-.23.67-.27.7-.22.71-.17.73-.16.72-.13.73-.15.73-.11.74-.24.71-.17.73-.21.71-.11.74-.37.68-.06.71-.31-.69-.14-.78-.29-.74v-.81l-.4-.7-.1-.78-.24-.74-.3-.73-.06-.8-.22-.75-.22-.76-.09-.79-.41-.66-.61-.38-.71-.19-.71-.19-.73-.1-.71-.17-.66-.35-.78.05-.71-.2-.66-.37-.76-.03-.66-.38-.7-.24-.76-.04-.56-.26.56-.21.72-.11.7-.23.71-.17.68-.29.7-.22.72-.15.71-.2.71-.17.76-.03.69-.27.66-.34.74-.06.78-.14Z"/>
  <path class="cls-7" d="M266.67,306.7l-.96-2.2-.13-.73-.3-.77v-.78l-.39-.68-.11-.83-.23-.71-.32-.82-.06-.76-.45-1.53-.08-.71-.31-.51-.48-.3-1.35-.35-.71-.1-.84-.22-.57-.3-.73.05-.85-.26-.58-.32-.76-.03-.71-.4-.61-.21-.78-.04-1.51-.69,1.54-.57.7-.11.66-.22.71-.17.69-.29.74-.23.72-.15.68-.19.81-.18.68-.03.6-.23.72-.38.83-.07.45-.08.2-1.3.33-.64.02-.75.21-.8.32-.59.07-.73.19-.66.06-.8.45-1.44.27-.61.02-.76.74-1.65.73,2.34.27.75-.02.78.19.59.41.69.08.78.22.66.31.76.11.73.04.69.4.64.08.8.15.49.5.2.79.08.74.2.81.15.71.29.67.3.79.09.69.38.7.07.86.14.7.39.69.14,2.69.77-2.67.29-.68.34-.8.3-.76-.07-.64.39-.82.15-.8.08-.67.14-.72.32-.84.23h-.72s-1.16.45-1.16.45l-.17.49-.28.71-.21.69-.32,1.42-.4,2.25-.23.69-.17.71-.2.71-.11.79-.37.67-.18,2.18ZM266.07,302.85l.28.74.03.15.07-.14.11-.72.21-.72.17-.74.22-.68.11-.7.44-2.22.17-.73.22-.74.28-.73.28-.83,1.65-.63.8-.02.66-.2.77-.33.76-.15.8-.08.65-.12.73-.45.85.07.64-.24h-.05s-.68-.4-.68-.4l-.7-.11-.83-.08-.7-.38-.81-.12-.71-.31-.66-.27-.72-.13-.75-.2-.85-.1-.91-.36-.3-.98-.06-.65-.41-.67-.05-.85-.09-.65-.27-.64-.27-.81-.07-.66-.38-.66-.24-.77.02-.76-.19-.56-.29.65-.42,1.34-.06.78-.19.67-.07.78-.36.69-.15.61v.81s-.38.7-.38.7l-.26,1.72-1.06.19-.7.06-.64.33-.75.29-.78.03-.68.16-.69.19-.73.15-.66.21-.72.3-.71.17-.45.15.57.21.58.32.76.03.7.39.59.17.82-.05.72.38.67.16.74.11,1.53.42.69.43.49.82.1.84.45,1.55.06.74.28.67.27.84.09.71.42.73.02.85Z"/>
  <path class="cls-3" d="M240.12,285.42h.78s.71.29.71.29l.67.36.69.33.49.6.61.44.6.48.3.72.47.6.2.73.14.73.22.71.08.74.13.76-.16.74-.14.74-.36.67-.12.78-.53.57-.52.55-.43.61-.53.54-.68.34-.56.54-.69.33h-.79s-.72.21-.72.21l-.74.1-.76.07-.68-.25-.73.02-.61-.28.71-.15.73-.25.61-.49.64-.42.49-.59.65-.43.46-.61.24-.74.47-.61.19-.75.07-.77.21-.74v-.76s-.01-.78-.01-.78l-.28-.72-.2-.73-.38-.66-.29-.71-.53-.55-.43-.64-.57-.51-.55-.56-.68-.39-.84-.18.78-.07.69-.21.72.02.72.21Z"/>
  <path class="cls-3" d="M326.39,286.96l.71.16.72-.16h.71l.7.26.71-.03h.71s-.59.4-.59.4l-.71.19-.55.49-.69.23-.64.31-.65.3-.56.45-.05.7.08.71-.22.7-.03.7.15.72-.21.69.03.71-.42-.61-.21-.7-.33-.65-.26-.68-.44-.59-.29-.66-.35-.57-.76-.11-.81.08-.8-.14-.8-.02-.8-.16-.67.09.55-.42.78-.26.64-.53.71-.37.7-.41.71-.32.22-.68-.23-.73.12-.71.15-.71.06-.71-.07-.72.07-.62.42.49.1.74.52.54.19.7.33.63.44.57.28.59.65.09Z"/>
  <path class="cls-3" d="M293.41,285.21l.71-.07.69.29.78.04-.79.26-.62.45-.65.41-.51.57-.62.46-.39.67-.35.67-.46.64-.02.8-.13.74-.13.74-.07.76-.02.78.17.76.38.69.33.68.28.73.64.47.34.73.72.33.56.53.71.27.69.31.67.28-.66.08-.64.41-.73-.11-.74-.04-.74-.04-.72-.16-.77-.08-.63-.43-.77-.18-.62-.45-.48-.6-.51-.55-.36-.66-.47-.59-.21-.72-.31-.69-.13-.74-.22-.73.06-.76.06-.75.26-.71.13-.74.24-.72.52-.57.29-.72.5-.57.67-.38.53-.54.66-.36.63-.44.74-.2.75-.13.76-.1Z"/>
  <path class="cls-3" d="M340.06,291.6l-.69.26-.71-.22-.63.08.52-.48.7-.33.54-.55.42-.64.43-.6.38-.65.37-.66.4-.68v-.79s.13-.75.13-.75l-.17-.76-.05-.75-.15-.74-.3-.69-.11-.79-.54-.57-.38-.67-.58-.5-.55-.54-.68-.35-.6-.49-.74-.21-.73-.19-.63-.21.49-.35.68-.25.71-.11h.76s.74.09.74.09l.74.07h.76s.72.22.72.22l.64.42.77.18.47.64.71.33.44.63.53.54.37.67.22.73.16.73.43.68-.1.78-.07,1.49-.16.73-.07.77-.43.64-.18.77-.44.63-.6.49-.55.52-.66.36-.59.47-.72.22-.68.32-.73.1Z"/>
  <path class="cls-3" d="M311.33,290.7l-.14.76-.24.72-.44.61-.49.61-.78.13-.7.38-.78-.09-.67-.4-.72-.29-.32-.73-.37-.63-.34-.71.2-.76.2-.73.34-.71.59-.52.71-.35.78-.07.73.22.76.09.59.48.63.47.3.72.16.77Z"/>
  <path class="cls-3" d="M209.93,287.03l.17-.76.49-.55.17-.71.43-.58.19-.7.43-.58.34-.77-.04.84v.71s.02.71.02.71l.24.7-.05.72.03.71v.74l.69.45.8.21.67.46.71.38.7.4.84.4-.93-.1-.79.27-.8-.02-.81-.13-.8.19-.88-.19-.32.72-.14.73-.46.58-.28.67-.22.7-.32.65-.47.71-.07-.83.14-.72-.2-.7.03-.71-.19-.7v-.71s0-.67,0-.67l-.63-.26-.52-.54-.71-.19-.58-.43-.67-.27-.61-.38-.71-.35.79.05.7-.11.71-.06.72.14.7-.26.72-.06.74.19Z"/>
  <path class="cls-3" d="M194.77,291.43l-.77-.08-.58-.53-.67-.33-.58-.46-.51-.54-.61-.46-.38-.66-.51-.58-.14-.77-.15-.73-.14-.73-.07-.74-.11-.74.05-.76.31-.69.06-.78.27-.72.59-.53.32-.7.63-.44.59-.46.47-.63.77-.17.63-.42.72-.2.73-.15.75.02.76-.18.74.16.68.2.67.22.56.25-.64.27-.73.19-.71.26-.76.21-.56.55-.67.4-.42.66-.56.54-.26.74-.49.62-.06.79-.38.7-.02.78.11.76-.05.78.26.72.1.78.4.66.39.66.34.71.53.57.66.42.65.4.67.45-.77.03-.69-.12-.73.16-.7-.35Z"/>
  <path class="cls-3" d="M224.59,290l.26-.69.41-.65.69-.32.68-.35.76.08.76.05.68.32.47.59.42.59.36.67.11.77-.17.76-.41.65-.56.49-.49.62-.74.26-.79-.03-.72-.22-.76-.2-.56-.55-.41-.66-.3-.72v-.78s.31-.69.31-.69Z"/>
  <path class="cls-9" d="M289.84,184.13l.22-.59.34-.56.6-.28.58-.3.65.07.64.04.59.28.4.51.35.51.31.57.09.65-.15.65-.35.55-.48.42-.42.53-.64.22-.67-.03-.62-.18-.65-.17-.48-.47-.34-.56-.25-.61v-.66s.27-.6.27-.6Z"/>
  <path class="cls-7" d="M292.63,187.76l-.81-.04-.63-.18-.72-.19-.6-.6-.36-.61-.28-.68v-.8s.29-.66.29-.66l.24-.64.4-.64.69-.32.66-.34.75.09.69.05.71.34.45.57.36.53.36.65.11.78-.2.82-.41.63-.46.4-.46.58-.79.27ZM291.98,187.05l.56.02.48-.17.4-.49.44-.39.29-.46.12-.53-.08-.53-.28-.52-.34-.47-.34-.43-.45-.21-.58-.04-.56-.06-.48.25-.52.24-.28.44-.2.56-.24.55v.52s.21.53.21.53l.31.51.39.37,1.16.32Z"/>
  <path class="cls-9" d="M253.06,229.06l.14-.76.24-.76.6-.52.61-.5.79.03.78.16.63.52.32.74.3.73.29.76.09.82-.12.79-.3.74-.44.64-.32.76-.7.43-.82.03-.74-.32-.72-.41-.43-.72-.27-.78-.2-.8.04-.83.26-.76Z"/>
  <path class="cls-7" d="M255.06,234.08l-.86-.38-.82-.46-.53-.89-.27-.78-.23-.89.06-1,.24-.73.15-.79.28-.87,1.43-1.2,1.01.05.88.17.78.65.67,1.57.31.88.1.87-.15.94-.34.81-.42.6-.36.83-.91.57-1.02.04ZM254.58,232.98l.64.28.62-.02.5-.31.31-.71.41-.6.27-.65.1-.69-.08-.71-.27-.71-.58-1.36-.47-.39-.65-.13-.6-.02-1,.84-.2.63-.15.79-.23.7-.03.7.19.74.24.71.35.58.6.34Z"/>
  <path class="cls-9" d="M309.4,193.05l-.32.72.17.79-.17.74-.16.76-.05.76.11.77-.07.77.29.74-.15.79.35.72.02.77.2.73.34.69.23.72.15.76.2.74.23.73.3.7.48.64.09.78.22.72.21.72-.07.76.12.74-.05.74.04.74-.19.73.07.76-.36.69-.1.73-.19.72-.23.7-.06.76-.29.69v.77s-.13.75-.13.75l.15.77.34.69.41.65.53.56.47.59.31.71.57.54.43.64.13.78.45.63.12.76.18.73.43.67-.06.79.26.72.06.75.05.76-.1.74.11.78-.21.73-.28.71-.34.67-.51.55-.42.66-.67.38-.73.24-.77-.02-.73.2-.74-.16-.76-.02-.61-.44-.65-.41-.19-.74-.4-.67.14-.78-.08-.74-.08-.77.2-.74v-.77l.26-.72.04-.76.11-.75.26-.72.09-.75-.06-.77-.05-.75-.02-.8v-.8s-.1-.82-.1-.82l-.66-.54-.42-.7-.27-.77-.22-.77-.38-.68-.1-.76v-.76s.03-.77.03-.77l.25-.72.4-.65.38-.65.13-.79.42-.63.17-.72.26-.76.09-.79.13-.79.14-.8-.02-.8-.11-.8.09-.81-.14-.79-.31-.75-.09-.77-.23-.73-.38-.69-.17-.76-.06-.78-.33-.71.02-.79-.24-.73.06-.78v-.76s-.11-.79-.11-.79l.33-.69.22-.7.18-.73.21-.71.3-.68.43-.6.46-.59.41-.61.26-.75.38.57-.26.73Z"/>
  <path class="cls-7" d="M310.81,237.36l-.8-.17-.84-.02-.7-.51-.77-.47-.21-.85-.44-.74.15-.86-.17-1.54.21-.76v-.78s.26-.74.26-.74l.04-.74.14-.81.24-.69.08-.67-.1-1.47-.02-.82v-.79s-.08-.64-.08-.64l-.59-.48-.49-.83-.26-.77-.22-.75-.39-.71-.12-.89v-.76s.05-.9.05-.9l.29-.81.41-.65.33-.57.13-.8.42-.64.15-.66.26-.76.08-.75.25-1.57-.02-.74-.11-.82.09-.81-.12-.69-.33-.82-.09-.73-.21-.66-.41-.77-.17-.8-.05-.7-.34-.73.02-.81-.26-.76.07-.85v-.7s-.13-.88-.13-.88l.38-.77.21-.68.17-.7.24-.78.34-.75.44-.61.46-.6.36-.55.51-1.45.93,1.4-.29.96-.27.6.15.76-.33,1.55-.05.7.11.77-.07.72.3.76-.15.77.33.68.02.81.17.66.34.71.24.77.15.76.19.71.22.69.28.64.52.68.1.85.44,1.49-.07.78.12.73-.06.77.04.78-.18.72.07.81-.38.73-.1.72-.19.71-.22.68-.06.77-.28.67v.72s-.13.71-.13.71l.13.64.31.63.38.59.51.53.55.71.27.63.57.55.48.71.13.78.46.63.13.85.16.63.46.73-.07.84.26.74.1,1.55-.1.73.12.8-.24.82-.29.73-.42.8-.49.53-.46.71-.83.45-.79.26-.78-.02-.78.2ZM309.43,236.38l.7.03.65.14.7-.18.76.02.63-.2.56-.31.41-.63.47-.51.32-.62.26-.67.18-.61-.11-.74.1-.77-.1-1.41-.27-.75.06-.74-.4-.6-.2-.79-.11-.71-.45-.63-.14-.79-.35-.52-.6-.56-.32-.73-.44-.55-.56-.59-.44-.68-.38-.8-.17-.84.15-.79v-.81s.29-.7.29-.7l.07-.79.24-.7.17-.67.1-.78.34-.66-.06-.71.19-.74-.04-.71.05-.72-.12-.74.07-.73-.43-1.44-.08-.67-.46-.63-.32-.74-.23-.72-.2-.76-.15-.76-.22-.67-.35-.74-.21-.83-.02-.69-.36-.76.15-.81-.28-.73.08-.81-.11-.76.06-.86.3-1.43-.17-.84.09-.21-.32.42-.41.57-.27.62-.21.69-.17.7-.26.78-.28.58.09.71v.76s-.05.73-.05.73l.24.72-.02.76.32.69.07.82.15.67.38.71.25.81.08.71.32.78.15.85-.09.82.1.79.02.84-.27,1.61-.1.86-.26.76-.17.76-.41.61-.12.78-.41.71-.39.62-.22.63-.03.71v.72s.09.66.09.66l.37.7.22.77.24.71.37.6.72.59.14,1.01v.83s.01.79.01.79l.11,1.54-.11.88-.24.69-.1.69-.06.85-.23.66v.74s-.19.72-.19.72l.16,1.48-.11.69.36.65.15.59.52.32.54.39Z"/>
  <path class="cls-9" d="M281.39,181.73l.15.97.23.96.11.97.19.96.06.98.3.94-.04,1,.32.94.11.98-.02.99.34.94v.99s.16.97.16.97l.41.93v.99s.18.97.18.97l.22.96.12.98.07.99-.26.97-.09,1.01-.86.54-.98.1-.87-.46-.35-.93-.36-.92-.22-.97v-.99s-.28-.97-.28-.97l.17-1.01-.09-.99.08-.99-.11-1-.04-.99.25-.98-.02-.99.1-.99.07-.99.15-.98.03-.99.06-.99.06-.99.1-.99.11-.98.18-.97.23-.96.03.99Z"/>
  <path class="cls-7" d="M282.03,203.2l-1.11-.59-.4-1.07-.38-.97-.22-1.05v-.95s-.29-1.01-.29-1.01l.19-1.04-.09-.97.08-.99-.1-.96-.05-1.08.25-.99v-.96s.09-1.01.09-1.01l.06-.97.15-.99.03-.97.13-1.99.21-2,.18-1,.94-3.84.11,3.91.15.95.23.98.11.97.19.98.06.93.31.97-.04,1,.31.95.11,1-.02.95.33.94v1.03s.14.88.14.88l.43.96v1.05s.17.93.17.93l.23.98.11.98.08,1.07-.27,1-.1,1.18-1.11.69-1.18.12ZM281.55,202.05l.64.33.76-.08.61-.39.08-.88.24-.91-.07-.92-.11-.94-.22-.94-.19-1.06v-.91l-.41-.94-.17-1.01.02-.96-.34-.94.02-1.04-.1-.91-.33-.97.05-1.01-.3-.97-.06-.96-.18-.94-.11-.98-.1-.41-.14,1.36-.13,1.97-.03,1.03-.15.98-.07.96-.09.98v1.03s-.23.97-.23.97l.04.94.11,1.01-.08.99.1,1.01-.17.97.26.99v.95s.21.9.21.9l.35.89.3.79Z"/>
  <path class="cls-9" d="M273.1,247.06l.88-.65,1.03-.35,1.07-.1,1.07-.19.93.54.72.77.42.89.56.82.42.89.49.85.36.91.4.91.67.72.58.82.94.35.95.02.99-.06.93-.45.98-.32.99-.28.97-.39,1.05-.14.97.43,1.05.15.89.54.8.66.79.66.82.65.73.62.98.35,1.04.03h1.04s1.02.16,1.02.16l1.02.19.94.14.94.13.94.15.93.17.92.24.92.29.82.49.78.56.59.75.34.91-.47.81-.81.44-.92.39-.98.13-.96.25-1.01-.07-.95.32h-.99l-.98.13-.98.17-.99-.09-.98.06-.99.04-.98-.1-.99.22-.98-.23-.99-.02-.98-.04-.99.03-.99-.06-.96-.25-1.02.14-.98-.14-.95-.33h-1l-.94-.36-.95-.26-1-.08-.9-.45-.99-.13-.92-.39-.94-.29-.91-.39-.95-.3-.91-.4-.86-.5-.71-.66-.64-.72-.46-.85-.6-.74-.62-.76-.26-.94-.26-.92-.11-.95-.15-.95-.06-.97.26-.94.36-.9.28-.92.45-.85Z"/>
  <path class="cls-7" d="M295.74,263.96l-1.03-.24-.94-.02-.99-.04-.96.03-1.1-.07-.89-.23-.98.14-1.11-.16-.89-.31h-1.01l-.99-.39-.9-.24-1.04-.07-.91-.45-1.03-.15-.92-.39-.91-.28-.94-.4-.96-.3-.94-.42-.94-.55-.71-.66-.72-.82-.45-.82-1.24-1.55-.55-2.01-.11-.95-.16-.97-.06-1.04.29-1.04.36-.9.3-.96.5-.93,1.05-.75,1.12-.38,1.07-.09,1.17-.21,1.15.69.77.81.43.92.57.84.42.89.5.88.37.92.36.83.66.72.51.72.76.29.89.02.88-.05.91-.43.98-.32.99-.28,1.05-.41,1.15-.15,1.03.46,1.07.15,1.01.62,1.59,1.32.81.64.69.58.85.3.97.03h1.06s3.01.49,3.01.49l.93.13,1.89.32.95.25,1.03.33.82.49.88.65.65.86.41,1.08-.62,1.07-.95.51-1.02.41-.96.13-1,.26-.99-.07-.94.32h-1.03l-.95.13-1.01.17-1.02-.09-1.97.1-.95-.1-1.02.22ZM292.78,262.87l1.01.04,1.06.03.9.21.96-.22,1.02.11,1.96-.1.97.09.93-.16,1.05-.13h.93l.96-.33,1.03.07.94-.24.93-.13.85-.35.7-.38.31-.54-.25-.67-.52-.66-.73-.52-.74-.45-.87-.27-.9-.23-1.83-.31-1.88-.27-1.03-.19-.98-.16h-1.01s-1.17-.04-1.17-.04l-1.05-.38-.79-.67-.81-.64-1.57-1.31-.8-.48-1.07-.17-.88-.39-.88.11-.96.39-.99.28-.94.31-.98.47-1.07.06-1.05-.02-1.12-.42-.64-.9-.7-.76-.43-.97-.36-.9-.47-.83-.42-.89-.57-.84-.39-.83-.64-.68-.76-.44-.92.17-1.05.09-.92.32-.76.55-.4.73-.26.88-.36.91-.23.85.05.89.15.93.1.94.49,1.76,1.2,1.5.44.81.61.69.65.6.81.46.86.38.93.29.95.4.91.28.9.38,1,.14.89.45.99.08.99.27.87.34h.99l.97.34.89.12,1.04-.14,1.01.26.95.05.96-.03Z"/>
  <g class="cls-5">
    <path class="cls-2" d="M175.67,190.49h.45"/>
  </g>
</svg>