<?xml version="1.0" encoding="UTF-8"?>
<svg id="Layer_2" xmlns="http://www.w3.org/2000/svg" xmlns:xlink="http://www.w3.org/1999/xlink" viewBox="0 0 538.59 494.63">
  <defs>
    <style>
      .cls-1 {
        fill: none;
      }

      .cls-2 {
        fill: #f4cf88;
      }

      .cls-3 {
        clip-path: url(#clippath-1);
      }

      .cls-4 {
        clip-path: url(#clippath-3);
      }

      .cls-5 {
        clip-path: url(#clippath-4);
      }

      .cls-6 {
        clip-path: url(#clippath-2);
      }

      .cls-7 {
        fill: #101111;
      }

      .cls-8 {
        fill: #e44325;
      }

      .cls-9 {
        clip-path: url(#clippath);
      }

      .cls-10 {
        fill: #d46ba9;
      }
    </style>
    <clipPath id="clippath">
      <rect class="cls-1" x="253.86" y="158.81" width="56" height="80.09"/>
    </clipPath>
    <clipPath id="clippath-1">
      <rect class="cls-1" x="228.43" y="206.9" width="46.76" height="76"/>
    </clipPath>
    <clipPath id="clippath-2">
      <rect class="cls-1" x="253.86" y="254.9" width="56.58" height="80.91"/>
    </clipPath>
    <clipPath id="clippath-3">
      <rect class="cls-1" x="268.52" y="329.57" width="6.67" height="6.24"/>
    </clipPath>
    <clipPath id="clippath-4">
      <rect class="cls-1" x="268.52" y="328.24" width="8" height="7.58"/>
    </clipPath>
  </defs>
  <path class="cls-2" d="M295.02,238.24l-.88-.1-.83-.34-.87-.15-.88-.1-.84-.26-.89-.05-.85-.27-.89-.08-.85-.27-.88-.12-.85-.23-.86-.22-.87-.16-.88-.12-.85-.25-.86-.17-.89-.08-.86-.19-.85-.25-.9-.03-.84-.28-.88-.11-.86-.18-.86-.19-.89-.06-.85-.21-.85-.26-.88-.1-.86-.19-.88-.13-.85-.26-.88-.13-.84-.28-.89-.09-.86-.19-.88-.1-.86-.17-.83-.34-.86-.18-.88-.13-.85-.24-.86-.19-.9-.02-.83-.33-.89-.11-.93-.1.25-.9.14-.88.23-.85.1-.88.22-.86.07-.89.28-.85.13-.88.2-.86.24-.85.14-.88.17-.87.27-.84.17-.87.12-.88.21-.86.18-.86.14-.87.16-.87.18-.86.15-.87.13-.88.19-.86.16-.87.15-.87.22-.86.24-.85.05-.89.31-.83.24-.85.06-.89.09-.89.2-.86.28-.85.2-.86.05-.89.27-.84.16-.88.28-.84v-.9s.28-.84.28-.84l.17-.87.16-.87.19-.86.23-.85.03-.9.23-.85.27-.85.02-.9.17-.87.3-.84.19-.86.07-.89.27-.85.12-.88.26-.85.04-.9.38-.83v-.9l.23-.86.16-.87.17-.87.15-.88.3-.84.08-.89.23-.85.13-.88.21-.86.16-.87.23-.85.09-.89.23-.86.2-.86.07-.89.28-.85.1-.89.17-.86.17-.87.21-.86.16-.88.33-.84.12-.83.85.02.85.26.84.28.88.09.86.2.89.05.83.35.88.1.88.11.84.29.86.17.9.04.84.29.88.08.87.16.87.18.86.2.85.25.89.09.87.16,1.72.4.87.16.83.34.89.06.84.29.86.17.87.16.9.04.84.28.85.21.89.08.87.14.86.22.85.26.87.16.89.09.88.13.87.17.83.33.88.14.87.16.89.07.84.34.89.04.89.23-.11.91-.21.86-.22.86-.17.87-.1.88-.33.83-.04.9-.24.85-.21.86-.07.89-.35.83-.02.9-.31.84-.13.88-.09.89-.33.83-.1.88-.16.86-.26.85-.04.9-.16.86-.3.84-.08.89-.16.87-.29.84-.17.87-.11.88-.12.88-.3.84-.2.86-.04.9-.35.83-.04.89-.14.88-.19.86-.34.83-.04.9-.23.85-.15.87-.22.86-.18.86-.18.87-.11.88-.14.87-.27.85-.12.88-.18.87-.14.88-.2.86-.25.85-.19.86-.04.9-.37.83-.08.89-.07.89-.37.83-.04.9-.2.86-.26.85-.14.88-.24.85-.16.88-.07.89-.29.85-.07.89-.13.88-.16.87-.18.87-.19.86-.34.83-.02.9-.29.84-.17.87-.19.86-.03.9-.19.87-.2.86-.32.84-.11.88-.07.89-.35.83-.09.88Z"/>
  <g class="cls-9">
    <path class="cls-7" d="M295.02,238.54h-.03l-.88-.1s-.06-.01-.08-.02l-.8-.33-.83-.15-.86-.1s-.04,0-.05-.01l-.81-.24-.85-.05s-.05,0-.08-.02l-.81-.26-.85-.07s-.05,0-.07-.01l-.82-.26-.85-.11s-.03,0-.04-.01l-1.71-.45-.85-.16-.86-.12s-.03,0-.05,0l-.85-.25-.84-.17-.85-.08s-.03,0-.04-.01l-.86-.19-.83-.24-.85-.03s-.06,0-.09-.02l-.81-.28-.85-.11-1.73-.36-.86-.06s-.04,0-.06-.01l-.85-.22-.83-.26-.85-.1-.89-.19-.86-.13s-.03,0-.04-.01l-.83-.24-.85-.13s-.03,0-.05-.01l-.81-.27-.85-.09s-.02,0-.04,0l-.84-.19-.86-.1-.89-.17s-.04-.01-.06-.02l-.81-.33-.84-.18-.86-.12s-.03,0-.04-.01l-.85-.23-.82-.18-.87-.02s-.07-.01-.1-.02l-.8-.31-.84-.11-.93-.09c-.09-.01-.17-.06-.22-.13s-.07-.17-.04-.26l.25-.89.13-.85s0-.02,0-.04l.23-.83.1-.86s0-.03.01-.04l.22-.83.06-.86s0-.05.02-.07l.27-.82.12-.85.2-.89.24-.85.14-.85.17-.88s.01-.02.01-.04l.27-.83.17-.85.12-.86.21-.89.19-.85.13-.85.16-.88.18-.87.15-.86.13-.86.19-.89.3-1.73.22-.89.23-.83.05-.86s.01-.06.02-.09l.31-.84.22-.8.07-.86.09-.89s0-.03,0-.04l.2-.86.29-.88.18-.81.05-.87s0-.05.02-.07l.27-.83.16-.85s0-.03,0-.04l.26-.8v-.85s0-.07.01-.1l.28-.82.17-.85.16-.86.19-.88.22-.84.03-.86s0-.05.01-.07l.23-.86.26-.82.02-.86s0-.03,0-.05l.17-.86s0-.03.02-.04l.29-.83.18-.82.07-.87s0-.05.01-.07l.26-.82.11-.85s.01-.03.01-.05l.25-.81.03-.85s.02-.08.03-.12l.35-.77v-.84s0-.05,0-.08l.23-.86.33-1.72.15-.86s0-.04.01-.05l.29-.81.07-.84s.01-.04.01-.06l.23-.84.13-.86.22-.89.15-.85.23-.86.09-.86s0-.04,0-.05l.23-.85.19-.83.06-.87s0-.05.02-.07l.27-.82.09-.85.35-1.76.22-.88.15-.85s0-.04.02-.06l.31-.8.11-.81c.02-.16.15-.27.31-.27l.85.02s.06,0,.08.01l.84.26.82.27.85.08s.03,0,.04,0l.83.19.86.05s.07.01.1.03l.79.33,1.71.21s.04,0,.06.02l.82.28.82.16.88.04s.06,0,.09.02l.81.28.85.07,1.77.34.88.21.84.24.85.08.89.16,1.73.4.86.16s.04.01.06.02l.79.32.84.06s.05,0,.08.02l.82.28,1.69.32.87.04s.06,0,.09.02l.84.28.81.2.86.08.9.14.89.22.84.26.85.15.86.08.89.13.89.18s.04.01.05.02l.81.31.84.14.86.16.88.07s.06.01.09.03l.78.31.85.05s.04,0,.06,0l.89.23c.15.04.25.18.23.34l-.11.9s0,.03-.01.04l-.43,1.72-.17.85-.1.85s0,.06-.02.08l-.31.79-.04.84s0,.05-.01.07l-.24.85-.2.83-.07.86s-.01.06-.03.09l-.32.78-.02.84s0,.07-.02.1l-.3.81-.12.84-.09.88s-.01.06-.03.08l-.32.79-.09.84-.16.89s0,.03-.01.04l-.24.81-.04.85s0,.03,0,.04l-.15.89s0,.04-.01.05l-.29.8-.07.85-.17.9s0,.03-.01.05l-.29.82-.17.84-.22,1.74s-.01.04-.02.06l-.3.82-.19.81-.03.86s-.01.07-.03.11l-.33.78-.04.84v.04l-.14.87-.19.89s-.01.03-.02.05l-.32.79-.04.84s0,.05-.01.07l-.23.84-.15.85-.22.88-.35,1.71-.1.86-.15.89s-.01.03-.01.05l-.27.82-.11.85-.18.89-.14.86-.21.88-.25.87-.18.82-.04.87s-.01.07-.03.11l-.35.78-.15,1.72s-.01.07-.03.1l-.35.78-.03.83s0,.04,0,.06l-.2.86-.26.85-.13.85s0,.02-.01.04l-.24.84-.15.84-.06.88s-.01.05-.02.07l-.28.81-.06.85-.13.9-.17.88-.18.88-.2.87s-.01.03-.02.05l-.32.78-.02.84s0,.07-.02.09l-.29.83-.16.85-.19.84-.03.88s0,.04,0,.05l-.19.86-.21.87s0,.03-.01.04l-.3.81-.1.84-.07.88s-.01.06-.03.09l-.33.79-.08.83c-.01.08-.05.16-.11.21-.05.04-.12.07-.19.07ZM294.23,237.83l.52.06.06-.58s.01-.06.02-.09l.33-.79.07-.84.11-.9s0-.04.02-.07l.31-.82.2-.84.18-.83.03-.87s0-.04,0-.06l.19-.86.17-.86s0-.03.01-.04l.28-.8.02-.85s.01-.07.02-.11l.33-.81.19-.84.18-.86.16-.86.13-.86.06-.86.02-.08.28-.81.06-.85s0-.02,0-.03l.16-.87s0-.02,0-.03l.24-.83.13-.85s0-.03.01-.05l.26-.85.19-.81.04-.86s.01-.08.03-.11l.35-.78.15-1.72s.02-.06.03-.09l.34-.78.04-.84s0-.04,0-.06l.19-.86.25-.87.2-.85.14-.85.18-.88.12-.86s0-.03.01-.05l.26-.83.15-.85.1-.87.35-1.76.22-.87.15-.85s0-.03,0-.03l.23-.82.04-.85s.01-.07.02-.1l.33-.81.18-.84.14-.84.04-.88s0-.07.02-.11l.33-.78.04-.84s0-.04,0-.06l.2-.86s.01-.03.01-.04l.29-.81.22-1.72.18-.89s0-.03.01-.04l.29-.82.16-.84.07-.85s.01-.05.02-.08l.3-.81.15-.82.03-.87s0-.05.02-.08l.25-.83.15-.85.09-.86s.01-.05.03-.08l.32-.79.09-.84.13-.89s0-.04.02-.06l.29-.79.02-.85s.01-.08.03-.11l.33-.79.07-.84s0-.03,0-.05l.21-.86.24-.83.04-.86s.01-.07.03-.1l.31-.8.09-.84.18-.9.42-1.71.08-.62-.59-.15-.86-.05s-.07,0-.1-.02l-.81-.31-.84-.07s-.02,0-.04,0l-.87-.16-.86-.14-.06-.02-.81-.31-.84-.17-.86-.13-.87-.08-.89-.16s-.03,0-.04-.01l-.85-.26-.84-.21-.85-.13-.86-.07s-.03,0-.05-.01l-.86-.21-.82-.27-.85-.03s-.03,0-.04,0l-1.74-.33s-.03,0-.04-.01l-.81-.28-.85-.06s-.06-.01-.09-.03l-.8-.32-.84-.16-1.73-.4-.86-.16-.86-.08s-.04,0-.06-.01l-.85-.25-.84-.2-1.72-.33-.85-.07s-.05,0-.07-.02l-.8-.28-.84-.04s-.03,0-.05-.01l-.86-.16s-.03,0-.04-.01l-.81-.28-1.72-.21s-.06-.01-.08-.02l-.78-.33-.84-.05s-.04,0-.05,0l-.84-.2-.86-.09s-.05,0-.07-.02l-.84-.28-.8-.24-.53-.02-.08.56s-.01.05-.02.07l-.31.81-.15.84-.22.88-.34,1.72-.09.85s0,.04-.02.06l-.27.81-.06.85s0,.03,0,.05l-.2.86-.22.84-.09.86s0,.03-.01.05l-.23.85-.15.84-.22.88-.12.84s0,.03,0,.04l-.23.82-.07.86-.02.08-.29.82-.14.84-.33,1.74-.22.84v.86s-.01.08-.03.13l-.35.77-.03.84s0,.05-.01.08l-.25.83-.11.85s0,.04-.02.05l-.25.82-.07.85s0,.03,0,.05l-.19.86s0,.02-.01.03l-.29.82-.17.82-.02.87s0,.06-.01.08l-.27.85-.21.81-.03.86s0,.05-.01.07l-.23.85-.18.85-.16.86-.18.88s0,.03-.01.04l-.27.8v.85s0,.07-.01.1l-.27.83-.16.85s0,.03-.01.04l-.26.81-.05.85s0,.03-.01.05l-.19.86-.29.88-.19.82-.09.86-.06.88s0,.04-.01.06l-.24.85-.3.82-.05.84s0,.05-.01.07l-.24.85-.22.85-.31,1.72-.19.87-.13.85-.15.88-.18.88-.16.86-.14.86-.2.9-.21.86-.12.85-.17.89s0,.02-.01.03l-.27.83-.17.85-.14.86s0,.03,0,.04l-.24.85-.2.85-.11.85s-.01.04-.02.05l-.27.81-.06.85s0,.04-.01.05l-.22.84-.1.85s-.01.03-.01.05l-.23.84-.13.86s0,.03-.01.04l-.16.55.57.06.89.11s.05.01.08.02l.78.31.85.02s.04,0,.06,0l.86.19.85.24.86.12.89.19s.04,0,.05.02l.81.33.84.16.85.1s.02,0,.04,0l.84.19.86.09s.05,0,.07.02l.82.27.85.13s.03,0,.04.01l.83.24.85.13.88.19.85.1s.04,0,.06.01l.84.26.82.21.86.06s.03,0,.05.01l1.72.36.85.11s.04,0,.06.01l.8.27.85.03s.05.01.08.02l.85.25.82.18.86.08.9.18.85.24.85.11.89.17,1.71.45.86.12s.03,0,.05.01l.81.26.85.07s.05,0,.07.01l.81.26.85.05s.05,0,.07.01l.82.25.85.1.89.15s.05.01.07.02l.78.33Z"/>
  </g>
  <path class="cls-7" d="M291.62,233.43l-.88-.31-.9-.08-.87-.2-.87-.21-.89-.12-.86-.28-.9-.05-.89-.11-.84-.36-.89-.14-.89-.1-.88-.15-.86-.28-.91-.04-.87-.21-.86-.25-.88-.2-.88-.17-.88-.17-.89-.1-.88-.19-.89-.14-.86-.28-.9-.08-.85-.3-.91-.04-.86-.28-.89-.13-.88-.21-.89-.15-.86-.24-.9-.07-.88-.18-.84-.35-.91-.07-.83-.23.13-.84.11-.89.2-.86.2-.87.24-.85.05-.9.31-.84.2-.86.14-.88.25-.85.1-.89.05-.9.29-.84.15-.88.29-.85.13-.88.18-.88.15-.88.06-.89.21-.86.34-.84.03-.9.18-.87.2-.86.26-.86.31-1.75.19-.87.21-.86.11-.89.2-.86.26-.85.12-.88.08-.9.15-.88.53-1.71.07-.89.18-.88.25-.85.09-.89.24-.86.05-.9.28-.85.22-.86.21-.86.19-.87.09-.89.09-.89.33-.84.1-.89.18-.88.1-.89.35-.84.16-.88.1-.89.26-.85.05-.9.28-.85.07-.89.27-.85.12-.89.23-.86.22-.86.17-.88.12-.89.25-.85.17-.88.09-.9.19-.87.26-.86.05-.94.9.28.89.12.88.18.88.19.9.06.87.22.86.26.89.1.88.19.89.14.86.26.89.14.85.28.9.09.88.2.89.1.88.17.84.34.88.19.89.13.86.24.88.19.91.02.85.33.89.11.9.07.86.27.89.14.86.23.9.1.86.23.9.07.85.28.89.13.88.2.84.23-.14.84-.18.88-.27.85-.17.87-.12.89-.21.86-.19.87-.14.88-.16.88-.18.86-.14.88-.13.88-.19.86-.16.88-.15.88-.22.86-.24.86-.05.9-.31.84-.24.86-.07.89-.09.89-.2.86-.28.85-.2.87-.06.9-.27.85-.16.88-.28.85v.91s-.28.85-.28.85l-.18.87-.16.88-.19.87-.23.86-.03.91-.23.86-.27.85-.02.91-.17.88-.3.84-.19.87-.07.89-.26.85-.12.89-.26.85-.03.9-.38.83v.91s-.23.86-.23.86l-.17.87-.17.88-.15.88-.3.84-.07.89-.23.86-.13.89-.21.86-.16.88-.23.86-.09.89-.23.86-.2.86-.06.9-.29.85-.1.89-.18.87-.17.88-.22.86-.16.88-.33.85-.03.93Z"/>
  <path class="cls-7" d="M291.62,233.74s-.07,0-.1-.02l-.84-.3-.86-.07s-.03,0-.04,0l-1.73-.4-.88-.12s-.04-.01-.05-.02l-.82-.27-.86-.05-.91-.11s-.06-.01-.08-.02l-.81-.34-.84-.14-.88-.09-.9-.16s-.03,0-.04,0l-.82-.27-.86-.04s-.04,0-.06-.01l-.87-.21-.88-.26-.85-.19-1.75-.34-.87-.1-.91-.19-.87-.14s-.03,0-.05-.01l-.82-.27-.86-.08s-.05,0-.07-.02l-.81-.28-.86-.04s-.05,0-.08-.02l-.83-.27-.86-.13-.9-.22-.86-.15-.86-.24-.87-.07s-.03,0-.04,0l-.88-.18s-.04-.01-.06-.02l-.8-.33-.85-.06s-.04,0-.06-.02l-.83-.23c-.15-.04-.24-.19-.22-.34l.13-.84.11-.88s0-.03,0-.04l.41-1.73.23-.84.05-.86s0-.06.02-.09l.3-.83.2-.84.13-.85s0-.03.01-.04l.24-.83.09-.85.05-.88s.01-.06.02-.08l.29-.83.14-.85s0-.03.01-.05l.28-.83.12-.85.19-.89.15-.86.06-.86s0-.03.01-.05l.21-.86s.01-.03.02-.05l.32-.79.03-.84s0-.04,0-.05l.38-1.74.26-.85.31-1.74.18-.88.21-.85.11-.86s0-.03,0-.03l.2-.86.26-.85.11-.86.08-.88.16-.9s0-.03.01-.04l.52-1.68.07-.86s0-.03,0-.04l.18-.87.24-.85.09-.86s0-.04.01-.05l.23-.83.05-.86s0-.05.02-.08l.28-.85.42-1.71.18-.84.19-1.76s.01-.06.02-.08l.31-.81.1-.85.18-.9.1-.86s0-.05.02-.08l.33-.8.15-.84.1-.87s0-.04.02-.05l.24-.82.06-.86s0-.05.01-.07l.27-.82.07-.86s.01-.05.02-.07l.26-.83.12-.86s0-.03,0-.04l.46-1.72.16-.85.12-.87s0-.03,0-.05l.25-.86.17-.85.08-.86s0-.03,0-.04l.19-.87.24-.85.05-.9c0-.1.06-.18.14-.23.07-.06.17-.07.27-.04l.87.27.86.11,1.75.38.88.06s.04,0,.06,0l.86.22.85.26.86.1.91.19.87.13s.03,0,.04.01l.84.25.86.13s.04,0,.05.02l.82.27.86.09s.03,0,.04,0l.86.19.88.1.9.18s.04,0,.06.02l.82.33.85.18.86.13s.03,0,.04,0l.86.24.83.18.88.02s.07.01.1.02l.81.32.85.11.89.06s.04,0,.07.01l.84.26.86.14s.02,0,.04,0l.84.23.87.1s.03,0,.05.01l.84.22.88.07s.05,0,.07.02l.83.27.86.13.9.21.85.23c.15.04.25.19.22.35l-.15.84-.17.88s0,.02,0,.04l-.27.83-.17.85-.13.86-.21.9-.18.86-.14.86-.16.88-.18.88-.15.86-.13.88-.19.89-.31,1.73-.22.89-.23.83-.05.86s-.01.06-.02.09l-.31.84-.22.8-.06.86-.09.9s0,.03,0,.04l-.2.87-.29.88-.18.82-.05.87s0,.05-.02.08l-.27.83-.15.85s0,.03-.01.04l-.26.8v.86s0,.07,0,.1l-.28.83-.17.85-.16.88-.19.88-.23.84-.03.86s0,.05-.01.07l-.22.86-.26.83-.02.86s0,.04,0,.05l-.17.88s0,.03-.01.04l-.29.83-.18.83-.07.88s0,.05-.01.07l-.26.83-.11.86s-.01.03-.01.05l-.25.82-.03.86s-.01.08-.03.11l-.35.77v.84s0,.05,0,.08l-.23.86-.33,1.73-.14.87s-.01.03-.02.05l-.29.81-.07.85s0,.04-.01.06l-.23.84-.13.86-.22.9-.15.85-.24.86-.09.86s0,.04-.01.05l-.23.86-.2.83-.06.88s0,.05-.02.07l-.27.82-.09.85-.35,1.78-.22.88-.15.86s-.01.04-.02.06l-.31.8-.05.88c0,.1-.06.19-.14.24-.06.03-.12.05-.18.05ZM289.89,232.74l.88.07s.05.01.08.02l.49.18.03-.52s.01-.06.02-.09l.32-.82.15-.85.22-.89.34-1.74.1-.86s0-.04.01-.06l.27-.81.06-.86s0-.03,0-.05l.2-.87.23-.85.09-.86s0-.03.01-.05l.23-.86.15-.85.22-.89.12-.85s0-.03.01-.04l.22-.83.08-.86s0-.05.02-.08l.29-.82.14-.85.33-1.76.22-.84v-.87s.01-.09.03-.13l.35-.78.03-.84s0-.06.01-.08l.26-.83.11-.86s0-.03.01-.05l.26-.82.07-.86s0-.03,0-.04l.19-.87s0-.03.01-.04l.29-.83.17-.82.02-.88s0-.06.01-.08l.27-.85.22-.82.03-.87s0-.04.01-.07l.23-.86.19-.85.16-.86.18-.88s0-.02,0-.04l.27-.8v-.86s0-.06.01-.09l.27-.83.15-.85s0-.03.01-.04l.26-.82.05-.86s0-.03.01-.05l.19-.87.29-.88.19-.82.09-.87.07-.89s0-.04,0-.06l.24-.86.3-.82.05-.85s0-.05.01-.07l.24-.86.22-.85.3-1.73.19-.88.13-.86.15-.88.18-.88.16-.86.14-.87.19-.89.21-.87.11-.85.18-.89s0-.02.01-.04l.27-.83.27-1.42-.57-.16-.86-.2-.86-.12s-.03,0-.05-.01l-.82-.27-.86-.07s-.04,0-.06-.01l-.85-.22-.86-.09s-.03,0-.05-.01l-.85-.23-.87-.14s-.03,0-.04-.01l-.83-.26-.86-.06-.91-.12s-.05,0-.07-.02l-.8-.31-.85-.03s-.04,0-.05,0l-.88-.19-.86-.24-.86-.13-.9-.19s-.04-.01-.05-.02l-.82-.33-.85-.17-.86-.09s-.03,0-.04,0l-.85-.2-.88-.09s-.05,0-.07-.02l-.83-.27-.86-.14s-.03,0-.04,0l-.84-.25-.86-.14-.9-.19-.86-.1s-.04,0-.05-.02l-.86-.26-.83-.21-.87-.06s-.03,0-.05,0l-1.74-.37-.87-.12s-.03,0-.05-.01l-.52-.17-.03.55s0,.05-.01.07l-.26.86-.18.84-.08.87-.18.91-.25.86-.12.86-.17.89-.46,1.73-.11.86s-.01.04-.02.05l-.26.82-.07.86s0,.05-.01.07l-.27.82-.05.86s0,.05-.01.07l-.25.83-.1.86-.15.89s-.01.05-.02.07l-.33.8-.09.84-.18.9-.1.86s-.01.05-.02.07l-.32.81-.18,1.73s0,.03,0,.04l-.19.87-.43,1.74-.27.83-.05.86s0,.04-.01.06l-.23.83-.09.86s0,.04-.01.06l-.25.85-.17.83-.07.88s0,.05-.02.07l-.52,1.69-.15.86-.08.86-.12.9s0,.03-.01.05l-.26.85-.19.83-.11.87s0,.02-.01.03l-.21.86-.18.86-.31,1.74s-.01.03-.01.04l-.26.85-.36,1.69-.03.87s-.01.08-.02.11l-.34.82-.2.81-.06.87-.15.9-.18.89-.13.86s0,.04-.01.05l-.28.83-.15.85s0,.04-.01.05l-.28.8-.05.85-.1.9s0,.04-.01.05l-.24.84-.14.86-.21.89s0,.03-.01.03l-.29.8-.05.85s0,.04-.01.06l-.23.86-.4,1.71-.1.86-.09.58.54.15.88.07s.06.01.09.02l.82.33.83.17.88.07s.04,0,.06.01l.86.24.85.15.89.21.86.13s.03,0,.05.02l.82.26.86.04s.06.01.09.02l.82.29.86.08s.05,0,.07.02l.83.28.86.13.9.19.86.09,1.78.34.88.2.88.26.83.21.88.04s.06.01.08.02l.84.27.86.15.88.09.9.15s.05.01.08.02l.8.34.85.11.88.04s.06.01.08.02l.83.28.86.11s.02,0,.03.01l1.71.41Z"/>
  <path class="cls-2" d="M308.67,169.9l.31-.73h.05s-.2.82-.2.82l-.34.78-.54.68-.78.45-.9-.04-.85-.08-.84-.31-.53-.73-.43-.88v-.98s.32-.91.32-.91l.54-.83.86-.34.86-.24.93.06-.05.15-.83.07-.63.52-.57.73-.1.93.19.95.58.62.81.21.81-.07.78-.26.54-.56Z"/>
  <path class="cls-7" d="M307.18,172.21h-.02l-.9-.04-.88-.08s-.05-.01-.07-.02l-.85-.31c-.06-.02-.1-.06-.14-.1l-.53-.73s-.02-.03-.03-.05l-.43-.88s-.03-.09-.03-.14v-.98s0-.07.02-.1l.33-.91s.02-.05.03-.07l.55-.83c.03-.05.08-.09.14-.11l.86-.34s.02,0,.03-.01l.87-.24s.07-.01.1,0l.92.06c.09,0,.18.05.23.13s.07.18.04.27l-.05.14c-.04.12-.14.2-.27.22l-.73.06-.53.44-.51.64-.08.8.17.81.45.49.67.18.72-.07.67-.22.44-.47.29-.68c.04-.09.12-.16.21-.18h.05c.1-.04.21,0,.29.07.07.07.1.18.08.29l-.2.83s-.01.04-.02.05l-.34.78s-.02.05-.04.07l-.54.68s-.05.06-.09.07l-.78.46s-.09.04-.15.04ZM305.5,171.47l.82.08.79.04.65-.38.31-.4-.61.2s-.04.01-.07.01l-.8.08s-.07,0-.11-.01l-.81-.21c-.05-.02-.1-.05-.15-.09l-.57-.62s-.06-.09-.07-.15l-.2-.95s-.01-.06,0-.09l.1-.93c0-.06.03-.11.06-.16l.58-.73s.03-.04.05-.05l.05-.04h-.05s-.75.31-.75.31l-.47.71-.29.83v.85l.39.79.45.63.71.27Z"/>
  <path class="cls-2" d="M269.54,162.68l.58.63.8.25.83.16.73-.43.63-.71.34-.92-.29-.94-.44-.69-.76-.31.04-.19.83.38.82.39.45.79.31.91.02.98-.45.88-.78.57-.77.39-.85.04-.88-.05-.76-.48-.43-.77-.36-.76-.1-.85.38-.78h0s-.06.75-.06.75l.18.77Z"/>
  <path class="cls-7" d="M271.58,165.16h-.02l-.89-.05c-.05,0-.1-.02-.15-.05l-.76-.48s-.07-.06-.1-.1l-.43-.77-.38-.78s-.03-.06-.03-.09l-.1-.86c0-.06,0-.11.03-.17l.37-.78s.02-.03.02-.03c.08-.12.22-.18.36-.13.13.05.22.17.21.31l-.05.71.15.64.47.51.71.22.7.14.59-.34.56-.64.29-.77-.24-.8-.36-.58-.67-.27c-.14-.05-.21-.2-.19-.34l.04-.2c.02-.09.08-.17.16-.21.08-.05.18-.05.27-.01l.83.38.82.4c.05.03.1.07.13.13l.45.79s.02.03.03.05l.31.9s.02.06.02.09l.02.98c0,.06-.01.1-.04.15l-.45.88s-.05.08-.09.1l-.78.57s-.03.02-.04.03l-.77.39s-.08.03-.12.03l-.85.04h0ZM270.79,164.5l.79.04.77-.04.68-.34.7-.52.38-.74-.02-.85-.29-.83-.41-.69.03.04s.03.05.03.08l.29.94c.02.06.02.14-.01.2l-.34.92s-.04.07-.06.09l-.64.71s-.05.05-.07.06l-.73.43c-.07.04-.14.05-.22.04l-.83-.16s-.03,0-.04,0l-.8-.25c-.05-.02-.1-.05-.13-.08l-.14-.14.03.04.39.68.63.4Z"/>
  <path class="cls-2" d="M255.97,227.53l-.18.76h-.18s.21-.85.21-.85l.25-.83.7-.52.74-.44.86-.23.86.23.81.36.53.71.39.88.16.98-.44.89-.54.83-.79.49-.93.08-.9-.13.02-.08.79-.15.71-.36.53-.78.13-.93-.32-.88-.56-.56-.73-.31-.82-.03-.8.28-.51.6Z"/>
  <path class="cls-7" d="M258.43,231.15s-.03,0-.05,0l-.89-.13c-.09-.01-.17-.06-.21-.13-.05-.07-.07-.16-.05-.24l.02-.08c.03-.12.13-.21.24-.23l.75-.14.59-.3.44-.66.1-.78-.27-.73-.47-.47-.62-.27-.7-.02-.67.23-.41.48-.16.68c-.04.15-.17.25-.31.24h-.18c-.09-.01-.18-.06-.23-.13-.05-.07-.07-.17-.05-.26l.21-.84.25-.85c.02-.06.06-.12.11-.16l.7-.52s.02-.01.03-.02l.74-.44s.05-.03.08-.03l.86-.23c.05-.02.11-.02.16,0l.86.23s.03.01.04.02l.81.35c.05.02.09.06.13.1l.53.71s.03.04.04.06l.39.88s.02.05.02.07l.16.98c.01.07,0,.13-.03.19l-.44.89s-.01.02-.02.03l-.54.83s-.06.07-.09.1l-.8.49s-.09.04-.14.05l-.93.07s-.01,0-.02,0ZM257.28,226.33h.01l.81.03s.08,0,.11.02l.73.32s.07.04.09.07l.56.55s.05.07.07.11l.32.88s.02.09.02.15l-.12.93s-.03.09-.05.14l-.53.78s-.07.08-.11.1l-.17.09.24-.02.67-.42.48-.76.39-.78-.14-.84-.35-.81-.46-.62-.72-.31-.76-.2-.74.19-.69.41-.26.19.49-.17s.07-.02.1-.02Z"/>
  <path class="cls-2" d="M295.01,234.82l-.56-.59-.71-.4-.84-.08-.77.35-.55.78-.37.89.3.92.4.72.75.37v-.03l-.9-.1-.8-.46-.47-.79-.22-.94.1-.94.4-.85.67-.66.78-.36.86-.11.84.22.78.4.55.7.3.8-.08.84-.21.8h-.05s.17-.78.17-.78l-.37-.69Z"/>
  <path class="cls-7" d="M292.65,238.08s-.08-.01-.11-.03l-.03-.02-.77-.09s-.08-.02-.11-.04l-.81-.46s-.08-.07-.11-.11l-.47-.79s-.03-.06-.03-.09l-.22-.93s-.01-.07-.01-.1l.1-.94s.01-.07.03-.1l.4-.85s.04-.06.06-.09l.67-.66s.05-.05.08-.06l.78-.36s.06-.02.09-.03l.85-.11s.08,0,.12,0l.84.22s.04.02.06.03l.78.4s.07.05.1.09l.54.69s.03.05.05.08l.3.8s.02.09.02.14l-.07.84s0,.03-.01.05l-.21.8c-.04.15-.18.24-.33.22h-.05c-.09-.02-.17-.06-.22-.13-.05-.07-.07-.16-.05-.25l.15-.65-.3-.56-.49-.52-.61-.34-.69-.07-.61.28-.48.69-.32.76.26.78.34.6.56.27c.16.02.27.15.27.3,0,.11-.05.22-.15.28-.05.04-.11.06-.18.06ZM291.19,236.95l.18.1-.12-.21s-.02-.04-.02-.06l-.3-.92c-.02-.07-.02-.15.01-.22l.38-.89s.02-.04.03-.05l.55-.79s.07-.08.12-.1l.77-.35s.1-.03.16-.03l.84.08s.08.02.12.04l.71.4s.05.04.07.06l.51.53-.21-.57-.47-.61-.69-.35-.75-.19-.74.1-.69.32-.59.58-.35.76-.09.84.2.84.4.69Z"/>
  <path class="cls-2" d="M287.21,221.94l.17.71.28.72.43.7.79.32-.77.31-.69.4-.51.63-.46.67-.24.72.05-.8-.18-.82-.09-.84-.55-.64-.6-.48.73-.03.76-.3.48-.65.41-.6Z"/>
  <path class="cls-2" d="M269.31,218.23v.83s.31.76.31.76l.62.53.61.4-.67.31-.74.34-.44.7-.43.68-.25.67-.03-.78-.11-.83-.17-.82-.49-.67-.67-.48h.79s.71-.39.71-.39l.46-.64.49-.63Z"/>
  <path class="cls-2" d="M287.4,174l.16.85.13.92.51.79.79.48.84.51-.91.18-.72.43-.62.55-.51.65-.51.65-.47.7-.13.74v-.79s.09-.87.09-.87l-.24-.84-.09-.87-.52-.7-.57-.63-.64-.4.8-.12.82-.34.77-.46.57-.7.46-.72Z"/>
  <path class="cls-7" d="M293.81,201.85l-.35.83-.24.84-.19.88-.49.74-.41.79-.52.72-.59.65-.54.71-.67.59-.78.44-.68.57-.84.3-.75.49-.81.35-.86.23-.88.1-.87.17-.89.02-.88-.09-.89.03-.86-.2-.89-.09-.84-.27-.83-.32-.79-.42-.73-.51-.74-.47-.71-.54-.55-.71-.58-.66-.51-.72-.53-.7-.54-.71-.22-.87-.32-.81-.43-.8-.18-.88v-.9l-.1-.88-.02-.89.04-.89.22-.86.32-.83.28-.83.22-.86.46-.76.32-.83.63-.64.46-.77.63-.63.75-.48.62-.65.71-.54.81-.38.79-.4.85-.26.86-.2.85-.22.86-.25.89.08.89-.08.87.21.88.11.84.26.88.15.85.27.76.48.73.5.7.53.67.56.65.6.59.65.57.68.46.74.5.73.36.81.31.83.15.87.21.85.23.86-.08.89.11.89-.06.88-.14.88Z"/>
  <path class="cls-2" d="M282.44,211.59l-.88-.09-.91.03-.88-.21-.93-.1-.85-.27-.88-.34-.82-.44-.73-.51-.74-.47-.79-.6-.54-.71-.59-.67-.51-.72-1.1-1.45-.24-.91-.31-.78-.45-.86-.19-.9v-.91s-.09-.86-.09-.86l-.02-.92.05-.97.23-.9.32-.83.28-.82.25-.92.45-.73.34-.87.65-.66.49-.8.68-.66.72-.46.63-.65.77-.57.81-.38.83-.42.85-.26.89-.2.84-.22.91-.27.92.09.91-.08.9.21.91.12.82.25.9.16.92.3.76.48.74.51.72.54.69.57.66.61.61.66.6.72.47.74.52.77.35.81.34.9.15.88.2.83.24.9-.08.91.11.88-.06.91-.16.97-.33.81-.24.83-.19.92-.52.78-.42.81-.54.75-.59.66-.57.73-.72.63-.75.43-.7.59-.86.3-.76.49-.86.36-.9.24-.88.1-.9.17-.92.05ZM281.59,210.89l.88.09.83-.03.85-.16.88-.11.81-.22.78-.33.79-.51.79-.28.68-.57.76-.43.62-.55.53-.68.6-.66.49-.69.42-.8.46-.69.18-.82.26-.9.33-.79.14-.84.06-.82-.12-.89.08-.87-.22-.8-.2-.86-.15-.86-.3-.8-.34-.77-.48-.71-.46-.73-.55-.66-.59-.63-.63-.58-.66-.55-.69-.53-.71-.49-.71-.45-.79-.26-.9-.16-.82-.25-.88-.11-.82-.2-.86.08-.86-.08-.81.23-.86.22-.88.2-.8.24-.77.39-.79.37-.66.5-.66.68-.72.46-.58.58-.48.79-.59.59-.32.83-.44.71-.21.82-.29.85-.31.82-.2.82-.04.85.02.87.1.89v.86l.16.8.42.79.33.85.21.81,1.04,1.36.5.71.57.65.54.69.68.51.73.46.73.51.75.41.81.32.8.25.9.09.82.19.86-.03Z"/>
  <path class="cls-2" d="M282.09,209.12s-.05,0-.08-.01l-.81-.22-.83.02s-.04,0-.06,0l-.86-.16-.05-.02-.82-.3s-.06-.03-.09-.04l-.66-.51-.8-.24c-.05-.02-.1-.05-.14-.09l-.58-.65-.65-.53-.68-.53s-.04-.03-.05-.05l-.56-.66s-.03-.03-.04-.05l-.43-.76-.45-.72s-.02-.03-.03-.05l-.33-.81s-.02-.05-.02-.07l-.13-.85-.21-.81-.26-.83s-.02-.08-.02-.12l.09-.88v-.83s0-.04,0-.05l.14-.85s.01-.03.01-.04l.26-.83.19-.83s.02-.04.03-.06l.37-.79s.02-.04.04-.06l.53-.67.4-.74s.05-.07.08-.09l.66-.53.51-.66s.03-.03.04-.04l.65-.58s.03-.02.04-.03l.73-.46s.03-.02.05-.03l.8-.33.76-.38s.04-.02.05-.02l.83-.24s.03,0,.05-.01l.84-.1.82-.2s.06-.01.08-.01l.85.04.85-.07s.05,0,.07,0l.86.14.88.2s.03,0,.04.01l.81.31s.03.01.04.02l.77.42.76.39.76.48s.05.04.07.06l.57.67.58.61s.02.02.03.03l.51.69.52.68.52.71s.05.07.05.12l.19.84.26.79.36.79s.03.06.03.09l.1.87s0,.05,0,.07l-.09.86v.85s-.01.04-.02.06l-.33,1.7-.22.86s-.02.06-.03.08l-.89,1.51-.48.73s-.03.03-.04.04l-1.21,1.24s-.01.02-.02.03l-.67.55s-.04.03-.06.04l-.79.37-.74.4-.72.44s-.05.03-.08.03l-1.67.47s-.04.01-.05.01l-1.73.16h-.03ZM281.24,208.27s.06,0,.08.01l.8.22,1.65-.15,1.6-.45.7-.43.77-.41.77-.36.63-.52,1.17-1.21.46-.7.85-1.45.21-.8.16-.83.16-.82v-.84s0-.02.01-.03l.09-.84-.09-.79-.34-.76s-.01-.02-.01-.03l-.27-.81s-.01-.02-.01-.03l-.18-.8-1.49-2.01-.58-.61-.55-.64-.69-.45-.74-.38-.76-.42-.77-.3-.83-.19-.81-.13-.84.07h-.04l-.82-.03-.8.2s-.02,0-.04,0l-.83.1-.78.22-.76.37-.79.33-.7.44-.61.54-.52.67s-.03.04-.05.05l-.63.52-.39.71-.03.05-.53.66-.34.72-.19.82-.26.83-.13.81v.84l-.08.84.24.78.22.84s0,.02,0,.03l.13.83.3.74.45.71.42.74.52.61.67.52.67.56s.02.02.03.03l.53.59.77.23s.07.03.1.05l.67.51.76.27.81.15.84-.02s0,0,.01,0Z"/>
  <path class="cls-2" d="M286,208.24c-.08,0-.16-.03-.22-.09l-.61-.62-.64-.6s-.03-.03-.04-.04l-.53-.72-.57-.64-.61-.63-.58-.71-.8-.85-.26.11-.83.31-1.58.8s-.04.02-.05.02l-.85.24-.8.35-.82.33-.78.48c-.13.08-.28.06-.38-.05-.1-.1-.12-.26-.04-.39l.51-.77.39-.78s.02-.02.02-.03l.48-.71.31-.81s.01-.03.02-.04l.44-.77.41-.78s.03-.04.04-.05l.55-.67.1-.24-.28-.27-.6-.69-.61-.6s-.04-.04-.05-.06l-.44-.73-.67-.52s-.02-.02-.03-.03l-.64-.63-.61-.68s-.02-.03-.03-.04l-.44-.68c-.06-.09-.07-.22-.01-.32s.16-.16.28-.16l.81.03s.08.01.11.03l.8.35.82.15.88.06h.04l.88.16.87.24.86.11.41.09.18-.22.26-.81.03-.06.46-.76.49-.74.4-.78.39-.8s.02-.04.03-.05l.53-.71.41-.7c.07-.11.19-.17.32-.15s.22.11.25.24l.18.82s0,.04,0,.06l.02.88.15.85.1.9.14.87s0,.05,0,.08l-.09.84.24.81s.01.04.02.06l.03.32.29.04.9.18.85.22.87.08s.03,0,.04,0l.87.19s.03,0,.04.01l.81.29.85.07s.05,0,.07.02l.76.24c.12.04.2.14.21.26.02.13-.05.24-.16.3l-.69.38-.8.41-.84.36-.84.29-.77.4-.85.35-.83.3-.36.22.07.36.13.9v.06l-.04.86.35,1.72.09.92.11,1.78c.01.13-.06.25-.18.3-.03.04-.07.05-.12.05ZM284.97,206.49l.67.62-.06-.94-.09-.88-.35-1.72s0-.06,0-.08l.04-.88-.15-1.02-.66.24-.73.46s-.02.02-.04.02l-1.59.74.67.7.57.7.6.62.59.67.53.72ZM276.46,204.29l-.28.55.62-.25.81-.35s.03-.02.04-.02l.84-.24,1.56-.8.03-.02.88-.32-.48-.7-.56-.63-.68-.55-.04-.04-.45-.54-.02.05s-.03.05-.04.07l-.55.68-.4.76-.44.76-.31.81s-.02.05-.03.06l-.49.72ZM281.47,202.51l.09.09.18-.07,1.58-.74.74-.47s.04-.02.06-.03l.8-.3-.02-.09v-.03l-.12-1.79-.03-.89-.13-.96-.11-.02s-.04-.01-.05-.02l-.81-.27-.86-.02h-.05l-.88-.15s-.04-.01-.06-.02l-.91-.32-.1.12-.41.76-.38.79s-.02.03-.02.04l-.5.72-.46.91.05.05s.02.02.02.03l.55.66.67.55.03.03.59.66s.02.02.03.03l.49.72ZM285.25,197.32l.11.8s0,.02,0,.03l.03.9.1,1.59.18-.11s.04-.02.06-.03l.84-.3.81-.33.77-.4s.03-.02.04-.02l.84-.29.8-.34.83-.42-.04-.02-.86-.07s-.05-.01-.08-.02l-.83-.3-.83-.18-.88-.08s-.03,0-.05-.01l-.86-.22-.99-.19ZM277.26,197.93l.61.59.69.78.39-.76s.01-.02.02-.03l.49-.71.37-.78.41-.75-.1-.02-.86-.11s-.03,0-.05,0l-.86-.24-.83-.15-.88-.06s-.02,0-.04,0l-.88-.17s-.05-.01-.07-.02l-.78-.34h-.16s.1.16.1.16l.58.65.61.6.7.54s.05.05.07.09l.44.75ZM282.82,196.3l.89.03s.06,0,.09.02l.76.26-.02-.14-.25-.84s-.02-.08-.02-.13l.09-.86-.13-.84-.1-.9-.15-.86v-.05l-.02-.87-.02.03s-.02.02-.03.03l-.52.69-.38.78-.42.8s0,.02-.02.03l-.49.74-.44.72-.27.83s-.03.07-.05.09l-.04.04.69.26.82.14Z"/>
  <path class="cls-10" d="M269.45,282.1h-.92s-.88-.19-.88-.19h-.88s-.89.04-.89.04l-.88-.16-.89.03-.88-.2-.88-.07-.88-.05-.89.04-.88-.13-.88-.07-.88-.04-.89-.05-.89.08-.89-.02-.88-.04-.88-.11-.88-.17-.9.14-.87-.19-.89.06-.89-.03-.89-.04-.88-.13-.88-.14-.89.05-.88-.13h-.89s-.88-.03-.88-.03l-.88-.12h-.88l-.89-.07-.88-.17h-.88s-.89-.04-.89-.04l-.88-.03-.89.02-.88-.1-.88-.1-.89-.02h-.88s-.88-.15-.88-.15l-.88-.09h-.88s-.92.03-.92.03l.07-.92.05-.89.13-.88-.08-.89.12-.88.07-.88.11-.88-.06-.89.02-.89.23-.87.04-.88.07-.88.02-.89.07-.88-.04-.89.12-.88-.07-.89.1-.88v-.89s.04-.88.04-.88l.07-.88.07-.88.05-.88.05-.89.21-.87.02-.89.09-.88-.16-.9.19-.87-.03-.89.02-.89.23-.87-.02-.89v-.89l.16-.88-.08-.89.03-.88.07-.88.2-.88.02-.89.1-.88-.09-.89.03-.89.14-.88.05-.89.02-.89.11-.88.08-.88.07-.89.07-.88.04-.88v-.89s-.06-.89-.06-.89l.2-.88.05-.89-.08-.89.15-.88v-.89s.13-.88.13-.88l-.08-.9.06-.88.02-.89.2-.88-.03-.89.02-.89.14-.88v-.89s.03-.89.03-.89l.19-.88-.13-.9.07-.88.11-.88.02-.89v-.89s.16-.88.16-.88l.1-.88-.08-.89.13-.88v-.89s.04-.89.04-.89v-.89s.22-.81.22-.81l.82-.09.88.06.88.03.88.11,1.76.18.88-.02.89.03.87.19.89-.03.89-.03.88.06.88.1.88.09h.89s.89-.02.89-.02l.88.15.88.06.89.02.88.1.89.03.88.04.88.18.88.05.89-.07.88.09h.89s.88.07.88.07h.89l.87.23.89-.11h.89l.88.06.87.25.9-.15.87.25.88.04.89-.07.89.03.88.12h.89s.88.06.88.06l.88.19.89.03.89-.1.87.16v.87s-.06.88-.06.88l-.1.88.05.89-.06.89-.18.88.05.89-.21.88.08.89-.02.88-.07.88-.14.88v.89l-.08.88-.14.88.05.89-.11.88.07.89-.05.88-.04.89-.08.88-.11.88v.89s-.03.88-.03.88l-.19.88-.06.89-.09.88v.89s.08.89.08.89l-.22.88-.04.88.13.9-.06.88-.18.87v.89s-.03.89-.03.89v.89s-.14.88-.14.88l-.17.87-.07.88.07.89-.13.88.1.9-.2.88.07.89-.08.88-.2.88.08.89v.89s-.11.88-.11.88l-.03.88-.22,1.76v.89s.07.89.07.89l-.19.88.04.89-.18.87-.02.89-.11.88.08.89.02.89-.15.88-.11.88-.08.88-.06.88-.05.89-.04.88-.02.89-.07.89.02.89-.07.89-.05.88-.16.88-.03.89.06.89-.19.88.08.89-.04.89-.15.88.03.89-.02.95Z"/>
  <g class="cls-3">
    <path class="cls-7" d="M269.45,282.41h-.92s-.04-.01-.06-.02l-.84-.18h-.85s-.87.04-.87.04c-.03,0-.05,0-.07-.01l-.84-.15-.85.03s-.06,0-.08,0l-.85-.2-1.73-.11-.86.04s-.04,0-.05,0l-.88-.13-.86-.06-1.73-.08-.86.08h-.04l-.89-.02-.89-.05-.9-.11-.84-.17-.84.13s-.08,0-.11,0l-.83-.19-.84.05-1.8-.06s-.02,0-.03,0l-1.72-.27-.85.05h-.06l-.85-.13h-.86s-.89-.03-.89-.03h-.04l-.85-.12h-.86l-.91-.07s-.02,0-.04,0l-.84-.16h-.85s-.91-.05-.91-.05l-.88-.03-.87.02s-.03,0-.04,0l-1.74-.2-1.75-.03s-.03,0-.05,0l-.88-.14-.87-.09h-.86s-.91.03-.91.03c-.09,0-.17-.03-.23-.1-.06-.06-.09-.15-.09-.23l.07-.92.05-.88.13-.87-.08-.85s0-.05,0-.07l.11-.88.07-.87.11-.86-.06-.86v-.91s.02-.05.02-.07l.22-.84.04-.85.07-.89.03-.87.07-.88-.04-.86v-.06l.11-.84-.07-.86s0-.04,0-.06l.1-.86-.02-.86.12-1.79.08-.88.1-1.76s0-.04,0-.05l.2-.84.02-.85.09-.86-.15-.85s-.01-.08,0-.12l.18-.83-.03-.85.02-.9s0-.05.01-.07l.22-.83-.02-.84v-.89s0-.04.01-.05l.15-.84-.07-.85v-.04l.03-.89.07-.89s0-.03,0-.05l.19-.84.03-.85.09-.88-.09-.86v-.04l.03-.89s0-.03,0-.04l.14-.86.05-.87.02-.87v-.04l.11-.88.09-.88.14-1.76.04-.87v-.87s-.06-.88-.06-.88c0-.03,0-.06,0-.09l.2-.85.05-.84-.08-.86s0-.05,0-.08l.14-.86.02-.86v-.04l.12-.85-.08-.85v-.05l.06-.88.02-.88s0-.04.01-.06l.19-.83-.03-.85.02-.9s0-.03,0-.04l.13-.85-.02-.86.04-.91s0-.04,0-.05l.18-.82-.12-.84v-.07l.07-.88.11-.88.02-.87v-.88s0-.04,0-.06l.17-.88.1-.83-.08-.85s0-.05,0-.07l.13-.85v-.86s.04-.91.04-.91v-.88s.01-.05.02-.07l.22-.81c.03-.13.14-.21.26-.23l.82-.09h.06l.88.07.87.02s.02,0,.03,0l.88.11,1.73.18h.87s.9.01.9.01c.02,0,.04,0,.06.01l.83.18,1.73-.06.91.06,1.77.19h.85s.88-.02.88-.02h.06l.88.14.85.06.87.03.91.1,1.74.07s.03,0,.05,0l.85.17.84.05.86-.07s.04,0,.06,0l.86.09h.87l.91.07h.86s.05,0,.08,0l.81.22.83-.1s.02,0,.04,0h.89l.9.06s.05,0,.07.01l.8.23.82-.14s.09,0,.14,0l.84.24.83.04.87-.07h.03l.89.03.89.12h.86s.91.06.91.06c.01,0,.03,0,.04,0l.84.19.83.03.87-.1s.06,0,.09,0l.86.16c.15.03.26.15.26.3v.87s-.06.91-.06.91l-.09.86.04.86v.04l-.06.89s0,.03,0,.04l-.17.83.05.84s0,.06-.01.09l-.2.83.07.84v.91s-.08.9-.08.9l-.14.88v.86l-.08.91-.13.86.05.85v.06l-.11.85.07.85v.04l-.09,1.76-.08.89-.11.88-.03,1.75s0,.04,0,.06l-.19.85-.06.86-.09.88v.86s.07.86.07.86c0,.04,0,.07-.01.1l-.2.84-.04.82.13.86s0,.05,0,.07l-.06.88s0,.03,0,.04l-.17.84v.85s-.04,1.78-.04,1.78v.04l-.13.88-.17.87-.06.84.06.87s0,.05,0,.07l-.13.84.09.85s0,.07,0,.1l-.19.83.07.84v.05l-.08.88s0,.03,0,.04l-.19.83.08.84v.92s0,.03,0,.04l-.11.86-.03.87v.03l-.22,1.74-.02.87.08.86s0,.06,0,.09l-.18.84.04.85s0,.05,0,.08l-.18.85-.03.85-.1.88.07.86.02.91s0,.04,0,.06l-.15.88-.11.87-.08.87-.14,2.64-.02.88-.07.88.02.88v.03l-.07.89-.05.88s0,.03,0,.04l-.16.85-.03.85.06.88s0,.06,0,.08l-.18.83.07.84v.04l-.03.89s0,.03,0,.04l-.15.85.03.86-.05.94c.03.18-.11.3-.27.3ZM268.56,281.78h.59s.03-.61.03-.61l-.03-.86s0-.04,0-.06l.15-.85.03-.85-.07-.88s0-.06,0-.09l.18-.83-.06-.84v-.03l.03-.89s0-.03,0-.05l.16-.86.05-.86.07-.87-.02-.88v-.03l.07-.89.02-.86.15-2.66.08-.89.11-.89.15-.86-.02-.86-.07-.87s0-.04,0-.06l.1-.88.02-.85s0-.04,0-.06l.18-.84-.04-.85s0-.05,0-.08l.18-.83-.07-.84v-.92s0-.02.01-.03l.22-1.75.03-.86v-.03l.11-.86v-.86s-.08-.86-.08-.86c0-.03,0-.06,0-.09l.19-.86.08-.83-.08-.86s0-.06.01-.09l.19-.82-.09-.84s0-.05,0-.07l.13-.85-.06-.85v-.05l.07-.88s0-.02,0-.04l.16-.87.12-.84.04-2.64s0-.04,0-.06l.17-.85.06-.83-.13-.86v-.06l.04-.89s0-.04.01-.06l.2-.83-.07-.84v-.91s0-.02,0-.04l.09-.88.06-.87s0-.03,0-.04l.18-.85.02-1.73s0-.03,0-.04l.11-.88.08-.87.09-1.73-.07-.87v-.06l.11-.85-.05-.86v-.06l.14-.88.08-.86v-.86s0-.03,0-.04l.14-.88.07-.86v-.85s-.06-.87-.06-.87c0-.04,0-.07,0-.1l.2-.83-.05-.84s0-.06.01-.08l.18-.85.06-.84-.04-.87v-.05l.09-.88.06-.87v-.59l-.57-.1-.85.1h-.04l-.89-.02s-.04,0-.06,0l-.85-.19-.86-.07h-.86s-.03.01-.05,0l-.88-.12-.84-.03-.87.07h-.04l-.88-.04s-.05,0-.07-.02l-.8-.23-.83.14s-.09,0-.14-.01l-.84-.24-.84-.05h-.85l-.88.1s-.07,0-.11-.01l-.83-.22h-.84l-.91-.07h-.86s-.02,0-.03,0l-.85-.08-.86.07h-.05l-.88-.05s-.03,0-.04,0l-.85-.18-1.74-.07-.9-.1-.85-.02-.9-.06-.88-.14-.86.02h-.89s-1.79-.2-1.79-.2l-.87-.06-1.74.06s-.05,0-.07,0l-.84-.19-.85-.02-.88.02h-.03l-1.76-.18-.87-.11-.86-.03-.87-.06-.58.06-.15.57v.85s-.05.9-.05.9v.88s0,.03,0,.04l-.13.84.07.86s0,.04,0,.06l-.1.88-.17.88v.85s-.02.9-.02.9v.03l-.11.88-.07.83.12.86s0,.07,0,.11l-.19.84-.03.86v.87s.01.04,0,.05l-.13.86-.02.86.03.87s0,.06-.01.08l-.2.84-.02.85-.06.87.08.87s0,.05,0,.07l-.12.86v.87s-.02.03-.02.05l-.14.83.08.85s0,.03,0,.05l-.05.88s0,.04,0,.05l-.2.83.05.84v.91s-.04.9-.04.9l-.14,1.77-.09.89-.11.88-.02.86-.05.89s0,.03,0,.03l-.13.86-.03.85.09.87v.07l-.1.88-.02.85s0,.04,0,.06l-.19.85-.07.86-.03.85.07.87s0,.05,0,.08l-.16.85v.86s.02.88.02.88c0,.03,0,.06,0,.09l-.22.84-.02.84.03.87s0,.05,0,.08l-.18.82.15.83s0,.05,0,.08l-.09.88-.02.86s0,.04-.01.07l-.2.85-.1,1.73-.14,1.77-.05.88v.86s.01.03.01.04l-.1.85.07.86s0,.05,0,.07l-.12.85.05.86v.04l-.08.88-.02.87-.07.9-.04.88s0,.04-.01.07l-.22.83v.84s.05.86.05.86c0,.02,0,.04,0,.06l-.11.88-.07.86-.11.86.08.86s0,.05,0,.07l-.12.88-.09,1.43.58-.02h.91s.91.1.91.1l.88.14,1.75.03s.02,0,.03,0l1.73.2.86-.02.9.03.9.05h.86s.04-.01.06,0l.86.17.86.07h.86s.03,0,.05,0l.86.11.86.03h.88s.03.01.04.01l.85.12.85-.05s.05,0,.07,0l1.74.27,1.74.07.86-.06s.06,0,.09,0l.82.18.83-.13s.07,0,.1,0l.88.18.86.11.85.04.86.02.88-.08s.03,0,.04,0l1.76.08.89.06.88.13.85-.03,1.8.12s.03,0,.05,0l.83.2.85-.04s.04,0,.07.01l.84.15.85-.04h.9s.04.01.06.02l.83.17Z"/>
  </g>
  <path class="cls-7" d="M265.33,277.75l-.88-.14-.9.1-.89-.19-.89-.04-.91.11-.89-.17-.9.06-.89-.18-.89-.03-.9-.04-.89-.09-.89-.07-.9.07-.89-.18-.89-.13-.9.08-.89-.1-.89-.09h-.9s-.89-.11-.89-.11h-.9s-.9.06-.9.06l-.88-.26-.9-.06-.91.14-.89-.21-.9.11-.89-.14-.9-.06-.89-.08-.9.02-.88-.21-.91.11-.9-.03-.89-.18-.89-.02-.05-.88.18-.88v-.9s0-.89,0-.89l.21-.88.06-.89-.07-.89v-.89s.18-.88.18-.88l-.04-.9.07-.89.15-.88-.04-.89.13-.89-.02-.89-.03-.9.23-.88-.08-.9.12-.88.07-.89.03-.89.09-.89v-.89l-.05-.9.23-.88-.04-.89.09-.89v-.89s.17-.88.17-.88l.03-.89-.02-.89.13-.89-.03-.89.09-.89-.06-.9.22-.88.07-.89-.1-.9.18-.88-.03-.9v-.89s.06-.89.06-.89l.02-.89.23-.88.04-.89.06-.89-.05-.9.14-.88-.08-.9.05-.89.14-.88v-.9s.03-.89.03-.89l.18-.88v-.89s-.03-.9-.03-.9l.16-.88-.03-.89.2-.88.07-.89.05-.89-.04-.9.13-.88.06-.89.04-.89.05-.89-.08-.9.02-.89.05-.89.11-.89.18-.88-.1-.97.96.17.9-.05.89.03.9.04.89.13.89.14.9-.05.89.13h.9s.9.03.9.03l.89.13h.9l.9.07.89.17h.9s.9.05.9.05l.9.03.9-.02.89.1.89.1.9.02.9.02.89.14.89.09.9.02.9-.06.89.09.89.05.89.13.9-.08.89.11.9.08.89.11.9-.06.9.02.83.2-.06.82-.08.89-.02.89-.07.89.04.9-.12.88.07.9-.1.88v.89s-.04.89-.04.89l-.06.89-.08.89-.05.89-.06.89-.21.88-.02.89-.1.89.16.9-.19.88.03.9-.02.89-.23.88.02.89v.89l-.16.89.07.9-.03.89-.07.89-.2.88-.02.89-.1.89.09.9-.03.89-.14.89-.05.89-.02.89-.11.88-.09.89-.06.89-.08.89-.04.89v.89s.06.9.06.9l-.21.88-.05.89.08.9-.15.88-.02.89-.12.88.08.9-.06.89-.02.89-.2.88.03.89-.02.89-.14.88v.9s-.02.89-.02.89l-.19.88.13.9-.08.89-.11.89-.02.89v.89s-.17.89-.17.89l-.1.89.08.9-.13.89v.9s-.04.89-.04.89v.9s-.16.88-.16.88Z"/>
  <path class="cls-7" d="M265.33,278.05s-.03,0-.05,0l-.84-.13-.86.09s-.06,0-.1,0l-.86-.19-.84-.03-.88.11s-.07,0-.1,0l-.84-.16-.86.06s-.06,0-.08,0l-.86-.18-1.77-.06-.91-.08-.86-.07-.88.07s-.06,0-.08,0l-.89-.18-.83-.11-.86.08h-.07l-1.78-.2h-.87s-.92-.11-.92-.11h-.86s-.88.06-.88.06c-.04,0-.07,0-.11-.02l-.84-.24-.83-.05-.87.13s-.08,0-.12,0l-.83-.2-.84.11s-.06,0-.08,0l-.89-.14-.87-.06-.88-.08-.89.02s-.05,0-.07-.01l-.83-.19-.85.1h-.05l-.9-.03s-.04,0-.06,0l-.86-.17-.86-.02c-.16,0-.29-.13-.3-.29l-.05-.89s0-.06,0-.08l.18-.85v-.86s0-.9,0-.9c0-.03,0-.05.01-.07l.2-.85.06-.84-.07-.87v-.91s-.01-.05,0-.07l.19-.84-.04-.85v-.04l.07-.89.15-.88-.04-.86s0-.04,0-.06l.12-.86-.04-1.76s0-.06.01-.09l.22-.82-.07-.84s0-.05,0-.07l.12-.88.07-.87.02-.88.09-.91v-.86l-.05-.88s0-.06.01-.09l.22-.83-.03-.84v-.04l.09-.89v-.86s.02-.03.02-.05l.15-.86.04-.87-.03-.87s0-.04,0-.05l.13-.85-.03-.86v-.04l.08-.86-.06-.86s0-.07.01-.1l.21-.85.07-.83-.1-.87s0-.06,0-.1l.17-.84-.02-.86v-.9l.05-.91.02-.88s0-.05,0-.07l.23-.85.04-.85.06-.88-.04-.88v-.06l.13-.84-.07-.86v-.04l.05-.89.14-.89.03-1.77s0-.04,0-.05l.18-.85v-.86s-.04-.88-.04-.88c0-.03,0-.05,0-.07l.16-.85-.03-.86s0-.06,0-.08l.2-.85.11-1.75-.03-.86v-.06l.13-.88.06-.87.08-1.75-.08-.88v-.03l.02-.9.04-.9.12-.91.17-.86-.09-.93c-.01-.09.02-.19.09-.26.07-.06.17-.09.27-.07l.92.16.86-.05,1.82.07h.03l1.74.27.87-.05s.04,0,.06,0l.86.13h.88s.9.03.9.03c.02,0,.02,0,.04,0l.87.12h.88l.92.07s.02,0,.03,0l.86.16h.86s.92.05.92.05l.89.03.89-.02h.04l1.79.21,1.76.03s.03,0,.04,0l.89.14.88.09h.86s.88-.04.88-.04h.05l.89.09.89.05.88.13.86-.08h.07l.89.12.88.07.88.11.87-.06h.93s.05.02.07.02l.82.2c.15.04.24.17.23.32l-.13,1.72-.02.87-.07.88.04.88s0,.04,0,.06l-.11.85.07.86s0,.04,0,.06l-.1.87v.87s-.11,1.8-.11,1.8l-.07.89-.11,1.77s0,.03,0,.05l-.2.84-.02.85-.09.87.15.86s0,.08,0,.11l-.18.84.03.85-.02.91s0,.05-.01.07l-.22.83.02.85v.9s0,.04-.01.05l-.15.84.08.85v.04l-.04.89-.06.9s0,.03-.01.05l-.19.85-.02.86-.1.88.09.86s0,.03,0,.04l-.02.89s0,.03,0,.04l-.14.89-.05.86-.02.88s0,.02,0,.03l-.11.89-.09.88-.14,1.77-.04.88v.88s.06.88.06.88c0,.03,0,.06,0,.09l-.2.85-.05.83.08.88s0,.05,0,.08l-.15.86v.87s-.01.03-.02.04l-.11.85.08.86v.05l-.06.89-.02.88s0,.05-.01.06l-.19.84.03.85-.02.91v.04l-.13.86v.87s0,.9,0,.9c0,.02,0,.04,0,.06l-.18.82.12.85v.07l-.08.89-.11.89-.02.87v.89s0,.04,0,.06l-.17.88-.09.83.07.86s0,.05,0,.07l-.13.86v.88s-.04.91-.04.91v.88s-.01.04-.02.05l-.16.88c-.03.15-.16.26-.3.26ZM264.45,277.3s.03,0,.05,0l.58.09.1-.55v-.87s.06-.9.06-.9v-.88s0-.03,0-.05l.13-.85-.07-.86s0-.04,0-.06l.1-.89.17-.88v-.86s.01-.9.01-.9c0-.02,0-.02,0-.03l.11-.89.07-.84-.12-.86s0-.07,0-.1l.19-.85.03-.86v-.88s-.01-.03,0-.05l.13-.86.02-.87-.03-.88s0-.05.01-.08l.2-.85.02-.86.06-.88-.08-.88s0-.05,0-.07l.12-.86v-.87s.02-.03.02-.05l.14-.84-.08-.86s0-.03,0-.05l.05-.89s0-.04,0-.05l.2-.83-.05-.85v-.91s.04-.9.04-.9l.14-1.78.09-.9.11-.88.02-.88.05-.9.14-.9.03-.85-.09-.88s0-.04,0-.07l.1-.89.02-.86s0-.04,0-.06l.19-.85.07-.86.03-.86-.07-.88s0-.06,0-.08l.15-.86v-.86s-.02-.88-.02-.88c0-.03,0-.06.01-.09l.22-.84.02-.85-.03-.88s0-.05,0-.07l.18-.82-.14-.84s-.01-.05,0-.08l.09-.89.02-.86s0-.05.01-.07l.2-.85.1-1.74.14-1.78.05-.89v-.86s-.01-.03,0-.04l.1-.85-.07-.86s0-.05,0-.07l.11-.85-.04-.86v-.04l.07-.89.02-.87.11-1.47-.54-.13-.86-.02-.88.06s-.04,0-.06,0l-.89-.11-.89-.07-.87-.11-.87.08s-.05,0-.07,0l-.89-.13-.86-.05-.89-.08-.88.05-.92-.02-.92-.09-.88-.14-1.77-.04-1.79-.21-.88.02-.91-.02-.9-.06h-.88s-.04,0-.06,0l-.88-.17-.88-.07h-.91l-.88-.13-.88-.02h-.89s-.03-.01-.04-.02l-.86-.12-.87.05s-.05,0-.07,0l-1.76-.27-1.78-.06-.87.05s-.05,0-.07,0l-.56-.09.06.56s0,.06,0,.09l-.17.89-.11.87-.04.86-.02.86.08.88v.04l-.08,1.78-.06.9-.13.88.03.87-.12,1.81s0,.03,0,.05l-.2.84.04.85s0,.05-.01.07l-.15.85.04.86v.91s-.01.04-.02.06l-.18.85-.03,1.74s0,.03,0,.04l-.14.89-.05.84.08.87s0,.05,0,.08l-.13.85.05.86v.04l-.07.89-.04.88s0,.04-.01.06l-.22.84-.02.85-.05.9v.88l.03.88s0,.05-.01.07l-.17.83.1.85s0,.04,0,.06l-.07.89s0,.03-.01.05l-.2.83.06.84v.05l-.09.86.03.88s0,.04,0,.05l-.13.86.02.86-.04.91v.04l-.15.85v.86s-.1.89-.1.89l.04.87s0,.06-.01.09l-.22.83.04.85v.91s-.1.91-.1.91l-.02.86-.07.91-.13.87.07.86s0,.07,0,.11l-.23.83.04,1.74s0,.03,0,.05l-.12.85.04.86v.07l-.16.88-.07.84.04.88s0,.05-.01.07l-.18.84v.85s.08.88.08.88v.05l-.06.89s0,.03-.01.05l-.2.84v.85s0,.89,0,.89c0,.03,0,.05,0,.07l-.18.84.03.56h.6s.04.02.06.02l.86.18.85.03.88-.11s.07,0,.1,0l.85.2.86-.02h.04l.89.07.89.06.87.14.86-.11s.07,0,.11,0l.83.2.84-.13s.04,0,.06,0l.9.06s.05,0,.07.01l.83.24.85-.06h.92s.92.11.92.11h.86s1.78.2,1.78.2l.87-.08h.07l.89.13.86.18.86-.07h.05l.89.07.9.09,1.77.06s.04,0,.05.01l.84.17.86-.06s.05,0,.08,0l.84.16.85-.1h.05l.9.04s.03,0,.05,0l.84.18.85-.09s.02,0,.03,0Z"/>
  <path class="cls-2" d="M258.84,251.93l.74-.56.77-.56.59-.73.57-.75.38-.86.54-.8.32.07-.1.85-.25.83-.25.82-.35.79-.45.73-.33.81-.65.59-.48.7-.55.67-.69.52-.63.6-.78.39-.76.4-.75.44-.86.18-.81.3-.82.3-.87.11-.88-.1-.87.03h-.87s-.83-.29-.83-.29l-.86-.1-.84-.24-.76-.45-.78-.36-.83-.31-.63-.63-.72-.49-.61-.62-.57-.65-.47-.73-.62-.63-.29-.83-.54-.7-.31-.84-.06-.91-.3-.84-.16-.88v-.89l-.02-.89.13-.88.21-.86.08-.9.35-.82.46-.77.3-.84.47-.75.55-.7.56-.68.6-.65.76-.48.64-.61.81-.37.72-.57.83-.37.9-.16.84-.38.91-.07.9-.17.91.07.9.11.89.19h.93s.82.44.82.44l.88.22.85.34-.2.47-.85-.26-.9.06-.88-.03-.89-.11-.87.18-.87.19-.76.49-.84.28-.8.44-.69.6-.56.72-.58.69-.51.75-.41.81-.28.86-.34.84-.23.89v.92s.11.9.11.9v.92s.39.84.39.84l.22.89.38.82.49.76.62.65.5.76.7.57.82.4.74.51.81.39.87.24.91.02.88.16.9.03.9-.03.86-.27.85-.28.78-.44.81-.47Z"/>
  <path class="cls-2" d="M273.32,212.49l.15-.76.14-.02-.15.85-.22.8-.39.78-.77.44-.83.21h-.86s-.89-.17-.89-.17l-.65-.63-.47-.85-.09-.95.1-.95.51-.82.66-.64.9-.19h.89v.05l-.79.2-.66.47-.39.88-.13.97.52.84.7.42.77.26.81-.15.61-.52.53-.54Z"/>
  <path class="cls-7" d="M271.25,215.09h-.86s-.04,0-.06-.01l-.89-.16c-.06-.01-.11-.04-.16-.08l-.65-.63s-.04-.05-.06-.08l-.47-.85s-.03-.08-.04-.12l-.09-.95s0-.04,0-.06l.09-.95s.02-.09.05-.13l.51-.82s.03-.04.05-.06l.66-.64s.09-.07.15-.08l.9-.2s.04,0,.07,0h.89c.17,0,.31.15.31.31v.05c0,.14-.09.27-.23.3l-.73.19-.54.39-.33.76-.11.82.42.69.6.36.66.22.65-.13.54-.46.46-.46.13-.67c.02-.13.13-.22.26-.24l.15-.02c.09-.02.19.02.26.09.07.07.1.17.08.27l-.15.85-.23.83s-.01.04-.02.05l-.39.78c-.03.05-.07.1-.13.13l-.77.45s-.05.02-.08.03l-.83.22s-.05.03-.07.03ZM270.42,214.47h.79s.76-.19.76-.19l.65-.38.3-.59-.54.45s-.09.06-.14.07l-.81.16c-.05.01-.1,0-.16-.02l-.77-.26s-.04-.02-.06-.03l-.7-.42s-.08-.06-.1-.1l-.52-.84c-.04-.06-.05-.13-.04-.2l.13-.97s.01-.06.03-.08l.39-.88c.02-.05.06-.1.1-.13l.02-.02h-.03s-.57.55-.57.55l-.45.73-.09.85.08.85.42.76.55.53.78.14Z"/>
  <path class="cls-2" d="M233.6,210.8l.72.42.75.23h.81s.77-.34.77-.34l.57-.84.06-.99-.39-.9-.61-.51-.72-.38v.02s.91-.02.91-.02l.74.52.68.57.41.88-.02.95-.19.94-.55.81-.81.36-.83.27-.88-.09-.81-.34-.67-.58-.42-.77-.04-.86.04-.85.11.03.15.73.21.73Z"/>
  <path class="cls-7" d="M235.91,213.1s-.03,0-.04,0l-.88-.09s-.06-.02-.09-.03l-.81-.34s-.06-.03-.08-.05l-.67-.58s-.05-.05-.07-.08l-.41-.77s-.04-.08-.04-.13l-.04-.85.04-.88c0-.09.05-.17.12-.22.07-.06.16-.08.25-.06l.11.03c.13.02.22.12.24.24l.15.73.18.59.58.34.67.2h.7s.63-.28.63-.28l.48-.69.05-.84-.33-.76-.53-.44-.58-.31c-.14-.02-.24-.13-.27-.26-.02-.11.03-.24.13-.31.09-.06.2-.08.29-.05l.79-.02c.06,0,.13.02.19.06l.74.52.71.58s.06.07.08.11l.41.88s.03.09.03.14l-.02.96s0,.04,0,.05l-.19.94s-.03.08-.05.11l-.55.81s-.08.09-.13.11l-.81.36-.03.02-.83.27s-.07.01-.1.01ZM235.11,212.4l.77.08.75-.25.72-.32.47-.69.18-.85.02-.85-.35-.75-.4-.33.31.71s.03.09.03.14l-.06,1c0,.05-.02.1-.05.15l-.57.84s-.08.08-.13.11l-.77.34s-.08.03-.13.03h-.81s-.06-.01-.09-.02l-.74-.23s-.05-.02-.07-.03l-.63-.36.26.47.59.51.72.3Z"/>
  <path class="cls-2" d="M229.38,277l-.23.71h-.11s-.11-.86-.11-.86l.39-.79.4-.78.76-.49.87-.15.86-.03.84.26.73.53.52.85.09.98-.27.92-.48.8-.61.68-.88.29-.9-.1v-.13s.82-.05.82-.05l.64-.53.41-.89.1-.98-.6-.77-.55-.62-.83-.2-.84.15-.7.47-.3.72Z"/>
  <path class="cls-7" d="M232.15,280.24s-.02,0-.04,0l-.9-.1c-.16-.02-.27-.14-.28-.3v-.13c0-.17.12-.31.29-.32l.72-.05.51-.42.35-.77.08-.81-.53-.68-.47-.53-.67-.16-.71.13-.57.39-.27.63-.22.68c-.04.12-.15.2-.27.21h-.1c-.17.03-.31-.09-.33-.26l-.11-.87c0-.06,0-.12.03-.17l.79-1.57s.06-.09.11-.11l.76-.49s.07-.04.11-.05l.87-.15s.03,0,.04,0l.86-.03s.07,0,.1.02l.84.27s.06.03.09.04l.73.53s.06.05.08.09l.52.86s.04.08.04.13l.09.98s0,.08-.01.11l-.27.92s-.02.05-.03.07l-.48.8s-.02.03-.03.05l-.61.68s-.08.07-.13.09l-.88.29s-.07.02-.1.02ZM231.23,275.35s.05,0,.07.01l.83.19c.06.02.12.05.16.09l.55.63.61.79c.05.06.07.14.06.22l-.09.98s-.02.07-.03.1l-.38.81.37-.41.45-.74.24-.83-.08-.85-.45-.74-.64-.46-.74-.23-.79.03-.79.14-.64.41-.19.37.45-.3s.07-.04.12-.05l.84-.15s.04-.01.05-.01Z"/>
  <path class="cls-2" d="M269.01,278.62l-.65-.56-.84-.09-.83-.05-.65.52-.57.76-.14.95.38.89.59.53.72.36h0s-.91,0-.91,0l-.84-.38-.66-.66-.41-.91-.06-.99.44-.87.45-.87.8-.4.84-.26.9.04.74.49.72.51.33.8.14.83.03.87-.28-.05.03-.75-.29-.72Z"/>
  <path class="cls-7" d="M267.02,282.24s-.04,0-.07,0h-.83s-.09,0-.13-.02l-.84-.38s-.07-.04-.09-.06l-.65-.66s-.05-.05-.06-.09l-.41-.91s-.03-.07-.03-.1l-.07-.99c0-.05,0-.11.04-.16l.89-1.74c.03-.06.08-.1.14-.14l.8-.4s.03-.02.05-.02l.84-.26s.07-.02.1-.02l.9.04c.05,0,.1.02.15.05l.74.48.73.51s.08.08.1.14l.33.8s.02.04.02.06l.14.83s0,.03,0,.04l.03.88c0,.09-.04.18-.11.24-.07.06-.17.09-.26.07l-.28-.05c-.15-.03-.26-.17-.24-.32l.02-.68-.23-.59-.52-.45-.74-.07-.7-.05-.53.43-.51.67-.11.79.32.74.51.45.62.32c.09.02.16.08.2.16.06.12.04.27-.06.36-.06.07-.14.09-.22.09ZM265.45,281.3l.16.07-.11-.1s-.06-.07-.08-.11l-.38-.89c-.02-.05-.03-.11-.02-.16l.14-.96c0-.05.03-.1.06-.15l.57-.76s.03-.04.06-.05l.65-.53c.06-.05.14-.07.21-.07l.83.05.85.09c.06.01.12.03.17.07l.35.3-.11-.28-.65-.45-.66-.44-.76-.04-.77.24-.69.34-.81,1.57.06.85.36.81.57.57Z"/>
  <path class="cls-2" d="M257.76,247.38l-.76-.44-.74-.41-.8.3-.35.76-.37.78-.19.74-.24-.73-.17-.84-.09-.87-.89-.33-.83.24-.77.42-.79.43.57-.72.33-.84.64-.67-.27-.89-.88-.31-.88-.29-.85-.23.88-.28.94-.16.96-.11.35-.66-.46-.85-.41-.86-.4-.8.82.42.74.66.9.39.4-.13.47-.86.3-.95.28-1.03.1,1.06.34.94.15.98.49.15.85-.46.94-.3.85-.44-.49.79-.44.85-.63.73.3.61.85.41.94.18.84.36-.85.25-.89.22-.95.04-.26.83.45.76.28.85.41.79-.72-.48ZM242.77,262.95l-.42.81-.69.59-.7.54-.81.38-.78.15.73.31.78.45.49.75.55.71.2.88.29.85.13.89-.12.95.19-.9.2-.84.45-.75.41-.76.55-.65.61-.59.68-.53.84-.29-.88-.31-.72-.51-.76-.51-.47-.78-.39-.82-.11-.93-.24.9Z"/>
  <path class="cls-2" d="M259.98,259.35l.13.82.53.61.55.57.82.27-.75.42-.62.49-.54.63-.27.78-.12.74-.17-.78-.11-.83-.34-.76-.52-.66-.83-.31.8-.22.68-.4.47-.63.31-.74Z"/>
  <path class="cls-2" d="M253.86,224.53l.2.68.44.66.56.58.7.25-.61.41-.63.48-.53.64-.18.8-.23.75-.13-.82-.19-.81-.28-.78-.49-.7-.79-.28.77-.1.57-.56.52-.57.3-.62Z"/>
  <path class="cls-2" d="M260.31,218.72l.17.81.51.76.55.72.78.45.77.42-.72.32-.71.43-.6.59-.32.78-.51.69-.19.82-.18.83.06-.89-.1-.86-.37-.8-.28-.81-.44-.76-.77-.42-.76-.34.84-.24.78-.42.69-.57.59-.7.23-.78Z"/>
  <g class="cls-6">
    <g>
      <path class="cls-8" d="M310.01,326.88l-.9.11-.84.3-.88.09-.84.28-.88.1-.85.23-.86.17-.84.3-.88.14-.85.24-.9.05-.83.31-.89.07-.86.17-.83.33-.86.18-.9.05-.83.33-.89.1-.86.18-.88.14-.85.23-.86.2-.86.18-.86.18-.88.09-.85.23-.86.22-.84.29-.88.14-.86.18-.89.08-.83.34-.86.21-.88.12-.85.23-.87.18-.89.08-.88.13-.83.34-.89.07-.85.24-.85.26-.86.2-.86.16-.92.18-.08-.93-.35-.83-.11-.88-.27-.84-.03-.9-.32-.83-.11-.88-.2-.86-.23-.85-.17-.87-.26-.85-.18-.86-.14-.88-.19-.86-.2-.86-.06-.89-.21-.85-.26-.85-.16-.87-.15-.87-.27-.84-.13-.87-.32-.84-.06-.89-.2-.86-.27-.85-.09-.89-.31-.84-.03-.9-.21-.86-.29-.85-.24-.85-.06-.89-.24-.85-.11-.88-.18-.86-.15-.88-.26-.84-.3-.84-.02-.9-.3-.84-.24-.85v-.91s-.22-.85-.22-.85l-.31-.84-.15-.87-.26-.85-.1-.89-.19-.86-.11-.88-.24-.85-.23-.85-.17-.87-.27-.85-.04-.9-.15-.87-.24-.85-.31-.84-.15-.87-.26-.85-.05-.89-.24-.85-.13-.88-.15-.87-.34-.83-.02-.9-.27-.85-.22-.86-.1-.88-.18-.87-.34-.83-.12-.88-.09-.89-.32-.83-.11-.89-.28-.84-.21-.86-.13-.88-.08-.89-.23-.85-.15-.88-.33-.91.93-.16.86-.19.88-.13.84-.27.86-.19.87-.14.86-.2.89-.07.85-.24.84-.3.9-.03.86-.21.84-.29.89-.09.83-.32.89-.07.85-.26.89-.06.84-.28.85-.22.86-.2.89-.05.85-.22.84-.28.88-.13.83-.32.9-.02.83-.31.85-.21.9-.02.86-.19.83-.35.89-.04.83-.32.88-.15.87-.17.85-.22.86-.21.89-.1.88-.14.84-.3.86-.22.86-.19.87-.18.86-.19.82-.04.32.77.09.88.24.85.22.85.05.9.31.84.09.88.17.86.34.83.19.86.09.89.1.89.19.86.24.85.23.85.24.85.08.89.14.88.31.83.05.89.28.84.19.86.11.88.28.85.25.85.06.9.26.85.17.86.2.86.22.85.18.87.07.89.27.84.19.86.26.85.11.88.16.87.11.88.34.83.21.86.15.88.09.89.32.83.21.86.02.9.28.84.2.86.17.87.08.89.34.83.07.89.27.85.25.85.11.88.08.89.25.85.19.86.17.86.17.87.31.84.22.86.12.88.06.89.37.83.14.87.21.86.02.9.19.86.36.82.13.88.08.89.25.85.3.84.02.91.38.82.14.88.13.88.11.89.27.85.1.88.34.83.16.9Z"/>
      <path class="cls-7" d="M270.24,335.82c-.07,0-.13-.03-.18-.06-.07-.05-.11-.14-.12-.22l-.08-.88-.33-.79s-.02-.05-.02-.08l-.11-.85-.26-.82s-.02-.05-.02-.08l-.03-.85-.3-.79s-.02-.05-.02-.07l-.11-.88-.19-.83-.23-.84-.17-.87-.26-.84-.18-.89-.14-.89-.18-.85-.2-.85s-.01-.03-.01-.05l-.06-.86-.2-.83-.25-.83s-.01-.03-.01-.04l-.17-.87-.14-.85-.27-.82s-.01-.04-.01-.05l-.13-.84-.31-.81s-.02-.06-.02-.09l-.06-.86-.19-.84-.26-.82s0-.04-.01-.06l-.08-.85-.3-.8s-.02-.07-.02-.1l-.03-.86-.2-.83-.28-.81-.25-.87s-.01-.04-.01-.06l-.06-.86-.23-.82s0-.03-.01-.05l-.11-.88-.18-.84-.14-.86-.26-.82-.3-.83s-.02-.07-.02-.1l-.02-.85-.29-.79-.25-.87s-.01-.06-.01-.08v-.86s-.21-.82-.21-.82l-.3-.81s-.01-.04-.02-.06l-.15-.85-.25-.83s-.01-.04-.01-.06l-.1-.86-.19-.85-.11-.89-.47-1.69-.17-.88-.26-.83s-.01-.05-.01-.08l-.04-.88-.15-.84-.23-.84-.31-.81s-.01-.04-.02-.06l-.14-.85-.24-.83s-.02-.05-.02-.07l-.04-.86-.24-.82s0-.03,0-.04l-.13-.88-.14-.83-.33-.8s-.02-.07-.02-.1l-.02-.86-.26-.8-.22-.88s0-.03,0-.04l-.1-.89-.17-.81-.33-.8s-.02-.05-.02-.08l-.12-.88-.09-.85-.31-.8s-.01-.05-.02-.07l-.1-.85-.27-.82-.22-.89-.14-.91-.08-.88-.23-.83s-.01-.02-.01-.03l-.14-.85-.32-.87c-.03-.09-.02-.18.02-.26.05-.08.13-.14.21-.15l.93-.17.84-.19.88-.13.82-.26.89-.19.89-.15.84-.2s.03,0,.05,0l.85-.07.82-.23.82-.3s.06-.02.09-.02l.87-.03.82-.2.82-.28s.05-.01.07-.02l.84-.08.8-.3s.05-.02.08-.02l.86-.07.82-.24s.04-.01.06-.01l.85-.07.81-.26.87-.23.87-.2s.04,0,.05,0l.86-.05.83-.22.82-.27s.04,0,.05-.01l.84-.13.8-.3s.07-.02.1-.02l.85-.02.79-.3s.02,0,.03-.01l.86-.21s.04-.01.07-.01l.87-.02.81-.18.8-.33s.07-.03.1-.03l.84-.04.79-.3s.04-.01.06-.02l.87-.14.86-.17.84-.22.86-.21s.03-.01.04-.01l.89-.1.83-.14.81-.29.89-.22,2.6-.57s.04,0,.05,0l.83-.03c.13-.01.24.07.3.19l.32.77s.02.06.02.08l.09.86.23.83.22.86s.01.04.01.06l.05.85.29.79s.02.05.02.07l.09.89.17.81.33.81.02.05.19.86s0,.03,0,.04l.19,1.74.19.85.71,2.54s.01.04.01.06l.08.89.13.82.31.81s.02.06.02.09l.05.85.26.8.2.89s0,.03.01.03l.1.85.27.82.24.86s.01.04.02.06l.06.86.24.81.18.9.42,1.7.19.88s0,.03,0,.04l.07.85.26.81.19.9.26.82s0,.03.01.05l.11.88.15.85.11.85.33.79.02.05.21.86.15.9.09.86.31.8s.01.03.01.04l.21.86s0,.04,0,.06l.03.85.26.8.21.89.17.89.08.87.32.79s.02.06.02.09l.06.85.26.82.25.86s.01.03.01.05l.11.88.09.86.23.83.2.88.34,1.72.29.82.23.89s0,.02,0,.04l.13.88.06.86.34.78s.02.05.02.08l.15.88.21.83s.01.04.01.06l.02.87.17.81.35.8s.02.05.02.08l.13.88.08.88.24.82.3.82s.02.07.02.1l.02.84.35.77s.02.05.03.08l.26,1.76.11.86.27.82s0,.04.01.06l.1.84.32.8s.02.04.02.06l.16.9c.02.08,0,.17-.06.24s-.13.11-.21.12l-.86.1-.8.29s-.05.02-.08.02l-.85.09-.81.27s-.04.02-.06.02l-.86.1-.83.22-.86.17-.82.29s-.04.02-.06.02l-.85.14-.84.23s-.04.01-.07.02l-.84.04-.79.3s-.05.02-.08.02l-.87.07-.82.17-.81.31s-.03.02-.05.02l-.86.18s-.03,0-.05,0l-.84.04-.78.32s-.06.02-.08.02l-.86.09-.85.18-.88.13-.83.23-.88.2-1.73.36s-.02,0-.03.01l-.86.09-.83.22-.86.21-.81.29s-.04.01-.05.01l-.88.14-.85.18s-.03,0-.03,0l-.84.08-.79.33-.05.02-.86.21s-.02,0-.03.01l-.85.12-.83.22-.89.18h-.03l-.89.09-.82.12-.8.33s-.06.02-.09.02l-.86.07-1.67.49-.88.21-1.8.34s-.05.01-.07.01ZM270.11,333.67l.33.79s.02.06.02.09l.05.59,1.45-.28.85-.2,1.69-.5s.04-.01.06-.01l.84-.07.79-.32s.05-.02.07-.02l.88-.13.89-.09.85-.17.84-.23s.03,0,.04,0l.86-.12.82-.2.81-.34s.06-.02.09-.02l.87-.08.85-.17.86-.14.81-.29,1.73-.45s.03,0,.05,0l.87-.09,1.71-.36.85-.2.84-.23s.03,0,.04,0l.88-.14.84-.18s.02,0,.03,0l.84-.09.79-.32s.06-.02.1-.02l.87-.05.82-.17.81-.32s.03-.01.05-.02l.86-.17s.03,0,.04-.01l.84-.06.79-.3s.06-.02.09-.02l.86-.04.82-.23s.02,0,.03,0l.84-.14.81-.29s.03-.01.04-.02l.86-.17.84-.22s.03,0,.05-.01l.85-.09.81-.27s.04-.01.07-.01l.84-.09.8-.29s.04-.01.07-.02l.57-.07-.09-.54-.33-.8s-.02-.05-.02-.08l-.1-.85-.26-.82s-.01-.04-.01-.06l-.11-.88-.26-1.7-.36-.79s-.03-.08-.03-.13l-.02-.85-.28-.8-.26-.86s-.01-.04-.02-.06l-.08-.89-.12-.82-.35-.79s-.02-.04-.02-.06l-.18-.86s0-.04,0-.06l-.03-.86-.21-.82-.14-.86-.35-.79s-.03-.07-.03-.1l-.06-.9-.12-.84-.21-.84-.3-.81s-.01-.03-.02-.04l-.34-1.74-.19-.85-.24-.83s0-.04,0-.06l-.09-.89-.11-.84-.24-.83-.26-.84s-.02-.05-.02-.07l-.06-.84-.32-.79s-.02-.06-.02-.09l-.08-.89-.16-.84-.2-.85-.27-.82s-.02-.06-.02-.09l-.02-.87-.2-.81-.31-.82s-.02-.05-.02-.07l-.09-.89-.15-.85-.2-.81-.33-.81s-.02-.05-.02-.08l-.11-.88-.15-.85-.11-.86-.26-.82-.19-.9-.26-.81s-.01-.04-.01-.07l-.07-.87-.18-.84-.42-1.71-.17-.88-.25-.82s-.02-.05-.02-.07l-.06-.86-.24-.82-.27-.84s-.01-.04-.01-.06l-.11-.86-.19-.84-.27-.82s-.02-.05-.02-.07l-.05-.85-.3-.79s-.01-.04-.02-.06l-.14-.87-.08-.88-.71-2.53-.2-.88s0-.02,0-.03l-.19-1.76-.18-.82-.33-.8s-.01-.04-.02-.06l-.18-.86-.09-.88-.3-.8s-.02-.06-.02-.09l-.04-.86-.46-1.67s0-.03,0-.05l-.09-.84-.22-.53-.58.03-2.57.56-.85.21-.81.29s-.04.02-.05.02l-.88.14-.88.1-.84.2-.84.22-.89.17-.85.14-.8.31s-.06.02-.1.02l-.84.04-.78.32s-.04.02-.05.02l-.86.19s-.04,0-.06,0l-.86.02-.81.2-.82.31s-.07.02-.1.02h-.85s-.79.31-.79.31c-.02.01-.04.01-.06.02l-.85.12-.82.27-.87.23s-.04.01-.06.01l-.86.05-.84.19-.84.22-.83.27s-.05.01-.07.02l-.85.06-.82.24s-.04.01-.06.02l-.84.07-.79.3s-.06.02-.08.02l-.85.08-.81.28-.89.22s-.04,0-.06,0l-.85.03-.79.28-.86.26s-.04,0-.06.01l-.87.07-.84.19-.89.15-.85.19-.82.26s-.03.01-.05.01l-.88.13-.84.19-.58.1.2.56s.02.04.02.06l.15.86.23.84s.01.04.01.06l.08.89.13.86.21.83.28.82s.01.04.01.06l.1.84.31.8s.02.05.02.08l.09.89.11.81.33.8s.01.04.02.05l.18.87.11.89.21.84.27.83s.02.06.02.09l.02.84.32.78s.02.04.02.07l.15.87.13.86.24.83s.01.05.01.07l.05.85.24.82s.01.03.01.04l.14.84.3.81.25.88s0,.02,0,.03l.15.88s0,.02,0,.04l.03.86.25.81s.01.03.01.03l.17.88.47,1.68s0,.03.01.05l.11.88.19.84s0,.02,0,.03l.09.85.25.82s0,.03,0,.04l.15.84.3.81.23.88s.01.06.01.08v.86s.22.81.22.81l.3.82s.02.06.02.1l.02.85.28.8.27.86s0,.03.01.04l.15.88.18.85.11.88.23.83s.01.04.01.06l.06.86.23.82.29.82.21.89s.01.04.01.06l.03.85.29.79s.02.05.02.08l.08.85.26.82.21.89s0,.03,0,.05l.05.85.3.79s.01.05.02.07l.13.85.27.82s.01.03.01.05l.14.87.16.85.25.83.21.88s0,.03.01.05l.06.86.2.84.18.87.14.89.17.85.26.82s0,.02.01.03l.17.87.22.83.2.88.11.87.31.8s.02.07.02.1l.03.85.26.81s.01.04.01.05l.11.83Z"/>
    </g>
  </g>
  <path class="cls-7" d="M304.83,323.77l-.84.14-.86.24-.85.32-.91.03-.88.2-.86.26-.89.11-.87.2-.86.27-.86.25-.89.13-.88.19-.88.18-.88.19-.89.12-.88.19-.84.33-.89.13-.88.18-.87.19-.9.09-.85.31-.91.04-.87.2-.87.23-.86.24-.87.22-.89.12-.88.19-.86.27-.91.05-.86.27-.89.15-.84.34-.89.15-.94.2-.14-.95-.18-.87-.25-.86-.04-.9-.26-.85-.21-.86-.23-.86-.15-.88-.26-.85-.19-.86-.16-.88-.06-.9-.32-.84-.05-.9-.36-.83-.09-.9-.3-.84-.11-.89-.24-.85-.08-.9-.24-.85-.23-.86-.23-.86-.15-.88-.24-.86-.03-.91-.33-.84-.1-.89-.23-.86-.23-.86-.05-.9-.33-1.75-.2-.86-.34-.84-.16-.88-.19-.88-.24-.85-.14-.88-.07-.9-.36-.83-.11-.89-.16-.88-.14-.89-.18-.87-.36-.83-.14-.88-.21-.86-.15-.88-.1-.89-.36-.83-.13-.89-.09-.89-.3-.85-.09-.89-.28-.85-.1-.89-.23-.86-.18-.88-.3-.84-.15-.88-.24-.86-.05-.9-.32-.84-.07-.9-.18-.88-.33-.84-.18-.87-.05-.9-.34-.84-.09-.89-.19-.88.89-.14.86-.23.88-.2,1.75-.36.9-.09.86-.23.87-.22.85-.29.88-.14.88-.18.9-.08.84-.35.87-.21.89-.13.86-.23.88-.18.9-.09.89-.13.84-.34.9-.07.86-.25.86-.26.87-.21.88-.17.88-.19.91-.06.84-.35.89-.12.86-.27.91-.03.85-.32.89-.11.88-.2.87-.23.91-.17.27.87.18.87.14.88.19.87.2.86.06.9.21.86.26.85.16.88.14.88.28.85.13.88.32.84.06.9.2.87.27.85.09.89.31.84.03.9.21.86.29.85.24.85.06.9.24.86.11.89.18.87.15.88.27.85.29.85.02.9.3.84.24.86v.91l.23.86.31.84.15.88.26.85.09.89.19.87.11.89.24.86.24.86.17.87.27.85.04.9.15.88.24.85.32.84.14.88.26.86.05.9.24.85.13.89.15.88.34.84.02.9.27.85.22.86.11.89.18.87.34.84.12.89.1.89.32.84.11.89.28.85.21.86.13.89.08.9.23.86.15.88.21.84Z"/>
  <path class="cls-7" d="M273.32,331.01c-.06,0-.13-.02-.18-.06-.07-.05-.11-.13-.13-.21l-.14-.95-.18-.85-.24-.83s-.02-.05-.02-.07l-.03-.86-.25-.81-.21-.88-.23-.85-.15-.89-.26-.83-.2-.89-.17-.88v-.04l-.06-.85-.3-.8s-.02-.06-.02-.09l-.05-.84-.34-.78s-.02-.06-.03-.09l-.08-.85-.29-.81-.02-.06-.1-.86-.23-.84s-.01-.04-.01-.06l-.07-.86-.7-2.55-.15-.89-.23-.84s-.01-.05-.02-.07l-.03-.85-.31-.79s-.02-.05-.02-.08l-.09-.86-.46-1.7s-.01-.04-.01-.06l-.05-.88-.33-1.73-.19-.84-.33-.81s-.02-.04-.02-.06l-.15-.88-.19-.86-.23-.84s-.01-.03-.01-.04l-.14-.88-.06-.87-.34-.78s-.02-.06-.03-.08l-.1-.89-.16-.86-.14-.9-.17-.82-.34-.8s-.02-.05-.03-.07l-.14-.88-.2-.84-.15-.9-.1-.86-.34-.79s-.02-.05-.02-.08l-.13-.88-.09-.87-.29-.81s-.01-.05-.02-.07l-.09-.86-.27-.82s-.01-.04-.02-.06l-.1-.86-.22-.84-.17-.87-.3-.83s-.01-.04-.02-.05l-.14-.86-.23-.84s-.01-.04-.01-.06l-.05-.85-.3-.8s-.02-.05-.02-.08l-.07-.88-.17-.83-.32-.82-.02-.05-.18-.87s0-.03,0-.05l-.05-.85-.32-.79s-.02-.06-.03-.08l-.09-.88-.18-.86c-.02-.08,0-.17.04-.24.05-.07.13-.12.21-.13l.87-.13.85-.23.89-.2,1.76-.36s.02,0,.03,0l.87-.09.84-.23.88-.22.82-.29s.04-.01.05-.01l.89-.14.86-.18s.02,0,.03,0l.85-.08.8-.33s.03-.02.04-.02l.87-.22s.02,0,.03,0l.87-.13.85-.23.9-.18h.03l.9-.09.83-.13.81-.33s.06-.02.09-.02l.87-.07,1.69-.49.89-.21,1.77-.35s.03,0,.04,0l.85-.06.79-.33s.05-.02.08-.03l.86-.11.83-.26s.05-.01.08-.01l.85-.03.8-.31s.04-.02.07-.02l.9-.11.84-.19.85-.23.93-.17c.15-.03.3.06.35.21l.28.87s0,.02.01.03l.17.87.15.89.18.85.2.86s0,.03,0,.05l.06.87.21.84.25.83s0,.02.01.04l.16.88.14.85.27.83s.01.04.01.05l.13.84.31.81s.02.06.02.09l.06.87.19.84.26.83s.01.04.01.06l.09.85.3.81s.02.06.02.09l.03.87.2.83.29.82.24.88s.01.04.01.06l.06.86.23.82s0,.03.01.05l.12.89.18.85.15.87.26.83.3.83s.02.06.02.1l.02.85.29.8.25.88s.02.06.02.09v.87s.21.82.21.82l.31.81s.01.04.02.06l.15.86.26.83s0,.04.01.06l.09.88.19.85.11.89.48,1.7.17.88.26.84s.01.05.01.08l.04.88.15.84.24.84.31.82s.01.04.02.06l.14.85.25.84s.02.05.02.07l.05.86.23.83s0,.03.01.04l.13.89.14.84.33.81s.02.07.02.11l.02.86.26.81.22.88s0,.03,0,.04l.11.89.17.82.33.81s.02.05.02.08l.12.89.09.86.31.8s.02.05.02.08l.1.85.27.82.22.89.14.91.08.89.23.83s0,.02,0,.03l.15.88.2.8c.02.08,0,.17-.04.24-.05.07-.13.12-.21.14l-.82.13-.84.24-.82.31s-.06.02-.1.02l-.88.03-.84.19-.84.25s-.03.01-.05.01l-.89.11-.84.19-.83.27-.87.24s-.03.01-.04.01l-.89.13-2.6.56-.91.13-.83.18-.82.32s-.04.02-.07.02l-.89.13-1.72.38s-.02,0-.04,0l-.85.09-.82.3s-.06.02-.09.02l-.88.04-.85.19-2.59.7s-.02,0-.04,0l-.89.12-.85.19-.83.26s-.05.01-.08.01l-.86.05-.82.26s-.03,0-.04,0l-.85.14-.81.33s-.04.02-.07.02l-.89.15-.93.2s-.06,0-.08,0ZM273.06,327.98l.24.82.18.9.1.64.62-.14.86-.15.81-.33s.04-.02.07-.02l.86-.14.84-.27s.05-.01.07-.01l.86-.05.82-.26.9-.2.9-.12.85-.22,1.72-.48.89-.2s.04,0,.05,0l.86-.04.81-.3s.05-.01.07-.01l.88-.1,1.73-.37.87-.13.81-.31s.03-.02.05-.02l.88-.19.91-.13,2.6-.55.89-.13.84-.24.85-.27.9-.2.9-.12.83-.24.89-.21s.04,0,.06,0l.85-.03.8-.3.89-.26s.03,0,.04-.01l.51-.08-.12-.5-.15-.89-.23-.85s-.01-.04-.01-.05l-.08-.9-.13-.87-.21-.84-.28-.83s-.01-.04-.01-.06l-.1-.85-.31-.8s-.02-.05-.02-.08l-.1-.89-.11-.84-.33-.8s-.01-.04-.02-.06l-.18-.87-.11-.89-.21-.84-.27-.83s-.01-.06-.02-.09l-.02-.85-.32-.79s-.02-.04-.02-.06l-.15-.88-.13-.87-.24-.83s-.01-.05-.01-.07l-.05-.86-.24-.82s-.01-.03-.01-.04l-.14-.85-.3-.81-.25-.89s0-.02,0-.03l-.15-.88s0-.03,0-.04l-.04-.86-.25-.82s0-.02-.01-.03l-.17-.88-.48-1.69s0-.03-.01-.05l-.11-.89-.19-.84s0-.02,0-.04l-.1-.86-.25-.83s0-.03-.01-.04l-.15-.85-.3-.82-.24-.89s-.01-.05-.01-.08v-.87s-.23-.82-.23-.82l-.3-.82s-.02-.06-.02-.1l-.02-.85-.28-.8-.27-.86s-.01-.03-.01-.04l-.15-.88-.18-.86-.11-.89-.23-.84s-.01-.04-.01-.06l-.06-.86-.23-.83-.29-.83-.22-.89s-.01-.04-.01-.06l-.03-.85-.29-.8s-.02-.05-.02-.07l-.09-.86-.26-.82-.21-.89s0-.04,0-.05l-.05-.85-.3-.8s-.01-.05-.02-.07l-.13-.85-.27-.82-.02-.05-.14-.88-.15-.85-.26-.83-.21-.88s0-.03-.01-.05l-.06-.87-.2-.84-.19-.88-.15-.9-.17-.84-.19-.59-.64.11-.84.23-.89.2-.89.11-.81.31s-.06.02-.1.02l-.87.03-.82.26s-.04,0-.05.01l-.85.11-.8.34s-.06.02-.09.02l-.89.06-1.74.35-.86.2-1.71.51s-.04,0-.06.01l-.85.07-.79.32s-.05.02-.07.02l-.89.13-.9.09-.86.17-.84.23s-.03,0-.04,0l-.88.13-.83.21-.82.33s-.06.02-.09.03l-.88.08-.86.18-.88.14-.83.29-1.76.46s-.03,0-.05.01l-.88.09-1.74.36-.86.2-.85.23s-.02.01-.03.01l-.57.08.13.55s0,.03,0,.03l.09.85.33.8s.02.06.02.1l.05.88.17.83.32.81s.02.04.02.05l.18.87s0,.03,0,.04l.06.85.3.81s.02.06.02.09l.05.87.23.83s0,.02,0,.03l.14.85.29.82s.01.03.02.04l.17.88.23.84s0,.03,0,.05l.1.86.27.82s.01.04.01.06l.09.85.29.81s.01.05.02.07l.09.89.12.83.34.8s.02.06.03.09l.1.89.15.86.2.85.14.86.34.8s.02.04.02.06l.18.87.14.9.16.87.1.85.35.79s.02.07.02.1l.07.9.13.84.24.84.19.89.15.85.32.81s.02.03.02.05l.2.87.34,1.76s0,.03,0,.04l.05.87.45,1.68s0,.03.01.05l.09.85.31.8s.02.07.02.1l.03.86.23.82s0,.02,0,.03l.15.88.7,2.54s.01.04.01.06l.07.86.23.83s0,.03.01.04l.1.85.29.81s.01.05.02.07l.08.84.35.79s.02.07.02.1l.05.85.3.8s.02.06.02.09l.06.88.16.85.18.86.26.83s0,.03.01.04l.15.88.23.83.21.87.26.83s.01.05.01.08l.05.87Z"/>
  <path class="cls-2" d="M294.86,258.79l.02-.75.06-.02.24.81-.02.85-.35.77-.48.71-.7.54-.87.23-.88-.15-.83-.3-.72-.67-.27-.93-.22-.94.21-.97.56-.73.8-.43.86-.18-.02-.08-.69.46-.44.68-.32.93.37.92.68.65.72.35.8-.1.72-.33.66-.52.11-.77Z"/>
  <path class="cls-7" d="M292.76,262.24s-.04,0-.05,0l-.88-.15s-.04,0-.05-.01l-.83-.3s-.08-.04-.11-.06l-.72-.67s-.07-.08-.08-.14l-.27-.94-.22-.95s-.01-.09,0-.14l.21-.97s.03-.08.05-.12l.57-.73s.06-.07.1-.09l.81-.43s.05-.03.08-.03l.59-.13.14-.1c.09-.06.2-.07.3-.03.09.04.16.13.18.23l.02.09c.03.16-.08.32-.24.35l-.15.03-.4.26-.39.59-.27.79.3.74.6.57.6.29.66-.08.64-.3.54-.42.08-.63.02-.74c0-.13.09-.24.21-.28l.06-.02c.08-.03.17-.03.24.02.08.04.14.1.16.18l.24.81s.01.06.01.09l-.03.85s0,.08-.03.11l-.34.77s-.02.04-.03.05l-.48.71s-.04.05-.06.07l-.7.55s-.07.04-.11.05l-.86.23s-.05.02-.08.02ZM291.97,261.47l.78.14.74-.19.61-.48.44-.65.12-.26-.38.29s-.04.03-.06.04l-.72.33s-.06.02-.09.03l-.8.1c-.06.01-.12,0-.17-.03l-.72-.35s-.06-.03-.08-.06l-.68-.65s-.06-.07-.07-.1l-.37-.92c-.03-.07-.03-.15,0-.21l.32-.93s.02-.04.03-.07l.07-.09-.12.06-.48.63-.18.84.2.87.24.83.61.57.74.26Z"/>
  <path class="cls-2" d="M256.27,267.84l.73.43.84-.11.71-.36.62-.51.33-.91-.17-.96-.6-.74-.66-.49-.83-.02-.04-.11.91-.2.92.17.71.59.59.73.38.88-.09.95-.31.89-.51.73-.83.33-.85.22-.9-.06-.82-.4-.58-.67-.27-.82-.08-.83h-.03s.4.65.4.65l.42.63Z"/>
  <path class="cls-7" d="M258.14,269.65h-.02l-.9-.06s-.07-.02-.11-.03l-.82-.4s-.07-.04-.1-.07l-.58-.67s-.05-.06-.06-.1l-.28-.82s-.01-.04-.02-.07l-.07-.73c-.05-.1-.04-.22.03-.32.07-.1.2-.15.32-.12.11.03.22.13.25.23l.33.56.37.56.58.34.68-.09.64-.32.53-.43.28-.76-.14-.8-.53-.65-.55-.41-.73-.02c-.14,0-.26-.09-.29-.22l-.03-.11c-.02-.08-.02-.17.03-.24s.12-.13.2-.14l.91-.2s.08-.01.12,0l.92.17c.05.01.1.03.14.07l.7.59s.03.03.04.04l.6.72s.03.05.05.07l.37.88s.03.1.03.15l-.09.95s0,.05-.02.07l-.31.9s-.02.05-.04.07l-.51.73c-.04.05-.08.09-.15.11l-.83.33s-.02.01-.04.01l-.85.22s-.05.01-.07.01ZM257.32,268.98l.79.06.78-.2.73-.29.43-.62.28-.82.08-.83-.33-.77-.55-.67-.62-.52-.2-.04.21.15s.04.04.06.06l.6.74s.05.09.06.15l.17.95c.01.05,0,.11-.02.16l-.33.91c-.02.05-.05.1-.09.14l-.63.51s-.04.03-.05.04l-.71.36s-.06.03-.1.03l-.84.11c-.07,0-.14-.01-.19-.04l-.66-.38.42.48.71.34Z"/>
  <g class="cls-4">
    <path class="cls-2" d="M270,332.75l.11.73-.24.08-.09-.86.02-.82.23-.8.49-.73.72-.52.89-.09.87.03.81.34.69.68.33.9.16.93-.14.98-.6.7-.77.48-.85.3v-.07s.67-.46.67-.46l.46-.66.2-.92-.3-.9-.55-.81-.81-.26-.83.03-.76.35-.55.64-.18.74Z"/>
  </g>
  <g class="cls-5">
    <path class="cls-7" d="M272.63,335.37c-.06,0-.11-.02-.17-.05-.08-.06-.13-.14-.14-.23v-.08c-.02-.11.04-.22.13-.28l.63-.43.4-.56.17-.79-.26-.77-.46-.69-.65-.2-.72.03-.65.3-.45.53-.15.61.1.68c.02.15-.06.28-.2.33l-.24.09c-.09.03-.19.02-.27-.03-.08-.05-.14-.14-.14-.23l-.09-.86v-.04l.02-.82s.01-.05.02-.08l.23-.8s.02-.06.04-.09l.49-.72s.05-.06.07-.08l.73-.52s.09-.05.15-.05l.89-.1h.04l.87.03s.07.01.11.03l.81.33s.07.04.1.07l.69.68s.05.07.07.11l.33.89s.01.04.02.06l.16.94s0,.06,0,.09l-.14.98c-.01.06-.03.11-.07.16l-.6.7s-.04.04-.07.06l-.77.48s-.04.02-.06.03l-.86.3s-.06.01-.1.01ZM272.31,330.68s.07,0,.09.02l.81.26c.06.02.12.06.16.12l.55.81s.03.05.04.08l.3.9c.02.05.02.1,0,.16l-.2.93s-.02.08-.05.11l-.03.04.06-.04.52-.59.12-.84-.14-.86-.3-.8-.6-.59-.71-.29-.79-.03-.78.08-.61.44-.44.64-.07.24.25-.29s.06-.06.1-.07l.76-.35s.08-.03.12-.03l.83-.04s.01,0,.01,0Z"/>
  </g>
  <path class="cls-2" d="M308.58,323.75l-.72-.4-.82.06-.73.31-.59.54-.27.91-.02.99.6.82.78.31.8-.02.05.21-.91.2-.91-.22-.79-.46-.62-.76-.32-.92-.03-.98.51-.83.54-.67.76-.42.85-.19.89.06.74.48.64.58.33.79.03.84-.03.02-.33-.66-.45-.59Z"/>
  <path class="cls-7" d="M306.77,328s-.05,0-.08,0l-.9-.22s-.06-.02-.08-.04l-.8-.46s-.06-.04-.09-.07l-.62-.76s-.04-.06-.05-.09l-.32-.92s-.02-.06-.02-.09l-.03-.98c0-.06.01-.12.05-.17l.51-.83s.02-.02.03-.03l.54-.67s.06-.05.09-.07l.76-.42s.06-.03.08-.03l.85-.19s.06-.01.09,0l.89.06c.05,0,.1.02.15.05l.74.48s.03.02.04.03l.64.57s.06.07.08.11l.34.79s.03.07.03.11l.03.84c0,.12-.06.23-.16.29l-.03.02c-.07.04-.16.05-.24.02-.08-.03-.15-.08-.18-.16l-.32-.64-.39-.51-.58-.33-.67.05-.64.28-.49.44-.23.79-.02.84.49.67.64.26.74-.02h0c.15,0,.27.1.3.24l.04.2c.04.17-.07.33-.23.36l-.91.2s-.05,0-.07,0ZM305.27,326.78l.41.24-.49-.67c-.04-.05-.06-.12-.06-.19l.02-.99s.01-.05.02-.08l.27-.91c.02-.05.05-.1.08-.14l.59-.54s.06-.04.09-.05l.73-.32s.06-.02.1-.02l.82-.06c.06,0,.12,0,.17.04l.66.36-.48-.43-.66-.43-.77-.05-.76.17-.67.37-.49.61-.45.73.03.85.29.83.55.68Z"/>
  <path class="cls-2" d="M280.96,291.49l-.26-.73.05-.77.1-.79.09-.82-.18-.83-.44-.77-.58-.57.73.25.7.49.69.52.47.73.13.85.15.88.27.88.79.34-.63.41-.72.47-.86.11-.49-.66Z"/>
  <path class="cls-7" d="M281.45,292.29s-.09-.02-.12-.06l-.49-.66s-.02-.03-.03-.04l-.26-.73s0-.04,0-.06l.05-.77.11-.8.08-.8-.17-.79-.42-.73-.56-.55c-.05-.05-.06-.13-.02-.19.04-.06.11-.08.18-.06l.73.26s.02.02.04.02l.7.48.69.52s.03.03.04.04l.47.73s.02.04.02.06l.13.85.15.88.24.8.72.31c.05.02.08.07.09.12,0,.05-.02.11-.07.14l-1.35.88s-.04.02-.06.03l-.86.11h-.03ZM281.09,291.41l.43.57.74-.1,1.08-.71-.53-.22s-.07-.05-.09-.1l-.26-.88-.16-.89-.13-.83-.43-.68-.66-.5-.68-.47-.07-.03.1.1s.02.02.02.03l.44.77s.02.03.02.04l.18.83v.05l-.08.83-.1.8-.05.72.23.67Z"/>
  <path class="cls-2" d="M277.4,293.56l-.52-.6-.16-.78-.11-.79-.06-.84-.45-.76-.71-.53-.79-.39.85.04.82.23.76.38.72.46.45.75.3.84.59.68.84.13-.45.63-.65.56-.72.46-.7-.47Z"/>
  <path class="cls-7" d="M278.1,294.18s-.06,0-.09-.02l-.69-.47s-.02-.02-.03-.02l-.52-.6s-.03-.04-.04-.07l-.15-.78-.12-.8-.06-.82-.42-.7-.69-.52-.77-.37c-.06-.03-.1-.1-.08-.17.02-.07.08-.12.15-.11l.85.04s.02,0,.04,0l.82.23.78.39.74.47s.04.03.05.05l.45.76.3.83.53.61.78.11c.05.01.09.04.11.09.02.05.02.1-.02.14l-.44.63s-.02.02-.03.03l-.65.56-.74.47s-.06.03-.08.03ZM277.5,293.45l.6.41.64-.4.61-.53.29-.42-.59-.09s-.07-.03-.09-.05l-.59-.68s-.02-.03-.03-.05l-.3-.83-.42-.7-.7-.45-.73-.37-.78-.22h-.1s.13.06.13.06l.73.54s.03.03.04.05l.45.75s.02.05.02.07l.06.84.11.78.15.73.48.55Z"/>
  <path class="cls-2" d="M284.82,291.41l.11-.76.46-.63.55-.58.56-.63.4-.8-.04-.9-.29-.9.56.72.39.77.15.84.07.87-.41.77-.45.78-.07.9.48.73-.85.03-.84-.13-.73-.36-.06-.74Z"/>
  <path class="cls-7" d="M286.46,292.79l-.86-.14s-.03,0-.05-.01l-.73-.36c-.05-.02-.08-.07-.08-.13l-.05-.74v-.04l.11-.76s.01-.05.03-.07l.46-.63.56-.59.54-.61.38-.74-.04-.83-.28-.89c-.02-.07.01-.15.07-.18.07-.04.15-.02.19.04l.56.72.4.79s.02.03.02.05l.15.84.07.88s0,.06-.02.08l-.4.77-.44.76-.07.82.45.69s.04.1.01.15c-.03.05-.07.08-.13.08l-.85.04ZM285.66,292.37l.82.13.56-.02-.33-.51s-.03-.06-.03-.09l.07-.9s.01-.04.02-.06l.45-.78.38-.73-.06-.82-.14-.81-.42-.79.04.1s0,.03,0,.04l.04.9s0,.05-.02.08l-.4.8s-.01.02-.02.03l-.55.63-.55.58-.43.58-.11.71.05.64.64.31Z"/>
  <path class="cls-2" d="M274.67,297.19l-.68-.38-.48-.62-.34-.72-.35-.78-.77-.41-.8-.35-.97-.05.92-.23.83-.16.84.07.83.21.67.56.53.74.86.36.88-.34-.23.89-.34.79-.62.59-.76-.18Z"/>
  <path class="cls-7" d="M275.44,297.52s-.03,0-.04,0l-.77-.18s-.03,0-.04-.02l-.68-.38s-.04-.02-.05-.04l-.48-.63s-.01-.02-.02-.03l-.68-1.46-.72-.38-.77-.33-.94-.05c-.08,0-.14-.06-.15-.14,0-.07.04-.14.11-.16l.92-.23.84-.16h.04l.84.07.86.21s.04.02.06.03l.67.56s.02.02.03.03l.51.71.76.32.82-.32c.05-.02.11-.01.15.03.04.04.06.09.05.15l-.23.89-.34.81s-.02.04-.04.05l-.61.59s-.06.04-.1.04ZM274.73,297.05l.67.16.54-.52.32-.76.15-.58-.6.24s-.07.01-.11,0l-.86-.36s-.05-.03-.06-.05l-.52-.73-.63-.53-.8-.2-.8-.06-.76.14s.02,0,.03.01l.8.35.78.41s.05.04.07.07l.69,1.48.45.59.64.35Z"/>
  <path class="cls-2" d="M288.67,292.4l.6-.49.63-.48.79-.05.84-.35.61-.66.38-.81.19-.85.11.83v.85s-.18.83-.18.83l-.37.79-.71.49-.65.61-.55.68.19.92-.83-.46-.73-.43-.52-.65.2-.78Z"/>
  <path class="cls-7" d="M290.56,294.87s-.05,0-.07-.02l-.84-.46-.73-.43s-.03-.02-.04-.04l-.52-.65s-.04-.08-.03-.13l.2-.78s.03-.06.05-.08l.6-.49.63-.48s.05-.03.08-.03l.77-.05.78-.32.57-.63.36-.77.18-.84c.02-.07.08-.13.16-.11.07,0,.13.06.14.13l.11.83v.87s-.18.86-.18.86c0,.02,0,.03-.01.04l-.37.78s-.03.04-.05.06l-.71.49-.63.6-.49.61.18.85c.01.06-.01.11-.06.15-.03.02-.06.03-.09.03ZM289.1,293.71l1.26.71-.13-.59s0-.09.03-.13l.55-.68.66-.63.69-.49.34-.73.16-.81v-.8s0,.03,0,.03c0,.01,0,.02-.01.03l-.38.81s-.02.03-.02.04l-.61.66s-.03.03-.05.04l-.84.35s-.03.01-.05.01l-.75.05-1.15.91-.17.66.45.57Z"/>
  <path class="cls-2" d="M274.81,301.75l-.8.03-.75-.3-.67-.44-.71-.53h-.9s-.85.27-.85.27l-.79.48.51-.75.76-.43.67-.54.85-.07.82.08.9.16.9-.16.57-.68.23.81.14.84-.11.84-.76.37Z"/>
  <path class="cls-7" d="M274.02,301.93s-.04,0-.06-.01l-.76-.3-.7-.45-.68-.5-.83-.02-.81.27-.78.47c-.06.04-.14.02-.19-.03-.05-.05-.06-.13-.02-.19l.51-.75s.03-.04.05-.05l.76-.43.65-.53s.05-.03.08-.03l.85-.07.85.08.88.16.82-.14.53-.64s.09-.06.15-.05c.05.02.1.05.11.1l.23.81.15.86s0,.03,0,.04l-.1.84c-.01.05-.04.09-.08.12l-.75.36s-.04.02-.06.02l-.8.04s0,0,0,0ZM270.98,300.37s0,0,0,0h.91s.06.03.09.04l.71.53.67.43.69.27.74-.03.65-.32.09-.74-.14-.82-.15-.52-.39.46s-.06.05-.09.05l-.9.16s-.04,0-.05,0l-.9-.16-.81-.08-.78.06-.64.51-.74.42-.1.16.2-.13s.03-.01.03-.02l.85-.28s.03,0,.05,0Z"/>
  <path class="cls-2" d="M291.45,295.03l.7-.31.76-.17.79.11h.88s.84-.34.84-.34l.49-.76.58-.65-.07.85-.33.8-.49.71-.64.59-.85.16-.88.27-.72.57-.15.91-.69-.59-.37-.79-.41-.74.56-.63Z"/>
  <path class="cls-7" d="M292.36,297.92s-.07-.01-.1-.04l-.69-.59s-.03-.03-.04-.05l-.37-.78-.4-.74c-.03-.06-.02-.13.02-.17l.56-.63s.03-.03.05-.04l.7-.31.79-.18s.03,0,.05,0l.78.11h.83s.77-.31.77-.31l.47-.71.6-.67s.11-.06.17-.04c.06.03.09.09.09.15l-.07.85s0,.03-.01.04l-.33.8s0,.02-.02.03l-.48.72s-.02.02-.02.03l-.65.58s-.05.03-.07.04l-.85.16-.83.26-.65.52-.15.85c0,.05-.05.1-.09.11-.02,0-.04,0-.06,0ZM291.79,297.09l.46.4.1-.64s.03-.07.06-.09l.71-.57s.03-.02.05-.03l.88-.27.83-.15.6-.55.47-.69.31-.76.04-.38-.28.31-.48.74s-.04.04-.07.05l-.83.33s-.04.01-.06.01h-.88s-.78-.09-.78-.09l-.73.16-.64.29-.46.52.35.66.35.76Z"/>
  <path class="cls-2" d="M274.08,302.93l-.16-.86v-1.76l.26-.85.05-.88.31-.82.19-.85.45-.76.39-.79.49-.72.58-.66.65-.58.68-.55.74-.47.79-.4.81-.34.88-.15.82-.35h.9s.86-.13.86-.13l.88-.13h.88l.88.1.82.34.83.24.79.37.74.45.77.41.59.66.76.48.49.73.49.73.44.76.46.75.25.84.3.82.3.85-.88.26-.91.09-.86.28-.89.18-.91.08-.87.26-.87.26-.91.06-.87.26-.91.06-.85.33-.89.19-.91.08-.87.25-.86.29-.89.17-.89.15-.87.24-.91.1-.87.23-.9.14-.85.32h-.89s-.07-.78-.07-.78Z"/>
  <path class="cls-7" d="M274.15,303.85c-.08,0-.14-.06-.15-.14l-.07-.77-.16-.85v-1.79s0-.03,0-.04l.25-.83.05-.86s0-.03.01-.05l.31-.82.19-.84s.01-.03.02-.04l.45-.76.39-.78.51-.74.59-.67.66-.6.69-.55.76-.48.8-.41.82-.34s.03-.01.04-.01l.86-.14.8-.34s.04-.01.06-.02l.9.02.84-.14.88-.13h.9s.9.1.9.1c.02,0,.03,0,.04.01l.82.34.82.23.81.38.76.45.77.41s.03.02.04.03l.57.64.74.48s.03.03.05.04l.98,1.46.45.76.46.74s.01.03.02.04l.25.85.6,1.67s0,.08-.01.12c-.02.04-.05.06-.09.07l-.88.26-.92.09-.85.28-.91.18-.92.09-1.71.51s-.02,0-.03,0l-.89.06-.85.26s-.02,0-.04,0l-.89.06-.83.32-.91.2-.93.08-.84.24-.85.28-.91.18-.9.15-.85.24-.93.1-.85.23-.9.14-.84.31s-.03.01-.05.01h-.89ZM274.07,300.33v1.74l.16.83.07.65h.72s.83-.31.83-.31c.01,0,.02,0,.03-.01l.9-.13.86-.23.93-.1.84-.24.91-.15.89-.18.84-.28.88-.25.94-.08.86-.19.83-.32s.03-.01.04-.01l.9-.06.85-.26s.03-.01.04-.01l.9-.06,1.72-.52.94-.09.88-.17.84-.28s.02-.01.03-.01l.91-.09.7-.2-.54-1.52-.25-.83-.45-.73-.45-.76-.96-1.43-.73-.47s-.02-.02-.03-.03l-.57-.64-.75-.4-.76-.45-.77-.36-.81-.23-.82-.34-.85-.1h-.86s-1.71.28-1.71.28h-.89s-.79.32-.79.32c-.02,0-.03.01-.04.01l-.86.14-.8.33-.78.4-.73.46-.67.54-.65.58-.57.65-.49.71-.38.77-.44.74-.19.83-.31.82-.05.85s0,.03,0,.04l-.25.82Z"/>
  <path class="cls-2" d="M274.25,302.94l-.03-.87.24-.84v-.9l.34-.81.34-.81.39-.78.4-.78.6-.64.58-.65.59-.65.66-.58.8-.38.74-.48.82-.32.86-.17.83-.29.85-.22.89.03.87-.1.86.17.88-.02.86.19.79.38.82.3.81.34.72.51.65.59.67.57.51.71.57.66.43.76.55.69.23.75-.81.38-.92.07-.88.21-.88.23-.88.26-.91.07-.86.32-.91.05-1.74.52h-.93s-.87.25-.87.25l-.85.33-.91.07-.87.24-.89.18-.89.17-.91.09-.87.26-.88.19-.89.19-.9.13-.85.19.1-.78Z"/>
  <path class="cls-7" d="M274.15,303.88s-.08-.01-.1-.04c-.04-.03-.06-.08-.05-.13l.09-.78-.03-.85s0-.03,0-.05l.24-.82v-.88s0-.04.01-.06l.68-1.62.8-1.57s.02-.02.02-.04l.61-.64,1.17-1.29.68-.59s.02-.02.04-.02l.8-.38.72-.47.85-.33.9-.18.81-.28.86-.22s.03-.01.04,0l.89.03.85-.1s.03,0,.05,0l.84.16.87-.02s.02,0,.04,0l.85.19s.02,0,.03.02l.79.38.81.29.82.34s.02.01.03.02l.72.51.67.6.67.56s.02.02.03.03l.51.72.56.65.45.78.54.67s.02.03.03.05l.23.75c.03.07-.01.15-.08.18l-.81.37s-.03.02-.05.02l-.91.07-.85.21-.88.23-.87.25-.92.07-.84.31s-.03.01-.04.01l-.9.05-1.72.52s-.03,0-.05,0h-.9l-.85.24-.84.32s-.03.01-.04.01l-.91.07-.84.24-1.78.35-.92.09-.84.26-1.78.39-.91.13-.84.19s-.01,0-.02,0ZM274.37,302.09l.03.85-.07.59.65-.15.91-.13,1.76-.39.86-.26.93-.09,1.76-.35.86-.24.92-.08.83-.32.89-.26s.03,0,.04,0h.9l1.72-.52s.02,0,.03,0l.89-.05.84-.31s.03-.01.04-.01l.91-.07.84-.24.88-.23.89-.21.91-.07.67-.3-.18-.6-.53-.67-.45-.78-.55-.64-.51-.71-.66-.55-.66-.59-.69-.48-.8-.33-.81-.29-.79-.38-.82-.19-.86.02h-.03l-.84-.17-.85.1-.89-.03-.83.22-.82.28-.89.17-.79.31-.71.47-.8.38-.65.56-1.76,1.91-.78,1.54-.66,1.58v.87s0,.03,0,.04l-.23.82Z"/>
  <path class="cls-2" d="M289.12,296.69v.94s-.13.94-.13.94l-.46.83-.38.87-.71.62-.82.24-.82.26h-.88s-.83.23-.83.23l-.81.32-.87.07-.83.23-.86-.42-.76-.54-.59-.72-.6-.7-.43-.83-.27-.89-.05-.85v-.84s.15-.84.15-.84l.15-.88.77-.49.8-.41.84-.32.88-.18.86-.22.83-.26h.86l.85-.15.86.14.85.1.88.1.7.79.4.96.32.97.11.93Z"/>
  <path class="cls-7" d="M281.58,302.39s-.05-.01-.06-.02l-.86-.42-.79-.56-.03-.03-.59-.72-.6-.7s-.02-.02-.02-.03l-.42-.83-.28-.91s-.01-.03-.01-.04l-.05-.85.02-.86.29-1.74s.03-.08.07-.1l.77-.49.81-.41.85-.32.91-.18.85-.22.82-.26s.03,0,.04,0h.86l.83-.15h.05l.85.14,1.72.2s.07.03.1.05l.69.79s.02.02.03.04l.41.96.32.99s0,.02,0,.03l.1.93v.95s-.13.96-.13.96c0,.02-.01.04-.02.05l-.46.83-.37.86s-.03.04-.04.05l-.71.61s-.03.03-.05.03l-1.65.5s-.02.01-.05.01h-.86s-.81.22-.81.22l-.8.31s-.03.01-.04.01l-.87.07-.8.23s-.01,0-.03,0ZM280.06,301.17l.75.53.79.38.78-.22.87-.07.79-.31.84-.24s.03-.01.04-.01h.86s1.6-.48,1.6-.48l.66-.57.36-.84.45-.82.13-.91v-.92s-.1-.9-.1-.9l-.32-.96-.39-.92-.64-.73-1.68-.2-.84-.14-.83.14h-.87s-.81.26-.81.26l-.87.22-.89.18-.81.32-.79.4-.7.45-.28,1.65v.82s.04.82.04.82l.27.88.41.79.59.69.58.72Z"/>
  <path class="cls-7" d="M283.14,299.52l-.91-.11-.86-.32-.76-.51-.56-.72-.46-.76-.39-.82v-1.08s.11-1.09.11-1.09l.8-.28.76-.31.76-.34.79-.24.97-.08.96-.1h.96s.93.13.93.13l.63.73.2.96.08.89-.05.9-.36.82-.35.85-.78.5-.7.58-.89.18-.89.22Z"/>
  <path class="cls-7" d="M283.14,299.67h-.02l-.92-.11s-.02,0-.03-.01l-.86-.32s-.02,0-.03-.02l-.76-.51s-.03-.02-.03-.03l-.56-.72-.47-.77-.4-.83s-.02-.04-.02-.06v-1.08s.11-1.11.11-1.11c0-.06.05-.1.1-.13l.81-.28.75-.3.75-.33.81-.26s.02,0,.03,0l.97-.08.95-.1h.98s.95.13.95.13c.04,0,.07.02.09.05l.63.73s.03.04.04.07l.2.96.08.91-.05.92s0,.04-.01.05l-.72,1.67s-.03.05-.06.07l-.78.51-.68.57s-.04.03-.07.03l-.89.18-.88.23s-.02,0-.04,0ZM282.27,299.26l.86.11.86-.23h.01l.85-.17.67-.56.75-.48.69-1.6.05-.87-.07-.86-.19-.91-.57-.66-.88-.12h-.95s-.94.1-.94.1l-.96.07-.78.24-.73.33-.77.31-.72.26-.09,1v1.03s.36.79.36.79l.46.74.54.68.72.49.82.3Z"/>
  <path class="cls-2" d="M282.53,297l-.86-.47-.66-.67-.44-.84v-.74s.06-.8.06-.8l.95-.13.84-.35.79-.03.77-.07.75-.09.48.49.15.69.17.97-.39.92-.8.56-.82.49-.98.06Z"/>
  <path class="cls-7" d="M282.53,297.15s-.05,0-.07-.02l-.86-.47s-.02-.02-.03-.03l-.67-.67s-.02-.03-.03-.04l-.44-.84s-.02-.05-.02-.07v-.74s.06-.81.06-.81c0-.07.06-.13.13-.14l.93-.13.82-.34s.04-.02.05-.02l.79-.03.76-.07.74-.09s.09,0,.13.04l.47.5s.04.04.04.07l.16.69.17.98s0,.06-.01.08l-.39.92s-.03.05-.05.07l-.8.56-.83.5s-.04.02-.07.02l-.98.07s0,0-.01,0ZM281.77,296.41l.8.44.9-.06.79-.47.76-.54.36-.84-.16-.93-.14-.64-.4-.41-.67.09-.78.07-.76.03-.82.34s-.03.01-.04.01l-.83.11-.05.68v.69s.4.79.4.79l.64.64Z"/>
  <path class="cls-7" d="M282.7,293.2l.54.88.85-.1-.5.69.41.84-.88-.33-.65.61-.1-.82-.79-.51.93-.29.18-.98Z"/>
  <path class="cls-7" d="M282.49,295.94s-.03,0-.05-.01c-.05-.02-.09-.07-.1-.13l-.09-.74-.73-.47s-.07-.09-.07-.15c.01-.06.05-.1.11-.13l.84-.26.15-.89c.01-.06.06-.11.12-.13.06-.01.13.02.16.07l.49.8.76-.09c.06-.01.11.02.15.07s.03.11,0,.16l-.45.63.38.75c.03.06.02.13-.03.17s-.1.06-.16.04l-.79-.29-.58.55s-.07.05-.11.05ZM281.95,294.52l.52.33s.06.06.07.11l.06.52.43-.41s.1-.05.16-.03l.53.19-.24-.49s-.02-.11.01-.15l.3-.42-.52.06c-.06,0-.11-.02-.15-.07l-.33-.54-.1.59c0,.05-.05.1-.1.11l-.62.19Z"/>
  <path class="cls-2" d="M269.6,284.39l.7-.39-.4.71-.51.57.38.66.28.78-.72-.45-.55-.63-.72.32-.69.47.43-.71.39-.57-.13-.72-.34-.58.49.45.66.45.72-.35Z"/>
  <path class="cls-2" d="M290.16,280.13l.36-.7.35-.73.04.81-.06.77.66.36.67.39-.77.02-.69.02-.33.65-.47.71-.08-.83.17-.8-.69-.41-.61-.31.67-.13.79.17Z"/>
  <path class="cls-2" d="M279.89,276.14h.72s-.64.35-.64.35l-.65.37-.11.73v.7l-.36-.62-.35-.64-.69-.08-.77-.02.66-.4.64-.33.03-.73.11-.68.36.57.27.73.77.04Z"/>
  <path class="cls-2" d="M272.27,277.05l.68-.45-.39.79-.24.83.18.85.33.81.59.66.85.25.84.19.81-.09-.52.54-.8.3-.83.25-.82-.27-.74-.38-.59-.6-.39-.74-.16-.83.21-.81.35-.76.64-.54Z"/>
  <path class="cls-2" d="M287.6,275.02l.63.57-.88-.02-.83.17-.73.44-.49.69-.36.77-.02.85.14.85.53.71-.71-.38-.72-.44-.49-.71-.12-.85v-.84s.36-.76.36-.76l.56-.61.62-.6.85-.16.84.11.83.21Z"/>
  <path class="cls-2" d="M274.82,311.88l-.33.63-.43.52-.05-.67.1-.81-.74-.29-.59-.41.71.1.7-.13.37-.65.42-.72.03.82v.73s.67.33.67.33l.64.46-.79.05-.71.03Z"/>
  <path class="cls-2" d="M295.36,307.6l-.74.24.49-.61.29-.66-.19-.68-.38-.76.61.61.67.47.66-.43.69-.29-.36.67-.39.56.18.69.34.69-.56-.53-.67-.32-.64.34Z"/>
  <path class="cls-2" d="M287.64,315.37l.1.77-.12.76-.44-.64-.27-.71-.73-.04-.77-.05.67-.36.72-.27-.11-.8.12-.74.37.64.28.76.81.05.74-.04-.67.32-.69.36Z"/>
  <path class="cls-2" d="M280.24,317.04l-.76-.41-.4-.76-.24-.81v-.84s.3-.8.3-.8l.58-.6.65-.53.83-.15.84-.09.85.34-.94.18-.73.47-.54.68-.37.8.08.88.22.83.41.79.78.45h-.82s-.76-.42-.76-.42Z"/>
  <path class="cls-2" d="M295.24,313.5l-.82.31-.84.14-.84-.13-.72-.43-.69-.51-.38-.77-.04-.84v-.85l.38-.77.57-.56-.06.85.11.83.31.82.67.56.76.44.88.05.86-.1.74-.46-.39.69-.49.72Z"/>
</svg>