<?xml version="1.0" encoding="UTF-8"?>
<svg id="Layer_14" xmlns="http://www.w3.org/2000/svg" xmlns:xlink="http://www.w3.org/1999/xlink" viewBox="0 0 538.59 494.63">
  <defs>
    <style>
      .cls-1 {
        fill: none;
      }

      .cls-2 {
        fill: #f4cf88;
      }

      .cls-3 {
        clip-path: url(#clippath-1);
      }

      .cls-4 {
        clip-path: url(#clippath-3);
      }

      .cls-5 {
        clip-path: url(#clippath-2);
      }

      .cls-6 {
        fill: #101111;
      }

      .cls-7 {
        fill: #6c5c25;
      }

      .cls-8 {
        clip-path: url(#clippath);
      }

      .cls-9 {
        fill: #d46ba9;
      }
    </style>
    <clipPath id="clippath">
      <rect class="cls-1" x="228.37" y="261.59" width="41.33" height="68.77"/>
    </clipPath>
    <clipPath id="clippath-1">
      <rect class="cls-1" x="227.04" y="261.59" width="42.67" height="68.77"/>
    </clipPath>
    <clipPath id="clippath-2">
      <rect class="cls-1" x="231.04" y="153.37" width="28" height="109.56"/>
    </clipPath>
    <clipPath id="clippath-3">
      <rect class="cls-1" x="212.85" y="248.26" width="70" height="22.67"/>
    </clipPath>
  </defs>
  <g class="cls-8">
    <path class="cls-7" d="M252.4,262.84l.11,1.16.08,1.23v1.23s-.09,1.23-.09,1.23l.16,1.23v1.23s.05,1.23.05,1.23v1.23s.11,1.22.11,1.22l.07,1.23.06,1.23.2,1.22-.08,1.24.13,1.23.19,1.22.04,1.23.23,1.21.05,1.23.28,1.21.3,1.2.08,1.23.32,1.19.45,1.14.33,1.16.29,1.19.56,1.08.44,1.14.66,1.03.47,1.13.75.96.7.99.83.89.72.99.92.8.91.81,1.06.6.96.75,1.02.68,1.18.36,1.1.5,1.17.38-1.28.26-1.15.51-1.07.65-1.11.55-1.17.46-1.08.63-1.06.65-.96.8-1.07.64-.96.79-.98.76-1.02.73-.9.87-.79.97-.83.93-.72,1.01-.79.96-.83.95-.47,1.17-.66,1.06-.58,1.1-.37,1.19-.55,1.13-.17,1.24-.3,1.21-.17,1.23-.14,1.25-.28-1.2-.26-1.2-.3-1.18-.57-1.09-.47-1.12-.49-1.1-.62-1.05-.51-1.11-.65-1.04-.58-1.08-.9-.85-.74-.96-.82-.91-.71-1.01-.98-.74-.74-.99-1.05-.65-.83-.91-1.03-.67-.86-.89-1.05-.63-1.07-.59-.95-.78-1.13-.49-1.08-.56-.98-.61,1.02-.58,1.06-.6,1.14-.52.93-.81.89-.86.96-.79.81-.93.79-.95.55-1.13.66-1.04.78-.97.43-1.17.58-1.08.41-1.16.38-1.17.45-1.15.53-1.11.13-1.23.39-1.16.28-1.19.27-1.18.06-1.23.35-1.17.04-1.22.24-1.2.23-1.2-.03-1.23.12-1.21.2-1.21-.02-1.22-.03-1.22.12-1.21-.1-1.22.18-1.21-.06-1.21-.16-1.21.16-1.22-.05-1.22-.09-1.21-.15-1.23,1.21-.05,1.2.17,1.19-.06h1.2l1.2.07,1.2-.22,1.2.19h1.18Z"/>
  </g>
  <g class="cls-3">
    <path class="cls-6" d="M248.06,330.35c-.17,0-.31-.11-.34-.27l-.29-1.21-.26-1.2-.29-1.13-.55-1.05-.48-1.15-.48-1.09-.61-1.03-.02-.03-.51-1.09-.64-1.01-.57-1.05-.86-.81-.04-.04-.74-.97-.8-.88s-.02-.02-.03-.03l-.68-.96-.94-.71s-.05-.05-.07-.07l-.69-.94-.99-.62s-.05-.04-.08-.06l-.79-.88-.99-.64s-.05-.03-.06-.05l-.83-.85-1.01-.6-1.06-.58s-.04-.03-.05-.04l-.91-.75-1.08-.47-1.1-.57-1.01-.63c-.1-.07-.17-.18-.17-.31s.07-.24.18-.3l2.08-1.19,1.11-.51.9-.78.88-.84.95-.79.79-.91.77-.91.52-1.08s.02-.03.02-.04l.66-1.04s.01-.02.02-.03l.75-.93.4-1.11s.02-.03.02-.04l.58-1.06.4-1.14.37-1.16.47-1.17.51-1.08.12-1.17s0-.05.02-.08l.38-1.16.53-2.31.06-1.19s0-.06.02-.08l.33-1.14.04-1.18s0-.04,0-.06l.47-2.35-.03-1.19v-.04l.12-1.21.19-1.2-.05-2.41v-.04l.11-1.18-.1-1.19s0-.06,0-.08l.18-1.18-.06-1.18-.16-1.18s0-.06,0-.09l.15-1.19-.05-1.19-.09-1.2-.15-1.22c-.01-.1.02-.19.08-.27s.16-.12.26-.13l1.21-.05s.04,0,.07,0l1.16.16,1.16-.06h1.22l1.17.07,1.16-.22s.08,0,.13,0l1.17.19h1.15s0-.01,0-.01c.18,0,.34.14.35.32l.11,1.16.08,1.24v1.25s-.08,1.23-.08,1.23l.15,1.19s0,.03,0,.04v1.23s.05,1.22.05,1.22v1.24s.11,1.2.11,1.2l.14,2.45.19,1.2s.01.06,0,.08l-.08,1.21.13,1.2.19,1.2s0,.03,0,.05l.04,1.21.22,1.18s0,.04.01.06l.04,1.2.27,1.18.31,1.19s0,.04.01.06l.08,1.2.31,1.13.44,1.11s0,.03.01.04l.33,1.16.29,1.16.54,1.05s.01.03.02.04l.42,1.1.65.99s.02.04.03.06l.46,1.08.72.93.69.98.82.86s.03.03.04.04l.69.96,1.77,1.56,1.03.59s.03.02.04.03l.96.75.95.63,1.13.35s.03.01.04.02l1.09.49,1.15.36c.16.05.26.2.25.36,0,.16-.13.3-.29.33l-1.24.25-1.08.48-1.06.64-1.14.56-1.17.46-1.06.61-1.03.63-.94.78s-.03.03-.05.04l-1.05.62-.94.78-.99.77-1.01.72-.86.83-.78.96-.83.93-.72.99-.8.98-.79.91-.45,1.11s-.02.04-.03.06l-.66,1.06-.55,1.05-.36,1.16s-.01.04-.02.05l-.53,1.07-.17,1.19s0,.03,0,.04l-.3,1.19-.17,1.21-.14,1.25c-.02.17-.16.3-.34.32,0-.02-.02-.02-.02-.02ZM245.38,321.88l.61,1.03s.02.03.02.04l.49,1.11.48,1.13.56,1.06s.02.05.03.08l.38,1.58.06-.44s0-.03,0-.04l.3-1.19.17-1.23s.02-.07.04-.1l.54-1.1.36-1.17s.02-.04.03-.06l.58-1.11.65-1.05.46-1.15s.04-.07.06-.1l.82-.95.78-.95.71-.99s.02-.02.02-.03l.82-.93.78-.96s.02-.02.03-.03l.9-.87s.02-.03.04-.04l1.02-.72.97-.76.96-.78s.03-.02.04-.03l1.05-.63.94-.78s.03-.02.04-.03l1.06-.65,1.08-.63s.03-.02.05-.03l1.16-.46,1.09-.54,1.04-.64s.03-.01.04-.02l1.14-.51s.02,0,.03-.01l-1.01-.46-1.16-.35s-.06-.03-.09-.04l-1.02-.68-.96-.75-1.04-.59s-.04-.03-.06-.04l-1.82-1.61s-.04-.04-.05-.06l-.7-.97-.82-.87s-.03-.02-.04-.04l-.7-.99-.74-.95s-.04-.05-.05-.08l-.46-1.09-.65-1s-.03-.04-.03-.07l-.43-1.12-.55-1.06s-.02-.05-.03-.08l-.29-1.19-.32-1.14-.44-1.11s-.02-.03-.02-.04l-.32-1.19s-.01-.05-.01-.07l-.08-1.21-.3-1.16-.28-1.22s-.01-.04-.01-.07l-.04-1.21-.23-1.19s0-.04,0-.05l-.05-1.21-.19-1.2-.13-1.25s0-.04,0-.06l.08-1.21-.19-1.18v-.04l-.14-2.46-.12-1.21v-1.27s-.04-1.22-.04-1.22l-.02-1.22-.15-1.21s0-.05,0-.07l.09-1.23v-1.2s-.08-1.21-.08-1.21l-.07-.82h-.85s-.04,0-.06,0l-1.14-.18-1.14.21s-.06,0-.09,0l-1.2-.07h-1.18l-1.18.07s-.05,0-.07,0l-1.18-.17-.79.03.1.85.1,1.22.05,1.23v.06l-.16,1.17.16,1.17.06,1.24v.07l-.18,1.18.1,1.18v.06l-.11,1.19.05,2.42s0,.04,0,.06l-.19,1.21-.12,1.17.03,1.21s0,.05,0,.08l-.47,2.36-.04,1.19s0,.06-.02.09l-.33,1.14-.06,1.19s0,.04,0,.06l-.55,2.38-.38,1.15-.12,1.19s-.02.08-.03.11l-.53,1.11-.45,1.12-.36,1.15-.41,1.17s-.02.03-.03.05l-.58,1.06-.41,1.14s-.03.07-.06.1l-.77.95-.64,1.01-.54,1.1s-.03.05-.05.07l-.79.95-.82.94s-.03.03-.04.04l-.95.79-.87.84-.94.82s-.06.04-.09.06l-1.14.52-1.53.88.48.3,1.05.55,1.1.48s.06.03.08.05l.93.76,1.04.57,1.07.64s.05.04.07.06l.84.85.99.65s.05.03.07.06l.79.88,1.01.62s.07.06.1.09l.71.95.95.71s.06.05.08.08l.7.99.8.89.74.97.88.83s.05.06.07.09l.58,1.08.64,1.01s.02.03.02.04l.51,1.09Z"/>
  </g>
  <path class="cls-6" d="M256.97,303.48l.13,1.21.02,1.23-.33,1.19-.26,1.2-.39,1.17-.52,1.12-.73,1-.63,1.06-.93.81-.86.86-.92.83-1.07.63-1.18.4-1.24.18-.31-.27-.31.11-1.19-.21-1.23-.2-.99-.75-1.02-.68-.98-.76-.69-1.04-.71-1-.74-.99-.54-1.11-.33-1.19-.32-1.19-.28-1.19.03-1.23-.08-1.24.38-1.18.17-1.24.55-1.12.4-1.17.46-1.15.57-1.09.42-1.16.62-1.08.43-1.16.35-1.19.25-1.22.24-1.21.26-1.21.09-1.24.2-1.22.24-1.2.12-1.21-.05-1.22.24-1.2.02-1.22.07-1.21.14-1.21.12-1.21-.08-1.22.07-1.21.04-1.21.08-1.21v-1.21s-.14-1.21-.14-1.21l.04-1.21-.04-1.21.14-1.22-.23-1.2-.05-1.26.76-.04,1.09.11,1.1.06.61-.05,1.11-.15,1.12.11.71.1-.21,1.1.04,1.22-.06,1.21-.11,1.21v1.21s.19,1.22.19,1.22l-.13,1.22.18,1.21-.13,1.22.06,1.21-.02,1.22.05,1.22.06,1.21.12,1.21.05,1.21.28,1.2-.03,1.22.26,1.19.15,1.2.09,1.23.3,1.21.06,1.24.43,1.17.29,1.2.32,1.19.33,1.19.44,1.16.58,1.09.49,1.14.47,1.14.45,1.15.42,1.16.52,1.14.04,1.26Z"/>
  <path class="cls-6" d="M248.06,316.75c-.08,0-.17-.03-.23-.08l-.15-.13-.11.04c-.06.02-.13.03-.19.02l-1.2-.21-1.23-.19c-.06-.01-.11-.03-.16-.07l-.99-.76-1.01-.67-1.01-.77s-.06-.05-.08-.08l-.69-1.04-.7-.99-.73-.98s-.03-.04-.04-.06l-.54-1.11s-.02-.04-.02-.06l-.34-1.19-.31-1.19-.28-1.21s-.01-.06,0-.08l.02-1.23-.08-1.21s0-.09.02-.13l.38-1.15.16-1.2s.02-.08.03-.11l.54-1.09.4-1.15.46-1.16s.02-.02.02-.04l.56-1.07.41-1.14s.02-.04.03-.06l.61-1.06.42-1.14.34-1.17.73-3.59.08-1.21.2-1.26.24-1.19.11-1.17-.04-1.2s0-.06,0-.08l.24-1.17.02-1.19.07-1.23.14-1.23.11-1.18-.07-1.19v-.04l.07-1.21.04-1.2.09-1.23-.02-1.19-.13-1.18s0-.03,0-.05l.04-1.22-.04-1.19v-.05l.14-1.17-.23-1.15s0-.04,0-.06l-.05-1.25c0-.2.15-.36.34-.37l.76-.04h.05l1.1.11,1.06.06.59-.05,1.1-.14s.05,0,.08,0l1.11.11.72.1c.1.01.18.07.24.15s.08.18.06.27l-.2,1.06.04,1.18-.05,1.24-.12,1.23v1.16s.19,1.18.19,1.18c0,.03,0,.06,0,.09l-.12,1.17.18,1.17v.09l-.13,1.19.06,1.19-.02,1.24.05,1.2.06,1.21.12,1.19.05,1.2.27,1.17s.01.06.01.09l-.03,1.18.25,1.15.15,1.24.09,1.22.29,1.18s.01.05.01.07l.05,1.19.42,1.12s.01.03.01.04l.29,1.2.65,2.37.43,1.1.57,1.08.97,2.31.45,1.16.42,1.17.51,1.11s.04.09.04.15l.03,1.25.12,1.18.02,1.27s0,.07-.02.1l-.32,1.19-.25,1.18s0,.03-.01.04l-.39,1.17s-.01.03-.02.04l-.52,1.12s-.02.04-.04.06l-.73.99-.61,1.04s-.04.06-.07.08l-.93.82-.85.85-.93.84s-.04.03-.06.04l-1.07.63s-.05.02-.07.03l-1.18.4s-.04.01-.06.02l-1.24.18s-.04,0-.05,0ZM247.74,315.78c.09,0,.17.03.23.08l.19.16,1.05-.16,1.11-.38,1.01-.59.89-.81.85-.85.91-.8.6-1.01.73-1,.5-1.07.38-1.13.25-1.18.32-1.16-.02-1.18-.12-1.19-.03-1.2-.49-1.07-.43-1.19-.44-1.14-.95-2.27-.57-1.07s-.02-.02-.02-.04l-.44-1.16-.67-2.42-.28-1.19-.43-1.15s-.02-.07-.02-.11l-.05-1.21-.29-1.17s0-.04-.01-.06l-.09-1.23-.15-1.19-.25-1.16s-.01-.06-.01-.08l.03-1.18-.27-1.16s0-.04,0-.06l-.05-1.22-.12-1.19-.07-1.23-.04-1.22.02-1.24-.06-1.19v-.06l.13-1.17-.17-1.17s0-.06,0-.09l.12-1.17-.2-1.17s0-.04,0-.06v-1.21s.13-1.25.13-1.25l.06-1.2-.04-1.19s0-.05,0-.08l.14-.73-.34-.05-1.06-.1-1.08.14-.63.05h-.05l-1.1-.06-1.08-.1-.39.02.03.87.23,1.18s0,.07,0,.11l-.14,1.19.04,1.19-.04,1.21.13,1.19.02,1.25-.09,1.24-.04,1.2-.07,1.2.08,1.2v.06l-.12,1.21-.14,1.22-.07,1.19-.02,1.2s0,.05-.01.07l-.23,1.16.04,1.19v.05l-.12,1.21s0,.03,0,.04l-.24,1.19-.19,1.21-.08,1.2s0,.04,0,.05l-.74,3.64-.36,1.22-.44,1.19s-.02.04-.03.05l-.61,1.06-.41,1.14s-.01.03-.02.04l-.56,1.08-.45,1.13-.4,1.15s-.01.03-.02.04l-.53,1.06-.16,1.18s-.01.05-.02.07l-.36,1.11.07,1.17-.02,1.22.26,1.16.31,1.17.33,1.16.51,1.05.71.97.72,1,.66,1,.94.72,1,.67.94.72,2.25.38.21-.08s.08-.02.11-.02Z"/>
  <path class="cls-6" d="M236.97,260.06l.31-1.23.17-1.2.21-1.19.08-1.21.42-1.16.1-1.21.07-1.21.16-1.2.06-1.21.02-1.21.08-1.21-.05-1.21-.21-1.2-.19-1.19-.16-1.2-.08-1.21-.34-1.17-.26-1.18-.17-1.21-.39-1.16-.55-1.08-.4-1.15-.55-1.08-.7-1.01-.36-1.18-.47-1.14-.36-1.18-.17-1.22-.22-1.2-.45-1.17-.02-1.23-.07-1.23-.19-1.22.2-1.22-.03-1.23.34-1.19.16-1.21.3-1.19.35-1.17.36-1.17.4-1.16.48-1.13.44-1.15.54-1.1.59-1.08.39-1.17.6-1.07.41-1.16.51-1.11.42-1.15.35-1.18.39-1.17.22-1.21.02-1.23.13-1.22.17-1.22v-1.21s-.06-1.22-.06-1.22l-.18-1.2-.18-1.2-.3-1.18-.26-1.19-.44-1.14-.29-1.18-.35-1.16-.52-1.1-.34-1.17-.39-1.15-.86-2.27-.16-1.22-.41-1.14-.21-1.2-.25-1.18-.26-1.18-.04-1.21-.16-1.21.27-1.2.09-1.2.26-1.17.23-1.19.42-1.14.41-1.14.58-1.06.43-1.15.77-.94.6-1.06.79-.92.76-.95.89-.83.81-.91.84-.79.16,1.18.03,1.24.1,1.24-.05,1.25.32,1.21-.04,1.26.26,1.21.28,1.21.38,1.18.29,1.21.56,1.12.29,1.22.51,1.14.6,1.09.55,1.11.67,1.05.6,1.08.73,1.01.58,1.1.78.97.68,1.04.77.97.67,1.05.59,1.09.67,1.05.56,1.11.54,1.11.47,1.16.4,1.18.27,1.2.24,1.2.14,1.22-.06,1.22.04,1.23-.17,1.22-.41,1.16-.22,1.2-.48,1.13-.26,1.2-.59,1.08-.27,1.21-.44,1.14-.52,1.11-.46,1.14-.38,1.16-.32,1.18-.24,1.2-.47,1.15-.22,1.2-.24,1.2-.18,1.21.05,1.23-.22,1.21-.07,1.22.11,1.22v1.21s-.04,1.22-.04,1.22l.11,1.21.27,1.19.39,1.16.28,1.18.32,1.17.36,1.15.32,1.17.39,1.15.34,1.17.54,1.09.32,1.18.52,1.1.4,1.15.54,1.09.46,1.12.41,1.14.29,1.18.52,1.1.43,1.14.26,1.19.31,1.18.02,1.22.22,1.19.06,1.21.03,1.21-.03,1.21-.15,1.2v1.22s-.2,1.2-.2,1.2l-.35,1.16-.21,1.2-.58,1.08-.4,1.14-.38,1.16-.99.71-1.15.4-1.12.46-1.15.45-1.23.06-1.2.23-1.22-.11-1.22.17-1.21-.09-1.19-.3-1.21-.12-1.21-.17-1.19-.25-1.18-.31-1.17-.35-1.24-.19Z"/>
  <g class="cls-5">
    <path class="cls-6" d="M246.58,262.22h-.03l-1.22-.09s-.04,0-.06-.01l-1.17-.28-1.19-.12-1.22-.17-1.22-.26-1.2-.31-1.16-.35-1.22-.22c-.1-.02-.18-.08-.23-.16-.06-.08-.07-.19-.05-.28l.3-1.21.17-1.18.21-1.19.08-1.19s.01-.07.02-.09l.41-1.11.09-1.16.07-1.2.16-1.22.06-1.18.02-1.2.08-1.21-.05-1.17-.2-1.18-.19-1.2-.16-1.2-.08-1.2-.33-1.13-.27-1.21-.18-1.2-.36-1.1-.54-1.06s-.02-.03-.02-.04l-.39-1.13-.53-1.05-.69-.98s-.03-.07-.04-.1l-.36-1.18-.45-1.1-.36-1.21s-.02-.04-.02-.06l-.17-1.22-.21-1.16-.44-1.13s-.03-.08-.03-.13l-.02-1.23-.09-1.21-.19-1.19s0-.07,0-.11l.2-1.19-.02-1.2s0-.07.01-.1l.34-1.17.16-1.19s0-.03,0-.04l.31-1.19.72-2.36.4-1.17.49-1.15.44-1.13.54-1.14.58-1.07.38-1.14s.02-.04.03-.06l.59-1.05.4-1.13.52-1.14.41-1.13.35-1.16.38-1.15.22-1.16.02-1.2.13-1.25.16-1.2v-1.19s-.05-1.18-.05-1.18l-.35-2.37-.3-1.16-.25-1.18-.43-1.1-.02-.05-.29-1.18-.34-1.11-.51-1.08s-.02-.04-.02-.05l-.34-1.17-.39-1.13-.85-2.26s-.02-.06-.02-.08l-.16-1.18-.4-1.1s-.02-.04-.02-.06l-.21-1.2-.51-2.35s-.01-.04-.01-.06l-.04-1.21-.16-1.17s0-.09,0-.13l.27-1.18.09-1.18s0-.04,0-.05l.26-1.18.23-1.18s.01-.04.02-.06l.82-2.27s.01-.04.02-.05l.58-1.03.43-1.12s.03-.07.05-.1l.76-.93.59-1.03s.02-.04.04-.06l.79-.92.74-.94.04-.04.9-.83.78-.89.86-.81c.1-.09.24-.12.36-.07s.22.16.23.29l.16,1.18s0,.03,0,.04l.03,1.24.1,1.21v.05l-.05,1.2.31,1.16s.02.07.01.1l-.04,1.22.26,1.18.28,1.21.37,1.16.29,1.2.53,1.08.03.08.29,1.19.49,1.1.59,1.07.56,1.13.65,1.02.6,1.08.72.99s.02.03.03.05l.56,1.07.76.95.69,1.07.75.95.69,1.07.6,1.11.66,1.03s.02.02.02.04l1.11,2.23.48,1.17.41,1.2s.01.03.01.04l.27,1.2.24,1.22.15,1.24s0,.04,0,.06l-.06,1.22.03,1.21v.06l-.17,1.21s-.01.05-.02.07l-.4,1.14-.21,1.18s-.02.05-.02.08l-.47,1.09-.24,1.17s-.02.07-.04.1l-.56,1.04-.26,1.16-.02.05-.44,1.14-.53,1.14-.45,1.11-.36,1.14-.32,1.16-.23,1.18s-.02.04-.02.06l-.45,1.11-.46,2.38-.17,1.16.05,1.2s0,.05-.01.08l-.22,1.19-.07,1.18.11,1.2v1.24l-.03,1.21.1,1.17.26,1.15.38,1.14.28,1.21.32,1.15.35,1.15.32,1.18.38,1.13.34,1.15.53,1.06s.02.04.03.06l.32,1.15.5,1.07.41,1.16.53,1.07.48,1.14.41,1.16s.01.03.01.04l.28,1.15.51,1.07.44,1.17s.02.03.02.05l.26,1.19.31,1.16s.01.06.01.08l.02,1.2.22,1.16s0,.03.01.05l.06,1.2.03,1.22-.03,1.23s0,.03,0,.04l-.15,1.17v1.2s.01.04,0,.06l-.21,1.2s0,.03-.01.04l-.34,1.15-.21,1.18s-.02.07-.04.1l-.56,1.06-.77,2.27c-.02.07-.07.14-.13.18l-.99.71s-.06.04-.09.05l-1.15.4-2.25.91s-.08.02-.11.03l-1.2.06-1.18.22s-.07,0-.1,0l-1.18-.11-1.18.17s-.05-.02-.07-.02ZM245.42,261.42l1.15.08,1.18-.16s.05,0,.08,0l1.17.1,1.15-.22s.03,0,.05,0l1.17-.06,2.2-.89,1.12-.39.85-.62.74-2.19s.02-.03.03-.05l.55-1.03.2-1.15s0-.03.01-.04l.34-1.14.19-1.15v-1.19s0-.03,0-.04l.15-1.18.03-1.19-.03-1.19-.06-1.18-.22-1.17s0-.04,0-.06l-.03-1.18-.3-1.14-.26-1.18-.42-1.11-.51-1.08s-.02-.05-.02-.07l-.29-1.16-.41-1.13-.46-1.1-.53-1.07s-.01-.03-.02-.04l-.41-1.14-.5-1.07s-.02-.04-.02-.06l-.31-1.15-.53-1.06s-.02-.04-.02-.06l-.34-1.17-.39-1.13-.33-1.19-.35-1.14-.33-1.18-.27-1.19-.38-1.13s-.01-.02-.01-.04l-.27-1.19s0-.03,0-.05l-.11-1.21v-.05l.03-1.22v-1.2s-.11-1.19-.11-1.19v-.06l.07-1.22s0-.03,0-.04l.21-1.17-.04-1.2v-.06l.18-1.21.46-2.42s.01-.05.03-.07l.45-1.11.24-1.17.33-1.2.39-1.18.47-1.16.53-1.13.42-1.09.26-1.18s.02-.07.04-.09l.56-1.04.24-1.16s.01-.05.02-.07l.47-1.09.21-1.17s.01-.04.02-.06l.41-1.13.16-1.15-.03-1.2.06-1.22-.14-1.19-.23-1.18-.27-1.17-.39-1.16-.46-1.13-1.09-2.19-.66-1.04-.61-1.11-.66-1.02-.75-.95-.7-1.07-.76-.94s-.03-.04-.04-.06l-.56-1.08-.72-.98s-.02-.02-.03-.03l-.6-1.09-.65-1.04-.57-1.15-.59-1.08-.52-1.17s-.02-.04-.02-.06l-.29-1.18-.53-1.08s-.03-.05-.03-.08l-.29-1.21-.37-1.16-.29-1.24-.26-1.22s0-.06,0-.09l.04-1.21-.31-1.16s-.02-.07-.01-.1l.05-1.23-.1-1.21-.03-1.23-.06-.47-.33.31-.78.89-.9.83-.73.93-.78.91-.58,1.03s-.02.04-.03.05l-.74.9-.41,1.09s-.02.03-.02.05l-.57,1.03-.81,2.22-.22,1.16-.26,1.16-.08,1.18s0,.04-.01.05l-.26,1.14.16,1.15.04,1.21.51,2.34.21,1.18.4,1.11s.02.05.02.08l.15,1.17.85,2.23.39,1.16.34,1.15.51,1.08s.02.03.02.05l.35,1.16.28,1.18.44,1.11s.01.03.02.06l.26,1.19.3,1.17s0,.02,0,.04l.36,2.4s0,.02,0,.04l.05,1.21v1.23s0,.04,0,.05l-.16,1.22-.13,1.2-.02,1.2s0,.05,0,.06l-.23,1.21s-.01.03-.01.04l-.39,1.17-.35,1.16-.43,1.18-.52,1.14-.4,1.13s-.02.04-.03.05l-.58,1.05-.38,1.14s-.02.04-.03.06l-.59,1.08-.52,1.09-.43,1.12-.49,1.14-.39,1.13-.71,2.33-.29,1.15-.16,1.19s0,.04-.01.05l-.33,1.14.02,1.18v.06l-.19,1.17.18,1.17.08,1.26.02,1.19.43,1.11s.02.04.02.06l.22,1.21.17,1.21.35,1.15.45,1.1.35,1.16.67.96s.02.03.03.04l.55,1.09s.01.03.02.04l.4,1.13.54,1.07s.02.03.02.05l.38,1.16s.01.04.02.06l.18,1.21.25,1.16.34,1.14.02.08.08,1.21.16,1.17.19,1.19.21,1.19v.05l.05,1.21v.04l-.08,1.21-.02,1.2-.06,1.22-.15,1.23-.07,1.19-.1,1.22s-.01.06-.02.09l-.41,1.11-.08,1.16s0,.03,0,.04l-.21,1.19-.16,1.19s0,.03-.01.04l-.21.85.86.16s.03.01.04.02l1.17.35,1.16.3,1.18.24,1.18.17,1.2.11s.03,0,.05.01l1.17.26Z"/>
  </g>
  <path class="cls-2" d="M242,302.76l-.83,1.17.19-1.14.24-1.24.84-.95.96-.8,1.08-.63,1.09-.4,1.1-.38,1.16-.1,1.16.18,1.13.26,1.09.45.82.77.72.83.65.89.47,1.18.35,1.23.17,1.29-.4,1.24-.35,1.24-.73,1.07-.82,1.02-1.15.63-1.11.5-1.2.23-1.21.16-1.18-.32-1.23-.3,1.56-.04,1.41-.57,1.04-.79.72-1.06.69-1.09.22-1.27-.15-1.28-.37-1.24-.78-1.05-1.06-.79-1.24-.45-1.31.09h-1.31s-1.17.59-1.17.59l-1.26.85Z"/>
  <path class="cls-6" d="M247.43,311.82s-.06,0-.09-.01l-2.41-.61c-.18-.04-.29-.21-.27-.39s.17-.31.35-.32l1.49-.03,1.31-.54.95-.72.69-1.02.64-1.02.2-1.16-.14-1.19-.34-1.16-.71-.96-.98-.72-1.12-.41-1.23.09h-1.24s-1.07.54-1.07.54l-1.19.8-.8,1.12c-.09.14-.27.19-.43.13-.15-.06-.24-.22-.21-.39l.2-1.14.24-1.26c.01-.06.04-.12.08-.17l.84-.95s.03-.03.04-.04l.96-.8s.03-.03.05-.04l1.08-.63s.04-.02.06-.03l2.19-.78s.06-.02.09-.02l1.16-.1s.06,0,.09,0l1.15.18,1.16.27s.03.02.05.02l1.08.44s.08.04.11.07l.82.77.03.03.72.83.67.92s.03.05.04.07l.47,1.18s.01.02.01.04l.35,1.23s0,.03.01.05l.17,1.3c0,.05,0,.1-.02.15l-.4,1.24-.35,1.23s-.03.07-.05.1l-.73,1.07-.83,1.04s-.06.07-.11.09l-1.15.63-1.14.52s-.06.02-.08.03l-1.2.22-1.23.17s-.04-.01-.05-.01ZM247.06,311.01l.39.1,1.15-.15,1.14-.22,1.07-.48,1.06-.58.78-.96.69-1.01.34-1.18.38-1.18-.16-1.19-.34-1.19-.44-1.13-.62-.85-.69-.8-.76-.71-1-.41-1.1-.26-1.08-.17-1.08.09-2.11.75-1.03.59-.92.76-.76.86-.15.76h0s1.27-.85,1.27-.85c.01,0,.03-.02.04-.02l1.16-.59c.05-.03.1-.05.17-.04h1.31s1.28-.08,1.28-.08c.05,0,.1,0,.15.02l1.24.44s.07.03.09.05l1.06.79s.05.05.07.07l.78,1.06s.05.07.06.11l.38,1.24s.01.04.01.06l.15,1.28s0,.07,0,.1l-.22,1.27s-.03.09-.05.13l-.68,1.09-.73,1.08s-.05.06-.08.08l-1.04.79s-.05.04-.08.05l-1.07.42Z"/>
  <path class="cls-2" d="M249.5,271.65l-.67,1.08-1.09.52-1.23-.37-.52-1.23.68-1.07,1.07-.51,1.15.43.61,1.15Z"/>
  <path class="cls-6" d="M247.74,273.6s-.07,0-.1-.02l-1.23-.37c-.1-.03-.19-.1-.22-.2l-.53-1.23c-.05-.11-.04-.23.03-.33l.68-1.07c.04-.06.09-.1.15-.13l1.08-.51c.09-.04.19-.05.28-.01l1.15.43c.08.03.15.09.19.17l.6,1.14c.06.11.05.25-.01.35l-.67,1.08c-.04.06-.09.1-.15.14l-1.08.52c-.05.03-.1.04-.16.04ZM246.78,272.58l.94.28.86-.41.51-.82-.45-.85-.88-.33-.84.4-.53.82.39.91Z"/>
  <path class="cls-2" d="M249.36,277.81l-.39,1.22-1.22.41-1.17-.46-.35-1.16.44-1.07,1.08-.63,1.18.53.44,1.17Z"/>
  <path class="cls-6" d="M247.74,279.79s-.09,0-.13-.02l-1.17-.46c-.1-.04-.18-.13-.21-.22l-.36-1.16c-.02-.08-.02-.17.01-.24l.44-1.08c.03-.07.08-.13.15-.17l1.08-.63c.1-.06.22-.06.33-.02l1.17.53c.09.04.16.11.19.2l.43,1.17c.03.07.03.16,0,.23l-.39,1.22c-.03.11-.12.2-.23.23l-1.22.4s-.07.02-.11.02ZM246.87,278.7l.88.35.93-.3.29-.93-.34-.92-.87-.4-.82.48-.34.85.27.87Z"/>
  <path class="cls-9" d="M250.49,260.49l-1.2.42-1.22.38-1.28.12-1.27.13h-1.27s-1.28-.05-1.28-.05l-1.17-.47.23-1.13.09-1.25.36-1.2.14-1.23.3-1.21.15-1.23.04-1.24.15-1.23.2-1.23.14-1.24.07-1.24v-1.25s-.2-1.24-.2-1.24l.08-1.24-.09-1.24-.19-1.23-.24-1.22-.49-1.15-.43-1.14-.34-1.17-.45-1.13-.47-1.12-.24-1.2-.3-1.18-.36-1.16-.26-1.18-.34-1.17-.39-1.16-.03-1.22-.29-1.19-.07-1.21-.19-1.21.13-1.22.04-1.21.16-1.2.06-1.22.37-1.16.13-1.22.47-1.16.33-1.2.34-1.2.24-1.23.51-1.15.35-1.2.32-1.2.46-1.17.37-1.19.34-1.2.3-1.21.08-1.26.47-1.17.14-1.24.2-1.23.14-1.24.09-1.24.35-1.22.07-1.24-.1-1.25-.07-1.24.17-1.26-.19-1.23-.1-1.2-.41-1.15-.3-1.17-.21-1.19-.4-1.14-.31-1.17-.54-1.09-.32-1.17-.58-1.07-.29-1.19-.49-1.1-.47-1.12-.35-1.16-.28-1.18-.35-1.16-.19-1.2-.02-1.22-.14-1.2-.03-1.21.13-1.2.27-1.18v-1.22s.34-1.17.34-1.17l.47-1.12.32-1.17.42-1.14.6-1.05.65-1.03.46-1.02-.24,1.12-.55,1.11-.22,1.2-.35,1.18-.14,1.22-.16,1.21.06,1.22-.15,1.22.24,1.21.02,1.22.29,1.19.2,1.21.31,1.18.39,1.16.28,1.2.55,1.1.52,1.1.49,1.11.3,1.21.59,1.07.66,1.04.46,1.14.6,1.06.46,1.14.38,1.17.55,1.09.44,1.13.49,1.13.18,1.21.21,1.19.07,1.22.09,1.21-.15,1.21-.07,1.21-.1,1.21-.27,1.19-.18,1.2-.19,1.2-.4,1.16-.33,1.17-.35,1.17-.32,1.17-.23,1.2-.49,1.12-.34,1.17-.27,1.19-.45,1.14-.37,1.16-.19,1.21-.39,1.15-.13,1.22-.28,1.18-.09,1.21-.04,1.21-.09,1.23.07,1.22.05,1.23.16,1.22.11,1.22.35,1.18.19,1.22.23,1.21.31,1.19.36,1.18.59,1.09.37,1.17.43,1.16.6,1.08.43,1.16.49,1.13.64,1.06.47,1.14.41,1.16.42,1.15.43,1.15.41,1.16.34,1.18.35,1.18.11,1.23.26,1.21.03,1.23.09,1.23.06,1.23-.08,1.23.08,1.23-.3,1.21v1.23s-.24,1.21-.24,1.21l-.1,1.23-.31,1.17-1.15.51Z"/>
  <path class="cls-6" d="M244.26,261.9l-1.3-.06s-.08-.01-.12-.03l-1.17-.47c-.16-.06-.25-.23-.21-.4l.23-1.11.09-1.22s0-.05.02-.07l.35-1.17.14-1.2s0-.03,0-.05l.3-1.19.15-1.22.04-1.22.15-1.26.2-1.24.14-1.22.07-1.22v-1.2s-.19-1.2-.19-1.2c0-.03,0-.06,0-.08l.08-1.22-.09-1.21-.19-1.2-.23-1.17-.47-1.11-.44-1.14-.35-1.2-.43-1.1-.47-1.12s-.01-.04-.02-.06l-.24-1.2-.3-1.16-.35-1.14-.27-1.21-.33-1.14-.38-1.15s-.02-.07-.02-.1l-.03-1.19-.28-1.15s0-.04,0-.06l-.08-1.21-.18-1.18s0-.06,0-.09l.12-1.22.04-1.19.16-1.23.06-1.19s0-.06.02-.09l.35-1.13.13-1.18s.01-.06.03-.09l.46-1.14.68-2.38.23-1.2s.01-.05.02-.08l.5-1.13.34-1.17.32-1.2s0-.02.01-.04l.45-1.16.36-1.17.34-1.19.29-1.17.08-1.23s.01-.07.03-.11l.45-1.13.14-1.19.2-1.25.14-1.22.09-1.22s0-.05.02-.07l.34-1.18.06-1.18-.1-1.22-.07-1.25s0-.05,0-.07l.16-1.21-.18-1.18-.1-1.18-.4-1.11-.3-1.2-.21-1.19-.39-1.11-.31-1.17-.52-1.05s-.02-.04-.03-.06l-.31-1.13-.56-1.04s-.03-.06-.03-.08l-.29-1.15-.47-1.08-.47-1.13s0-.02-.01-.04l-.35-1.16-.28-1.2-.35-1.14s0-.03-.01-.05l-.19-1.19s0-.04,0-.06v-1.19s-.17-1.18-.17-1.18l-.03-1.24v-.05l.13-1.2s0-.03,0-.04l.26-1.15v-1.19s.02-.07.03-.09l.33-1.17s.01-.03.02-.04l.47-1.09.31-1.15.42-1.17s.02-.04.03-.06l.6-1.05.64-1.02.46-.99c.07-.16.26-.24.43-.19s.28.23.24.41l-.23,1.11s-.02.06-.03.09l-.53,1.06-.21,1.16s0,.02-.01.04l-.34,1.15-.14,1.19-.16,1.19.06,1.19s0,.04,0,.06l-.15,1.17.23,1.16s0,.04,0,.06l.02,1.19.28,1.15.2,1.23.3,1.15.38,1.14.28,1.19.53,1.06.52,1.11.5,1.12s.01.04.02.06l.29,1.16.57,1.03.65,1.03s.02.04.03.06l.45,1.11.59,1.05s.02.03.02.04l.47,1.13.38,1.17.54,1.07s.02.02.02.03l.44,1.13.48,1.1s.02.06.03.09l.18,1.21.21,1.19s0,.03,0,.05l.06,1.21.1,1.2v.07l-.15,1.21-.07,1.19-.1,1.22s0,.04,0,.05l-.27,1.19-.36,2.39s0,.04-.01.06l-.4,1.16-.68,2.32-.31,1.16-.23,1.18s-.01.05-.02.08l-.49,1.1-.34,1.15-.26,1.17s-.01.04-.02.05l-.45,1.14-.35,1.11-.19,1.18s0,.04-.01.06l-.38,1.12-.12,1.18s0,.03,0,.05l-.27,1.16-.09,1.18-.04,1.19-.09,1.22.12,2.44.15,1.19.11,1.2.35,1.15s0,.03.01.05l.18,1.21.23,1.2.3,1.17.34,1.13.58,1.06.03.06.37,1.17.41,1.11.58,1.05s.02.03.03.05l.43,1.16.47,1.08.63,1.04s.02.03.02.05l.47,1.14.83,2.33.43,1.14.41,1.17.69,2.38s.01.04.02.07l.12,1.21.25,1.19s0,.04,0,.06l.03,1.23.09,1.2.06,1.24v.04l-.08,1.2.08,1.22s0,.07-.01.1l-.29,1.17v1.19s0,.05,0,.07l-.25,1.19-.09,1.21s0,.04-.01.06l-.31,1.17c-.03.1-.1.19-.2.24l-1.15.51-1.23.43-1.23.39s-.05.01-.07.01l-2.54.25-1.32.02ZM243.06,261.14l1.21.06h1.26s2.47-.26,2.47-.26l1.19-.37,1.19-.42.97-.43.26-.97.09-1.2s0-.03.01-.04l.24-1.17v-1.2s0-.06,0-.09l.29-1.16-.08-1.19v-.04l.09-1.21-.06-1.21-.09-1.21-.03-1.22-.24-1.18s0-.03-.01-.04l-.11-1.2-.68-2.33-.4-1.15-.85-2.29-.41-1.16-.45-1.09-.63-1.04s-.02-.03-.03-.05l-.49-1.13-.42-1.15-.59-1.05s-.02-.03-.02-.05l-.42-1.15-.36-1.16-.58-1.06s-.02-.04-.03-.07l-.35-1.18-.31-1.21-.23-1.23-.18-1.2-.35-1.16s-.01-.05-.01-.07l-.11-1.22-.15-1.21-.13-2.48v-.05l.09-1.23.04-1.2.1-1.22s0-.04,0-.05l.27-1.16.13-1.2s0-.05.02-.07l.38-1.13.18-1.18s0-.03.02-.05l.36-1.16.45-1.13.26-1.17.35-1.19s.01-.03.02-.04l.48-1.08.22-1.16.32-1.2.68-2.34.39-1.14.36-2.38.26-1.2.1-1.19.07-1.2.15-1.2-.09-1.18-.06-1.21-.2-1.17-.18-1.17-.48-1.06-.44-1.13-.55-1.08s-.01-.03-.02-.05l-.38-1.17-.45-1.08-.59-1.05s-.02-.03-.02-.04l-.45-1.1-.64-1.02-.6-1.09s-.03-.06-.04-.09l-.29-1.17-.48-1.09-.52-1.1-.54-1.09s-.02-.06-.03-.08l-.27-1.2-.38-1.13-.32-1.2-.2-1.23-.28-1.16s-.01-.06-.01-.08l-.02-1.19-.24-1.18s-.01-.08,0-.11l.15-1.19-.06-1.19s0-.04,0-.06l.17-1.21.14-1.21s0-.04.01-.06l.35-1.16.05-.26-.09.16-.41,1.11-.31,1.14s-.01.03-.02.05l-.46,1.09-.31,1.1v1.18s-.02.05-.02.07l-.26,1.16-.12,1.16.03,1.19.14,1.17s0,.02,0,.04v1.19s.19,1.15.19,1.15l.35,1.14.28,1.2.34,1.11.46,1.1.48,1.1s.02.04.02.06l.28,1.14.56,1.03s.02.05.03.07l.32,1.14.53,1.06s.02.05.02.07l.31,1.17.39,1.12s.01.03.02.05l.21,1.19.29,1.15.4,1.12s.02.06.02.09l.11,1.2.18,1.21s.01.07,0,.1l-.16,1.22.07,1.21.1,1.24v.05l-.06,1.24s-.01.06-.02.08l-.34,1.18-.09,1.2-.14,1.25-.2,1.24-.14,1.22s-.01.07-.03.09l-.44,1.12-.08,1.2s0,.04-.01.07l-.3,1.21-.35,1.21-.36,1.2-.46,1.17-.32,1.18-.35,1.2-.02.05-.49,1.11-.23,1.19-.69,2.43s0,.02-.02.03l-.44,1.11-.13,1.17s0,.05-.02.07l-.35,1.12-.06,1.17-.16,1.23-.04,1.18-.12,1.2.18,1.16.07,1.21.28,1.16s0,.05.01.07l.03,1.17.37,1.11.34,1.17.27,1.21.35,1.13.3,1.19.24,1.18.45,1.09.45,1.14.35,1.2.43,1.1.48,1.14s.02.05.02.07l.24,1.22.19,1.24.1,1.27v.05l-.08,1.2.2,1.2s0,.04,0,.06v1.25s-.08,1.26-.08,1.26l-.15,1.26-.2,1.25-.15,1.22-.04,1.21-.15,1.27s0,.03,0,.04l-.3,1.18-.14,1.22-.02.06-.35,1.16-.09,1.21s0,.03,0,.04l-.17.84.84.34Z"/>
  <g class="cls-4">
    <g>
      <path class="cls-2" d="M274.08,249.79l.81.88.9.8.79.9.84.86.77.91.73.95.93.77.83.85.87.82.82.9-.81.94-.71.95-.63,1-.74.93-.55,1.06-.74.92-.72.94-.63,1.01-.69.96-.85.84-.68.97-.81.82-1.19-.07-1.15-.35-1.19-.2-1.11-.48-1.21-.12-1.13-.45-1.17-.28-1.19-.17-1.13-.44-1.18-.28-1.17-.3-1.19-.22-1.2-.18-1.18-.22-1.22-.05-1.2-.11-1.2-.17-1.2-.14-1.21-.06-1.2-.12-1.21.1-1.2-.14-1.21.07-1.2.02-1.2.08-1.2.14-1.21-.05-1.19.27-1.2.1-1.2.11-1.19.21-1.2.16-1.19.19-1.16.34-1.19.22-1.18.34-1.19.3-1.19.25-1.2.29-1.15.48-1.22.19-1.21.24-1.2.24-1.16.45-1.24.11-.74-1-.63-1.07-.77-.97-.6-1.08-.6-1.08-.66-1.05-.61-1.07-.71-1.02-.58-1.08-.59-1.08-.48-1.04.64-.99.9-.8.93-.77.78-.92.85-.84.73-.95.8-.89.85-.84.9-.79.81-.88.85-.79.92.64.88.84,1.01.67.92.79,1.01.67,1,.69,1.13.47,1.09.52,1.03.66,1.11.48,1.07.59,1.13.45,1.17.33,1.15.39,1.15.4,1.2.21,1.19.22,1.17.32,1.19.24,1.21.15,1.21.11,1.21.03,1.21.03.05.02.05-.17,1.21.02,1.21-.13h1.21l1.2-.19,1.19-.23,1.22-.08,1.14-.44,1.18-.26,1.16-.35,1.21-.18,1.14-.43,1.13-.44,1.04-.66,1.18-.32,1.06-.59.99-.72,1.05-.6,1.08-.55,1.07-.57.9-.83,1.02-.66.99-.7.86-.97.83.9Z"/>
      <path class="cls-6" d="M220.28,270.41c-.11,0-.22-.05-.29-.14l-.74-1.01s-.02-.02-.02-.03l-.61-1.04-.76-.96-.03-.05-1.21-2.16-.65-1.04-.63-1.08-.69-.99s-.02-.02-.02-.03l-1.18-2.17-.48-1.06c-.05-.11-.05-.24.02-.34l.64-.99s.04-.05.06-.07l.9-.8.91-.76.75-.89.86-.84.72-.93.81-.91.86-.86.91-.79.8-.86.87-.81c.12-.11.31-.13.45-.03l.92.64s.03.02.04.04l.85.81.98.65s.03.02.04.03l.91.77,1.97,1.33,1.09.46,1.1.53s.03.02.04.02l1,.64,1.08.47,1.08.59,1.09.44,1.16.32,2.29.79,2.37.43,1.2.33,1.17.24,1.18.15,1.19.11,2.21.05c.06-.09.17-.15.29-.15l1.19.02,1.19-.12h1.22s1.17-.2,1.17-.2l1.17-.23s.03,0,.05,0l1.17-.07,1.09-.43s.04-.01.05-.02l1.18-.26,1.14-.34s.03-.01.05-.01l1.18-.18,1.1-.42,1.09-.43,1.01-.64s.06-.04.09-.05l1.15-.31,1.01-.56.97-.7s.02-.02.03-.03l1.05-.6,1.1-.56,1.02-.55.86-.8s.03-.03.05-.04l1.03-.66.94-.67.83-.94c.07-.07.17-.11.27-.12.09,0,.2.04.27.11l1.63,1.77.89.78.03.03.79.9.82.84.79.94.72.93.89.74.86.88.86.82.84.92c.12.13.13.33.01.47l-.81.94-.7.93-.61.98s-.02.02-.02.03l-.71.9-.54,1.03s-.02.04-.04.06l-1.45,1.84-.61.99-.7.98s-.03.03-.04.05l-.83.81-.66.94s-.03.03-.04.05l-.82.82c-.07.07-.17.1-.28.1l-1.18-.07s-.06-.01-.09-.02l-1.13-.35-1.16-.19s-.06-.02-.09-.03l-1.06-.46-1.16-.11s-.07-.01-.1-.03l-1.1-.44-1.14-.28-1.17-.16s-.05-.01-.08-.02l-1.1-.43-1.15-.27-1.18-.29-1.17-.22-1.18-.18-1.18-.23-1.18-.04-1.22-.11-1.21-.16-1.19-.14-1.18-.06-1.19-.12-1.17.1s-.05,0-.08,0l-1.18-.14-1.17.07-1.22.02-1.18.08-1.18.14s-.04,0-.06,0l-1.17-.06-1.14.26s-.04,0-.05,0l-2.4.21-1.16.2-1.22.16-1.16.19-1.15.33-1.22.23-1.15.34-1.2.3-1.22.26-1.16.28-1.11.47s-.06.02-.08.03l-1.22.19-2.37.47-1.13.43s-.06.02-.09.02l-1.24.12h-.02ZM219.83,268.86l.61.82.99-.09,1.11-.43s.04-.02.06-.02l2.42-.47,1.18-.19,1.11-.46s.04-.02.05-.02l1.2-.29,1.21-.26,1.18-.3,1.17-.34,1.22-.23,1.13-.33s.03,0,.04-.01l1.19-.2,1.21-.16,1.17-.21,2.41-.21,1.16-.26s.07-.01.1-.01l1.18.06,1.17-.14,1.22-.08,1.23-.02,1.19-.07h.07l1.17.14,1.17-.1h.07l1.21.13,1.18.06,1.22.14,1.2.17,1.19.11,1.19.04s.03,0,.06,0l1.18.23,1.18.18,1.2.23,1.19.3,1.17.27s.04.01.05.02l1.09.43,1.16.16,1.2.29s.04.01.05.02l1.07.44,1.16.11s.07.01.1.03l1.08.47,1.15.19s.03,0,.05.01l1.1.34.98.06.68-.68.66-.95s.03-.04.04-.05l.83-.82.68-.93.61-.99s.01-.02.02-.03l1.44-1.84.53-1.03s.03-.04.04-.06l.72-.92.63-.98.72-.97.61-.72-.61-.67-.85-.8-.84-.86-.9-.74s-.04-.03-.05-.06l-.73-.95-.76-.9-.82-.84-.79-.9-.88-.78-.03-.03-1.37-1.49-.6.67s-.04.04-.06.05l-.99.7-1.01.65-.87.81s-.05.04-.07.05l-1.07.58-1.09.55-1.01.58-.97.71s-.03.01-.04.02l-1.06.59s-.06.03-.08.03l-1.14.31-.99.63-.06.03-1.13.44-1.15.43s-.05.02-.07.02l-1.19.18-1.14.34-1.18.26-1.11.43s-.07.02-.1.03l-1.2.08-1.17.23-1.21.19s-.04,0-.05,0h-1.22l-1.17.13h-.04l-.96-.02c-.03.05-.08.09-.14.13-.08.05-.18.05-.27.03l-2.39-.06-1.23-.11-1.22-.16-1.22-.24-1.2-.33-2.35-.43s-.04-.01-.06-.02l-2.29-.79-1.16-.31s-.03-.01-.04-.02l-1.13-.46s-.03-.01-.04-.02l-1.07-.59-1.08-.46s-.03-.02-.05-.03l-1.01-.65-1.07-.51-1.11-.47s-.04-.02-.06-.03l-2.01-1.35s-.02-.02-.03-.03l-.91-.78-.99-.66s-.04-.02-.05-.04l-.85-.82-.66-.46-.64.6-.79.86s-.02.02-.03.03l-.9.79-.83.83-.78.88-.72.93s-.02.03-.03.04l-.85.84-.76.89s-.03.03-.04.04l-.93.77-.85.76-.51.79.4.86,1.16,2.14.7,1,.63,1.1.65,1.04,1.2,2.16.76.95s.02.03.03.04l.6,1.07Z"/>
    </g>
  </g>
  <path class="cls-6" d="M273.61,254.94l1.01.82.78,1.03.92.9.86.95,1.02.82-.65,1.01-.53,1.03-.77.88-.6.98-.68.93-.64.96-.79.77-1.16-.08-1.17-.12-1.18-.07-1.19-.04-1.17-.19-1.16-.31h-1.19s-1.18-.11-1.18-.11l-1.16-.29h-1.19l-1.17-.19-1.18-.16-1.17-.21-1.2.03-1.18-.13-1.18-.13-1.19-.03-1.18-.05-1.18-.26-1.19.14-1.38-.03-1.37.03h-1.37s-1.19-.15-1.19-.15l-1.19.09-1.19.03-1.18.18-1.18.1-1.18.16-1.19.04-1.18.08-1.17.26h-1.2s-1.17.17-1.17.17l-1.16.25-1.18.16-1.17.18-1.18.13-1.17.14-1.17.2h-1.19s-1.16.26-1.16.26l-1.17-.13-.79-.8-.51-1.09-.7-.97-.6-1.04-.47-1.1-.48-1.09-.7-1.06.82-.85.81-.82.88-.76.83-.81.85-.78.76-.91,1.09.74,1.15.49,1.18.44,1.07.67,1.19.4,1.13.55,1.18.44,1.18.4,1.21.35,1.21.31,1.23.26,1.19.39,1.24.2,1.21.34,1.24.14,1.25.11,1.23.29,1.27-.06,1.24.12,1.08.05,1.09-.15,1.08.02,1.08.16v-.06l1.19-.14,1.2-.08,1.18-.19,1.2-.03,1.18-.2,1.17-.25,1.17-.22,1.14-.38,1.18-.21,1.17-.26,1.1-.47,1.16-.28,1.09-.51,1.16-.32,1.09-.48,1.11-.43,1.05-.57,1.18-.31,1.07-.53.99-.68.83.99Z"/>
  <path class="cls-6" d="M223.46,266.46s-.03,0-.04,0l-1.17-.13c-.08-.01-.16-.05-.21-.1l-.79-.8s-.05-.07-.07-.1l-.49-1.06-.69-.95s-.02-.03-.02-.03l-.6-1.04s-.02-.03-.02-.04l-.94-2.17-.68-1.04c-.09-.14-.08-.32.04-.44l.82-.85.82-.82.9-.78.8-.79.85-.77.73-.9c.12-.14.33-.17.48-.07l1.06.72,1.12.48,1.16.43s.05.02.07.03l1.04.65,1.15.4s.03.01.04.02l1.13.55,1.14.43,1.18.4,1.19.35,1.2.31,1.21.25s.03.01.04.01l1.17.38,1.21.19s.03,0,.04,0l1.18.33,1.22.14,1.24.11s.04,0,.05,0l1.18.28,1.21-.06h.05l1.24.12,1.04.05,1.05-.14s.04,0,.06,0l1.08.02s.03,0,.04,0l.87.13s.08-.03.11-.04l1.19-.14,1.21-.08,1.15-.19s.03,0,.05,0l1.18-.03,1.16-.19,1.15-.25,1.16-.22,1.11-.38s.04-.01.06-.02l1.18-.2,1.12-.25,1.07-.46s.04-.02.06-.02l1.13-.27,1.06-.48s.04-.02.05-.02l1.13-.31,1.07-.47,1.11-.43,1.03-.56s.05-.03.08-.03l1.14-.3,1.02-.51.98-.66c.16-.1.36-.08.48.07l.79.97.98.79s.04.04.06.07l.76,1.01.9.88.85.95,1,.8c.14.11.17.32.07.47l-.64.99-.52,1.02s-.03.05-.05.07l-.76.85-.58.96-.7.95-.63.95s-.03.04-.05.06l-.79.77c-.07.07-.17.11-.28.1l-1.16-.08-1.19-.11-1.17-.08-1.18-.04s-.03,0-.05,0l-1.17-.2-1.15-.3h-1.15s-1.21-.11-1.21-.11c-.02,0-.04,0-.06-.01l-1.11-.28h-1.15s-.04,0-.06,0l-1.17-.19-1.16-.16-1.15-.2-1.16.03s-.04,0-.05,0l-2.36-.26-1.15-.03-1.19-.05s-.04,0-.06-.01l-1.12-.25-1.13.14h-.05l-1.37-.02-1.36.03-1.38-.02s-.02,0-.03,0l-1.16-.13-1.15.09-1.18.02-1.16.18-1.21.1-1.16.16s-.03,0-.04,0l-1.19.04-1.15.07-1.14.25s-.06,0-.08,0h-1.17s-1.14.17-1.14.17l-1.14.24-1.2.17-1.16.18-2.36.28-1.15.2s-.04,0-.06,0h-1.16l-1.13.25s-.05.01-.07.01ZM222.45,265.63l.99.11,1.1-.24s.05-.01.08-.01h1.16l1.14-.2,2.37-.27,1.16-.18,1.18-.16,1.14-.24,1.19-.19s.04,0,.06,0h1.16s1.13-.23,1.13-.23c.02,0,.04,0,.06,0l1.18-.08,1.18-.05,1.16-.16,1.2-.1,1.15-.18s.03,0,.05,0l1.19-.02,1.16-.09h.07l1.17.13h1.35s1.36-.02,1.36-.02l1.36.03,1.17-.14s.08,0,.11,0l1.15.26,1.16.05,1.18.03,2.36.26,1.17-.03s.05,0,.07,0l1.17.21,1.16.16,1.15.18h1.17s.06,0,.08.01l1.13.28,1.16.1h1.17s.06.02.08.02l1.16.3,1.11.19,1.17.04,1.19.08,1.19.11.99.07.65-.64.61-.93.7-.94.58-.96s.03-.04.04-.05l.74-.84.51-.99.02-.03.47-.74-.77-.62s-.03-.02-.05-.04l-.85-.96-.91-.88s-.02-.03-.03-.05l-.75-.99-.97-.79-.05-.05-.61-.74-.73.49s-.03.02-.04.03l-1.07.54s-.05.02-.07.03l-1.13.3-1.02.55s-.03.02-.04.02l-1.11.43-1.07.48s-.03.02-.05.02l-1.13.32-1.06.49s-.04.02-.07.02l-1.14.27-1.08.46s-.04.02-.06.02l-1.17.26-1.17.21-1.11.38-.05.02-1.17.22-1.16.25-1.2.2s-.03,0-.05,0l-1.18.03-1.15.19-1.23.09-.98.11c-.08.07-.18.09-.29.08l-1.06-.16-1.03-.02-1.06.15h-.06l-1.09-.05-1.23-.13-1.23.06s-.07,0-.1-.01l-1.2-.28-1.22-.11-1.26-.15s-.04,0-.06-.01l-1.19-.33-1.22-.19s-.03-.01-.05-.02l-1.17-.38-1.21-.25-1.23-.32-1.21-.35-1.2-.41-1.19-.44-1.14-.55-1.17-.4s-.05-.02-.07-.04l-1.04-.65-1.14-.42-1.17-.5s-.04-.02-.06-.03l-.82-.56-.55.67s-.02.02-.04.03l-.86.78-.81.8-.9.77-1.41,1.45.54.82s.02.04.03.05l.95,2.18.58,1.01.7.96s.03.04.04.06l.47,1.04.65.68Z"/>
  <path class="cls-2" d="M243.09,262.12l.1-1.28.65-1.11.65-1.05.84-.92,1.13-.55,1.24-.33,1.22.38,1.11.55.98.79.67,1.07.46,1.19.07,1.27-.07,1.27-.53,1.15-.59,1.12-.93.87-1.17.5-1.24.13-1.24-.1-1.08-.64-1.04-.74-.7-1.07-.22-1.26-.31-1.22Z"/>
  <path class="cls-6" d="M247.7,267.51h-.03l-1.24-.1c-.05,0-.11-.03-.15-.05l-1.08-.64-1.06-.76s-.07-.06-.09-.1l-.71-1.07s-.04-.09-.05-.14l-.22-1.26-.31-1.2s-.02-.08-.01-.12l.1-1.28c0-.05.02-.1.05-.15l.64-1.11.66-1.06s.03-.04.04-.05l.84-.92s.07-.06.11-.08l1.13-.55s.05-.02.07-.03l1.24-.33c.06-.02.13-.02.19,0l1.22.38s.04.02.05.02l1.11.55s.04.03.06.05l.99.78s.06.06.08.09l.67,1.07s.02.04.03.06l.46,1.19s.02.07.03.11l.07,1.27v.04l-.07,1.27s-.02.09-.03.14l-.53,1.15-.59,1.14s-.04.07-.07.09l-.94.87s-.06.05-.1.07l-1.17.51s-.07.03-.1.03l-1.24.12s-.03,0-.04,0ZM246.56,266.7l1.13.09,1.16-.11,1.06-.46.84-.78.56-1.07.5-1.07.06-1.18-.07-1.19-.43-1.1-.63-.99-.91-.72-1.05-.52-1.1-.34-1.1.29-1.04.51-.78.85-.63,1.02-.6,1.03-.09,1.14.3,1.18.21,1.21.63.95.98.7.98.57Z"/>
  <path class="cls-2" d="M247.21,177.1l.66.62.47.72.59.63.41.77.61.61.51.69.31.81.51.69.43.74.4.76.27.82.39.76.31.8.16.84.34.79.05.86.29.82.14.85-.03.86-.02.85-.22.83-.12.84-.04.88-.36.79-.3.81-.48.71-.36.79-.67.57-.5.77.44-.81.36-.79.15-.85.07-.86.29-.83-.05-.87.1-.86-.19-.85.1-.88-.11-.86-.15-.85-.26-.83-.05-.88-.34-.8-.1-.87-.21-.84-.28-.82-.33-.8-.23-.83-.39-.78-.4-.77-.35-.79-.26-.83-.44-.75-.22-.85-.54-.69-.35-.85Z"/>
  <path class="cls-6" d="M250.96,199.73c-.06,0-.13-.02-.18-.05-.17-.09-.22-.31-.14-.47l.44-.81.33-.73.14-.81.07-.83s0-.06.02-.09l.27-.76-.05-.8s0-.04,0-.06l.09-.8-.18-.8s-.01-.08,0-.12l.09-.83-.11-.81-.15-.81-.26-.81s-.02-.05-.02-.09l-.05-.81-.32-.74s-.02-.07-.03-.1l-.09-.84-.21-.81-.27-.8-.33-.78s-.01-.03-.02-.04l-.22-.8-.77-1.51-.36-.81s-.01-.03-.02-.04l-.24-.79-.42-.72s-.03-.06-.04-.08l-.2-.78-.5-.64s-.04-.05-.05-.08l-.35-.84c-.06-.16-.01-.34.13-.43.14-.1.32-.08.45.04l.66.62s.04.04.05.06l.45.7.57.6s.04.05.06.08l.38.72.58.57s.03.03.04.04l.51.69s.04.06.05.09l.3.77.48.65s.02.02.02.03l.43.74.41.77s.02.03.03.05l.26.79.38.74s.01.02.02.04l.31.8.02.06.16.8.32.76s.03.08.03.12l.04.81.28.77s.02.04.02.07l.14.85v.07l-.05,1.71s0,.05-.01.08l-.21.81-.11.82-.03.84s-.02.09-.03.14l-.37.79-.28.78s-.03.05-.04.08l-.47.69-.35.76s-.05.09-.09.12l-.63.54-.47.73c-.07.12-.18.18-.3.18ZM252.34,196.13l-.07.81.39-.57.28-.77.35-.74.04-.81.12-.87s0-.03,0-.05l.21-.79.05-1.65-.13-.78-.28-.79s-.02-.06-.02-.1l-.05-.8-.31-.73s-.02-.05-.02-.07l-.16-.81-.29-.76-.39-.74s-.02-.03-.02-.05l-.26-.79-.39-.72-.42-.71-.49-.68s-.04-.05-.05-.08l-.3-.77-.46-.63-.57-.57v.02l.26.81.35.77.39.75.39.78s.02.05.02.07l.23.81.32.78.28.85.22.86s.01.03.02.05l.09.81.32.76s.03.08.03.12l.05.82.25.79s0,.03.01.05l.15.85.11.88s0,.06,0,.09l-.09.81.18.8s.01.08,0,.11l-.09.83.05.84s0,.09-.02.14l-.27.79ZM248.66,179.34l.06.1-.07-.13v.02Z"/>
  <path class="cls-2" d="M239.3,209.56l-.38,1.2-.49,1.19-.57,1.17-.21,1.29-.39,1.23-.32,1.26-.09,1.3-.23,1.28.04,1.3-.03,1.29.2,1.28.03,1.3.24,1.27.34,1.25.47,1.14.32,1.19.21,1.21.34,1.18.31,1.19.46,1.15.21,1.21.35,1.18.42,1.16.33,1.18.28,1.12-.68-.96-.53-1.11-.69-1.03-.58-1.09-.36-1.2-.57-1.09-.51-1.12-.67-1.06-.4-1.18-.33-1.19-.49-1.14-.26-1.2-.38-1.26-.11-1.3v-1.31s.07-1.3.07-1.3l.21-1.29.11-1.3.47-1.22.2-1.31.55-1.19.48-1.21.61-1.15.7-1.1.54-1.19.76-1.03Z"/>
  <path class="cls-6" d="M241.15,240.43c-.11,0-.22-.05-.3-.15l-.68-.96s-.02-.03-.03-.05l-.52-1.09-.68-1.01s-.02-.02-.02-.04l-.58-1.09s-.02-.04-.03-.06l-.35-1.17-.56-1.06-.51-1.12-.65-1.04s-.03-.05-.04-.08l-.4-1.17-.33-1.19-.48-1.11s-.02-.04-.02-.07l-.26-1.2-.36-1.23s-.01-.05-.02-.07l-.12-1.31v-1.33s.07-1.32.07-1.32c0-.01,0-.03,0-.04l.21-1.28.11-1.28s.01-.07.02-.1l.46-1.18.19-1.27s.02-.06.03-.09l.55-1.19.48-1.19s.01-.03.02-.04l.62-1.15.69-1.1.53-1.17s.02-.04.04-.06l.74-1.03c.1-.14.29-.18.45-.11.16.08.23.26.18.42l-.38,1.21-.51,1.22-.56,1.15-.21,1.23s0,.04-.01.05l-.38,1.24-.31,1.21-.09,1.27s0,.03,0,.04l-.23,1.24.04,1.26-.03,1.28.2,1.26s0,.03,0,.04l.03,1.27.24,1.24.33,1.2.46,1.12s.01.03.02.04l.32,1.19.21,1.23.34,1.16.3,1.18.45,1.13s.02.04.02.07l.21,1.19.34,1.16.41,1.14.34,1.21.29,1.12c.04.17-.04.34-.2.41-.05.03-.1.04-.15.04ZM239.56,236.79l.52.78-.3-.82-.35-1.2s-.01-.02-.01-.04l-.21-1.18-.45-1.11s-.01-.03-.01-.04l-.31-1.19-.34-1.17s0-.03-.01-.04l-.21-1.22-.31-1.13-.46-1.12s-.01-.03-.02-.04l-.34-1.24-.26-1.3s0-.04,0-.06l-.03-1.27-.2-1.26s0-.04,0-.06l.03-1.3-.04-1.28s0-.05.01-.07l.23-1.26.09-1.28s0-.04.01-.06l.32-1.26.39-1.23.15-.92-.42.77-.48,1.2-.53,1.16-.19,1.26s-.01.05-.02.07l-.46,1.17-.11,1.26-.21,1.29-.07,1.28v1.29l.11,1.23.36,1.22.26,1.2.48,1.1s.02.03.02.05l.32,1.2.39,1.11.64,1.02s.02.03.02.04l.51,1.13.56,1.07s.02.04.03.06l.36,1.17.55,1.04Z"/>
  <path class="cls-2" d="M240.26,181.06l-.64-.59-.31-.82-.54-.67-.33-.79-.42-.74-.25-.82-.48-.73-.29-.8-.1-.86-.19-.83-.08-.85-.16-.83-.23-.84.1-.85-.12-.85.15-.85.07-.84.06-.85.27-.81.2-.82.27-.81.34-.82-.17.92v.88l.15.87-.11.87.11.87-.05.88.11.86.22.85.1.86.05.88.1.87.16.86.2.85.39.8.08.88.22.84.27.83.25.84.41.78.32.81.27.83.4.78-.37-.27-.42-.76Z"/>
  <path class="cls-6" d="M241.06,182.44c-.08,0-.15-.02-.21-.07l-.37-.27s-.08-.07-.1-.11l-.4-.7-.6-.55s-.07-.08-.09-.14l-.29-.77-.51-.62s-.04-.06-.05-.09l-.32-.77-.41-.72s-.02-.05-.04-.07l-.23-.77-.45-.69s-.02-.05-.03-.07l-.3-.81s-.02-.05-.02-.08l-.09-.83-.19-.81s0-.03,0-.04l-.08-.85-.15-.81-.22-.8s-.02-.09-.02-.14l.09-.81-.11-.81s0-.07,0-.11l.15-.85.13-1.66s0-.06.02-.09l.27-.81.2-.8.28-.84.34-.84c.07-.17.26-.26.43-.2.17.05.29.22.25.41l-.16.89v.81l.14.84s.01.07,0,.1l-.11.83.11.82s0,.04,0,.07l-.04.84.1.81.22.84s.01.03.01.05l.1.86.05.9.09.84.16.84.18.79.38.77s.04.08.04.12l.08.85.21.82.52,1.62.39.74s.01.03.02.04l.32.81.27.83.39.76c.08.15.04.33-.08.43-.06.06-.14.09-.22.09ZM239.93,180.27h0s-.1-.24-.1-.24l.09.24ZM239.08,178.8l.4.48-.13-.24s-.02-.04-.03-.06l-.52-1.66-.22-.87s0-.04-.01-.05l-.08-.81-.36-.74s-.02-.05-.03-.07l-.2-.85-.16-.88-.1-.89-.05-.9-.09-.82-.21-.83s0-.03,0-.05l-.11-.86s0-.04,0-.06l.04-.84-.11-.83s0-.07,0-.09l.11-.82-.05-.29-.04.15-.26.8-.13,1.66-.14.82.1.8s0,.06,0,.09l-.09.79.21.77.16.86.09.85.18.81s.01.03.01.04l.09.81.27.73.45.7s.03.06.04.09l.24.78.41.7s.02.03.02.04l.32.74Z"/>
  <path class="cls-2" d="M251.43,235.14l.63,1.09.72,1.05.59,1.13.54,1.15.36,1.22.55,1.15.35,1.21.42,1.21.14,1.27.27,1.25v1.28s-.11,1.27-.11,1.27v1.28l-.44,1.2-.43,1.18-.38,1.21-.7,1.19.39-1.34.35-1.25.07-1.3-.04-1.3-.3-1.27-.09-1.28-.05-1.3-.29-1.27-.18-1.28-.5-1.21-.19-1.28-.23-1.28-.41-1.22-.43-1.21-.44-1.21-.47-1.2-.28-1.18.59,1.03Z"/>
  <path class="cls-6" d="M253.92,255.84s-.09-.01-.14-.03c-.17-.07-.25-.26-.2-.43l.72-2.56.07-1.26-.04-1.23-.29-1.24s0-.04,0-.05l-.1-1.28-.05-1.28-.28-1.23-.18-1.27-.48-1.17s-.02-.05-.03-.08l-.19-1.28-.22-1.23-.4-1.2-.86-2.42-.46-1.19s-.01-.03-.02-.05l-.28-1.18c-.04-.17.05-.35.22-.41.17-.07.35,0,.44.15l1.21,2.13.7,1.03s.02.02.02.03l.58,1.13.55,1.16s.01.03.02.05l.36,1.19.54,1.12s.02.04.02.06l.35,1.22.42,1.19s.02.05.02.08l.15,1.27.26,1.21s0,.05,0,.07v1.28s-.11,1.3-.11,1.3v1.25s-.01.08-.02.13l-.88,2.39-.38,1.2s-.02.06-.03.08l-.71,1.19c-.06.1-.18.16-.3.16ZM254.75,248.97l.29,1.24s0,.05.01.07l.04,1.3-.02.29.46-1.24v-1.22l.11-1.3v-1.2s-.26-1.21-.26-1.21l-.15-1.27-.41-1.17-.35-1.21-.54-1.12s-.02-.03-.03-.05l-.35-1.19-.53-1.13-.57-1.09-.31-.45.63,1.78.41,1.23s.01.03.02.05l.23,1.27.18,1.24.48,1.17s.02.05.03.09l.18,1.28.28,1.23s0,.04,0,.06l.06,1.3.08,1.24Z"/>
  <path class="cls-9" d="M274.97,259.87l-.8.69-.78.67-.72.72-.65.79-.79.6-1.02-.03-1.04-.16-1.05-.04-1.04-.1h-1.05s-1.04-.07-1.04-.07l-1.03-.27-1.06.04-1.04-.11-1.05.02-1.04-.07-1.02-.33-1.05-.06-1.06.07-1-.28.9-.28.98-.22.96-.29.94-.35,1.01-.14.94-.35.94-.37.95-.33.96-.31,1.01-.13.91-.45.93-.38,1.01-.16.9-.46.96-.29.89-.46.92-.55.65.9.7.79.83.65.67.81.35.28Z"/>
  <path class="cls-6" d="M271.25,263.69h-.01l-1.02-.03s-.03,0-.04,0l-1.02-.15-1.03-.04-1.04-.1h-1.04s-1.07-.07-1.07-.07c-.02,0-.05,0-.07-.01l-.97-.26-1,.04h-.05l-1.03-.1h-1.03s-1.08-.06-1.08-.06c-.03,0-.06-.01-.08-.02l-.97-.32-.97-.05-1.04.07s-.08,0-.12-.02l-1.01-.28c-.15-.04-.26-.18-.26-.34,0-.16.1-.3.26-.34l.9-.28,1.01-.23.93-.28.92-.35s.05-.02.08-.02l.97-.13.91-.33.93-.36.96-.34.96-.31s.04-.01.06-.02l.95-.12.85-.43.96-.39s.05-.02.07-.02l.95-.16.85-.43s.04-.02.06-.02l.93-.28.86-.45.9-.54c.16-.1.36-.06.48.09l.65.9.65.73.81.64s.04.04.06.05l.65.79.32.26c.08.07.13.17.13.27,0,.11-.04.21-.13.28l-1.57,1.35-.69.69-.64.78s-.04.04-.06.06l-.79.6c-.07.06-.14.08-.22.08ZM270.26,262.95l.87.02.65-.5.62-.76s.02-.02.03-.03l.72-.72,1.27-1.09-.02-.02-.05-.05-.65-.79-.81-.63s-.03-.03-.05-.05l-.7-.79-.47-.66-.64.39-.91.47s-.04.02-.06.03l-.94.28-.87.44s-.07.03-.1.04l-.97.16-.9.36-.89.44s-.07.03-.11.03l-.98.13-.93.3-.94.33-.92.37-.95.35s-.05.02-.08.02l-.97.13-.9.34-1.07.32h.15s.03-.01.04-.01l1.05.05s.06.01.09.02l.98.32,1,.07,1.02-.02h.04l1.02.1,1.03-.04s.07,0,.11.01l.99.27,1.01.08h1.02s.03,0,.04,0l1.04.1,1.03.04h.04l1.02.16Z"/>
  <path class="cls-9" d="M220.69,259.56l.76-.63.58-.9.71-.77.79-.63.86.32.89.46,1.93.57.93.39.9.49,1.02.12.93.4.95.32.95.33,1.01.15.91.45,1,.17.94.38.93.4,1,.15.95.35-1.07-.02-1.04.17-1.04.17h-1.06s-1.04.22-1.04.22l-1.06-.09-1.04.15-1.04.23-1.06-.1-1.05.09-1.04.11-1.04.16-1.04.14-1.06-.08-1.04.16-1.03.09-.49-1-.76-.86-.39-1.08-.55-.97Z"/>
  <path class="cls-6" d="M222.87,263.82c-.14,0-.26-.08-.32-.2l-.46-.96-.73-.83s-.06-.07-.07-.11l-.38-1.05-.54-.94c-.08-.15-.05-.34.08-.45l.71-.59.56-.85s.03-.04.04-.05l.71-.78s.03-.03.04-.04l.79-.63c.09-.08.23-.1.34-.06l.86.33s.03.01.04.02l.86.44,1.89.56s.03,0,.04.02l.92.39.03.02.83.45.95.11s.07.02.1.03l.92.4,1.85.64.97.15s.07.02.1.03l.86.42.95.16s.05.01.07.02l.94.38.9.38.95.14s.05.02.07.02l.95.35c.16.06.26.23.23.4-.04.17-.2.3-.36.29l-1.02-.03-2.05.33s-.04,0-.05,0h-1.02s-1,.21-1,.21c-.04.01-.07.01-.1.01l-1.02-.09-1,.14-1.01.22s-.07.01-.11,0l-1.03-.1-1.02.08-1.03.12-1.03.16-1.05.14h-.07l-1.02-.08-1.01.15-1.05.1s-.03,0-.04,0ZM221.94,261.42l.71.82s.04.05.05.08l.38.78.78-.07,1.03-.15s.05,0,.08,0l1.03.08,1.01-.13,1.03-.16,1.06-.12,1.06-.09h.07l1.01.1.98-.21,1.07-.15s.05,0,.08,0l1.01.08.98-.2s.05-.01.07-.01h1.03s1.01-.17,1.01-.17l-.86-.37-.89-.36-.96-.16s-.07-.02-.1-.03l-.86-.42-.95-.15s-.04-.01-.07-.02l-1.9-.65-.9-.39-.97-.11s-.09-.02-.13-.05l-.88-.48-.89-.38-1.91-.57s-.04-.02-.06-.03l-.88-.45-.66-.24-.61.48-.68.73-.57.87s-.04.06-.07.08l-.52.44.4.71s.02.04.03.06l.37,1.01Z"/>
  <path class="cls-2" d="M227.16,200.49l-.67,1.08-1.08.52-1.23-.37-.53-1.23.68-1.07,1.08-.51,1.15.43.6,1.15Z"/>
  <path class="cls-6" d="M225.4,202.45s-.07,0-.1-.01l-1.23-.37c-.1-.04-.19-.1-.23-.2l-.52-1.23c-.05-.11-.04-.23.03-.33l.68-1.07c.04-.06.09-.1.15-.13l1.07-.51c.09-.05.19-.05.28-.01l1.15.43c.08.04.15.09.19.17l.61,1.14c.06.11.05.24-.01.35l-.67,1.08c-.04.06-.09.1-.15.14l-1.09.52s-.1.04-.16.04ZM224.43,201.43l.94.28.86-.41.51-.82-.45-.85-.88-.33-.84.4-.53.82.39.91Z"/>
  <path class="cls-2" d="M265.53,277.81l-.67,1.08-1.09.52-1.23-.38-.53-1.23.68-1.07,1.07-.51,1.15.43.61,1.15Z"/>
  <path class="cls-6" d="M263.78,279.77s-.07,0-.1-.02l-1.23-.37c-.1-.03-.19-.1-.22-.2l-.53-1.23c-.05-.1-.04-.23.03-.33l.68-1.07c.04-.06.09-.1.15-.14l1.07-.51c.09-.04.19-.05.28-.01l1.15.43c.08.03.15.09.19.17l.61,1.15c.06.11.05.24-.01.35l-.67,1.08c-.04.06-.09.1-.15.14l-1.09.52c-.05.03-.1.04-.16.04ZM262.81,278.75l.94.28.86-.41.51-.82-.45-.84-.88-.33-.84.4-.53.83.39.9Z"/>
  <path class="cls-2" d="M263.49,225.55l.18.81.06.82.35.74.23.78.44.69.23.8.58.59.59.55.63.59-.66.59-.52.65-.5.71-.22.83-.2.82-.28.81-.16.83-.02.86-.14.84-.12.89-.16-.88v-.85s-.38-.79-.38-.79l-.21-.81-.23-.81-.23-.81-.25-.81-.4-.74-.61-.59-.72-.52.74-.47.42-.7.49-.66.16-.81.2-.78.37-.74.08-.81.12-.8.13-.83Z"/>
  <path class="cls-6" d="M263.96,240.12c-.17,0-.32-.13-.35-.3l-.15-.88s0-.04,0-.06v-.78s-.34-.71-.34-.71c-.01-.02-.02-.04-.03-.06l-.67-2.42-.24-.77-.35-.67-.56-.54-.7-.51c-.1-.07-.15-.18-.15-.3,0-.11.06-.22.16-.29l.67-.43.38-.63.47-.63.15-.73.2-.8s.02-.05.03-.07l.34-.69.08-.74.25-1.64c.03-.17.17-.3.34-.3.17-.01.32.11.36.28l.18.81s0,.03,0,.05l.06.76.32.69.02.05.22.73.41.65s.03.06.04.09l.2.71.52.53,1.2,1.13c.07.07.11.17.11.27,0,.1-.04.19-.11.26l-.64.57-.51.62-.44.64-.21.77-.2.82-.28.82-.15.78-.02.83s0,.04,0,.05l-.14.84-.12.88c-.03.18-.17.31-.35.31,0,.01-.01.01-.01.01ZM263.76,237.12l.11.24v-.2s.01-.04.01-.06l.16-.83s.01-.04.02-.05l.28-.81.19-.8.22-.83s.03-.08.06-.11l.49-.71.54-.66s.03-.03.04-.04l.37-.33-.93-.88-.59-.6s-.07-.09-.08-.15l-.22-.75-.41-.65s-.03-.06-.04-.08l-.23-.76-.2-.42-.04.39s-.02.08-.04.12l-.35.71-.19.74-.16.79c-.01.05-.04.1-.07.14l-.49.66-.41.67s-.07.09-.11.11l-.3.19.29.21s.03.02.04.03l.61.59s.05.06.07.09l.4.75s.02.04.03.06l.25.81.66,2.41Z"/>
  <path class="cls-2" d="M229.69,184l.13.85.43.71.39.71.47.66.43.7.73.4.61.49-.7.53-.63.65-.44.8-.47.81-.15.92-.24.89-.06.98-.12-.88-.35-.73-.33-.73-.27-.76-.41-.68-.42-.68-.49-.66-.76-.3.66-.41.61-.52.43-.68.23-.77.29-.73.2-.77.21-.81Z"/>
  <path class="cls-6" d="M230.19,194.42c-.18,0-.33-.13-.35-.31l-.11-.82-.33-.68-.33-.74-.27-.74-.81-1.33-.41-.54-.66-.26c-.13-.05-.21-.17-.22-.3-.02-.13.05-.26.17-.33l.64-.39.55-.46.38-.59.21-.72.3-.74.4-1.54c.04-.16.2-.28.36-.27s.31.14.33.3l.11.78.4.64.39.71.45.65.4.63.65.34s.04.02.06.04l.61.49c.08.07.14.18.13.28,0,.11-.05.21-.14.28l-.68.52-.58.59-.42.76-.44.75-.14.85s0,.03,0,.04l-.23.85-.05.94c-.01.18-.16.33-.34.33,0,0,0,0,0,0ZM227.85,188.59l.09.03c.06.03.11.07.15.12l.5.66.84,1.4s.02.04.03.06l.27.75.35.77.06-.24.15-.9s.02-.08.04-.12l.47-.81.44-.79s.03-.05.06-.07l.63-.65s.03-.02.04-.03l.34-.26-.24-.19-.7-.37c-.05-.03-.1-.07-.14-.13l-.44-.7-.45-.65s-.02-.02-.02-.03l-.4-.71-.23-.38-.08.3-.02.05-.29.73-.22.74s-.02.06-.04.09l-.43.68s-.04.06-.07.08l-.61.52s-.03.02-.04.03l-.05.03Z"/>
  <path class="cls-2" d="M229.82,282.58l.33.74.1.83.57.62.44.67.52.62.59.53.64.46-.74.49-.57.7-.57.73-.21.91-.23.88-.18.9-.23.84-.26-.71-.08-.81-.35-.72-.27-.76-.38-.7-.36-.74-.68-.47-.67-.38.6-.45.68-.45.31-.75.27-.74.31-.72.18-.77.26-.75Z"/>
  <path class="cls-6" d="M230.26,292.87c-.15,0-.29-.09-.34-.23l-.26-.71s-.02-.06-.02-.09l-.07-.74-.33-.66s-.01-.03-.02-.05l-.25-.73-.37-.68-.33-.67-.58-.41-.66-.36c-.1-.06-.17-.17-.18-.29,0-.13.05-.24.15-.31l.6-.45.6-.4.27-.65.27-.72.31-.72.18-.73.27-.79c.05-.14.18-.23.33-.24.15-.01.28.08.34.21l.33.74s.02.07.03.1l.09.72.48.54s.03.02.04.04l.44.67.47.57.56.51.62.44c.09.07.15.18.15.3,0,.12-.06.22-.16.29l-.7.45-.54.67-.52.67-.19.83-.24.89-.17.87-.24.88c-.04.15-.17.25-.33.26.01,0,0,0,0,0ZM229.9,290.13l.35.7.03.09.04-.22.24-.91.21-.9s.03-.09.07-.14l.57-.73.58-.71s.05-.05.08-.07l.31-.2-.21-.15s-.02-.02-.03-.03l-.59-.53s-.03-.03-.04-.04l-.51-.61-.45-.68-.55-.6c-.05-.05-.08-.12-.09-.19l-.06-.49-.11.46s-.01.04-.02.06l-.31.72-.26.72-.32.76c-.03.07-.07.13-.13.16l-.82.56.19.1s.02.02.04.02l.67.47c.05.04.09.08.11.14l.36.74.38.69s.02.04.03.05l.23.74Z"/>
</svg>