<?xml version="1.0" encoding="UTF-8"?>
<svg id="Layer_4" xmlns="http://www.w3.org/2000/svg" xmlns:xlink="http://www.w3.org/1999/xlink" viewBox="0 0 538.59 494.63">
  <defs>
    <style>
      .cls-1 {
        fill: none;
      }

      .cls-2 {
        fill: #f4cf88;
      }

      .cls-3 {
        clip-path: url(#clippath-1);
      }

      .cls-4 {
        fill: #101111;
      }

      .cls-5 {
        clip-path: url(#clippath);
      }

      .cls-6 {
        fill: #d46ba9;
      }
    </style>
    <clipPath id="clippath">
      <rect class="cls-1" x="205.28" y="149.81" width="152.98" height="176.91"/>
    </clipPath>
    <clipPath id="clippath-1">
      <rect class="cls-1" x="304.93" y="207.14" width="65.35" height="68"/>
    </clipPath>
  </defs>
  <path class="cls-2" d="M275.84,261.18l.09.69-.19.67-.38.59-.41.55-.32.61-.32.62-.53.46-.38.61-.57-.56-.74-.2-.73-.23-.77.07-.74.07-.77-.14-.75.15-.7.35-.78.03-.68.27-.73.03-.7.26-.73-.18-.74.16-.71-.2-.69-.23-.68-.27-.67-.3-.61-.4-.54-.49-.48-.54.08-.69v-.69s.4-.57.4-.57l.54-.41.66-.07.65.1.6.33.44.62.09.74-.07.77.59.52.72.22.74-.1.72.05.59-.43.66-.32.44-.57.34-.64.4-.58.53-.51.2-.7.44-.57.32-.64.45-.56.32-.63.24-.69.41-.59.49-.53.58-.43.45-.26.74-.08.69.3.51.53.43.58.41.6.49.57.57,1.38.2.72-.14.75Z"/>
  <path class="cls-4" d="M264.73,266.45s-.06,0-.09-.01l-.65-.16-.66.14c-.06.01-.12.01-.17,0l-.71-.2-.7-.24-.7-.27-.69-.31s-.04-.02-.05-.03l-.61-.4s-.03-.02-.04-.04l-.54-.49s-.02-.02-.03-.03l-.47-.55c-.06-.07-.1-.17-.08-.27l.07-.69v-.66c0-.07.03-.14.07-.2l.4-.57s.04-.06.08-.08l.54-.41c.06-.04.11-.07.18-.07l.66-.07s.06,0,.09,0l.65.09s.08.02.13.04l.6.34s.08.06.11.1l.44.61c.04.05.06.11.06.17l.09.74s0,.05,0,.07l-.05.59.4.35.57.18.67-.08s.04,0,.06,0l.6.04.48-.35s.04-.02.05-.03l.58-.28.37-.48.33-.6s.02-.02.02-.04l.4-.58s.03-.04.05-.05l.46-.44.18-.61s.04-.08.06-.11l.42-.54.3-.6s.02-.04.04-.07l.43-.53.3-.58.23-.67s.03-.06.05-.08l.41-.59s.02-.03.03-.04l.49-.53s.03-.03.05-.04l.57-.43s.03-.02.04-.02l.46-.26s.09-.05.14-.05l.74-.08c.06,0,.12,0,.18.03l.68.3s.08.04.11.08l.52.53s.02.03.03.04l.43.58.41.59.47.56s.05.06.06.09l.57,1.38s.01.03.02.05l.2.72c.02.05.02.1.01.16l-.13.7.08.64s0,.09-.01.14l-.19.67s-.02.06-.04.09l-.38.59-.41.55-.63,1.2s-.05.07-.08.1l-.49.42-.35.56c-.06.09-.15.15-.26.16-.1.02-.21-.02-.29-.1l-.51-.49-.66-.18-.67-.21-1.44.12s-.06,0-.09,0l-.71-.12-.64.13-.66.33s-.09.04-.15.04l-.72.03-.63.24s-.07.02-.11.03l-.68.03-.65.24s-.07.04-.11.04ZM264,265.56s.06,0,.08.01l.63.16.6-.22s.07-.02.11-.02l.67-.03.63-.24s.07-.02.11-.03l.71-.03.63-.31s.06-.03.09-.03l.75-.15s.09-.01.13,0l.73.13,1.47-.13s.09,0,.14.02l.73.23.73.19c.06.02.11.05.16.09l.26.25.15-.23s.05-.06.07-.08l.48-.42.61-1.17s.02-.04.03-.05l.41-.56.33-.53.16-.55-.08-.62s0-.07,0-.11l.12-.67-.17-.63-.54-1.3-.45-.53s-.02-.02-.02-.03l-.41-.6-.41-.56-.45-.46-.54-.23-.58.06-.37.21-.54.4-.45.49-.37.53-.22.64-.02.05-.33.64s-.02.04-.04.06l-.43.53-.3.6s-.02.04-.04.06l-.4.52-.19.64c-.02.06-.05.11-.09.16l-.5.48-.37.53-.33.61s-.02.03-.03.05l-.44.57s-.08.08-.13.1l-.63.3-.56.41c-.07.05-.15.07-.23.07l-.69-.04-.71.09c-.05.01-.1,0-.15-.01l-.72-.22s-.09-.04-.13-.07l-.59-.52c-.09-.07-.13-.18-.12-.3l.07-.73-.08-.62-.34-.47-.47-.27-.54-.08-.52.05-.42.32-.3.43v.58s-.06.56-.06.56l.36.41.51.46.57.37.65.29.67.26.67.22.61.17.66-.14s.03.01.06.01Z"/>
  <path class="cls-4" d="M259.11,264.62c-.15,0-.28-.09-.33-.23l-.24-.66s-.02-.08-.02-.12c0-.15.09-.28.23-.33.19-.07.39.03.46.21l.23.66s.02.08.02.12c0,.15-.09.28-.23.34-.04.01-.08.02-.12.02Z"/>
  <path class="cls-2" d="M274.54,268.43l-.11.81-.29.76-.53.6-.48.64-.71.36-.76.12-.74.08-.76.1-.77-.04-.74-.2-.73-.2-.72-.27-.73-.15-.69-.28-.64-.36-.68-.29-.65-.34-.64-.38-.52-.54-.67-.34-.55-.5-.43-.61-.38-.63-.46-.57-.45-.59-.21-.72-.4-.63.13-.06-.34-.58.46.56.65.35.63.35.55.52.69.26.74.03.68.31.74-.02.73.09.7-.26.75.05.65-.4.76-.15.74-.15.74-.14.75-.13.77-.02.76.11.73.2.65.39.68.32.42.55.33.59.1.68.28.67Z"/>
  <path class="cls-4" d="M270.15,272.25h-.03l-.77-.04s-.05,0-.07-.01l-1.48-.4-.72-.27-.71-.15s-.04-.01-.06-.02l-.69-.28s-.03-.02-.04-.02l-.63-.35-.66-.28-.68-.35-.65-.38s-.06-.04-.08-.06l-.48-.49-.62-.32s-.05-.03-.08-.05l-.55-.49s-.04-.04-.05-.06l-.42-.61-.38-.63-.9-1.15s-.05-.08-.06-.12l-.2-.67-.38-.58c-.05-.08-.07-.19-.04-.29,0-.01.01-.03.01-.04l-.19-.33c-.09-.16-.05-.36.1-.47s.36-.08.47.07l.42.51,1.22.68s.05.03.07.05l.49.47.56.21.69.03s.09.02.14.03l.6.28.65-.02s.04,0,.05,0l.65.08.62-.23s.1-.03.15-.02l.64.05.55-.34s.08-.04.13-.05l3.01-.55s.03,0,.05,0l.76-.02s.04,0,.06,0l.76.11s.03,0,.05.01l.73.21s.06.02.09.04l.63.38.67.31c.06.02.1.06.14.1l.42.55.03.05.32.6s.04.07.04.11l.1.63.26.64c.02.06.03.12.02.18l-.12.81s-.01.05-.02.07l-.29.76s-.04.08-.07.11l-.53.6-.46.61s-.07.08-.13.1l-.72.36s-.07.03-.1.03l-.76.12-.77.08-.75.1s-.04,0-.05,0ZM269.44,271.5l.69.04.73-.09.76-.07.68-.11.6-.3.43-.57.51-.57.24-.67.1-.68-.24-.58s-.02-.05-.02-.08l-.1-.61-.28-.52-.35-.45-.6-.28s-.03-.01-.04-.02l-.6-.36-.67-.18-.7-.1-.71.02-2.9.53-.59.36c-.07.04-.14.06-.21.06l-.68-.05-.63.23c-.06.02-.11.03-.17.02l-.71-.09h-.71c-.06.01-.1,0-.16-.02l-.61-.28-.67-.03s-.08-.01-.11-.02l-.68-.26s-.09-.04-.13-.07l-.51-.49-.54-.31.17.57.86,1.1s.02.03.03.04l.38.63.39.56.48.44.63.31s.07.05.1.07l.48.5.59.35.64.33.65.28s.03.01.04.02l.63.35.64.26.7.15.05.02.72.27,1.42.38Z"/>
  <g class="cls-5">
    <g>
      <path class="cls-4" d="M267.84,209.02l-.07.74.04.72.18.72-.2.72v.73s-.16.7-.16.7l-.18.7-.14.73-.52.54-.4.61-.51.53-.6.43-.69.28-.46.58-.47.54-.47.57-.08.74-.16.69-.1.71-.11.71.09.72.06.74.26.69.47.58.2.74.48.56.52.52.38.64.54.51.49.54.57.47.47.56.69.33.47.57.57.45.56.47.55.48.61.4.6.42.65.35.55.48.68.3.47.6.73.23.56.47.63.37.55.49.67.31.5.57.62.4.64.35.64.37,1.26.75.64.36.52.55.69.29.56.47.64.35.54.52.61.39.66.33.63.37.58.45.51.55.61.4.65.35.49.55.68.29.57.44.5.52.53.48.53.48.4.6.43.56.43.57.26.7-.52.54-.68.16-.7.21-.71-.17-.69-.12-.67-.29-.7-.19-.68-.26-.67-.29-.72-.13-.68-.25-.7-.18-.73-.06-.67-.34h-.74s-.71-.16-.71-.16l-.72-.07-.72-.11-.72.04-.73-.03-.71.17-.72.14-.53.53-.65.32-.67.24-.67.26-.73-.04h-.7s-.7.14-.7.14l-.71-.04-.71-.03-.71.03-.7-.09-.71.04-.68.16-.59.44-.08.74v.72s.15.7.15.7l.41.6.18.71.56.48.29.67.54.47.93,1.08.7.33-.54.26-.59.42-.46.55-.33.64-.36.62-.39.59-.28.66-.31.64-.55.51-.34.63-.2.71-.6.45-.41.58-.44.56-.5.53-.71.18-.68.04-.73.02-.69-.2-.44-.51-.21-.68v-.76s-.46-.6-.46-.6l-.52-.51-.72-.16-.7.21-.49.5-.29.6-.34.64.05.72.35.6-.06.04.41.63.21.72.32.67.51.55.44.59.49.55.56.48.57.47.61.4.61.41.67.3.61.41.68.3.68.28.72.16.74.21.71.31.77.1.76.15.78.03.74-.24.73-.12-.1.7-.22.69-.23.69-.09.72-.11.72-.2.7-.16.71-.08.72.12.74-.26.71.09.73v.72s.02.73.02.73l.07.72.18.71v.73l.22.69-.02.74.17.7.36.65.06.74.28.67.31.65.28.67.22.69.33.64.29.67.49.55.39.61.39.6.4.61.37.63.48.54.47.55.57.45.41.6.61.41.5.53.47.56.54.49.61.39.63.36.63.35.65.35.52.55.62.4.69.28.53.53.7.26.55.51.72.21.55.52.73.18.57.49.72.19.68.28.56.53.74.15.66.33.69.24.63.39.67.31.74.13.66.31.68.3.72.15.67.31.73.13.66.37.73.14.69.27.71.18.7.24.76.02.68.31.74.05.68.3h.75s.73.08.73.08l.72.14.72.18.71.15.74.05.72.16.73.06.72.14.73.1.73.1.74-.02.73.09.73.06.73.04.73.08.74-.03.73-.04.73-.11.74.11h.73l.73.07h.73s.74-.04.74-.04l.73-.1.73-.14.74.07.73-.02.73-.14h.73s.72-.19.72-.19l.74.02.72-.18.75.07.7-.29.76.13.7-.31.76.06.7-.31.73-.08.73-.08h.74s.69-.28.69-.28l.72-.13.74-.06.72-.15.7-.27.71-.2.73-.11.72-.17.72-.14.69-.28.71-.19.73-.13.7-.24.71-.22.69-.14.68.18.71.08.6.4.39.6.23.65.22.65.08.71-.32.63-.27.66-.6.38-.52.52-.62.38-.52.53-.57.46-.72.23-.59.41-.52.55-.72.22-.58.44-.68.28-.54.53-.73.19-.53.55-.68.28-.66.31-.65.34-.63.37-.66.32-.67.27-.68.27-.7.2-.61.41-.69.24-.67.29-.7.2-.66.31-.65.34-.65.33-.69.23-.76.06-.67.28-.7.21-.64.37-.74.08-.66.34-.74.06-.68.28-.67.32-.7.19-.75.02-.66.36-.73.08-.7.2-.73.05-.7.2-.68.31-.71.15-.72.1-.73.07-.71.15-.71.13-.72.1-.73.03-.73.06-.72.11-.7.26-.72.08-.72.13-.72.09-.74-.05-.72.12-.72.15-.73.04-.73-.06-.72.15-.73.04-.73-.05h-.73s-.72.12-.72.12l-.73-.11-.72.12-.73-.14-.73.1-.73-.02-.73-.08-.73-.05-.73-.02-.73.1h-.73s-.73.04-.73.04l-.72-.13-.72-.16h-.73s-.72-.14-.72-.14l-.73.02-.73.04-.72-.11-1.45-.17-.72-.08-.72-.13-.72-.1-.73-.04-.72-.1-.72-.13-.72-.08-.69-.29-.72-.11-.72-.08-.71-.16-.72-.09-.7-.22-.71-.16-.69-.24-1.45-.2-.71-.18-.72-.15-.66-.35-.74-.04-.71-.17-.69-.25-.73-.1-.64-.4-.69-.23-.7-.21-.74-.09-.72-.16-.67-.32-.68-.29-.67-.3-.74-.11-.66-.32-.72-.18-.69-.27-.66-.33-.72-.17-.66-.33-.66-.32-.63-.4-.71-.22-.65-.34-.73-.16-.59-.47-.72-.19-.61-.42-.7-.24-.61-.42-.69-.27-.6-.43-.62-.39-.73-.2-.57-.48-.67-.31-.69-.27-.52-.57-.74-.18-.62-.4-.61-.4-.58-.45-.57-.46-.65-.35-.62-.4-.61-.4-.5-.56-.68-.31-.59-.43-.5-.56-.66-.34-.59-.44-.6-.42-.53-.52-.58-.45-.63-.39-.46-.59-.52-.53-.54-.49-.7-.32-.44-.6-.6-.43-.53-.52-.51-.52-.56-.47-.49-.55-.45-.58-.47-.56-.51-.53-.64-.41-.43-.6-.48-.55-.52-.52-.56-.49-.34-.67-.44-.58-.61-.45-.48-.56-.36-.65-.44-.58-.43-.59-.5-.54-.43-.59-.39-.63-.36-.65-.48-.55-.48-.56-.37-.64-.4-.61-.39-.63-.34-.65-.39-.62-.4-.61-.45-.58-.39-.63-.39-.63-.36-.64-.44-.59-.16-.75-.34-.65-.39-.63-.35-.65-.42-.61-.31-.66-.26-.69-.39-.63-.19-.72-.43-.61-.36-.64-.2-.71-.23-.7-.34-.65-.32-.66-.28-.68-.21-.71-.31-.66-.34-.66-.11-.74-.22-.7-.39-.64-.2-.71-.23-.69-.35-.66-.08-.74-.19-.71-.38-.65-.1-.73-.33-.67-.1-.73-.26-.69-.2-.71-.13-.72-.19-.71-.23-.7-.02-.74-.18-.71-.15-.72-.15-.71-.19-.7-.29-.69.08-.75-.25-.7.04-.74-.19-.71-.09-.73.07-.73-.11-.72v-.73l-.02-.73.17-.73-.07-.73.08-.72-.03-.73.14-.72-.1-.73.05-.73.25-.71-.15-.74.22-.71.1-.72.03-.73.19-.71-.03-.74v-.73s.26-.7.26-.7l.15-.71.19-.71-.12-.76.35-.68.13-.72.08-.72.22-.7-.06-.76.24-.69.14-.72.13-.72.16-.71.32-.67.08-.73.18-.7.24-.69.2-.7.11-.73.32-.67.1-.73.28-.68.14-.72.15-.72.34-.66.28-.68.16-.71.34-.66.21-.7.23-.69.11-.73.3-.67.23-.69.24-.69.17-.72.32-.66.2-.7.32-.66.41-.62.09-.75.4-.62.28-.68.35-.64.29-.67.32-.65.27-.69.22-.7.35-.64.31-.66.43-.59.29-.67.21-.72.46-.58.18-.73.39-.62.38-.63.41-.6.41-.61.18-.74.41-.61.54-.53.27-.69.38-.63.44-.59.26-.7.38-.62.56-.51.28-.69.51-.54.47-.56.39-.62.34-.65.4-.61.53-.52.37-.64.56-.48.31-.68.44-.58.55-.49.45-.57.57-.47.4-.62.46-.57.51-.53.48-.55.64-.4.52-.52.53-.5.52-.52.45-.58.61-.42.44-.6.64-.38.52-.52.62-.39.6-.44.48-.58.62-.4.58-.45.52-.54.63-.4.62-.41.57-.46.54-.51.6-.43.59-.44.58-.46.61-.42.54-.51.64-.38.59-.45.59-.43.5-.56.63-.39.67-.33.58-.46.54-.5.66-.34.62-.39.62-.39.56-.49.62-.39.63-.39.57-.47.67-.31.61-.41.63-.38.64-.35.58-.46.63-.38.62-.4.74-.18.59-.45.63-.38.73-.19.6-.44.72-.19.61-.42.71-.2.65-.35.63-.39.7-.22,1.38-.5.72-.18.62-.44.76-.05.63-.44.71-.19.7-.23h.77s.67-.33.67-.33l.74-.05.68-.29.71-.17.74-.05.7-.23.72-.15.73-.04.72-.14.71-.19.73-.04.71-.19.71-.21.74.02h.74s.72-.16.72-.16l.71-.26.74.02h.73s.72-.21.72-.21l.75-.04.74.04.73.04.73-.06.73-.02h.73s.73-.08.73-.08l.73-.05.73-.11.73-.04.74.09.73-.13.74.18.73.02.73.02h.73s.73-.06.73-.06h.73s.72.13.72.13l.74-.19.73.06.73.18.74-.06.73.1h.73s.74-.03.74-.03l.74-.04.73.07.73.1.73.03.73.12.74-.1.72.13.74-.03.73.08.71.22.73.05h.74s.73.09.73.09l.72.07.7.3.74-.03.74.02.7.27h.74s.69.28.69.28l.74.02.72.13.71.19.73.06.68.31.7.19.73.09.68.27.73.09.68.28.72.13.72.15.66.35.7.18.69.23.71.19.67.31.71.19.73.11.68.27.66.33.63.4.69.24.66.3.73.15.64.35.69.26.6.43.66.31.68.28.68.27.67.3.59.45.61.4.65.34.67.3.6.42.6.42.57.46.6.41.66.33.62.39.54.49.66.33.56.47.56.47.56.47.6.41.46.59.65.36.55.49.47.56.57.46.49.54.52.52.4.63.48.54.6.44.33.68.14.73-.28.69-.34.64-.6.42-.72.1-.71-.07-.7-.19-.71-.18-.65-.39-.73-.1-.68-.26-.68-.27-.71-.15-.72-.11-.72-.12-.66-.35-.72-.11-.7-.23-.76.05-.7-.21-.7-.22-.71-.17-.72-.13-.71-.16h-.74s-.7-.27-.7-.27l-.72-.11-.72-.06-.71-.18-1.46-.13-.74.04-.71-.2h-.73s-.72-.14-.72-.14h-.73s-.72-.04-.72-.04l-.72-.18-.73.11-.72-.14h-.73s-.73,0-.73,0l-.72-.15-.73.1-.73-.05-.73.14-.73-.06-.73-.14-.72.14-.73-.06-.72.17-.72-.03-.73-.1-.72.22-.73-.07-.72.14-.73-.06-.72.14-.72.11-.74-.08-.72.13-.7.26-.74-.03-.71.21h-.74s-.72.07-.72.07l-.7.26-.74-.05-.71.18-.71.19-.72.09-.7.2-.72.08-.69.23-.72.08-.69.24-.73.05-.71.16-.68.27-.71.16-.7.21-.66.34-.73.08-.7.18-.65.35-.71.15-.69.23-.69.23-.73.13-.65.34-.63.4-.71.19-.64.36-.7.19-.66.3-.64.33-.65.33-.69.24-.55.49-.69.25-.6.43-.69.29-.6.43-.54.5-.59.43-.49.57-.56.47-.7.31-.47.58-.64.39-.43.62-.59.45-.58.45-.41.64-.53.51-.48.56-.54.51-.5.54-.44.59-.54.51-.45.58-.56.49-.41.61-.56.5-.34.67-.42.61-.53.53-.38.64-.48.56-.46.58-.24.72-.46.58-.45.59-.28.69-.46.58-.22.72-.47.58-.32.66-.32.67-.29.68-.24.7-.34.66-.2.71-.13.73-.21.7-.25.69-.12.73-.08.73-.07.73v.73s.02.73.02.73l-.02.73Z"/>
      <path class="cls-4" d="M299.27,326.52s-.05,0-.07,0l-.67-.13-.67.09s-.04,0-.06,0l-.73-.02-.76-.08-.71-.04-.68-.02-.7.1s-.03,0-.05,0h-.73s-.72.04-.72.04h-.07l-.72-.13-.7-.15h-.69s-.04-.01-.05-.01l-.68-.12-1.43.06s-.05,0-.07,0l-.72-.11-2.16-.24-1.44-.23-.71-.03s-.03,0-.04,0l-1.45-.23-.71-.08s-.07-.01-.09-.02l-.65-.28-.68-.1-.71-.08s-.03,0-.04,0l-.71-.16-.7-.09s-.04,0-.06-.02l-.7-.22-.68-.16s-.03-.01-.04-.01l-.66-.23-1.42-.19s-.03,0-.04-.01l-.71-.18-.7-.14s-.07-.02-.1-.04l-.59-.32-.67-.03s-.04,0-.06-.01l-.71-.17s-.03,0-.04-.01l-.66-.23-.69-.09c-.05,0-.1-.03-.15-.05l-.6-.38-.65-.21-.66-.2-.71-.09-.75-.17s-.06-.02-.08-.03l-.67-.32-1.29-.57-.69-.1s-.07-.02-.11-.03l-.63-.31-.68-.17s-.03-.01-.04-.02l-.69-.27-.65-.32-.68-.16s-.05-.01-.08-.03l-1.32-.66-.61-.39-.66-.2s-.04-.02-.06-.03l-.6-.32-.69-.15c-.05-.01-.1-.04-.15-.07l-.54-.42-.65-.18s-.08-.03-.11-.05l-.57-.4-.65-.23s-.06-.02-.08-.04l-.58-.39-.65-.25s-.05-.03-.08-.05l-.6-.43-.56-.35-.68-.19s-.09-.04-.14-.07l-.54-.45-.63-.3-.67-.26c-.05-.02-.1-.05-.14-.09l-.44-.49-.64-.16s-.07-.03-.1-.05l-1.23-.8-1.16-.92-.6-.33-1.26-.81s-.05-.04-.07-.06l-.46-.51-.61-.28s-.04-.02-.06-.04l-.59-.43-.05-.05-.46-.51-.6-.31s-.03-.02-.05-.03l-.59-.44-.6-.41s-.03-.03-.05-.04l-.52-.5-.56-.44-.6-.38s-.06-.05-.09-.08l-.45-.58-.51-.51-.48-.45-.65-.3c-.06-.03-.1-.06-.14-.11l-.41-.56-.56-.4s-.03-.02-.04-.03l-.53-.52-.52-.53-.54-.45s-.03-.03-.04-.04l-.49-.55-.47-.59-.46-.56-.46-.48-.6-.39s-.07-.06-.09-.09l-.43-.6-.46-.53-.51-.51-.54-.47s-.06-.06-.08-.1l-.33-.65-.39-.51-.56-.42s-.04-.03-.06-.05l-.48-.56s-.03-.04-.04-.06l-.35-.63-.85-1.15-.48-.52s-.02-.02-.03-.03l-.43-.59-.4-.65-.35-.62-.95-1.08s-.03-.04-.04-.06l-.37-.64-.39-.6-.39-.64-.35-.68-.77-1.21-.44-.55s-.01-.02-.02-.03l-.77-1.24-.36-.63-.43-.58s-.05-.09-.06-.14l-.15-.71-.31-.6-.38-.6-.35-.65-.41-.59s-.02-.03-.03-.05l-.31-.66-.26-.68-.38-.6s-.03-.06-.04-.09l-.18-.66-.4-.56-.38-.67s-.03-.05-.04-.08l-.2-.71-.22-.65-.32-.63-.33-.66-.29-.7s-.01-.03-.02-.04l-.19-.68-.3-.64-.33-.64s-.03-.07-.04-.11l-.11-.72-.2-.63-.36-.6s-.03-.06-.04-.09l-.2-.71-.21-.65-.34-.63s-.04-.08-.04-.13l-.08-.72-.17-.64-.35-.61s-.04-.08-.05-.13l-.1-.68-.3-.62s-.03-.07-.03-.11l-.1-.7-.24-.65-.21-.73-.14-.76-.18-.68-.22-.68s-.02-.06-.02-.1l-.03-.71-.17-.67-.3-1.45-.18-.66-.28-.67c-.02-.05-.03-.11-.02-.17l.07-.66-.27-.61s-.03-.1-.03-.16l.03-.68-.17-.66s0-.03,0-.05l-.09-.73s0-.05,0-.07l.06-.69-.11-.69v-.78l-.03-.72s0-.06.02-.09l.16-.67-.07-.67s0-.05,0-.08l.08-.7-.03-.7s0-.06,0-.08l.13-.66-.1-.68v-.07l.05-.73s0-.06.02-.09l.22-.62-.13-.65c-.01-.06-.01-.11.01-.17l.21-.68.1-.69.03-.69s0-.06.01-.08l.18-.66-.03-.68v-.74s0-.09.02-.13l.24-.67.14-.69.17-.65-.11-.69c-.01-.07,0-.15.04-.22l.33-.63.11-.66.08-.7s0-.05.02-.07l.2-.63-.05-.69c0-.05,0-.1.02-.15l.23-.67.26-1.41.17-.72s.02-.05.03-.07l.29-.62.07-.67s0-.03.01-.05l.18-.71s0-.03.01-.04l.25-.69.18-.66.11-.7s.02-.07.03-.09l.3-.62.09-.68s.01-.06.03-.08l.26-.65.28-1.41s.02-.06.03-.09l.34-.66.24-.62.16-.69s.02-.06.03-.09l.33-.62.2-.67.22-.67.1-.7s.02-.06.03-.09l.3-.67.46-1.33.16-.69s.02-.06.03-.08l.31-.63.19-.67s.02-.04.02-.06l.32-.66s.01-.03.03-.05l.36-.55.08-.66c.01-.06.03-.1.05-.15l.39-.59.27-.65s.01-.03.02-.04l.35-.63.28-.65.33-.67.26-.65.21-.68s.02-.05.03-.06l.35-.64.3-.64s.02-.04.04-.06l.41-.56.27-.61.2-.7s.04-.08.07-.12l.42-.52.17-.66s.02-.07.05-.1l.39-.61.36-.62.79-1.18.16-.68s.03-.08.05-.11l.41-.61s.03-.04.05-.05l.49-.48.24-.61s.02-.04.03-.05l.38-.63.43-.57.24-.65.03-.06.38-.62s.04-.06.06-.08l.5-.45.24-.62s.04-.08.07-.11l.51-.54.45-.53.38-.6.33-.63.42-.64s.03-.04.05-.06l.49-.48.35-.59s.04-.06.07-.09l.51-.44.28-.61s.03-.05.04-.07l.44-.58s.03-.03.05-.05l.53-.46.43-.55s.04-.04.06-.06l.53-.43.37-.57s.01-.02.02-.03l.46-.57.53-.55.47-.54s.05-.05.07-.07l.6-.38.48-.49.54-.5.48-.49.44-.57s.05-.06.08-.08l.55-.38.4-.56s.07-.07.11-.1l.6-.35.48-.48s.04-.04.07-.05l.62-.39.54-.4.45-.54s.05-.05.08-.07l.63-.4.54-.42.49-.52s.05-.04.07-.06l1.24-.8.55-.44.52-.49s.03-.02.04-.03l.6-.43.58-.43.57-.45.61-.41.52-.49s.04-.04.06-.05l.62-.36,1.14-.85.48-.54s.05-.04.07-.06l.63-.39.67-.33.55-.43.53-.48s.05-.04.08-.06l.66-.34,1.2-.75.53-.47s.03-.03.05-.04l1.23-.76.55-.46s.05-.03.08-.05l.65-.3.59-.39.64-.39.63-.34.56-.44s.02-.02.03-.03l1.24-.78s.07-.04.11-.05l.67-.16.53-.41s.02-.01.03-.02l.63-.38s.06-.03.09-.04l.66-.17.54-.4s.08-.05.12-.06l.66-.18.56-.39s.07-.04.1-.05l.68-.19.61-.33.61-.38s.05-.03.08-.04l.7-.22,1.37-.49s.02-.01.03-.01l.65-.17.57-.4c.06-.04.12-.06.18-.06l.66-.04.55-.38s.07-.04.11-.05l.71-.19.68-.22s.07-.02.11-.02h.68l.59-.29s.09-.03.14-.04l.68-.05.63-.27s.04-.02.05-.02l.71-.18s.04,0,.06-.01l.7-.05.66-.22s.03,0,.04-.01l.72-.15s.03,0,.05,0l.71-.04.7-.14.68-.19s.05-.01.08-.01l.7-.04.68-.18.7-.21s.07-.02.11-.02l.74.02h.69s.66-.15.66-.15l.69-.24s.08-.02.13-.02l.74.02h.68s.67-.2.67-.2c.03,0,.05-.01.07-.01l.73-.05h.04l1.45.09.7-.06,1.49-.02.7-.08.74-.05.7-.11s.03,0,.04,0l.73-.04s.04,0,.06,0l.7.02.68-.11s.09-.01.15,0l.7.17,1.43.04h.72s.71-.06.71-.06h.76s.05-.01.07,0l.66.13.66-.17s.08-.01.11-.01l.73.06s.04,0,.06.01l.67.17.68-.06s.05,0,.08,0l.71.09.71.02,1.46-.07h.05l.73.07.74.1.7.02s.03,0,.04,0l.67.11.69-.1s.07,0,.11,0l.69.12.7-.02h.05l.73.08s.05.01.07.02l.68.21.69.05h.71s.03,0,.04,0l1.45.16s.07.02.1.03l.63.27.66-.03.76.02s.08.01.12.02l.64.24h.68s.09,0,.14.03l.64.26.67.02s.04,0,.06,0l.72.13.71.18.7.06s.08.02.12.03l.65.3.66.18.7.09s.06.01.08.02l.64.25.69.08s.06.01.09.02l.65.26,1.41.27s.07.02.1.04l.62.33.67.17.71.24.69.19s.04.01.06.02l.64.3.66.18.72.1s.05.01.08.02l.68.27.69.35.62.39.65.23.66.3.69.13s.07.02.1.04l.62.35.66.25s.05.03.08.04l.58.41.64.3,1.34.54.68.3s.05.03.07.04l.58.45.59.39.62.33.65.29.06.03,1.2.83.59.47.56.38.64.33.65.4s.04.03.05.04l.51.46.62.31s.05.03.07.05l1.66,1.4.59.4s.06.05.08.08l.41.53.58.33s.04.03.06.04l.55.49s.03.02.04.03l.45.54.55.44s.03.03.04.04l.49.54.51.5s.04.04.05.06l.39.6.44.49.56.42s.08.08.11.13l.32.68s.03.05.03.09l.14.73c.02.07.01.14-.02.2l-.29.68s-.01.02-.01.03l-.34.64c-.03.05-.06.09-.11.13l-.6.42s-.1.05-.16.06l-.72.09s-.06,0-.08,0l-.71-.07s-.04-.01-.06-.02l-1.41-.37s-.07-.02-.09-.04l-.58-.35-.66-.09s-.05-.01-.07-.02l-1.34-.51-.69-.14-1.43-.23s-.07-.02-.1-.04l-.61-.32-.67-.09s-.04-.01-.06-.02l-.63-.21-.69.05s-.09,0-.13-.01l-1.41-.44-.68-.16-.7-.13-.69-.16h-.7c-.05.01-.09,0-.13-.02l-.66-.26-.68-.1-.7-.06s-.04,0-.06-.01l-.68-.17-1.41-.11-.71.03s-.08,0-.11-.01l-.67-.19h-.68s-.04-.02-.06-.02l-.68-.12h-.7s-.76-.04-.76-.04c-.02,0-.04,0-.06-.01l-.65-.17-.66.11s-.08,0-.13,0l-.69-.14h-.69s-.72,0-.72,0c-.03,0-.05,0-.08-.01l-.67-.14-.67.09s-.05,0-.07,0l-.68-.05-.68.14s-.06,0-.1,0l-.73-.06-.7-.13-.66.13s-.07,0-.09,0l-.68-.06-.67.16s-.06.01-.08,0l-.74-.02h-.04l-.65-.09-.64.2s-.09.02-.14.02l-.69-.07-.67.13s-.06,0-.09,0l-.69-.06-1.4.24s-.07,0-.1,0l-.69-.08-.64.11-.68.24s-.09.02-.14.02l-.68-.02-.65.2s-.07.01-.11.01h-.71s-.66.07-.66.07l-.66.24s-.09.03-.15.03l-.69-.05-1.35.35s-.03.01-.05.01l-.7.08-.68.19s-.04.01-.06.02l-.69.08-.66.21s-.05.01-.07.02l-.69.08-.66.22s-.06.02-.09.02l-.71.05-.66.15-.66.26s-.03.01-.05.02l-.71.16-.65.19-.63.32s-.08.03-.12.03l-.71.08-.64.18-.61.33s-.06.03-.09.04l-.7.15-1.36.46s-.04.01-.05.02l-.67.11-.6.31-.6.39s-.07.04-.1.05l-.66.17-.59.34s-.06.03-.08.04l-.68.19-.64.29-1.28.66s-.03.01-.04.02l-.63.22-.5.45s-.07.05-.11.07l-.65.23-.56.4s-.05.03-.07.04l-.66.27-.55.39-.53.49s-.02.02-.03.03l-.56.41-.46.53s-.03.03-.04.04l-.56.47s-.06.04-.09.05l-.63.27-.41.52s-.06.06-.09.08l-.57.35-.38.56s-.05.06-.08.08l-1.13.86-.37.58s-.03.05-.05.06l-.53.51-.46.54-.03.03-.53.51-.48.51-.43.57s-.03.04-.04.05l-.52.49-.44.56s-.03.04-.04.05l-.53.47-.39.57s-.04.04-.05.06l-.51.46-.32.61s-.01.03-.02.04l-.42.61s-.03.04-.04.05l-.49.49-.35.6s-.03.04-.04.05l-.48.56-.41.52-.22.67s-.03.07-.06.1l-.87,1.13-.27.65s-.03.06-.05.08l-.42.54-.2.66s-.04.08-.06.11l-.45.55-.63,1.29-.28.66-.23.68s-.01.03-.02.05l-.33.63-.19.66-.13.72s0,.03-.01.04l-.21.7-.25.69-.11.69-.15,1.42.02,1.44-.03.75v.03l-.07.71.04.67.17.69c.02.06.02.12,0,.18l-.19.67v.68s0,.06,0,.09l-.35,1.4-.13.72c-.02.07-.05.13-.09.18l-.49.52-.39.59s-.03.04-.04.05l-.52.54s-.03.03-.05.04l-.6.42s-.05.03-.07.04l-.61.24-.4.51-.88,1.03-.07.64s0,.02-.01.04l-.16.69-.19,1.36.09.67.06.7.22.59.43.54s.06.08.07.13l.18.66.43.5.51.51s.04.04.05.07l.36.59.49.47.49.54.55.45s.04.03.05.05l.43.51.61.29s.09.05.12.1l.45.54.55.43,1.1.95.59.39.59.42.64.34s.05.03.07.05l.51.45.64.27c.05.03.1.06.14.11l.41.51.63.19s.08.04.12.07l.54.46.6.35s.04.03.06.04l.5.46.63.29s.08.05.11.09l.47.54.57.37,1.27.71,1.9,1.12s.06.04.08.06l.47.49.62.27s.06.03.09.06l.54.45.61.33s.06.04.08.06l.51.49.59.37.63.31.65.38s.03.02.04.03l.58.45s.04.03.05.04l.47.52.58.37.63.34s.07.04.09.07l.45.49.61.26s.05.03.07.04l.57.44s.03.02.04.03l.5.52,1.04.95s.04.04.06.07l.4.6.84,1.11s.04.06.05.09l.26.7c.05.13.02.28-.08.37l-.52.54s-.11.08-.18.1l-.68.16-.68.2c-.06.02-.13.02-.18,0l-.71-.17-.67-.11s-.06-.02-.08-.03l-.64-.28-.68-.19-.71-.26-.65-.29-.68-.11s-.04-.02-.06-.02l-.67-.24-.66-.17-.7-.06s-.09-.02-.13-.04l-.59-.3h-.66s-.05-.01-.07-.01l-.69-.15-.7-.07-.7-.1-.69.04h-.04l-.68-.04-.66.16-.63.12-.45.45s-.06.05-.1.07l-.65.32s-.02.01-.04.02l-.67.24-.67.26s-.09.03-.15.02l-.72-.04h-.65s-.68.14-.68.14c-.03,0-.05,0-.08,0l-1.42-.07-.68.03s-.04,0-.05,0l-.68-.08-.64.03-.58.13-.41.31-.07.58v.64s.13.6.13.6l.37.55s.04.07.05.11l.15.59.48.41s.07.08.09.13l.26.6.48.41s.03.03.04.04l.88,1.03.63.3c.13.06.2.18.2.32s-.08.27-.2.32l-.51.23-.53.38-.41.48-.31.6-.37.63-.38.58-.27.63-.32.66s-.05.08-.08.11l-.51.46-.29.54-.19.68c-.02.07-.07.14-.13.19l-.55.42-.38.53-.45.57-.52.55s-.1.08-.17.1l-.71.18s-.04.01-.07.01l-.68.04-.74.02s-.07,0-.1-.02l-.69-.2c-.07-.02-.13-.06-.17-.1l-.44-.51s-.06-.08-.07-.13l-.21-.69s-.02-.07-.02-.11l.02-.63-.39-.48-.43-.43-.53-.13-.53.16-.39.4-.26.55-.31.56.04.53.31.53c.04.06.05.14.05.2l.29.44s.04.06.05.09l.2.69.28.6.48.51s.02.02.03.03l.44.59.46.51.54.47.54.44,1.19.78.65.29s.04.02.05.03l.59.39.65.29.65.27.69.16.76.21s.03.01.04.02l.67.29.71.09.75.15.68.02.68-.22s.04-.01.06-.02l.73-.12c.11-.02.22.02.31.1s.12.19.1.3l-.1.7s-.01.04-.02.06l-.45,1.34-.09.69-.11.72s0,.03-.01.04l-.2.7-.15.67-.07.66.11.69c.01.06,0,.12-.02.18l-.23.63.08.65s0,.03,0,.04l.02,1.44.07.67.18.68s.01.06.01.08v.67l.21.64s.02.08.02.12l-.02.7.14.61.33.61s.04.09.04.15l.05.68.26.61.31.64.28.68.22.7.32.61.28.64.46.51s.03.03.03.04l1.17,1.82.36.61.46.51.45.54.55.43s.05.05.07.08l.38.55.55.37s.04.03.06.05l.5.53.47.55.49.46.59.38,1.23.71.64.35s.06.04.09.07l.49.52.56.35.66.27s.08.04.11.08l.48.47.63.23s.09.05.12.08l.49.45.64.19c.06.01.1.04.15.08l.48.46.65.16c.06.02.1.04.15.08l.51.44.65.17s.03,0,.04.02l.68.28s.08.04.11.07l.48.46.65.13s.06.02.09.03l.64.32.67.24s.05.02.07.03l.61.38.61.28.69.12s.06.02.09.03l.67.32.63.28.69.15s.05.02.07.03l.63.29.68.12s.08.02.11.04l.6.34.67.13s.04.01.06.02l.67.26.69.18.67.24.7.02s.09.01.14.03l.63.28.68.05s.08.02.12.03l.62.27h.68s.77.08.77.08l.76.14.73.18.68.15.71.05s.04,0,.05,0l.7.15.71.06s.03,0,.04.01l.72.14,1.41.2.71-.03s.04,0,.05,0l.73.09.72.06.72.04.73.08,1.44-.08.7-.11s.07,0,.11,0l.71.11h.71l.77.07h.7s.71-.04.71-.04l.71-.1.71-.14s.06,0,.1,0l.71.06.69-.02.7-.14s.04,0,.06,0h.69s.68-.18.68-.18c.03-.01.06-.01.09-.01h.7s.67-.16.67-.16c.04-.01.08-.02.13-.01l.66.06.62-.26c.06-.02.13-.03.2-.02l.65.11.6-.27c.05-.02.11-.04.17-.03l.67.06.61-.27s.07-.03.1-.03l1.47-.16s.03,0,.04,0h.68s.63-.24.63-.24c.02-.02.05-.02.07-.03l.72-.13.75-.07.67-.14.67-.26.74-.21s.03-.01.04-.01l.73-.11.69-.16.7-.14.66-.27s.03-.01.04-.02l.72-.18.73-.13.67-.23.71-.22s.03-.01.04-.01l.69-.15c.05-.01.11-.01.16,0l.66.18.68.08c.06.01.11.03.16.06l.6.4s.07.06.1.1l.39.61s.03.04.04.07l.45,1.31s.02.05.02.07l.08.7c.01.07,0,.15-.03.21l-.32.63-.26.63c-.03.07-.07.13-.14.16l-.57.36-.49.49s-.04.04-.06.05l-.58.35-.48.5-.03.03-.57.46s-.07.04-.11.06l-.67.22-.52.36-.49.52s-.09.08-.15.09l-.66.21-.54.41s-.05.03-.08.05l-.61.26-.48.48s-.1.08-.16.09l-.63.17-.46.47s-.07.06-.12.08l-.67.28-.65.3-.63.33-.61.36-.68.33-1.38.55s-.03.01-.04.02l-.66.18-.56.38s-.06.04-.09.05l-.69.23-.65.28s-.03.01-.04.01l-.68.2-.63.3-1.29.67s-.04.01-.05.02l-.69.22s-.06.02-.09.02l-.7.05-.61.27s-.03.01-.04.01l-.66.2-.61.35s-.09.04-.14.05l-.67.08-.59.31s-.09.04-.14.04l-.69.05-.63.26-.65.31s-.04.02-.06.02l-.7.19s-.06.01-.09.02l-.66.02-.58.32s-.09.04-.14.04l-.69.07-.67.2s-.05.01-.07.01l-.7.05-.64.18-.65.3s-.05.02-.08.02l-.71.15-.74.1-.72.07-.69.15-.72.14-.74.1-.77.03-.71.06-.65.1-.67.25s-.06.02-.08.02l-.72.08-.7.13-.74.1h-.07l-.7-.05-.68.11-.7.14s-.04,0-.05,0l-.73.04h-.05l-.68-.06-.67.14s-.04,0-.05,0l-.73.04h-.04l-.73-.05-.67.02-.7.11s-.07,0-.1,0l-.68-.1-.67.1s-.02.01-.04.01ZM298.54,325.66s.05,0,.07,0l.67.14.66-.11s.08,0,.11,0l.68.1.67-.1s.03,0,.05,0h.73s.74.04.74.04l.68-.04.7-.15s.07,0,.1,0l.71.06.68-.04.69-.14.73-.13s.06,0,.08,0l.7.05.68-.09.71-.13.7-.08.66-.24s.04-.02.07-.02l.71-.11.76-.06.74-.03.69-.09,1.4-.28s.03,0,.04-.01l.72-.07.71-.09.65-.14.64-.3s.04-.02.05-.02l.7-.19s.05-.01.07-.02l.7-.05.66-.19s.04-.01.06-.01l.66-.07.6-.32c.05-.03.1-.05.16-.05h.7s.63-.19.63-.19l.64-.31.69-.29s.07-.02.11-.03l.67-.05.59-.31s.08-.03.13-.04l.66-.07.58-.34s.05-.03.08-.03l.68-.2.65-.28s.08-.03.11-.03l.71-.05.63-.21,1.27-.66.68-.32s.04-.01.05-.02l.68-.19.65-.28.67-.23.57-.39s.07-.04.1-.05l.69-.19,1.34-.53.63-.31.6-.35.66-.34.67-.32.63-.26.48-.49s.1-.08.17-.09l.64-.17.47-.46s.07-.06.11-.07l.64-.27.55-.42s.07-.04.1-.06l.63-.2.46-.47s.03-.04.06-.05l.59-.41s.06-.04.09-.05l.66-.21.5-.4.51-.52s.04-.04.07-.06l.59-.36.49-.49s.04-.03.06-.04l.51-.33.22-.55.28-.56-.07-.56-.43-1.22-.32-.51-.46-.31-.63-.07s-.04,0-.06-.01l-.6-.17-.59.13-.69.21-.69.24s-.04.01-.06.02l-.73.13-.66.17-.67.27s-.05.02-.07.02l-.72.14-.7.16-.74.12-.69.2-.67.26s-.04.01-.06.02l-.72.14s-.03,0-.04,0l-.74.06-.65.12-.66.27s-.09.03-.13.03h-.73s-1.39.15-1.39.15l-.65.29c-.06.02-.11.03-.18.03l-.66-.06-.61.28c-.07.03-.14.04-.21.02l-.66-.11-.61.25c-.05.02-.11.03-.17.03l-.69-.06-.66.17s-.06.01-.09.01h-.7s-.67.16-.67.16c-.03.01-.05.02-.08.02h-.71s-.69.14-.69.14c-.02,0-.04.01-.06.01l-.74.02h-.04l-.69-.06-.68.13-.75.1-.76.05h-.76s-.77-.08-.77-.08h-.7s-.04,0-.05,0l-.68-.1-.68.11-1.52.08h-.05l-.73-.08-.71-.03-.75-.06-.71-.08-.72.02s-.04,0-.06,0l-1.46-.2-.72-.15-.71-.06s-.04,0-.05,0l-.69-.15-.71-.05s-.03,0-.05,0l-.72-.15-.73-.18-.7-.13-.7-.07h-.72s-.09-.01-.14-.03l-.63-.28-.68-.05s-.08-.02-.13-.03l-.62-.28-.68-.02s-.07-.01-.1-.02l-.7-.24-.68-.18s-.03,0-.04-.01l-.66-.26-.69-.13s-.07-.02-.11-.04l-.6-.34-.67-.12s-.06-.02-.09-.03l-.63-.3-.69-.15s-.05-.01-.07-.02l-.68-.3-.63-.3-.69-.11s-.06-.02-.09-.03l-.67-.31s-.03-.02-.04-.02l-.6-.37-.66-.24s-.03-.01-.04-.02l-.61-.31-.7-.15c-.06-.01-.12-.04-.17-.09l-.52-.48-.6-.24-.7-.19c-.05-.02-.1-.04-.14-.07l-.51-.44-.65-.16c-.06-.02-.11-.05-.16-.09l-.48-.46-.65-.18c-.05-.02-.1-.04-.14-.08l-.5-.46-.63-.23s-.09-.05-.13-.08l-.48-.48-.63-.25s-.04-.02-.06-.03l-.62-.4s-.05-.03-.06-.05l-.48-.51-1.23-.68-.63-.37-.62-.4s-.03-.03-.05-.04l-.54-.49-.03-.03-.47-.56-.46-.48-.58-.39s-.07-.06-.09-.1l-.39-.56-.53-.42s-.04-.03-.06-.05l-.46-.55-.48-.53s-.03-.04-.04-.06l-.37-.63-1.15-1.78-.47-.53s-.04-.06-.06-.09l-.3-.67-.32-.63s-.02-.04-.02-.06l-.22-.7-.27-.64-.3-.64-.29-.68s-.03-.07-.03-.11l-.05-.66-.32-.58s-.03-.06-.04-.09l-.17-.71s-.01-.06-.01-.09l.03-.68-.21-.64s-.02-.07-.02-.1v-.68s-.17-.67-.17-.67c0-.02-.01-.04-.01-.05l-.07-.72-.03-1.46-.08-.71c0-.06,0-.11.02-.17l.23-.63-.1-.64s0-.07,0-.09l.08-.72s0-.03,0-.04l.16-.71.2-.69.11-.7.09-.7s0-.05.02-.07l.45-1.34.03-.19-.22.04-.72.23s-.08.02-.12.02l-.77-.03s-.04,0-.06,0l-.76-.16-.74-.09s-.07-.01-.1-.03l-.69-.3-.71-.2-.7-.16s-.04-.01-.06-.02l-.68-.28-.68-.3s-.04-.02-.05-.03l-.59-.39-.65-.29s-.03-.02-.05-.03l-1.22-.81s-.02-.02-.03-.03l-.57-.46-.56-.49s-.03-.02-.04-.03l-.49-.55-.45-.59-.51-.53s-.05-.06-.06-.09l-.32-.67s-.01-.04-.02-.05l-.19-.67-.39-.58c-.05-.07-.07-.16-.06-.24l-.24-.41s-.05-.1-.05-.15l-.05-.72c0-.07.01-.14.04-.2l.34-.64.28-.59s.04-.07.07-.09l.49-.5s.09-.08.15-.09l.7-.21c.06-.02.12-.02.18-.01l.72.17c.06.02.13.05.17.09l.52.52s.02.02.03.03l.47.6c.05.06.08.15.08.22l-.02.7.18.56.32.37.54.16.68-.02.64-.04.57-.15.43-.45.42-.54.39-.56s.05-.06.08-.08l.5-.38.17-.59.03-.08.34-.63s.04-.07.07-.09l.5-.46.28-.58.27-.64s.02-.04.03-.06l.39-.59.35-.6.32-.62s.03-.05.04-.06l.46-.55s.04-.04.06-.06l.53-.38-.04-.02s-.08-.06-.11-.09l-.91-1.07-.52-.45s-.07-.08-.09-.13l-.26-.59-.5-.42c-.06-.05-.09-.11-.11-.19l-.17-.65-.37-.55s-.05-.08-.06-.13l-.15-.7s0-.05,0-.08v-.72s.09-.77.09-.77c.01-.1.06-.19.14-.24l.59-.44s.08-.05.14-.06l.69-.16s.04-.01.06-.01l.7-.03h.06l.68.08.68-.03,1.41.07.67-.13s.04,0,.06,0h.7s.68.03.68.03l.6-.23.66-.23.58-.28.48-.49c.05-.05.11-.08.19-.1l.72-.14.7-.16s.07-.01.1-.01l.71.04.7-.04h.08l.72.11.7.07s.03,0,.04,0l.68.14h.7c.06.01.11.02.16.05l.61.31.67.06s.04,0,.06.01l.7.18s.03,0,.04.01l.65.24.69.12s.06.02.08.03l.67.29.66.24.67.18s.03.01.05.02l.63.27.66.11.64.15.61-.18.6-.14.29-.3-.16-.45-.83-1.09-.39-.58-1.03-.94-.49-.51-.52-.39-.64-.28s-.09-.05-.12-.09l-.46-.51-.59-.32-.64-.41s-.05-.04-.07-.06l-.48-.53-.54-.41-.61-.36-.64-.32-.65-.41s-.04-.03-.06-.04l-.5-.48-.6-.33s-.04-.03-.06-.04l-.52-.44-.64-.27s-.09-.05-.12-.08l-.48-.51-3.13-1.81-.64-.41s-.06-.04-.08-.06l-.45-.52-.6-.28s-.07-.04-.09-.06l-.52-.47-.6-.35s-.03-.02-.05-.04l-.51-.43-.66-.21c-.07-.02-.13-.07-.17-.12l-.42-.53-.6-.26s-.07-.04-.1-.06l-.52-.46-.62-.33s-.02-.01-.03-.02l-.6-.42-.6-.4s-.03-.02-.04-.03l-1.1-.95-.56-.45s-.04-.03-.06-.05l-.42-.51-.61-.29s-.08-.06-.12-.09l-.45-.54-.54-.44s-.03-.03-.04-.04l-.49-.55-.52-.48s-.04-.05-.06-.07l-.36-.6-.49-.49-.5-.58s-.06-.09-.08-.14l-.18-.66-.42-.53s-.04-.07-.06-.1l-.26-.69s-.02-.07-.02-.1l-.06-.73-.1-.7s0-.07,0-.1l.21-1.43.17-.7.08-.72c.01-.07.04-.13.08-.18l.47-.57.48-.55.45-.57s.08-.09.14-.11l.66-.27.54-.38.47-.48.38-.59s.03-.04.05-.05l.44-.46.11-.63.34-1.38v-.68s0-.07,0-.1l.18-.63-.15-.64s-.01-.04-.01-.06l-.05-.72v-.06l.07-.72.03-.72-.02-1.45v-.04l.16-1.46.12-.74s.01-.05.02-.07l.26-.69.19-.66.13-.71s0-.03.01-.04l.2-.71s.01-.05.03-.07l.33-.64.24-.67.3-.7.65-1.34s.03-.05.05-.07l.43-.53.2-.65s.03-.08.06-.11l.43-.55.26-.65s.03-.06.05-.08l.87-1.13.22-.67s.03-.07.06-.1l.46-.58.48-.55.35-.6s.04-.05.06-.07l.5-.51.39-.56.34-.65s.04-.07.08-.1l.52-.47.4-.57s.03-.05.06-.06l.53-.47.43-.56s.02-.03.04-.04l.51-.49.42-.57s.02-.02.03-.03l.51-.54.54-.51.47-.54.52-.51.38-.6s.05-.07.08-.09l1.13-.87.4-.57s.06-.08.11-.1l.58-.36.43-.54s.08-.08.14-.1l.66-.29.5-.42.47-.54s.04-.04.06-.05l.57-.43.53-.49s.02-.02.03-.03l.6-.44s.05-.03.07-.04l.66-.27.57-.4s.05-.03.08-.04l.63-.23.51-.45s.07-.05.11-.07l.67-.23,1.27-.65.68-.31s.03-.01.05-.02l.66-.18.59-.34s.06-.03.09-.04l.65-.17.58-.37.68-.35s.07-.03.1-.04l.7-.13,1.35-.45s.03,0,.04-.01l.67-.14.61-.33s.05-.02.07-.03l.7-.19s.04,0,.05-.01l.67-.07.6-.31s.04-.02.06-.02l.69-.21.71-.16.66-.26s.04-.01.05-.02l.71-.16s.04,0,.06,0l.69-.05.65-.22s.05-.02.08-.02l.69-.08.66-.22s.05-.01.07-.01l.69-.08.68-.19s.03,0,.05-.01l.7-.09,1.4-.36s.07-.02.11-.01l.67.05.63-.23s.05-.02.08-.02l.72-.08s.04,0,.05,0h.68s.66-.19.66-.19c.04-.01.07-.02.11-.02l.67.02.64-.23s.04-.02.06-.02l.72-.13s.07,0,.1,0l.69.08,1.39-.24s.06-.01.09,0l.69.06.68-.13s.07,0,.1,0l.66.07.65-.2s.1-.02.15-.02l.71.1h.67s.68-.14.68-.14c.04,0,.07-.01.11,0l.68.06.68-.13s.09-.01.13,0l.73.14.64.05.68-.13s.06-.01.09-.01l.69.04.69-.09s.08,0,.12,0l.69.15h.69s.74,0,.74,0c.02,0,.04,0,.06,0l.66.13.68-.1s.09,0,.14,0l.69.18.7.04h.7s.05-.01.07,0l.69.12h.7s.06.02.09.03l.65.19.68-.03h.05l1.45.13s.04,0,.06,0l.68.17.7.05.74.11s.05.01.07.02l.63.24h.68s.05,0,.08,0l.71.16.7.12.73.17,1.35.42.69-.05s.09,0,.14.02l.67.22.69.1s.08.02.11.04l.61.32,1.39.22.73.16s.04.01.06.02l1.33.51.69.1s.09.02.14.05l.6.36,1.33.35.64.06.59-.08.46-.32.29-.55.23-.56-.11-.58-.27-.55-.53-.4s-.04-.03-.06-.05l-.48-.54s-.03-.03-.04-.05l-.38-.59-.49-.49-.48-.53-.55-.44s-.04-.03-.05-.05l-.46-.55-.5-.44-.62-.35s-.08-.06-.1-.09l-.42-.55-.56-.38s-.02-.02-.03-.02l-1.65-1.39-.62-.31s-.06-.03-.08-.05l-.53-.47-.59-.37-.63-.32s-.03-.02-.04-.02l-.6-.41-.6-.47-1.16-.8-.64-.28-.67-.35-.64-.41-.58-.44-.63-.28-1.35-.54-.68-.32s-.04-.02-.05-.03l-.57-.4-.64-.24s-.03-.02-.05-.02l-.59-.33-.68-.13s-.06-.02-.08-.03l-.66-.31-.66-.23s-.05-.02-.07-.04l-.63-.4-.63-.32-.61-.23-.7-.1s-.03,0-.04,0l-.71-.19s-.04-.01-.06-.02l-.64-.3-.68-.18-.71-.23-.68-.17s-.06-.02-.08-.03l-.61-.33-1.38-.26s-.05-.01-.07-.02l-.64-.26-.69-.09s-.06-.01-.09-.02l-.64-.27-.69-.09s-.03,0-.05-.01l-.71-.19s-.03-.01-.05-.02l-.63-.29-.67-.06s-.04,0-.06-.01l-.71-.18-.67-.12-.71-.02s-.08-.01-.12-.02l-.63-.26h-.67s-.09,0-.13-.02l-.64-.24-.67-.02-.72.03c-.05,0-.1-.01-.16-.03l-.65-.28-1.39-.16h-.72l-.76-.05-.08-.02-.68-.21-.67-.07-.71.03s-.05,0-.08,0l-.66-.12-.68.1s-.07,0-.11,0l-.7-.11-.71-.02-.77-.1-.69-.06-1.45.08-.76-.02s-.03,0-.04,0l-.69-.09-.7.06s-.08,0-.11-.01l-.7-.18-.65-.05-.68.17s-.1.02-.15,0l-.7-.15h-.7s-.71.06-.71.06h-.76s-1.48-.03-1.48-.03c-.03,0-.05,0-.07-.01l-.67-.16-.66.11s-.07,0-.1,0l-.7-.09-.69.04-.71.11-.76.06-.72.07-1.49.02-.71.06h-.05l-1.45-.08-.68.04-.68.19s-.06.02-.09.02h-.73s-.68,0-.68,0l-.65.23s-.03.01-.05.02l-.72.15s-.04,0-.07,0h-.73s-.7-.01-.7-.01l-.66.19-.73.19s-.05.01-.07.01l-.7.03-.67.18-.74.15s-.03,0-.05.01l-.71.04-.67.14-.68.22s-.06.01-.09.02l-.71.05-.66.16-.66.28s-.07.03-.11.03l-.67.05-.6.3c-.05.02-.1.04-.16.04h-.7s-.65.21-.65.21l-.67.18-.57.4c-.06.04-.12.06-.18.06l-.66.04-.54.38s-.07.04-.12.05l-.69.18-1.36.49-.67.22-.6.36-.67.36s-.05.03-.07.03l-.66.18-.56.4s-.07.04-.11.05l-.66.18-.55.4s-.08.05-.13.06l-.68.17-.57.34-.58.44s-.08.06-.14.07l-.68.16-1.18.74-.56.45s-.03.03-.05.04l-.64.35-.61.37-.6.4s-.03.02-.05.03l-.63.29-.53.44s-.03.03-.04.03l-1.22.76-.53.47s-.03.03-.05.04l-1.25.78-.64.33-.52.47-.59.47s-.04.03-.06.04l-.67.34-.55.35-.47.52s-.04.04-.05.05l-1.18.88s-.02.02-.03.03l-.6.35-.51.48s-.03.02-.05.04l-.61.41-.55.44-.6.45-.59.42-.52.49-.59.47-1.24.81-.48.51s-.03.02-.04.03l-.58.45-.6.39-.45.54s-.04.05-.06.06l-.6.43-.6.38-.49.49s-.04.04-.07.06l-.58.33-.4.55s-.05.06-.08.08l-.56.39-.42.54s-.02.03-.03.04l-.51.52-.54.51-.51.51s-.04.04-.06.05l-.59.38-.45.51-.52.54-.42.53-.39.6s-.05.06-.08.08l-.54.45-.43.54s-.03.03-.04.05l-.53.46-.4.53-.3.65s-.05.08-.09.12l-.52.45-.34.58s-.04.05-.06.08l-.5.49-.38.58-.33.63-.4.64s-.02.03-.03.04l-.47.56-.47.51-.25.63c-.03.05-.05.09-.09.13l-.52.47-.34.55-.24.67s-.03.06-.05.09l-.44.59-.34.57-.27.66s-.05.09-.08.12l-.52.51-.35.53-.16.67s-.03.08-.05.11l-.81,1.22-.36.61-.36.58-.17.67c-.02.05-.04.1-.07.14l-.43.53-.19.65s-.01.03-.01.04l-.29.67s-.03.05-.04.07l-.42.57-.3.63-.34.63-.21.67-.28.7-.33.69-.27.65s-.02.03-.02.04l-.35.62-.27.65s-.02.04-.03.06l-.36.56-.08.67c0,.06-.03.11-.06.16l-.4.6-.29.6-.19.68s-.02.04-.03.06l-.31.62-.16.67s0,.03-.01.04l-.48,1.37-.29.65-.1.69s0,.04-.02.06l-.23.69-.21.69s-.01.04-.02.06l-.33.61-.15.67s-.01.04-.02.05l-.28.68-.33.64-.27,1.39s-.01.05-.02.07l-.26.64-.1.68s-.01.07-.03.1l-.29.63-.11.67s0,.03-.01.04l-.2.7-.25.7-.17.67-.07.71s-.01.08-.03.11l-.3.64-.16.67-.26,1.42s-.01.04-.02.05l-.22.63.05.68s0,.09-.02.14l-.21.67-.08.69-.13.74s-.02.07-.04.1l-.3.57.1.65s0,.1-.01.15l-.18.71-.15.69s0,.04-.01.05l-.23.64v.67s.04.73.04.73c0,.04,0,.07-.02.11l-.18.67-.03.69-.1.76s0,.04-.01.06l-.2.62.13.66c.01.06.01.13-.01.18l-.23.67-.05.64.1.7s0,.08,0,.12l-.13.68.03.69s0,.04,0,.06l-.08.69.07.69s0,.08,0,.13l-.16.68.02.68v.71l.11.7s0,.06,0,.08l-.06.7.08.67.18.69s.02.07.01.1l-.03.66.27.61c.03.06.04.12.03.18l-.05.66.25.6s.02.03.02.05l.2.7.3,1.45.18.69s.01.05.01.08l.02.69.21.65.2.72.13.76.19.67.24.66s.02.05.02.08l.09.68.3.62s.02.07.03.1l.1.66.34.59s.03.06.04.08l.19.71s.01.04.01.05l.07.68.32.59s.02.04.03.05l.23.7.19.68.36.6s.03.05.04.08l.22.7s.01.04.02.05l.1.69.31.6.31.68s.02.03.02.05l.2.69.28.66.65,1.28s.01.03.02.05l.23.7.19.69.34.6.42.58s.04.07.05.11l.18.67.36.58.03.06.26.69.28.61.4.58s.02.03.02.04l.35.65.38.6.35.67s.03.06.03.09l.15.68.4.53s.02.03.02.04l.36.64.75,1.22.45.57.81,1.27.35.68.37.6.4.6.36.63.95,1.08s.03.04.04.06l.36.64.38.62.41.55.48.53s.02.03.03.04l.86,1.17s.02.03.03.04l.34.62.43.49.57.43s.05.05.07.07l.44.58s.03.04.03.05l.31.61.51.44.54.54.49.57.41.58.58.37s.04.04.06.06l.51.53.49.59.46.59.45.52.54.46,1.04,1.03.58.41s.06.05.08.08l.39.53.61.28s.07.04.1.06l.54.5.53.54s.02.02.03.03l.42.54.58.36.61.46.03.03.51.49.58.4.58.43.64.33s.07.05.1.08l.47.53.54.39.64.3s.08.05.11.08l.48.52,1.19.77.63.34s.04.03.05.04l1.15.91,1.15.75.69.17c.07.02.14.05.18.1l.46.51.61.23.69.33s.05.03.07.05l.51.43.66.18s.06.03.09.04l.63.39.58.42.65.26s.05.02.07.03l.58.39.66.23s.05.03.08.04l.56.39.66.18s.09.04.13.06l.53.42.65.14s.06.02.09.04l.63.32.67.2s.06.02.09.04l.63.4,1.25.61.69.16s.05.02.08.03l.66.33.63.24.7.17s.05.02.07.03l.61.3.69.1s.06.01.09.03l1.34.59.65.31.68.15.71.09s.04.01.06.01l.7.21.7.23s.05.02.08.03l.58.36.66.09s.05.01.07.02l.67.24.66.16.71.04c.06,0,.1.02.15.04l.61.33.67.14.71.18,1.43.19s.05.01.07.02l.67.23.69.16.7.22.69.09.72.16.71.08.73.11s.06.02.08.03l.64.28.68.08,1.43.23.71.03h.04l.72.11.73.13,2.15.24.7.1,1.43-.06s.05,0,.08,0l.69.12h.7s.05.02.07.02l.72.16.67.11.69-.03h.72s.71-.11.71-.11c.02,0,.04,0,.06,0l.73.02.74.05.74.08.67.02.7-.09s.02-.02.03-.02Z"/>
    </g>
  </g>
  <path class="cls-4" d="M272.44,271.96c-.09,0-.18-.04-.26-.1l-.1-.11c-.14-.14-.14-.36,0-.5.14-.14.36-.14.5,0l.1.11c.14.14.14.36,0,.5-.06.07-.16.1-.24.1Z"/>
  <path class="cls-2" d="M269.9,245.88l.7-.34.67-.4.68-.4.78-.13.7-.38.71-.14.72.07.71.19.27.68.09.73-.52.56-.73.17-.7.11-.74.2-.75.09-.76.05-.75.08-.75.15-.76.02-.61-.4.28-.68.75-.26Z"/>
  <path class="cls-4" d="M269.48,247.56c-.07,0-.14-.02-.19-.05l-.61-.4c-.15-.09-.2-.28-.14-.44l.28-.68c.04-.1.12-.17.22-.2l.73-.24.68-.32,1.32-.79s.08-.04.13-.05l.73-.11.65-.35s.07-.03.1-.04l.71-.13s.07-.01.1,0l.72.07s.04,0,.05.01l.72.18c.11.03.2.11.24.21l.27.68s.02.06.02.09l.09.72c.02.1-.02.21-.09.29l-.52.56c-.05.05-.11.09-.18.1l-.72.17-.71.11-.72.2s-.03.01-.05.01l-.75.09-.78.05-.74.08-.72.14s-.04,0-.06,0l-.76.02s-.01,0-.02,0ZM269.31,246.68l.28.17.62-.02.72-.14.78-.08.78-.05.7-.09.71-.2s.03,0,.04,0l.7-.11.59-.14.33-.36-.06-.52-.19-.46-.51-.13-.64-.07-.6.11-.65.35s-.07.03-.11.04l-.72.11-1.3.76-.72.35s-.03.01-.04.02l-.6.2-.11.26Z"/>
  <path class="cls-2" d="M232.18,223.18l.85-1.19.47-.56.63-.42.4-.62.57-.46.46-.56.55-.47.35-.68.67-.35.42-.61.58-.44.46-.57.53-.49.52-.52.58-.43.58-.44.57-.46.66-.33.47-.59.65-.34.57-.45.63-.36.59-.42.69-.26.59-.43.61-.4.74-.13.59-.44.67-.28.72-.15.67-.27.72-.12.7-.17.7-.14.68-.29.73.04.72-.03.72-.11.7.28.68.2.67.24.59.43.03.7-.14.71-.53.53-.65.34-.64.38-.74.07-.66.35-.71.19-.74.06-.7.21-.65.36-.69.24-.71.21-.69.25-.66.32-.69.23-.67.31-.67.29-.7.23-.63.4-.66.31-.65.35-.63.38-.71.23-.65.35-.68.3-.66.33-.53.55-.72.21-.65.35-.63.37-.64.37-.53.55-.72.21-.55.49-.62.39-.67.31-.59.44-.57.47-.58.45-.68.31-.59.23.47-.56Z"/>
  <path class="cls-4" d="M231.72,224.1c-.11,0-.22-.06-.29-.15-.09-.14-.09-.31.02-.44l.46-.56.84-1.17.48-.58s.05-.05.08-.07l.56-.38.36-.55s.05-.06.08-.08l.54-.44.44-.54s.03-.03.04-.05l.5-.43.32-.61c.03-.06.08-.12.15-.15l.59-.32.36-.54s.05-.06.08-.09l.55-.42.44-.53.03-.03.53-.5.51-.51s.03-.02.04-.03l1.17-.87.55-.45s.04-.03.06-.04l.59-.3.41-.53s.07-.07.12-.09l.62-.32.55-.43s.03-.02.04-.03l.63-.36.57-.4s.05-.03.08-.05l.65-.24.55-.4.62-.41s.09-.05.14-.05l.66-.11.53-.39s.05-.03.08-.04l.67-.28s.04-.01.06-.02l.69-.15.64-.26s.05-.02.07-.02l.71-.13.68-.16.68-.14.65-.28s.1-.03.16-.03l.72.05.67-.03.71-.11c.07-.01.13,0,.19.02l.69.28.65.18.69.25s.06.03.08.04l.6.42c.09.07.15.17.15.28l.03.7s0,.05,0,.08l-.14.71c-.02.06-.05.13-.1.18l-.52.53s-.06.05-.09.06l-.65.34-.62.36s-.1.04-.15.04l-.68.07-.59.31s-.05.03-.07.03l-.71.19s-.04.01-.06.01l-.71.06-.63.19-.63.34s-.03.02-.06.03l-.69.23-.72.21-.65.24-.65.32s-.03.02-.04.02l-.68.23-.65.3-.68.3-.69.23-.59.38s-.03.02-.04.02l-.66.31-.63.34-.61.38s-.05.02-.08.03l-.68.22-.62.33-.7.31-.59.3-.48.51s-.1.08-.16.1l-.69.2-.61.33-1.22.71-.49.51s-.09.08-.16.1l-.65.19-.49.44s-.03.03-.05.04l-.61.39s-.03.02-.04.02l-.64.3-.56.42-1.15.91s-.05.04-.08.05l-.68.3-.6.23s-.08.03-.12.03ZM233.74,221.7l-.43.52-.46.64,1.67-1.3s.04-.03.06-.04l.65-.3.57-.36.53-.48s.09-.06.14-.08l.64-.19.46-.48s.05-.04.08-.06l1.27-.74.65-.36s.05-.02.07-.03l.64-.19.46-.49s.06-.05.1-.07l.66-.33.69-.31.63-.34s.04-.02.06-.02l.67-.22.59-.36.66-.35.66-.31.6-.39s.05-.03.08-.04l.71-.23.64-.28.66-.3s.03-.01.04-.02l.68-.23.64-.31s.03-.01.04-.02l.69-.24.72-.21.65-.22.63-.35s.04-.02.07-.03l.7-.22s.05-.01.08-.01l.71-.06.64-.17.63-.33s.08-.04.14-.04l.67-.06.57-.33.62-.32.41-.42.11-.56-.02-.48-.41-.29-.63-.22-.66-.19-.64-.26-.64.1h-.04l-.72.03-.68-.04-.61.26s-.05.02-.07.02l-.7.15-.69.16-.7.12-.64.26s-.04.02-.06.02l-.69.15-.6.25-.56.42s-.1.06-.16.06l-.67.11-.55.36-.58.42s-.05.03-.08.04l-.65.24-.56.39-.64.37-.55.43s-.04.03-.06.04l-.58.3-.41.53s-.08.08-.13.1l-.63.31-.53.43-1.16.87-.49.49-.52.49-.45.55s-.04.04-.06.06l-.54.41-.38.56c-.03.05-.07.09-.13.11l-.57.31-.32.58s-.05.08-.08.11l-.54.45-.44.54s-.03.04-.05.05l-.53.43-.36.57s-.06.08-.1.1l-.59.39Z"/>
  <path class="cls-2" d="M258.83,241.14l-.23-.7-.41-.63-.35-.66-.57-.5-.49-.55-.39-.66-.61-.44-.64-.39-.57-.47-.62-.42-.69-.29-.64-.39-.71-.22-.63-.42-.74-.15-.68-.31-.7-.24-.72-.19-.7-.29-.74-.1-.75-.07-.74-.08-.72-.21-.74-.1-.76.04-.72-.27-.75.14-.74-.06-.83-.1.79-.23.74.06.66-.32.71-.05h.7s.7-.06.7-.06l.71.09.69-.06.7-.02.7.04.71-.05.69.16,1.4.19.7.2.71.13.69.22.66.3.66.29.7.21.63.38.51.53.56.46.63.4.33.67.46.53.31.64.31.63.41.61.05.72.24.67.18.7-.06.71Z"/>
  <path class="cls-4" d="M258.94,242.03l-.51-1.51-.4-.61-.35-.64-.55-.48-.51-.57-.39-.66-.58-.41-.63-.39-.6-.48-.6-.41-.66-.27-.65-.39-.74-.24-.6-.4-.74-.15-.68-.31-.68-.24-.71-.18-.7-.29-.72-.1-1.48-.16-.75-.21-.71-.1-.76.05-.71-.27-.72.13-.76-.05-1.69-.22,1.64-.47.73.06.68-.31.7-.05h.72s.69-.05.69-.05l.72.09.68-.07.71-.02.71.04.71-.05.72.16,1.38.19.73.2.69.12.72.23,1.33.59.72.22.66.41.51.53.54.44.66.41.33.69.47.55.63,1.26.42.63.05.75.24.64.19.74-.11,1.61ZM251.96,234.69l.73.23.64.39.67.28.65.43.59.48.61.38.68.49.39.66.46.53.6.53.36.66.29.44-.09-.39-.26-.7-.04-.68-.38-.57-.63-1.26-.47-.55-.3-.63-.59-.37-.57-.47-.51-.53-.59-.35-.69-.2-1.34-.59-.67-.21-.69-.12-.72-.2-1.37-.18-.68-.15-.68.05-.72-.04-.69.02-.71.07-.72-.09-.66.05h-.72s-.66.05-.66.05l-.57.27.67-.12.73.28.71-.04.77.11.74.21,1.45.15.79.11.7.29.7.18.72.25.67.31.79.17.61.4Z"/>
  <path class="cls-2" d="M262.34,226.29l-.11.76-.36.67-.53.54-.54.55-.74.23-.63.44-.73.22h-.76l-.74.07.04.13-.42.18-.8.24-.8.22-.8.23v-.06l-.66.37-.69.3-.73.18-.69.31-1.47.34-.69.16-.72-.03-.7.06-.7-.02h-.7s-.7.21-.7.21l-.7-.19-.7-.05-.69-.05-.7-.07-.72.12-.67-.29h-.73s-.72-.15-.72-.15l.76.05.74-.1.73-.14.73-.14.75.02.73-.12.74-.09.74-.06.7-.27.76-.02.7-.28.73-.15.69-.3.71-.21.72-.2.66-.36.64-.38.75-.17.66-.36.55-.53.64-.38.55-.51.59-.45.56-.49.53-.53.32-.69.46-.58.43-.63.23-.73-.11.79-.14.75-.11.77-.24.73-.38.67-.32.81.76-.42.54-.57.51-.58.54-.56.35-.69.36-.64.03.62.06.66v.68s-.21.64-.21.64l-.43.53.1.14.63-.46.67-.38.57-.51.64-.59-.31.8Z"/>
  <path class="cls-4" d="M245.95,232.76l-.75-.2-1.36-.1-.68-.07-.74.12-.68-.29-.72.02-.74-.17.05-.35.76.05.7-.09,1.47-.28.77.02.7-.11.75-.09.73-.06.74-.28.73-.02.67-.27.74-.15.67-.3,1.43-.42.64-.35.69-.4.72-.16.61-.34.57-.54.63-.36.53-.49.6-.46.56-.48.5-.5.33-.7.46-.58.4-.59.23-.71.35.08-.12.79-.14.76-.11.76-.25.77-.39.7-.13.33.3-.17.52-.55.51-.58.52-.55.34-.67.67-1.18.06,1.23.06.65v.72s-.25.72-.25.72l.06-.05.67-.38.56-.49,1.2-1.13-.6,1.52-.13.79-.4.71-1.1,1.12-.75.23-.66.45-.78.22h-.77l-.51.05.03.07-.57.24-.82.25-1.81.51-.42.23-.71.31-.77.19-.66.3-2.21.52-.74-.04-.67.07-1.39-.03-.71.22ZM243.16,232.03l2.11.18.68.18.68-.22,1.43.03.68-.06.71.04,2.13-.5.66-.29.77-.19.67-.29.9-.5v.12l2.18-.63.26-.11-.05-.18.96-.1h.76l.68-.2.65-.45.7-.21,1.02-1.04.34-.62.15-.83-.06.05-.6.54-.66.38-.76.56-.29-.39.49-.61.2-.58v-.64s-.07-.66-.07-.66l-.06.11-.39.72-.53.56-.51.57-.58.61-1.19.66.5-1.27.39-.69.22-.7.15-.98-.13.2-.46.57-.35.72-.54.53-.57.5-.6.45-.56.52-.62.36-.57.54-.7.39-.72.16-.61.36-.7.38-1.43.42-.7.31-.73.15-.73.28-.73.02-.72.27-.75.06-.73.09-.73.12-.77-.02-1.2.23.38.16.68-.11Z"/>
  <path class="cls-2" d="M257,235.84l-.49-.49-.47-.55-.61-.39-.54-.51-.65-.32-.67-.28-.63-.37-.66-.32-.68-.25-.72-.13-.72-.08.74-.12.69-.32.72-.19.76-.11.7-.28.63-.44-.02-.06,1.61-.34.77-.35.43.6.38.59.33.65.09.72-.02.72-.2.69-.21.67-.2.68-.37.57Z"/>
  <path class="cls-4" d="M257,236.2c-.09,0-.18-.04-.24-.1l-.49-.49-.46-.54-.57-.36s-.04-.02-.05-.04l-.49-.46-.6-.3-.65-.27s-.03-.02-.05-.02l-.63-.37-.64-.31-.63-.23-.69-.12-.7-.08c-.18-.02-.31-.17-.31-.34,0-.18.13-.33.3-.36l.69-.11.65-.3s.04-.02.06-.02l.73-.19.75-.11.63-.25.46-.32c.04-.1.14-.18.25-.21l1.58-.33.73-.34c.16-.07.34-.02.44.12l.42.6.39.6.35.68s.03.07.04.11l.09.72s0,.04,0,.05v.72s-.02.07-.03.1l-.62,2.05s-.03.06-.04.09l-.37.57c-.06.09-.16.15-.26.16-.02.02-.03.02-.04.02ZM255.64,234.12l.59.38s.06.04.08.07l.47.56.17.16.1-.17.59-1.95v-.65s-.07-.64-.07-.64l-.3-.59-.61-.92-.5.23s-.05.02-.07.03l-1.43.3s-.03.03-.05.04l-.62.44s-.05.03-.08.04l-.7.28s-.05.02-.08.02l-.76.11-.62.16.66.24.69.33.63.37.65.27.68.33s.06.04.09.06l.49.47Z"/>
  <path class="cls-2" d="M230.27,269.19l-.58.03-.58-.03-.57-.14-.56-.13-.62-.21-.61-.24-.66-.1-.55-.39-.63-.18-.59-.29-.57-.31-.6-.26-.6-.26-.59-.3-.51-.43-.46-.47-.52-.4-.56-.34-.51-.41-.41-.52-.55-.38-.39-.54-.4-.52-.36-.55-.4-.53-.31-.59-.09-.67-.37-.56-.17-.64-.11-.65-.06-.66-.11-.66.18-.65-.02-.66.13-.64.07-.65.18-.63.18-.62.15-.64.21-.61.39-.54.16-.66.49-.46.18-.66.55-.41.35-.55.43-.49.38-.54.55-.37.46-.45.45-.47.44-.49.58-.31.59-.28.56-.33.51-.43.59-.28.64-.16.62-.2.6-.25.61-.24.65-.05.63-.21.65-.06.65-.1.65.1.65.04.65.11.67-.04,1.3.27.6.29.62.23.61.27.48.47.6.3.43.51.47.45.44.49.4.53.31.58.33.58.24.61.3.59.07.67.23.62.11.66.24.62-.1.09.05.65.02.65.1.66.07.66-.11.65-.15.65-.07.65v.67s-.14.64-.14.64l-.16.64-.22.63-.23.61-.33.57-.27.59-.4.53-.3.59-.36.53-.5.4-.52.36-.57.28-.57.26-.57.27-.63.09-.66.1-.67-.03h-.66s-.66.09-.66.09l-.66.06-.65-.18-.67.06-.66-.08-.64-.18-.67-.03-.64-.17-.6-.28-.63-.2-.64-.17-.56-.36-.61-.26-.47-.47-.56-.38-.39-.54-.4-.54-.26-.62-.1-.66-.24-.63.09-.67-.21-.63.1-.66-.2-.64.09-.65-.02-.65.02-.65.05-.65.14-.64.05-.65.28-.59.23-.6.29-.57.34-.55.34-.56.5-.42.59-.28.51-.41.6-.23.57-.33.66-.09.62-.23.66-.09.64-.19.67.02.65-.09.66-.05.66.13.64.16.62.19.63.17.61.24.53.38.58.34.4.53.21.64.22.6.24.6.13.65v.66s-.1.63-.1.63l-.03.64-.19.6-.15.61-.16.62-.31.56-.35.53-.46.44-.44.45-.44.46-.53.35-.58.26-.55.33-.63.11-.63.04-.63.17-.63-.13-.57-.27-.47-.39-.47-.41-.31-.54-.42-.49-.23-.59v-.65l-.18-.6-.11-.63.11-.67.2-.65.27-.63.54-.42.6-.34.67.02.66-.14.65.16.61.24.55.33.4.63.33.66.13.74-.24.6-.63.13-.54-.27-.31-.57-.12-.76-.61-.08-.57-.04-.58.09-.33.39-.23.59.27.67.15.67.22.65.39.57.51.5h.62s.59-.12.59-.12l.57-.18.51-.34.54-.27.53-.46.44-.55.42-.57.24-.67.22-.67.17-.69.06-.71-.14-.6-.1-.59-.09-.62-.34-.53-.55-.31-.46-.46-.63-.16-.61-.19-.64-.06-.64.12-.64-.13-.63.15-.62.15-.62.1h-.66s-.58.3-.58.3l-.62.23-.64.22-.44.53-.46.47-.38.53-.37.56-.19.64-.25.63-.1.67.08.68-.21.67.08.67.11.67-.06.68.11.67.06.67.19.65.18.66.53.46.36.57.54.41.56.37.59.32.65.19.65.17.67.06.65.18.68-.05.65.26.68-.16.67.08.66-.05.67.08.66-.15.68.11.64-.13.58-.29.52-.36.46-.44.4-.49.34-.55.46-.5.17-.65.31-.59.15-.65.28-.6.12-.65.02-.67.03-.66.08-.65.17-.66-.04-.67-.13-.65.06-.67-.32-.6-.19-.63-.14-.64-.21-.62-.26-.6-.18-.64-.31-.58-.42-.51-.49-.44-.39-.53-.49-.44-.64-.22-.53-.39-.6-.26-.63-.2-.66-.09-.65-.11-.65-.14-.66.06-.66-.02-.66.07-.63.21-.67-.02-.6.3-.63.19-.6.26-.62.23-.56.34-.61.27-.53.39-.59.31-.4.55-.54.38-.5.43-.41.52-.53.41-.44.5-.3.59-.36.55-.32.57-.25.61-.32.57-.24.6-.24.61-.24.63-.04.67-.13.66-.04.67.16.66-.08.68.31.61.03.68.31.59.24.63.27.62.52.46.34.58.39.55.46.48.55.4.52.41.51.43.58.32.58.32.47.52.6.3.68.13.51.47.63.23.65.19.66.14.59.34.62.24.67.08.67.09.67.06.67-.14.68.03.64-.24.68-.09.64-.22.6-.31.56-.38.56-.37.67-.19.55-.39.47-.49.55-.39.41-.54.55-.4.49-.47.33-.59.4-.54.37-.56.32-.59.31-.59.26-.62.27-.61.17-.65.28-.61.17-.65.15-.66.03-.67.06-.67.17-.66-.02-.67.06-.67-.02-.67-.2-.66v-.67s-.2-.65-.2-.65l-.09-.65-.09-.65-.24-.61-.22-.61-.17-.64-.22-.62-.31-.58-.47-.47-.21-.65-.48-.45-.44-.48-.46-.46-.51-.41-.58-.31-.49-.43-.61-.24-.51-.43-.6-.27-.67-.08-.58-.34-.64-.13-.65-.09-.64-.12-.64-.17-.66-.06-.65-.09-.66.11-1.3.02-.65.02h-.65l-.58-.1-.3-.52.05-.64.59-.24.63-.19h.66s.65.08.65.08l.65.04.65-.04.65-.02.65.02.65.03.62.25.64.11.66.02.59.31.66.07.56.35.66.09.52.42.66.14.48.46.63.23.56.34.37.57.58.32.44.48.46.46.32.57.35.55.46.48.27.6.24.6.33.57.16.64.29.59.03.67.21.62.07.65.11.64.03.66.2.64-.09.66.11.65-.15.65.1.66v.66s-.08.65-.08.65l-.16.64-.16.64-.1.65-.23.61-.17.63-.28.59-.28.59-.3.58-.24.61-.35.55-.36.55-.37.54-.43.48-.38.53-.4.52-.38.54-.55.38-.52.43-.57.35-.55.36-.55.38-.55.39-.55.39-.65.19-.63.22-.6.29-.66.14-.63.24-.68.03-.66.16-.67-.11Z"/>
  <path class="cls-4" d="M347.75,271.72c-.09,0-.18-.04-.25-.1l-.48-.47s-.03-.04-.05-.06l-.4-.6-.78-1.22-.46-.55s-.05-.07-.06-.11l-.23-.66-.43-.51s-.03-.03-.04-.05l-.36-.61-.44-.55s-.02-.03-.02-.04l-.38-.63-.39-.57-.46-.54-.45-.6s-.04-.04-.05-.07l-.26-.61-.5-.45s-.08-.1-.1-.16l-.2-.63-.51-.41c-.06-.05-.09-.1-.12-.17l-.2-.67-.42-.51-.41-.61-.47-.53s-.05-.06-.06-.09l-.28-.65-.41-.56-.46-.55-.51-.51s-.05-.06-.06-.09l-.67-1.29-.38-.56-.51-.49s-.03-.04-.05-.06l-.41-.61s-.02-.03-.03-.05l-.3-.66-.36-.59-.44-.56-.47-.56s-.04-.04-.05-.07l-.23-.45-.48.11s-.04,0-.06,0l-.7.06-.69.14s-.06,0-.09,0l-.7-.04-.69.07-.7.03-.66.22s-.04.02-.07.02l-.72.08-.7.11s-.04,0-.07,0l-.7-.02-1.4.22s-.06,0-.09,0l-.67-.07-.64.19s-.08.02-.12.01l-.7-.03-2.11.33-.75.06-.69.11-.72.06-.69.15s-.07.02-.11.01l-.68-.07-.67.13s-.04.01-.06.01l-.68.02-.67.18s-.08.01-.11.01l-.71-.05-1.39.13-1.39.36s-.06.01-.09.01l-1.44-.02-.66.09-.68.21s-.05.01-.08.02l-.72.06-.83.03c-.17.01-.29-.09-.34-.23s0-.31.11-.4l.64-.51.62-.43.65-.36.55-.43s.03-.02.04-.03l.59-.34,1.05-.98s.04-.03.06-.05l.64-.36.59-.39.64-.38.54-.4.52-.49s.03-.03.04-.04l.6-.41.55-.44s.03-.03.05-.04l.64-.35.57-.35.51-.48.56-.49s.06-.05.1-.06l.63-.26.47-.47s.03-.03.05-.04l.59-.42s.03-.02.04-.02l.61-.32.49-.47s.03-.03.04-.04l.6-.41s.03-.02.04-.03l.63-.32.54-.41.52-.49s.04-.04.06-.05l.59-.34.49-.49s.05-.05.08-.06l.6-.32.47-.49s.04-.04.07-.06l.6-.37.53-.46s.03-.02.04-.03l.61-.4.03-.02.61-.31.37-.38.09-.52-.2-.64s-.02-.1-.01-.16l.1-.66-.21-.64s-.02-.09-.02-.14l.06-.71-.16-1.44-.07-.73v-.73s-.17-.69-.17-.69c0-.03-.01-.07,0-.1l.04-.71-.2-2.15-.16-.71s0-.05,0-.07v-.73s-.01-.03,0-.05l.08-.69-.15-.67s-.01-.05-.01-.07v-.7s-.18-.68-.18-.68c-.01-.04-.02-.07-.01-.11l.04-.7-.14-.68s0-.05,0-.07v-.7l-.15-.69s-.01-.06,0-.09l.04-.7-.23-1.43s0-.05,0-.07l.05-1.48-.02-.7-.21-1.44s0-.03,0-.04l-.03-.7-.19-.69s-.01-.05-.02-.08l-.02-.74.04-.7c.01-.16.13-.29.28-.32s.32.04.39.19l.28.54.47.51.49.58.44.63.37.64.46.53s.03.03.04.05l.36.62.45.55.48.52s.03.03.04.05l.82,1.21s.02.03.02.04l.33.64.4.57.46.55s.02.02.02.03l.42.6.37.62.48.52s.04.04.05.07l.7,1.24.52.46s.05.05.06.08l1.14,1.86.46.54s.03.03.04.04l.35.59.52.47s.04.04.05.06l.43.6s.03.05.04.08l.24.65.94,1.06s.03.04.04.05l.38.64.38.58.48.53s.03.04.04.05l.36.6.48.53s.05.07.07.11l.18.45.45-.14s.06-.02.09-.02l.73-.04h.04l.72.04.71-.04.69-.11,1.44-.13.67-.24s.06-.02.08-.02l1.46-.15h.06l.68.05.65-.2c.05-.02.11-.02.16-.01l.7.13.67-.08.69-.06.66-.27s.08-.03.13-.03l.73-.02.72.03.69-.12s.04,0,.06,0h.68s.65-.21.65-.21c.04-.02.09-.02.14-.02l.69.05.67-.15s.03-.01.05-.01l1.46-.11.7-.11h.08l.67.04.65-.21s.08-.02.12-.02l.72.03.7-.08.71-.11.72-.04.69-.19s.1-.02.15,0l.7.11.68-.08.6-.13c.16-.04.32.05.4.2s.03.33-.1.43l-.52.39-.63.43-.62.38-.54.46-1.17.92-.62.44-.63.41-.61.35-.47.51s-.07.06-.11.08l-.67.33-.58.33-.48.49s-.05.05-.08.06l-.65.36-.57.38-.54.47-.51.51s-.05.04-.08.06l-.61.34-.52.47s-.03.02-.04.03l-.6.42s-.05.03-.07.04l-.64.25-.47.48s-.04.04-.06.05l-1.21.76-.48.51s-.06.05-.09.07l-.61.33-.49.48s-.08.07-.14.08l-.67.23-.52.37-.44.57c-.04.06-.1.1-.17.12l-.69.22-.54.38-.52.5s-.04.03-.06.04l-.62.4-.97.75.11.51s.01.08,0,.13l-.1.7.09.68s0,.03,0,.05v.72s.06.71.06.71l.15.69.09.77s0,.04,0,.07l-.06.7.1.69.08.74.02.77.07.7.05,1.45.19.68s.02.1,0,.15l-.11.68.13.67s.01.04.01.05l.06,1.45.35,2.17s0,.05,0,.07l-.04.74-.07.73.05.68.16.7.09.77s0,.04,0,.06l-.04.68.2.66s.02.07.02.1v.74l.07.7.05.72.14.71s0,.03.01.04l.07.73v.08l-.09.68c-.02.14-.11.24-.24.29-.01.03-.05.03-.09.03ZM345.93,268.31l.43.52s.02.02.03.04l1.09,1.7-.05-.56-.14-.71s0-.03,0-.04l-.13-1.46v-.72l-.2-.67s-.02-.08-.02-.12l.04-.71-.08-.7-.15-.69s-.01-.04-.01-.06l-.05-.73v-.06l.07-.74.04-.69-.1-.7-.25-1.45v-.04l-.06-1.44-.14-.7s0-.09,0-.13l.11-.67-.18-.65s-.01-.06-.01-.08l-.06-1.46-.07-.71-.02-.77-.08-.7-.1-.72s0-.05,0-.08l.06-.71-.07-.7-.15-.69-.08-.77v-.76s-.08-.71-.08-.71c0-.03,0-.06,0-.09l.09-.68-.14-.66c-.03-.14.03-.27.13-.35l1.17-.9.62-.4.51-.49s.03-.03.04-.03l.6-.43s.06-.04.09-.05l.64-.2.4-.52s.05-.05.07-.07l.6-.43s.06-.04.09-.05l.65-.22.47-.47s.05-.04.08-.06l.6-.33.48-.5s.04-.04.07-.06l1.21-.76.5-.5s.07-.06.12-.08l.67-.26.55-.38.54-.48s.04-.03.06-.04l.6-.34.49-.49.57-.51s.02-.02.04-.03l.61-.41.63-.35.48-.49s.05-.05.08-.06l.64-.36.63-.31.46-.5s.05-.05.08-.07l.64-.36.6-.39.59-.42,1.15-.9.55-.47s.03-.03.05-.04l.51-.3-.67-.11-.64.18s-.05.01-.07.01l-.73.04-.69.11-.74.08s-.04,0-.06,0l-.68-.03-.66.21s-.08.02-.13.01l-.7-.05-.69.1-1.46.12-.69.16s-.07.01-.1.01l-.67-.05-.65.22s-.08.02-.12.02h-.7s-.69.11-.69.11c-.03,0-.05.01-.08,0l-.74-.03h-.65s-.64.27-.64.27c-.03.02-.07.02-.1.03l-.73.07-.72.09s-.07,0-.1,0l-.67-.11-.63.19s-.08.02-.13.02l-.71-.05-1.38.15-.67.24s-.06.02-.09.02l-1.46.13-.7.11-.77.05h-.04l-.72-.04-.67.03-.72.23c-.18.06-.37-.04-.44-.2l-.28-.69-.46-.51s-.03-.04-.05-.06l-.36-.6-.47-.53s-.03-.03-.03-.04l-.4-.62-.36-.62-.96-1.08s-.05-.07-.07-.11l-.24-.67-.38-.53-.53-.48s-.05-.05-.06-.08l-.36-.61-.46-.54s-.03-.03-.04-.05l-1.12-1.84-.52-.47s-.05-.06-.07-.09l-.7-1.26-.47-.51s-.03-.04-.05-.06l-.38-.64-.39-.57-.47-.55s-.02-.02-.02-.03l-.42-.6s-.01-.02-.02-.03l-.33-.64-.8-1.18-.48-.52-.47-.59-.03-.05-.36-.6-.46-.54s-.03-.03-.04-.05l-.37-.64-.41-.58-.66-.77v.22s.2.68.2.68c0,.03.01.06.01.08l.04.72.22,1.44s0,.03,0,.05v.74s-.04,1.47-.04,1.47l.23,1.43s0,.05,0,.08l-.04.69.15.69s0,.05,0,.07v.7l.14.7s.01.06.01.09l-.05.69.17.67s.01.05.01.08v.7s.16.69.16.69c0,.04.01.08,0,.12l-.08.72v.68s.16.69.16.69c0,.02,0,.03.01.04l.21,2.2v.05l-.04.69.15.68s0,.05,0,.07l.02.73.23,2.17v.07l-.06.67.22.65c.02.05.02.11.02.17l-.1.67.19.64c.02.05.03.11.02.17l-.13.7c-.02.07-.05.14-.1.19l-.48.5s-.06.05-.1.07l-.64.33-.58.37-.54.46s-.03.03-.04.04l-.59.36-.48.5s-.06.05-.09.07l-.6.32-.48.48s-.05.05-.07.06l-.6.35-.51.48-.03.03-.58.44s-.04.03-.05.03l-.64.33-.56.38-.51.49s-.05.04-.08.06l-.63.34-.56.39-.49.5s-.08.06-.12.08l-.64.27-.51.44-.53.49s-.03.03-.06.04l-.62.36-.63.35-.55.44-.6.41-.52.48s-.02.02-.04.03l-.59.43-.65.39-.6.4-.62.35-1.04.97s-.05.04-.07.05l-.62.35-.56.44s-.03.02-.05.03l-.64.36-.28.19.34-.03.67-.21s.04-.01.05-.01l.72-.1s.04,0,.06,0l1.41.02,1.38-.35s.04-.01.06-.01l1.45-.14h.06l.68.05.65-.17s.06-.01.09-.01l.7-.02.68-.13s.07-.01.1,0l.68.07.66-.15s.04,0,.05,0l.72-.06.69-.11.76-.06,2.13-.34s.05,0,.07,0l.67.03.65-.19s.09-.02.14-.01l.69.08,1.39-.21s.04,0,.06,0l.7.02.69-.11.7-.08.67-.22s.06-.02.09-.02l.72-.03.7-.08s.04,0,.06,0l.69.03.67-.14s.03,0,.05-.01l.69-.05.73-.17c.16-.04.32.04.4.18l.34.66.45.54.46.58s.02.03.03.04l.38.63.02.03.3.65.37.56.51.49s.03.03.05.05l.41.6s.02.03.02.04l.65,1.27.49.49.49.59.45.6s.03.05.04.07l.28.63.45.51s.02.03.04.04l.4.61.44.54s.05.08.07.12l.19.63.51.41c.06.04.09.1.11.17l.2.64.49.44s.07.07.09.13l.28.64.42.55.46.55s.02.02.02.03l.42.6.38.62.44.56s.02.02.03.04l.35.6.46.54s.05.07.06.11l.23.66Z"/>
  <path class="cls-6" d="M341.07,233.12l.77-.24.73-.04.74.04.73-.04.72-.11.73-.07.73-.06.71-.26.73-.08.73-.07.74.05.71-.22.75.14.73-.09.73-.07.7-.28.73-.02.74.03.72-.13h.73s.71-.24.71-.24l.74.05.72-.16.73-.06.72-.05.73-.11.74.05.72-.22.73.02.73-.08.73-.11.73-.04.72-.2.75.13.73-.09.64-.14-.52.39-.61.42-.63.38-.56.48-1.16.91-.6.42-.62.4-.65.36-.51.55-.67.33-.64.36-.53.53-.65.36-.61.41-.56.48-.53.53-.64.36-.55.49-.6.42-.71.28-.53.53-.63.39-.63.4-.52.54-.65.35-.53.52-.72.25-.6.43-.47.6-.73.24-.6.43-.54.52-.62.4-.58.46-.59.44.16.72-.1.74.09.73v.74s.07.73.07.73l.15.73.08.73-.07.74.11.73.08.73.02.73.07.73.04.73.02.73.2.72-.13.74.14.73.04.74.03.73.12.73.13.73.1.73-.04.74-.07.74.05.74.16.72.09.73-.04.74.22.72v.74l.07.73.06.74.15.73.07.73-.09.68-.48-.47-.41-.6-.39-.62-.39-.61-.47-.56-.25-.71-.47-.56-.37-.63-.45-.57-.38-.63-.41-.6-.48-.56-.44-.58-.3-.69-.56-.5-.23-.72-.59-.48-.22-.74-.46-.57-.4-.61-.49-.55-.3-.68-.44-.59-.47-.57-.53-.53-.33-.66-.34-.66-.41-.6-.53-.52-.41-.61-.31-.67-.38-.63-.45-.58-.48-.56-.36-.7-.76.18-.73.06-.71.15-.73-.04-.72.08-.72.03-.7.23-.72.08-.72.11-.73-.02-.72.11-.71.11-.74-.09-.7.21-.73-.04-.72.1-.71.13-.72.11-.72.06-.72.11-.72.06-.71.16-.74-.07-.71.14h-.73s-.71.2-.71.2l-.73-.05-.72.06-.73.07-.71.19-.71.18h-.73l-.73-.02-.72.1-.71.22-.72.06-.82.03.64-.51.6-.42.64-.35.58-.45.64-.36.53-.51.54-.49.63-.37.61-.4.63-.38.58-.43.54-.5.6-.41.57-.46.64-.35.62-.39.54-.5.55-.48.69-.29.52-.53.6-.42.65-.35.54-.51.6-.42.66-.33.58-.44.53-.5.64-.38.52-.53.65-.34.52-.54.63-.38.56-.48.61-.4.66-.34.48-.5.13-.7-.22-.72.11-.75-.24-.72.06-.74-.08-.73-.08-.73-.07-.73v-.74s-.18-.72-.18-.72l.05-.74-.07-.73-.06-.73-.08-.73-.16-.72v-.73s.07-.75.07-.75l-.16-.72v-.74s-.19-.72-.19-.72l.04-.74-.14-.73v-.74l-.16-.73.04-.74-.13-.73-.11-.73.03-.74.02-.74v-.74s-.12-.73-.12-.73l-.11-.73-.03-.74-.2-.73-.02-.74.04-.66.31.58.5.55.47.56.42.6.37.64.48.56.37.64.46.58.5.54.41.61.42.6.34.66.42.6.47.56.42.6.38.63.51.54.36.65.36.64.56.51.38.63.39.63.38.63.48.56.38.63.55.51.43.59.27.71.49.56.49.55.38.64.4.62.49.55.38.63.51.56.29.78ZM346.14,237.7l.02-.74.09-.73.23-.71.13-.72.02-.74.21-.71.13-.72v-.75s.28-.7.28-.7l.05-.74.02-.74.17-.72.2-.71.08-.73.14-.72.02-.74.11-.72.18-.72.15-.72.19-.71.03-.74.02-.74.19-.71.09-.73.2-.71.13-.72.14-.72.11-.72.13-.72-.02-.75.09-.73.21-.71.2-.72v-.74s.08-.64.08-.64l-.37.53-.48.56-.57.48-.39.64-.52.53-.43.61-.59.47-.41.62-.49.56-.44.59-.49.55-.45.59-.44.6-.45.58-.56.49-.37.65-.59.46-.44.59-.45.58-.54.51-.44.59-.47.57-.35.67-.51.54-.47.56-.56.49-.42.6-.48.55-.39.64-.55.5-.42.61-.43.59-.5.54-.57.49-.48.56-.39.69-.76-.11-.71-.2-.71-.2-.74.03-.73-.04-.72-.08-.7-.24-.73-.02-.72-.12-.73-.05-.69-.34-.75.11-.69-.32-.74.07-.7-.25-.72-.08-.73-.03-.72-.11-.71-.15-.73-.06-.71-.16-.73-.04-.69-.3-.73-.04-1.43-.27-.72-.12-.74.07-.69-.3-.72-.1-.73-.03-.71-.11-.72-.1-.71-.16-.75.05-.72-.2.6.44.64.37.57.45.49.55.52.52.6.41.61.39.61.4.55.47.56.46.63.38.46.59.66.34.55.47.56.47.58.43.55.48.58.43.6.41.5.54.58.43.63.38.58.43.54.5.59.42.47.57.63.37.58.43.59.43.55.47.64.36.57.45.43.63.7.28.57.44.44.62.64.35-.22.71v.74s-.16.71-.16.71l-.17.71v.74l-.31.69-.14.72-.04.73-.2.71v.74l-.05.73-.15.72-.21.71v.74s-.19.71-.19.71l-.25.69.03.75-.2.71-.16.71-.13.72-.09.72-.09.72-.06.73-.18.71-.14.71-.04.73-.13.72-.11.72-.32.69v.74s-.17.71-.17.71l-.09.72-.11.72-.23.7-.03.65.46-.46.45-.59.49-.55.48-.56.41-.63.57-.48.34-.68.54-.51.43-.6.55-.5.52-.53.31-.7.47-.56.46-.57.63-.43.36-.65.56-.49.47-.56.47-.57.33-.68.48-.56.48-.56.44-.59.49-.55.56-.48.5-.54.34-.68.64-.42.34-.68.51-.54.57-.48.36-.65.49-.55.41-.61.55-.47.7.14.76-.07.7.32.72.14.76-.08.7.3.74.03.72.15.72.15.76-.07.73.1.7.29.73.06.72.14.74.03.72.14.71.21.77-.12.71.19.72.12.71.19.73.07.74.04.7.28.73.05.75-.03.7.28.75-.05.71.24.74.02.7.26h.74s.74.02.74.02l.73.1.7.26.78.09-.63-.47-.58-.45-.62-.4-.45-.6-.64-.38-.63-.39-.54-.5-.61-.4-.58-.45-.52-.53-.65-.36-.56-.47-.54-.49-.49-.56-.55-.48-.62-.4-.63-.39-.59-.43-.54-.49-.63-.38-.48-.57-.65-.36-.51-.54-.58-.45-.57-.46-.66-.33-.53-.52-.53-.51-.54-.51-.58-.44-.55-.48-.58-.45-.63-.39-.54-.5-.67-.33-.5-.52.09-.69Z"/>
  <path class="cls-4" d="M324.02,270.85s-.09-.01-.14-.03c-.14-.06-.22-.19-.21-.34l.03-.65s0-.07.02-.09l.22-.68.11-.69.09-.71.16-.71v-.7c0-.06.02-.1.04-.15l.3-.64.22-1.38.04-.71s0-.03,0-.05l.14-.71.18-.7.06-.7.19-1.46.14-.74.16-.73.19-.67-.03-.69s0-.09.03-.13l.24-.7.18-.64v-.7s0-.07.01-.1l.21-.71.14-.67.05-.71v-.72s0-.07.01-.1l.19-.67.04-.7s0-.03,0-.05l.14-.72s.01-.05.02-.08l.28-.62v-.67s0-.06.01-.08l.33-1.38v-.7s-.01-.07,0-.11l.14-.43-.39-.21s-.09-.07-.11-.11l-.41-.57-.49-.38-.66-.26c-.07-.02-.13-.07-.17-.13l-.4-.59-.5-.4-.62-.35s-.04-.03-.05-.04l-.55-.48-1.15-.83-.59-.35s-.07-.05-.09-.08l-.44-.54-.55-.39s-.03-.02-.04-.03l-.52-.48-.55-.41-.61-.36-.61-.45s-.04-.03-.05-.05l-.47-.51-.57-.39-.6-.43-.57-.5-.56-.42-1.09-.93-.62-.32s-.09-.06-.13-.1l-.42-.54-.57-.34s-.03-.02-.04-.03l-1.1-.93-1.81-1.19s-.04-.03-.06-.05l-.52-.53-.48-.54-.53-.42-.61-.35s-.03-.02-.04-.02l-.59-.44c-.14-.1-.19-.29-.11-.44.07-.15.24-.23.41-.19l.66.18.68-.05s.07,0,.1,0l.71.17.69.09.71.11.71.02s.03,0,.04,0l.72.1s.07.02.09.03l.61.26.66-.06s.06,0,.09,0l.72.11,1.41.27.71.04s.09.01.13.03l.64.28.66.03s.04,0,.06,0l.69.16.7.05s.03,0,.04,0l.72.15.68.1.71.03.74.08s.06.01.08.02l.63.22.67-.06c.06,0,.13,0,.18.03l.59.28.65-.09c.07-.01.15,0,.21.03l.63.31.66.04.73.12.71.02s.08,0,.11.02l.66.23.69.08.71.04.71-.03s.07,0,.11.02l1.4.4.49.07.27-.47s.03-.04.04-.06l.48-.56s.03-.03.04-.04l.55-.48.47-.51.41-.58.41-.6s.04-.05.06-.07l.52-.46.36-.59s.02-.04.04-.05l.47-.54.4-.59s.04-.05.06-.07l.54-.47.45-.54.49-.52.33-.63s.02-.04.04-.06l.47-.57.43-.57s.03-.04.04-.05l.52-.49.86-1.15s.04-.05.07-.07l.54-.42.34-.58s.04-.07.07-.09l.54-.47,1.31-1.74.51-.57.42-.56.48-.56.4-.6s.05-.06.07-.08l.55-.44.4-.56s.03-.03.04-.05l.49-.5.36-.6s.05-.06.08-.09l.55-.47.45-.53.35-.52c.09-.14.27-.19.42-.13.16.06.25.21.23.38l-.07.64v.71s-.01.06-.02.09l-.4,1.4-.08.67.02.72s0,.05,0,.07l-.13.72-.11.72-.28,1.45-.2.72-.09.7s0,.03-.01.05l-.18.67-.04,1.44s0,.05-.01.08l-.19.71-.15.7-.18.73-.1.68-.02.71s0,.04,0,.06l-.13.72-.08.71s0,.04-.01.06l-.2.71-.15.67-.02.71-.05.75s-.01.07-.02.11l-.26.64v.67s.01.05,0,.07l-.13.72s0,.03-.01.04l-.19.66-.02.69s0,.04,0,.06l-.14.73s0,.03-.01.04l-.21.68-.09.68-.02.72v.04l-.08.55.34.35.61.3s.06.04.09.06l.51.47.59.38s.02.02.03.02l.58.45.56.49.57.42.03.03,1.55,1.49.61.31s.04.03.06.04l1.14.91s.03.02.04.03l.47.5.6.34s.07.05.1.08l.44.52.58.35s.04.03.06.04l.53.48.58.42,1.22.78s.03.02.04.03l.55.48.03.03.49.56.52.47.52.44.62.34s.06.04.09.06l.49.52.56.43.59.39s.03.03.05.04l.51.48,1.23.74s.07.06.1.09l.42.56.57.36,1.23.94c.13.1.18.27.11.42-.06.15-.21.24-.37.22l-.78-.1s-.05-.01-.08-.02l-.67-.24-.67-.09-.72-.02h-.73s-.08,0-.13-.02l-.65-.23-.68-.02s-.07,0-.11-.02l-.64-.22-.68.05c-.05,0-.11,0-.16-.02l-.64-.26-.67.02-.77-.05s-.07-.01-.1-.03l-.65-.26-.68-.04-.75-.07s-.04-.01-.06-.01l-.69-.19-.69-.09-.68-.17-.69.11c-.05,0-.11,0-.16-.01l-.71-.21-.66-.13-.72-.03s-.03,0-.05-.01l-.7-.14-.71-.05s-.07-.02-.11-.03l-.66-.27-.65-.09-.71.06s-.07,0-.1,0l-1.41-.29-.71-.03s-.08-.01-.13-.03l-.61-.26-.67.07s-.07,0-.11,0l-.72-.14s-.06-.02-.08-.03l-.61-.28-.67.06s-.07,0-.1,0l-.53-.11-.39.33-.38.57s-.02.03-.03.04l-.46.52-.34.62s-.05.07-.08.1l-.56.47-.45.48-.31.63c-.03.06-.07.1-.13.14l-.56.38-.29.59s-.04.06-.06.08l-.5.54s-.02.02-.03.03l-.55.47-.48.53-.42.56-.95,1.1-.31.64s-.03.05-.05.07l-.94,1.13s-.03.03-.04.04l-.52.44-.33.6s-.06.09-.11.12l-.59.4-.43.53-.45.53-.29.66s-.04.07-.07.1l-.53.53-.54.49-.41.56s-.03.03-.04.05l-.49.47-.31.62s-.05.08-.08.11l-.53.45-.38.58s-.02.03-.03.04l-.97,1.11-.43.57-.03.03-.47.47c-.06.06-.15.09-.24.09ZM325,266.32v.66s0,.05-.01.07l-.16.71-.09.69-.12.73s0,.04-.02.06v.05s.04-.07.04-.07l.97-1.11.39-.6s.04-.05.07-.08l.52-.44.31-.61s.04-.07.07-.1l.52-.49.41-.57s.03-.04.05-.06l.55-.5.46-.46.29-.64s.03-.06.05-.08l.47-.56.46-.57s.04-.05.07-.07l.56-.39.32-.58s.05-.07.08-.1l.54-.47.9-1.07.31-.64s.03-.06.05-.08l.96-1.11.42-.57.52-.57s.02-.02.03-.03l.55-.47.45-.49.31-.63c.03-.06.07-.1.13-.14l.56-.38.29-.59s.04-.06.06-.09l.51-.54s.02-.02.03-.03l.52-.44.33-.59s.03-.04.05-.06l.47-.54.4-.59s.04-.05.06-.07l.55-.47c.08-.07.19-.1.3-.08l.66.13.71-.07c.06,0,.13,0,.18.03l.66.3.63.12.71-.08c.06-.01.12,0,.18.02l.64.27.68.03s.04,0,.06,0l1.4.29.7-.06s.05,0,.08,0l.73.1s.06.01.08.02l.65.26.68.06s.03,0,.04,0l.69.14.72.03s.03,0,.05.01l.72.14.67.2.68-.1c.05-.01.1,0,.15,0l.71.19.69.11s.03,0,.04.01l.68.19.7.07.72.04s.08.01.11.03l.65.26.68.05.71-.03s.1,0,.15.03l.63.25.67-.05s.1,0,.14.02l.66.22.68.02s.08,0,.11.02l.65.23h.68l.75.02h.04l.62.09-.47-.31s-.06-.05-.09-.08l-.42-.55-1.21-.73s-.04-.03-.06-.05l-.52-.48-.59-.39-.6-.46s-.03-.02-.04-.04l-.48-.49-.6-.33s-.04-.03-.06-.04l-.56-.47-.55-.51-.51-.56-.52-.45-1.22-.77-.61-.45s-.02-.02-.03-.03l-.52-.47-.6-.36s-.06-.05-.08-.08l-.44-.52-.59-.33s-.06-.04-.08-.06l-.49-.52-1.1-.87-.63-.32s-.06-.04-.09-.06l-1.57-1.51-.57-.42-.57-.5-.55-.43-.6-.38s-.04-.03-.06-.04l-.49-.47-.63-.3s-.07-.05-.1-.08l-.51-.52c-.07-.08-.11-.19-.09-.29l.09-.7.02-.72s0-.03,0-.04l.09-.73s.01-.05.02-.06l.22-.69.13-.68.02-.71s0-.07.02-.09l.2-.69.11-.67v-.71s0-.09.02-.14l.26-.65.05-.68.02-.73s0-.04.01-.07l.17-.72.2-.7.07-.7.13-.72.02-.72v-.04l.11-.72.18-.75.15-.7.18-.7.04-1.43s0-.06.01-.08l.18-.69.08-.7s.01-.04.01-.05l.2-.71.5-2.82-.02-.71s0-.04,0-.06l.09-.73s.01-.04.01-.05l.39-1.38v-.17l-.15.17s-.02.03-.04.04l-.53.45-.35.59s-.03.05-.06.07l-.5.51-.41.58s-.04.05-.07.07l-.54.44-.38.57s-.02.02-.03.04l-.49.56-.42.57-.51.58-1.31,1.75s-.03.04-.05.05l-.52.45-.34.6s-.05.07-.09.1l-.56.43-.86,1.14s-.03.03-.04.04l-.52.48-.42.57-.46.55-.33.64s-.03.05-.06.08l-.51.54-.45.55s-.03.03-.04.04l-.53.46-.39.57s-.02.03-.03.04l-.47.53-.37.61s-.04.06-.07.08l-.52.47-.39.58-.44.61s-.02.03-.03.04l-.5.54s-.02.02-.03.03l-.55.47-.44.52-.37.66c-.07.13-.21.19-.36.18l-.76-.11s-.03,0-.05-.01l-1.36-.38-.69.02-.77-.04-.74-.08s-.05-.01-.08-.02l-.65-.22h-.68s-.03-.02-.05-.02l-.72-.12-.7-.04s-.09-.02-.14-.04l-.59-.29-.65.09c-.07.01-.14,0-.2-.03l-.6-.28-.65.06s-.1,0-.15-.02l-.66-.23-.68-.07-.71-.04h-.04l-.72-.11-.71-.15-.7-.06s-.04,0-.05-.01l-.68-.15-.7-.04s-.08-.01-.13-.03l-.64-.28-.66-.03s-.03,0-.05-.01l-2.1-.38-.7.07c-.06,0-.12,0-.18-.03l-.65-.28-.65-.09-.72-.02h-.04l-1.43-.21-.7-.16h-.01s.03.02.04.02l.57.46s.03.02.04.04l.49.55.48.49.57.39,1.22.79s.02.02.03.03l1.09.92.6.37s.07.05.09.08l.41.53.59.3s.05.03.07.05l1.1.94.57.42.57.49.56.41.59.4s.05.04.07.06l.47.52.56.41.6.35s.02.02.03.03l.58.43s.03.02.04.03l.52.48.57.41s.05.04.07.06l.43.53.57.34,1.2.86.55.47.6.34s.03.02.04.03l.57.45s.05.05.07.08l.36.54.6.24s.06.03.09.05l.57.44s.05.05.07.08l.39.55.57.32c.15.08.21.26.17.42l-.2.65v.69s0,.06,0,.09l-.33,1.39v.7c0,.05-.01.1-.03.15l-.29.65-.13.66-.04.71s0,.06-.02.08l-.19.66v.69s-.06.76-.06.76c0,.02,0,.04,0,.05l-.15.72-.2.68v.69s0,.06-.01.09l-.2.71-.23.66.02.68s0,.07-.02.11l-.2.71-.15.69-.13.7-.19,1.43-.06.71s0,.04-.01.06l-.18.71-.13.67-.04.71s0,.03,0,.04l-.23,1.44s-.02.07-.03.1l-.3.61Z"/>
  <path class="cls-2" d="M338.28,231.82l.62-.44.66-.32.57-.47.73-.21.52-.56.66-.32.66-.33.59-.43.66-.32.6-.43.65-.33.62-.39.61-.41.66-.32.61-.42.59-.43.63-.38.64-.35.72-.23.56-.48.66-.33.6-.43.65-.34.59-.43.69-.29.6-.42.63-.38.63-.37.71-.25.56-.49.69-.28.63-.38.65-.35.56-.49.6-.42.65-.27-.3.63-.47.58-.2.74-.48.57-.32.67-.38.63-.34.66-.46.58-.34.65-.42.6-.24.7-.43.6-.36.65-.25.7-.33.66-.5.56-.44.59-.36.64-.33.66-.3.68-.46.58-.3.68-.44.6-.21.72-.42.61-.43.6-.23.72-.43.6-.3.68-.46.58-.4.62-.22.72-.36.64-.37.64-.45.59-.33.66.3.67.51.56.27.69.4.62.26.7.44.6.33.66.4.62.27.69.5.56.31.68.43.6.36.65.33.66.38.63.6,1.34.29.69.49.57.36.64.36.65.27.69.46.59.23.71.44.6.31.67.38.63.43.6.42.61.33.66.24.71.31.67.34.65.47.59.29.58-.52-.38-.66-.32-.6-.43-.67-.3-.68-.29-.53-.54-.66-.31-.63-.37-.66-.33-.61-.39-.55-.5-.64-.36-.67-.3-.69-.28-.55-.5-.67-.3-.56-.49-.71-.23-.54-.52-.7-.26-.66-.32-.54-.52-.66-.31-.65-.34-.59-.45-.63-.38-.59-.44-.75-.17-.57-.47-.61-.4-.67-.31-.61-.4-.66-.33-.54-.53-.68-.39-.57.54-.64.33-.64.35-.58.44-.72.21-.52.54-.64.35-.73.19-.53.53-.64.35-.69.26-.58.44-.63.35-.55.49-.69.26-.65.34-.53.52-.73.19-.54.52-.64.34-.68.27-.64.35-.6.41-.63.36-.63.36-.53.53-.62.38-.63.37-.68.27-.55.49-.73.19-.61.39-.63.37-.52.56-.66.32-.68.29-.58.42.43-.58.21-.72.47-.57.28-.68.75-1.25.33-.65.46-.57.23-.71.45-.58.35-.64.32-.65.4-.61.25-.7.53-.54.35-.64.35-.64.28-.68.37-.63.41-.61.3-.67.33-.65.33-.65.36-.64.39-.62.43-.59.22-.71.47-.57.43-.59.24-.7.43-.59.38-.63.3-.67.25-.7.43-.59.27-.62-.34-.59-.2-.73-.47-.58-.32-.66-.32-.67-.48-.57-.28-.69-.46-.58-.17-.75-.36-.64-.55-.53-.16-.76-.36-.64-.46-.59-.33-.66-.39-.63-.38-.63-.44-.6-.22-.72-.39-.63-.31-.67-.38-.63-.44-.6-.39-.63-.26-.7-.41-.62-.38-.63-.33-.66-.38-.63-.34-.66-.33-.66-.48-.57-.21-.73-.44-.6-.34-.66-.35-.57.58.32.67.3.66.32.59.45.57.47.63.38.69.28.65.34.58.45.71.22.61.42.65.35.63.37.68.29.64.36.54.54.72.21.63.38.63.39.63.39.67.3.54.54.67.3.61.41.67.32.62.4.64.37.68.3.65.34.57.49.72.21.53.55.74.18.52.57.67.32.71.39Z"/>
  <path class="cls-4" d="M315.44,264.89c-.09,0-.19-.04-.26-.11-.13-.13-.14-.32-.03-.46l.4-.53.19-.66s.03-.09.06-.13l.44-.53.26-.63s.01-.03.02-.05l.74-1.25.32-.63s.03-.05.04-.07l.42-.52.21-.65s.03-.07.06-.1l.43-.56.34-.61.32-.64.39-.61.24-.66c.02-.05.04-.09.08-.13l.5-.5.67-1.22.28-.66s.01-.04.02-.05l.37-.63.41-.59.29-.64.67-1.32.38-.65.4-.63.41-.57.21-.66s.04-.08.07-.12l.46-.57.38-.54.23-.65s.03-.07.05-.09l.43-.59.35-.58.29-.65.24-.68s.03-.06.05-.09l.41-.57.19-.43-.24-.43s-.03-.05-.03-.08l-.18-.66-.42-.52s-.03-.05-.05-.07l-.63-1.29-.45-.54s-.04-.06-.06-.09l-.26-.65-.43-.54s-.06-.09-.07-.15l-.16-.69-.31-.55-.52-.49c-.06-.05-.09-.11-.1-.19l-.15-.7-.32-.57-.44-.57s-.03-.04-.04-.06l-.33-.66-.76-1.23-.43-.57s-.04-.07-.06-.11l-.21-.68-.36-.59s-.02-.03-.02-.04l-.3-.66-.37-.61-.42-.56-.41-.66s-.02-.04-.03-.06l-.24-.66-.39-.58-.39-.64-.34-.69-.36-.6-.67-1.3-.46-.54s-.06-.08-.07-.14l-.19-.67-.41-.55s-.02-.03-.03-.04l-.34-.66-.34-.55c-.08-.14-.06-.32.05-.43.11-.12.29-.14.43-.06l.58.32.64.29.67.33s.04.02.06.04l.59.45.56.47.58.34.67.27.68.36s.04.02.05.03l.54.41.66.21s.06.02.09.04l.61.42.61.34.63.36.66.28s.03.01.04.02l.64.36s.06.04.08.06l.48.47.64.19s.06.02.08.04l.64.37,1.23.77.65.3s.07.04.1.07l.49.49.61.28s.04.02.06.03l.59.4.64.31s.03.02.04.02l.62.4.6.35.66.29.67.35s.05.03.07.05l.51.44.65.19c.06.02.11.05.16.09l.46.48.65.16c.07.02.13.05.18.1l.48.52.6.28.5.27.44-.31s.04-.02.05-.03l.62-.3.54-.45s.08-.05.14-.07l.63-.18.45-.49s.07-.06.1-.08l1.29-.63.57-.42s.04-.02.05-.03l.64-.31.57-.41.05-.03.64-.32,1.2-.79s.03-.02.04-.03l.64-.31.58-.4.59-.43.65-.39.66-.36s.04-.02.07-.03l.65-.2.51-.44s.05-.04.07-.05l.63-.32.58-.41s.02-.02.04-.02l.63-.34.58-.42s.05-.03.07-.04l.65-.27.57-.4,1.28-.77s.05-.03.07-.03l.64-.22.51-.45s.07-.05.1-.06l.66-.27.61-.36.63-.34.53-.46s.02-.02.03-.03l.61-.42s.04-.03.07-.04l.65-.27c.14-.06.3-.02.4.09.1.1.13.27.06.4l-.31.63s-.03.04-.04.07l-.42.52-.18.66c-.01.05-.04.1-.07.14l-.45.54-.3.63-.39.66-.33.64s-.02.04-.04.05l-.44.56-.32.63s-.02.02-.02.03l-.39.57-.23.66s-.03.07-.05.09l-.42.58-.33.6-.24.68s-.01.03-.02.04l-.32.66s-.03.05-.06.08l-.49.56-.41.55-.35.63-.32.64-.28.66s-.03.05-.05.08l-.43.55-.29.64s-.02.04-.04.07l-.4.55-.19.67s-.03.07-.05.1l-.82,1.17-.21.66s-.03.07-.05.1l-.41.57-.28.65-.05.08-.46.58-.36.55-.2.68s-.02.05-.03.07l-.73,1.28s-.02.03-.03.04l-.43.57-.24.48.21.47.47.52s.05.07.07.11l.26.66.38.59s.03.04.03.06l.24.65.41.56s.02.03.03.05l.32.65.38.6s.03.04.03.06l.25.64.45.52s.04.06.06.09l.29.64.41.57s.02.02.02.03l.36.65.34.68.36.6s.02.03.02.04l.88,1.98.45.53s.03.04.04.06l.72,1.28s.02.03.02.05l.25.65.43.54s.04.07.06.11l.21.66.41.55s.02.04.03.06l.31.65.37.61.84,1.19s.02.03.03.05l.32.66s.01.03.02.04l.24.71.3.64.32.61.45.56s.03.04.04.06l.29.58c.07.15.04.33-.09.43s-.31.11-.44.02l-.49-.36-.63-.31s-.03-.02-.05-.03l-.57-.4-1.32-.57s-.08-.04-.11-.08l-.48-.49-.6-.29-.66-.39-.63-.31-.65-.4s-.04-.03-.06-.04l-.52-.47-.58-.34-.66-.29-.68-.27s-.07-.04-.1-.07l-.51-.46-.62-.27s-.07-.04-.09-.06l-.51-.44-.64-.21c-.05-.02-.1-.05-.14-.08l-.48-.47-.63-.23-.69-.33s-.07-.04-.09-.06l-.5-.48-.61-.29-.66-.34s-.04-.02-.05-.03l-.57-.44-.61-.37-.55-.41-.68-.16c-.05-.01-.1-.03-.14-.07l-.57-.47-.56-.36-.65-.29s-.03-.02-.05-.03l-.59-.39-.64-.32s-.06-.04-.09-.07l-.51-.49-.41-.23-.38.36s-.05.04-.08.06l-1.26.67-.56.43s-.07.05-.11.06l-.63.19-.45.48s-.05.05-.08.06l-.64.35s-.05.03-.08.03l-.64.17-.46.47s-.05.04-.08.06l-.63.35s-.03.01-.05.02l-.64.24-.54.41s-.03.02-.04.03l-.6.33-.52.47s-.07.05-.11.07l-.67.25-.58.3-.49.49s-.1.07-.16.09l-.64.17-.46.45s-.05.04-.08.06l-.65.34s-.03.01-.04.02l-.66.26-.63.34-.57.39-1.24.71-.49.5s-.04.04-.07.05l-1.24.75s-.04.02-.06.02l-.63.25-.5.45s-.09.07-.15.08l-.68.18-.57.35-.59.35-.48.52s-.06.06-.1.08l-.66.32-.66.28-.55.4c-.06.05-.14.07-.21.07ZM316.41,263.41l-.05.18.21-.09.58-.29.47-.51s.05-.05.08-.06l.63-.37.6-.38s.07-.03.1-.04l.65-.17.48-.44s.07-.05.11-.07l.66-.26,1.18-.71.5-.5s.05-.04.07-.06l1.26-.72.58-.39.67-.37s.03-.01.04-.02l.67-.27.58-.3.49-.49s.1-.07.16-.09l.64-.16.46-.45s.05-.05.08-.06l.65-.34s.02-.02.04-.02l.63-.23.5-.45s.04-.04.06-.05l.61-.34.56-.42s.06-.04.08-.05l.66-.26.56-.31.49-.5s.1-.08.16-.09l.69-.18.55-.3.48-.51s.09-.08.16-.09l.65-.2.53-.41.05-.03,1.24-.66.54-.51c.11-.11.28-.13.42-.05l.68.38s.05.04.07.06l.5.48.61.31s.03.02.04.02l.59.39.65.29s.04.02.05.03l.61.4.54.44.67.16s.09.03.13.06l.59.44.59.36s.02.02.03.02l.56.43.63.33.65.31s.07.04.09.06l.5.48.61.3.67.24s.09.04.12.08l.48.46.63.21s.09.04.13.07l.52.45.62.27s.07.03.09.06l.51.46.63.25.69.3s.03.01.04.02l.63.37s.05.03.06.04l.53.48.59.37.63.31.65.39.64.3s.07.04.1.07l.48.48,1.29.56s.04.02.06.04l.45.31-.29-.56-.32-.69-.25-.72-.31-.62-.83-1.19-.4-.65s-.02-.02-.02-.03l-.3-.64-.42-.57s-.04-.07-.05-.1l-.21-.66-.42-.54s-.04-.06-.05-.09l-.26-.67-.69-1.23-.47-.55s-.04-.06-.06-.09l-.89-2.01-.36-.61-.34-.68-.34-.61-.42-.59s-.03-.04-.04-.06l-.29-.63-.46-.52s-.05-.07-.06-.1l-.26-.66-.38-.59s-.02-.02-.02-.04l-.31-.64-.42-.57s-.04-.05-.05-.09l-.25-.66-.38-.59s-.02-.04-.03-.06l-.25-.63-.46-.52s-.05-.06-.06-.09l-.3-.67c-.04-.1-.04-.21,0-.3l.33-.66s.02-.04.03-.05l.44-.58.7-1.22.21-.69s.03-.06.04-.09l.4-.62.46-.57.28-.64s.02-.05.04-.07l.4-.55.21-.67s.03-.07.05-.09l.82-1.17.2-.67s.03-.07.05-.11l.42-.57.29-.64s.03-.05.05-.07l.43-.55.28-.64.33-.67.37-.66s.02-.03.03-.04l.44-.59.48-.55.3-.6.24-.69s.02-.04.03-.05l.36-.65s.02-.02.02-.03l.4-.56.23-.66s.02-.06.04-.08l.41-.59.33-.63s.02-.04.04-.05l.44-.56.32-.62.39-.65.3-.64s.03-.05.05-.08l.43-.52.18-.66s.03-.08.05-.11l-.53.45s-.04.03-.06.04l-.65.35-.61.37s-.03.02-.05.03l-.64.26-.51.46s-.07.05-.11.07l-.67.23-1.22.73-.59.41s-.04.03-.07.03l-.65.27-.57.41s-.02.02-.04.02l-.63.34-.58.41-.05.03-.61.31-.53.46s-.08.05-.13.07l-.68.21-.61.34-.61.37-.57.41-.61.42s-.03.02-.04.03l-.64.31-1.21.79s-.02.02-.03.02l-.63.32-.57.41s-.03.02-.05.03l-.63.31-.57.41s-.03.02-.05.03l-1.26.62-.47.52s-.1.08-.16.1l-.66.19-.51.43s-.05.04-.07.05l-.64.3-.6.43c-.11.08-.26.08-.38.02l-.67-.37-.65-.3s-.08-.05-.11-.08l-.45-.49-.64-.16c-.07-.01-.13-.05-.17-.1l-.47-.48-.64-.19c-.05-.02-.09-.04-.13-.07l-.54-.46-.61-.32-.66-.29s-.02-.01-.03-.02l-.64-.37-.61-.4-.65-.31s-.03-.02-.04-.03l-.59-.4-.65-.29s-.07-.04-.1-.08l-.49-.49-.61-.28s-.03-.01-.04-.02l-1.83-1.13-.68-.2c-.06-.02-.11-.05-.16-.09l-.51-.5-.58-.32-.67-.29s-.03-.02-.04-.02l-1.27-.72-.59-.4-.66-.21s-.08-.03-.11-.06l-.56-.43-.63-.32-.66-.26s-.03-.02-.05-.03l-.64-.38-.05-.03-.57-.47-.55-.42-.82-.4.09.17.42.58s.04.07.06.11l.18.66.44.52s.04.05.05.07l.67,1.31.37.62.34.68.37.6.4.61s.03.04.04.07l.24.67.36.6.42.57.4.66s.01.02.02.04l.3.65.38.6s.03.05.04.08l.2.66.41.55.79,1.28.33.66.43.56s.02.03.03.04l.36.64s.03.07.04.1l.14.65.47.46s.05.05.07.08l.36.64s.03.06.04.09l.15.67.41.53s.04.06.05.08l.26.64.45.53s.03.05.05.07l.63,1.29.44.55s.05.08.07.14l.19.69.31.55c.06.09.06.22.02.32l-.27.62s-.02.04-.04.06l-.4.56-.23.65-.3.69s-.02.03-.02.04l-.38.63-.42.57-.23.65s-.02.06-.05.09l-.42.6-.44.54-.2.65s-.03.07-.05.1l-.43.6-.38.6-.35.63-.66,1.29-.29.65s-.02.04-.03.05l-.41.61-.35.59-.28.66s-.01.03-.02.04l-.7,1.28s-.04.06-.06.08l-.48.48-.22.63s-.03.05-.04.07l-.39.61-.31.62-.36.65s-.02.03-.03.04l-.41.54-.21.65s-.03.08-.06.11l-.44.55-.31.62-.75,1.25-.27.66s-.03.06-.05.09l-.44.53Z"/>
  <path class="cls-2" d="M331.46,234.2l.17-.66.21-.7.13-.72.41-.65.11-.73.15-.72.21-.7.22-.7-.02-.76.39-.66.15-.72.22-.69v-.76s.26-.69.26-.69l.2-.71.24-.69.15-.71.24-.69.06-.74.08-.74.4-.65.2-.71.05-.74.14-.72.16-.72.15-.72.39-.66.09-.73.22-.7.07-.74.18-.71.28-.69.05-.74.32-.68.21-.7.12-.67.2.65.13.72.35.67v.77s.34.67.34.67l.06.74.29.69.31.68.17.71.06.74.13.72.41.65-.04.77.42.65.02.76.3.68.12.73.16.72.17.72.21.7.2.71.29.68.11.73.31.68.05.75.23.7.16.72.24.7.31.68.1.73.34.67.14.73.14.72.15.72.26.7.11.78.8.03.66.36.74.08.72.15.64.43.77-.02.65.4.72.16.73.14.69.26.74.09.65.39h.77s.69.26.69.26l.69.24.73.14.69.26.72.14.69.25.71.18.72.16.69.26.72.16.72.14.71.19.7.22.66.36.75.07.69.25.72.14.7.23.73.15.68.3.72.15.75.24-.74.22-.74.04-.67.32-.73.07-.71.18-.71.15-.68.31-.7.23-.74.05-.68.25-.74.06-.66.36-.74.05-.69.23-.71.16-.7.21-.74.07-.7.2-.72.12-.68.31-.72.1-.71.19-.68.3-.69.22-.75.03-.73.09-.7.18-.7.21-.69.26-.74.07-.69.25-.73.1-.67.35-.73.11-.77.13-.05.78-.25.69-.1.72-.29.67-.22.7v.74s-.19.71-.19.71l-.18.7-.27.68-.14.71-.24.69v.74s-.29.68-.29.68l-.14.72-.29.67-.09.73-.21.69-.13.71-.28.68-.02.74-.23.69-.1.72-.17.7-.21.7-.15.71-.24.69-.24.69-.26.69-.03.74-.18.7-.17.71-.28.68-.07.73-.31.67-.09.73-.23.69-.12.69-.24-.66-.27-.68-.16-.71-.07-.73-.14-.72-.17-.71-.31-.67-.1-.73-.21-.7-.26-.68-.14-.72-.28-.67-.29-.68v-.76s-.27-.68-.27-.68l-.2-.7-.25-.68-.18-.71-.05-.74-.2-.7-.28-.68-.31-.67-.05-.74-.28-.68-.07-.74-.35-.66-.03-.75-.33-.67-.26-.68-.03-.75-.27-.68-.23-.7-.11-.73-.19-.7-.12-.73-.4-.59-.63-.27-.7-.22-.73-.12-.7-.23-.72-.15-.66-.36-.71-.19-.76-.03-.7-.24-.7-.23-.73-.11-.66-.38h-.76s-.7-.23-.7-.23l-.65-.4-.76-.02-.7-.22-.68-.32-.73-.13-.7-.22-.74-.07-.68-.32-.7-.24-.76-.03-.65-.41-.76-.03-.7-.23-.68-.31-.7-.22-.72-.16-.71-.21-.71-.21-.76-.03-.71-.2-.71-.2-.65-.27.64-.29h.76s.71-.19.71-.19l.71-.18.65-.4.72-.13.74-.09.7-.24.73-.11.67-.35.74-.07.68-.28.72-.17.71-.17.7-.22.74-.07.67-.34.74-.09.71-.2.7-.23.72-.16.68-.31h.76s.71-.2.71-.2l.71-.2.68-.28.71-.18.73-.14.69-.26.7-.22.7-.23.71-.19.72-.16.73-.11.67-.34.64-.17Z"/>
  <g class="cls-3">
    <path class="cls-4" d="M338.55,273.94c-.15,0-.28-.09-.34-.23l-.51-1.34s-.01-.03-.01-.05l-.16-.71s0-.03,0-.05l-.07-.73-.14-.68-.16-.66-.3-.64s-.02-.07-.03-.1l-.1-.7-.2-.68-.25-.66s-.01-.04-.02-.06l-.13-.68-.56-1.32s-.03-.09-.03-.14v-.69s-.25-.63-.25-.63l-.2-.73-.24-.66-.19-.74s0-.04-.01-.06l-.05-.71-.19-.64-.28-.66-.3-.66s-.03-.08-.03-.13l-.05-.68-.27-.63s-.02-.07-.03-.1l-.06-.67-.32-.59s-.04-.1-.04-.16l-.03-.68-.29-.6-.27-.72s-.02-.07-.02-.11l-.03-.69-.24-.63-.24-.71-.02-.06-.11-.71-.18-.68-.12-.69-.29-.44-.53-.23-.65-.21-.7-.11s-.04,0-.06-.01l-.68-.22-.7-.14s-.07-.02-.1-.04l-.63-.34-.63-.17-.71-.03s-.07,0-.1-.02l-1.36-.46-.7-.11s-.08-.02-.12-.04l-.58-.33h-.67s-.07-.01-.1-.03l-.7-.22s-.06-.02-.08-.03l-.57-.35-.66-.02s-.07,0-.1-.02l-.7-.22s-.03-.01-.05-.02l-.63-.3-.68-.11s-.04-.01-.05-.01l-.67-.21-.71-.06s-.08-.01-.13-.04l-.65-.31-.63-.21-.71-.03c-.06,0-.12-.02-.17-.05l-.57-.36-.67-.03s-.07,0-.1-.02l-.7-.23s-.03-.01-.04-.02l-.66-.31-.68-.22-.69-.15-1.39-.42-.72-.02s-.05,0-.08-.01l-1.43-.41s-.03,0-.04-.01l-.65-.28c-.13-.05-.22-.18-.22-.32s.08-.27.21-.33l.64-.28s.1-.03.15-.04h.71s.65-.18.65-.18l.67-.17.61-.37s.08-.04.12-.04l.72-.14.72-.09.66-.22s.04-.01.06-.02l.67-.1.61-.33s.09-.04.14-.04l.69-.06.64-.26s.03-.01.05-.02l1.43-.35.68-.21s.05-.02.07-.02l.68-.06.61-.31s.07-.03.11-.04l.71-.09.68-.19.68-.22.72-.16.64-.3s.1-.04.15-.03h.71s1.35-.38,1.35-.38l.67-.27.05-.02.71-.18.71-.14.67-.24,1.42-.45.73-.19.73-.16.7-.11.61-.31s.05-.02.07-.03l.47-.13.13-.46.2-.69.12-.7s.03-.09.05-.14l.38-.58.09-.66.16-.74.42-1.38-.02-.7c0-.07.02-.14.05-.19l.35-.61.14-.66s0-.03.01-.04l.2-.64v-.7s0-.08.02-.13l.26-.69.19-.68.24-.69.15-.69s0-.03.01-.04l.22-.65.06-.7.08-.74c.01-.05.02-.1.05-.15l.37-.62.18-.62.04-.7s0-.03.01-.05l.14-.72.31-1.44s.02-.08.04-.11l.36-.59.08-.66s.01-.05.02-.07l.21-.66.06-.7s0-.04.01-.06l.18-.71s.02-.04.02-.05l.26-.64.04-.69s.02-.09.03-.13l.31-.65.2-.66.11-.65c.03-.16.16-.28.33-.29.16-.01.31.09.36.25l.2.65s0,.02.01.04l.13.67.32.61c.03.06.05.11.05.17v.68s.3.59.3.59c.02.04.03.09.04.14l.06.69.27.63.3.67s.02.04.02.06l.17.71s.01.03.01.05l.07.74.11.63.38.59c.04.06.05.13.05.2l-.03.66.36.55c.03.06.06.13.06.19v.69s.28.61.28.61c.01.03.03.06.03.08l.12.73.32,1.42.4,1.37.29.67s.02.06.02.09l.11.68.29.63s.03.08.03.13l.05.7.21.66s.01.02.01.03l.15.7.23.68.3.65s.03.06.03.09l.1.68.31.61s.03.06.04.09l.41,2.15.25.67s.02.05.02.07l.07.49.51.02c.05,0,.1.02.15.04l.6.32.67.07s.02,0,.04,0l.72.16s.09.03.12.05l.55.37.66-.02c.07,0,.14.02.2.05l.6.37.66.15.71.14s.04.01.06.02l.65.24.69.08c.05,0,.1.02.14.05l.57.33h.67s.09,0,.14.02l1.35.5.7.13s.04.01.06.02l.67.24.7.14s.04,0,.05.02l.68.24,1.41.33s.03,0,.04.02l.67.24.7.16.72.14.74.2.72.23s.04.02.06.03l.6.33.67.07s.06.01.08.02l.67.24.7.14s.03.01.04.01l.68.22.7.14s.06.02.08.03l.65.29.69.14s.03,0,.04.01l.75.24c.15.05.25.19.24.34s-.1.29-.26.34l-.74.22s-.06.02-.08.02l-.68.03-.61.29s-.08.03-.12.03l-.71.07-.68.17-.69.15-.64.29s-.03.02-.04.02l-.7.23s-.06.02-.09.02l-.69.05-.64.23s-.06.02-.09.02l-.66.06-.59.32s-.09.04-.15.05l-.69.05-.65.22-.74.17-.68.2s-.04.01-.06.01l-.7.07-.67.19s-.03,0-.04.01l-.68.11-.63.29s-.06.03-.1.03l-.71.09-.66.17-.65.29s-.03.01-.04.02l-.7.22s-.06.02-.09.02l-.74.03-.68.09-.68.18-.68.21-.67.25s-.06.02-.09.02l-.7.07-.65.23s-.05.02-.07.02l-.67.09-.61.32s-.07.03-.11.04l-1.21.2-.03.5s-.02.07-.03.1l-.23.65-.1.69s-.02.06-.03.09l-.28.66-.2.63v.69s-.01.06-.02.08l-.36,1.41s0,.03-.01.04l-.26.65-.13.68s-.01.04-.02.05l-.22.64v.68s-.02.09-.04.13l-.26.65-.13.68s-.01.05-.02.07l-.27.64-.09.68s0,.04-.01.06l-.21.68-.13.69s-.01.05-.02.07l-.25.62-.02.68s0,.07-.02.1l-.22.66-.09.69s0,.03,0,.04l-.18.7-.21.71-.15.68s-.01.03-.01.04l-.71,2.02-.03.69s0,.05-.01.07l-.35,1.41-.02.05-.26.63-.06.68s-.02.08-.03.12l-.29.62-.08.67s0,.05-.02.07l-.22.67-.12.66c-.03.16-.16.28-.32.29,0,.04-.01.04-.02.04ZM338.38,272.13l.09.23.08-.24.08-.69s.02-.08.03-.11l.29-.61.06-.67s.01-.07.03-.1l.27-.66.34-1.35.03-.7s.01-.07.02-.11l.72-2.04.15-.69.22-.72.17-.67.09-.71s.01-.05.02-.07l.22-.64.02-.69s.01-.09.03-.13l.26-.65.13-.68s0-.03.01-.04l.2-.67.08-.69s.02-.07.03-.09l.27-.65.13-.67s.01-.05.02-.07l.24-.61v-.68s.02-.08.03-.11l.23-.66.14-.69s.01-.04.02-.06l.27-.66.34-1.34v-.7s.02-.07.03-.1l.21-.69.02-.03.27-.64.1-.67s.01-.05.02-.07l.23-.64.05-.73c.01-.16.13-.3.29-.33l1.45-.24.61-.32s.07-.03.12-.04l.69-.09.66-.23s.06-.02.08-.02l.69-.07.65-.24.72-.22.72-.19s.03,0,.04,0l.73-.09.73-.03.63-.2.66-.3s.04-.02.06-.02l.7-.18s.03-.01.05-.01l.67-.09.63-.29s.06-.02.09-.03l.7-.11.68-.2s.05-.01.07-.01l.7-.07.67-.19.73-.17.66-.22s.06-.02.09-.02l.66-.04.59-.33s.09-.04.15-.04l.69-.05.64-.24s.07-.02.1-.02l.69-.05.64-.2.66-.3s.05-.02.07-.03l.72-.15.69-.18s.03,0,.05-.01l.67-.06.62-.29s.02,0,.03-.01h0l-.64-.29-.69-.14s-.03,0-.04-.01l-.68-.22-.7-.14s-.03,0-.05-.01l-.65-.23-.7-.07s-.09-.02-.14-.04l-.63-.35-.67-.22-.69-.19-.7-.13-.73-.16s-.03,0-.05-.02l-.67-.24-1.42-.34s-.03-.01-.04-.01l-.67-.24-.69-.14s-.04-.01-.06-.02l-.67-.24-.7-.13s-.04-.01-.05-.02l-1.32-.49h-.7c-.06.02-.13-.01-.18-.04l-.59-.35-.66-.08s-.06-.01-.09-.02l-.66-.25-.7-.13-.73-.16s-.08-.03-.11-.05l-.56-.35-.66.02c-.08,0-.15-.02-.21-.06l-.58-.4-.64-.14-.72-.07s-.09-.02-.14-.04l-.59-.32-.72-.03c-.17,0-.31-.14-.34-.3l-.11-.74-.24-.66s-.01-.04-.02-.06l-.41-2.13-.32-.63s-.03-.07-.04-.11l-.1-.68-.29-.63-.25-.73s-.01-.03-.01-.04l-.15-.71-.22-.68s-.02-.06-.02-.09l-.05-.68-.29-.62s-.03-.06-.03-.09l-.11-.69-.27-.65s-.01-.03-.02-.04l-.41-1.41-.33-1.46-.11-.7-.28-.64s-.03-.09-.03-.14v-.66s-.37-.57-.37-.57c-.04-.06-.06-.14-.06-.2l.03-.66-.35-.56s-.04-.08-.05-.13l-.13-.73-.07-.74-.16-.66-.29-.65-.29-.69s-.02-.07-.03-.1l-.06-.68-.31-.6c-.03-.05-.04-.11-.04-.17v-.68s-.31-.59-.31-.59c0-.01-.01-.02-.02-.04,0,.01,0,.02,0,.02l-.29.61-.04.68s-.01.08-.03.11l-.27.66-.17.66-.06.71s0,.05-.02.08l-.21.67-.08.7s-.02.09-.05.14l-.36.6-.43,2.07-.05.71s0,.05-.02.07l-.2.7s-.02.06-.04.09l-.36.58-.07.66-.06.73s0,.06-.02.09l-.23.67-.15.69-.02.05-.25.69-.19.68-.24.66v.69s0,.07-.02.11l-.21.68-.14.7s-.02.08-.04.11l-.33.57v.66s.01.08,0,.11l-.43,1.4-.14.69-.1.71s-.02.09-.05.14l-.38.59-.11.65s-.01.03-.01.04l-.38,1.35c-.03.13-.13.22-.26.26l-.63.17-.64.32s-.07.03-.11.04l-.73.11-.7.16-.7.18-1.39.44-.67.25s-.04.01-.06.02l-.72.14-.67.17-.67.27s-.03.01-.04.02l-1.41.4s-.07.01-.1.02h-.68s-.6.27-.6.27c-.03.01-.05.02-.07.03l-.72.16-.67.22-.72.2s-.04,0-.05.01l-.68.08-.61.31s-.08.03-.13.03l-.7.07-.67.21-1.42.35-.66.27s-.07.02-.1.03l-.67.06-.6.32s-.07.03-.11.04l-.7.11-.67.22s-.05.02-.07.02l-.73.09-.64.11-.6.36s-.06.03-.09.04l-.71.18-.7.2s-.07.02-.1.02h-.13l.85.24.72.02s.06,0,.09.01l1.42.43.7.15.73.24s.03.01.04.01l.66.31.64.21.71.03c.06,0,.12.02.17.05l.57.36.66.03s.07,0,.1.02l.7.24s.03.01.04.02l.61.3.68.05.08.02.68.21.71.12s.06.02.09.03l.65.31.63.2h.71c.06.01.13.03.18.06l.61.38.61.19h.71c.06,0,.12.03.17.05l.6.34.66.11s.04,0,.06.01l1.35.46.7.03s.05,0,.08.01l.71.19s.05.02.08.03l.61.34.67.13s.03.01.04.02l.67.21.71.11s.03,0,.05.02l.7.22.66.28c.07.03.12.08.16.14l.4.59s.05.09.05.14l.12.73.18.67s.01.02.01.04l.1.7.22.67.26.67s.02.07.03.11l.03.69.23.64.31.63s.04.09.04.15l.03.67.31.59s.04.09.04.14l.06.68.27.63s.02.07.03.11l.05.68.28.61.29.69.02.03.2.7s.01.05.02.07l.05.71.17.68.24.65.2.73.26.65s.02.08.03.13v.68s.55,1.29.55,1.29c.01.02.02.05.02.07l.14.69.24.66.21.73s.01.03.01.05l.1.68.29.63s.02.04.02.06l.18.71.15.73.07.75.16.67Z"/>
  </g>
  <path class="cls-6" d="M338.12,235.39l.64-.24.67-.27.61-.38.55-.49.72-.19.64-.32.56-.47.61-.38.63-.34.64-.34.61-.39.69-.24.59-.42.59-.41.72-.18.55-.49.67-.27.61-.38.62-.37.6-.41.72-.2.53-.41-.38.54-.22.71-.54.53-.21.72-.43.58-.35.64-.4.6-.36.63-.45.58-.42.59-.41.59-.36.63-.3.67-.3.66-.35.64-.54.52-.33.65-.27.69-.5.54-.21.72-.57.51-.27.68.34.65.35.65.26.69.51.56.19.73.49.57.15.76.38.63.49.58.22.71.49.58.17.74.33.66.38.64.48.58.18.74.49.57.18.74.39.63.37.65.38.66-.62-.42-.68-.29-.57-.47-.67-.31-.54-.51-.67-.31-.61-.4-.63-.38-.64-.36-.56-.49-.67-.31-.51-.56-.71-.24-.59-.45-.68-.29-.52-.56-.63-.39-.64-.36-.71-.26-.58-.45-.59-.49-.63.44-.65.34-.58.46-.7.26-.6.43-.68.29-.59.45-.64.35-.63.39-.73.2-.61.42-.6.43-.67.3-.68.29-.58.47-.71.23-.54.53-.69.27-.57.47-.72.21-.61.42-.64.38.46-.57.25-.69.51-.53.36-.61.2-.71.49-.54.28-.67.31-.65.47-.55.3-.66.38-.61.5-.54.35-.63.37-.62.18-.72.46-.56.29-.66.47-.56.32-.65.37-.61.31-.65.46-.56-.24-.69-.43-.59-.35-.63-.32-.65-.42-.59-.18-.73-.51-.55-.2-.71-.44-.59-.4-.6-.13-.75-.53-.55-.24-.69-.26-.68-.53-.54-.3-.66-.3-.67-.43-.6-.21-.7-.44-.59-.26-.69-.35-.63.67.27.57.45.57.46.64.34.66.31.63.36.59.42.61.38.58.44.71.23.61.39.59.42.65.33.55.47.56.48.74.18.51.55.66.32.57.45.69.27.64.33.6.3Z"/>
  <path class="cls-4" d="M350.95,255.48c-.07,0-.14-.02-.2-.06l-.59-.4-.65-.27s-.06-.03-.09-.05l-.53-.44-.63-.29s-.07-.04-.09-.06l-.5-.47-.62-.29s-.03-.02-.05-.03l-.61-.4-.61-.38-.63-.35s-.05-.03-.07-.05l-.52-.46-.62-.28s-.08-.05-.12-.09l-.45-.49-.62-.21s-.07-.03-.1-.05l-.55-.42-.64-.28s-.09-.05-.12-.08l-.47-.53-.58-.35-.6-.34-.68-.24s-.07-.03-.1-.06l-.58-.45-.4-.33-.41.28s-.03.02-.04.03l-.62.32-.56.44s-.06.04-.09.06l-.65.24-.56.41s-.04.03-.07.04l-.64.27-.55.42-.05.03-.65.35-.61.38s-.06.03-.09.04l-.67.18-1.16.8s-.04.03-.06.04l-1.31.57-.54.44s-.07.05-.11.06l-.64.21-.48.47s-.08.06-.13.08l-.64.24-.53.44s-.08.05-.13.07l-.67.2-.57.39-.66.39c-.15.09-.34.06-.45-.07s-.11-.32,0-.46l.43-.52.23-.63s.04-.09.07-.13l.48-.51.32-.55.19-.67c.01-.05.04-.1.08-.14l.46-.49.25-.61.33-.67s.03-.06.05-.08l.44-.52.28-.61s.02-.03.02-.04l.38-.61s.03-.04.05-.05l.47-.51.68-1.17.17-.68c.02-.05.04-.09.07-.14l.43-.52.27-.62s.04-.06.06-.09l.45-.52.3-.6.38-.64.3-.63s.03-.05.05-.07l.33-.41-.15-.45-.4-.54s-.02-.03-.03-.04l-.35-.63-.31-.65-.41-.57s-.05-.08-.06-.12l-.15-.64-.45-.48s-.07-.09-.08-.15l-.18-.65-.4-.53-.41-.63s-.05-.08-.05-.13l-.11-.64-.45-.47s-.06-.08-.08-.13l-.46-1.3-.48-.49s-.05-.06-.07-.1l-.59-1.3-.41-.57s-.04-.07-.05-.1l-.19-.65-.4-.54s-.04-.06-.05-.09l-.25-.66-.33-.6c-.07-.13-.06-.29.05-.41.1-.11.26-.15.4-.09l.67.26s.07.03.09.05l1.11.9.61.32.64.3.66.38.62.43.59.38.56.41.65.21s.05.02.08.04l.61.39.59.42.62.32s.05.03.07.05l1.05.9.65.16c.07.02.13.05.18.1l.46.51.59.29s.04.03.07.04l.53.41.64.25s.03.01.04.02l.64.33.46.26.47-.18.64-.26.56-.34.52-.47s.09-.07.15-.08l.68-.19.57-.29.53-.45.05-.03.61-.38,1.28-.7.59-.37s.05-.03.07-.04l.65-.23,1.15-.8s.07-.05.11-.06l.64-.16.48-.43s.07-.05.11-.07l.65-.26.58-.36.63-.37.58-.4s.07-.04.1-.05l.65-.18.47-.36c.14-.11.34-.1.46.02.13.13.15.32.04.46l-.34.49-.2.66c-.02.06-.05.11-.09.15l-.47.45-.19.63s-.03.07-.05.1l-.42.57-.34.61-.41.63-.34.61s-.02.03-.03.04l-.45.58-.82,1.17-.34.59-.59,1.31-.37.66s-.04.06-.06.08l-.5.48-.3.58-.26.67s-.04.08-.07.11l-.44.48-.18.65c-.02.06-.06.13-.1.17l-.51.45-.18.45.61,1.14s.02.03.02.05l.24.63.46.52s.07.09.08.15l.17.65.44.51s.07.1.08.17l.15.69.33.56.46.56s.05.08.07.13l.2.65.44.52s.06.09.07.15l.16.71.31.62.35.58.46.57s.06.09.07.14l.16.66.44.51s.06.09.07.15l.17.68.36.58.75,1.32c.08.15.06.33-.07.44-.07.08-.15.11-.23.11ZM349.83,254.11l.17.07-.1-.19-.39-.61s-.04-.07-.04-.11l-.16-.66-.44-.51s-.06-.09-.07-.15l-.16-.66-.43-.52s-.02-.03-.03-.04l-.39-.64-.34-.69s-.02-.06-.03-.08l-.15-.66-.43-.52s-.05-.08-.07-.13l-.2-.65-.44-.52-.03-.05-.39-.64s-.03-.07-.04-.11l-.14-.66-.43-.5s-.06-.09-.07-.15l-.17-.65-.45-.5s-.06-.07-.07-.12l-.25-.67-.68-1.27c-.05-.09-.06-.2-.02-.3l.27-.68s.06-.09.1-.14l.49-.43.18-.63c.02-.05.04-.1.08-.14l.46-.49.24-.62s.01-.03.02-.04l.33-.65s.04-.06.07-.09l.5-.48.33-.59.58-1.3s.01-.03.02-.04l.36-.63.84-1.22.44-.57.34-.61.42-.63.33-.61s.02-.03.03-.04l.39-.54.19-.66c.02-.06.05-.11.09-.15l.47-.46.06-.19-.24.07-.55.38-.64.38-.6.38s-.04.03-.06.03l-.62.24-.51.45s-.09.06-.15.08l-.66.17-1.13.79s-.06.03-.09.04l-.65.23-.57.36-1.29.7-.58.35-.54.46s-.04.03-.07.04l-.64.33s-.05.02-.07.03l-.64.17-.49.44s-.04.03-.05.04l-.61.38s-.03.02-.05.03l-.67.27-.64.24c-.1.04-.21.03-.3-.03l-.59-.34-.61-.32-.67-.27s-.06-.03-.09-.05l-.55-.43-.62-.3s-.08-.05-.11-.08l-.44-.47-.64-.16c-.05-.02-.1-.04-.15-.08l-1.08-.92-.61-.31s-.03-.02-.05-.03l-.59-.42-.56-.35-.67-.22s-.07-.03-.1-.05l-.58-.43-.59-.37-.61-.42-.6-.34-.63-.29-.66-.35s-.04-.03-.06-.04l-.77-.63.11.32.41.55s.04.07.05.11l.19.65.39.55s.03.04.04.06l.57,1.26.49.5s.06.08.08.13l.47,1.31.47.48c.05.05.08.11.09.19l.12.68.36.55.43.57s.05.07.06.11l.18.64.45.48s.07.1.08.16l.16.66.38.54s.02.04.03.05l.32.65.33.59.42.57s.04.06.05.09l.23.69c.04.11.02.24-.06.34l-.44.53-.29.61-.39.65-.31.61s-.03.05-.05.07l-.44.51-.27.61s-.03.06-.05.09l-.41.5-.17.65s-.02.06-.04.09l-.71,1.23s-.03.05-.05.07l-.48.51-.35.56-.29.64s-.03.06-.05.09l-.45.52-.3.6-.27.65s-.04.08-.07.1l-.44.48-.18.63s-.02.06-.04.09l-.36.61s-.03.04-.05.06l-.42.45s.06-.04.1-.05l.66-.19.52-.43s.07-.04.1-.06l.63-.23.48-.48s.08-.07.14-.09l.65-.21.53-.43s.05-.03.08-.05l1.31-.57,1.19-.82s.07-.04.1-.05l.68-.19.58-.35.64-.35.56-.44.08-.05.65-.27.57-.41s.05-.03.08-.05l.64-.24.54-.42s.04-.03.05-.04l.63-.33.61-.43c.13-.09.31-.09.43.02l.59.49.53.41.66.23s.04.02.05.03l.64.36.64.39s.05.04.08.07l.46.51.61.26s.05.03.07.04l.54.41.66.22c.06.02.11.05.15.09l.46.51.6.28s.06.04.09.06l.53.47.6.33.64.39.6.39.65.3s.07.04.09.06l.51.47.61.29s.06.03.08.05l.53.44Z"/>
  <path class="cls-2" d="M252.88,285.02l.61.7.5.78.43.82.41.84.14.93.21.89.15.91-.05.92-.15.92-.47.8-.62.66-.82.38-.85.28-.92.07-.91-.17-.89-.26-.75-.55-.87-.34-.76-.52-.67-.64-.73-.58-.45-.83-.53-.74-.51-.77-.55-.74-.44-.82-.21-.91-.16-.91-.04-.91-.11-.93.28-.89.33-.86.64-.69.84-.41.88-.33.94.04.91.21.83.4.86.31.77.52.84.41.59.73.74.56.56.73Z"/>
  <path class="cls-2" d="M263.13,302.79l.92.2.9.34.72.64.53.8.09.95-.49.83-.84.45-.93.21-.95.1-.95-.14-.91-.3-.88-.41-.64-.73-.53-.76-.14-.92.5-.79.8-.52.94-.15h.94s.92.2.92.2Z"/>
  <path class="cls-2" d="M248.6,184.57l.93-.29.97-.09.97.06.96.12.93.2.95.22.85.48.73.67.33.94-.06.96-.22.92-.55.79-.58.78-.69.7-.84.5-.88.44-.91.36-.94.28-.96.16-.97.1-.97.08-.98-.09-.96-.22-.94-.32-.74-.66-.67-.68-.44-.86-.04-.97.22-.95.56-.8.66-.71.8-.55.77-.58.84-.5.91-.35.97-.15Z"/>
  <path class="cls-2" d="M280.87,163.96l.84-.37.91-.13.91.15.83.34.65.64-.07.9-.28.86-.7.56-.66.6-.81.39-.87.2-.88.09-.86-.06-.86-.2-.62-.66-.13-.93.46-.8.68-.59.69-.56.79-.43Z"/>
  <path class="cls-2" d="M300.48,314.25l.83.23.78.41.54.71v.87s-.39.77-.39.77l-.8.39-.87.02-.84-.11-.84-.2-.65-.57-.61-.61.03-.83.37-.72.77-.35.84-.03.84.02Z"/>
</svg>