<?xml version="1.0" encoding="UTF-8"?>
<svg id="Layer_21" xmlns="http://www.w3.org/2000/svg" xmlns:xlink="http://www.w3.org/1999/xlink" viewBox="0 0 538.59 494.63">
  <defs>
    <style>
      .cls-1, .cls-2 {
        fill: none;
      }

      .cls-3, .cls-4 {
        fill: #101111;
      }

      .cls-3, .cls-4, .cls-2, .cls-5, .cls-6, .cls-7 {
        stroke-linecap: round;
        stroke-linejoin: round;
        stroke-width: .84px;
      }

      .cls-3, .cls-2, .cls-5, .cls-6 {
        stroke: #101111;
      }

      .cls-4, .cls-7 {
        stroke: #f4cf88;
      }

      .cls-8, .cls-5 {
        fill: #f4cf88;
      }

      .cls-9 {
        clip-path: url(#clippath-11);
      }

      .cls-10 {
        clip-path: url(#clippath-16);
      }

      .cls-11 {
        clip-path: url(#clippath-10);
      }

      .cls-12 {
        clip-path: url(#clippath-15);
      }

      .cls-13 {
        clip-path: url(#clippath-13);
      }

      .cls-14 {
        clip-path: url(#clippath-14);
      }

      .cls-15 {
        clip-path: url(#clippath-12);
      }

      .cls-16 {
        clip-path: url(#clippath-1);
      }

      .cls-17 {
        clip-path: url(#clippath-3);
      }

      .cls-18 {
        clip-path: url(#clippath-4);
      }

      .cls-19 {
        clip-path: url(#clippath-2);
      }

      .cls-20 {
        clip-path: url(#clippath-7);
      }

      .cls-21 {
        clip-path: url(#clippath-6);
      }

      .cls-22 {
        clip-path: url(#clippath-9);
      }

      .cls-23 {
        clip-path: url(#clippath-8);
      }

      .cls-24 {
        clip-path: url(#clippath-5);
      }

      .cls-25 {
        fill: #e44325;
      }

      .cls-6, .cls-26 {
        fill: #d46ba9;
      }

      .cls-7 {
        fill: #fdfaf0;
      }

      .cls-27 {
        clip-path: url(#clippath);
      }
    </style>
    <clipPath id="clippath">
      <rect class="cls-1" x="194.49" y="293.93" width="106" height="88"/>
    </clipPath>
    <clipPath id="clippath-1">
      <rect class="cls-1" x="194.49" y="292.6" width="106" height="90.67"/>
    </clipPath>
    <clipPath id="clippath-2">
      <rect class="cls-1" x="226.22" y="224.91" width="10.67" height="13.03"/>
    </clipPath>
    <clipPath id="clippath-3">
      <rect class="cls-1" x="226.22" y="224.91" width="10.67" height="14.36"/>
    </clipPath>
    <clipPath id="clippath-4">
      <rect class="cls-1" x="235.55" y="224.91" width="13.33" height="13.03"/>
    </clipPath>
    <clipPath id="clippath-5">
      <rect class="cls-1" x="235.55" y="224.91" width="13.33" height="14.36"/>
    </clipPath>
    <clipPath id="clippath-6">
      <rect class="cls-1" x="247.55" y="224.91" width="13.33" height="13.03"/>
    </clipPath>
    <clipPath id="clippath-7">
      <rect class="cls-1" x="258.22" y="224.91" width="10.67" height="13.03"/>
    </clipPath>
    <clipPath id="clippath-8">
      <rect class="cls-1" x="258.22" y="224.91" width="12" height="14.36"/>
    </clipPath>
    <clipPath id="clippath-9">
      <rect class="cls-1" x="235.55" y="224.91" width="13.33" height="13.03"/>
    </clipPath>
    <clipPath id="clippath-10">
      <rect class="cls-1" x="235.55" y="224.91" width="13.33" height="14.36"/>
    </clipPath>
    <clipPath id="clippath-11">
      <rect class="cls-1" x="247.55" y="224.91" width="13.33" height="13.03"/>
    </clipPath>
    <clipPath id="clippath-12">
      <rect class="cls-1" x="246.22" y="224.91" width="14.67" height="14.36"/>
    </clipPath>
    <clipPath id="clippath-13">
      <rect class="cls-1" x="216.89" y="385.93" width="64" height="15.97"/>
    </clipPath>
    <clipPath id="clippath-14">
      <rect class="cls-1" x="215.55" y="384.6" width="65.33" height="17.31"/>
    </clipPath>
    <clipPath id="clippath-15">
      <rect class="cls-1" x="194.49" y="359.27" width="15.73" height="22.67"/>
    </clipPath>
    <clipPath id="clippath-16">
      <rect class="cls-1" x="194.49" y="357.93" width="17.06" height="25.33"/>
    </clipPath>
  </defs>
  <path class="cls-6" d="M266.88,395.57l-1.08.07-1.08-.03-1.08.08-1.08-.19-1.08.04-1.08.14-1.08-.18-1.08-.02-1.08.15-1.08.02-1.08.03-1.08.05-1.08-.22-1.08.06-1.08.05-1.08-.09-1.08.09-1.08.07-1.08-.18-1.08.19-1.08.02-1.08-.15-1.08-.06-1.08.14-1.08-.03-1.08-.02-1.08.16-1.08-.21-1.08.17-1.08-.22-1.08.16-1.08.1-1.08-.04-1.08-.02-1.1-.18-1.09-.08-1.1-.16-1.03-.45-.99-.54-.76-.85-.58-.95-.58-.94-.29-1.07-.27-1.07.07-1.1v-1.12l.52-1,.26-1.05.46-.96,1.02-1.88.33-1.02.37-1,.44-.97.34-1.02.43-.97.56-.92.31-1.03.57-.91.26-1.05.52-.94.57-.92.39-.99.3-1.03.45-.97.36-1.08,1.14.15,1.07-.02,1.06-.02h1.06s1.06.07,1.06.07l1.06-.07,1.06.05,1.06-.1h1.07s1.06-.09,1.06-.09l1.06.17,1.06-.08,1.06-.09,1.06.1,1.06.07,1.06.06h1.07l1.06.02,1.07-.15,1.06.05,1.07.03,1.07-.18,1.07.09h1.07s1.06,0,1.06,0l1.07-.03,1.07.04,1.07.17,1.06-.16,1.07-.1,1.08.09.44.99.4.99.58.9.36,1.02.45.97.64.88.35,1.02.6.9.4.99.51.95.59.9.24,1.08.68.85.43.98.32,1.04.53.94.57.91.51.95.5.95.2,1.06.19,1.02.34,1.03-.14,1.06-.36,1.01-.39.98-.66.82-.53.93-.82.7-.92.55-.97.46-1.08.02-1.03.13Z"/>
  <path class="cls-6" d="M262.29,318.42l-.99-.05-1.06.18-1.07-.14-1.07-.04-1.07.02-1.07.07h-1.06s-1.06-.08-1.06-.08l-1.07.08-1.07.17-1.07-.16-1.07.1-1.07-.13-1.06.17h-1.07s-1.07-.07-1.07-.07l-1.07.05-1.07-.25-1.07.24-1.07.04-1.07-.04h-1.06s-1.07-.16-1.07-.16l-1.07-.06-1.07.25-1.07-.05-1.05-.09.11-1.05.07-1.08-.09-1.08.06-1.08.2-1.06-.05-1.09.13-1.07v-1.08s.08-1.07.08-1.07l.14-1.07v-1.08s.01-1.08.01-1.08l.09-1.08.06-1.08.09-1.08.13-1.07v-1.08s.17-1.07.17-1.07l.15-1.07.06-1.07.04-1.08-.09-1.09.19-1.07.03-1.08.09-1.07.07-1.08-.09-1.09.21-1.06-.11-1.09.23-1.07-.13-1.09.26-1.07.06-1.08.05-1.08v-1.08l.1-1.07-.02-1.08.26-1.07.02-1.08-.07-1.08.25-1.06.09-1.07-.09-1.09.04-1.08.04-1.08.02-1.08.29-1.07v-1.08l.02-1.08.16-1.07-.02-1.09v-1.08s.24-1.07.24-1.07l-.12-1.09.05-1.08.21-1.07.13-1.07-.07-1.09.09-1.08.08-1.08-.06-1.18,1.17.17,1.08-.17,1.07.22,1.08-.16,1.07-.1,1.08.04,1.07.02,1.08.18h1.07s1.08-.12,1.08-.12h1.07l1.08-.09,1.07.11,1.08.12,1.08-.06,1.08.07,1.08-.08,1.08.07,1.12-.17-.07,1.13.26,1.06.04,1.08-.04,2.17.18,1.07.13,1.07.06,1.08.16,1.07.07,1.08-.07,1.08.2,1.07-.09,1.09.25,1.07-.02,1.08-.08,1.09.11,1.07.21,1.07.05,1.08.19,1.07-.1,1.09.09,1.08.09,1.07.06,1.08v1.08s.15,1.07.15,1.07l.02,1.08.18,1.07.08,1.07.15,1.07-.1,1.09.16,1.07.16,1.07-.03,1.08v1.08l.02,1.08.07,1.08.05,1.08.22,1.07.02,1.08.05,1.08.26,1.06-.03,1.08.08,1.08.06,1.08.09,1.07.04,1.08-.09,1.09.22,1.06.17,1.07-.02,1.08.04,1.08-.02,1.08.2,1.07-.06,1.08.05,1.08.25,1.07-.06,1.09.22,1.07v1.09s.02,1.04.02,1.04Z"/>
  <g class="cls-27">
    <path class="cls-25" d="M248.23,381.52l-.2.02-1.06-.06-1.08.23-1.06-.19-1.02-.34-1.07-.12-.98-.45-.95-.48-1.07-.2-.93-.52-.97-.45-.92-.54-.82-.71-1.04-.34-.81-.71-.82-.7-.88-.6-.9-.57-.88-.6-.74-.79-.85-.64-.91-.58-.69-.83-.83-.67-.89-.61-.76-.76-.76-.74-.87-.63-.72-.79-.76-.75-.82-.7-.9-.63-.64-.9-.85-.67-.69-.84-.85-.68-.81-.72-.67-.85-.86-.67-.56-.96-.9-.65-.64-.88-.63-.89-.85-.69-.56-.94-.64-.89-.69-.84-.73-.8-.65-.86-.79-.76-.52-.96-.58-.92-.76-.79-.51-.96-.56-.93-.61-.9-.65-.86-.56-.92-.49-.97-.65-.87-.43-1.01-.49-.96-.4-1.01-.66-.88-.47-.97-.38-1.02-.48-.97-.29-1.05-.31-1.04-.29-1.04-.42-1-.23-1.05-.49-.99-.12-1.08-.27-1.04-.15-1.07-.13-1.07-.1-1.07-.16-1.07v-1.08s-.13-1.1-.13-1.1l.28-1.07-.11-1.09.14-1.08.24-1.06.23-1.06.28-1.05.25-1.06.5-.97.38-1.01.47-.97.5-.96.54-.94.66-.86.69-.82.54-.95.79-.75.7-.83.85-.68.81-.71.71-.83.82-.7.87-.66,1-.45.82-.7.97-.45.93-.52.86-.67,1.02-.34.98-.41.98-.42.98-.43,1.02-.31,1.05-.2,1.03-.3,1.03-.34,1.08.02,1.06-.18,1.08.1,1.07-.15,1.07.07,1.06.2,1.07.13.99.47,1.09.04,1.04.28.99.41.98.42.91.58.93.53,1.05.3.9.59.85.66.85.64.86.64.94.53.83.68.71.8.86.64.72.79.8.71.72.8.66.85.74.77.71.81.62.87.63.86.58.9.51.95.53-.96.7-.82.71-.81.66-.85.66-.85.58-.92.82-.71.72-.8.78-.74.78-.73.69-.84.91-.59.72-.82.96-.53.76-.79,1-.44.91-.58.92-.55.92-.57.98-.45.95-.52,1.07-.22.99-.4.99-.45,1.08-.1,1.05-.2,1.04-.33,1.06-.15,1.08-.11,1.08-.07,1.07.24,1.07.02,1.08.08,1.05.27,1.07.14,1.06.2.98.49,1.08.19,1.01.39.92.58.94.52,1.01.39.92.57.91.58.99.46.76.81.96.54.69.87.9.62.84.7.7.83.68.84.52.97.63.88.68.86.54.94.58.93.36,1.03.3,1.05.43.99.26,1.05.37,1.02.18,1.07.41,1.02.02,1.1.32,1.05.07,1.08-.02,1.09-.05,1.08.1,1.08.04,1.08-.07,1.08v1.09s-.12,1.08-.12,1.08l-.29,1.06-.04,1.09-.36,1.04-.06,1.1-.35,1.04-.44,1-.27,1.05-.21,1.08-.39,1.02-.28,1.06-.57.94-.42,1.01-.44.99-.49.97-.55.94-.46.99-.58.92-.47.98-.57.93-.53.96-.76.81-.56.94-.57.94-.73.81-.72.82-.73.81-.69.84-.72.82-.61.92-.77.78-.76.79-.61.92-.83.72-.76.78-.79.76-.77.78-.82.72-.91.63-.7.85-.74.81-.88.66-.84.69-.88.65-.74.8-.92.6-.85.69-.72.83-.93.59-.75.81-.9.62-.8.7-.74.78-.99.47-.68.85-.87.63-.94.52-.81.69-.79.72-.85.65-.86.64-1.01.41-.93.52-.78.78-.96.48-1,.39-.96.47-1.03.29-.94.54-1.03.3-1.05.23-1.05.22-1.08-.15h-1.03Z"/>
  </g>
  <g class="cls-16">
    <path class="cls-2" d="M248.23,381.52l-.2.02-1.06-.06-1.08.23-1.06-.19-1.02-.34-1.07-.12-.98-.45-.95-.48-1.07-.2-.93-.52-.97-.45-.92-.54-.82-.71-1.04-.34-.81-.71-.82-.7-.87-.6-.9-.57-.88-.6-.74-.79-.85-.64-.91-.58-.69-.83-.83-.67-.89-.61-.76-.76-.76-.74-.87-.63-.72-.79-.76-.75-.82-.7-.9-.62-.64-.9-.85-.67-.69-.84-.85-.68-.81-.72-.67-.85-.86-.67-.56-.96-.9-.65-.64-.88-.62-.89-.85-.69-.56-.94-.64-.89-.69-.84-.73-.8-.65-.86-.79-.76-.52-.96-.58-.92-.76-.79-.51-.96-.56-.93-.61-.9-.65-.86-.56-.92-.49-.97-.65-.87-.43-1.01-.49-.96-.4-1.01-.66-.88-.47-.97-.37-1.02-.48-.97-.29-1.05-.31-1.04-.29-1.04-.42-1-.23-1.05-.49-.99-.12-1.08-.27-1.04-.15-1.07-.13-1.07-.1-1.07-.16-1.07v-1.08s-.13-1.1-.13-1.1l.28-1.07-.11-1.09.14-1.08.24-1.06.23-1.06.28-1.05.25-1.06.5-.97.37-1.01.47-.97.5-.96.54-.94.66-.86.69-.82.54-.95.79-.75.7-.83.85-.68.81-.71.71-.83.82-.7.87-.66,1-.45.82-.7.97-.45.93-.52.86-.67,1.02-.34.98-.41.98-.42.98-.43,1.02-.31,1.05-.2,1.03-.3,1.03-.34,1.08.02,1.06-.18,1.08.1,1.07-.15,1.07.07,1.06.2,1.07.13.99.47,1.09.04,1.04.28.99.41.98.42.91.58.93.53,1.05.3.9.59.85.66.85.64.86.64.94.53.83.68.71.8.86.64.72.79.8.71.72.8.66.85.74.77.71.81.62.87.63.86.58.9.51.95.53-.96.7-.82.71-.81.66-.85.66-.85.58-.92.82-.71.72-.8.78-.74.78-.73.69-.84.91-.59.72-.82.96-.53.76-.79,1-.44.91-.58.92-.55.92-.57.98-.45.95-.52,1.07-.22.99-.4.99-.45,1.08-.1,1.05-.2,1.04-.33,1.06-.15,1.08-.11,1.08-.07,1.07.24,1.07.02,1.08.08,1.05.27,1.07.14,1.06.2.98.49,1.08.19,1.01.39.92.58.94.52,1.01.39.92.57.91.58.99.46.76.81.96.54.69.87.9.62.84.7.7.83.68.84.52.97.62.88.68.86.54.94.58.93.36,1.03.3,1.05.43.99.26,1.05.37,1.02.18,1.07.41,1.02.02,1.1.32,1.05.07,1.08-.02,1.09-.05,1.08.1,1.08.04,1.08-.07,1.08v1.09s-.12,1.08-.12,1.08l-.29,1.06-.04,1.09-.36,1.04-.06,1.1-.35,1.04-.44,1-.27,1.05-.21,1.08-.39,1.02-.28,1.06-.57.94-.42,1.01-.44.99-.49.97-.55.94-.46.99-.58.92-.47.98-.57.93-.53.96-.76.81-.56.94-.57.94-.73.81-.72.82-.73.81-.69.84-.72.82-.61.92-.77.78-.76.79-.61.92-.83.72-.76.78-.79.76-.77.78-.82.72-.91.63-.7.85-.74.81-.87.66-.84.69-.88.65-.74.8-.92.6-.85.69-.72.83-.93.59-.75.81-.9.62-.8.7-.74.78-.99.47-.68.85-.87.63-.94.52-.81.69-.79.72-.85.65-.86.64-1.01.41-.93.52-.78.78-.96.48-1,.39-.96.47-1.03.29-.94.54-1.03.3-1.05.23-1.05.22-1.08-.15h-1.03Z"/>
  </g>
  <path class="cls-3" d="M248.11,373.66l-.14.15h-1.07s-1.05-.23-1.05-.23l-1.06-.1-1.01-.33-1.06-.2-.92-.57-.98-.41-.96-.45-.95-.5-.84-.66-.9-.56-.79-.73-.99-.46-.85-.65-.81-.69-.73-.79-.81-.69-.91-.58-.69-.82-.87-.63-.8-.7-.67-.85-.94-.57-.63-.91-.96-.56-.69-.84-.78-.75-.78-.76-.7-.82-.79-.74-.69-.84-.71-.81-.69-.84-.64-.88-.59-.91-.85-.71-.52-.97-.73-.8-.47-.99-.82-.75-1.11-1.86-.66-.88-.35-1.05-.69-.86-.54-.94-.45-.99-.49-.97-.4-1.01-.48-.97-.37-1.02-.38-1.02-.16-1.09-.28-1.05-.46-1-.23-1.06-.05-1.09-.09-1.08-.13-1.07-.19-1.08.18-1.08-.11-1.09.37-1.05-.08-1.12.28-1.05.51-.97.43-.99.34-1.03.49-.97.64-.88.57-.92.57-.93.87-.68.75-.77.66-.89.89-.64.92-.59.84-.69.94-.53.93-.54.92-.54,1.01-.37.87-.68,1.04-.31,1.07-.18,1.01-.4,1.08-.07,1.07-.02,1.06-.3,1.07.08,1.08.02,1.06.17,1.02.4,1.1.02.98.47.96.49.98.41.99.42.96.48.82.71.9.58.94.54.71.82.83.68.86.65.71.81.69.82.79.74.6.9.6.89.63.86.61.8.69-.76.54-.94.76-.78.59-.91.66-.86.81-.72.66-.88.95-.57.67-.88.91-.59.93-.56.78-.78,1.01-.43.96-.48.95-.5.95-.52,1.01-.39.97-.51,1.09-.13,1.07-.16,1.04-.32,1.09.04,1.08.03,1.07.03,1.08.03,1.07.19,1.04.31,1.08.19.98.47.98.44.93.56,1.05.33.94.54.88.65.93.59.78.78.76.8.71.83.8.76.61.91.8.78.45,1.01.56.95.42,1.01.38,1.03.34,1.04.36,1.04.19,1.08.33,1.06-.1,1.11.29,1.08.04,1.1-.06,1.1-.04,1.1-.08,1.09-.04,1.1-.3,1.07-.16,1.08-.24,1.07-.26,1.07-.29,1.06-.41,1-.45.98-.24,1.06-.53.95-.41,1-.59.91-.53.94-.39,1.02-.54.94-.58.91-.78.77-.52.95-.75.79-.67.84-.54.95-.8.73-.73.79-.71.81-.68.84-.75.77-.81.71-.72.81-.66.86-.9.62-.73.8-.89.62-.7.84-.81.71-.87.65-.8.73-.98.49-.68.88-.81.71-.88.66-.85.68-.95.57-.9.63-.71.86-.91.61-.95.56-.93.57-.93.58-.87.68-.97.51-1.05.33-.98.5-1.07.26-1.06.3-1.1.11-1.07-.1Z"/>
  <path class="cls-5" d="M248.08,260.14l-.78-.86-.78-.75-.69-.84-.66-.87-.72-.82-.74-.79-.89-.66-.72-.82-.73-.8-.69-.84-.74-.8-.78-.77-.65-.89-.7-.84-.81-.73-.66-.88-.76-.78-.81-.74-.71-.82-.72-.82-.7-.84-.86-.69-.71-.83-.64-.9-.8-.74-.69-.84-.85-.7-.6-.84h1.03s1.09-.07,1.09-.07l1.09-.05,1.09.1,1.09-.04,1.09.14,1.09-.22h1.16s.53,1,.53,1l.37,1.01.51.93.64.86.35,1.01.59.89.51.93.33,1.03.68.84.28,1.05.72.82.39.99.52.93.52.93.45.96.57.9.46.96.49.93.48.95.44.96.41.99.7.83.34,1.02.59.94Z"/>
  <g class="cls-19">
    <path class="cls-26" d="M236.2,225.38l-.04,1.19.07,1.1-.03,1.1.1,1.1-.04,1.09-.17,1.1.04,1.1.17,1.1-.15,1.1.02,1.1-.03,1.09-1.08.09-1.09-.07-1.09.07-1.09-.06-1.09-.11-1.09-.03-1.09.02-1.19.16.65-.97.62-.86.67-.83.61-.87.58-.89.72-.79.67-.83.54-.92.71-.8.6-.88.55-.92,1.29-1.7.64-.97Z"/>
  </g>
  <g class="cls-17">
    <path class="cls-2" d="M236.2,225.38l-.04,1.19.07,1.1-.03,1.1.1,1.1-.04,1.09-.17,1.1.04,1.1.17,1.1-.15,1.1.02,1.1-.03,1.09-1.08.09-1.09-.07-1.09.07-1.09-.06-1.09-.11-1.09-.03-1.09.02-1.19.16.65-.97.62-.86.67-.83.61-.87.58-.89.72-.79.67-.83.54-.92.71-.8.6-.88.55-.92,1.29-1.7.64-.97Z"/>
  </g>
  <g class="cls-18">
    <path class="cls-8" d="M248.14,225.43l-.92.71-.62.88-.69.81-.89.61-.67.82-.84.67-.56.93-.84.65-.82.68-.66.84-.83.67-.61.89-.83.67-.63.88-.82.69-.77.82-.02-1.16-.1-1.1.03-1.1.18-1.1-.05-1.1-.17-1.1.14-1.1v-1.1s.02-1.09.02-1.09l-.1-1.1.07-1.11,1.09-.07,1.08.07,1.08.11,1.08.03,1.08-.02,1.08-.21,1.08.03h1.08l1.08.06h1.08s1.18-.02,1.18-.02Z"/>
  </g>
  <g class="cls-24">
    <path class="cls-2" d="M248.14,225.43l-.92.71-.62.87-.69.81-.89.61-.67.82-.84.67-.56.93-.84.65-.82.68-.66.84-.83.67-.61.89-.83.67-.62.87-.82.69-.77.82-.02-1.16-.1-1.1.03-1.1.18-1.1-.05-1.1-.17-1.1.14-1.1v-1.1s.02-1.09.02-1.09l-.1-1.1.07-1.11,1.09-.07,1.08.07,1.08.11,1.08.03,1.08-.02,1.08-.21,1.08.03h1.08l1.08.06h1.08s1.18-.02,1.18-.02Z"/>
  </g>
  <g class="cls-21">
    <path class="cls-6" d="M259.49,225.56l.21,1.02-.16,1.1.13,1.1-.15,1.1.13,1.1-.02,1.1v1.1l-.05,1.1.09,1.1-.09,1.1-.04,1.02-.74-.72-.78-.79-.82-.77-.6-.96-.89-.69-.82-.76-.62-.95-.84-.74-.67-.9-.95-.63-.67-.91-.69-.89-.85-.72-.69-.89-.91-.74,1.1.08,1.05-.17,1.05.1,1.05-.07,1.05.03,1.05-.1,1.05.04,1.05.18,1.05-.05,1.05-.17.96.22Z"/>
  </g>
  <g class="cls-20">
    <path class="cls-8" d="M268.55,237.61l-1.18-.17-1.11.2-1.11-.03-1.11.1-1.11-.19-1.11.09-1.12.02h-1.18s.17-1.15.17-1.15l-.14-1.1.12-1.1.04-1.1-.25-1.1.16-1.1-.13-1.1.15-1.1-.13-1.1.03-1.1.03-1.15.66.91.71.81.57.92.56.92.71.81.66.85.69.82.46,1,.77.76.7.82.47.99.71.81.53.94.8.83Z"/>
  </g>
  <g class="cls-23">
    <path class="cls-2" d="M268.55,237.61l-1.18-.17-1.11.2-1.11-.03-1.11.1-1.11-.19-1.11.09-1.12.02h-1.18s.17-1.15.17-1.15l-.14-1.1.12-1.1.04-1.1-.25-1.1.16-1.1-.13-1.1.15-1.1-.13-1.1.03-1.1.03-1.15.66.91.71.81.57.92.56.92.71.81.66.85.69.82.46,1,.77.76.7.82.47.99.71.81.53.94.8.83Z"/>
  </g>
  <path class="cls-6" d="M268.43,237.6l-.59.85-.73.8-.79.75-.76.78-.79.74-.62.9-.68.84-.76.77-.74.79-.67.86-.9.65-.76.78-.64.89-.7.83-.65.87-.87.68-.6.92-.87.68-.6.92-.9.65-.59.94-.88.67-.58.94-.76.78-.66.87-.87.68-.67.87-.79.83.45-1.06.67-.89.37-1.04.6-.92.54-.96.28-1.09.64-.9.39-1.04.64-.91.39-1.04.52-.96.5-.98.54-.95.42-1.02.58-.94.58-.94.42-1.02.48-.99.45-1.01.7-.88.35-1.05.44-1.02.66-.85,1.07-.08,1.11.13,1.11-.26,1.11.15,1.11.11,1.11-.12,1.11.12,1.05-.1Z"/>
  <path class="cls-5" d="M259.68,237.52l-.74.97-.27,1.09-.72.86-.27,1.1-.56.95-.64.9-.39,1.04-.4,1.03-.72.87-.33,1.07-.59.93-.6.93-.37,1.05-.59.93-.52.97-.42,1.02-.44,1.01-.59.93-.53.96-.34,1.06-.51.97-.58.95-.52.96.1-1.05-.15-1.07-.06-1.08.05-1.07v-1.07s-.08-1.07-.08-1.07l.23-1.07.04-1.07-.12-1.07-.04-1.07-.11-1.07.19-1.07-.17-1.07.19-1.07-.18-1.06.23-1.07-.19-1.07.2-1.07-.2-1.07.03-1.08-.06-1.17,1.14.15,1.05-.09,1.05-.02,1.05-.03,1.05.19,1.04-.14,1.05.12,1.05.04,1.05-.24,1.05.16,1.16-.1Z"/>
  <path class="cls-6" d="M247.95,237.67l.15.97.07,1.07-.07,1.07.03,1.07v1.07s.02,1.07.02,1.07l-.02,1.07-.17,1.07-.05,1.07.1,1.07-.1,1.07.16,1.07.06,1.07.02,1.07-.17,1.07.15,1.07-.04,1.07.06,1.07.03,1.07-.28,1.08.18,1.18-.4-1.1-.73-.81-.44-.96-.35-1.01-.6-.88-.59-.89-.28-1.05-.66-.84-.41-.98-.4-.99-.62-.87-.4-.99-.48-.94-.58-.89-.56-.91-.4-.98-.47-.95-.65-.85-.48-.94-.42-.97-.46-.95-.42-.97-.62-.87-.55-1.02h2.25s1.08-.08,1.08-.08l1.08.23,1.08.04,1.08-.12,1.08-.04,1.08-.11,1.08.19,1.09-.17.98.19Z"/>
  <g class="cls-22">
    <path class="cls-8" d="M247.99,225.6l.05.97.1,1.1-.05,1.1.04,1.1-.2,1.09.13,1.1.13,1.1-.29,1.1.18,1.1v1.1s-.09,1.05-.09,1.05l-1.03-.06-1.08.1-1.08-.13-1.08.19-1.08.07-1.08-.07-1.08.03h-1.08s-1.08.02-1.08.02l-1.08-.02-1.01-.12.77-.63.67-.83.81-.69.63-.86.7-.79.73-.77.86-.64.64-.85.77-.73.7-.8.72-.78.94-.57.56-.93.92-.58.56-.95.78-.54Z"/>
  </g>
  <g class="cls-11">
    <path class="cls-2" d="M247.99,225.6l.05.97.1,1.1-.05,1.1.04,1.1-.2,1.09.13,1.1.12,1.1-.29,1.1.18,1.1v1.1s-.09,1.05-.09,1.05l-1.03-.06-1.08.1-1.08-.13-1.08.19-1.08.07-1.08-.07-1.08.03h-1.08s-1.08.02-1.08.02l-1.08-.02-1.01-.12.77-.62.67-.83.81-.69.63-.86.7-.79.73-.77.86-.64.64-.85.77-.73.7-.8.72-.78.94-.57.56-.93.92-.58.56-.95.78-.54Z"/>
  </g>
  <g class="cls-9">
    <path class="cls-26" d="M259.62,237.59l-1.09-.09-1.05-.05-1.05.05-1.05-.05-1.05.07-1.04.04-1.05-.11-1.05.25h-1.05s-1.05-.08-1.05-.08l-1.02-.07-.04-1.07.08-1.1.07-1.1-.14-1.1-.1-1.1.05-1.1-.04-1.1.2-1.1-.13-1.1-.13-1.1.2-.97.74.65.77.81.69.88.73.83.84.73.68.9.91.67.82.76.72.85.79.79.77.81.79.79.76.82.65.93.88.77Z"/>
  </g>
  <g class="cls-15">
    <path class="cls-2" d="M259.62,237.59l-1.09-.09-1.05-.05-1.05.05-1.05-.05-1.05.07-1.04.04-1.05-.11-1.05.25h-1.05s-1.05-.08-1.05-.08l-1.02-.07-.04-1.07.08-1.1.07-1.1-.14-1.1-.1-1.1.05-1.1-.04-1.1.2-1.1-.13-1.1-.12-1.1.2-.97.74.65.77.81.69.88.73.83.84.73.68.9.91.67.82.76.72.85.79.79.77.81.79.79.76.82.65.93.88.77Z"/>
  </g>
  <path class="cls-6" d="M263.33,261.72l-1.08-.17-1.07.07-1.08.12-1.07.02-1.08-.2-1.07.24-1.08-.08-1.07.02-1.07-.13-1.07.13-1.07-.21-1.08.26-1.07-.08-1.07.04-1.08-.17-1.07.21-1.08-.2-1.07.05-1.08-.11-1.07.16-1.08-.03-1.07.11-1.08.02-1.07-.08-1.08-.08-1.07-.08-1.08.16-1.08-.16-1.08.11-1.09-.08-1.02-.42-.87-.68-.56-.94-.36-1-.19-1.05.06-1.1-.07-1.1-.04-1.1.11-1.1-.25-1.1.15-1.11.49-1,.73-.81.83-.7,1.02-.34,1.07-.07,1.07-.14,1.07-.1,1.08.05,1.07-.04,1.08.2,1.07-.13,1.08-.13,1.07.3,1.07-.18h1.07s1.07.1,1.07.1l1.08.04,1.07-.1,1.08.13,1.07-.19,1.08-.07,1.07.07,1.08-.03h1.07s1.08-.02,1.08-.02l1.07.02,1.08.17,1.07.05,1.08-.1,1.07.1,1.08-.16,1.07-.06,1.08-.02,1.08.17h1.1s1.01.45,1.01.45l.92.62.7.87.17,1.11.39,1.04-.25,1.1.26,1.11-.06,1.1-.16,1.1.12,1.1-.03,1.12-.65.92-.51.98-.93.6-1.04.31-1.05.3Z"/>
  <path class="cls-6" d="M286.62,335.89l-.18,1.05-.31,1.02-.39,1.01-.31,1.03-.27,1.06-.51.96-.49.96-.56.92-.52.94-.39,1.02-.59.9-.67.85-1.09,1.86-.66.86-.75.78-.57.93-.79.75-.78.74-.58.93-.91.62-1.33,1.71-.88.65-.82.7-.61.93-.96.55-.63.91-.99.51-.79.73-.78.74-.85.67-.73.8-.94.55-.83.69-.81.73-.75.81-.91.61-.79.77-.91.62-.98.52-.9.62-.9.63-.93.57-.94.57-.99.44-.96.51-.95.57-1.09.2-1.06.33-1.1.08-1.1-.1-.15-.02-1.06.21-1.04-.38-1.06-.06-1.07-.15-.94-.54-1-.37-.94-.51-.99-.42-.99-.43-.87-.63-.84-.67-.9-.58-.8-.71-.8-.71-.82-.67-.98-.49-.74-.78-.82-.67-.84-.66-.76-.74-.82-.67-.77-.74-.73-.83-.8-.75-.8-.76-.83-.72-.85-.7-.65-.9-.87-.69-.68-.87-.67-.88-.66-.88-.72-.83-.79-.78-.66-.89-.8-.77-.57-.95-.69-.85-.46-1.02-.8-.79-.45-1.02-.62-.91-.5-.98-.77-.82-.34-1.02.78-.7.98-.51.91-.6.98-.49.83-.74,1.06-.33.98-.48.95-.56.99-.47,1.09-.21,1-.46,1.1-.14,1.01-.47,1.1-.11,1.05-.34,1.08-.19,1.1-.09,1.1-.04,1.1.05,1.09-.1,1.09.21,1.09.03,1.11-.1,1.06.35,1.1.05,1.02.46,1.09.16,1.03.38,1.06.29.98.49,1.09.23.97.54,1.11.13,1.02.39.96.57,1.04.33,1.08.19,1.08.2,1.01.45,1.11.07,1.04.35,1.09.14,1.03.43,1.08.15,1.07.24,1.09.13,1.09.03,1.1-.11,1.09.21,1.09.07,1.09-.21,1.09-.03,1.08-.17,1.1.02,1.08-.18,1.08-.18,1.02-.46,1.1-.08,1.06-.29,1.02-.41,1-.45,1.02-.39,1.04-.33.96-.54,1.07-.28.9-.66,1.01-.42.9-.63,1.04-.39.89-.66.98-.49.83-.55-.29.9Z"/>
  <path class="cls-5" d="M266.9,363.07l-.82.82-.99.62-.8.86-.9.62-.9.63-.91.63-.84.69-.8.76-.9.62-.8.77-.97.52-.9.63-1.05.36-.87.69-1.07.3-1.01.43-1.06.24-1.02.48-1.11-.08-1.09.13-.15-.14-1.06.05-1.05-.16-1.09.05-.98-.46-1.01-.33-1.03-.3-.99-.41-.85-.66-.98-.44-.8-.73-.99-.43-.8-.72-.94-.53-.85-.64-.8-.7-.79-.72-.76-.76-.86-.62-.68-.84-.83-.68-.94-.55-.66-.86-.91-.61-.64-.91-.87-.66-.73-.81-.81-.73-.67-.87-.88-.67-.61-.92-.92-.64-.69-.85-.53-.98-.7-.84-.79-.77-.76-.8-.52-.97-.81-.76-.55-.95-.7-.85-.41-1.04-.62-.9-.48-.98-.55-.94-.6-.92-.68-.88-.33-1.05-.41-1.02-.61-.92-.39-1.02-.46-.99-.21-1.08-.33-1.04-.26-1.06-.47-1.01,1.04-.58.93-.5.92-.52.95-.47,1.02-.32,1.05-.17,1.03-.28,1.07.1,1.05-.21,1.06.15,1.07.02,1,.39,1.05.17.97.44.95.45.93.49.92.52.98.43.76.76.96.51.65.88.73.77.92.59.64.85.75.76.55.92.65.83.73.79.57.91.55.93.54.93.83.73.45.99.66.85.7.81.62.88.49.96.6.89.65.85.73.79.79.73.51.97.86.66.61.9.87.63.77.74.8.71.92.55.94.5.84.69,1.01.39.95.51,1.08.16.98.44,1.06.21,1,.43h1.1s1.04.23,1.04.23l1.05.18,1.06.18,1.02.43,1.09-.02,1.05.21,1.08.08,1.05.22,1.04.31,1.08-.02.94.24-.76.73Z"/>
  <path class="cls-5" d="M285.93,339.02l-.59.92-.39.99-.3,1.04-.36,1.01-.62.89-.33,1.04-.62.87-.47.97-.78.77-.56.91-.69.81-.64.85-.59.89-.53.95-.82.71-.76.76-.67.91.67-.93.53-.94.67-.86.48-.97.46-.98.18-1.09.52-.96.31-1.04.17-1.07.1-1.08.14-1.07.18-1.07-.06-1.08.19-1.08-.24-1.07-.02-1.08-.28-1.05-.04-1.09-.39-1.02-.24-1.06-.35-1.02-.43-1-.52-.96-.73-.82-.49-.97-.86-.69-.59-.92-.8-.75-1.04-.41-.88-.63-1.01-.38-.97-.48-1.08-.26-1.1-.05-1.09-.13h-1.1s-1.1.16-1.1.16l-.89.69-1,.48-.75.81-.61.92-.65.89-.77.8-.72.83-.77.77-.86.68-1.01.49-1.12-.16-1.12.06-.99-.43-1.06-.21-.94-.52-.85-.65-.83-.67-.73-.8-.36-1.03-.48-.95-.18-1.05-.4-1.01.02-1.07-.1-1.07.21-1.06-.17-1.08.16-1.08.63-.91.66-.85.88-.66.57-.93.78-.74.71-.81.83-.68.92-.58.73-.8.97-.49.83-.68.89-.61,1.02-.37.84-.71.99-.42,1.02-.36,1.07-.18.99-.43,1.08-.08,1.05-.23,1.08-.08,1.08-.05,1.06.27,1.07.08,1.08.06,1.02.36,1.01.36,1.04.28,1.01.39.94.52.95.51.86.65.9.57.93.59.92.62.79.77.67.88.86.71.68.86.49.99.62.91.48.99.44,1.01.43,1.01.44,1.02.08,1.11.36,1.04v1.11s.25,1.07.25,1.07l.23,1.08-.18,1.1-.02,1.09v1.09s.06,1.11.06,1.11l-.23,1.07v1.11s-.24,1.07-.24,1.07l-.44,1.02-.05,1.12-.26,1.07-.39,1Z"/>
  <path class="cls-6" d="M221.98,325.29l.17,1.09-.13,1.06.11,1.06-.04,1.08.18,1.06.35,1.02.22,1.05.24,1.04.27,1.04.65.89.26,1.06.52.94.59.9.51.94.4,1.01.51.94.57.91.65.85.7.82.37,1.03.74.8.41,1,.69.83.48.95.44.97.52.94.47.97.13,1.08.29,1.03-.02,1.06.15,1.07-.36,1.02-.33,1.02-.69.83-.46,1-.76.77-.8.73-.85.65-.96.38-.87-.56-.77-.76-.84-.69-.73-.81-.65-.88-.87-.66-.61-.92-.8-.73-.76-.78-.59-.93-.89-.67-.68-.84-.66-.86-.55-.95-.79-.76-.54-.95-.7-.83-.62-.89-.63-.89-.41-1.03-.6-.9-.67-.86-.44-1-.47-.97-.58-.93-.51-.96-.4-1.01-.43-1-.29-1.05-.38-1.02-.39-1.01-.39-1.02-.21-1.07-.09-1.09-.37-1.04-.15-1.08.06-1.09-.1-1.08.05-1.08.09-1.08.1-1.08.09-1.09.47-1,.2-1.07.56-.94.35-1.02.39-1.02.76-.8,1.27-1.74.6-.91.84-.69.68-.87.86-.66.97-.51.75-.81.9-.65.98-.52,1.05-.36.98-.5,1.03-.37,1.04-.35.98-.53,1.08-.23,1.09-.17h1.1s1.09-.09,1.09-.09l1.11-.1,1.07.32,1.1.04,1.09.16,1.01.45,1.09.22.96.56,1.02.41.98.49.85.71,1.03.44.87.66.9.65.82.74.7.86.93.61.63.92v.05l-.99-.42-.98-.46-1.09-.17-1.02-.38-1.07-.18-1.01-.49-1.09-.11-1.09-.1-1.09.1-1.08-.08-1.09-.06-1.05.35-1.05.23-1.1.11-.98.48-.93.59-.81.72-.87.66-.76.79-.49.98-.72.83-.51.96-.35,1.04-.23,1.07-.32,1.04-.15,1.08-.37,1.04Z"/>
  <g class="cls-13">
    <path class="cls-8" d="M273.2,386.24l1.06.14,1.01.36.96.48.73.8.78.71.75.77.42.99.33,1.01.32,1.02.12,1.07-.13,1.07-.21,1.05-.47.96-.49.93-.58.89-.7.82-.89.61-1,.39-.94.55-1.05.24-1.08-.08h-1.07s-1.04-.27-1.04-.27l-.99-.39-.95-.49-.92-.57-.6-.91-.7-.76-.75.72-.67.82-.77.76-1.05.32-.98.35-1.02.26-1.05.23-1.13-.2-1.15-.09-1.05-.48-.88-.76-1.02-.55-.69-.77-.7.77-.99.59-.96.6-1.06.37-1.09.23-1.11.31-1.11-.1-1.08-.26-.99-.5-.97-.51-.95-.58-.69-1-.74.94-.82.75-1.04.41-.97.54-1.11.09-1.09.15-1.1-.05-1.03-.41-1.1-.19-.95-.56-.91-.64-.68-.8-.81.65-.73.85-1.05.4-.99.48-1.08.23-1.1-.02-1.08.1-1.04-.31-1.05-.3-.8-.76-.88-.58-.76-.73-.78-.76-.44-.97-.25-1.04-.43-.99-.07-1.07.3-1.05.18-1.04.31-1.02.42-.99.71-.8.78-.72.76-.79,1.03-.34,1-.33,1.02-.28,1.06-.18,1.1.14,1.09.17,1.02.43.91.61.92.61.72.94.68-.99.97-.55.9-.64,1.03-.42,1.11-.04,1.08-.31,1.1.2,1.08.23.97.53.99.46.8.75.85.68.81-.72.8-.77.92-.64,1.07-.35,1.08-.3,1.12.18,1.16-.18,1.1.34,1.07.41.98.59.76.88.85.7.79-.77.91-.67.85-.8,1.08-.44,1.14-.18,1.15.09,1.08-.16,1.03.33.97.45.99.4.76.77.79.71.67.95.58-1.03.83-.68.85-.64.95-.48.99-.35,1.04-.19,1.05-.08,1.05-.03Z"/>
  </g>
  <g class="cls-14">
    <path class="cls-2" d="M273.2,386.24l1.06.14,1.01.36.96.48.73.8.78.71.75.77.42.99.33,1.01.32,1.02.12,1.07-.13,1.07-.21,1.05-.47.96-.49.93-.58.89-.7.82-.89.61-1,.39-.94.55-1.05.24-1.08-.08h-1.07s-1.04-.27-1.04-.27l-.99-.39-.95-.49-.92-.57-.6-.91-.7-.76-.75.72-.67.82-.77.76-1.05.32-.98.35-1.02.26-1.05.23-1.12-.2-1.15-.09-1.05-.48-.88-.76-1.02-.55-.69-.77-.7.77-.99.59-.96.6-1.06.37-1.09.23-1.11.31-1.11-.1-1.08-.26-.99-.5-.97-.51-.95-.58-.69-1-.74.94-.82.75-1.04.41-.97.54-1.11.09-1.09.15-1.1-.05-1.03-.41-1.1-.19-.95-.56-.91-.64-.68-.8-.81.65-.73.85-1.05.4-.99.48-1.08.23-1.1-.02-1.08.1-1.04-.31-1.05-.3-.8-.76-.88-.58-.76-.73-.78-.76-.44-.97-.25-1.04-.43-.99-.07-1.07.3-1.05.18-1.04.31-1.02.42-.99.71-.8.78-.72.76-.79,1.03-.34,1-.33,1.02-.28,1.06-.18,1.1.14,1.09.17,1.02.43.91.61.92.61.72.94.68-.99.97-.55.9-.64,1.03-.42,1.11-.04,1.08-.31,1.1.2,1.08.23.97.53.99.46.8.75.85.68.81-.72.8-.77.92-.64,1.07-.35,1.08-.3,1.12.18,1.16-.18,1.1.34,1.07.41.98.59.76.88.85.7.79-.77.91-.67.85-.8,1.08-.44,1.14-.18,1.15.09,1.08-.16,1.03.33.97.45.99.4.76.77.79.71.67.95.58-1.03.83-.68.85-.64.95-.48.99-.35,1.04-.19,1.05-.08,1.05-.03Z"/>
  </g>
  <path class="cls-3" d="M236.6,268.48l1.04-.04h1.07s1.07-.01,1.07-.01l1.07-.03,1.07.14,1.07-.05,1.07-.13,1.07-.05,1.07.28,1.07-.25,1.07.02,1.07.23,1.07-.28,1.07.22,1.07.05,1.07-.22,1.07.18,1.07-.09,1.08.06,1.07-.17,1.12.06.16,1.09.02,1.05.12,1.05-.08,1.06.07,1.05.14,1.04-.05,1.06.23,1.04.07,1.05.03,1.05.05,1.05.03,1.06.06,1.05-.04,1.06.27,1.04v1.06s.11,1.04.11,1.04l-.09,1.06.18,1.1-1.14-.06-1.08-.1-1.08.23-1.08-.18-1.08-.08h-1.08s-1.08.25-1.08.25l-1.09-.06-1.08-.09-1.09.18-1.08-.19h-1.09s-1.09.02-1.09.02l-1.08-.08-1.09.27-1.09-.26-1.08.06-1.09-.07-1.09.1-1.09.11-1.09-.1-1.09.16-1.12-.1-.04-1.14.22-1.1.06-1.11.18-1.1-.16-1.12.27-1.09.05-1.11-.05-1.11.23-1.09-.16-1.12.23-1.1-.02-1.11.15-1.1.1-1.1v-1.11l.11-1.1-.04-1.12.14-1.08Z"/>
  <path class="cls-4" d="M251.58,275.93l-.22,1.11-.36,1.1-.98.63-.94.61-1.12.29-2.18-.73-.72-.89-.56-.99-.17-1.12.16-1.13.5-1.04.89-.7.97-.55,1.11-.3,1.17.13.89.76.98.63.52,1.05.07,1.16Z"/>
  <path class="cls-7" d="M248.17,284.98l-.18-1.08.05-1.09.03-1.08.04-1.08-.15-1.08"/>
  <path class="cls-7" d="M245.87,282.29l1.09.04,1.09-.15,1.09.04,1.09.06"/>
  <path class="cls-5" d="M262.25,261.81h-1.08l-1.07-.08-1.08-.18-1.07.23-1.08-.1-1.07-.08-1.08.13-1.07-.16-1.08.06-1.07-.08-1.08.2-1.07-.11h-1.08l-1.07-.04-1.08-.02-1.07-.04h-1.07s-1.08.16-1.08.16l-1.07-.11-1.07.07h-1.08s-1.07-.15-1.07-.15l-1.08.05-1.07-.05-1.08.07-1.07-.04-1.08.17-1.07-.06-1.1-.05-.94-.58-1.01-.49-.64-.92-.21-1.08-.41-1.04.23-1.03.02-1.03-.26-1.03.27-.97.71.56.9.54.69.7.79-.67.84-.69.94-.56,1.02-.39,1.06-.29,1.1.04,1.11-.09,1.03.43,1.06.3,1.03.45.71.88.84.66.76-.75.88-.66.97-.51.98-.54,1.09-.21,1.11-.02,1.13.11,1.12.21,1.08.38.92.68.99.59.67,1.01.67-1,.92-.7,1.04-.51,1.07-.37,1.07-.42,1.15-.05,1.05.24,1.06.1,1.05.28.95.52.79.75.83.69.55.8.81-.81.84-.89.04,1.08.06,1.09.04,1.08-.32,1.07-.29,1.06-.7.85-.84.73-1.07.32-1.08.21-1.07.07Z"/>
  <path class="cls-5" d="M289.36,285.76l.23.97.22,1.1.25,1.11.4,1.06.64.94.66.92.66.91.77.84,1.04.47.92.68.97.29-.91.4-.88.69-.76.81-.55.96-.66.87-.61.92-.39,1.04-.51.98-.28,1.07-.42,1.03-.19,1.09-.27,1.07-.04,1.1-.32,1.07v1.02s.02-.99.02-.99l-.11-1.06-.17-1.06.04-1.08-.21-1.05-.32-1.03-.15-1.07-.32-1.03-.48-.96-.56-.91-.39-1.01-.6-.9-.85-.67-.8-.69-.91-.59-.93-.22.94-.35,1.1-.28.83-.78.89-.68.67-.91.56-.96.53-.98.48-1.02.39-1.05.13-1.12.24-.96Z"/>
  <path class="cls-5" d="M217.28,270.77l.32,1.04.15,1.11.53.98.41,1.05.71.86.83.75.97.54.94.43-.9.43-.78.77-.7.82-.4,1.02-.7.86-.43,1-.16,1.08-.31,1.03-.31,1.04-.2,1.07.02,1.09-.1-1.11-.04-1.12-.08-1.12-.42-1.06-.1-1.13-.32-1.08-.47-1.03-.62-.95-.79-.81-1.02-.5-1.05-.47,1.12-.26.92-.62.89-.67.61-.93.63-.92.35-1.06.35-1.06.12-1.07Z"/>
  <path class="cls-5" d="M263.67,334.98l.23.91.32.99.48.92.54.88.58.86.78.68.76.74,1.01.33.98.32-.91.6-1.03.47-.79.81-.66.91-.53.99-.33,1.07-.54.98-.2,1.1-.41,1.05-.16,1.1-.11,1.1-.09-1.05.03-1.07-.16-1.05-.3-1.03-.27-1.03-.56-.92-.23-1.06-.54-.93-.83-.7-.79-.71-.9-.59-.92-.2.88-.23.92-.45.9-.52.81-.66.46-.95.69-.8.46-.94.32-1,.09-.94Z"/>
  <g class="cls-12">
    <path class="cls-8" d="M202.49,359.66l.19,1.12.18,1.1.58.96.56.95.35,1.08.69.89.9.68.83.74,1.02.44,1.02.4,1.09.38-1.07.37-.92.54-.68.84-.83.66-.56.9-.65.84-.59.89-.33,1.02-.39.98-.28,1.02-.27,1.02-.32,1.01-.16,1.04-.34,1.02-.04,1.08v-1.13s-.25-1.07-.25-1.07l.08-1.12-.2-1.08-.26-1.07-.34-1.05-.49-.99-.27-1.07-.61-.92-.47-1.01-.73-.83-.82-.74-.93-.57-.94-.59-.99-.17.97-.2,1.04-.36.86-.7,1.02-.47.81-.77.53-.98.6-.91.57-.95.43-1.02.18-1.1.22-1.1Z"/>
  </g>
  <g class="cls-10">
    <path class="cls-2" d="M202.49,359.66l.19,1.12.18,1.1.58.96.56.95.35,1.08.69.89.9.68.83.74,1.02.44,1.02.4,1.09.38-1.07.37-.92.54-.68.84-.83.66-.56.9-.65.84-.59.89-.33,1.02-.39.98-.28,1.02-.27,1.02-.32,1.01-.16,1.04-.34,1.02-.04,1.08v-1.12s-.25-1.07-.25-1.07l.08-1.12-.2-1.08-.26-1.07-.34-1.05-.49-.99-.27-1.07-.61-.92-.47-1.01-.73-.83-.82-.74-.93-.57-.94-.59-.99-.17.97-.2,1.04-.36.86-.7,1.02-.47.81-.77.53-.98.6-.91.57-.95.43-1.02.18-1.1.22-1.1Z"/>
  </g>
  <path class="cls-5" d="M239.53,326.68l-.16,1.04-.46.95-.68.85-1.06.27-1.02.27-1.08-.07-.94-.54-.74-.78-.45-.96-.03-1.04-.03-1.07.42-1,.93-.56.91-.46,1.01-.32,1.03.24,1.02.36.78.76.45.98.1,1.07Z"/>
  <path class="cls-6" d="M248.48,365.21l-.27,1.15-.76.87-.92.63-1.1.45-1.1-.44-.92-.64-.68-.9-.25-1.12.22-1.13.63-.97.92-.76h1.18s1.14.12,1.14.12l1.04.57.62,1.02.26,1.15Z"/>
</svg>