<svg xmlns="http://www.w3.org/2000/svg" xmlns:xlink="http://www.w3.org/1999/xlink" width="995" zoomAndPan="magnify" viewBox="0 0 746.25 355.499994" height="474" preserveAspectRatio="xMidYMid meet" version="1.0"><defs><clipPath id="105e8760a7"><path d="M 493 349 L 498 349 L 498 354.296875 L 493 354.296875 Z M 493 349 " clip-rule="nonzero"/></clipPath><clipPath id="e73287a7c8"><path d="M 733 105 L 745.339844 105 L 745.339844 115 L 733 115 Z M 733 105 " clip-rule="nonzero"/></clipPath><clipPath id="a511bae244"><path d="M 0.148438 77 L 7 77 L 7 83 L 0.148438 83 Z M 0.148438 77 " clip-rule="nonzero"/></clipPath><clipPath id="3878e7e1dc"><path d="M 554 0.046875 L 570 0.046875 L 570 12 L 554 12 Z M 554 0.046875 " clip-rule="nonzero"/></clipPath><clipPath id="8d7da68d60"><path d="M 493 349 L 498 349 L 498 354.296875 L 493 354.296875 Z M 493 349 " clip-rule="nonzero"/></clipPath><clipPath id="f0d3ec3ed2"><path d="M 733 105 L 745.339844 105 L 745.339844 115 L 733 115 Z M 733 105 " clip-rule="nonzero"/></clipPath><clipPath id="8e6705d3d8"><path d="M 0.148438 77 L 7 77 L 7 83 L 0.148438 83 Z M 0.148438 77 " clip-rule="nonzero"/></clipPath><clipPath id="913a5826c0"><path d="M 554 0.046875 L 570 0.046875 L 570 12 L 554 12 Z M 554 0.046875 " clip-rule="nonzero"/></clipPath></defs><g clip-path="url(#105e8760a7)"><path fill="#f4cf88" d="M 494.765625 353.972656 C 494.148438 353.738281 493.585938 352.324219 493.734375 351.46875 C 493.910156 350.464844 494.414062 350.050781 495.535156 349.902344 C 496.210938 349.816406 496.535156 349.960938 497.039062 350.640625 C 497.894531 351.820312 497.835938 352.824219 496.890625 353.5625 C 496.125 354.179688 495.535156 354.296875 494.765625 353.972656 Z M 494.765625 353.972656 " fill-opacity="1" fill-rule="nonzero"/></g><path fill="#f4cf88" d="M 126.429688 352.824219 C 124.804688 352.144531 123.773438 350.523438 123.332031 347.988281 C 123.15625 347.101562 124.039062 345.242188 125.101562 344.300781 C 127.84375 341.761719 132.355469 342.382812 133.683594 345.507812 C 134.421875 347.160156 134.421875 348.515625 133.773438 349.960938 C 133.152344 351.261719 132.355469 352.027344 131.324219 352.292969 C 130.910156 352.410156 130.46875 352.585938 130.292969 352.707031 C 129.730469 353.117188 127.34375 353.207031 126.429688 352.824219 Z M 126.429688 352.824219 " fill-opacity="1" fill-rule="nonzero"/><path fill="#f4cf88" d="M 143.183594 334.949219 C 142.769531 334.535156 142.710938 333.238281 143.125 333.238281 C 143.359375 333.238281 144.304688 334.742188 144.304688 335.15625 C 144.304688 335.449219 143.535156 335.304688 143.183594 334.949219 Z M 143.183594 334.949219 " fill-opacity="1" fill-rule="nonzero"/><path fill="#f4cf88" d="M 530.871094 318.609375 C 530.25 318.019531 530.28125 317.519531 530.929688 316.929688 C 531.664062 316.25 532.078125 316.308594 532.609375 317.132812 C 533.523438 318.519531 532.019531 319.757812 530.871094 318.609375 Z M 530.871094 318.609375 " fill-opacity="1" fill-rule="nonzero"/><path fill="#f4cf88" d="M 528.449219 302.210938 C 528.746094 300.734375 529.808594 299.910156 530.191406 300.882812 C 530.457031 301.621094 529.601562 303.152344 528.894531 303.152344 C 528.332031 303.152344 528.273438 303.035156 528.449219 302.210938 Z M 528.449219 302.210938 " fill-opacity="1" fill-rule="nonzero"/><path fill="#f4cf88" d="M 438.195312 298.671875 L 436.867188 297.429688 L 436.957031 295.542969 C 437.015625 294.011719 437.164062 293.539062 437.753906 292.949219 C 438.136719 292.566406 438.578125 292.242188 438.726562 292.242188 C 438.902344 292.242188 439.492188 292.035156 440.054688 291.769531 C 440.96875 291.324219 441.175781 291.296875 442.03125 291.710938 C 443.328125 292.359375 444.859375 293.683594 445.15625 294.453125 C 445.804688 296.132812 443.800781 299.347656 441.910156 299.730469 C 440.082031 300.085938 439.550781 299.9375 438.195312 298.671875 Z M 438.195312 298.671875 " fill-opacity="1" fill-rule="nonzero"/><path fill="#f4cf88" d="M 226.125 291 C 223.617188 290.351562 221.726562 286.902344 222.847656 284.984375 C 223.027344 284.628906 223.5 283.835938 223.851562 283.183594 C 224.707031 281.621094 226.300781 281.148438 228.335938 281.828125 C 231.050781 282.714844 232.492188 284.335938 232.492188 286.519531 C 232.492188 287.757812 231.285156 290.085938 230.429688 290.46875 C 229.277344 291 227.125 291.265625 226.125 291 Z M 226.125 291 " fill-opacity="1" fill-rule="nonzero"/><path fill="#f4cf88" d="M 423.242188 290.234375 C 422.5625 289.527344 422.472656 289.261719 422.710938 288.671875 C 423.328125 287.226562 423.832031 286.84375 424.832031 287.050781 C 425.363281 287.136719 425.953125 287.375 426.191406 287.550781 C 426.78125 288.050781 426.664062 289.792969 425.984375 290.46875 C 425.15625 291.296875 424.15625 291.207031 423.242188 290.234375 Z M 423.242188 290.234375 " fill-opacity="1" fill-rule="nonzero"/><path fill="#f4cf88" d="M 102.714844 285.839844 C 101.886719 285.605469 100.058594 282.917969 100.058594 281.917969 C 100.058594 279.765625 102.09375 277.667969 104.484375 277.34375 C 105.898438 277.136719 106.105469 277.199219 107.464844 278.113281 C 109.5 279.527344 110.03125 281.355469 108.996094 283.539062 C 108.082031 285.457031 105.074219 286.546875 102.714844 285.839844 Z M 102.714844 285.839844 " fill-opacity="1" fill-rule="nonzero"/><path fill="#f4cf88" d="M 364.75 268.96875 C 363.246094 268.289062 362.714844 267.082031 363.160156 265.371094 C 363.484375 264.191406 364.988281 262.746094 365.929688 262.746094 C 366.84375 262.746094 368.617188 263.867188 369.144531 264.75 C 369.796875 265.902344 369.796875 266.785156 369.058594 267.996094 C 368.085938 269.558594 366.757812 269.882812 364.75 268.96875 Z M 364.75 268.96875 " fill-opacity="1" fill-rule="nonzero"/><path fill="#f4cf88" d="M 449.34375 266.34375 C 447.75 266.105469 447.484375 263.277344 448.992188 262.539062 C 449.992188 262.066406 451.289062 262.390625 451.851562 263.214844 C 452.265625 263.835938 452.265625 264.070312 451.910156 265.015625 C 451.46875 266.136719 450.671875 266.550781 449.34375 266.34375 Z M 449.34375 266.34375 " fill-opacity="1" fill-rule="nonzero"/><path fill="#f4cf88" d="M 38.855469 255.605469 C 37.5 254.871094 36.941406 254.101562 36.941406 252.921875 C 36.941406 251.65625 37.824219 249.945312 38.710938 249.472656 C 39.625 249 41.363281 249.148438 42.394531 249.765625 C 43.132812 250.238281 43.429688 250.652344 43.578125 251.507812 C 43.8125 252.894531 43.191406 254.546875 42.191406 255.164062 C 41.277344 255.753906 39.535156 255.960938 38.855469 255.605469 Z M 38.855469 255.605469 " fill-opacity="1" fill-rule="nonzero"/><path fill="#f4cf88" d="M 432.914062 253.101562 C 432.589844 253.039062 432.03125 252.921875 431.675781 252.835938 C 430.820312 252.65625 430.113281 251.300781 430.113281 249.796875 C 430.113281 248.851562 430.289062 248.5 431.027344 247.878906 C 431.527344 247.464844 432.03125 247.113281 432.117188 247.082031 C 434.332031 246.757812 435.070312 247.023438 436.128906 248.675781 C 436.925781 249.855469 436.1875 252.539062 434.980469 252.835938 C 434.597656 252.921875 434.125 253.070312 433.886719 253.128906 C 433.683594 253.1875 433.238281 253.1875 432.914062 253.101562 Z M 432.914062 253.101562 " fill-opacity="1" fill-rule="nonzero"/><path fill="#f4cf88" d="M 395.132812 237.734375 C 394.511719 237.289062 393.832031 236.050781 393.832031 235.285156 C 393.832031 234.3125 395.132812 232.953125 396.074219 232.953125 C 398.523438 232.953125 399.734375 235.550781 398.023438 237.171875 C 397.195312 237.9375 395.839844 238.234375 395.132812 237.734375 Z M 395.132812 237.734375 " fill-opacity="1" fill-rule="nonzero"/><path fill="#f4cf88" d="M 296.117188 224.667969 C 295.851562 224.519531 295.347656 223.839844 294.996094 223.191406 C 294.140625 221.453125 294.433594 219.089844 295.761719 217.675781 C 296.585938 216.761719 296.851562 216.644531 298.328125 216.613281 C 299.683594 216.613281 300.15625 216.730469 301.011719 217.410156 C 302.28125 218.382812 302.8125 219.859375 302.546875 221.597656 C 302.398438 222.632812 302.101562 223.132812 301.160156 223.957031 C 300.066406 224.871094 299.742188 224.992188 298.296875 224.992188 C 297.382812 224.992188 296.410156 224.84375 296.117188 224.667969 Z M 296.117188 224.667969 " fill-opacity="1" fill-rule="nonzero"/><path fill="#f4cf88" d="M 412.503906 219.03125 C 412.152344 218.855469 411.621094 218.148438 411.355469 217.441406 C 410.765625 215.90625 411.148438 214.429688 412.355469 213.457031 C 413.007812 212.957031 413.390625 212.867188 414.570312 213.046875 C 416.457031 213.28125 417.726562 214.519531 417.726562 216.171875 C 417.726562 216.820312 416.691406 218.765625 416.132812 219.152344 C 415.660156 219.476562 413.242188 219.386719 412.503906 219.03125 Z M 412.503906 219.03125 " fill-opacity="1" fill-rule="nonzero"/><path fill="#f4cf88" d="M 472.910156 215.40625 C 471.761719 214.078125 471.730469 213.105469 472.851562 211.984375 C 473.972656 210.863281 474.945312 210.890625 476.273438 212.042969 C 477.660156 213.28125 477.570312 214.636719 476.007812 215.90625 C 475.003906 216.730469 473.945312 216.554688 472.910156 215.40625 Z M 472.910156 215.40625 " fill-opacity="1" fill-rule="nonzero"/><path fill="#f4cf88" d="M 454.949219 202.808594 C 454.507812 202.367188 454.476562 201.1875 454.917969 200.953125 C 455.390625 200.628906 456.570312 201.039062 456.777344 201.570312 C 456.984375 202.101562 456.214844 203.164062 455.625 203.164062 C 455.449219 203.164062 455.15625 203.015625 454.949219 202.808594 Z M 454.949219 202.808594 " fill-opacity="1" fill-rule="nonzero"/><path fill="#f4cf88" d="M 120.46875 201.335938 C 120.265625 201.128906 120.117188 200.539062 120.117188 200.007812 C 120.117188 199.269531 120.234375 199.035156 120.648438 199.035156 C 121.324219 199.035156 122.003906 200.746094 121.5625 201.304688 C 121.148438 201.777344 120.914062 201.777344 120.46875 201.335938 Z M 120.46875 201.335938 " fill-opacity="1" fill-rule="nonzero"/><path fill="#f4cf88" d="M 251.429688 197.175781 C 250.015625 195.671875 251.136719 193.429688 253.316406 193.429688 C 254.46875 193.429688 255.5 194.550781 255.5 195.789062 C 255.5 197.648438 252.757812 198.59375 251.429688 197.175781 Z M 251.429688 197.175781 " fill-opacity="1" fill-rule="nonzero"/><path fill="#f4cf88" d="M 306.085938 192.339844 C 304.402344 191.453125 303.28125 189.980469 303.28125 188.652344 C 303.28125 187.769531 304.109375 186.058594 304.816406 185.46875 C 305.582031 184.816406 307.679688 184.699219 309.09375 185.171875 C 311.628906 186.085938 311.570312 190.511719 309.003906 192.191406 C 307.796875 192.957031 307.292969 192.988281 306.085938 192.339844 Z M 306.085938 192.339844 " fill-opacity="1" fill-rule="nonzero"/><path fill="#f4cf88" d="M 233.703125 188.535156 C 232.789062 187.886719 232.964844 186.617188 234.058594 186.117188 C 234.824219 185.730469 234.972656 185.761719 235.589844 186.351562 C 236.417969 187.148438 236.269531 188.003906 235.148438 188.5625 C 234.441406 188.917969 234.265625 188.917969 233.703125 188.535156 Z M 233.703125 188.535156 " fill-opacity="1" fill-rule="nonzero"/><path fill="#f4cf88" d="M 342.21875 182.015625 C 341.390625 181.691406 340.773438 180.628906 340.859375 179.714844 C 340.917969 179.242188 340.976562 178.652344 341.007812 178.476562 C 341.007812 178.269531 341.214844 178.09375 341.421875 178.09375 C 341.628906 178.09375 342.011719 177.828125 342.304688 177.503906 C 342.953125 176.734375 343.367188 176.765625 344.605469 177.589844 C 345.285156 178.0625 345.667969 178.59375 345.875 179.390625 C 346.109375 180.480469 346.082031 180.601562 345.195312 181.398438 C 344.3125 182.191406 343.25 182.398438 342.21875 182.015625 Z M 342.21875 182.015625 " fill-opacity="1" fill-rule="nonzero"/><path fill="#f4cf88" d="M 326.9375 180.011719 C 325.523438 178.832031 325.464844 176.882812 326.851562 175.820312 C 327.972656 174.964844 330.773438 175.734375 331.1875 177 C 331.449219 177.886719 331.039062 179.566406 330.476562 179.773438 C 330.210938 179.890625 329.859375 180.128906 329.742188 180.363281 C 329.355469 180.984375 327.882812 180.808594 326.9375 180.011719 Z M 326.9375 180.011719 " fill-opacity="1" fill-rule="nonzero"/><path fill="#f4cf88" d="M 672.242188 174.878906 C 669.703125 174.347656 668.789062 172.929688 668.96875 169.804688 C 669.085938 168.210938 671.769531 166.414062 674.304688 166.265625 C 676.28125 166.148438 676.695312 166.296875 678.023438 167.59375 C 679.378906 168.859375 679.378906 168.890625 679.054688 170.011719 C 677.902344 174.050781 675.722656 175.617188 672.242188 174.878906 Z M 672.242188 174.878906 " fill-opacity="1" fill-rule="nonzero"/><path fill="#f4cf88" d="M 142.652344 174.289062 C 141.351562 173.964844 141.117188 173.757812 140.585938 172.546875 C 139.9375 170.957031 140.261719 169.570312 141.558594 168.59375 C 143.566406 167.0625 145.660156 167.652344 146.664062 170.011719 C 147.195312 171.25 147.195312 171.308594 146.664062 172.429688 C 146.367188 173.050781 145.925781 173.699219 145.71875 173.875 C 145.160156 174.347656 143.683594 174.523438 142.652344 174.289062 Z M 142.652344 174.289062 " fill-opacity="1" fill-rule="nonzero"/><path fill="#f4cf88" d="M 593.429688 173.964844 C 592.425781 173.167969 592.398438 172.105469 593.371094 171.160156 C 594.285156 170.21875 595.109375 170.21875 596.054688 171.191406 C 597.824219 172.929688 595.375 175.496094 593.429688 173.964844 Z M 593.429688 173.964844 " fill-opacity="1" fill-rule="nonzero"/><path fill="#f4cf88" d="M 531.695312 172.929688 C 531.195312 172.136719 531.339844 170.777344 531.960938 170.367188 C 532.609375 169.953125 533.847656 170.128906 534.320312 170.660156 C 534.910156 171.308594 534.96875 172.8125 534.46875 173.316406 C 533.820312 173.964844 532.226562 173.757812 531.695312 172.929688 Z M 531.695312 172.929688 " fill-opacity="1" fill-rule="nonzero"/><path fill="#f4cf88" d="M 261.695312 163.730469 C 260.957031 163.464844 259.304688 161.78125 259.011719 161.042969 C 258.300781 159.246094 260.011719 156.796875 262.253906 156.414062 C 264.378906 156.058594 266.679688 157.828125 266.707031 159.835938 C 266.707031 161.015625 266.089844 162.753906 265.46875 163.285156 C 265 163.667969 262.3125 163.996094 261.695312 163.730469 Z M 261.695312 163.730469 " fill-opacity="1" fill-rule="nonzero"/><path fill="#f4cf88" d="M 562.902344 160.542969 C 562.015625 159.421875 562.371094 158.417969 563.757812 157.976562 C 564.820312 157.683594 564.964844 157.710938 565.613281 158.300781 C 566.234375 158.890625 566.292969 159.097656 566.027344 159.835938 C 565.496094 161.398438 563.84375 161.753906 562.902344 160.542969 Z M 562.902344 160.542969 " fill-opacity="1" fill-rule="nonzero"/><path fill="#f4cf88" d="M 71.597656 159.804688 C 70.742188 159.480469 70.238281 158.804688 70.09375 157.742188 C 69.972656 157.035156 70.121094 156.679688 70.859375 155.941406 C 71.65625 155.117188 71.921875 155.027344 72.984375 155.175781 C 74.339844 155.351562 75.105469 156.03125 75.402344 157.238281 C 75.578125 157.917969 75.429688 158.242188 74.574219 159.097656 C 73.574219 160.101562 72.777344 160.308594 71.597656 159.804688 Z M 71.597656 159.804688 " fill-opacity="1" fill-rule="nonzero"/><path fill="#f4cf88" d="M 229.929688 158.65625 C 228.6875 157.890625 228.363281 157.179688 228.570312 155.792969 C 228.777344 154.320312 229.074219 153.996094 230.398438 153.582031 C 231.34375 153.289062 231.667969 153.347656 232.730469 153.878906 C 234.144531 154.613281 234.175781 154.644531 234.441406 156.179688 C 234.589844 157.152344 234.5 157.476562 233.910156 158.152344 C 232.996094 159.246094 231.226562 159.480469 229.929688 158.65625 Z M 229.929688 158.65625 " fill-opacity="1" fill-rule="nonzero"/><path fill="#f4cf88" d="M 276.207031 153.847656 C 276 153.640625 275.851562 152.875 275.851562 152.136719 C 275.851562 150.957031 276 150.664062 276.972656 149.71875 C 277.5625 149.15625 278.328125 148.597656 278.625 148.480469 C 279.421875 148.214844 280.570312 149.039062 280.570312 149.894531 C 280.570312 150.839844 279.773438 152.726562 279.007812 153.554688 C 278.328125 154.261719 276.796875 154.4375 276.207031 153.847656 Z M 276.207031 153.847656 " fill-opacity="1" fill-rule="nonzero"/><path fill="#f4cf88" d="M 214 143.289062 C 212.96875 142.667969 212.464844 141.429688 212.9375 140.664062 C 213.117188 140.398438 213.734375 139.925781 214.324219 139.601562 C 215.417969 139.042969 215.417969 139.042969 216.476562 139.601562 C 217.894531 140.367188 218.21875 141.136719 217.628906 142.492188 C 217.304688 143.347656 217.007812 143.582031 216.449219 143.582031 C 216.066406 143.582031 215.5625 143.640625 215.328125 143.730469 C 215.121094 143.820312 214.503906 143.613281 214 143.289062 Z M 214 143.289062 " fill-opacity="1" fill-rule="nonzero"/><path fill="#f4cf88" d="M 602.957031 140.574219 C 601.570312 139.984375 601.273438 139.660156 600.683594 137.980469 C 600.066406 136.238281 600.214844 135.207031 601.273438 133.996094 C 602.484375 132.609375 602.957031 132.347656 604.695312 132.199219 C 607.261719 131.960938 609.296875 134.054688 609.179688 136.859375 C 609.121094 138.539062 608.589844 139.484375 607.261719 140.28125 C 605.816406 141.136719 604.460938 141.222656 602.957031 140.574219 Z M 602.957031 140.574219 " fill-opacity="1" fill-rule="nonzero"/><path fill="#f4cf88" d="M 656.492188 137.332031 C 655.664062 136.859375 654.898438 135.945312 654.394531 134.792969 C 653.863281 133.613281 654.21875 131.902344 655.222656 130.988281 C 656.226562 130.046875 658.496094 129.367188 659.792969 129.601562 C 661.417969 129.898438 662.859375 131.429688 663.039062 133.054688 C 663.125 133.851562 663.066406 134.441406 662.859375 134.558594 C 662.683594 134.675781 662.535156 135.03125 662.535156 135.382812 C 662.535156 135.707031 662.125 136.355469 661.621094 136.828125 C 660.824219 137.597656 660.5 137.683594 658.878906 137.683594 C 657.90625 137.683594 656.816406 137.507812 656.492188 137.332031 Z M 656.492188 137.332031 " fill-opacity="1" fill-rule="nonzero"/><path fill="#f4cf88" d="M 479.519531 132.40625 C 477.128906 130.636719 477.21875 127.125 479.695312 125.886719 C 481.375 125 482.644531 125.121094 484.148438 126.269531 C 485.859375 127.566406 486.214844 129.070312 485.300781 130.988281 C 484.621094 132.40625 483.972656 132.816406 481.996094 133.113281 C 480.84375 133.261719 480.550781 133.199219 479.519531 132.40625 Z M 479.519531 132.40625 " fill-opacity="1" fill-rule="nonzero"/><path fill="#f4cf88" d="M 613.074219 131.492188 C 611.539062 130.871094 611.15625 128.246094 612.394531 126.976562 C 614.3125 125.089844 617.410156 126.152344 617.410156 128.6875 C 617.410156 129.957031 616.523438 131.164062 615.34375 131.492188 C 614.136719 131.84375 613.929688 131.84375 613.074219 131.492188 Z M 613.074219 131.492188 " fill-opacity="1" fill-rule="nonzero"/><path fill="#f4cf88" d="M 393.597656 127.300781 C 392.183594 125.914062 391.917969 125.207031 392.152344 123.527344 C 392.328125 122.257812 393.507812 120.8125 394.71875 120.398438 C 396.664062 119.75 399.054688 120.222656 399.320312 121.316406 C 399.410156 121.699219 399.734375 122.230469 400.027344 122.496094 C 400.410156 122.847656 400.53125 123.320312 400.46875 124.234375 C 400.292969 126.917969 398.671875 128.539062 396.132812 128.539062 C 395.015625 128.539062 394.660156 128.363281 393.597656 127.300781 Z M 393.597656 127.300781 " fill-opacity="1" fill-rule="nonzero"/><path fill="#f4cf88" d="M 675.457031 118.953125 C 674.21875 118.128906 673.921875 117.480469 674.1875 116.09375 C 674.394531 115.03125 675.839844 113.792969 676.871094 113.792969 C 677.519531 113.792969 679.792969 114.796875 680 115.148438 C 680.085938 115.296875 680.234375 115.917969 680.351562 116.507812 C 680.527344 117.480469 680.441406 117.714844 679.527344 118.628906 C 678.289062 119.929688 677.078125 120.015625 675.457031 118.953125 Z M 675.457031 118.953125 " fill-opacity="1" fill-rule="nonzero"/><path fill="#f4cf88" d="M 432.621094 119.191406 C 431.882812 118.984375 431.382812 118.304688 431.175781 117.214844 C 431.027344 116.566406 431.175781 116.125 431.734375 115.386719 C 432.355469 114.558594 432.707031 114.382812 433.59375 114.382812 C 435.332031 114.382812 436.011719 115.03125 436.011719 116.683594 C 436.011719 118.246094 435.863281 118.570312 434.921875 119.074219 C 434.273438 119.398438 433.652344 119.425781 432.621094 119.191406 Z M 432.621094 119.191406 " fill-opacity="1" fill-rule="nonzero"/><path fill="#f4cf88" d="M 286.972656 118.570312 C 285.675781 117.15625 285.96875 114.882812 287.503906 114.5 C 288.445312 114.265625 290.246094 114.882812 290.628906 115.59375 C 290.984375 116.242188 290.6875 118.070312 290.1875 118.484375 C 289.980469 118.660156 289.300781 118.867188 288.652344 118.953125 C 287.710938 119.132812 287.386719 119.042969 286.972656 118.570312 Z M 286.972656 118.570312 " fill-opacity="1" fill-rule="nonzero"/><path fill="#f4cf88" d="M 446.925781 114.53125 C 446.628906 114.175781 446.628906 113.910156 446.867188 113.351562 C 447.515625 111.964844 449.460938 112.644531 449.226562 114.148438 C 449.109375 115.003906 447.546875 115.269531 446.925781 114.53125 Z M 446.925781 114.53125 " fill-opacity="1" fill-rule="nonzero"/><path fill="#f4cf88" d="M 666.519531 114.117188 C 664.277344 113.734375 662.890625 112.171875 663.246094 110.460938 C 663.570312 108.808594 665.132812 106.890625 666.488281 106.390625 C 668.554688 105.652344 670.765625 106.539062 671.5625 108.453125 C 671.976562 109.429688 671.886719 111.078125 671.414062 111.433594 C 671.296875 111.523438 671.003906 111.933594 670.707031 112.378906 C 670.441406 112.820312 669.644531 113.46875 668.96875 113.792969 C 668.289062 114.117188 667.726562 114.355469 667.726562 114.355469 C 667.699219 114.324219 667.167969 114.207031 666.519531 114.117188 Z M 666.519531 114.117188 " fill-opacity="1" fill-rule="nonzero"/><path fill="#f4cf88" d="M 704.804688 113.792969 C 703.976562 113.703125 703.210938 113.558594 703.152344 113.5 C 702.296875 112.40625 701.765625 111.316406 701.765625 110.609375 C 701.765625 109.25 702.886719 107.894531 704.566406 107.273438 C 705.953125 106.742188 706.101562 106.742188 707.132812 107.1875 C 708.550781 107.804688 710.320312 109.722656 710.320312 110.636719 C 710.320312 111.492188 708.757812 113.027344 707.371094 113.585938 C 706.722656 113.824219 705.777344 113.910156 704.804688 113.792969 Z M 704.804688 113.792969 " fill-opacity="1" fill-rule="nonzero"/><g clip-path="url(#e73287a7c8)"><path fill="#f4cf88" d="M 736.273438 113.617188 C 734.917969 113.027344 734.238281 112.378906 733.738281 111.167969 C 733.148438 109.722656 733.207031 109.191406 734.238281 107.597656 C 734.976562 106.476562 735.480469 106.066406 736.6875 105.59375 C 739.519531 104.503906 742.261719 105.152344 744.179688 107.363281 C 745.269531 108.601562 745.332031 109.222656 744.535156 110.933594 C 743.53125 112.96875 743.234375 113.203125 741.082031 113.675781 C 738.574219 114.207031 737.574219 114.175781 736.273438 113.617188 Z M 736.273438 113.617188 " fill-opacity="1" fill-rule="nonzero"/></g><path fill="#f4cf88" d="M 719.90625 108.011719 C 718.222656 107.421875 717.101562 106.007812 717.101562 104.503906 C 717.101562 103.5 716.925781 103.144531 715.894531 102.171875 L 714.65625 101.023438 L 714.125 101.730469 C 713.828125 102.113281 713.5625 102.527344 713.5625 102.644531 C 713.5625 102.761719 712.886719 103.203125 712.089844 103.617188 C 710.730469 104.296875 710.46875 104.324219 709.347656 104.03125 C 707.902344 103.648438 707.488281 103.351562 706.925781 102.320312 C 706.601562 101.671875 706.601562 101.375 706.957031 100.519531 C 707.457031 99.3125 708.167969 98.808594 710.082031 98.308594 C 711.203125 97.984375 711.585938 98.011719 712.238281 98.335938 C 713.210938 98.839844 713.535156 98.691406 713.355469 97.746094 C 713.269531 97.363281 713.355469 96.953125 713.535156 96.863281 C 713.710938 96.746094 713.859375 96.363281 713.859375 96.007812 C 713.859375 94.179688 716.425781 91.199219 718.253906 90.90625 C 718.902344 90.816406 719.492188 90.519531 719.582031 90.316406 C 719.816406 89.695312 725.363281 89.753906 726.570312 90.375 C 727.074219 90.609375 727.898438 90.847656 728.460938 90.90625 C 729.785156 91.023438 730.257812 91.4375 730.199219 92.46875 C 730.140625 93.707031 730.582031 94.328125 731.527344 94.328125 C 732 94.328125 732.53125 94.53125 732.734375 94.769531 C 733.058594 95.152344 732.972656 95.269531 732.175781 95.535156 C 731.113281 95.917969 730.964844 96.65625 731.851562 97.214844 C 732.765625 97.777344 732.617188 99.105469 731.554688 99.871094 C 731.085938 100.253906 730.671875 100.785156 730.671875 101.109375 C 730.671875 101.433594 730.199219 102.203125 729.640625 102.851562 C 728.8125 103.765625 728.605469 104.238281 728.605469 105.179688 C 728.605469 106.507812 728.398438 106.714844 726.628906 107.1875 C 725.746094 107.421875 725.304688 107.421875 725.066406 107.1875 C 724.832031 106.949219 724.59375 107.066406 724.210938 107.570312 C 723.535156 108.453125 721.703125 108.632812 719.90625 108.011719 Z M 719.90625 108.011719 " fill-opacity="1" fill-rule="nonzero"/><path fill="#f4cf88" d="M 690.261719 107.097656 C 689.023438 106.714844 688.492188 106.242188 688.167969 105.328125 C 687.136719 102.203125 691.414062 100.34375 693.566406 102.996094 C 694.597656 104.265625 694.007812 105.886719 692.121094 106.832031 C 691.117188 107.332031 690.96875 107.363281 690.261719 107.097656 Z M 690.261719 107.097656 " fill-opacity="1" fill-rule="nonzero"/><path fill="#f4cf88" d="M 257.300781 104.828125 C 257.09375 104.589844 257.003906 104.117188 257.121094 103.792969 C 257.535156 102.46875 259.453125 102.910156 259.277344 104.296875 C 259.21875 104.914062 259.011719 105.121094 258.421875 105.179688 C 258.007812 105.238281 257.507812 105.0625 257.300781 104.828125 Z M 257.300781 104.828125 " fill-opacity="1" fill-rule="nonzero"/><path fill="#f4cf88" d="M 475.328125 104.207031 C 474.386719 103.792969 473.765625 102.496094 473.765625 100.902344 C 473.765625 100.460938 473.414062 100.105469 472.5 99.664062 C 471.789062 99.3125 471.082031 99.046875 470.933594 99.046875 C 470.523438 99.015625 469.195312 97.511719 468.664062 96.449219 C 468.398438 95.917969 468.101562 94.886719 467.984375 94.148438 C 467.835938 93.027344 467.898438 92.644531 468.425781 91.964844 C 468.753906 91.496094 469.046875 90.992188 469.046875 90.875 C 469.078125 90.402344 471.464844 89.546875 473.058594 89.429688 C 475.210938 89.28125 476.804688 90.226562 477.660156 92.171875 C 478.25 93.5 478.25 94.414062 477.75 96.890625 C 477.570312 97.71875 477.6875 97.925781 478.75 98.898438 C 480.078125 100.105469 480.492188 101.433594 480.078125 102.9375 C 479.636719 104.414062 477.246094 105.0625 475.328125 104.207031 Z M 475.328125 104.207031 " fill-opacity="1" fill-rule="nonzero"/><path fill="#f4cf88" d="M 676.8125 104.296875 C 676.164062 104 675.515625 102.910156 675.515625 102.171875 C 675.515625 101.492188 676.84375 100.519531 677.785156 100.519531 C 678.464844 100.519531 678.878906 100.757812 679.289062 101.347656 C 680.144531 102.527344 679.851562 103.707031 678.582031 104.238281 C 678.050781 104.472656 677.550781 104.648438 677.519531 104.621094 C 677.460938 104.621094 677.136719 104.472656 676.8125 104.296875 Z M 676.8125 104.296875 " fill-opacity="1" fill-rule="nonzero"/><path fill="#f4cf88" d="M 418.316406 101.996094 C 418.078125 101.847656 417.636719 101.671875 417.371094 101.582031 C 416.691406 101.375 415.957031 100.195312 415.75 98.925781 C 415.425781 96.863281 417.402344 94.621094 419.582031 94.621094 C 422.414062 94.621094 424.332031 98.277344 422.710938 100.550781 C 421.675781 102.023438 419.554688 102.730469 418.316406 101.996094 Z M 418.316406 101.996094 " fill-opacity="1" fill-rule="nonzero"/><path fill="#f4cf88" d="M 433.828125 100.960938 C 431.382812 99.105469 431.707031 95.769531 434.390625 94.738281 C 435.539062 94.328125 435.921875 94.296875 436.925781 94.589844 C 437.929688 94.886719 438.222656 95.179688 438.785156 96.421875 C 439.402344 97.71875 439.433594 97.984375 439.109375 98.988281 C 438.429688 101.023438 435.394531 102.140625 433.828125 100.960938 Z M 433.828125 100.960938 " fill-opacity="1" fill-rule="nonzero"/><path fill="#f4cf88" d="M 610.59375 97.601562 C 609.269531 97.335938 607.882812 96.242188 607.261719 94.976562 C 606.054688 92.496094 607.320312 89.902344 610.269531 88.839844 C 612.011719 88.21875 613.191406 88.339844 614.339844 89.222656 C 616.40625 90.785156 616.847656 93.707031 615.316406 95.59375 C 614.488281 96.597656 612.484375 97.925781 611.894531 97.835938 C 611.773438 97.808594 611.183594 97.71875 610.59375 97.601562 Z M 610.59375 97.601562 " fill-opacity="1" fill-rule="nonzero"/><path fill="#f4cf88" d="M 640.414062 97.011719 C 639.558594 96.773438 638.378906 94.652344 638.351562 93.292969 C 638.320312 91.289062 641.09375 88.898438 643.363281 88.957031 C 644.808594 89.015625 646.492188 89.84375 646.875 90.667969 C 647.757812 92.617188 646.933594 95.417969 645.164062 96.597656 C 644.132812 97.277344 642.097656 97.480469 640.414062 97.011719 Z M 640.414062 97.011719 " fill-opacity="1" fill-rule="nonzero"/><path fill="#f4cf88" d="M 656.226562 95.652344 C 655.605469 95.445312 654.71875 94.886719 654.25 94.445312 C 653.453125 93.707031 653.394531 93.472656 653.480469 91.964844 C 653.601562 89.992188 653.984375 89.253906 655.222656 88.484375 C 659.585938 85.859375 664.394531 90.34375 661.328125 94.207031 C 659.824219 96.125 658.554688 96.480469 656.226562 95.652344 Z M 656.226562 95.652344 " fill-opacity="1" fill-rule="nonzero"/><path fill="#f4cf88" d="M 150.910156 94.855469 C 150.289062 94.5625 149.613281 93.472656 149.613281 92.761719 C 149.613281 91.90625 150.410156 90.785156 151.324219 90.375 C 152.179688 89.960938 152.382812 89.960938 153.121094 90.34375 C 154.449219 91.023438 154.921875 91.640625 154.921875 92.703125 C 154.921875 94.53125 152.679688 95.742188 150.910156 94.855469 Z M 150.910156 94.855469 " fill-opacity="1" fill-rule="nonzero"/><path fill="#f4cf88" d="M 527.832031 94.769531 C 525.207031 93.648438 525.324219 89.136719 528.007812 88.25 C 529.808594 87.660156 532.726562 89.015625 532.757812 90.433594 C 532.757812 90.640625 532.90625 91.050781 533.109375 91.347656 C 533.671875 92.261719 532.609375 93.941406 531.015625 94.652344 C 529.511719 95.300781 529.101562 95.328125 527.832031 94.769531 Z M 527.832031 94.769531 " fill-opacity="1" fill-rule="nonzero"/><path fill="#f4cf88" d="M 157.871094 93.5 C 157.457031 93.175781 157.222656 92.617188 157.191406 91.964844 C 157.132812 91.082031 157.28125 90.875 158.226562 90.375 L 159.316406 89.753906 L 160.054688 90.460938 C 161.144531 91.496094 161.261719 92.113281 160.527344 93.144531 C 159.789062 94.179688 158.84375 94.296875 157.871094 93.5 Z M 157.871094 93.5 " fill-opacity="1" fill-rule="nonzero"/><path fill="#f4cf88" d="M 623.070312 91.613281 C 622.570312 91.109375 622.628906 90.195312 623.191406 89.578125 C 624.105469 88.574219 625.726562 89.84375 625.078125 91.082031 C 624.902344 91.40625 624.636719 91.671875 624.488281 91.671875 C 624.371094 91.671875 624.074219 91.730469 623.839844 91.820312 C 623.632812 91.90625 623.277344 91.820312 623.070312 91.613281 Z M 623.070312 91.613281 " fill-opacity="1" fill-rule="nonzero"/><path fill="#f4cf88" d="M 698.964844 91.613281 C 697.3125 90.726562 696.871094 88.8125 697.960938 87.425781 C 699.289062 85.742188 701.675781 85.269531 703.476562 86.363281 C 704.480469 86.980469 704.597656 87.484375 704.214844 89.726562 C 704.066406 90.699219 703.859375 90.933594 702.828125 91.40625 C 701.472656 92.027344 699.847656 92.113281 698.964844 91.613281 Z M 698.964844 91.613281 " fill-opacity="1" fill-rule="nonzero"/><path fill="#f4cf88" d="M 539.867188 88.425781 C 538.980469 87.601562 538.921875 87.425781 539.097656 86.273438 C 539.660156 82.910156 544.082031 82.792969 544.46875 86.15625 C 544.613281 87.425781 544.554688 87.601562 543.671875 88.425781 C 542.402344 89.605469 541.191406 89.605469 539.867188 88.425781 Z M 539.867188 88.425781 " fill-opacity="1" fill-rule="nonzero"/><path fill="#f4cf88" d="M 622.628906 82.734375 C 621.066406 81.40625 621.921875 78.988281 623.988281 78.988281 C 625.3125 78.988281 625.933594 79.519531 626.140625 80.816406 C 626.285156 81.703125 626.199219 82.027344 625.578125 82.644531 C 624.636719 83.589844 623.632812 83.621094 622.628906 82.734375 Z M 622.628906 82.734375 " fill-opacity="1" fill-rule="nonzero"/><g clip-path="url(#a511bae244)"><path fill="#f4cf88" d="M 1.929688 82.527344 C 0.160156 81.820312 0.277344 78.546875 2.105469 77.839844 C 4.582031 76.863281 6.558594 77.867188 6.558594 80.078125 C 6.53125 81.320312 6.175781 81.9375 5.171875 82.46875 C 4.4375 82.882812 2.871094 82.910156 1.929688 82.527344 Z M 1.929688 82.527344 " fill-opacity="1" fill-rule="nonzero"/></g><path fill="#f4cf88" d="M 442.648438 82.113281 C 441.558594 81.496094 441.46875 81.378906 441.378906 79.992188 C 441.320312 78.753906 441.410156 78.371094 442.03125 77.71875 C 442.855469 76.835938 443.800781 76.71875 445.246094 77.335938 C 447.25 78.164062 447.367188 81.378906 445.421875 82.378906 C 444.390625 82.941406 444.09375 82.910156 442.648438 82.113281 Z M 442.648438 82.113281 " fill-opacity="1" fill-rule="nonzero"/><path fill="#f4cf88" d="M 593.222656 75.742188 C 591.953125 74.476562 591.71875 72.707031 592.632812 71.527344 C 593.28125 70.730469 594.816406 70.257812 595.789062 70.554688 C 598 71.261719 598.324219 74.210938 596.347656 75.804688 C 595.492188 76.511719 593.960938 76.480469 593.222656 75.742188 Z M 593.222656 75.742188 " fill-opacity="1" fill-rule="nonzero"/><path fill="#f4cf88" d="M 601.246094 75.683594 C 600.742188 75.183594 600.804688 74.359375 601.394531 74.152344 C 602.042969 73.886719 602.425781 74.328125 602.308594 75.183594 C 602.1875 75.980469 601.746094 76.1875 601.246094 75.683594 Z M 601.246094 75.683594 " fill-opacity="1" fill-rule="nonzero"/><path fill="#f4cf88" d="M 645.578125 68.105469 C 645.488281 67.929688 644.78125 67.867188 644.015625 67.957031 C 642.6875 68.105469 642.570312 68.046875 641.242188 66.746094 C 639.972656 65.507812 639.882812 65.304688 640.03125 64.359375 C 640.179688 63.53125 640.089844 63.207031 639.738281 63.003906 C 639.058594 62.648438 639.117188 61.910156 639.855469 61.113281 C 640.386719 60.554688 640.59375 60.050781 640.679688 59.167969 C 640.710938 59.050781 640.976562 58.902344 641.269531 58.785156 C 641.59375 58.695312 642.304688 58.28125 642.894531 57.898438 C 643.984375 57.160156 645.488281 57.101562 646.109375 57.722656 C 646.285156 57.898438 646.609375 58.046875 646.785156 58.046875 C 647.523438 58.046875 649.792969 59.816406 650.089844 60.613281 C 650.738281 62.324219 650.769531 62.824219 650.265625 64.328125 C 649.675781 66.21875 649.558594 66.363281 647.847656 67.484375 C 646.460938 68.398438 645.871094 68.578125 645.578125 68.105469 Z M 645.578125 68.105469 " fill-opacity="1" fill-rule="nonzero"/><path fill="#f4cf88" d="M 235.148438 63.738281 C 234.292969 63.59375 232.613281 62.085938 232.023438 60.9375 C 231.34375 59.609375 231.492188 57.722656 232.347656 56.777344 C 233.230469 55.835938 235.148438 54.800781 236.035156 54.800781 C 236.890625 54.800781 238.71875 55.597656 239.484375 56.335938 C 240.25 57.042969 240.929688 59.699219 240.636719 60.820312 C 240.515625 61.261719 240.015625 62.058594 239.484375 62.617188 C 238.71875 63.414062 238.214844 63.679688 237.214844 63.769531 C 236.476562 63.828125 235.5625 63.828125 235.148438 63.738281 Z M 235.148438 63.738281 " fill-opacity="1" fill-rule="nonzero"/><path fill="#f4cf88" d="M 408.34375 50.761719 C 408.492188 50.023438 409.171875 49.9375 409.171875 50.644531 C 409.171875 50.996094 408.996094 51.261719 408.699219 51.261719 C 408.433594 51.261719 408.285156 51.054688 408.34375 50.761719 Z M 408.34375 50.761719 " fill-opacity="1" fill-rule="nonzero"/><path fill="#f4cf88" d="M 425.363281 50.289062 C 423.859375 49.609375 423.328125 48.902344 422.414062 46.21875 C 421.796875 44.421875 422.503906 43.121094 425.039062 41.324219 C 426.011719 40.613281 426.691406 40.585938 429.023438 41.203125 C 429.996094 41.5 430.527344 41.824219 430.820312 42.386719 C 432 44.539062 432.207031 45.246094 432.058594 46.484375 C 431.824219 48.164062 431.46875 48.753906 430.054688 49.789062 C 428.726562 50.761719 426.839844 50.9375 425.363281 50.289062 Z M 425.363281 50.289062 " fill-opacity="1" fill-rule="nonzero"/><path fill="#f4cf88" d="M 371.0625 41.707031 C 369.675781 41.382812 368.792969 40.703125 367.789062 39.140625 C 367.230469 38.285156 366.90625 35.511719 367.289062 34.773438 C 367.40625 34.507812 367.671875 33.949219 367.878906 33.507812 C 368.230469 32.800781 368.910156 32.296875 369.351562 32.445312 C 369.441406 32.472656 369.855469 32.148438 370.296875 31.707031 C 371.328125 30.703125 373.421875 30.585938 374.574219 31.5 C 374.988281 31.824219 375.488281 32.089844 375.695312 32.089844 C 376.578125 32.089844 377.523438 33.773438 377.699219 35.628906 C 378.171875 39.9375 375.132812 42.710938 371.0625 41.707031 Z M 371.0625 41.707031 " fill-opacity="1" fill-rule="nonzero"/><path fill="#f4cf88" d="M 570.628906 33.125 C 570.15625 32.917969 569.597656 32.414062 569.390625 31.972656 C 569.214844 31.558594 568.917969 31.207031 568.769531 31.207031 C 568.59375 31.207031 568.476562 30.585938 568.503906 29.820312 C 568.535156 27.753906 569.449219 26.367188 571.335938 25.425781 C 572.164062 25.011719 572.871094 24.480469 572.871094 24.246094 C 572.871094 24.007812 573.164062 23.539062 573.519531 23.183594 C 574.257812 22.445312 574.40625 21.296875 573.816406 20.792969 C 573.578125 20.617188 572.871094 19.671875 572.25 18.699219 C 571.191406 17.078125 571.101562 16.753906 571.101562 14.925781 C 571.101562 13.273438 571.25 12.683594 571.839844 11.738281 C 572.25 11.089844 572.574219 10.324219 572.574219 10.058594 C 572.605469 9.203125 573.226562 8.316406 574.640625 7.109375 C 575.9375 6.015625 576.234375 5.839844 578.03125 4.894531 C 578.535156 4.660156 579.476562 4.160156 580.15625 3.804688 C 581.335938 3.183594 581.484375 3.183594 582.074219 3.597656 C 582.488281 3.894531 583.371094 4.070312 584.316406 4.070312 C 585.820312 4.070312 585.90625 4.101562 586.320312 5.101562 C 586.617188 5.8125 586.96875 6.164062 587.558594 6.3125 C 588.003906 6.402344 588.652344 6.605469 589.035156 6.753906 C 589.417969 6.902344 589.976562 7.019531 590.273438 7.019531 C 591.601562 7.019531 592.277344 7.640625 592.867188 9.46875 L 593.457031 11.265625 L 591.984375 12.800781 C 590.242188 14.660156 589.773438 15.957031 590.480469 17.019531 C 590.921875 17.726562 590.921875 17.757812 590.097656 18.40625 C 589.652344 18.789062 588.679688 19.378906 587.972656 19.761719 C 587.234375 20.117188 586.527344 20.707031 586.351562 21.089844 C 586.171875 21.472656 585.496094 21.945312 584.640625 22.238281 C 583.3125 22.710938 583.195312 22.859375 583.195312 23.683594 C 583.195312 24.804688 581.75 26.929688 580.835938 27.222656 C 580.480469 27.34375 579.921875 27.695312 579.625 27.992188 C 579.332031 28.285156 578.859375 28.550781 578.621094 28.550781 C 578.386719 28.550781 578.0625 29.023438 577.886719 29.703125 C 577.738281 30.320312 577.324219 31.175781 577 31.589844 C 575.9375 32.945312 572.28125 33.832031 570.628906 33.125 Z M 570.628906 33.125 " fill-opacity="1" fill-rule="nonzero"/><path fill="#f4cf88" d="M 551.191406 32.710938 C 549.214844 31.824219 548.863281 31.207031 549.066406 29.140625 C 549.246094 27.667969 549.421875 27.195312 550.1875 26.457031 C 550.777344 25.867188 551.308594 25.601562 551.664062 25.691406 C 551.988281 25.777344 552.3125 25.71875 552.402344 25.574219 C 552.695312 25.070312 554.730469 25.308594 555.910156 25.984375 C 556.558594 26.339844 557.269531 27.019531 557.472656 27.460938 C 557.796875 28.136719 557.769531 28.433594 557.238281 29.703125 C 556.472656 31.472656 555.675781 32.238281 554.023438 32.828125 C 552.460938 33.359375 552.636719 33.390625 551.191406 32.710938 Z M 551.191406 32.710938 " fill-opacity="1" fill-rule="nonzero"/><path fill="#f4cf88" d="M 198.339844 29.523438 C 197.660156 29.257812 197.128906 27.785156 197.304688 26.664062 C 197.542969 25.246094 197.925781 24.984375 199.578125 25.1875 C 200.640625 25.335938 201.082031 25.574219 201.554688 26.222656 C 202.085938 26.957031 202.113281 27.222656 201.820312 28.109375 C 201.640625 28.667969 201.230469 29.289062 200.933594 29.4375 C 200.375 29.730469 198.988281 29.789062 198.339844 29.523438 Z M 198.339844 29.523438 " fill-opacity="1" fill-rule="nonzero"/><path fill="#f4cf88" d="M 489.839844 26.957031 C 489.371094 26.753906 488.515625 26.164062 487.984375 25.691406 C 487.128906 24.953125 486.949219 24.570312 486.773438 22.917969 C 486.507812 20.792969 486.746094 19.761719 487.835938 18.285156 C 488.898438 16.84375 490.105469 16.339844 492.496094 16.339844 C 497.007812 16.3125 498.894531 18.9375 497.65625 23.507812 C 496.921875 26.308594 492.644531 28.199219 489.839844 26.957031 Z M 489.839844 26.957031 " fill-opacity="1" fill-rule="nonzero"/><g clip-path="url(#3878e7e1dc)"><path fill="#f4cf88" d="M 563.285156 11.769531 C 562.164062 11.503906 560.1875 10.234375 560.1875 9.761719 C 560.1875 9.585938 559.746094 9.351562 559.242188 9.230469 C 556.472656 8.730469 555.824219 8.4375 554.96875 7.285156 C 554.171875 6.253906 554.113281 5.988281 554.289062 4.894531 C 554.4375 4.21875 554.671875 3.597656 554.847656 3.539062 C 555.027344 3.480469 555.171875 3.183594 555.171875 2.890625 C 555.171875 2.269531 556.617188 1.0625 558.152344 0.414062 C 559.066406 0.03125 560.601562 0 563.226562 0.355469 C 563.667969 0.414062 564.230469 0.472656 564.464844 0.5 C 564.699219 0.5 565.527344 1.179688 566.292969 1.976562 C 567.058594 2.773438 568.179688 3.6875 568.742188 3.980469 C 569.421875 4.335938 569.746094 4.691406 569.683594 5.015625 C 569.625 5.28125 569.714844 5.78125 569.890625 6.074219 C 570.304688 6.84375 568.742188 10.144531 567.769531 10.589844 C 567.414062 10.734375 566.648438 11.148438 566.085938 11.445312 C 564.964844 12.0625 564.640625 12.09375 563.285156 11.769531 Z M 563.285156 11.769531 " fill-opacity="1" fill-rule="nonzero"/></g><path fill="#f4cf88" d="M 570.511719 3.804688 C 570.511719 3.539062 571.21875 3.183594 571.75 3.183594 C 571.925781 3.183594 571.925781 3.363281 571.691406 3.628906 C 571.277344 4.101562 570.511719 4.21875 570.511719 3.804688 Z M 570.511719 3.804688 " fill-opacity="1" fill-rule="nonzero"/><g clip-path="url(#8d7da68d60)"><path fill="#f4cf88" d="M 494.765625 353.972656 C 494.148438 353.738281 493.585938 352.324219 493.734375 351.46875 C 493.910156 350.464844 494.414062 350.050781 495.535156 349.902344 C 496.210938 349.816406 496.535156 349.960938 497.039062 350.640625 C 497.894531 351.820312 497.835938 352.824219 496.890625 353.5625 C 496.125 354.179688 495.535156 354.296875 494.765625 353.972656 Z M 494.765625 353.972656 " fill-opacity="1" fill-rule="nonzero"/></g><path fill="#f4cf88" d="M 126.429688 352.824219 C 124.804688 352.144531 123.773438 350.523438 123.332031 347.988281 C 123.15625 347.101562 124.039062 345.242188 125.101562 344.300781 C 127.84375 341.761719 132.355469 342.382812 133.683594 345.507812 C 134.421875 347.160156 134.421875 348.515625 133.773438 349.960938 C 133.152344 351.261719 132.355469 352.027344 131.324219 352.292969 C 130.910156 352.410156 130.46875 352.585938 130.292969 352.707031 C 129.730469 353.117188 127.34375 353.207031 126.429688 352.824219 Z M 126.429688 352.824219 " fill-opacity="1" fill-rule="nonzero"/><path fill="#f4cf88" d="M 143.183594 334.949219 C 142.769531 334.535156 142.710938 333.238281 143.125 333.238281 C 143.359375 333.238281 144.304688 334.742188 144.304688 335.15625 C 144.304688 335.449219 143.535156 335.304688 143.183594 334.949219 Z M 143.183594 334.949219 " fill-opacity="1" fill-rule="nonzero"/><path fill="#f4cf88" d="M 530.871094 318.609375 C 530.25 318.019531 530.28125 317.519531 530.929688 316.929688 C 531.664062 316.25 532.078125 316.308594 532.609375 317.132812 C 533.523438 318.519531 532.019531 319.757812 530.871094 318.609375 Z M 530.871094 318.609375 " fill-opacity="1" fill-rule="nonzero"/><path fill="#f4cf88" d="M 528.449219 302.210938 C 528.746094 300.734375 529.808594 299.910156 530.191406 300.882812 C 530.457031 301.621094 529.601562 303.152344 528.894531 303.152344 C 528.332031 303.152344 528.273438 303.035156 528.449219 302.210938 Z M 528.449219 302.210938 " fill-opacity="1" fill-rule="nonzero"/><path fill="#f4cf88" d="M 438.195312 298.671875 L 436.867188 297.429688 L 436.957031 295.542969 C 437.015625 294.011719 437.164062 293.539062 437.753906 292.949219 C 438.136719 292.566406 438.578125 292.242188 438.726562 292.242188 C 438.902344 292.242188 439.492188 292.035156 440.054688 291.769531 C 440.96875 291.324219 441.175781 291.296875 442.03125 291.710938 C 443.328125 292.359375 444.859375 293.683594 445.15625 294.453125 C 445.804688 296.132812 443.800781 299.347656 441.910156 299.730469 C 440.082031 300.085938 439.550781 299.9375 438.195312 298.671875 Z M 438.195312 298.671875 " fill-opacity="1" fill-rule="nonzero"/><path fill="#f4cf88" d="M 226.125 291 C 223.617188 290.351562 221.726562 286.902344 222.847656 284.984375 C 223.027344 284.628906 223.5 283.835938 223.851562 283.183594 C 224.707031 281.621094 226.300781 281.148438 228.335938 281.828125 C 231.050781 282.714844 232.492188 284.335938 232.492188 286.519531 C 232.492188 287.757812 231.285156 290.085938 230.429688 290.46875 C 229.277344 291 227.125 291.265625 226.125 291 Z M 226.125 291 " fill-opacity="1" fill-rule="nonzero"/><path fill="#f4cf88" d="M 423.242188 290.234375 C 422.5625 289.527344 422.472656 289.261719 422.710938 288.671875 C 423.328125 287.226562 423.832031 286.84375 424.832031 287.050781 C 425.363281 287.136719 425.953125 287.375 426.191406 287.550781 C 426.78125 288.050781 426.664062 289.792969 425.984375 290.46875 C 425.15625 291.296875 424.15625 291.207031 423.242188 290.234375 Z M 423.242188 290.234375 " fill-opacity="1" fill-rule="nonzero"/><path fill="#f4cf88" d="M 102.714844 285.839844 C 101.886719 285.605469 100.058594 282.917969 100.058594 281.917969 C 100.058594 279.765625 102.09375 277.667969 104.484375 277.34375 C 105.898438 277.136719 106.105469 277.199219 107.464844 278.113281 C 109.5 279.527344 110.03125 281.355469 108.996094 283.539062 C 108.082031 285.457031 105.074219 286.546875 102.714844 285.839844 Z M 102.714844 285.839844 " fill-opacity="1" fill-rule="nonzero"/><path fill="#f4cf88" d="M 364.75 268.96875 C 363.246094 268.289062 362.714844 267.082031 363.160156 265.371094 C 363.484375 264.191406 364.988281 262.746094 365.929688 262.746094 C 366.84375 262.746094 368.617188 263.867188 369.144531 264.75 C 369.796875 265.902344 369.796875 266.785156 369.058594 267.996094 C 368.085938 269.558594 366.757812 269.882812 364.75 268.96875 Z M 364.75 268.96875 " fill-opacity="1" fill-rule="nonzero"/><path fill="#f4cf88" d="M 449.34375 266.34375 C 447.75 266.105469 447.484375 263.277344 448.992188 262.539062 C 449.992188 262.066406 451.289062 262.390625 451.851562 263.214844 C 452.265625 263.835938 452.265625 264.070312 451.910156 265.015625 C 451.46875 266.136719 450.671875 266.550781 449.34375 266.34375 Z M 449.34375 266.34375 " fill-opacity="1" fill-rule="nonzero"/><path fill="#f4cf88" d="M 38.855469 255.605469 C 37.5 254.871094 36.941406 254.101562 36.941406 252.921875 C 36.941406 251.65625 37.824219 249.945312 38.710938 249.472656 C 39.625 249 41.363281 249.148438 42.394531 249.765625 C 43.132812 250.238281 43.429688 250.652344 43.578125 251.507812 C 43.8125 252.894531 43.191406 254.546875 42.191406 255.164062 C 41.277344 255.753906 39.535156 255.960938 38.855469 255.605469 Z M 38.855469 255.605469 " fill-opacity="1" fill-rule="nonzero"/><path fill="#f4cf88" d="M 432.914062 253.101562 C 432.589844 253.039062 432.03125 252.921875 431.675781 252.835938 C 430.820312 252.65625 430.113281 251.300781 430.113281 249.796875 C 430.113281 248.851562 430.289062 248.5 431.027344 247.878906 C 431.527344 247.464844 432.03125 247.113281 432.117188 247.082031 C 434.332031 246.757812 435.070312 247.023438 436.128906 248.675781 C 436.925781 249.855469 436.1875 252.539062 434.980469 252.835938 C 434.597656 252.921875 434.125 253.070312 433.886719 253.128906 C 433.683594 253.1875 433.238281 253.1875 432.914062 253.101562 Z M 432.914062 253.101562 " fill-opacity="1" fill-rule="nonzero"/><path fill="#f4cf88" d="M 395.132812 237.734375 C 394.511719 237.289062 393.832031 236.050781 393.832031 235.285156 C 393.832031 234.3125 395.132812 232.953125 396.074219 232.953125 C 398.523438 232.953125 399.734375 235.550781 398.023438 237.171875 C 397.195312 237.9375 395.839844 238.234375 395.132812 237.734375 Z M 395.132812 237.734375 " fill-opacity="1" fill-rule="nonzero"/><path fill="#f4cf88" d="M 296.117188 224.667969 C 295.851562 224.519531 295.347656 223.839844 294.996094 223.191406 C 294.140625 221.453125 294.433594 219.089844 295.761719 217.675781 C 296.585938 216.761719 296.851562 216.644531 298.328125 216.613281 C 299.683594 216.613281 300.15625 216.730469 301.011719 217.410156 C 302.28125 218.382812 302.8125 219.859375 302.546875 221.597656 C 302.398438 222.632812 302.101562 223.132812 301.160156 223.957031 C 300.066406 224.871094 299.742188 224.992188 298.296875 224.992188 C 297.382812 224.992188 296.410156 224.84375 296.117188 224.667969 Z M 296.117188 224.667969 " fill-opacity="1" fill-rule="nonzero"/><path fill="#f4cf88" d="M 412.503906 219.03125 C 412.152344 218.855469 411.621094 218.148438 411.355469 217.441406 C 410.765625 215.90625 411.148438 214.429688 412.355469 213.457031 C 413.007812 212.957031 413.390625 212.867188 414.570312 213.046875 C 416.457031 213.28125 417.726562 214.519531 417.726562 216.171875 C 417.726562 216.820312 416.691406 218.765625 416.132812 219.152344 C 415.660156 219.476562 413.242188 219.386719 412.503906 219.03125 Z M 412.503906 219.03125 " fill-opacity="1" fill-rule="nonzero"/><path fill="#f4cf88" d="M 472.910156 215.40625 C 471.761719 214.078125 471.730469 213.105469 472.851562 211.984375 C 473.972656 210.863281 474.945312 210.890625 476.273438 212.042969 C 477.660156 213.28125 477.570312 214.636719 476.007812 215.90625 C 475.003906 216.730469 473.945312 216.554688 472.910156 215.40625 Z M 472.910156 215.40625 " fill-opacity="1" fill-rule="nonzero"/><path fill="#f4cf88" d="M 454.949219 202.808594 C 454.507812 202.367188 454.476562 201.1875 454.917969 200.953125 C 455.390625 200.628906 456.570312 201.039062 456.777344 201.570312 C 456.984375 202.101562 456.214844 203.164062 455.625 203.164062 C 455.449219 203.164062 455.15625 203.015625 454.949219 202.808594 Z M 454.949219 202.808594 " fill-opacity="1" fill-rule="nonzero"/><path fill="#f4cf88" d="M 120.46875 201.335938 C 120.265625 201.128906 120.117188 200.539062 120.117188 200.007812 C 120.117188 199.269531 120.234375 199.035156 120.648438 199.035156 C 121.324219 199.035156 122.003906 200.746094 121.5625 201.304688 C 121.148438 201.777344 120.914062 201.777344 120.46875 201.335938 Z M 120.46875 201.335938 " fill-opacity="1" fill-rule="nonzero"/><path fill="#f4cf88" d="M 251.429688 197.175781 C 250.015625 195.671875 251.136719 193.429688 253.316406 193.429688 C 254.46875 193.429688 255.5 194.550781 255.5 195.789062 C 255.5 197.648438 252.757812 198.59375 251.429688 197.175781 Z M 251.429688 197.175781 " fill-opacity="1" fill-rule="nonzero"/><path fill="#f4cf88" d="M 306.085938 192.339844 C 304.402344 191.453125 303.28125 189.980469 303.28125 188.652344 C 303.28125 187.769531 304.109375 186.058594 304.816406 185.46875 C 305.582031 184.816406 307.679688 184.699219 309.09375 185.171875 C 311.628906 186.085938 311.570312 190.511719 309.003906 192.191406 C 307.796875 192.957031 307.292969 192.988281 306.085938 192.339844 Z M 306.085938 192.339844 " fill-opacity="1" fill-rule="nonzero"/><path fill="#f4cf88" d="M 233.703125 188.535156 C 232.789062 187.886719 232.964844 186.617188 234.058594 186.117188 C 234.824219 185.730469 234.972656 185.761719 235.589844 186.351562 C 236.417969 187.148438 236.269531 188.003906 235.148438 188.5625 C 234.441406 188.917969 234.265625 188.917969 233.703125 188.535156 Z M 233.703125 188.535156 " fill-opacity="1" fill-rule="nonzero"/><path fill="#f4cf88" d="M 342.21875 182.015625 C 341.390625 181.691406 340.773438 180.628906 340.859375 179.714844 C 340.917969 179.242188 340.976562 178.652344 341.007812 178.476562 C 341.007812 178.269531 341.214844 178.09375 341.421875 178.09375 C 341.628906 178.09375 342.011719 177.828125 342.304688 177.503906 C 342.953125 176.734375 343.367188 176.765625 344.605469 177.589844 C 345.285156 178.0625 345.667969 178.59375 345.875 179.390625 C 346.109375 180.480469 346.082031 180.601562 345.195312 181.398438 C 344.3125 182.191406 343.25 182.398438 342.21875 182.015625 Z M 342.21875 182.015625 " fill-opacity="1" fill-rule="nonzero"/><path fill="#f4cf88" d="M 326.9375 180.011719 C 325.523438 178.832031 325.464844 176.882812 326.851562 175.820312 C 327.972656 174.964844 330.773438 175.734375 331.1875 177 C 331.449219 177.886719 331.039062 179.566406 330.476562 179.773438 C 330.210938 179.890625 329.859375 180.128906 329.742188 180.363281 C 329.355469 180.984375 327.882812 180.808594 326.9375 180.011719 Z M 326.9375 180.011719 " fill-opacity="1" fill-rule="nonzero"/><path fill="#f4cf88" d="M 672.242188 174.878906 C 669.703125 174.347656 668.789062 172.929688 668.96875 169.804688 C 669.085938 168.210938 671.769531 166.414062 674.304688 166.265625 C 676.28125 166.148438 676.695312 166.296875 678.023438 167.59375 C 679.378906 168.859375 679.378906 168.890625 679.054688 170.011719 C 677.902344 174.050781 675.722656 175.617188 672.242188 174.878906 Z M 672.242188 174.878906 " fill-opacity="1" fill-rule="nonzero"/><path fill="#f4cf88" d="M 142.652344 174.289062 C 141.351562 173.964844 141.117188 173.757812 140.585938 172.546875 C 139.9375 170.957031 140.261719 169.570312 141.558594 168.59375 C 143.566406 167.0625 145.660156 167.652344 146.664062 170.011719 C 147.195312 171.25 147.195312 171.308594 146.664062 172.429688 C 146.367188 173.050781 145.925781 173.699219 145.71875 173.875 C 145.160156 174.347656 143.683594 174.523438 142.652344 174.289062 Z M 142.652344 174.289062 " fill-opacity="1" fill-rule="nonzero"/><path fill="#f4cf88" d="M 593.429688 173.964844 C 592.425781 173.167969 592.398438 172.105469 593.371094 171.160156 C 594.285156 170.21875 595.109375 170.21875 596.054688 171.191406 C 597.824219 172.929688 595.375 175.496094 593.429688 173.964844 Z M 593.429688 173.964844 " fill-opacity="1" fill-rule="nonzero"/><path fill="#f4cf88" d="M 531.695312 172.929688 C 531.195312 172.136719 531.339844 170.777344 531.960938 170.367188 C 532.609375 169.953125 533.847656 170.128906 534.320312 170.660156 C 534.910156 171.308594 534.96875 172.8125 534.46875 173.316406 C 533.820312 173.964844 532.226562 173.757812 531.695312 172.929688 Z M 531.695312 172.929688 " fill-opacity="1" fill-rule="nonzero"/><path fill="#f4cf88" d="M 261.695312 163.730469 C 260.957031 163.464844 259.304688 161.78125 259.011719 161.042969 C 258.300781 159.246094 260.011719 156.796875 262.253906 156.414062 C 264.378906 156.058594 266.679688 157.828125 266.707031 159.835938 C 266.707031 161.015625 266.089844 162.753906 265.46875 163.285156 C 265 163.667969 262.3125 163.996094 261.695312 163.730469 Z M 261.695312 163.730469 " fill-opacity="1" fill-rule="nonzero"/><path fill="#f4cf88" d="M 562.902344 160.542969 C 562.015625 159.421875 562.371094 158.417969 563.757812 157.976562 C 564.820312 157.683594 564.964844 157.710938 565.613281 158.300781 C 566.234375 158.890625 566.292969 159.097656 566.027344 159.835938 C 565.496094 161.398438 563.84375 161.753906 562.902344 160.542969 Z M 562.902344 160.542969 " fill-opacity="1" fill-rule="nonzero"/><path fill="#f4cf88" d="M 71.597656 159.804688 C 70.742188 159.480469 70.238281 158.804688 70.09375 157.742188 C 69.972656 157.035156 70.121094 156.679688 70.859375 155.941406 C 71.65625 155.117188 71.921875 155.027344 72.984375 155.175781 C 74.339844 155.351562 75.105469 156.03125 75.402344 157.238281 C 75.578125 157.917969 75.429688 158.242188 74.574219 159.097656 C 73.574219 160.101562 72.777344 160.308594 71.597656 159.804688 Z M 71.597656 159.804688 " fill-opacity="1" fill-rule="nonzero"/><path fill="#f4cf88" d="M 229.929688 158.65625 C 228.6875 157.890625 228.363281 157.179688 228.570312 155.792969 C 228.777344 154.320312 229.074219 153.996094 230.398438 153.582031 C 231.34375 153.289062 231.667969 153.347656 232.730469 153.878906 C 234.144531 154.613281 234.175781 154.644531 234.441406 156.179688 C 234.589844 157.152344 234.5 157.476562 233.910156 158.152344 C 232.996094 159.246094 231.226562 159.480469 229.929688 158.65625 Z M 229.929688 158.65625 " fill-opacity="1" fill-rule="nonzero"/><path fill="#f4cf88" d="M 276.207031 153.847656 C 276 153.640625 275.851562 152.875 275.851562 152.136719 C 275.851562 150.957031 276 150.664062 276.972656 149.71875 C 277.5625 149.15625 278.328125 148.597656 278.625 148.480469 C 279.421875 148.214844 280.570312 149.039062 280.570312 149.894531 C 280.570312 150.839844 279.773438 152.726562 279.007812 153.554688 C 278.328125 154.261719 276.796875 154.4375 276.207031 153.847656 Z M 276.207031 153.847656 " fill-opacity="1" fill-rule="nonzero"/><path fill="#f4cf88" d="M 214 143.289062 C 212.96875 142.667969 212.464844 141.429688 212.9375 140.664062 C 213.117188 140.398438 213.734375 139.925781 214.324219 139.601562 C 215.417969 139.042969 215.417969 139.042969 216.476562 139.601562 C 217.894531 140.367188 218.21875 141.136719 217.628906 142.492188 C 217.304688 143.347656 217.007812 143.582031 216.449219 143.582031 C 216.066406 143.582031 215.5625 143.640625 215.328125 143.730469 C 215.121094 143.820312 214.503906 143.613281 214 143.289062 Z M 214 143.289062 " fill-opacity="1" fill-rule="nonzero"/><path fill="#f4cf88" d="M 602.957031 140.574219 C 601.570312 139.984375 601.273438 139.660156 600.683594 137.980469 C 600.066406 136.238281 600.214844 135.207031 601.273438 133.996094 C 602.484375 132.609375 602.957031 132.347656 604.695312 132.199219 C 607.261719 131.960938 609.296875 134.054688 609.179688 136.859375 C 609.121094 138.539062 608.589844 139.484375 607.261719 140.28125 C 605.816406 141.136719 604.460938 141.222656 602.957031 140.574219 Z M 602.957031 140.574219 " fill-opacity="1" fill-rule="nonzero"/><path fill="#f4cf88" d="M 656.492188 137.332031 C 655.664062 136.859375 654.898438 135.945312 654.394531 134.792969 C 653.863281 133.613281 654.21875 131.902344 655.222656 130.988281 C 656.226562 130.046875 658.496094 129.367188 659.792969 129.601562 C 661.417969 129.898438 662.859375 131.429688 663.039062 133.054688 C 663.125 133.851562 663.066406 134.441406 662.859375 134.558594 C 662.683594 134.675781 662.535156 135.03125 662.535156 135.382812 C 662.535156 135.707031 662.125 136.355469 661.621094 136.828125 C 660.824219 137.597656 660.5 137.683594 658.878906 137.683594 C 657.90625 137.683594 656.816406 137.507812 656.492188 137.332031 Z M 656.492188 137.332031 " fill-opacity="1" fill-rule="nonzero"/><path fill="#f4cf88" d="M 479.519531 132.40625 C 477.128906 130.636719 477.21875 127.125 479.695312 125.886719 C 481.375 125 482.644531 125.121094 484.148438 126.269531 C 485.859375 127.566406 486.214844 129.070312 485.300781 130.988281 C 484.621094 132.40625 483.972656 132.816406 481.996094 133.113281 C 480.84375 133.261719 480.550781 133.199219 479.519531 132.40625 Z M 479.519531 132.40625 " fill-opacity="1" fill-rule="nonzero"/><path fill="#f4cf88" d="M 613.074219 131.492188 C 611.539062 130.871094 611.15625 128.246094 612.394531 126.976562 C 614.3125 125.089844 617.410156 126.152344 617.410156 128.6875 C 617.410156 129.957031 616.523438 131.164062 615.34375 131.492188 C 614.136719 131.84375 613.929688 131.84375 613.074219 131.492188 Z M 613.074219 131.492188 " fill-opacity="1" fill-rule="nonzero"/><path fill="#f4cf88" d="M 393.597656 127.300781 C 392.183594 125.914062 391.917969 125.207031 392.152344 123.527344 C 392.328125 122.257812 393.507812 120.8125 394.71875 120.398438 C 396.664062 119.75 399.054688 120.222656 399.320312 121.316406 C 399.410156 121.699219 399.734375 122.230469 400.027344 122.496094 C 400.410156 122.847656 400.53125 123.320312 400.46875 124.234375 C 400.292969 126.917969 398.671875 128.539062 396.132812 128.539062 C 395.015625 128.539062 394.660156 128.363281 393.597656 127.300781 Z M 393.597656 127.300781 " fill-opacity="1" fill-rule="nonzero"/><path fill="#f4cf88" d="M 675.457031 118.953125 C 674.21875 118.128906 673.921875 117.480469 674.1875 116.09375 C 674.394531 115.03125 675.839844 113.792969 676.871094 113.792969 C 677.519531 113.792969 679.792969 114.796875 680 115.148438 C 680.085938 115.296875 680.234375 115.917969 680.351562 116.507812 C 680.527344 117.480469 680.441406 117.714844 679.527344 118.628906 C 678.289062 119.929688 677.078125 120.015625 675.457031 118.953125 Z M 675.457031 118.953125 " fill-opacity="1" fill-rule="nonzero"/><path fill="#f4cf88" d="M 432.621094 119.191406 C 431.882812 118.984375 431.382812 118.304688 431.175781 117.214844 C 431.027344 116.566406 431.175781 116.125 431.734375 115.386719 C 432.355469 114.558594 432.707031 114.382812 433.59375 114.382812 C 435.332031 114.382812 436.011719 115.03125 436.011719 116.683594 C 436.011719 118.246094 435.863281 118.570312 434.921875 119.074219 C 434.273438 119.398438 433.652344 119.425781 432.621094 119.191406 Z M 432.621094 119.191406 " fill-opacity="1" fill-rule="nonzero"/><path fill="#f4cf88" d="M 286.972656 118.570312 C 285.675781 117.15625 285.96875 114.882812 287.503906 114.5 C 288.445312 114.265625 290.246094 114.882812 290.628906 115.59375 C 290.984375 116.242188 290.6875 118.070312 290.1875 118.484375 C 289.980469 118.660156 289.300781 118.867188 288.652344 118.953125 C 287.710938 119.132812 287.386719 119.042969 286.972656 118.570312 Z M 286.972656 118.570312 " fill-opacity="1" fill-rule="nonzero"/><path fill="#f4cf88" d="M 446.925781 114.53125 C 446.628906 114.175781 446.628906 113.910156 446.867188 113.351562 C 447.515625 111.964844 449.460938 112.644531 449.226562 114.148438 C 449.109375 115.003906 447.546875 115.269531 446.925781 114.53125 Z M 446.925781 114.53125 " fill-opacity="1" fill-rule="nonzero"/><path fill="#f4cf88" d="M 666.519531 114.117188 C 664.277344 113.734375 662.890625 112.171875 663.246094 110.460938 C 663.570312 108.808594 665.132812 106.890625 666.488281 106.390625 C 668.554688 105.652344 670.765625 106.539062 671.5625 108.453125 C 671.976562 109.429688 671.886719 111.078125 671.414062 111.433594 C 671.296875 111.523438 671.003906 111.933594 670.707031 112.378906 C 670.441406 112.820312 669.644531 113.46875 668.96875 113.792969 C 668.289062 114.117188 667.726562 114.355469 667.726562 114.355469 C 667.699219 114.324219 667.167969 114.207031 666.519531 114.117188 Z M 666.519531 114.117188 " fill-opacity="1" fill-rule="nonzero"/><path fill="#f4cf88" d="M 704.804688 113.792969 C 703.976562 113.703125 703.210938 113.558594 703.152344 113.5 C 702.296875 112.40625 701.765625 111.316406 701.765625 110.609375 C 701.765625 109.25 702.886719 107.894531 704.566406 107.273438 C 705.953125 106.742188 706.101562 106.742188 707.132812 107.1875 C 708.550781 107.804688 710.320312 109.722656 710.320312 110.636719 C 710.320312 111.492188 708.757812 113.027344 707.371094 113.585938 C 706.722656 113.824219 705.777344 113.910156 704.804688 113.792969 Z M 704.804688 113.792969 " fill-opacity="1" fill-rule="nonzero"/><g clip-path="url(#f0d3ec3ed2)"><path fill="#f4cf88" d="M 736.273438 113.617188 C 734.917969 113.027344 734.238281 112.378906 733.738281 111.167969 C 733.148438 109.722656 733.207031 109.191406 734.238281 107.597656 C 734.976562 106.476562 735.480469 106.066406 736.6875 105.59375 C 739.519531 104.503906 742.261719 105.152344 744.179688 107.363281 C 745.269531 108.601562 745.332031 109.222656 744.535156 110.933594 C 743.53125 112.96875 743.234375 113.203125 741.082031 113.675781 C 738.574219 114.207031 737.574219 114.175781 736.273438 113.617188 Z M 736.273438 113.617188 " fill-opacity="1" fill-rule="nonzero"/></g><path fill="#f4cf88" d="M 719.90625 108.011719 C 718.222656 107.421875 717.101562 106.007812 717.101562 104.503906 C 717.101562 103.5 716.925781 103.144531 715.894531 102.171875 L 714.65625 101.023438 L 714.125 101.730469 C 713.828125 102.113281 713.5625 102.527344 713.5625 102.644531 C 713.5625 102.761719 712.886719 103.203125 712.089844 103.617188 C 710.730469 104.296875 710.46875 104.324219 709.347656 104.03125 C 707.902344 103.648438 707.488281 103.351562 706.925781 102.320312 C 706.601562 101.671875 706.601562 101.375 706.957031 100.519531 C 707.457031 99.3125 708.167969 98.808594 710.082031 98.308594 C 711.203125 97.984375 711.585938 98.011719 712.238281 98.335938 C 713.210938 98.839844 713.535156 98.691406 713.355469 97.746094 C 713.269531 97.363281 713.355469 96.953125 713.535156 96.863281 C 713.710938 96.746094 713.859375 96.363281 713.859375 96.007812 C 713.859375 94.179688 716.425781 91.199219 718.253906 90.90625 C 718.902344 90.816406 719.492188 90.519531 719.582031 90.316406 C 719.816406 89.695312 725.363281 89.753906 726.570312 90.375 C 727.074219 90.609375 727.898438 90.847656 728.460938 90.90625 C 729.785156 91.023438 730.257812 91.4375 730.199219 92.46875 C 730.140625 93.707031 730.582031 94.328125 731.527344 94.328125 C 732 94.328125 732.53125 94.53125 732.734375 94.769531 C 733.058594 95.152344 732.972656 95.269531 732.175781 95.535156 C 731.113281 95.917969 730.964844 96.65625 731.851562 97.214844 C 732.765625 97.777344 732.617188 99.105469 731.554688 99.871094 C 731.085938 100.253906 730.671875 100.785156 730.671875 101.109375 C 730.671875 101.433594 730.199219 102.203125 729.640625 102.851562 C 728.8125 103.765625 728.605469 104.238281 728.605469 105.179688 C 728.605469 106.507812 728.398438 106.714844 726.628906 107.1875 C 725.746094 107.421875 725.304688 107.421875 725.066406 107.1875 C 724.832031 106.949219 724.59375 107.066406 724.210938 107.570312 C 723.535156 108.453125 721.703125 108.632812 719.90625 108.011719 Z M 719.90625 108.011719 " fill-opacity="1" fill-rule="nonzero"/><path fill="#f4cf88" d="M 690.261719 107.097656 C 689.023438 106.714844 688.492188 106.242188 688.167969 105.328125 C 687.136719 102.203125 691.414062 100.34375 693.566406 102.996094 C 694.597656 104.265625 694.007812 105.886719 692.121094 106.832031 C 691.117188 107.332031 690.96875 107.363281 690.261719 107.097656 Z M 690.261719 107.097656 " fill-opacity="1" fill-rule="nonzero"/><path fill="#f4cf88" d="M 257.300781 104.828125 C 257.09375 104.589844 257.003906 104.117188 257.121094 103.792969 C 257.535156 102.46875 259.453125 102.910156 259.277344 104.296875 C 259.21875 104.914062 259.011719 105.121094 258.421875 105.179688 C 258.007812 105.238281 257.507812 105.0625 257.300781 104.828125 Z M 257.300781 104.828125 " fill-opacity="1" fill-rule="nonzero"/><path fill="#f4cf88" d="M 475.328125 104.207031 C 474.386719 103.792969 473.765625 102.496094 473.765625 100.902344 C 473.765625 100.460938 473.414062 100.105469 472.5 99.664062 C 471.789062 99.3125 471.082031 99.046875 470.933594 99.046875 C 470.523438 99.015625 469.195312 97.511719 468.664062 96.449219 C 468.398438 95.917969 468.101562 94.886719 467.984375 94.148438 C 467.835938 93.027344 467.898438 92.644531 468.425781 91.964844 C 468.753906 91.496094 469.046875 90.992188 469.046875 90.875 C 469.078125 90.402344 471.464844 89.546875 473.058594 89.429688 C 475.210938 89.28125 476.804688 90.226562 477.660156 92.171875 C 478.25 93.5 478.25 94.414062 477.75 96.890625 C 477.570312 97.71875 477.6875 97.925781 478.75 98.898438 C 480.078125 100.105469 480.492188 101.433594 480.078125 102.9375 C 479.636719 104.414062 477.246094 105.0625 475.328125 104.207031 Z M 475.328125 104.207031 " fill-opacity="1" fill-rule="nonzero"/><path fill="#f4cf88" d="M 676.8125 104.296875 C 676.164062 104 675.515625 102.910156 675.515625 102.171875 C 675.515625 101.492188 676.84375 100.519531 677.785156 100.519531 C 678.464844 100.519531 678.878906 100.757812 679.289062 101.347656 C 680.144531 102.527344 679.851562 103.707031 678.582031 104.238281 C 678.050781 104.472656 677.550781 104.648438 677.519531 104.621094 C 677.460938 104.621094 677.136719 104.472656 676.8125 104.296875 Z M 676.8125 104.296875 " fill-opacity="1" fill-rule="nonzero"/><path fill="#f4cf88" d="M 418.316406 101.996094 C 418.078125 101.847656 417.636719 101.671875 417.371094 101.582031 C 416.691406 101.375 415.957031 100.195312 415.75 98.925781 C 415.425781 96.863281 417.402344 94.621094 419.582031 94.621094 C 422.414062 94.621094 424.332031 98.277344 422.710938 100.550781 C 421.675781 102.023438 419.554688 102.730469 418.316406 101.996094 Z M 418.316406 101.996094 " fill-opacity="1" fill-rule="nonzero"/><path fill="#f4cf88" d="M 433.828125 100.960938 C 431.382812 99.105469 431.707031 95.769531 434.390625 94.738281 C 435.539062 94.328125 435.921875 94.296875 436.925781 94.589844 C 437.929688 94.886719 438.222656 95.179688 438.785156 96.421875 C 439.402344 97.71875 439.433594 97.984375 439.109375 98.988281 C 438.429688 101.023438 435.394531 102.140625 433.828125 100.960938 Z M 433.828125 100.960938 " fill-opacity="1" fill-rule="nonzero"/><path fill="#f4cf88" d="M 610.59375 97.601562 C 609.269531 97.335938 607.882812 96.242188 607.261719 94.976562 C 606.054688 92.496094 607.320312 89.902344 610.269531 88.839844 C 612.011719 88.21875 613.191406 88.339844 614.339844 89.222656 C 616.40625 90.785156 616.847656 93.707031 615.316406 95.59375 C 614.488281 96.597656 612.484375 97.925781 611.894531 97.835938 C 611.773438 97.808594 611.183594 97.71875 610.59375 97.601562 Z M 610.59375 97.601562 " fill-opacity="1" fill-rule="nonzero"/><path fill="#f4cf88" d="M 640.414062 97.011719 C 639.558594 96.773438 638.378906 94.652344 638.351562 93.292969 C 638.320312 91.289062 641.09375 88.898438 643.363281 88.957031 C 644.808594 89.015625 646.492188 89.84375 646.875 90.667969 C 647.757812 92.617188 646.933594 95.417969 645.164062 96.597656 C 644.132812 97.277344 642.097656 97.480469 640.414062 97.011719 Z M 640.414062 97.011719 " fill-opacity="1" fill-rule="nonzero"/><path fill="#f4cf88" d="M 656.226562 95.652344 C 655.605469 95.445312 654.71875 94.886719 654.25 94.445312 C 653.453125 93.707031 653.394531 93.472656 653.480469 91.964844 C 653.601562 89.992188 653.984375 89.253906 655.222656 88.484375 C 659.585938 85.859375 664.394531 90.34375 661.328125 94.207031 C 659.824219 96.125 658.554688 96.480469 656.226562 95.652344 Z M 656.226562 95.652344 " fill-opacity="1" fill-rule="nonzero"/><path fill="#f4cf88" d="M 150.910156 94.855469 C 150.289062 94.5625 149.613281 93.472656 149.613281 92.761719 C 149.613281 91.90625 150.410156 90.785156 151.324219 90.375 C 152.179688 89.960938 152.382812 89.960938 153.121094 90.34375 C 154.449219 91.023438 154.921875 91.640625 154.921875 92.703125 C 154.921875 94.53125 152.679688 95.742188 150.910156 94.855469 Z M 150.910156 94.855469 " fill-opacity="1" fill-rule="nonzero"/><path fill="#f4cf88" d="M 527.832031 94.769531 C 525.207031 93.648438 525.324219 89.136719 528.007812 88.25 C 529.808594 87.660156 532.726562 89.015625 532.757812 90.433594 C 532.757812 90.640625 532.90625 91.050781 533.109375 91.347656 C 533.671875 92.261719 532.609375 93.941406 531.015625 94.652344 C 529.511719 95.300781 529.101562 95.328125 527.832031 94.769531 Z M 527.832031 94.769531 " fill-opacity="1" fill-rule="nonzero"/><path fill="#f4cf88" d="M 157.871094 93.5 C 157.457031 93.175781 157.222656 92.617188 157.191406 91.964844 C 157.132812 91.082031 157.28125 90.875 158.226562 90.375 L 159.316406 89.753906 L 160.054688 90.460938 C 161.144531 91.496094 161.261719 92.113281 160.527344 93.144531 C 159.789062 94.179688 158.84375 94.296875 157.871094 93.5 Z M 157.871094 93.5 " fill-opacity="1" fill-rule="nonzero"/><path fill="#f4cf88" d="M 623.070312 91.613281 C 622.570312 91.109375 622.628906 90.195312 623.191406 89.578125 C 624.105469 88.574219 625.726562 89.84375 625.078125 91.082031 C 624.902344 91.40625 624.636719 91.671875 624.488281 91.671875 C 624.371094 91.671875 624.074219 91.730469 623.839844 91.820312 C 623.632812 91.90625 623.277344 91.820312 623.070312 91.613281 Z M 623.070312 91.613281 " fill-opacity="1" fill-rule="nonzero"/><path fill="#f4cf88" d="M 698.964844 91.613281 C 697.3125 90.726562 696.871094 88.8125 697.960938 87.425781 C 699.289062 85.742188 701.675781 85.269531 703.476562 86.363281 C 704.480469 86.980469 704.597656 87.484375 704.214844 89.726562 C 704.066406 90.699219 703.859375 90.933594 702.828125 91.40625 C 701.472656 92.027344 699.847656 92.113281 698.964844 91.613281 Z M 698.964844 91.613281 " fill-opacity="1" fill-rule="nonzero"/><path fill="#f4cf88" d="M 539.867188 88.425781 C 538.980469 87.601562 538.921875 87.425781 539.097656 86.273438 C 539.660156 82.910156 544.082031 82.792969 544.46875 86.15625 C 544.613281 87.425781 544.554688 87.601562 543.671875 88.425781 C 542.402344 89.605469 541.191406 89.605469 539.867188 88.425781 Z M 539.867188 88.425781 " fill-opacity="1" fill-rule="nonzero"/><path fill="#f4cf88" d="M 622.628906 82.734375 C 621.066406 81.40625 621.921875 78.988281 623.988281 78.988281 C 625.3125 78.988281 625.933594 79.519531 626.140625 80.816406 C 626.285156 81.703125 626.199219 82.027344 625.578125 82.644531 C 624.636719 83.589844 623.632812 83.621094 622.628906 82.734375 Z M 622.628906 82.734375 " fill-opacity="1" fill-rule="nonzero"/><g clip-path="url(#8e6705d3d8)"><path fill="#f4cf88" d="M 1.929688 82.527344 C 0.160156 81.820312 0.277344 78.546875 2.105469 77.839844 C 4.582031 76.863281 6.558594 77.867188 6.558594 80.078125 C 6.53125 81.320312 6.175781 81.9375 5.171875 82.46875 C 4.4375 82.882812 2.871094 82.910156 1.929688 82.527344 Z M 1.929688 82.527344 " fill-opacity="1" fill-rule="nonzero"/></g><path fill="#f4cf88" d="M 442.648438 82.113281 C 441.558594 81.496094 441.46875 81.378906 441.378906 79.992188 C 441.320312 78.753906 441.410156 78.371094 442.03125 77.71875 C 442.855469 76.835938 443.800781 76.71875 445.246094 77.335938 C 447.25 78.164062 447.367188 81.378906 445.421875 82.378906 C 444.390625 82.941406 444.09375 82.910156 442.648438 82.113281 Z M 442.648438 82.113281 " fill-opacity="1" fill-rule="nonzero"/><path fill="#f4cf88" d="M 593.222656 75.742188 C 591.953125 74.476562 591.71875 72.707031 592.632812 71.527344 C 593.28125 70.730469 594.816406 70.257812 595.789062 70.554688 C 598 71.261719 598.324219 74.210938 596.347656 75.804688 C 595.492188 76.511719 593.960938 76.480469 593.222656 75.742188 Z M 593.222656 75.742188 " fill-opacity="1" fill-rule="nonzero"/><path fill="#f4cf88" d="M 601.246094 75.683594 C 600.742188 75.183594 600.804688 74.359375 601.394531 74.152344 C 602.042969 73.886719 602.425781 74.328125 602.308594 75.183594 C 602.1875 75.980469 601.746094 76.1875 601.246094 75.683594 Z M 601.246094 75.683594 " fill-opacity="1" fill-rule="nonzero"/><path fill="#f4cf88" d="M 645.578125 68.105469 C 645.488281 67.929688 644.78125 67.867188 644.015625 67.957031 C 642.6875 68.105469 642.570312 68.046875 641.242188 66.746094 C 639.972656 65.507812 639.882812 65.304688 640.03125 64.359375 C 640.179688 63.53125 640.089844 63.207031 639.738281 63.003906 C 639.058594 62.648438 639.117188 61.910156 639.855469 61.113281 C 640.386719 60.554688 640.59375 60.050781 640.679688 59.167969 C 640.710938 59.050781 640.976562 58.902344 641.269531 58.785156 C 641.59375 58.695312 642.304688 58.28125 642.894531 57.898438 C 643.984375 57.160156 645.488281 57.101562 646.109375 57.722656 C 646.285156 57.898438 646.609375 58.046875 646.785156 58.046875 C 647.523438 58.046875 649.792969 59.816406 650.089844 60.613281 C 650.738281 62.324219 650.769531 62.824219 650.265625 64.328125 C 649.675781 66.21875 649.558594 66.363281 647.847656 67.484375 C 646.460938 68.398438 645.871094 68.578125 645.578125 68.105469 Z M 645.578125 68.105469 " fill-opacity="1" fill-rule="nonzero"/><path fill="#f4cf88" d="M 235.148438 63.738281 C 234.292969 63.59375 232.613281 62.085938 232.023438 60.9375 C 231.34375 59.609375 231.492188 57.722656 232.347656 56.777344 C 233.230469 55.835938 235.148438 54.800781 236.035156 54.800781 C 236.890625 54.800781 238.71875 55.597656 239.484375 56.335938 C 240.25 57.042969 240.929688 59.699219 240.636719 60.820312 C 240.515625 61.261719 240.015625 62.058594 239.484375 62.617188 C 238.71875 63.414062 238.214844 63.679688 237.214844 63.769531 C 236.476562 63.828125 235.5625 63.828125 235.148438 63.738281 Z M 235.148438 63.738281 " fill-opacity="1" fill-rule="nonzero"/><path fill="#f4cf88" d="M 408.34375 50.761719 C 408.492188 50.023438 409.171875 49.9375 409.171875 50.644531 C 409.171875 50.996094 408.996094 51.261719 408.699219 51.261719 C 408.433594 51.261719 408.285156 51.054688 408.34375 50.761719 Z M 408.34375 50.761719 " fill-opacity="1" fill-rule="nonzero"/><path fill="#f4cf88" d="M 425.363281 50.289062 C 423.859375 49.609375 423.328125 48.902344 422.414062 46.21875 C 421.796875 44.421875 422.503906 43.121094 425.039062 41.324219 C 426.011719 40.613281 426.691406 40.585938 429.023438 41.203125 C 429.996094 41.5 430.527344 41.824219 430.820312 42.386719 C 432 44.539062 432.207031 45.246094 432.058594 46.484375 C 431.824219 48.164062 431.46875 48.753906 430.054688 49.789062 C 428.726562 50.761719 426.839844 50.9375 425.363281 50.289062 Z M 425.363281 50.289062 " fill-opacity="1" fill-rule="nonzero"/><path fill="#f4cf88" d="M 371.0625 41.707031 C 369.675781 41.382812 368.792969 40.703125 367.789062 39.140625 C 367.230469 38.285156 366.90625 35.511719 367.289062 34.773438 C 367.40625 34.507812 367.671875 33.949219 367.878906 33.507812 C 368.230469 32.800781 368.910156 32.296875 369.351562 32.445312 C 369.441406 32.472656 369.855469 32.148438 370.296875 31.707031 C 371.328125 30.703125 373.421875 30.585938 374.574219 31.5 C 374.988281 31.824219 375.488281 32.089844 375.695312 32.089844 C 376.578125 32.089844 377.523438 33.773438 377.699219 35.628906 C 378.171875 39.9375 375.132812 42.710938 371.0625 41.707031 Z M 371.0625 41.707031 " fill-opacity="1" fill-rule="nonzero"/><path fill="#f4cf88" d="M 570.628906 33.125 C 570.15625 32.917969 569.597656 32.414062 569.390625 31.972656 C 569.214844 31.558594 568.917969 31.207031 568.769531 31.207031 C 568.59375 31.207031 568.476562 30.585938 568.503906 29.820312 C 568.535156 27.753906 569.449219 26.367188 571.335938 25.425781 C 572.164062 25.011719 572.871094 24.480469 572.871094 24.246094 C 572.871094 24.007812 573.164062 23.539062 573.519531 23.183594 C 574.257812 22.445312 574.40625 21.296875 573.816406 20.792969 C 573.578125 20.617188 572.871094 19.671875 572.25 18.699219 C 571.191406 17.078125 571.101562 16.753906 571.101562 14.925781 C 571.101562 13.273438 571.25 12.683594 571.839844 11.738281 C 572.25 11.089844 572.574219 10.324219 572.574219 10.058594 C 572.605469 9.203125 573.226562 8.316406 574.640625 7.109375 C 575.9375 6.015625 576.234375 5.839844 578.03125 4.894531 C 578.535156 4.660156 579.476562 4.160156 580.15625 3.804688 C 581.335938 3.183594 581.484375 3.183594 582.074219 3.597656 C 582.488281 3.894531 583.371094 4.070312 584.316406 4.070312 C 585.820312 4.070312 585.90625 4.101562 586.320312 5.101562 C 586.617188 5.8125 586.96875 6.164062 587.558594 6.3125 C 588.003906 6.402344 588.652344 6.605469 589.035156 6.753906 C 589.417969 6.902344 589.976562 7.019531 590.273438 7.019531 C 591.601562 7.019531 592.277344 7.640625 592.867188 9.46875 L 593.457031 11.265625 L 591.984375 12.800781 C 590.242188 14.660156 589.773438 15.957031 590.480469 17.019531 C 590.921875 17.726562 590.921875 17.757812 590.097656 18.40625 C 589.652344 18.789062 588.679688 19.378906 587.972656 19.761719 C 587.234375 20.117188 586.527344 20.707031 586.351562 21.089844 C 586.171875 21.472656 585.496094 21.945312 584.640625 22.238281 C 583.3125 22.710938 583.195312 22.859375 583.195312 23.683594 C 583.195312 24.804688 581.75 26.929688 580.835938 27.222656 C 580.480469 27.34375 579.921875 27.695312 579.625 27.992188 C 579.332031 28.285156 578.859375 28.550781 578.621094 28.550781 C 578.386719 28.550781 578.0625 29.023438 577.886719 29.703125 C 577.738281 30.320312 577.324219 31.175781 577 31.589844 C 575.9375 32.945312 572.28125 33.832031 570.628906 33.125 Z M 570.628906 33.125 " fill-opacity="1" fill-rule="nonzero"/><path fill="#f4cf88" d="M 551.191406 32.710938 C 549.214844 31.824219 548.863281 31.207031 549.066406 29.140625 C 549.246094 27.667969 549.421875 27.195312 550.1875 26.457031 C 550.777344 25.867188 551.308594 25.601562 551.664062 25.691406 C 551.988281 25.777344 552.3125 25.71875 552.402344 25.574219 C 552.695312 25.070312 554.730469 25.308594 555.910156 25.984375 C 556.558594 26.339844 557.269531 27.019531 557.472656 27.460938 C 557.796875 28.136719 557.769531 28.433594 557.238281 29.703125 C 556.472656 31.472656 555.675781 32.238281 554.023438 32.828125 C 552.460938 33.359375 552.636719 33.390625 551.191406 32.710938 Z M 551.191406 32.710938 " fill-opacity="1" fill-rule="nonzero"/><path fill="#f4cf88" d="M 198.339844 29.523438 C 197.660156 29.257812 197.128906 27.785156 197.304688 26.664062 C 197.542969 25.246094 197.925781 24.984375 199.578125 25.1875 C 200.640625 25.335938 201.082031 25.574219 201.554688 26.222656 C 202.085938 26.957031 202.113281 27.222656 201.820312 28.109375 C 201.640625 28.667969 201.230469 29.289062 200.933594 29.4375 C 200.375 29.730469 198.988281 29.789062 198.339844 29.523438 Z M 198.339844 29.523438 " fill-opacity="1" fill-rule="nonzero"/><path fill="#f4cf88" d="M 489.839844 26.957031 C 489.371094 26.753906 488.515625 26.164062 487.984375 25.691406 C 487.128906 24.953125 486.949219 24.570312 486.773438 22.917969 C 486.507812 20.792969 486.746094 19.761719 487.835938 18.285156 C 488.898438 16.84375 490.105469 16.339844 492.496094 16.339844 C 497.007812 16.3125 498.894531 18.9375 497.65625 23.507812 C 496.921875 26.308594 492.644531 28.199219 489.839844 26.957031 Z M 489.839844 26.957031 " fill-opacity="1" fill-rule="nonzero"/><g clip-path="url(#913a5826c0)"><path fill="#f4cf88" d="M 563.285156 11.769531 C 562.164062 11.503906 560.1875 10.234375 560.1875 9.761719 C 560.1875 9.585938 559.746094 9.351562 559.242188 9.230469 C 556.472656 8.730469 555.824219 8.4375 554.96875 7.285156 C 554.171875 6.253906 554.113281 5.988281 554.289062 4.894531 C 554.4375 4.21875 554.671875 3.597656 554.847656 3.539062 C 555.027344 3.480469 555.171875 3.183594 555.171875 2.890625 C 555.171875 2.269531 556.617188 1.0625 558.152344 0.414062 C 559.066406 0.03125 560.601562 0 563.226562 0.355469 C 563.667969 0.414062 564.230469 0.472656 564.464844 0.5 C 564.699219 0.5 565.527344 1.179688 566.292969 1.976562 C 567.058594 2.773438 568.179688 3.6875 568.742188 3.980469 C 569.421875 4.335938 569.746094 4.691406 569.683594 5.015625 C 569.625 5.28125 569.714844 5.78125 569.890625 6.074219 C 570.304688 6.84375 568.742188 10.144531 567.769531 10.589844 C 567.414062 10.734375 566.648438 11.148438 566.085938 11.445312 C 564.964844 12.0625 564.640625 12.09375 563.285156 11.769531 Z M 563.285156 11.769531 " fill-opacity="1" fill-rule="nonzero"/></g><path fill="#f4cf88" d="M 570.511719 3.804688 C 570.511719 3.539062 571.21875 3.183594 571.75 3.183594 C 571.925781 3.183594 571.925781 3.363281 571.691406 3.628906 C 571.277344 4.101562 570.511719 4.21875 570.511719 3.804688 Z M 570.511719 3.804688 " fill-opacity="1" fill-rule="nonzero"/></svg>