<?xml version="1.0" encoding="UTF-8"?>
<svg id="Layer_24" xmlns="http://www.w3.org/2000/svg" xmlns:xlink="http://www.w3.org/1999/xlink" viewBox="0 0 538.59 494.63">
  <defs>
    <style>
      .cls-1 {
        fill: none;
      }

      .cls-2 {
        fill: #f4cf88;
      }

      .cls-3 {
        clip-path: url(#clippath-1);
      }

      .cls-4 {
        clip-path: url(#clippath-3);
      }

      .cls-5 {
        clip-path: url(#clippath-4);
      }

      .cls-6 {
        clip-path: url(#clippath-2);
      }

      .cls-7 {
        clip-path: url(#clippath-5);
      }

      .cls-8 {
        fill: #e44325;
      }

      .cls-9 {
        fill: #6c5c25;
      }

      .cls-10 {
        clip-path: url(#clippath);
      }

      .cls-11 {
        fill: #d46ba9;
      }
    </style>
    <clipPath id="clippath">
      <rect class="cls-1" x="296.84" y="183.94" width="10.67" height="6.36"/>
    </clipPath>
    <clipPath id="clippath-1">
      <rect class="cls-1" x="298.18" y="183.94" width="9.33" height="9.03"/>
    </clipPath>
    <clipPath id="clippath-2">
      <rect class="cls-1" x="302.18" y="183.94" width="5.33" height="10.36"/>
    </clipPath>
    <clipPath id="clippath-3">
      <rect class="cls-1" x="302.18" y="183.94" width="5.41" height="10.36"/>
    </clipPath>
    <clipPath id="clippath-4">
      <rect class="cls-1" x="176.84" y="343.64" width="12" height="17.31"/>
    </clipPath>
    <clipPath id="clippath-5">
      <rect class="cls-1" x="176.59" y="343.64" width="13.59" height="17.31"/>
    </clipPath>
  </defs>
  <path class="cls-2" d="M284.23,234.93l-.64.24-.66.2-.59.4-.69.16-.41.58-.54.43-.22.64-.43.5-.42.54-.68.1-.74-.04-.54-.49-.22-.63-.28-.66.18-.69.1-.68-.3-.56-.26.13-.4.84-.22.63-.54.17-.69-.2-.66-.22-.67-.27-.57-.44-.28-.7-.18-.7-.08-.71-.18-.69-.53-.41-.68-.03-.67.09-.64.15-.52.48-.04.65.11.62.04.61v.61l-.4.45-.4.49-.7.1-.54-.44-.24-.6-.33-.6.16-.67.41-.54.27-.61.04-.68-.14-.66-.23-.6-.26-.62.47-.41.33-.22.26-.72.15-.67-.21-.65-.14-.65-.44-.47-.4-.53-.31-.56-.46-.48-.1-.65-.08-.63.16-.61.2-.57.27-.56.32-.53.58-.21.58-.06.64.09.71.14.46.55.26.96.21.65.14.68v.68s.13.67.13.67l-.04.71.32.62.44.51.48.47.6.3.57.34.64.18.66.04.65.02.64-.17.29-.57-.18-.64-.22-.69.39-.6.46-.32.54-.25.41.44.33.51.55.2.57.13.48.34.5.49-.07.62.1.65v.66s.57.27.57.27l.69.06.65-.28.67-.19.68-.05.46.38.53.3.37.46.42-.49.17-.66.52-.44.2-.64.38-.52.46.51.16.69-.19.66-.24.61.05.63-.17.67.1.7-.24.64-.4.55-.39.56-.49.46-.66.22Z"/>
  <path class="cls-9" d="M278.94,239.08h-.02l-.73-.04s-.05,0-.08-.01c-.06-.02-.12-.05-.16-.09l-.53-.48s-.07-.09-.1-.15l-.22-.63-.27-.64c-.03-.07-.04-.15-.02-.22l.18-.69.08-.53-.02-.03-.24.52-.21.6c-.03.1-.12.19-.22.22l-.54.17c-.07.02-.14.02-.2,0l-.69-.2-.68-.22-.68-.27s-.06-.03-.09-.05l-.57-.44s-.09-.09-.11-.15l-.28-.7s-.01-.03-.02-.04l-.18-.7s0-.04-.01-.06l-.07-.68-.15-.54-.35-.27-.54-.03-.63.09-.52.11-.35.32-.03.46.11.58v.05l.04.61v.64c0,.09-.03.17-.09.24l-.4.44-.39.48c-.06.07-.14.12-.23.13l-.7.1c-.1.02-.2-.02-.28-.07l-.54-.44s-.08-.09-.1-.15l-.24-.58-.31-.58c-.04-.08-.05-.17-.03-.25l.15-.67s.03-.09.06-.14l.39-.5.23-.52.03-.56-.11-.58-.22-.57-.26-.61c-.06-.15-.02-.31.09-.41l.48-.41s.02-.02.03-.02l.23-.16.21-.58.12-.55-.18-.56s0-.03-.01-.04l-.11-.55-.38-.4-.03-.03-.4-.53s-.02-.03-.03-.05l-.29-.52-.43-.45c-.05-.05-.08-.11-.09-.19l-.19-1.29s0-.09,0-.14l.16-.6.21-.6s0-.02.01-.03l.27-.56s.01-.02.02-.04l.32-.53c.04-.07.1-.13.18-.15l.57-.21s.06-.02.09-.02l.57-.06s.06,0,.09,0l.64.09.73.14c.08.02.15.06.2.13l.47.55s.06.08.07.14l.26.96.2.63s0,.03.01.04l.14.68s.01.05.01.07v.65s.12.64.12.64c0,.03,0,.06,0,.08l-.04.61.26.5.41.47.42.41.55.27.55.33.56.16.62.04.58.02.44-.11.16-.31-.15-.51-.21-.68c-.03-.1-.02-.21.04-.3l.38-.6s.06-.07.1-.1l.46-.32s.04-.02.05-.03l.55-.26c.14-.06.31-.03.41.08l.41.44s.03.03.04.04l.27.41.41.16.55.12s.09.03.13.06l.47.34s.03.03.04.04l.51.5c.08.08.11.18.1.3l-.07.57.09.6s0,.04,0,.05v.43l.31.15.54.05.57-.24s.03-.01.04-.02l.67-.19s.05-.01.07-.02l.68-.05c.09-.01.18.02.25.08l.44.36.51.28s.07.05.1.08l.1.13.08-.1.15-.57c.02-.08.06-.14.11-.19l.44-.38.17-.54s.03-.07.05-.1l.38-.52c.06-.09.16-.14.27-.15.1-.01.21.04.28.11l.45.51s.07.1.08.16l.16.69c.02.06.01.12,0,.18l-.19.67s0,.02-.01.03l-.22.54.04.54s0,.08-.01.11l-.16.6.09.62c0,.06,0,.13-.02.18l-.25.64s-.02.06-.04.08l-.78,1.1s-.03.04-.05.06l-.49.46s-.07.06-.11.07l-1.26.49-.64.19-.54.37s-.08.04-.12.05l-.56.13-.33.47-.07.07-.46.37-.2.54s-.04.08-.06.11l-.43.51-.42.53c-.06.07-.14.11-.22.13l-.69.1s-.03-.02-.05-.02ZM278.35,238.33l.58.04.51-.08.33-.43.39-.46.21-.57c.02-.06.06-.11.11-.16l.49-.4.39-.54c.05-.07.12-.12.2-.14l.63-.15.54-.37s.06-.04.1-.05l.66-.2.61-.23.57-.22.42-.39.74-1.04.19-.52-.08-.6s0-.09,0-.14l.16-.61-.04-.57c0-.05,0-.11.03-.16l.24-.6.16-.55-.11-.51-.1-.11-.09.12-.19.58c-.02.06-.06.12-.11.16l-.43.36-.14.54c-.02.05-.04.1-.07.14l-.42.5c-.07.08-.18.14-.28.13-.11,0-.21-.05-.28-.13l-.33-.41-.47-.26s-.04-.02-.05-.04l-.35-.29-.5.04-.61.17-.63.27c-.05.03-.11.03-.18.03l-.68-.07s-.08-.02-.13-.03l-.57-.27c-.13-.06-.2-.18-.2-.32v-.63s-.1-.61-.1-.61c0-.04,0-.07,0-.1l.05-.44-.35-.36-.39-.28-.5-.1s-.03-.01-.05-.02l-.55-.21c-.07-.02-.13-.07-.17-.14l-.31-.48-.21-.23-.28.13-.38.26-.26.4.17.53.19.65c.03.09.02.18-.03.26l-.29.57c-.05.09-.13.16-.23.18l-.65.17s-.06.01-.1.01h-.65s-.67-.06-.67-.06c-.03,0-.05,0-.08-.01l-.64-.18s-.06-.02-.08-.04l-.57-.34-.58-.29s-.06-.04-.09-.07l-.48-.46-.46-.53s-.04-.05-.05-.08l-.31-.62c-.03-.06-.05-.12-.04-.18l.04-.67-.11-.62s0-.04,0-.06v-.65s-.14-.62-.14-.62l-.2-.63-.24-.9-.33-.4-.59-.12-.58-.08-.48.05-.42.16-.24.41-.24.53-.19.55-.13.51.16,1.09.39.4s.04.05.05.08l.3.54.37.48.43.46s.07.11.09.17l.13.64.21.63c.02.06.02.13.01.19l-.15.67s0,.03-.01.05l-.26.72c-.03.07-.07.13-.14.17l-.31.21-.27.22.16.38.24.61s.02.04.02.06l.14.66s.01.06.01.09l-.04.67s-.02.08-.03.13l-.27.61s-.03.05-.04.07l-.36.47-.11.47.26.48s.01.02.02.03l.21.52.34.28.41-.06.31-.39.32-.36v-.48s-.04-.57-.04-.57l-.11-.59s-.01-.06,0-.09l.05-.65c0-.09.05-.17.11-.23l.52-.48s.1-.07.17-.09l.64-.15.69-.1s.05,0,.07,0l.68.04c.07,0,.14.03.2.07l.53.41c.07.05.11.11.13.19l.18.68s.01.04.01.05l.07.69.17.65.23.59.45.35.62.24.65.22.57.17.26-.08.16-.45.02-.03.4-.84c.04-.07.09-.13.17-.17l.26-.13c.17-.08.38-.01.47.16l.3.55c.04.07.05.15.04.22l-.11.68-.15.61.23.54.2.56.39.34Z"/>
  <path class="cls-2" d="M284.5,230.84l.41-.6.3-.58.34-.57.3-.58.31-.57.15.11-.48.48-.19.65-.51.45-.25.61-.37.6Z"/>
  <path class="cls-9" d="M284.5,231.19c-.06,0-.13-.02-.19-.06-.16-.1-.21-.32-.11-.48l.36-.59.24-.58s.05-.09.09-.13l.17-.15.18-.3.24-.47c.02-.06.05-.11.09-.16h0s.27-.51.27-.51c.05-.09.14-.16.24-.18.1-.03.2,0,.29.06l.14.11c.08.06.13.16.14.26,0,.1-.04.2-.1.28l-.43.45-.15.52c-.02.06-.05.12-.1.17l-.25.23-.1.17-.29.56s-.01.02-.02.03l-.41.61c-.07.1-.18.16-.3.16Z"/>
  <path class="cls-9" d="M278.19,238.67l-.38.42-.65.27-.43.53-.52.43-.49.45-.47.47-.94.94-.62.31-.49.46-.46.49-.38.57-.55.39-.46.49-.52.43-.5.44-.54.42-.33.61-.47.47-.48.47-.56.39-.49.45-.46.49-.46.48-.42.53-.5.45-.35.58-.4.54-.51.45-.2.68-.47.48.05.04-.12.15-.31-.6-.49-.51-.27-.65-.51-.48-.46-.51-.45-.52-.42-.54-.38-.59-.49-.48-.49-.49-.52-.46-.54-.45-.69-.33.55-.52.22-.67.52-.49.23-.65.38-.58.14-.69.31-.6.22-.66.27-.63.39-.58.34-.6.07-.7.39-.58.28-.63.23-.65.22-.65.15-.68.21-.65.16-.67.29-.63.21-.66.13-.68.21-.65.31-.62.16-.67.22-.64.23-.65.21-.65.17-.67.15-.67.27-.63.34-.61.21-.65.16-.66.11-.62.27.58.2.64.54.41.47.42.35.61.1.67.28.64-.04.68-.44.67-.39.12-.36.56.04.67.23.62.35.58-.23.63-.15.65-.22.62-.24.6.26.61.27.58.56.27.63.02.58-.29.16-.63.17-.58-.06-.62.04-.63.04-.59.3-.54.61-.35.7.09.66.15.48.38.42.61.06.72-.04.74.43.59.6.36.59.35.67.18.65.33.57-.13.22-.65.46-.73.16-.16.17.45-.04.69.04.69.04.68.26.64.56.44Z"/>
  <path class="cls-9" d="M263.59,253.82s-.03,0-.04,0c-.12-.02-.22-.08-.28-.19l-.28-.56-.45-.47s-.06-.07-.07-.11l-.24-.58-.45-.44-.93-1.04-.44-.56-.38-.58-.96-.95-1-.85-.65-.31c-.1-.05-.18-.15-.2-.27-.02-.11.02-.23.11-.31l.48-.46.19-.58c.02-.05.05-.1.09-.15l.45-.43.21-.57s.02-.05.04-.07l.34-.52.13-.63s.02-.06.03-.09l.3-.58.21-.63.28-.66s.02-.04.03-.06l.39-.58.29-.51.06-.63c.01-.06.03-.11.06-.16l.37-.56.26-.6.44-1.24.14-.65s.01-.03.01-.04l.21-.65.16-.65s.01-.05.02-.07l.29-.6.19-.61.13-.66s0-.03.01-.05l.21-.65s.02-.03.02-.05l.29-.58.15-.63s.01-.03.01-.04l.66-1.93.17-.65.15-.66s.01-.05.02-.07l.27-.63s.01-.02.02-.03l.33-.58.2-.61.15-.63.1-.6c.03-.15.15-.28.31-.29.16-.02.31.06.37.21l.27.58s.01.03.02.04l.16.53.45.34.49.44s.06.05.07.09l.35.61s.04.08.04.13l.09.62.26.6c.02.05.03.1.03.16l-.04.68c0,.06-.02.12-.06.17l-.44.67c-.05.07-.11.12-.2.15l-.26.08-.23.35.03.49.21.54.33.55c.06.09.07.2.03.3l-.22.61-.15.63s0,.03-.01.04l-.22.63-.2.47.42.93.38.18.46.02.35-.17.27-1-.06-.55v-.06l.08-1.21c0-.05.02-.1.04-.15l.3-.54c.03-.06.08-.1.13-.14l.61-.35c.07-.04.14-.05.22-.05l.7.09s.03,0,.04,0l.67.15s.1.04.14.07l.47.38s.06.05.08.08l.42.62s.05.1.06.17l.06.72v.05l-.03.61.31.43,1.08.65.61.17s.05.02.07.03l.54.27.25-.06.16-.46s.02-.06.04-.08l.46-.72s.03-.04.04-.05l.15-.16c.09-.09.21-.13.33-.1.12.03.22.11.26.22l.17.46s.03.09.02.14l-.04.67.08,1.29.21.5.48.39c.08.06.13.16.14.25,0,.1-.03.2-.09.27l-.39.42s-.08.07-.13.09l-.57.23-.38.45s-.03.03-.05.05l-.52.43-.48.44-1.41,1.41s-.06.05-.09.06l-.57.29-.45.42-.42.45-.36.55s-.06.07-.09.09l-.52.36-.44.46s-.02.02-.03.03l-.52.43-.49.44-.49.39-.3.55s-.04.06-.06.08l-.95.95s-.03.02-.05.04l-.54.38-.47.44-.91.96-.4.5s-.03.03-.04.05l-.46.42-.32.54s-.02.02-.03.03l-.4.54s-.03.04-.05.05l-.44.39-.17.57c-.02.06-.05.1-.09.15l-.32.33c0,.07-.04.14-.08.18l-.13.15c-.04.07-.14.12-.24.12ZM263.09,252.15l.45.45s.05.06.06.09l.04.08.17-.18.18-.59c.02-.07.06-.13.11-.17l.48-.43.37-.49.34-.57s.04-.06.07-.08l.48-.43.4-.51.95-1,.51-.47s.03-.02.04-.03l.53-.38.9-.89.31-.57s.05-.08.09-.11l.53-.42.49-.43.51-.43.45-.47s.04-.03.05-.05l.5-.35.34-.52s.03-.04.04-.05l.46-.49.51-.47s.05-.05.08-.06l.57-.29,1.39-1.38.5-.46.49-.42.42-.5s.08-.08.14-.1l.58-.24.07-.08-.26-.21s-.08-.09-.1-.14l-.27-.64s-.03-.07-.03-.11l-.08-1.37v-.26s-.07.13-.07.13l-.21.61c-.04.11-.14.2-.26.23l-.57.14c-.08.02-.17,0-.24-.03l-.62-.31-.63-.18s-.06-.02-.09-.04l-1.19-.71s-.08-.06-.11-.09l-.43-.59c-.05-.06-.07-.15-.07-.22l.03-.71-.05-.6-.33-.49-.37-.29-.57-.13-.56-.07-.43.24-.21.39-.08,1.1.06.59s0,.09-.01.14l-.33,1.2c-.03.1-.09.19-.18.23l-.58.29c-.05.03-.11.04-.17.04l-.63-.02c-.05,0-.1-.02-.15-.04l-.56-.27c-.07-.04-.13-.1-.17-.17l-.27-.58-.27-.62c-.04-.09-.04-.19,0-.28l.24-.6.21-.58.15-.63s.01-.03.01-.04l.18-.47-.26-.43s-.02-.04-.03-.06l-.24-.62s-.02-.07-.03-.1l-.04-.68c0-.08.02-.15.06-.21l.37-.56c.05-.07.11-.13.19-.15l.26-.08.31-.48.03-.51-.24-.56s-.02-.06-.03-.09l-.09-.6-.29-.49-.43-.39-.52-.39c-.06-.04-.1-.1-.13-.18l-.02-.05-.02.09-.22.68s-.02.05-.03.07l-.33.59-.25.58-.14.64-.17.68-.21.67-.45,1.28-.16.65s-.02.05-.03.08l-.3.59-.2.6-.13.66s0,.03-.01.04l-.2.66s-.01.03-.02.04l-.28.59-.16.63-.21.66-.14.66s-.01.03-.01.04l-.45,1.29-.28.65s-.02.04-.03.06l-.34.51-.06.62s-.02.09-.05.14l-.34.6-.38.57-.26.6-.21.62s-.02.04-.02.05l-.29.56-.13.65s-.03.09-.05.12l-.35.54-.22.61c-.02.05-.05.1-.09.14l-.45.43-.19.59c-.02.05-.05.1-.09.15l-.17.16.22.1s.05.03.08.05l1.06.91,1,.99s.04.04.05.06l.38.59.41.52.9,1.01.48.47s.06.08.08.12l.23.6Z"/>
  <path class="cls-2" d="M263.59,253.31l-.02.64-.17.64-.16.64-.33.58-.54.4-.54.36-.56.42h-.69s-.71.05-.71.05l.36-.58.14-.66-.08-.67-.42-.55-.06-.69-.4-.54-.31-.58-.35-.55-.38-.54-.4-.52-.4-.53-.22-.65-.37-.54-.36-.48-.46-.44-.19-.59-.19-.59.18-.59.52-.27.57.17.64.08.55.43.54.44.44.55.48.49.49.48.47.51.49.48.39.58.51.47.43.54.28.65.55.47.2.68.06-.2Z"/>
  <path class="cls-9" d="M259.89,257.39c-.13,0-.24-.07-.31-.17-.07-.11-.06-.26,0-.37l.33-.53.11-.54-.06-.52-.36-.48c-.05-.05-.07-.11-.07-.18l-.05-.59-.33-.46s-.02-.03-.03-.04l-.31-.57-.34-.53-.37-.52-.79-1.04s-.04-.07-.05-.1l-.2-.59-.34-.5-.34-.45-.43-.42s-.08-.09-.09-.15l-.39-1.18c-.02-.07-.03-.15,0-.21l.18-.59c.03-.09.09-.17.18-.21l.52-.27c.08-.04.18-.05.27-.02l.54.16.61.07c.07,0,.13.03.18.07l.55.43.55.45s.04.03.05.05l.44.55,1.42,1.46.48.47s.03.03.05.06l.36.54.48.45s.03.03.04.04l.43.54s.04.05.05.08l.24.57.49.41c.05.05.09.1.11.17l.08.26c.13.06.21.19.2.33l-.02.64s0,.05-.01.08l-.32,1.29s-.02.06-.04.09l-.32.58s-.06.08-.1.11l-.54.39-.55.36-.54.41c-.06.05-.13.07-.21.07h-.69s-.7.04-.7.04h-.01ZM260.24,254.44l.35.47c.04.05.07.11.07.18l.08.67s0,.08,0,.11l-.14.66s-.02.08-.05.11h0s.03.01.03.01h.58s.47-.36.47-.36l.55-.37.46-.34.27-.47.31-1.2v-.21s-.03-.05-.03-.08l-.17-.58-.47-.4s-.08-.08-.1-.13l-.26-.6-.39-.48-.49-.45s-.04-.04-.05-.06l-.36-.55-.46-.45-.48-.52-.96-.98-.44-.55-.51-.42-.46-.35-.55-.07s-.04,0-.06-.01l-.43-.13-.26.13-.1.34.32.99.39.38s.03.03.04.04l.37.48.38.55s.03.06.04.09l.2.59,1.15,1.54.36.57.31.58.39.52c.04.05.06.11.07.18l.04.58Z"/>
  <path class="cls-11" d="M271.18,227.09l-.18-.6-.31-.61.09-.69-.1-.67-.11-.68v-.7s-.43-.82-.43-.82l.33-.55.49-.46.44-.51.33-.6.41-.53.52-.44.3-.62.44-.51.51-.46.26-.65.53-.44.31-.61.41-.53.6-.38.39-.55.42-.53.39-.55.36-.57.44-.51.48-.47.32-.6.39-.55.53-.43.45-.51.42-.52.36-.57.43-.52.31-.61.41-.53.43-.52.52-.44.47-.49.39-.54.45-.49.36-.57.41-.54.52-.45.41-.53.26-.66.5-.46.39-.55.46-.49.47-.48.45-.51.24-.67.59-.38.34-.59.43-.52.41-.53.4-.55.39-.55.4-.55.56-.41.42-.53.39-.55.29-.63.49-.47.39-.55.45-.5.44-.51.48-.48.26-.65.42-.53.43-.52.52-.45.4-.48.42.57.45.6.49.57-.46.45-.31.6-.38.55-.51.46-.22.67-.51.45-.34.58-.48.47-.41.53-.28.63-.51.45-.31.61-.36.56-.39.55-.44.51-.51.46-.4.54-.43.52-.4.54-.41.54-.25.65-.53.44-.26.64-.56.42-.32.6-.46.49-.26.64-.42.52-.34.57-.4.54-.51.45-.47.48-.24.65-.53.45-.43.52-.4.55-.39.55-.33.59-.39.55-.34.57-.46.49-.39.55-.33.59-.4.54-.48.48-.35.57-.41.53-.42.53-.41.54-.37.56-.35.57-.46.49-.52.45-.41.54-.36.57-.41.53-.33.59-.49.47-.24.65-.38.55-.47.48-.49.47-.24.65-.43.52-.49.47-.4.54-.37.56-.45.49-.4.54-.32.55Z"/>
  <path class="cls-9" d="M271.18,227.45h-.04c-.14-.02-.26-.11-.3-.25l-.18-.57-.3-.58c-.03-.07-.05-.14-.04-.21l.08-.64-.2-1.3s0-.04,0-.06v-.61s-.39-.75-.39-.75c-.06-.11-.06-.24.01-.35l.33-.55s.04-.05.06-.07l.49-.47.39-.45.3-.56s.02-.04.04-.05l.41-.53s.03-.04.05-.05l.46-.4.27-.55s.03-.05.05-.08l.44-.5.03-.03.44-.41.22-.57c.02-.06.06-.1.1-.15l.47-.39.28-.54s.02-.04.04-.05l.41-.53s.06-.06.09-.08l.54-.34.34-.49.43-.54.39-.54.35-.55s.02-.03.03-.04l.44-.51.46-.45.29-.56s.02-.03.02-.04l.39-.55s.04-.05.07-.07l.51-.41.43-.48.4-.49.35-.55s.02-.03.03-.04l.4-.48.3-.58s.02-.04.03-.05l.41-.54.44-.53s.03-.03.04-.04l.52-.45.42-.44.38-.53s.02-.02.03-.03l.43-.48.35-.54.42-.55s.03-.04.05-.05l.49-.43.35-.47.24-.61s.05-.09.09-.13l.47-.43.36-.52s.02-.03.03-.04l.94-.97.39-.44.22-.6c.03-.08.07-.14.14-.18l.52-.34.29-.52s.02-.03.04-.05l.43-.52.79-1.06.78-1.09s.05-.06.08-.08l.53-.38.39-.49.35-.51.28-.6s.05-.08.08-.11l.47-.44.37-.52.03-.03.89-1,.44-.44.24-.59s.03-.06.05-.09l.85-1.05s.03-.03.05-.04l.49-.43.38-.46c.07-.09.17-.13.29-.13.11,0,.21.06.28.15l.86,1.17.48.55c.13.14.11.35-.02.49l-.42.42-.29.55s-.02.02-.02.03l-.38.55s-.03.05-.05.07l-.44.4-.19.58c-.02.06-.06.11-.1.16l-.46.43-.31.53s-.04.06-.06.08l-.46.46-.37.47-.26.59s-.05.09-.09.12l-.46.41-.28.55-.02.03-.36.56-.4.56s-.02.02-.02.03l-.44.51s-.02.02-.03.03l-.47.43-.38.52-.44.53-.77,1.02-.23.6c-.02.06-.06.1-.1.15l-.46.38-.22.56c-.03.06-.07.11-.12.15l-.49.37-.28.53s-.03.05-.05.08l-.42.44-.23.58s-.03.07-.05.09l-.41.5-.33.55s-.02.02-.02.03l-.4.53s-.03.04-.05.05l-.51.45-.41.41-.22.58c-.02.06-.06.1-.1.15l-.49.43-.41.49-.76,1.05-.32.58s-.01.02-.02.03l-.39.55-.33.55s-.03.04-.05.06l-.44.48-.36.51-.32.58s-.01.03-.02.04l-.4.54s-.03.03-.04.05l-.45.45-.33.54s-.02.02-.02.03l-1.23,1.58-.35.55-.34.56s-.03.04-.04.06l-.46.49s-.02.02-.03.03l-.49.43-.38.51-.34.54s-.02.02-.02.03l-.4.51-.32.57s-.04.06-.07.08l-.43.42-.22.57s-.02.06-.04.08l-.38.55s-.03.03-.04.05l-.47.48-.44.42-.22.58s-.03.07-.06.1l-.43.52-.03.03-.47.45-.38.52-.36.54s-.02.03-.03.04l-.45.5-.36.49-.31.53c-.06.11-.18.18-.3.18ZM271.04,225.82l.23.44.33-.45.46-.51.35-.54.41-.55s.03-.03.04-.05l.47-.46.38-.46.22-.59s.05-.09.09-.13l.49-.47.44-.46.34-.49.23-.61s.05-.09.09-.13l.46-.43.31-.54s.02-.03.03-.04l.4-.52.34-.56.43-.56s.03-.04.05-.05l.51-.44.42-.46.33-.54.38-.57.42-.56.83-1.05.34-.56s.03-.04.05-.06l.46-.46.36-.5.32-.57s.01-.03.02-.04l.39-.55s.02-.03.03-.04l.43-.47.33-.54.39-.56.32-.58s.02-.02.02-.03l.79-1.1.44-.54s.03-.03.04-.04l.45-.39.21-.56s.04-.09.08-.13l.47-.48.49-.45.37-.49.34-.56s.02-.03.03-.04l.39-.48.23-.59s.04-.08.07-.11l.43-.45.3-.56s.06-.08.1-.11l.47-.36.22-.55c.02-.06.06-.1.1-.15l.46-.38.21-.56s.03-.06.05-.09l.8-1.07.44-.53.39-.53s.03-.04.04-.06l.49-.44.42-.48.38-.53.34-.54.29-.59s.05-.08.08-.1l.45-.41.24-.56s.03-.05.05-.08l.42-.53s.02-.03.03-.04l.45-.44.32-.54s.04-.06.07-.09l.44-.39.19-.58c.02-.06.05-.11.1-.15l.47-.43.34-.5.3-.58s.04-.06.07-.09l.22-.22-.28-.31-.62-.83-.11.13s-.03.03-.04.05l-.5.43-.79.97-.24.61s-.04.08-.08.11l-.48.48-.88.98-.38.53s-.03.04-.05.05l-.45.42-.26.57s-.02.03-.03.05l-.39.55-.43.54s-.04.05-.07.07l-.52.38-1.15,1.59-.42.54-.42.52-.32.56s-.07.09-.12.13l-.49.32-.2.56s-.04.08-.07.11l-.44.51-.93.96-.37.53s-.04.04-.05.06l-.44.4-.22.58s-.03.06-.05.09l-.41.53s-.03.04-.05.05l-.49.43-.39.51-.35.55s-.02.03-.03.04l-.43.48-.38.53s-.02.03-.03.04l-.47.48-.52.45-.41.49-.38.5-.3.58s-.03.05-.04.07l-.41.5-.35.55s-.02.02-.03.03l-.42.52-.46.51s-.02.03-.04.04l-.49.4-.34.49-.31.58s-.04.06-.06.09l-.48.47-.41.47-.35.55-.4.56-.42.54-.38.53s-.06.07-.1.1l-.55.35-.35.45-.3.58s-.05.08-.09.11l-.46.38-.22.57c-.02.05-.05.09-.09.13l-.48.45-.4.45-.28.58s-.05.08-.09.11l-.49.42-.37.48-.31.57s-.03.04-.04.06l-.44.51-.48.46-.2.34.34.65c.03.05.04.11.04.17v.67l.2,1.32s0,.07,0,.1l-.08.58Z"/>
  <path class="cls-11" d="M284.57,230.8l-.51-.35-.36-.51-.58-.2-.61-.06-.65.26-.67.23-.71.02-.48-.4-.04-.63.07-.63-.1-.64-.44-.55.44-.5.22-.67.43-.52.39-.56.35-.57.51-.47.31-.6.42-.53.27-.63.49-.48.35-.58.28-.63.46-.5.38-.56.33-.59.4-.55.34-.58.45-.51.4-.54.25-.65.48-.49.28-.63.38-.56.35-.57.43-.53.48-.49.31-.6.35-.58.44-.51.44-.52.24-.65.51-.47.32-.59.33-.59.49-.48.35-.57.3-.61.46-.51.4-.54.28-.63.37-.57.48-.49.25-.64.4-.55.47-.5.21-.67.49-.48.27-.63.37-.57.57-.43.34-.58.38-.56.35-.58.32-.6.4-.54.44-.52.28-.63.35-.58.5-.48.41-.54.39-.55.32-.6.38-.54.61.16.58.28.57.29.52.41.55.34.57.23-.38.52-.29.61-.34.59-.45.52-.34.58-.17.69-.43.53-.31.6-.4.55-.41.54-.37.56-.16.69-.54.46-.26.64-.36.57-.34.58-.32.59-.31.6-.32.59-.51.48-.34.58-.31.6-.21.66-.43.53-.32.6-.39.55-.37.56-.42.54-.18.68-.35.58-.35.57-.46.51-.38.56-.35.58-.35.57-.31.6-.42.54-.26.64-.32.59-.46.51-.16.69-.47.51-.29.61-.44.53-.36.57-.21.66-.47.51-.25.64-.31.6-.33.58-.39.55-.46.52-.34.58-.38.56-.35.58-.36.57-.19.68-.49.49-.21.69-.31-.26-.22.64-.38.55-.15.66-.33.56-.35.59Z"/>
  <path class="cls-9" d="M284.57,231.16c-.07,0-.15-.03-.2-.07l-.51-.35s-.06-.06-.09-.09l-.29-.41-.44-.16-.49-.05-.56.22-.68.24s-.07.02-.1.02l-.71.02c-.08,0-.17-.03-.24-.08l-.47-.4c-.08-.06-.12-.15-.13-.25l-.04-.63v-.05l.06-.58-.08-.5-.38-.48c-.1-.14-.1-.33.01-.46l.39-.44.2-.59s.03-.08.06-.11l.43-.52.36-.53.34-.56s.04-.05.06-.07l.46-.43.29-.55s.03-.04.04-.06l.4-.49.24-.59s.05-.08.08-.11l.46-.45.31-.52.27-.61s.04-.07.06-.09l.44-.48.36-.54.32-.56s.02-.03.03-.04l.4-.55.32-.55s.03-.04.04-.05l.45-.51.35-.47.23-.6s.05-.09.08-.13l.44-.44.26-.57s.02-.04.03-.05l.38-.56.35-.56s.02-.03.02-.04l.43-.53.47-.47.29-.56.36-.59s.02-.04.04-.05l.84-.98.22-.59c.02-.05.05-.1.09-.14l.46-.43.64-1.14s.04-.06.06-.08l.45-.45.34-.54.29-.58s.03-.06.05-.08l.46-.51.35-.48.26-.59s.02-.04.03-.05l.37-.56s.03-.04.05-.06l.43-.44.23-.57s.03-.05.04-.08l.4-.55s.02-.02.03-.03l.41-.44.18-.59c.02-.06.05-.11.09-.15l.44-.43.24-.57s.02-.04.03-.06l.37-.57s.05-.06.08-.09l.51-.39.31-.53.39-.57.34-.57.31-.58s.02-.03.03-.05l.41-.54.43-.49.26-.58s.01-.03.02-.04l.34-.58s.04-.06.06-.08l.48-.46.39-.52.36-.53.32-.58s.01-.03.02-.04l.38-.55c.09-.12.24-.18.39-.14l.61.17s.04.01.06.02l.58.27.58.3s.04.02.05.04l.51.4.51.32.54.22c.1.04.18.13.2.23.03.11.01.22-.05.31l-.35.5-.28.58-.34.61s-.03.04-.04.06l-.43.49-.29.51-.16.64c-.02.05-.04.1-.07.14l-.41.49-.3.56s-.02.03-.03.05l-.81,1.09-.33.49-.14.63c-.02.07-.06.14-.11.19l-.47.4-.22.55s-.02.04-.03.06l-.36.57-.65,1.16-.64,1.19s-.04.06-.07.09l-.47.45-.32.54-.29.56-.2.63s-.04.08-.06.12l-.41.5-.3.57s-.01.02-.02.04l-.76,1.11-.38.5-.16.61s-.02.06-.04.09l-.7,1.16s-.03.04-.04.05l-.44.49-.37.54-.69,1.14-.3.58s-.02.04-.03.05l-.39.5-.23.59s-.01.03-.02.04l-.32.59s-.03.05-.05.07l-.4.44-.14.6c-.02.06-.04.11-.08.16l-.43.46-.27.57s-.03.05-.05.08l-.42.51-.33.51-.2.61c-.02.05-.04.09-.08.14l-.43.45-.22.58s-.01.02-.01.03l-.31.6-.34.6-.42.58s-.02.02-.02.03l-.44.48-.33.55-.39.58-.68,1.1-.18.63c-.02.06-.05.11-.09.15l-.43.44-.18.6c-.04.11-.13.2-.24.24-.08.02-.16.02-.23-.01l-.06.17s-.03.06-.04.08l-.34.49-.14.59s-.02.07-.04.1l-.68,1.14c-.05.09-.14.15-.23.17-.05,0-.08,0-.1,0ZM284.31,230.19l.15.1.45-.77.14-.61s.03-.08.05-.12l.35-.51.2-.59c.04-.11.13-.19.24-.23.07-.02.14-.02.21.01l.06-.2c.02-.06.04-.1.09-.15l.43-.43.17-.58s.02-.07.04-.09l.71-1.15.39-.57.33-.56s.03-.04.05-.06l.45-.49.38-.54.32-.55.29-.57.24-.63s.04-.08.07-.11l.42-.45.19-.58s.02-.06.04-.08l.36-.57s.02-.03.03-.04l.41-.48.27-.57s.04-.07.06-.09l.41-.44.14-.6c.01-.06.04-.11.08-.16l.43-.47.3-.54.24-.61s.03-.06.05-.08l.4-.52.29-.57.72-1.17.39-.57s.02-.02.03-.04l.44-.48.66-1.08.17-.63s.03-.09.06-.13l.42-.54.74-1.09.31-.58s.03-.04.04-.06l.39-.47.19-.6s.02-.04.03-.06l.31-.6.35-.6s.04-.05.06-.07l.46-.45.93-1.73.34-.59.35-.55.24-.6c.03-.06.06-.1.1-.14l.45-.39.13-.58s.03-.09.05-.13l.38-.56.8-1.08.3-.57s.03-.04.04-.06l.39-.46.15-.6s.03-.06.04-.09l.33-.58s.03-.04.05-.06l.43-.49.31-.55.28-.59s.02-.04.03-.06l.11-.16-.15-.06s-.04-.02-.05-.03l-.55-.34s-.02-.02-.03-.02l-.49-.39-.54-.28-.54-.26-.34-.09-.22.32-.31.58s-.01.03-.02.04l-.39.56-.42.55s-.03.03-.04.04l-.46.44-.31.53-.27.61s-.03.06-.06.09l-.44.52-.37.5-.31.58-.36.59-.39.57-.33.57s-.05.07-.09.1l-.52.4-.32.49-.26.6s-.05.08-.08.12l-.43.42-.18.58c-.02.05-.04.1-.08.14l-.45.49-.36.49-.24.6s-.04.08-.08.12l-.46.46-.34.52-.27.6s-.03.05-.04.07l-.41.54-.45.49-.28.56-.37.6s-.03.05-.05.06l-.45.45-.63,1.14s-.04.06-.07.09l-.44.41-.21.57s-.04.08-.06.1l-.86,1.02-.34.55-.3.58s-.04.06-.06.08l-.48.49-.39.48-.34.56-.36.54-.27.6s-.04.07-.07.1l-.43.43-.22.58s-.03.06-.05.09l-.41.54-.44.51-.33.55-.41.55-.32.57-.39.58s-.02.03-.03.04l-.43.46-.26.57s-.02.03-.02.04l-.35.58s-.04.05-.06.07l-.44.43-.24.57s-.03.06-.05.08l-.4.5-.3.57s-.04.07-.07.1l-.47.44-.33.54-.4.57-.41.49-.2.6s-.04.08-.07.12l-.24.27.25.32s.07.1.08.16l.1.64s0,.06,0,.09l-.06.61.02.44.26.21.52-.02.62-.21.63-.25c.05-.02.11-.03.17-.02l.61.06s.05.01.08.02l.58.2c.07.02.14.07.18.13l.33.46Z"/>
  <g class="cls-10">
    <g>
      <path class="cls-8" d="M307.13,184.38v.1s-.6.29-.6.29l-.53.43-.67.2-.57.36-.52.44-.6.32-.52.45-.57.36-.61.29-.54.42-.66.22-.48.51-.58.35-.63.38-.45-.61-.45-.6-.44-.61.65-.17.63-.2.61-.28.64-.19.65-.15.57-.4.65-.16.63-.21.61-.25.68-.07.6-.29.65-.17.59-.34.67-.09.6-.32Z"/>
      <path class="cls-9" d="M299.04,189.85c-.11,0-.22-.05-.29-.15l-1.34-1.84c-.07-.09-.09-.22-.04-.33.04-.11.13-.19.24-.22l.65-.17.59-.19.59-.27.05-.02.64-.19.61-.14.51-.36s.07-.04.11-.05l.65-.16.6-.2.6-.24s.06-.02.09-.03l.61-.07.55-.27s.04-.02.06-.03l.6-.16.54-.32s.09-.04.14-.05l.61-.08.54-.29c.1-.06.23-.06.33,0,.1.06.18.16.19.28l.02.1c.02.15-.06.3-.2.36l-.57.27-.49.41s-.08.06-.13.07l-.62.19-.51.32-.5.43s-.04.03-.07.04l-.56.3-.48.42s-.03.03-.05.04l-.58.35s-.02.02-.03.02l-.58.28-.51.39s-.06.04-.1.05l-.57.19-.42.44s-.05.04-.07.06l-1.2.73c-.07.05-.13.06-.19.06ZM298.29,187.88l.14.19.7.95.89-.54.45-.47s.09-.07.15-.09l.6-.2.49-.38s.04-.03.06-.04l.6-.29.54-.33.49-.43s.04-.04.07-.05l.45-.24-.49.05-.57.23-.65.22-.61.15-.51.36s-.08.05-.13.06l-.65.15-.59.18-.58.27s-.03.01-.04.02l-.79.23Z"/>
    </g>
  </g>
  <path class="cls-8" d="M276.09,226.39l-.39.57.31.64.2.69-.41.59-.67.06-.65.26-.61-.32-.63-.17-.67-.15-.46-.51-.54-.38-.44-.54.46-.52.28-.63.54-.43.35-.58.31-.6.41-.53.4-.54.53-.44.41-.53.42-.53.32-.59.32-.6.51-.46.28-.62.55-.43.24-.66.53-.44.46-.49.37-.56.32-.59.5-.46.39-.55.26-.64.51-.45.36-.56.45-.49.35-.57.32-.59.52-.45.37-.56.34-.58.35-.57.46-.49.32-.59.54-.43.4-.54.31-.6.44-.51.31-.61.4-.54.46-.49.35-.58.53-.44.27-.64.42-.53.4-.54.42-.53.41-.53.42-.52.45-.51.42-.53.34-.58.42-.52.46-.49.24-.65.45-.51.41-.54.38-.56.53-.45.33-.59.44-.51.3-.61.51-.46.37-.56.3-.61.48-.48.39-.54.35-.57.42-.52.41-.57.56.46.59.41.69.25.54.49.67.29.61.38.67.43-.44.61-.48.48-.31.6-.35.57-.44.52-.43.52-.24.65-.51.47-.32.59-.33.59-.48.48-.35.57-.31.6-.45.51-.41.55-.28.63-.37.57-.47.47-.25.64-.4.55-.47.5-.21.67-.49.48-.27.64-.37.56-.57.43-.34.58-.38.56-.35.57-.32.6-.4.54-.44.51-.28.63-.34.58-.5.48-.41.54-.38.55-.32.59-.39.55-.27.64-.36.57-.39.56-.48.48-.43.53-.35.57-.41.54-.32.6-.37.57-.48.49-.36.56-.21.68-.46.51-.35.58-.42.53-.44.52-.41.54-.19.69-.57.43-.29.63-.39.55-.37.57-.35.58-.36.59-.6-.18-.5-.33-.5-.23-.33-.44-.52-.2-.51.03-.43.36Z"/>
  <path class="cls-9" d="M274.49,229.56c-.06,0-.11-.01-.16-.04l-.58-.3-.59-.16-.66-.14c-.07-.02-.14-.05-.19-.1l-.43-.48-.51-.36s-.06-.04-.07-.07l-.43-.54c-.11-.14-.1-.33.01-.46l.42-.48.26-.58c.02-.05.06-.1.1-.13l.48-.4.32-.53.3-.58s.02-.04.04-.06l.81-1.06s.04-.04.06-.06l.5-.42.79-.99.61-1.17s.05-.07.08-.09l.45-.41.26-.56c.03-.05.06-.09.1-.13l.46-.37.21-.56c.02-.05.06-.11.1-.15l.52-.43.43-.45.35-.54.3-.57s.04-.07.07-.09l.47-.44.34-.48.24-.6c.02-.05.05-.1.09-.14l.47-.42.34-.52s.02-.03.03-.04l.43-.48.34-.54.32-.58s.05-.07.07-.09l.48-.42.34-.52.32-.56.35-.58s.03-.04.05-.06l.43-.46.3-.56s.05-.08.09-.11l.51-.4.35-.48.31-.58s.03-.04.04-.06l.41-.48.29-.57s.02-.04.03-.05l.4-.54s.02-.02.03-.03l.43-.47.33-.55s.05-.06.08-.09l.46-.39.22-.56s.03-.06.05-.09l.42-.52.39-.53,1.26-1.59.45-.52.39-.49.33-.56s.02-.03.03-.04l.43-.52.43-.46.22-.58s.04-.08.07-.11l.45-.5.39-.51.36-.54s.04-.05.07-.07l.47-.41.31-.53s.03-.04.04-.06l.41-.47.27-.57s.05-.08.08-.11l.48-.43.33-.51.3-.59s.04-.07.07-.1l.46-.45.38-.52.34-.55s.02-.03.03-.04l.42-.52.41-.56c.06-.08.15-.13.24-.14.1-.01.2.02.27.08l.56.46.53.37.65.23s.08.04.12.07l.49.45.62.26s.03.02.05.03l1.28.81c.08.05.14.14.16.23.02.1,0,.2-.06.28l-.44.6s-.02.03-.04.04l-.44.45-.29.55-.36.6s-.02.03-.04.05l-.84.98-.22.59c-.02.06-.05.1-.09.14l-.46.43-.64,1.14s-.04.06-.06.08l-.45.45-.33.54-.29.58s-.03.06-.05.08l-.45.51-.36.48-.26.59s-.02.04-.03.05l-.37.56s-.03.04-.05.06l-.43.44-.23.57s-.03.06-.04.08l-.4.55s-.02.02-.03.03l-.41.44-.18.59c-.02.06-.05.1-.09.15l-.44.43-.23.57s-.02.04-.03.06l-.37.56s-.05.07-.08.09l-.51.39-.31.52-.38.57-.34.57-.31.58s-.02.03-.03.04l-.4.54-.42.49-.26.58s-.01.02-.02.04l-.34.58s-.04.05-.06.07l-.47.45-.39.52-.36.53-.31.58s-.02.03-.02.04l-.37.52-.25.6s-.02.04-.03.06l-.36.57-.4.57s-.03.03-.04.04l-.48.48-.39.48-.34.56s-.02.02-.02.03l-.4.52-.31.57-.38.59s-.03.04-.04.06l-.45.47-.32.49-.19.63s-.04.1-.08.14l-.44.47-.33.55s-.02.03-.03.04l-.87,1.05-.35.47-.17.63c-.02.07-.06.14-.13.18l-.5.38-.25.54s-.02.04-.03.05l-.39.55-.36.56-.71,1.16c-.08.14-.25.2-.41.16l-.6-.18s-.07-.02-.09-.04l-.48-.32-.47-.21c-.05-.03-.1-.06-.14-.11l-.27-.36-.35-.14-.31.02-.29.26-.25.36.22.46s.02.03.02.05l.21.69c.03.1.02.21-.05.31l-.42.58c-.06.09-.15.14-.26.15l-.61.06-.6.23s-.09.02-.14.02ZM272.76,228.24l.56.13.65.16s.05.02.07.03l.47.25.49-.2s.06-.02.1-.02l.51-.05.22-.31-.15-.49-.29-.62c-.05-.11-.04-.24.03-.35l.39-.57s.04-.05.06-.07l.42-.36c.06-.06.14-.08.21-.09l.51-.03s.1,0,.15.03l.52.2c.06.03.11.06.16.11l.28.37.42.19s.04.02.05.03l.46.31.29.09.58-.94.38-.57.38-.54.28-.59c.02-.05.06-.1.1-.13l.47-.36.16-.57s.03-.08.06-.12l.41-.54.85-1.04.33-.56s.03-.04.04-.06l.41-.44.18-.59s.03-.06.04-.09l.37-.57s.03-.04.04-.06l.46-.47.34-.54.31-.57.03-.05.4-.52.35-.56s.02-.03.03-.04l.43-.52.48-.49.37-.53.34-.53.25-.6s.03-.05.04-.07l.38-.53.31-.58s.02-.03.02-.04l.39-.55.42-.55s.03-.03.04-.04l.46-.44.31-.52.27-.61s.03-.07.06-.09l.44-.52.37-.5.31-.58.36-.59.39-.57.33-.57s.05-.07.09-.1l.52-.4.32-.48.26-.6s.05-.08.08-.12l.43-.42.18-.59s.04-.09.08-.14l.45-.48.36-.49.24-.6s.04-.08.08-.12l.46-.46.34-.51.27-.6s.03-.05.04-.07l.4-.55.44-.49.28-.56.37-.6s.04-.05.05-.06l.45-.45.63-1.14s.04-.06.07-.09l.45-.41.21-.57s.04-.07.06-.1l.86-1.02.34-.55.3-.58s.04-.06.06-.08l.46-.47.2-.28-.93-.59-.65-.27s-.07-.04-.1-.06l-.48-.45-.63-.23s-.06-.02-.08-.04l-.59-.41-.29-.23-.19.26-.42.52-.34.55-.41.56s-.03.03-.04.05l-.44.43-.28.56s-.01.03-.02.04l-.37.56s-.04.05-.06.07l-.46.41-.26.55s-.03.06-.05.08l-.42.48-.32.56s-.05.07-.08.09l-.48.42-.34.52-.42.55-.43.48-.22.59s-.04.08-.07.12l-.46.49-.39.48-.33.56s-.02.02-.03.04l-.42.53-.45.52-1.24,1.57-.39.53-.39.49-.24.59c-.02.06-.06.1-.1.14l-.48.4-.31.53s-.03.04-.05.06l-.44.48-.37.51-.3.58s-.03.05-.05.07l-.41.48-.3.57s-.02.03-.03.04l-.39.54s-.05.05-.07.07l-.49.39-.29.53s-.03.05-.06.08l-.42.47-.67,1.12-.38.57s-.04.05-.06.07l-.47.41-.3.54-.36.58s-.02.04-.04.06l-.43.48-.35.54s-.04.05-.06.07l-.45.4-.23.56s-.03.05-.04.07l-.39.55s-.03.04-.05.05l-.46.43-.29.54-.38.59s-.03.04-.04.05l-.46.49s-.02.02-.04.03l-.45.38-.21.57c-.02.06-.06.11-.11.16l-.48.38-.24.55s-.05.08-.09.12l-.46.41-.6,1.14s-.02.04-.04.06l-.83,1.05s-.03.04-.05.05l-.49.42-.77,1.01-.29.57-.36.59s-.05.07-.08.09l-.47.38-.24.55s-.04.07-.06.09l-.26.29.21.27.51.35s.04.03.06.05l.38.42Z"/>
  <g class="cls-3">
    <g>
      <path class="cls-11" d="M303.35,192.04l-.57-.36-.6-.38-1.26-.7-.56-.45-.7-.23-.49-.56.45-.33.55-.39.64-.26.51-.46.58-.34.57-.36.66-.21.46-.55.69-.17.55-.4.49-.5.66-.21.54-.42.63-.3-.46.49-.2.64-.46.51-.24.62-.19.65-.3.59-.28.6-.42.54-.29.59-.29.6-.17.65-.17.65-.32.46Z"/>
      <path class="cls-9" d="M303.35,192.4c-.06,0-.13-.02-.19-.06l-1.18-.74-1.24-.68s-.04-.02-.05-.04l-.51-.42-.64-.21c-.06-.02-.11-.06-.16-.1l-.49-.55c-.07-.08-.09-.18-.08-.28s.06-.19.14-.25l1.01-.73s.05-.03.07-.04l.57-.24.46-.42s.03-.03.05-.04l1.15-.7s.06-.03.08-.04l.57-.18.39-.47c.05-.06.11-.1.19-.11l.62-.16.47-.34.47-.48s.09-.07.15-.09l.6-.2.49-.38s.04-.03.06-.04l.63-.3c.15-.07.34-.03.44.11.1.14.09.33-.03.45l-.4.43-.18.57s-.05.09-.08.13l-.42.45-.21.56-.18.61s-.01.04-.03.06l-.3.59-.28.59s-.02.05-.04.07l-.4.51-.55,1.14-.33,1.27s-.03.08-.06.11l-.32.46c-.07.11-.18.17-.29.17ZM301.11,190.31l1.23.68.91.58.09-.13.33-1.24s.01-.04.02-.06l.58-1.2s.03-.04.04-.06l.4-.51.26-.56.29-.57.18-.61.25-.65s.04-.08.07-.11l.31-.34-.56.18-.43.44s-.03.03-.05.04l-.55.4s-.08.05-.12.06l-.58.15-.39.46c-.04.05-.1.09-.16.11l-.63.2-1.09.67-.48.44s-.07.05-.1.07l-.6.24-.66.47.17.19.61.2s.08.03.11.06l.54.44Z"/>
    </g>
  </g>
  <g class="cls-6">
    <path class="cls-8" d="M306.81,193.93l-.58-.35-.59-.25-.55-.34-.64-.16-.49-.46-.69-.14.32-.68.23-.62.28-.6.19-.64.47-.52.27-.61.28-.6.24-.62.25-.62.37-.56.15-.67.51-.47.27-.63.02-.05v.06s.09.68.09.68l-.04.68-.03.68-.19.67.2.69-.24.67.03.68.15.68-.19.67.05.69-.02.68-.09.68.13.68-.12.71Z"/>
  </g>
  <g class="cls-4">
    <path class="cls-9" d="M306.81,194.28c-.06,0-.13-.02-.19-.05l-.56-.34-.57-.25s-.03-.01-.05-.02l-.5-.31-.59-.15c-.06-.02-.11-.05-.16-.09l-.42-.39-.59-.11c-.1-.02-.2-.09-.25-.19-.05-.1-.05-.21,0-.31l.32-.68.22-.6.28-.6.18-.61c.02-.05.04-.1.08-.14l.43-.47.52-1.17.48-1.22s.02-.05.04-.07l.33-.51.13-.6c.02-.07.05-.14.1-.18l.46-.43.26-.58c.06-.17.24-.27.42-.22.17.05.29.21.26.39h0s.09.64.09.64c0,.02,0,.04,0,.07l-.06,1.34s-.01.06-.02.09l-.16.57.17.59c.03.07.02.15,0,.22l-.22.6.03.58.14.65c.01.06.01.11,0,.17l-.17.61.05.61-.02.71v.04l-.09.63.11.63s0,.08,0,.12l-.13.71c-.02.11-.09.21-.2.26-.05.03-.09.04-.15.04ZM305.8,193l.57.24s.03.01.04.02l.14.08.03-.14-.11-.62s0-.07,0-.11l.09-.66.02-.66-.05-.65s0-.08.01-.13l.16-.58-.13-.6s0-.04,0-.06l-.03-.68s0-.09.02-.14l.2-.56-.17-.58c-.02-.06-.02-.14,0-.2l.18-.63.04-.88-.18.17-.12.56s-.03.09-.05.13l-.35.53-.47,1.2-.54,1.22s-.04.07-.07.1l-.42.45-.17.57s-.01.04-.02.05l-.28.6-.22.6-.14.3.25.04c.07.02.13.05.18.09l.42.4.55.14s.07.03.1.04l.52.32Z"/>
  </g>
  <path class="cls-9" d="M259.99,257.06l-.45.48-.45.49-.35.56-.4.53-.33.58-.45.49-.48.47-.28.62-.43.51-.37.55-.36.56-.44.51-.31.59-.53.43-.42.52-.32.59-.3.6-.57.41-.41.53-.33.58-.28.62-.48.47-.36.56-.43.51-.44.51-.37.56-.41.53-.3.61-.53.44-.35.58-.43.52-.28.64-.46.49-.46.51-.3.63-.54.45-.39.55-.43.52-.28.63-.4.54-.56.43-.29.62-.51.45-.38.56-.37.56-.43.52-.38.55-.45.5-.23.66-.56.42-.23.66-.46.49-.42.52-.46.49-.43.52-.35.58-.44.51-.4.54-.32.6-.31.6-.43.52-.39.55-.51.46-.33.59-.53.44-.39.55-.27.64-.41.53-.51.46-.23.66-.58.4-.29.62-.39.55-.46.5-.37.56-.45.51-.29.63-.55.43-.24.67-.47.49-.38.56-.42.53-.33.59-.58.41-.4.55-.4.54-.37.56-.36.57-.47.49-.26.65-.57.42-.28.64-.38.56-.5.47-.31.61-.39.49-.38.51-.52.41-.19.64-.59.42-.36.58-.28.66-.54.46-.35.6-.41.56-.46.51-.51-.43-.37-.59-.61-.33-.66-.08-.64.03-.6.27-.64.28-.51.47-.46.51-.35.6-.34.6-.55.44-.5.52-.71.17-.31.69-.54.49-.49-.14-.68-.17-.57.3-.6.22-.5.4-.36.54-.44.43.36-.56.45-.5.35-.57.32-.59.51-.45.37-.56.33-.58.35-.57.46-.49.32-.59.54-.43.39-.54.31-.6.43-.51.31-.6.4-.54.45-.49.35-.58.53-.44.26-.64.41-.53.4-.54.41-.53.41-.53.42-.52.44-.51.41-.53.35-.57.42-.52.46-.49.24-.65.44-.5.41-.53.37-.56.52-.45.34-.58.44-.51.29-.61.51-.46.36-.56.3-.61.48-.48.39-.54.35-.57.41-.53.36-.56.47-.49.42-.52.27-.64.51-.47.3-.61.38-.53.36-.53.43-.48.48-.45.32-.56.35-.54.45-.47.44-.48.28-.66.54-.46.04-.18.35-.56.49-.45.36-.54.32-.58.46-.47.41-.51.29-.6.39-.54.49-.45.27-.62.41-.52.47-.47.23-.67.52-.46.29-.63.39-.55.59-.41.37-.57.4-.55.38-.57.34-.59.46-.58.5-.55.36-.7.43-.66.51-.45.42-.52.4-.53.34-.58.41-.53.29-.61.39-.55.4-.53.5-.46.45-.5.37-.56.43-.52.34-.58.39-.55.49-.46.39-.55.23-.66.48-.47.36-.56.44-.5.45-.49.42-.52.21-.67.57-.41.31-.6.41-.53.39-.54.38-.56.34-.53.35-.53.52-.4.37-.51.34-.54.25-.62.46-.46.35-.54.42-.49.4-.5.49-.55.28-.71.43-.59.45-.59.53-.51.3.56.37.54.36.55.4.52.29.59.44.5.35.55.18.65.47.52.07.67.18.64-.17.64-.21.63Z"/>
  <path class="cls-9" d="M205.67,319.64c-.08,0-.16-.03-.23-.08-.14-.11-.17-.32-.07-.47l.36-.56s.02-.03.03-.04l.42-.48.33-.54.32-.58s.05-.07.07-.09l.48-.42.34-.52.32-.56.35-.58s.03-.04.04-.06l.43-.46.3-.56s.05-.08.09-.11l.5-.4.34-.48.3-.58s.03-.05.05-.06l.4-.48.29-.57s.02-.03.03-.05l.4-.54s.02-.02.03-.03l.43-.47.33-.54s.05-.07.08-.09l.46-.38.22-.55s.03-.06.05-.09l.42-.53.39-.53,1.24-1.58.45-.52.39-.49.33-.56s.02-.03.03-.04l.42-.52.43-.46.22-.58s.04-.08.07-.11l.44-.5.39-.51.36-.54s.04-.05.06-.07l.47-.41.3-.53s.03-.04.04-.06l.41-.47.27-.57s.05-.08.09-.11l.47-.43.33-.51.29-.59s.04-.07.07-.09l.46-.46.38-.52.34-.55s.01-.03.03-.04l.41-.53.34-.53s.03-.04.04-.05l.47-.49.37-.46.25-.59s.05-.09.08-.12l.45-.43.27-.55s.02-.04.04-.05l.38-.52.35-.53s.02-.03.03-.04l.43-.48s.02-.02.03-.02l.44-.41.29-.52.37-.56s.03-.03.04-.05l.84-.9.25-.6s.06-.09.1-.13l.45-.39.02-.07s.02-.07.04-.1l.35-.56s.04-.05.06-.07l.46-.42.34-.51.3-.55s.04-.05.06-.08l.45-.46.38-.47.28-.57s.02-.03.03-.05l.38-.54s.03-.04.05-.06l.44-.4.24-.55s.03-.06.05-.08l.41-.52.03-.03.42-.42.21-.59c.02-.06.05-.1.1-.15l.46-.42.26-.56s.02-.04.04-.06l.39-.55s.05-.06.08-.08l.53-.37.33-.52.41-.56.36-.56.34-.57s.02-.03.03-.04l.46-.58.49-.54.34-.66s.01-.02.02-.03l.43-.66s.04-.05.06-.07l.49-.43.41-.49.38-.51.33-.56s.02-.03.03-.04l.38-.5.27-.58s.02-.04.04-.05l.38-.55.41-.54s.03-.04.04-.05l.5-.46.41-.46.36-.54s.01-.02.02-.03l.41-.49.33-.56.4-.57s.03-.04.05-.05l.46-.44.33-.48.21-.61c.02-.05.05-.1.08-.14l.45-.45.34-.53s.02-.03.04-.04l.9-1.01.36-.45.19-.6c.03-.08.07-.14.14-.19l.51-.35.27-.53s.02-.04.03-.05l.41-.53.38-.53,1.05-1.6s.05-.06.08-.08l.48-.37.34-.46.32-.5.24-.59s.04-.08.08-.11l.43-.44.33-.51s.02-.03.03-.04l.82-.98.46-.52.25-.65s.03-.06.05-.08l.88-1.18s.03-.03.04-.04l.53-.52c.08-.08.19-.11.3-.09.11.02.21.08.26.18l.3.56.71,1.06.39.49s.03.04.04.06l.27.55.41.47s.03.03.03.04l.35.56s.03.06.04.09l.16.56.42.45c.05.05.08.13.09.2l.07.64.17.61c.02.06.02.13,0,.19l-.16.64-.21.65c-.02.05-.04.1-.08.14l-.88.95-.33.53-.41.54-.31.56s-.03.05-.05.07l-.44.49-.45.44-.26.56s-.03.06-.06.08l-.42.48-.71,1.09s-.02.03-.03.04l-.41.47-.29.56s-.05.08-.09.11l-.51.41-.37.47-.31.56-.3.59c-.03.06-.06.1-.11.14l-.52.38-.36.47-.32.56-.26.59s-.04.08-.08.11l-.46.44-.34.53s-.02.02-.03.03l-.85,1.01-.35.54-.41.52-.28.58s-.06.08-.09.11l-.48.4-.32.53s-.02.03-.03.04l-.4.48-.26.59s-.04.07-.06.1l-.88.96-.28.58s-.06.08-.09.11l-.5.42-.37.52-.42.5-.26.58s-.03.05-.04.07l-.4.54s-.04.05-.07.07l-.48.37-.25.54s-.05.08-.09.11l-.47.43-.72,1.08s-.02.02-.02.03l-.43.52-.36.53s-.02.03-.03.04l-.4.44-.21.59c-.02.07-.06.13-.12.17l-.47.36-.2.56s-.04.09-.08.13l-.46.49-.41.5-.47.52-.4.48-.34.55-.03.05-.44.51-.36.51-.61,1.18s-.03.05-.05.07l-.43.52-.36.53s-.03.04-.06.06l-.46.42-.3.54s-.05.07-.08.1l-.5.42-.34.47-.25.61s-.03.06-.05.08l-.41.53-.04.04-.44.4-.21.58c-.02.07-.07.13-.13.17l-.51.35-.25.54s-.02.04-.04.05l-.39.55s-.02.03-.03.04l-.44.47-.35.54s-.02.03-.03.04l-.41.47-.27.58c-.03.05-.06.1-.1.14l-.47.36-.21.56s-.04.09-.07.13l-.45.47-.36.53-.41.53-.32.57s-.06.09-.1.12l-.54.38-.76,1.05-.71,1.11s-.03.04-.05.05l-.42.45-.23.58c-.02.06-.07.12-.12.16l-.49.36-.23.55s-.02.05-.03.06l-.38.56s-.04.04-.05.06l-.45.43-.28.56s-.03.04-.04.06l-.76.99s-.04.05-.06.07l-.43.34-.16.53c-.03.08-.07.14-.14.19l-.53.39-.32.5-.26.63c-.02.05-.06.1-.1.14l-.49.42-.32.55-.42.59s-.02.03-.03.03l-.46.51c-.13.15-.35.16-.49.04l-.51-.43s-.05-.05-.07-.08l-.32-.52-.47-.25-.56-.07-.54.03-1.14.45-.46.43-.42.46-.66,1.17s-.05.07-.09.1l-.53.42-.48.5s-.1.08-.17.1l-.54.13-.23.53s-.05.08-.08.12l-.55.49c-.09.09-.22.11-.34.08l-.49-.15-.53-.14-.45.24s-.03.02-.04.02l-.55.2-.41.33-.33.5s-.03.04-.05.06l-.44.43c-.08.07-.17.1-.26.1ZM207.43,317.29l-.06.1.06-.02.55-.29c.08-.04.17-.05.25-.03l.99.27.34-.31.28-.62c.05-.1.14-.17.24-.2l.61-.15.43-.44s.02-.02.04-.03l.49-.4.65-1.15.05-.06.47-.51.52-.49s.06-.05.1-.07l1.23-.54s.08-.03.13-.03l.64-.03h.07l.66.09s.08.02.13.04l.61.33c.05.03.1.07.14.13l.34.55.2.17.21-.24.4-.54.33-.57s.05-.07.08-.09l.47-.41.24-.57s.02-.04.03-.06l.37-.58s.06-.07.09-.1l.49-.35.16-.53c.02-.07.06-.13.11-.18l.47-.38.72-.94.29-.58s.04-.07.07-.1l.47-.45.34-.49.26-.61c.02-.06.06-.11.11-.15l.49-.36.22-.56s.05-.08.08-.11l.44-.47.72-1.11.8-1.11s.05-.06.08-.08l.52-.36.3-.52.03-.05.42-.53.36-.54s.03-.03.04-.05l.42-.44.22-.59c.02-.06.06-.12.12-.16l.48-.38.25-.55s.04-.06.06-.09l.43-.48.35-.55s.02-.03.04-.05l.44-.48.36-.51.28-.59c.03-.06.07-.1.11-.14l.49-.34.2-.55c.02-.05.05-.1.09-.14l.48-.44.37-.46.24-.6s.03-.05.04-.07l.4-.54s.04-.05.06-.07l.48-.4.3-.53s.04-.07.07-.09l.48-.44.36-.52.43-.51.61-1.17s.02-.03.03-.04l.4-.54.43-.51.34-.55s.02-.03.03-.04l.43-.52.47-.51.41-.5.43-.46.21-.59c.02-.06.06-.12.12-.16l.47-.36.19-.56s.04-.09.07-.13l.43-.48.36-.53.43-.53.73-1.1s.04-.05.06-.07l.46-.41.26-.56c.03-.05.06-.09.11-.13l.51-.4.35-.47.26-.59s.03-.06.05-.08l.43-.52.38-.54s.04-.05.06-.07l.47-.4.27-.55s.03-.06.06-.08l.88-.96.26-.58s.03-.06.05-.08l.42-.5.34-.56s.05-.07.08-.09l.47-.39.27-.54s.03-.04.04-.06l.41-.53.36-.54s.02-.02.02-.03l.85-1,.35-.54s.03-.04.05-.06l.43-.42.26-.56.34-.6s.02-.03.03-.05l.41-.53s.05-.05.08-.07l.49-.36.26-.53.33-.6s.02-.04.03-.05l.42-.52s.04-.04.05-.05l.48-.39.28-.53s.03-.05.05-.07l.42-.48.72-1.09s.02-.02.03-.03l.4-.47.26-.57s.05-.08.08-.11l.48-.47.4-.45.31-.55s.02-.03.03-.04l.4-.53.33-.54s.03-.04.04-.05l.85-.92.18-.55.14-.53-.16-.54s-.01-.04-.01-.06l-.06-.56-.39-.43s-.06-.09-.08-.14l-.17-.59-.31-.49-.42-.48s-.04-.05-.05-.08l-.27-.56-.38-.49-.84-1.29-.18.17-.83,1.11-.26.67s-.04.08-.07.11l-.49.55-.81.96-.34.52s-.03.04-.05.06l-.41.41-.22.55s-.02.04-.03.06l-.34.54-.38.53s-.05.05-.07.07l-.47.36-1.03,1.56-.4.56-.4.52-.29.57s-.07.09-.11.13l-.47.34-.18.56s-.04.08-.07.12l-.42.52-.89.97-.35.54s-.03.04-.05.06l-.42.42-.2.58s-.03.06-.05.09l-.39.55s-.03.04-.04.05l-.47.44-.36.52-.32.56s-.03.03-.04.05l-.42.5-.36.54s-.02.03-.03.04l-.44.5-.5.46-.39.51-.36.51-.27.59s-.02.05-.04.07l-.39.52-.33.56s-.02.03-.02.04l-.4.54-.44.53s-.03.03-.04.04l-.48.42-.4.6-.35.68s-.03.06-.05.08l-.51.55-.43.54-.33.57-.39.58-.41.56-.35.55s-.06.07-.09.1l-.54.38-.34.47-.28.6s-.05.08-.08.11l-.45.4-.2.58s-.05.09-.09.13l-.46.46-.37.46-.25.57s-.05.09-.08.13l-.47.43-.34.48-.28.57s-.02.05-.04.07l-.41.51-.03.03-.43.44-.29.54-.39.57s-.04.05-.05.06l-.45.42-.29.47-.03.12c-.02.07-.06.14-.11.18l-.48.41-.24.59s-.04.07-.06.1l-.87.94-.34.51-.31.55s-.04.06-.07.09l-.47.43-.41.45-.34.52-.38.51-.29.58s-.05.07-.07.1l-.45.42-.23.57s-.03.06-.05.08l-.42.52-.46.49-.34.54-.43.53-.34.56-.41.56s-.03.03-.04.04l-.44.43-.27.56s-.02.02-.02.04l-.37.56s-.04.05-.06.07l-.46.41-.26.55s-.03.06-.05.08l-.42.48-.32.55s-.05.07-.08.09l-.48.42-.34.52-.42.55-.42.47-.22.59s-.04.09-.07.12l-.46.49-.39.48-.33.55s-.02.03-.03.04l-.41.53-.45.52-.41.51-1.59,2.08-.24.59c-.02.05-.06.1-.1.14l-.48.4-.32.53s-.03.04-.04.06l-.44.48-.36.49-.29.58s-.03.05-.05.07l-.41.48-.3.56s-.02.03-.03.04l-.39.55s-.04.05-.07.07l-.48.39-.29.53s-.03.05-.05.07l-.43.47-.66,1.11-.38.58s-.04.05-.06.07l-.47.41Z"/>
  <path class="cls-2" d="M209.98,328.83l-.61.26-.64.26-.71-.04-.54-.44-.44-.49-.39-.55-.22-.68-.47-.54-.26-.66-.47-.53-.44-.54-.47-.52-.56-.42-.6-.35-.68-.17-.67-.09-.73.06-.5.54-.55.45-.57.44-.43.58-.6.38-.63.2-.61-.2-.51-.44-.21-.64-.1-.61.45-.45.54-.41.52-.44.61-.3.65-.23.54-.43.63-.26.61-.31.61-.31.65-.21.6-.34.7-.08.65-.21.61-.3.57-.3.39-.18h.01s.39-.49.39-.49l.38-.52.57-.3.52-.36.61-.18.55.2.65.07.43-.58.37-.65.71-.19.54-.45.47-.51.3-.64.48-.49.49-.48.4-.57.65-.29.6-.29.66-.02.69.06.59.38.36.61.54.46-.51.46-.73,1.1-.43.52-.37.55-.45.49-.22.66-.55.42-.23.66-.45.48-.42.52-.45.48-.42.52-.35.57-.43.51-.39.54-.31.6-.31.6-.22.56-.09.63-.2.63.03.66-.2.64-.02.65.16.66-.08.65Z"/>
  <path class="cls-9" d="M208.72,329.7h-.02l-.71-.04c-.07,0-.15-.03-.21-.08l-.54-.44s-.03-.03-.04-.04l-.45-.49s-.02-.03-.03-.04l-.38-.55s-.04-.06-.05-.09l-.2-.6-.42-.48s-.05-.07-.06-.11l-.23-.59-.43-.48-.45-.54-.43-.48-.52-.39-.55-.32-.61-.16-.61-.08-.55.04-.41.44s-.03.02-.04.03l-1.08.86-.4.55s-.06.07-.09.09l-.6.38s-.06.03-.08.04l-.63.2c-.07.02-.15.02-.22,0l-.61-.2s-.09-.04-.13-.07l-.5-.45s-.08-.09-.1-.15l-.21-.64s-.01-.03-.01-.05l-.1-.61c-.02-.11.02-.23.09-.31l.45-.45s.03-.03.04-.04l.54-.4.5-.43s.05-.04.08-.05l.61-.3.62-.23.49-.4s.06-.04.09-.05l.64-.26,1.18-.6s.04-.02.05-.02l.61-.2.56-.33s.09-.04.14-.05l.67-.07.58-.19,1.5-.76.33-.41.38-.51s.07-.08.12-.11l.55-.29.51-.35s.07-.04.1-.05l.61-.17c.07-.02.15-.02.22,0l.51.19.41.04.3-.41.36-.63c.05-.08.13-.14.21-.17l.64-.18.46-.39.41-.44.27-.58s.04-.07.07-.1l.48-.49.48-.46.38-.55c.04-.05.09-.09.15-.13l.65-.28.59-.28s.09-.03.14-.03l.66-.02h.03l.7.05c.06,0,.11.03.17.06l.58.39s.09.07.11.12l.33.56.49.43c.08.07.12.16.13.27,0,.1-.04.2-.11.27l-.47.43-.71,1.07s-.02.02-.02.04l-.43.51-.35.52s-.02.03-.03.04l-.4.44-.2.59c-.02.07-.06.13-.12.17l-.46.35-.2.55s-.04.09-.07.13l-.46.48-.4.49-.47.51-.39.48-.33.55s-.02.03-.03.05l-.43.51-.36.49-.6,1.16-.2.51-.09.59s0,.05-.02.06l-.19.56.03.59s0,.08-.02.13l-.19.59v.56s.14.61.14.61c.01.04.02.08.01.13l-.09.64c-.02.13-.1.23-.21.28l-1.26.52s-.09.02-.14.02ZM208.15,328.96l.51.03.98-.41.05-.38-.14-.58s-.01-.06-.01-.09v-.65s.02-.07.03-.1l.18-.57-.04-.59s0-.09.02-.13l.2-.6.09-.6s.01-.05.02-.08l.22-.56s.01-.02.02-.04l.63-1.2s.02-.03.03-.04l.4-.54.43-.51.34-.55s.02-.03.03-.04l.42-.52.47-.51.4-.5.43-.45.2-.58c.03-.07.07-.13.13-.17l.46-.35.19-.55s.04-.09.07-.13l.43-.48.36-.53.43-.52.72-1.09s.03-.05.06-.07l.2-.19-.23-.2s-.05-.06-.08-.09l-.31-.54-.44-.29-.59-.04-.56.02-.54.26-.56.24-.34.49s-.03.04-.05.05l-.49.48-.43.44-.27.58s-.04.07-.07.09l-.47.5-.03.03-.54.45s-.08.06-.13.07l-.57.16-.3.52s-.01.02-.02.04l-.43.58c-.08.1-.2.15-.32.14l-.65-.07s-.06-.01-.09-.02l-.44-.16-.44.13-.47.33s-.03.02-.04.02l-.49.26-.33.46-.4.51c-.05.06-.11.1-.19.13l-.34.16-1.17.6s-.04.01-.05.02l-.65.2s-.05.01-.07.02l-.63.07-.53.3s-.04.03-.07.03l-.62.2-1.19.61-.61.24-.49.4s-.07.05-.1.06l-.65.23-.54.26-.48.42-.54.4-.3.31.07.41.17.52.38.33.43.14.48-.15.51-.32.39-.53s.04-.05.07-.07l1.09-.86.48-.52c.06-.07.15-.1.23-.11l.73-.06s.05,0,.08,0l.66.09s.03,0,.04,0l.68.18s.06.02.09.04l.6.35s.02.02.03.02l.56.42s.04.03.05.05l.47.52.45.54.46.52s.05.07.07.1l.23.6.43.49s.06.08.07.13l.2.63.34.49.41.46.45.35Z"/>
  <path class="cls-11" d="M203.51,340.77l.04-.73.17-.7.21-.69.31-.64-.45.48-.55.38-.57.36-.58.35-.6.35-.24-.7v-.73l.16-.7-.04-.74.26-.63-.57.28-.65.23-.67.14-.68.1-.68.13-.6.39-.7.03-.68.13-.67.14-.65.21.16-.66v-2.06s.16-.69.16-.69l-.05-.69-.15-.68-.09-.67-.09-.68-.23-.66-.16-.67v-.7s-.17-.67-.17-.67l-.22-.65-.07-.74-.67.27-.64.11-.56.33-.58.27-.6.24-.56.32-.55.34-.5.43-.58.29-.65.19-.59.57-.7.41.31-.6.24-.65.48-.49.5-.46.54-.42.49-.48.6-.33.6-.32.54-.41.58-.35.54-.43.61-.31.64-.28.49-.49.59-.35.54-.42.49-.46.54-.42.28.6.12.67.44.53.67.11.56-.31.7-.23.54-.47.45-.56.43-.59.65-.32.67-.26.71.09.63.32.6.35.54.44.59.39.33.64.45.53.33.61.47.54.28.64.28.62.53.41.51.45.68.05.68-.11.63-.41v.73s-.29.6-.29.6l-.17.63-.6.17-.62.08-.65.21-.44.52-.13.66-.1.65.22.65-.19.7.16.71-.18.69-.19.67-.29.64-.31.61-.29.63-.43.54-.45.53-.44.55-.49.52-.65.31Z"/>
  <path class="cls-9" d="M203.51,341.12c-.07,0-.14-.03-.19-.06-.1-.07-.17-.19-.16-.31l.04-.74s0-.04.01-.07l.19-.75-1.12.69-.61.35c-.09.06-.2.07-.3.03-.1-.04-.18-.11-.21-.22l-.23-.7s-.02-.08-.02-.11v-.73s0-.05.01-.08l.15-.65-.04-.67-.48.18s-.03.01-.05.01l-.67.15-.71.1-.6.11-.55.35c-.05.03-.11.05-.17.06l-.68.03-1.3.26-.63.2c-.12.04-.26.01-.35-.08-.09-.08-.14-.21-.1-.34l.15-.63v-2.02s.01-.05.02-.07l.14-.64-.04-.61-.15-.65-.18-1.36-.22-.62s0-.03-.01-.04l-.16-.67s-.01-.05-.01-.07v-.66s-.15-.61-.15-.61l-.22-.64s-.02-.06-.02-.08l-.03-.27-.23.09s-.05.02-.07.02l-.58.1-.51.3-.61.29-.59.24-.54.31-.52.32-.48.41s-.04.03-.07.04l-.58.3s-.04.02-.06.03l-.56.17-.53.51s-.05.04-.07.05l-.7.41c-.14.08-.31.05-.42-.05-.11-.11-.15-.28-.07-.42l.31-.58.23-.63s.04-.09.08-.13l.47-.49.52-.47.54-.43.48-.47s.05-.04.08-.06l1.19-.64.52-.4.58-.36.52-.42s.04-.03.06-.04l.61-.31.59-.26.45-.45s.05-.04.07-.05l.56-.33.52-.41.48-.45.56-.44c.08-.07.2-.09.3-.07.11.02.2.1.24.2l.28.6s.02.06.02.09l.1.58.29.35.42.07.45-.26s.04-.02.06-.03l.63-.21.46-.41.43-.54.42-.57s.08-.08.13-.11l.66-.32.69-.27c.06-.02.12-.03.18-.02l.71.09s.08.02.11.03l.63.32.62.35s.03.03.05.04l.54.44.56.38c.05.03.09.08.12.13l.31.6.42.5s.03.04.05.06l.31.58.44.5s.05.06.06.09l.51,1.18.46.35.43.39.53.03.56-.09.57-.38c.11-.07.25-.08.36-.02.11.06.19.18.19.31v.73c.01.06,0,.11-.03.17l-.28.57-.15.59c-.03.12-.13.22-.25.26l-.6.17s-.03.01-.05.02l-.6.07-.52.17-.31.37-.2,1.13.19.56c.02.07.03.14,0,.21l-.16.62.14.63c.01.06.01.11,0,.17l-.37,1.37s-.01.03-.02.05l-.29.64-.31.63-.29.62s-.03.05-.05.08l-1.31,1.61-.52.55s-.06.06-.1.07l-.65.31c-.05.02-.1.03-.16.03ZM203.9,340.08v.1s.05-.03.05-.03l.45-.47.41-.53.86-1.03.27-.59.31-.63.28-.6.33-1.24-.14-.63c-.02-.06-.01-.11,0-.17l.16-.6-.19-.55c-.02-.06-.02-.11-.01-.18l.1-.65.13-.67c.01-.06.04-.11.08-.16l.44-.52s.1-.09.16-.11l.65-.2s.04-.01.07-.02l.61-.07.38-.11.11-.43s.02-.05.03-.07l.26-.52-.08.06s-.09.05-.14.06l-.68.11s-.05,0-.08,0l-.69-.05c-.08,0-.16-.04-.21-.09l-.51-.45-.51-.4s-.08-.08-.1-.14l-.53-1.21-.44-.49s-.03-.05-.04-.07l-.31-.58-.43-.5s-.03-.04-.04-.06l-.29-.56-.52-.34-.55-.44-.58-.33-.56-.29-.56-.07-.58.22-.55.27-.38.52-.46.57s-.03.03-.04.04l-.54.47s-.08.05-.12.07l-.67.22-.53.3c-.07.04-.15.05-.23.04l-.67-.11c-.08-.02-.16-.06-.21-.13l-.44-.53s-.06-.1-.07-.16l-.11-.63-.07-.15-.18.14-.48.44-.56.44s-.03.02-.04.03l-.55.32-.46.46s-.07.06-.11.07l-.64.28-.56.28-.51.41s-.03.02-.04.02l-.58.36-.51.4s-.04.02-.05.03l-1.16.62-.46.45s-.02.02-.03.03l-.53.42-.48.45-.36.38.14-.13s.09-.07.14-.08l.61-.18.52-.26.46-.4s.03-.02.04-.03l.55-.34.57-.33s.03-.01.04-.02l.6-.24.57-.27.53-.31s.08-.04.13-.04l.6-.1.64-.26c.1-.04.22-.03.32.03s.16.16.17.27l.06.7.21.6s.01.03.01.04l.16.67s0,.05.01.07v.66s.16.61.16.61l.22.64s.01.05.02.07l.18,1.37.15.64s.01.04.01.06l.05.69s0,.07-.01.1l-.14.66v.65s0,.68,0,.68v.69s0,.05-.02.08v.05s.04-.01.04-.01c.01,0,.03-.01.04-.01l1.35-.27s.03,0,.05,0l.6-.03.53-.33s.08-.04.13-.05l.68-.13.7-.1.63-.14.6-.22.55-.27c.14-.07.29-.04.4.06.11.1.15.26.09.4l-.23.55.04.67s0,.06-.01.09l-.15.67v.63l.08.24.8-.48.56-.35.51-.35.42-.45c.13-.13.32-.15.46-.06.15.1.2.29.12.45l-.29.61-.2.67-.17.64Z"/>
  <path class="cls-11" d="M201.82,349.2l-.54.39-.59.31-.62.26-.64.22-.55.38-.56.37-.63.23-.56.36-.64.21-.55.38-.65.19-.54.42-.56.35-.64.22-.56.36-.6.29-.61.27-.61.26-.6.3-.57.34-.55.39-.64.22-.58.32-.56.38-.64.36.11-.73.04-.68.05-.67.14-.67.1-.67.11-.67.09-.67.07-.68.05-.68.07-.68.13-.66.17-.67-.11-.69.11-.67.05-.68.06-.68.14-.67.18-.67.14-.69-.13-.73.22-.68.13-.69.1-.7.03-.71.09-.69.62-.26.65-.23.66-.18.71-.02.66-.18.64-.27.66-.19.67-.18.64-.3.67-.17.7-.03.67-.16.65-.23.7-.04.62-.33.69-.08.63-.28.66-.2.61-.19-.21.66-.12.71.05.72v.71l.1.81.62-.46.61-.3.62-.3.44-.53.55-.43-.27.68-.26.67-.14.71-.14.64-.2.64-.07.67-.14.66-.04.67-.19.64-.23.64v.68s-.16.65-.16.65l-.1.66-.08.66-.18.65-.03.68-.25.63Z"/>
  <path class="cls-9" d="M187.03,357.34c-.07,0-.14-.02-.2-.06-.11-.08-.17-.21-.15-.35l.11-.71.08-1.35s0-.03,0-.04l.14-.67.21-1.32.08-.66.07-.67.04-.67.07-.69.14-.7.16-.61-.1-.63s0-.07,0-.11l.11-.67.1-1.33s0-.03,0-.04l.15-.67.18-.68.13-.6-.12-.66c-.01-.06,0-.11.01-.17l.22-.66.12-.67.09-.67.03-.69.09-.72c.02-.13.1-.23.22-.28l.62-.26.67-.23.68-.19s.06-.01.09-.02l.66-.02.6-.17.61-.26s.03-.01.04-.01l1.3-.36.6-.29s.04-.02.06-.02l.67-.18s.05-.01.08-.01l.66-.02.63-.16.62-.22s.06-.02.09-.03l.62-.04.55-.3s.08-.04.13-.04l.64-.08.58-.26s.03-.01.04-.02l1.27-.39c.13-.04.26,0,.35.09.09.1.13.23.08.36l-.2.63-.11.65.05.68v.71s.03.19.03.19l.14-.1s.04-.03.05-.03l1.16-.57.41-.47s.03-.03.05-.05l.55-.43c.13-.1.3-.1.43,0,.13.09.18.27.12.42l-.52,1.31-.28,1.33-.2.64-.07.64-.14.66-.04.65s0,.06-.02.08l-.19.64-.21.6v.61s0,.07,0,.1l-.17.63-.09.64-.08.66s0,.03-.01.05l-.17.61-.03.64s-.01.08-.02.11l-.26.63c-.03.06-.07.11-.12.16l-.54.39s-.03.02-.05.02l-.59.31-.65.27-.6.22-1.08.72s-.05.03-.07.04l-.59.22-.53.34s-.06.03-.09.04l-.59.19-.52.35s-.06.03-.09.04l-.59.18-.48.38-.6.38s-.05.03-.07.04l-.59.21-.52.34s-.03.02-.04.02l-.6.29-1.24.54-.58.29-.55.32-.52.38s-.06.04-.09.05l-.61.21-.56.31-.54.36-.65.38c-.06.03-.13.04-.18.04ZM187.57,354.95l-.08,1.32s0,.02,0,.04l.54-.35.61-.34s.03-.02.05-.03l.59-.2.51-.36.61-.35.61-.31,1.24-.54.57-.28.54-.35s.05-.03.08-.04l.6-.2.53-.33.51-.4s.07-.05.12-.06l.59-.18.52-.34s.06-.03.09-.04l.6-.19.52-.34s.05-.03.07-.04l.59-.22,1.08-.72s.05-.03.08-.04l.63-.23.6-.25.54-.28.43-.31.19-.47.02-.61s0-.05.02-.08l.17-.63.08-.64.1-.67s0-.03,0-.04l.16-.6v-.63s0-.08.01-.13l.23-.64.17-.58.04-.63s0-.04,0-.05l.14-.66.07-.64s0-.04.02-.06l.19-.64.27-1.3-1.16.57-.59.44c-.1.08-.23.09-.35.05-.11-.05-.2-.16-.21-.28l-.11-.81s0-.04,0-.05v-.71l-.05-.7s0-.06,0-.09l.12-.71s.01-.03.01-.05h0s-.59.18-.59.18l-.61.27s-.07.03-.1.03l-.63.07-.56.3s-.1.04-.15.04l-.65.04-.6.21-.7.17s-.05.01-.07.01l-.66.02-.6.16-.6.28s-.04.02-.06.02l-1.3.36-.62.26s-.03.01-.04.02l-.66.18s-.06.01-.08.02l-.67.02-.62.17-.63.22-.42.17-.06.48-.03.68v.04l-.1.7-.13.71s-.01.03-.01.05l-.2.59.11.64s0,.09,0,.14l-.14.69-.18.68-.13.63-.1,1.33-.1.65.1.64s0,.1-.01.15l-.17.66-.13.65-.06.64-.04.66-.07.69-.09.68-.22,1.35-.14.66Z"/>
  <path class="cls-8" d="M188.57,344.85l-.71-.02-.66.13-.65.13-.65.2h-.68l-.65.2-.65.17-.66.13-.65.17-.69-.08-.64.24-.64.22-.69.02.17-.68.07-.69.2-.65.29-.63.09-.68.18-.66.23-.64.27-.63.22-1.34.26-.64.11-.67.29-.63.1-.68.31-.62.06-.68.14-.69.57-.36.45-.48.51-.42.53-.4.53-.39.51-.42.48-.46.44-.51.72-.36.64-.43.06.63.13.69v.7s.11.69.11.69l.09.69v.7l.04.7.03.7.06.7.07.7.1.69.07.69.02.7-.18.69.11.72-.11.69-.05.7-.06.7-.15.69-.1.74Z"/>
  <path class="cls-9" d="M179.96,346.72c-.1,0-.21-.05-.28-.13-.07-.09-.1-.2-.07-.31l.17-.66.07-.66s0-.04.01-.06l.2-.65s.01-.03.02-.05l.27-.57.08-.63s.01-.03.01-.05l.18-.65.24-.67.26-.61.21-1.3s.01-.06.02-.08l.24-.6.11-.64s.02-.06.03-.09l.27-.58.1-.63s.02-.07.03-.1l.28-.56.05-.61s0-.03,0-.04l.14-.69c.02-.1.07-.18.16-.23l.53-.34.42-.45s.02-.02.04-.03l.51-.42,1.07-.8.49-.41.46-.44.41-.48s.07-.06.11-.08l.71-.35.62-.42c.1-.07.24-.08.35-.03s.19.16.2.29l.06.63.13.66s0,.04,0,.06v.67s.21,1.37.21,1.37c0,.01,0,.03,0,.05v.7l.07,1.39.06.69.07.69.1.68.07.71v.73s0,.06,0,.09l-.16.62.1.65s.01.07,0,.11l-.11.7-.1,1.38s0,.03-.01.04l-.15.69-.09.71c-.03.18-.17.3-.35.3h-.69s-1.26.23-1.26.23l-.63.19s-.07.02-.1.02h-.63l-.59.19-.67.17-.68.14-.63.16s-.09.02-.13,0l-.61-.07-1.21.44s-.07.02-.1.02l-.68.03s0,0-.01,0ZM180.56,345.07l-.07.65s0,.04-.01.05l-.06.22h.15s1.22-.45,1.22-.45c.05-.03.11-.03.17-.03l.63.08.58-.15.68-.14.63-.16.63-.2s.07-.01.1-.02h.63s.59-.18.59-.18c.01,0,.02-.01.04-.01l1.31-.26s.05,0,.08,0h.4s.06-.42.06-.42l.15-.69.11-1.38.11-.67-.1-.67s0-.1.01-.15l.16-.64v-.65s-.08-.66-.08-.66l-.09-.68-.08-.71-.05-.71-.07-1.41v-.69s-.2-1.35-.2-1.35v-.72s-.14-.72-.14-.72l-.15.1s-.03.02-.05.03l-.66.33-.39.45-.5.48-.53.44-1.07.8-.48.4-.43.46s-.04.04-.07.06l-.44.28-.1.52-.06.67s-.02.08-.04.13l-.28.57-.1.62s-.02.06-.03.09l-.27.58-.1.63s-.01.05-.02.08l-.24.6-.21,1.31s-.02.05-.03.08l-.27.63-.23.63-.17.6-.08.66s-.02.07-.04.1l-.28.6-.18.58Z"/>
  <g class="cls-5">
    <path class="cls-8" d="M187.06,356.93l-.53.38-.63.19-.55.33-.6.23-.59.27-.53.37-.58.28-.55.34-.62.2-.54.38-.56.34-.56-.44-.61-.35-.47-.55-.68-.28-.48-.53-.61-.36-.35-.49.2-.67.17-.64.1-.66.29-.6.1-.66.13-.65.17-.64.13-.65.38-.58.06-.67.07-.66.27-.61.19-.63.07-.67.19-.64.29-.6.13-.71.68-.13.67-.06.68-.03.64-.19.65-.19.67-.03.65-.18h.67s.65-.19.65-.19h.68s.64-.22.64-.22l.65-.17.63-.03-.03.64-.1.67-.13.67-.14.67-.09.67-.05.68v.68s-.16.67-.16.67l-.07.67v.69s-.02.68-.02.68l-.14.67-.03.68-.05.68-.14.67-.1.67-.11.67-.07.67Z"/>
  </g>
  <g class="cls-7">
    <path class="cls-9" d="M180.78,360.58c-.08,0-.16-.02-.22-.08l-.54-.43-.59-.34s-.07-.05-.09-.07l-.42-.48-.59-.24c-.05-.02-.09-.05-.13-.09l-.45-.49-.57-.34s-.08-.06-.1-.1l-.35-.49c-.07-.09-.08-.2-.05-.31l.21-.67.16-.6.1-.64s.02-.07.04-.09l.26-.56.09-.6.13-.67.17-.66.13-.63s.03-.08.05-.13l.33-.51.12-1.26s.02-.07.03-.1l.26-.59.18-.58.06-.64s.01-.05.02-.07l.19-.63s.01-.04.02-.05l.27-.56.11-.67c.03-.15.14-.26.29-.29l.68-.13.7-.06.65-.03,1.25-.36s.05-.01.08-.01l.64-.03.6-.17s.06-.01.09-.01h.63s.6-.18.6-.18c.04-.01.07-.02.1-.02h.61s.58-.2.58-.2l.68-.18s.05-.01.07-.01l.64-.03c.1,0,.2.03.27.1.07.07.11.17.1.27l-.03.64s0,.03,0,.04l-.1.67-.26,1.35-.09.65-.05.65.02.65s0,.07-.01.09l-.17.64-.06.64-.02,1.34s0,.05,0,.07l-.14.64-.08,1.34s0,.03,0,.04l-.14.67-.21,1.33-.06.65c-.01.1-.07.2-.15.26l-.53.37s-.06.04-.1.05l-.58.18-.52.31s-.04.02-.06.03l-.61.23-.54.24-.51.35s-.03.02-.05.03l-.56.27-.53.33s-.05.03-.08.04l-.57.19-.49.34-.58.35c-.06.05-.13.06-.19.06ZM179.85,359.15l.56.32.05.03.36.29.35-.21.52-.36s.06-.04.09-.05l.58-.19.51-.32s.02-.02.04-.03l.56-.26.51-.35s.03-.03.05-.04l.59-.27.59-.23.53-.31s.05-.03.07-.04l.57-.18.35-.25.06-.52.22-1.36.14-.66.08-1.32s0-.04,0-.06l.14-.63.02-1.33.06-.71s.01-.04.01-.06l.17-.61v-.64s.04-.71.04-.71l.1-.69.26-1.35.1-.64v-.23s-.2.01-.2.01l-.61.16-.6.22s-.09.02-.13.02h-.63s-.59.17-.59.17c-.03.01-.06.02-.1.02h-.63s-.6.18-.6.18c-.03,0-.05.01-.08.01l-.63.03-1.25.36s-.06.01-.08.01l-.68.03-.65.06-.4.07-.08.47s-.01.06-.03.09l-.28.58-.18.57-.06.63s-.01.05-.02.07l-.19.64s0,.03-.02.04l-.24.56-.12,1.28c0,.06-.02.11-.05.16l-.34.53-.11.58-.17.66-.13.63-.09.64s-.02.07-.03.1l-.27.56-.1.6s0,.03,0,.04l-.17.64-.15.51.2.29.55.33s.06.04.08.07l.43.47.6.24c.06.02.1.06.14.1l.44.51Z"/>
  </g>
  <path class="cls-11" d="M195.04,338.16l-.66.14-.61.33-.65.24h-.71l-.65.22-.61.38-.7.07-.67.15-.66.32-.13-.77-.05-.7-.1-.69.06-.71-.15-.69.05-.71-.1-.69.02-.71-.03-.7-.15-.69-.04-.7-.11-.69.02-.63.48-.39.54-.38.58-.29.53-.38.65-.17.48-.46.64-.17.55-.35.66-.08.53-.17.17.62.24.64.04.7.23.65.18.67.13.68.16.67-.11.71.2.67.16.68-.06.69-.02.69.07.7-.1.69-.27.6Z"/>
  <path class="cls-9" d="M189.11,340.36c-.06,0-.11-.01-.16-.04-.1-.05-.17-.15-.19-.26l-.13-.77-.05-.73-.1-.66v-.08l.05-.66-.14-.64s-.02-.07-.01-.1l.05-.67-.1-.66v-.76s-.01-.65-.01-.65l-.14-.67s0-.03,0-.05l-.04-.68-.11-.67s-.01-.05,0-.07l.02-.63c0-.1.05-.2.13-.27l.48-.39.55-.39s.03-.02.05-.03l.55-.28.51-.36s.08-.05.12-.06l.56-.14.42-.4s.1-.07.16-.08l.58-.16.51-.32s.09-.05.15-.05l.62-.07.5-.17c.09-.03.2-.02.28.03s.15.13.17.22l.17.62.23.61s.02.07.02.1l.04.64.21.61.18.69.14.7.15.66s.01.09,0,.14l-.1.63.17.59.17.7s.01.08,0,.11l-.06.69-.02.64.07.67s0,.06,0,.09l-.1.69s-.02.06-.03.09l-.27.6c-.05.11-.14.18-.25.21l-.61.13-.57.31s-.03.02-.05.02l-.64.24s-.08.02-.13.02h-.66l-.56.19-.57.35s-.09.05-.15.05l-.67.07-.61.14-.62.3s-.09.04-.15.04ZM189.19,337.83l.1.66.05.72.04.27.23-.11s.05-.02.07-.03l.67-.16s.03,0,.04,0l.61-.06.54-.33s.05-.03.07-.04l.65-.22s.07-.02.11-.02h.65l.56-.21.6-.32s.06-.03.09-.03l.48-.1.17-.4.09-.6-.07-.65s0-.03,0-.05l.02-.69.06-.66-.15-.63-.19-.65s-.02-.1-.01-.16l.1-.64-.14-.6-.14-.69-.17-.64-.22-.63s-.02-.06-.02-.09l-.04-.64-.22-.59-.08-.29-.17.06s-.05.01-.07.01l-.58.07-.48.31s-.06.04-.1.05l-.55.15-.42.4s-.1.07-.16.08l-.58.15-.47.34s-.03.02-.05.03l-.56.28-.51.36-.33.27-.02.44.11.66v.04l.04.67.14.67s0,.04,0,.06l.03.7v.69s.08.67.08.67c0,.03,0,.05,0,.08l-.05.66.14.64s.01.07,0,.1l-.04.66Z"/>
  <path class="cls-2" d="M188.23,330.87h.05"/>
  <path class="cls-9" d="M188.23,331.22c-.16,0-.3-.1-.35-.27-.05-.19.07-.39.26-.43h.05c.19-.06.38.06.43.24.05.19-.07.39-.26.43h-.05s-.06.02-.09.02Z"/>
  <path class="cls-8" d="M190.24,352.5l.16-.64.06-.66.19-.65-.13-.69.32-.63.08-.66-.07-.69.29-.63.07-.67-.03-.68.19-.65.14-.65v-.68s.11-.66.11-.66l.18-.68.71-.09.7-.13.64-.31.67-.23.73.02.67-.21.64-.36.71-.06.7-.14.65-.3.75-.16-.07.74-.04.68-.2.66v.68s-.2.66-.2.66l-.04.68-.16.66-.12.67v.69l-.1.65-.55.39-.64.27-.55.43-.57.4-.61.32-.55.42-.67.22-.48.52-.66.26-.53.45-.67.23-.58.37-.58.38-.55.43Z"/>
  <path class="cls-9" d="M190.24,352.86c-.07,0-.14-.02-.19-.06-.13-.08-.19-.23-.16-.38l.15-.62.06-.64s0-.04.02-.06l.17-.56-.11-.61c-.02-.08,0-.16.03-.23l.29-.57.07-.56-.07-.65c-.01-.07,0-.13.03-.19l.27-.58.06-.58-.03-.66s0-.08.01-.11l.19-.65.13-.59v-.64s-.01-.05,0-.07l.12-.66.18-.7c.04-.14.16-.24.3-.26l.71-.09.63-.12.6-.29s.03-.02.04-.02l.67-.23s.08-.02.12-.02l.67.02.58-.18.6-.34s.09-.04.15-.05l.69-.06.63-.13.61-.28s.05-.03.08-.03l.75-.16c.11-.02.22.01.31.09.08.07.13.18.11.3l-.07.74-.04.66s0,.06-.02.08l-.18.61v.63s0,.07-.01.1l-.18.62-.04.64s0,.04-.01.06l-.16.66-.11.62v.66s0,.04,0,.05l-.1.65c-.02.09-.07.18-.15.23l-.54.39s-.05.03-.07.04l-.6.25-.51.4-.58.41s-.02.02-.04.02l-.58.31-.53.41s-.07.04-.1.06l-.59.19-.43.46s-.08.07-.13.09l-.59.24-.49.41s-.07.05-.11.06l-.63.22-1.13.72-.54.4c-.06.05-.14.08-.21.08ZM190.81,351.27l-.04.42,1.01-.64s.05-.03.07-.04l.6-.21.48-.41s.07-.05.1-.06l.57-.23.44-.46s.09-.07.15-.09l.61-.2.49-.39s.04-.03.05-.03l.59-.31.55-.39.53-.42s.05-.03.08-.05l.61-.26.39-.28.07-.48v-.66s0-.04.01-.06l.12-.67.16-.66.04-.65s0-.06.01-.08l.18-.61v-.63s0-.07.01-.1l.19-.62.06-.91-.24.05-.61.28s-.05.02-.08.03l-.69.14s-.03,0-.04,0l-.63.05-.57.32s-.05.03-.07.03l-.67.21s-.07.02-.11.01h-.67s-.58.19-.58.19l-.63.31s-.06.02-.09.03l-.69.13-.5.06-.11.44-.11.6v.64s0,.06,0,.08l-.14.66-.18.61.03.62v.05l-.07.67s-.01.07-.03.11l-.25.54.06.59v.08l-.08.66s-.02.08-.04.12l-.27.51.1.57c.01.06.01.11,0,.17l-.19.61Z"/>
  <path class="cls-11" d="M185.83,347.73l.07.61-.05.68-.08.69-.24.67-.04.69-.08.68.07.7-.21.67v.69s-.1.69-.1.69l-.02.68-.65.02-.6.34-.69-.1-.64.15-.62.29-.68-.07-.65.15-.72.2.46-.61.42-.55.3-.63.4-.56.43-.54.47-.51.43-.54.28-.64.35-.59.56-.45.37-.58.24-.67.49-.49.43-.54.31-.51Z"/>
  <path class="cls-9" d="M179.88,356.5c-.11,0-.23-.06-.3-.16-.08-.13-.08-.29.01-.42l.87-1.14.28-.59s.02-.04.03-.06l.4-.56.44-.55.49-.53.38-.47.26-.6s.02-.03.02-.04l.35-.59s.05-.07.08-.1l.51-.42.32-.49.22-.64s.05-.09.08-.13l.48-.48.41-.53.31-.47c.08-.13.23-.19.38-.16.15.04.26.16.28.31l.07.6v.07l-.06.69-.09.7s-.01.05-.02.08l-.22.62-.03.63-.08.67.06.66s0,.09-.02.14l-.19.61v.64s.01.05,0,.07l-.11.66-.02.65c0,.19-.16.34-.34.35h-.56s-.53.31-.53.31c-.07.04-.15.06-.23.05l-.62-.09-.54.12-.58.28c-.06.03-.12.04-.19.03l-.62-.06-.59.14-.71.2s-.06.01-.09.01ZM181.37,354.54l-.28.6s-.03.05-.04.07l-.26.33.38-.09s.07-.01.11-.01l.58.06.53-.24s.05-.03.07-.03l.65-.15s.08-.01.13,0l.56.08.5-.29s.1-.04.17-.04h.31s.01-.35.01-.35c0-.02,0-.03,0-.05l.11-.65v-.66s-.01-.08,0-.11l.19-.6-.06-.63v-.07l.08-.69.03-.66s.01-.07.03-.1l.23-.63.09-.82-.15.19s-.02.02-.03.03l-.44.44-.21.6s-.02.05-.04.07l-.37.58s-.05.06-.07.08l-.51.41-.31.52-.27.63s-.03.06-.05.08l-.43.54-.49.53-.42.52-.36.52Z"/>
  <path class="cls-11" d="M273.18,241.18l-.57.34-.63-.19-.53-.3.14-.58.23-.62.56-.38.64-.18.63.2.46.32-.04.57-.28.58-.6.23Z"/>
  <path class="cls-9" d="M272.61,241.88s-.07,0-.1-.02l-.63-.18s-.05-.02-.07-.03l-.53-.3c-.14-.08-.21-.23-.18-.39l.14-.58s0-.04.01-.05l.23-.62c.03-.07.07-.13.14-.17l.55-.38s.07-.04.11-.05l.64-.18c.07-.02.14-.02.2,0l.63.2s.06.03.09.05l.46.32c.1.07.17.19.16.31l-.04.57s-.02.09-.04.13l-.28.58c-.04.08-.11.15-.19.18l-.58.22-.54.33c-.06.04-.13.05-.19.05ZM272.12,241.01l.44.13.43-.27s.04-.02.06-.03l.48-.18.19-.39.02-.3-.26-.17-.47-.15-.49.13-.41.28-.19.49-.07.31.27.15Z"/>
  <path class="cls-11" d="M268.78,242.04l-.51.36-.54.26-.57-.07-.19-.54-.04-.65.46-.47.39-.51.61-.15.66-.05.31.65-.15.67-.43.51Z"/>
  <path class="cls-9" d="M267.73,243.02s-.03,0-.05,0l-.57-.07c-.14-.01-.25-.1-.3-.23l-.19-.54s-.02-.07-.02-.1l-.04-.65c-.01-.1.03-.2.1-.27l.45-.45.38-.49c.05-.06.11-.1.19-.13l.61-.15s.04-.01.05-.01l.66-.05c.15-.02.29.07.35.2l.3.65c.04.07.04.15.03.23l-.15.67c-.01.05-.04.1-.07.15l-.42.51s-.04.04-.07.06l-.51.36s-.04.03-.06.03l-.54.26c-.05.02-.1.03-.15.03ZM267.42,242.27l.26.03.42-.19.45-.32.34-.41.1-.46-.15-.31-.38.03-.46.11-.32.41s-.02.02-.03.03l-.35.36.03.44.1.28Z"/>
  <path class="cls-11" d="M266.5,238.22l-.32.59-.4.46-.49.17-.52-.23-.14-.6-.03-.61.11-.61.38-.48.54-.36.44.47.31.55.12.66Z"/>
  <path class="cls-9" d="M265.29,239.8s-.1-.01-.15-.03l-.52-.23c-.1-.05-.18-.14-.2-.24l-.14-.6s-.01-.04-.01-.06l-.02-.61s0-.06,0-.08l.11-.62c.01-.06.04-.11.07-.16l.38-.48s.05-.05.08-.07l.54-.36c.15-.1.34-.08.46.05l.44.47s.04.05.05.07l.31.55s.04.07.04.11l.11.66c.02.08,0,.16-.04.23l-.32.59s-.03.05-.04.06l-.4.46s-.09.08-.15.1l-.49.18s-.07.02-.11.02ZM265.08,238.95l.22.1.27-.09.31-.36.24-.45-.08-.47-.26-.46-.2-.22-.24.16-.29.36-.09.49.02.54.09.4Z"/>
  <path class="cls-11" d="M266.47,232.92l-.27.6-.37.5-.55.23-.61-.27-.09-.67.06-.62.17-.58.26-.56.56-.13.45.3.26.55.15.65Z"/>
  <path class="cls-9" d="M265.28,234.6s-.09-.01-.14-.03l-.61-.27c-.11-.05-.2-.16-.21-.28l-.09-.67s0-.05,0-.08l.06-.61s0-.05.01-.07l.17-.58s.01-.03.02-.05l.26-.56c.05-.1.14-.18.24-.2l.56-.13c.09-.02.19,0,.28.05l.45.3c.06.04.1.09.13.15l.26.56s.02.05.03.07l.14.65c.02.07,0,.15-.03.22l-.28.6s-.02.04-.04.06l-.37.5c-.04.05-.09.09-.15.12l-.55.23s-.08.03-.13.03ZM264.99,233.73l.29.13.32-.13.29-.4.21-.46-.11-.49-.2-.43-.24-.16-.24.06-.18.38-.15.53-.05.55.05.43Z"/>
  <path class="cls-11" d="M263.86,242.17l-.03.64-.24.63-.65.11-.62-.16-.19-.64-.05-.63.08-.63.2-.64.65-.16.46.33.24.54.14.6Z"/>
  <path class="cls-9" d="M262.94,243.91s-.06,0-.09-.01l-.62-.16c-.12-.03-.21-.13-.25-.24l-.19-.64s-.01-.05-.02-.07l-.05-.63s0-.06,0-.08l.08-.63s0-.04.02-.06l.2-.65c.04-.12.14-.21.26-.24l.65-.15c.1-.03.21,0,.29.06l.46.33c.05.04.09.08.12.14l.24.54s.02.04.02.06l.14.6s.01.06.01.09l-.03.64s-.01.07-.02.11l-.24.63c-.04.11-.15.2-.27.22l-.65.11h-.06ZM262.61,243.1l.35.09.36-.06.15-.39.03-.54-.12-.52-.19-.42-.25-.18-.29.07-.14.43-.07.56.05.55.12.41Z"/>
  <path class="cls-11" d="M267.96,246.56l-.54.35-.64.03-.48-.26-.14-.54.2-.6.39-.54.66-.15.6-.28.55.36.09.59-.24.58-.43.47Z"/>
  <path class="cls-9" d="M266.78,247.29c-.06,0-.11-.01-.17-.04l-.49-.27c-.08-.04-.15-.13-.17-.22l-.14-.54c-.02-.07-.02-.14,0-.2l.2-.6s.03-.07.05-.1l.39-.54c.05-.07.13-.12.21-.14l.62-.14.57-.27c.11-.05.24-.04.35.03l.54.36c.08.06.14.15.16.24l.09.59c.01.07,0,.14-.02.19l-.23.58s-.04.07-.07.1l-.43.47s-.05.04-.07.06l-.55.35c-.05.04-.11.05-.18.06l-.64.03s-.02,0-.03,0ZM266.6,246.43l.27.15.44-.02.42-.27.35-.4.18-.43-.05-.34-.24-.16-.42.2s-.05.02-.07.02l-.53.13-.28.39-.15.45.07.29Z"/>
  <path class="cls-11" d="M263.37,247.75l-.34.56-.64.09-.54-.06-.31-.51.09-.64.4-.5.48-.39.53-.29.61.05.36.58-.31.6-.34.51Z"/>
  <path class="cls-9" d="M262.39,248.76h-.04l-.54-.06c-.11-.02-.21-.07-.27-.17l-.31-.51c-.04-.07-.06-.15-.05-.23l.09-.64c.01-.06.04-.12.08-.17l.4-.5s.03-.04.05-.05l.48-.4s.04-.03.06-.04l.53-.29c.06-.04.14-.05.2-.05l.61.05c.11.01.21.07.28.17l.36.58c.07.11.07.24.01.35l-.31.6s-.01.03-.02.04l-.34.49-.33.55c-.06.09-.15.16-.26.17l-.64.09s-.03.01-.05.01ZM262.07,248.01l.32.03.43-.06.24-.41s.01-.02.02-.02l.33-.48.21-.4-.16-.26-.33-.03-.41.22-.42.35-.32.4-.06.42.15.24Z"/>
  <path class="cls-11" d="M272.04,236.55l-.23.57-.36.51-.58.11-.38-.4-.33-.55.23-.61.17-.59.34-.53.61-.19.42.46.11.59v.63Z"/>
  <path class="cls-9" d="M270.86,238.1c-.1,0-.19-.04-.26-.11l-.38-.4s-.04-.04-.05-.06l-.33-.56c-.05-.09-.06-.21-.03-.31l.23-.61.17-.56s.02-.06.04-.09l.34-.53c.05-.07.11-.13.19-.15l.6-.19c.14-.04.28,0,.37.1l.42.46s.08.1.09.17l.11.6s0,.04,0,.06v.62s-.01.09-.03.14l-.23.57s-.03.05-.04.07l-.36.51c-.05.07-.13.13-.22.14l-.58.11s-.05.01-.07.01ZM270.76,237.12l.22.23.25-.05.26-.36.19-.47v-.52l-.09-.47-.2-.22-.27.09-.24.38-.16.54-.18.48.22.37Z"/>
  <path class="cls-2" d="M252.56,255.75l-.05-.52-.12-.61v-.64s.43-.49.43-.49l.32-.54.62-.22.58-.28.66-.06.58.33.57.27.55.35.42.51.18.64.03.65-.26.64-.54.44-.44.52-.56.39-.49.48-.61.31-.52.47-.6.35-.63.29-.66.21-.67.15-.58.3-.65.13-.58.31-.99.85-.44.5-.11.67-.33.59v.67s.1.65.1.65l.07.65-.04.66.03.66.13.65.16.64.18.63-.1.68.26.63-.03.66.04.65.04.66.13.67-.21.65-.18.64-.19.63-.16.65-.4.53-.39.52-.44.49-.56.35-.51.46-.62.11.22-.35.46-.56.11-.73.21-.66.19-.68.28-.68.02-.72v-.71l-.21-.7.02-.72-.22-.66-.08-.69-.16-.68-.02-.7-.33-.66.14-.71-.08-.69-.21-.69.18-.7v-.69l-.06-.71.2-.66.2-.65.11-.69.32-.61.44-.53.56-.4.58-.34.54-.43.61-.3.71-.04.62-.24.57-.4.67-.11.65-.19.57-.37.61-.27.59-.3.51-.41.48-.44-.09-.63-.4-.48-.65.13-.59.33-.47.49-.25.52Z"/>
  <path class="cls-9" d="M244.98,277.24c-.11,0-.23-.06-.3-.16-.08-.11-.08-.27,0-.39l.23-.34.42-.52.1-.64s0-.03.02-.05l.21-.67.19-.66s.01-.03.01-.04l.26-.61v-.65s.01-.66.01-.66l-.19-.65s-.02-.07-.02-.11l.02-.66-.2-.61s-.02-.04-.02-.07l-.08-.67-.15-.66s0-.05-.01-.07l-.02-.63-.29-.59c-.04-.07-.05-.15-.03-.23l.14-.66-.08-.6-.2-.66c-.02-.07-.02-.13,0-.19l.17-.66v-.65s-.06-.69-.06-.69c0-.05,0-.09.02-.14l.4-1.28.11-.66s.02-.07.04-.1l.32-.61s.02-.05.04-.07l.44-.53s.04-.04.07-.06l.56-.4.58-.34.53-.41s.04-.03.06-.04l.61-.3s.09-.04.14-.04l.65-.04.53-.21.54-.38s.09-.05.15-.06l.65-.1.57-.18.53-.34s.03-.02.05-.03l.61-.26.54-.27.48-.39.32-.3-.04-.34-.2-.25-.38.08-.49.27-.4.41-.23.47c-.07.14-.23.22-.39.19-.16-.03-.28-.16-.29-.31l-.05-.52-.11-.57s0-.05,0-.07v-.64c0-.08.04-.16.09-.23l.41-.46.31-.52c.04-.07.11-.13.19-.16l.59-.21.56-.28s.08-.03.13-.03l.66-.06c.07,0,.15.01.21.04l.58.33.55.27s.03.01.04.02l.55.34s.06.05.08.08l.42.51s.06.08.07.14l.18.63s.01.05.01.08l.04.65c0,.05-.01.1-.03.16l-.27.64c-.02.05-.06.1-.1.14l-.52.42-.42.49s-.04.04-.07.06l-.54.37-.46.47s-.06.05-.09.07l-.57.28-.48.44s-.04.03-.07.05l-.6.34-.65.3s-.03.01-.04.02l-.66.21s-.02.01-.04.02l-.62.13-.54.28s-.06.03-.09.03l-.59.12-.49.27-.94.81-.36.41-.09.57s-.02.07-.04.11l-.28.52v.55s.1.63.1.63l.07.66s0,.04,0,.06l-.04.66.03.59.12.62.16.61.18.63c.02.05.02.1.01.15l-.09.58.22.54s.03.1.03.15l-.03.66.07,1.26.13.65c.01.06,0,.12-.01.18l-.21.65-.38,1.26-.15.62c-.01.05-.03.09-.06.14l-.79,1.05-.46.52s-.05.05-.08.06l-.53.33-.48.44s-.11.07-.18.09l-.62.11s-.05.03-.07.03ZM246.13,275.33l-.09.61.4-.25.41-.45.73-.96.14-.57.57-1.85-.11-.58s0-.03-.01-.04l-.07-1.31.03-.62-.23-.55c-.03-.06-.03-.13-.02-.19l.09-.59-.17-.56-.16-.65-.14-.66s0-.04,0-.05l-.03-.66.03-.66-.07-.62-.09-.64s0-.04,0-.05v-.67c0-.06.01-.12.04-.17l.3-.54.1-.61c.01-.06.04-.13.08-.17l.44-.5s.02-.03.04-.04l.98-.85s.04-.03.07-.05l.58-.3s.06-.03.09-.04l.6-.13.54-.28s.06-.03.09-.03l.65-.14.62-.2.61-.28.54-.31.48-.45s.06-.04.08-.06l.57-.28.45-.45s.03-.03.05-.04l.53-.36.41-.48.04-.04.47-.39.2-.48-.03-.53-.15-.53-.33-.41-.48-.3-.55-.27-.51-.29-.48.05-.52.26s-.03.01-.04.02l-.49.18-.26.44s-.02.04-.04.05l-.34.39v.47s.03.17.03.17l.26-.26s.05-.05.08-.06l.58-.33s.07-.03.11-.04l.65-.13c.13-.02.26.02.34.13l.4.48c.04.05.07.11.08.18l.09.62c.02.11-.03.23-.11.31l-.48.44-.53.43s-.05.03-.07.04l-.59.3-.6.26-.55.35s-.06.03-.09.04l-.65.19s-.03.01-.05.01l-.59.1-.51.35s-.05.03-.07.04l-.63.24s-.07.02-.11.03l-.64.04-.52.26-.51.4s-.03.03-.05.03l-.58.33-.49.35-.4.46-.28.53-.1.63s-.01.03-.01.04l-.39,1.24.05.64v.72s0,.06-.01.09l-.15.6.18.59s.01.04.02.06l.08.69s0,.07,0,.11l-.11.6.27.55s.04.09.04.15l.02.67.15.64s0,.03,0,.04l.08.66.21.63s.02.08.02.12l-.02.67.19.64s.02.07.02.1v.72l-.02.72s-.01.09-.03.13l-.28.66-.18.66-.2.66Z"/>
  <path class="cls-2" d="M240.69,272.43l-.45.51-.52.41-.49.44-.45.48-.38.54-.44.51-.07.67-.02.64-.08.7-.03.69-.34.61-.25.63-.22.65-.28.65-.55.44-.36.59-.6.36-.5.48-.58.31-.66-.05-.63.02-.63-.13-.46-.48.14-.71.55-.46.66-.31.73-.09.56-.34.54-.36.33-.56.39-.51.13-.64.2-.59.23-.65.26-.64.26-.64.1-.69.41-.56.43-.51.51-.45.63-.27.66-.18.6-.38.68-.12Z"/>
  <path class="cls-9" d="M234.06,283.08h-.02l-.66-.04h-.59s-.05,0-.08,0l-.63-.13c-.07-.02-.13-.05-.18-.1l-.46-.48c-.08-.08-.12-.2-.1-.32l.14-.71c.02-.08.06-.16.13-.21l.55-.46s.05-.04.08-.05l.66-.31s.07-.03.1-.03l.66-.08.49-.3.46-.3.29-.49s.02-.03.03-.04l.34-.44.11-.56s0-.03.01-.04l.44-1.25.51-1.25.09-.65c.01-.06.04-.11.07-.16l.42-.56.44-.53s.03-.02.04-.04l.51-.45s.06-.05.09-.06l.63-.27s.03-.01.05-.02l.61-.16.55-.35s.08-.04.12-.04l.68-.14c.15-.03.3.04.38.18.08.13.06.3-.04.41l-.45.51s-.03.03-.04.05l-.52.41-.46.41-.42.46-.36.52s-.02.02-.03.03l-.37.42-.06.56-.02.61-.08.72-.03.67c0,.06-.02.11-.05.16l-.33.59-.24.61-.21.64-.29.67c-.02.05-.06.1-.1.14l-.51.41-.34.54c-.03.05-.07.09-.13.12l-.56.33-.47.45s-.05.04-.08.06l-.58.31c-.05.02-.11.04-.17.04ZM233.4,282.33l.59.04.44-.23.46-.45s.04-.03.07-.05l.53-.31.33-.52s.04-.07.08-.09l.48-.4.24-.56.21-.63.26-.64s.01-.03.02-.05l.3-.54.02-.6.08-.72.02-.6.07-.69c.01-.08.04-.15.09-.2l.43-.49.36-.52s.02-.03.03-.04l.45-.48.02-.02.18-.16-.29.08-.55.23-.44.4-.42.49-.35.47-.09.6s-.01.06-.02.08l-.52,1.28-.42,1.2-.13.61c-.01.05-.03.1-.07.15l-.38.49-.31.55s-.07.09-.11.11l-.54.36-.57.35s-.09.04-.14.05l-.67.09-.57.27-.42.35-.08.4.26.27.48.1h.58Z"/>
  <path class="cls-2" d="M228.5,299.73l-.19.66-.23.63-.05.69-.29.61-.4.56-.34.58-.19.68-.51.47-.39.55-.33.6-.48.48-.38.57-.48.48-.63.33-.47.48-.43.54-.52.44-.65.27-.43.57-.62.27.42-.53.33-.6.4-.55.38-.56.35-.58.31-.6.45-.54.19-.67.29-.62.36-.58.19-.66.4-.58.23-.65.12-.68.09-.68.35-.61.05-.7.29-.63.03-.69.06-.69.27-.65.06-.68-.03-.69v-.69s.08-.68.08-.68l-.06-.68-.09-.67.02-.7-.18-.65.03-.67-.03-.68.27-.63.16-.68.38-.58.47-.51.55-.41.59-.35.52-.46.67-.19.59-.36-.55.48-.46.55-.42.59-.17.72-.47.56-.21.66-.09.68-.07.67-.14.67-.04.68.09.68.16.66.2.65-.07.7.29.64.02.69.09.67.12.67.2.66-.13.68.08.57Z"/>
  <path class="cls-9" d="M220.51,310.57c-.1,0-.21-.05-.28-.14-.1-.13-.1-.31,0-.44l.4-.49.31-.58s.02-.03.03-.04l.4-.55.38-.55.34-.56.3-.58s.03-.05.04-.07l.4-.47.16-.59s.01-.04.02-.06l.29-.61s.02-.03.02-.04l.34-.55.18-.61s.03-.07.05-.1l.37-.54.2-.57.11-.65.1-.68s.02-.09.04-.13l.31-.54.04-.61s.01-.08.03-.13l.26-.57.03-.63.06-.7s.01-.07.03-.1l.24-.6.05-.6-.03-.67v-.7s0-.03,0-.04l.07-.65-.06-.64-.09-.66s0-.04,0-.06l.02-.65-.17-.6s-.01-.07-.01-.11l.04-.67-.03-.66c0-.05,0-.1.03-.15l.25-.6.16-.65s.03-.07.05-.1l.37-.58s.03-.04.04-.05l.47-.51s.03-.03.05-.04l.55-.41s.02-.01.03-.02l.56-.33.49-.44s.09-.06.14-.08l.63-.18.55-.33c.16-.1.36-.06.47.09.11.15.09.36-.05.48l-.53.46-.44.53-.36.51-.15.65c-.02.05-.04.1-.07.15l-.43.52-.18.56-.09.65-.07.66-.14.68-.04.62.09.64.15.63.19.63s.02.09.02.14l-.06.6.25.54s.03.09.03.15l.02.66.09.65.11.63.2.64c.02.05.02.11.01.17l-.11.63.08.51s0,.1-.01.15l-.18.66-.22.61-.05.64s-.02.09-.03.13l-.29.61s-.02.04-.03.06l-.4.55-.3.52-.17.64c-.02.06-.06.12-.1.17l-.48.45-.35.51-.33.58s-.04.05-.06.08l-.45.46-.36.55s-.03.04-.05.05l-.48.48s-.05.05-.08.06l-.58.31-.43.42-.41.53s-.03.04-.05.06l-.52.44s-.06.05-.1.06l-.56.23-.37.48c-.04.05-.08.09-.14.11l-.62.27s-.1.03-.15.03ZM223,306.99l-.3.57-.36.6-.5.72.18-.07.44-.38.4-.52s.02-.03.03-.03l.47-.47s.06-.05.08-.06l.58-.31.42-.42.36-.55s.03-.04.04-.05l.44-.45.31-.56s.01-.02.02-.03l.39-.55s.03-.04.05-.06l.43-.4.16-.58s.02-.06.04-.09l.34-.58.4-.56.24-.53.05-.63s.01-.06.02-.09l.23-.64.16-.56-.08-.49s0-.08,0-.12l.11-.6-.18-.57s0-.03-.01-.05l-.12-.67-.09-.68s0-.03,0-.05v-.61s-.28-.57-.28-.57c-.03-.06-.04-.13-.03-.19l.07-.63-.18-.58-.16-.69-.1-.71s0-.04,0-.07l.04-.68s0-.04,0-.06l.14-.67.07-.64.09-.69s.01-.04.02-.06l.21-.66s.04-.08.06-.11l.41-.51.15-.64s.03-.09.06-.13l.03-.04-.48.28-.51.39-.43.46-.32.51-.15.62s-.01.03-.02.05l-.23.55.03.61-.03.65.16.6s.02.07.02.1l-.02.67.09.65.06.7s0,.04,0,.07l-.07.66v.66l.03.67v.05l-.06.68s-.01.07-.03.1l-.25.6-.06.63-.02.68s-.02.09-.03.14l-.27.58-.04.63c0,.05-.02.1-.05.15l-.32.55-.09.61-.12.69s-.01.04-.02.06l-.23.65s-.02.06-.04.08l-.36.54-.18.6s-.03.06-.04.09l-.35.56-.27.57-.17.64s-.04.09-.07.14l-.42.47Z"/>
  <path class="cls-2" d="M295.93,246.79l-.42.55-.2.67-.2.65-.22.64-.09.67-.07.67-.07.68-.07.69.22.66.28.63.36.57.28.59-.6-.26-.68.07-.67-.12-.68-.02-.63.29-.65.15-.67.13-.63.26-.51.48-.66.2-.56.38-.48.47-.57.35-.45.5-.51.42-.45.36.4-.48.3-.64.38-.58.52-.49.16-.71.42-.57.26-.64.14-.68.21-.66.16-.67.08-.68-.02-.68.06-.7-.31-.63-.29-.61-.3-.62.61.27.58.4.67.14.69-.05.66-.15.7.05.61-.31.68-.12.56-.4.55-.39.65-.23.49-.47Z"/>
  <path class="cls-9" d="M286.32,258.47c-.09,0-.19-.04-.26-.11-.13-.13-.14-.33-.02-.47l.37-.45.28-.6s.01-.03.02-.04l.38-.58s.03-.05.05-.07l.44-.42.13-.61s.03-.09.06-.14l.39-.53.23-.57.14-.66s0-.03.01-.04l.21-.66.15-.62.08-.64-.02-.66v-.04l.05-.6-.27-.54-.29-.63-.3-.61c-.07-.14-.04-.29.06-.4.1-.11.26-.14.4-.08l.61.27.06.03.52.35.56.11.61-.04.64-.14s.07-.01.1,0l.6.04.53-.26s.06-.03.1-.04l.6-.1,1.05-.74s.05-.04.09-.05l.58-.21.43-.42c.14-.14.35-.14.48-.01.14.13.16.33.04.48l-.38.49-.38,1.26-.21.61-.09.64-.2,1.95.19.56.27.58.35.56s.02.03.02.04l.28.59c.07.14.04.29-.07.4-.1.11-.26.14-.39.08l-.51-.22-.59.06s-.07,0-.1,0l-.64-.11-.57-.02-.56.26s-.04.02-.07.02l-.65.16-.65.12-.53.22-.46.44s-.09.07-.14.08l-.6.18-.49.33-.47.44s-.03.03-.06.05l-.53.33-.42.46s-.02.02-.04.03l-.97.8c-.06.05-.14.08-.22.08ZM288.39,255.35l-.14.64s-.01.04-.02.06l.31-.3s.04-.03.05-.04l.56-.38s.06-.04.1-.04l.57-.18.45-.42s.07-.05.11-.07l.63-.26s.04-.02.07-.02l.67-.13.59-.14.6-.28c.05-.02.1-.04.16-.03l.68.02s.04,0,.05,0l.61.11.57-.06-.23-.37s-.02-.03-.02-.04l-.29-.63s-.01-.03-.02-.04l-.21-.66s-.02-.1-.02-.15l.22-2.04.09-.68s.01-.05.02-.07l.22-.64.23-.73-.05.02-1.07.76s-.09.05-.15.06l-.63.11-.56.28c-.06.03-.12.05-.19.04l-.64-.05-.61.14s-.03.01-.05.01l-.69.05s-.07,0-.1,0l-.68-.14s-.09-.03-.13-.06l-.2-.14.13.27.31.61c.03.06.04.13.04.19l-.06.68.02.66s0,.04,0,.05l-.08.68s0,.03-.01.04l-.16.67-.21.66-.14.67s-.01.04-.02.06l-.26.65s-.03.05-.05.08l-.38.5Z"/>
  <path class="cls-2" d="M279.76,255.92l-.22.51-.34.55-.16.62-.2.61-.02.65-.03.64-.08.67.28.6.19.64.55.54-.72-.21-.65-.16-.65.15-.63.16-.63.15-.58.28-.57.28-.6.25-.63.23-.49.43-.48.44-.45.46-.49.38.46-.46.25-.65.45-.51.4-.55.15-.68.29-.61.32-.61.18-.66-.12-.69.14-.67-.14-.67-.35-.58-.32-.61.69.23.66.21.69.27.72-.08.67-.29.65-.26.72-.16.49-.56.6-.25Z"/>
  <path class="cls-9" d="M272.18,265.12c-.1,0-.2-.04-.27-.12-.13-.15-.11-.35.02-.48l.41-.41.22-.58s.04-.08.07-.1l.45-.51.34-.46.14-.61s.02-.05.03-.07l.29-.61.31-.58.14-.55-.1-.62s-.01-.09,0-.14l.13-.6-.11-.53-.32-.53-.33-.63c-.07-.13-.05-.29.05-.4.09-.11.24-.15.39-.11l1.33.44.63.24.58-.06.61-.27.67-.26s.04-.02.06-.02l.6-.13.41-.47s.08-.07.13-.09l.59-.25c.14-.06.29-.03.4.07.1.1.13.26.07.39l-.22.51s-.01.03-.03.05l-.31.5-.15.57-.19.59-.05,1.23-.06.59.24.51.02.05.17.55.48.48c.12.11.14.3.06.43-.08.14-.25.21-.41.16l-.72-.22-.55-.13-1.78.42-1.13.54-.61.26-.58.21-.45.39-.47.43-.44.45s-.02.03-.04.04l-.49.37c-.08.04-.15.07-.22.07ZM274.23,262.03l-.15.64h0s.52-.18.52-.18l.58-.25,1.15-.55s.05-.02.07-.02l1.91-.45c.06-.01.11-.01.16,0l.33.08-.13-.42-.27-.58c-.03-.06-.04-.13-.03-.19l.07-.66.04-1.26s.01-.07.02-.1l.2-.61.11-.42s-.04.02-.06.02l-.69.15-.63.25-.65.29s-.07.03-.1.03l-.72.08c-.06.01-.11,0-.17-.02l-.69-.27-.48-.15.24.39s.03.07.04.11l.14.67s.01.1,0,.15l-.13.61.1.63c0,.05,0,.1,0,.15l-.17.66-.03.08-.32.61-.28.56Z"/>
  <path class="cls-2" d="M269.26,196.72l-.2.56-.44.51-.26.6.05.68-.28.61.22.65.06.63.02.67.46.5.27.61-.63-.27-.66.13-.65-.06-.63.16-.64.13-.58.29-.6.25-.65.17-.5.43-.59.3-.37.58-.56.34-.39.43.31-.53.35-.58.38-.55.29-.61.29-.6.32-.59.35-.59.09-.68.03-.68-.07-.67v-.68s-.2-.67-.2-.67l-.51-.56.66.42.67.28.73-.09.71-.03.72-.06.68-.24.54-.5.69-.25.52-.42Z"/>
  <path class="cls-9" d="M261.71,205.95c-.08,0-.15-.02-.21-.07-.15-.1-.19-.31-.09-.46l.66-1.11.38-.55.57-1.18.33-.6.32-.55.09-.61.02-.61-.07-.64v-.67s-.16-.54-.16-.54l-.45-.51c-.11-.13-.12-.33,0-.46s.31-.17.46-.07l.63.4.56.23.64-.08.73-.03.66-.06.57-.2.49-.45s.07-.06.12-.07l.62-.22.47-.39c.13-.1.3-.11.43-.02.14.09.19.26.14.41l-.2.56s-.04.08-.07.11l-.41.46-.2.47.04.58c0,.06,0,.13-.03.18l-.22.48.17.51s.02.05.02.08l.07.63v.56s.38.4.38.4c.03.03.05.06.06.09l.27.61c.06.14.04.29-.07.4-.1.1-.26.14-.39.08l-.54-.23-.56.1s-.06,0-.1,0l-.58-.05-.57.15-.61.12-.54.27-.61.26s-.03.01-.05.01l-.57.15-.44.4s-.05.04-.07.05l-.5.26-.32.5s-.07.08-.11.11l-.52.31-.35.39c-.07.08-.17.11-.27.11ZM264.34,198.56l.06.19s.02.06.02.09v.68l.07.63s0,.03,0,.05l-.03.68-.1.71s-.02.09-.04.14l-.35.59-.32.58-.41.86.2-.1.47-.4s.09-.06.15-.07l.63-.17.57-.24.56-.28s.06-.03.09-.03l.64-.13.6-.16s.08-.02.13-.01l.59.05.56-.1-.23-.26c-.06-.06-.09-.15-.09-.23l-.02-.67-.05-.56-.21-.61c-.03-.09-.03-.18.02-.27l.24-.53-.05-.58c0-.06,0-.12.03-.17l.24-.56h-.03s-.49.46-.49.46c-.04.03-.08.05-.12.07l-.68.24s-.06.02-.09.02l-.72.06-.73.02-.7.09c-.06.01-.13,0-.18-.03l-.21-.08Z"/>
  <path class="cls-2" d="M228.19,260.19l-.42.64-.15.64-.2.6-.31.59.04.66-.03.65.15.63.04.66.34.57.33.49-.57-.18-.66.11-.66-.16-.66.06-.57.38-.68.04-.49.48-.57.29-.64.2-.42.54-.57.32-.57.33-.49.54.49-.55.34-.58.41-.54.28-.61.32-.59.42-.56.13-.68.25-.64-.14-.7.09-.67-.04-.69-.35-.59-.4-.63.69.34.69.15.68.06h.7s.72-.02.72-.02l.65-.31.61-.37.57-.42.64-.47Z"/>
  <path class="cls-9" d="M220.42,269.61c-.08,0-.17-.03-.24-.09-.15-.13-.16-.35-.03-.5l.47-.52.33-.55s.01-.02.02-.03l.38-.51.26-.58.34-.61s.02-.03.02-.04l.37-.49.11-.59.02-.06.21-.55-.12-.59s-.01-.08,0-.12l.09-.64-.03-.56-.7-1.14c-.08-.14-.07-.31.04-.43.1-.12.28-.15.42-.08l.66.32.62.13.67.06h.67s.64-.01.64-.01l.58-.28.58-.35,1.19-.88c.14-.1.33-.09.45.03.13.12.15.31.05.45l-.39.58-.13.58-.21.64s-.02.04-.03.06l-.27.5.03.56v.04l-.03.59.14.58s0,.04,0,.06l.04.58.29.49.32.47c.08.13.08.29,0,.41-.09.12-.25.17-.4.13l-.48-.15-.57.09c-.05.01-.1.01-.15,0l-.59-.15-.51.05-.49.33c-.05.04-.11.06-.18.06l-.55.03-.4.39s-.05.05-.08.06l-.57.29s-.04.02-.06.02l-.54.17-.35.45s-.06.07-.1.09l-1.09.63-.45.49c-.07.08-.17.11-.26.11ZM222.57,266.58l-.4.74h.01c.05-.07.1-.11.18-.14l.61-.19.49-.25.46-.44c.06-.06.14-.09.22-.1l.59-.03.48-.33c.05-.03.11-.05.17-.06l.66-.06s.08,0,.12.01l.58.15.45-.08-.22-.37c-.03-.05-.05-.1-.05-.16l-.04-.63-.14-.6s-.01-.07-.01-.1l.03-.63-.03-.64c0-.07.01-.13.04-.19l.3-.56.2-.65-.11.08-.64.39-.68.33s-.09.03-.15.03l-.72.03h-.72s-.71-.07-.71-.07c-.01,0-.03,0-.04-.01l-.43-.09.18.3s.05.1.05.16l.04.69s0,.05,0,.07l-.08.6.13.64c.02.07,0,.14-.02.2l-.24.6-.12.65c-.01.05-.04.1-.07.15l-.4.54Z"/>
  <path class="cls-2" d="M233.93,316.32l-.33.67-.34.55-.21.61-.19.63-.04.66-.03.65.27.61.15.61.19.62.35.52-.64-.04-.62-.25-.65.16-.63.12h-.67s-.57.35-.57.35l-.6.25-.54.37-.63.22-.5.43-.53.38-.49.43-.56.51.59-.51.43-.53.18-.68.52-.48.1-.7.28-.6.38-.58-.04-.7.17-.65.11-.68-.31-.63-.17-.65-.41-.61.67.36.69.14.69.09.73.11.68-.26.71-.17.54-.52.65-.29.59-.53Z"/>
  <path class="cls-9" d="M226.13,325.74c-.1,0-.2-.04-.27-.12-.13-.15-.11-.37.03-.5l.66-.6.28-.33.16-.61c.02-.06.05-.12.1-.17l.42-.4.09-.58s.02-.07.03-.1l.28-.6s.02-.03.03-.04l.32-.49-.03-.59s0-.07.01-.11l.17-.65.08-.54-.26-.53s-.02-.04-.03-.07l-.15-.59-.37-.56c-.09-.14-.08-.32.03-.44s.29-.15.43-.07l.62.33.64.13,1.31.19.59-.23.05-.02.61-.14.46-.45s.07-.06.1-.07l.6-.26.55-.48c.13-.11.31-.12.45-.02s.18.29.1.44l-.33.67-.33.55-.2.57-.18.57-.06,1.18.24.53s.01.04.02.06l.15.61.17.55.32.47c.07.11.08.26.02.38-.07.11-.19.19-.33.18l-.64-.04s-.08-.01-.11-.03l-.52-.2-.54.13-.65.13s-.04,0-.06,0h-.58s-.48.31-.48.31c-.01.01-.03.02-.05.03l-.57.23-.51.34s-.06.03-.08.04l-.57.2-.45.39-.54.39-.33.29-.07.08s-.03.03-.04.05l-.59.51c-.06.06-.15.09-.22.09ZM228.3,322.58l-.1.65s0,.03,0,.04l.48-.17.5-.34s.04-.03.06-.04l.58-.23.54-.33c.06-.03.12-.05.18-.05h.64s.59-.13.59-.13l.63-.16c.07-.02.15-.02.21.02l.42.17-.18-.59-.15-.61-.26-.58s-.03-.1-.03-.16l.07-1.32s.01-.05.02-.08l.19-.63.22-.63s0-.01,0-.02l-.04.02-.49.48s-.1.08-.17.09l-.68.16-.66.26c-.06.02-.12.03-.18.02l-1.42-.2-.49-.1.09.38.29.6c.03.06.04.14.03.21l-.11.68-.17.63.04.65c0,.07-.02.15-.06.21l-.36.56-.25.55Z"/>
</svg>