<svg width="2003" height="638" viewBox="0 0 2003 638" fill="none" xmlns="http://www.w3.org/2000/svg">
<path d="M205.918 540.832C189.437 547.268 172.8 547.097 156.007 540.318C139.169 533.422 127.167 520.798 120 502.446C114.02 487.134 114.114 472.885 120.281 459.699C126.448 446.513 135.902 437.433 148.643 432.457C163.02 426.843 176.407 428.35 188.803 436.981C189.22 437.357 192.986 438.379 200.104 440.045C201.963 440.666 203.189 441.736 203.782 443.256C204.513 445.126 204.359 446.803 203.322 448.286L188.679 473.403C188.161 474.144 187.281 474.824 186.041 475.443C183.703 476.356 181.704 475.722 180.045 473.542L178.385 471.361C177.369 470.141 176.227 468.768 174.958 467.243C173.76 465.555 172.953 464.523 172.536 464.147C168.784 461.437 164.511 461.017 159.718 462.889C155.16 464.669 151.542 468.17 148.866 473.391C145.62 479.912 145.846 487.907 149.543 497.375C153.378 507.194 159.736 514.68 168.619 519.833C177.573 524.823 187.661 525.127 198.882 520.745C212.325 515.496 221.035 506.234 225.012 492.961C229.106 479.642 228.254 465.56 222.457 450.715C219.946 444.286 216.305 437.894 211.534 431.54C206.554 424.997 199.762 419.162 191.159 414.035C182.555 408.908 174.106 404.865 165.811 401.908C157.633 398.905 148.33 395.263 137.902 390.983C127.545 386.54 118.949 381.949 112.114 377.209C96.589 366.432 86.065 353.972 80.5416 339.828C75.0182 325.685 74.9437 312.04 80.318 298.894C85.6923 285.749 94.3408 276.848 106.264 272.192C117.485 267.81 129.226 268.209 141.488 273.39C143.022 273.868 145.737 275.301 149.632 277.686C153.528 280.072 157.022 281.603 160.116 282.281C163.327 282.913 166.919 282.454 170.893 280.902C176.336 279.315 179.993 280.918 181.864 285.71C182.777 288.048 182.595 290.342 181.319 292.592C179.446 296.422 176.802 299.138 173.387 300.741C163.842 305.277 156.585 312.22 151.614 321.57C149.508 325.491 146.585 328.182 142.844 329.643C140.974 330.373 139.064 330.311 137.113 329.456C135.234 328.439 133.929 326.995 133.199 325.125C132.286 322.787 132.377 320.259 133.471 317.542L133.334 317.191C134.759 313.94 134.627 310.152 132.938 305.828C131.366 301.457 128.726 297.975 125.019 295.381C121.429 292.742 117.822 292.13 114.198 293.545C108.704 295.69 105.341 299.496 104.107 304.962C102.991 310.382 103.688 316.307 106.199 322.736C110.124 332.789 116.198 340.925 124.42 347.144C130.788 352.067 140.752 357.403 154.314 363.154C167.876 368.904 180.277 374.098 191.518 378.734C202.83 383.208 214.214 390.28 225.67 399.952C237.197 409.461 245.493 420.703 250.56 433.677C259.827 457.406 259.858 479.218 250.653 499.113C241.403 518.892 226.491 532.798 205.918 540.832Z" fill="#F9CD2F"/>
<path d="M405.072 473.045C383.894 479.312 361.034 477.243 336.493 466.839C316.849 458.388 300.25 445.633 286.695 428.575C273.105 411.396 263.017 391.676 256.429 369.415C246.672 336.445 246.102 304.225 254.717 272.754C263.453 241.247 280.677 218.745 306.389 205.247C310.316 203.038 315.089 201.037 320.709 199.243C338.397 194.009 354.644 194.959 369.45 202.094L369.811 201.987C371.719 199.59 373.09 196.043 373.925 191.347C374.88 186.615 376.982 183.768 380.231 182.807C385.887 181.133 389.712 183.665 391.706 190.404C392.952 194.615 393.758 202.425 394.124 213.833C394.61 225.205 395.388 232.696 396.456 236.306C397.026 238.231 398.003 240.429 399.388 242.898C400.773 245.367 402.488 248.066 404.532 250.994C406.661 253.767 408.06 255.839 408.728 257.212C409.779 258.995 410.465 260.428 410.785 261.511C412.601 267.647 411.042 271.446 406.109 272.906C401.897 274.152 398.148 272.317 394.861 267.401C393.08 264.918 391.178 260.704 389.157 254.759C387.256 248.778 384.573 243.029 381.108 237.511C377.643 231.993 372.367 227.207 365.278 223.154C356.488 217.773 346.721 216.606 335.976 219.655C317.445 225.139 303.663 241.584 294.63 268.991C285.682 296.242 286.638 328.217 297.499 364.918C305.368 391.51 317.854 413.138 334.955 429.801C352.057 446.464 372.096 453.817 395.072 451.859C399.016 451.477 402.733 450.77 406.223 449.738C417.052 446.533 424.904 441.003 429.777 433.149C434.65 425.294 435.947 417.516 433.668 409.815C432.28 405.122 429.883 401.447 426.48 398.79C422.225 395.469 417.631 394.538 412.698 395.998C410.773 396.568 408.965 397.757 407.276 399.566C406.75 398.675 406.202 397.266 405.633 395.341C403.461 388.001 404.165 381.315 407.745 375.282C411.325 369.25 416.485 365.237 423.223 363.242C433.812 360.109 443.14 363.107 451.207 372.236C455.145 376.698 458.022 381.997 459.838 388.134C464.502 403.897 461.513 420.551 450.871 438.095C440.312 455.484 425.046 467.134 405.072 473.045Z" fill="#F9CD2F"/>
<path d="M516.088 479.121C513.633 479.644 511.363 479.228 509.28 477.875C508.089 477.102 507.301 476.115 506.918 474.914C506.5 472.95 507.086 470.58 508.677 467.804C510.39 465.002 513.687 460.901 518.568 455.501C523.476 450.223 526.68 446.591 528.182 444.604C533.705 437.399 537.273 431.251 538.884 426.162C539.835 423.394 540.204 420.3 539.99 416.882L490.997 186.559C487.56 181.26 482.955 178.006 477.181 176.797C472.765 175.94 470.152 173.609 469.343 169.804C468.586 166.245 469.918 163.46 473.339 161.449C474.901 160.347 476.848 159.548 479.18 159.052C481.144 158.634 483.124 158.598 485.122 158.943C491.011 159.486 496.362 159.31 501.175 158.414C505.962 157.396 510.798 155.405 515.685 152.441C517.492 151.287 519.316 150.514 521.157 150.123C523.612 149.601 525.777 149.525 527.652 149.896C531.472 150.366 533.761 152.381 534.518 155.94C535.328 159.745 534.013 162.912 530.573 165.44C525.327 169.121 522.322 173.994 521.559 180.058C549.051 309.304 565.349 385.316 570.45 408.093C572.643 418.403 579.394 422.997 590.702 421.875C593.875 421.713 596.669 422.787 599.084 425.095C601.474 427.281 602.995 429.909 603.647 432.977C604.77 438.255 602.447 441.507 596.678 442.734C595.942 442.891 594.294 442.985 591.735 443.016C585.846 442.473 579.943 442.766 574.025 443.897C563.224 446.194 551.597 452.452 539.145 462.67C526.842 472.985 519.156 478.469 516.088 479.121Z" fill="#F9CD2F"/>
<path d="M656.288 442.73C646.388 449.229 640.381 452.618 638.266 452.898C636.275 453.161 634.667 452.487 633.442 450.877C631.935 449.051 632.638 446.237 635.553 442.434C638.592 438.614 642.457 434.812 647.146 431.028C651.852 427.368 656.31 422.791 660.52 417.298C664.73 411.804 667.029 406.69 667.415 401.956L675.68 293.587C666.16 294.34 658.663 298.432 653.19 305.865C647.701 313.173 645.442 320.497 646.412 327.836C647.564 336.545 652.406 341.094 660.938 341.485C661.645 346.834 660.247 351.576 656.743 355.71C653.347 359.703 648.85 362.07 643.252 362.81C635.664 363.814 628.821 361.364 622.724 355.462C616.817 350.04 613.321 343.224 612.236 335.014C610.624 322.822 614.741 310.885 624.589 299.204C634.436 287.522 647.26 280.637 663.059 278.548C665.92 278.169 670.464 278.075 676.692 278.264L678.828 247.033C671.692 243.8 665.013 242.594 658.793 243.417C657.3 243.614 655.343 244.126 652.921 244.953C645.595 247.946 642.331 252.935 643.128 259.918C643.292 261.162 643.597 262.514 644.044 263.974L644.713 266.164C645.19 269.772 642.754 271.929 637.404 272.636C632.801 273.245 628.366 272.249 624.098 269.649C619.939 266.908 617.439 262.365 616.6 256.021C615.63 248.681 617.926 242.112 623.488 236.313C629.034 230.39 636.534 226.803 645.988 225.553C656.687 224.139 667.987 226.315 679.889 232.083C681.944 194.977 682.582 172.994 681.802 166.136C680.091 153.198 674.369 145.347 664.637 142.583C660.583 141.6 658.301 139.181 657.791 135.324C657.314 131.716 658.797 129.052 662.24 127.331C663.419 126.669 665.563 126.132 668.673 125.721C672.281 125.244 679.047 125.678 688.971 127.024C699.004 128.229 706.695 128.478 712.044 127.77C715.154 127.359 719.688 125.747 725.645 122.934C731.602 120.121 735.824 118.55 738.312 118.221C741.422 117.81 743.888 118.75 745.71 121.04C746.588 121.937 747.11 123.007 747.274 124.251C747.537 126.242 745.145 130.166 740.097 136.023C735.032 141.756 733.335 147.107 735.004 152.076C748.624 202.425 768.97 273.973 796.044 366.72C796.868 371.041 799.231 375.033 803.133 378.694C803.978 379.342 804.902 380.106 805.904 380.986C807.031 381.849 808.245 382.891 809.546 384.112C810.83 385.208 811.77 386.096 812.366 386.777C813.244 387.673 813.766 388.743 813.93 389.987C814.374 393.346 812.979 395.24 809.745 395.667L751.897 403.316C748.538 403.761 746.698 402.295 746.379 398.92C746.148 397.178 746.589 395.727 747.702 394.568C748.631 393.938 749.831 392.957 751.3 391.623C752.877 390.149 754.006 389.114 754.687 388.518C762.091 381.336 764.435 372.735 761.718 362.715L759.438 354.093C736.435 323.717 715.256 304.746 695.901 297.179L689.421 400.375C689.252 402.929 689.217 404.579 689.316 405.326C690.023 410.675 693.548 413.88 699.891 414.94C703.663 415.707 705.808 418.524 706.325 423.393C707.098 429.24 705.121 432.476 700.393 433.101C699.896 433.167 698.557 433.09 696.376 432.872C692.007 431.425 687.14 430.992 681.774 431.575C674.683 432.513 666.188 436.231 656.288 442.73ZM744.382 301.971C742.482 295.26 736.336 273.669 725.944 237.196C715.551 200.723 708.303 175.099 704.197 160.326L699.08 245.115C709.933 254.439 725.034 273.391 744.382 301.971ZM737.2 306.528C723.672 286.545 710.603 270.995 697.994 259.878L696.776 282.254C709.989 286.456 723.464 294.547 737.2 306.528Z" fill="#F9CD2F"/>
<path d="M894.204 391.618C876.53 392.447 860.821 386.965 847.077 375.173C833.327 363.256 825.991 347.457 825.068 327.777C824.297 311.357 828.942 297.885 839.001 287.363C849.06 276.842 860.921 271.26 874.584 270.619C890.002 269.896 902.204 275.605 911.19 287.746C911.464 288.235 914.707 290.407 920.918 294.262C922.481 295.445 923.3 296.851 923.377 298.48C923.471 300.486 922.789 302.025 921.332 303.099L899.428 322.216C898.699 322.753 897.649 323.116 896.276 323.306C893.769 323.424 892.077 322.184 891.202 319.587L890.326 316.99C889.754 315.509 889.111 313.844 888.396 311.993C887.8 310.011 887.366 308.775 887.091 308.285C884.402 304.517 880.488 302.754 875.349 302.995C870.46 303.224 865.913 305.384 861.708 309.476C856.548 314.617 854.205 322.265 854.682 332.418C855.176 342.947 858.807 352.073 865.576 359.796C872.465 367.387 881.926 370.9 893.959 370.336C908.374 369.66 919.588 363.669 927.6 352.364C935.738 341.053 939.433 327.437 938.686 311.518C938.363 304.624 936.956 297.404 934.467 289.857C931.84 282.066 927.271 274.366 920.758 266.757C914.245 259.148 907.532 252.617 900.618 247.162C893.83 241.702 886.179 235.277 877.667 227.888C869.274 220.367 862.597 213.269 857.636 206.592C846.371 191.417 840.384 176.246 839.672 161.079C838.961 145.912 843.252 132.96 852.547 122.222C861.842 111.485 872.883 105.817 885.668 105.217C897.702 104.652 908.699 108.785 918.661 117.614C919.962 118.557 922.076 120.782 925.004 124.288C927.932 127.794 930.754 130.362 933.468 131.994C936.308 133.619 939.859 134.332 944.121 134.132C949.785 134.369 952.738 137.057 952.979 142.196C953.097 144.703 952.191 146.819 950.262 148.542C947.263 151.572 943.89 153.301 940.141 153.728C929.647 154.974 920.551 159.232 912.852 166.503C909.602 169.545 905.972 171.16 901.961 171.348C899.956 171.442 898.165 170.772 896.591 169.338C895.135 167.774 894.361 165.988 894.267 163.983C894.149 161.476 895.043 159.11 896.949 156.885L896.931 156.509C899.32 153.884 900.406 150.253 900.189 145.615C900.097 140.971 898.709 136.828 896.025 133.185C893.467 129.536 890.245 127.803 886.36 127.985C880.468 128.262 876.064 130.792 873.148 135.577C870.357 140.356 869.124 146.193 869.447 153.087C869.953 163.867 873.106 173.518 878.908 182.039C883.368 188.74 891.104 196.982 902.115 206.767C913.127 216.551 923.217 225.437 932.385 233.424C941.673 241.279 950.198 251.62 957.96 264.447C965.842 277.142 970.109 290.447 970.762 304.36C971.955 329.806 965.011 350.483 949.929 366.391C934.84 382.174 916.265 390.583 894.204 391.618Z" fill="#F9CD2F"/>
<path d="M1113.56 391.561C1111.05 391.442 1108.63 390.95 1106.28 390.085C1102.71 388.659 1101 386.129 1101.18 382.494C1101.37 378.357 1103.44 375.755 1107.39 374.686C1113.4 372.458 1117.42 368.378 1119.46 362.445L1127.98 183.075C1126.99 171.973 1123.44 163.388 1117.33 157.318C1111.21 151.249 1104.26 148.03 1096.49 147.661C1088.22 147.269 1081.68 149.911 1076.89 155.588C1071.14 152.426 1068.39 148.15 1068.64 142.76C1068.85 138.373 1070.91 134.764 1074.81 131.934C1069.23 130.413 1063.87 129.531 1058.73 129.287C1050.46 128.894 1043.73 130.459 1038.53 133.982C1031.66 138.555 1028.09 143.662 1027.82 149.302C1027.63 153.188 1028.92 156.578 1031.67 159.473C1034.55 162.248 1038.06 163.733 1042.2 163.93C1050.72 164.334 1058.23 159.79 1064.71 150.299C1071.05 157.007 1074.08 164.5 1073.82 172.779C1073.41 181.302 1069.74 188.603 1062.79 194.68C1055.97 200.764 1048.04 203.591 1039.02 203.163C1028.99 202.687 1019.98 197.988 1011.99 189.066C1004.68 181.559 1001.26 171.535 1001.73 158.994C1002.35 145.958 1007.59 134.712 1017.47 125.256C1027.34 115.8 1040.73 111.473 1057.65 112.276C1064.55 112.603 1070.85 113.53 1076.55 115.057L1146.46 134.957C1162.97 139.133 1173.8 141.342 1178.94 141.586C1187.46 141.99 1193.78 139.841 1197.9 135.137C1199.49 133.453 1200.36 131.045 1200.5 127.911C1200.71 123.524 1199.76 119.71 1197.66 116.469C1198.19 115.741 1199.89 114.439 1202.74 112.565C1206.73 110.493 1210.68 109.486 1214.57 109.545C1220.71 109.837 1225.86 112.406 1230.03 117.252C1234.32 122.103 1236.31 127.976 1235.98 134.87C1235.55 143.895 1231.74 151.378 1224.55 157.318C1217.36 163.258 1208.83 166.811 1198.98 167.977C1194.82 168.282 1191.36 168.369 1188.6 168.238C1180.96 167.875 1171.61 166.364 1160.55 163.704C1160.24 164.945 1156.95 231.686 1150.68 363.926C1152.65 369.924 1156.46 374.376 1162.1 377.282C1165.93 378.72 1167.68 381.504 1167.36 385.634C1167.19 389.269 1165.32 391.63 1161.75 392.717C1159.45 393.362 1156.99 393.622 1154.36 393.497C1152.1 393.39 1150.42 393.059 1149.32 392.504C1144.28 390.255 1139.18 389.008 1134.04 388.765C1128.91 388.521 1123.59 389.274 1118.11 391.023C1117.08 391.477 1115.57 391.657 1113.56 391.561Z" fill="#F9CD2F"/>
<path d="M1417.1 427.342C1409.7 433.451 1400.66 435.695 1390 434.073C1379.33 432.451 1370.42 427.606 1363.27 419.538C1353.95 408.984 1345.58 390.576 1338.15 364.314C1330.74 337.929 1326.41 308.394 1325.16 275.71C1324.58 276.131 1320.47 277.727 1312.81 280.498L1297.88 378.755C1298.73 384.849 1301.87 389.643 1307.31 393.134C1310.96 394.96 1312.48 397.919 1311.86 402.013C1311.31 405.611 1309.14 407.757 1305.36 408.451C1303.01 408.856 1300.66 408.879 1298.3 408.52C1297.06 408.332 1295.49 407.839 1293.58 407.041C1288.54 404.245 1283.48 402.46 1278.4 401.687C1273.56 400.951 1268.32 401.171 1262.69 402.345C1260.13 402.464 1258.29 402.438 1257.18 402.269C1254.94 401.929 1252.7 401.208 1250.46 400.105C1247.05 398.318 1245.62 395.625 1246.17 392.027C1246.79 387.933 1249.12 385.558 1253.15 384.902C1259.11 383.27 1263.72 379.655 1266.99 374.059L1301.22 148.887C1300.08 143.002 1296.73 138.305 1291.17 134.794C1287.59 132.473 1286.07 129.513 1286.62 125.915C1287.21 122.07 1289.39 119.8 1293.18 119.106C1295.03 118.626 1297.25 118.584 1299.86 118.98C1301.6 119.244 1303.46 119.908 1305.46 120.973C1315.83 126.231 1325.42 129.529 1334.23 130.868C1340.06 131.754 1347.71 131.965 1357.17 131.499C1366.65 130.91 1373.56 130.945 1377.91 131.605C1394.41 134.114 1403.81 143.223 1406.12 158.932C1406.93 165.275 1406.81 171.92 1405.75 178.868C1403.4 194.375 1396.93 209.385 1386.34 223.896C1375.88 238.426 1363.63 250.97 1349.59 261.527C1349.08 276.555 1350.22 293.673 1353.01 312.883C1355.82 331.969 1361 350.082 1368.55 367.222C1376.1 384.363 1385.21 393.744 1395.88 395.366C1398.98 395.838 1402.09 394.978 1405.22 392.788C1408.49 390.492 1410.63 387.707 1411.63 384.433C1417.67 385.605 1421.98 388.608 1424.54 393.44C1427.23 398.292 1428.13 403.633 1427.25 409.464C1426.13 416.783 1422.75 422.743 1417.1 427.342ZM1316.63 255.375C1328.85 246.824 1340.34 234.673 1351.11 218.921C1362.03 203.064 1368.45 188.809 1370.37 176.154C1372.77 160.399 1366.96 151.455 1352.94 149.324C1346.86 148.4 1339.88 148.799 1332 150.521L1316.63 255.375Z" fill="#F9CD2F"/>
<path d="M1459.17 462.981C1447.58 465.389 1440.74 466.335 1438.68 465.819C1436.73 465.333 1435.48 464.116 1434.93 462.168C1434.2 459.916 1435.89 457.557 1440 455.09C1444.22 452.654 1449.22 450.537 1454.97 448.739C1460.69 447.063 1466.52 444.443 1472.45 440.88C1478.38 437.317 1482.4 433.405 1484.5 429.143L1531.99 331.384C1522.85 328.587 1514.38 329.64 1506.56 334.543C1498.77 339.324 1493.98 345.306 1492.18 352.49C1490.06 361.012 1492.89 367.022 1500.68 370.519C1499.38 375.755 1496.33 379.651 1491.56 382.21C1486.93 384.677 1481.88 385.226 1476.4 383.859C1468.97 382.005 1463.51 377.213 1460.01 369.484C1456.5 362.272 1455.75 354.649 1457.76 346.613C1460.74 334.681 1468.95 325.091 1482.4 317.843C1495.85 310.595 1510.31 308.9 1525.77 312.76C1528.57 313.459 1532.83 315.04 1538.55 317.503L1552.01 289.239C1546.56 283.611 1540.79 280.037 1534.71 278.517C1533.24 278.152 1531.24 277.91 1528.68 277.789C1520.77 277.883 1515.9 281.324 1514.07 288.112C1513.77 289.329 1513.56 290.699 1513.44 292.221L1513.25 294.503C1512.37 298.034 1509.31 299.146 1504.08 297.839C1499.57 296.715 1495.81 294.16 1492.8 290.174C1489.94 286.097 1489.28 280.953 1490.83 274.744C1492.62 267.561 1497.17 262.294 1504.48 258.943C1511.81 255.471 1520.1 254.89 1529.36 257.199C1539.83 259.813 1549.54 265.988 1558.49 275.723C1574.03 241.965 1582.7 221.753 1584.49 215.087C1587.65 202.425 1585.21 193.022 1577.17 186.877C1573.76 184.474 1572.53 181.385 1573.47 177.611C1574.35 174.08 1576.71 172.146 1580.55 171.81C1581.89 171.627 1584.08 171.915 1587.12 172.675C1590.65 173.557 1596.79 176.446 1605.52 181.342C1614.41 186.148 1621.47 189.204 1626.71 190.511C1629.75 191.271 1634.56 191.436 1641.13 191.008C1647.71 190.579 1652.21 190.669 1654.65 191.277C1657.69 192.036 1659.64 193.816 1660.49 196.616C1660.98 197.772 1661.07 198.959 1660.77 200.177C1660.28 202.125 1656.62 204.896 1649.77 208.49C1642.95 211.962 1639.41 216.315 1639.14 221.55C1633.31 273.383 1625.96 347.404 1617.08 443.612C1616.26 447.934 1616.99 452.514 1619.27 457.353C1619.82 458.265 1620.4 459.315 1621.01 460.502C1621.74 461.719 1622.49 463.134 1623.25 464.747C1624.04 466.238 1624.59 467.409 1624.89 468.261C1625.38 469.418 1625.47 470.605 1625.17 471.822C1624.35 475.11 1622.35 476.358 1619.19 475.568L1562.57 461.436C1559.29 460.616 1558.11 458.577 1559.06 455.32C1559.48 453.616 1560.43 452.428 1561.89 451.758C1562.98 451.514 1564.46 451.042 1566.31 450.341C1568.32 449.549 1569.75 449.001 1570.6 448.696C1580.13 444.736 1585.47 437.597 1586.62 427.28L1587.67 418.423C1577.43 381.722 1564.7 356.298 1549.47 342.151L1505.55 435.755C1504.45 438.068 1503.81 439.59 1503.63 440.321C1502.32 445.556 1504.42 449.832 1509.93 453.147C1513.16 455.246 1514.12 458.654 1512.81 463.372C1511.39 469.094 1508.36 471.378 1503.73 470.223C1503.24 470.102 1502.03 469.539 1500.08 468.535C1496.55 465.585 1492.18 463.395 1486.97 461.966C1480.03 460.234 1470.77 460.572 1459.17 462.981ZM1592.81 364.414C1593.5 357.474 1595.72 335.134 1599.45 297.393C1603.18 259.653 1605.85 233.158 1607.45 217.909L1571.55 294.893C1578.22 307.551 1585.31 330.725 1592.81 364.414ZM1584.45 366.015C1579.21 342.46 1572.77 323.197 1565.12 308.226L1555.77 328.59C1566.52 337.351 1576.08 349.826 1584.45 366.015Z" fill="#F9CD2F"/>
<path d="M1639.24 516.616C1636.88 515.754 1635.18 514.196 1634.13 511.942C1633.53 510.655 1633.39 509.4 1633.7 508.178C1634.39 506.293 1636.15 504.597 1638.97 503.091C1641.91 501.628 1646.89 499.906 1653.89 497.926C1660.85 496.064 1665.5 494.69 1667.83 493.805C1676.33 490.637 1682.62 487.326 1686.69 483.872C1688.97 482.032 1690.93 479.608 1692.56 476.598L1773.47 255.46C1773.38 249.145 1771.21 243.941 1766.96 239.847C1763.67 236.775 1762.7 233.412 1764.04 229.759C1765.29 226.341 1767.89 224.69 1771.86 224.805C1773.77 224.701 1775.84 225.059 1778.08 225.879C1779.97 226.568 1781.67 227.59 1783.17 228.944C1787.87 232.534 1792.5 235.229 1797.05 237.029C1801.65 238.71 1806.8 239.594 1812.52 239.681C1814.66 239.663 1816.62 239.978 1818.39 240.625C1820.74 241.487 1822.62 242.574 1824.01 243.885C1826.99 246.313 1827.86 249.237 1826.61 252.654C1825.28 256.307 1822.48 258.291 1818.22 258.604C1811.82 258.934 1806.69 261.465 1802.82 266.196C1756.81 391.938 1732.11 459.802 1728.73 469.787C1727.06 477.996 1727.27 485.625 1729.37 492.672C1732.84 503.293 1738.95 510.14 1747.71 513.213C1755.49 516.059 1762.56 515.37 1768.91 511.148C1773.83 515.618 1775.35 520.585 1773.48 526.049C1771.46 531.588 1766.9 534.532 1759.83 534.883C1772.66 543.989 1785.62 550.935 1798.7 555.721C1810.72 560.119 1820.86 561.088 1829.11 558.628C1837.48 556.211 1842.76 551.997 1844.96 545.987C1846.64 541.391 1846.32 537.333 1844 533.811C1842.07 530.698 1839.59 528.523 1836.57 527.284C1827.85 524.093 1818.87 527.624 1809.64 537.876C1802.16 529.124 1800.31 519.562 1804.1 509.192C1807.04 501.178 1812.41 495.26 1820.22 491.437C1828.69 486.919 1838.13 486.498 1848.54 490.175C1858.44 493.797 1865.77 500.619 1870.52 510.642C1875.43 520.59 1875.49 532.105 1870.71 545.186C1865.25 559.359 1856.06 569.156 1843.12 574.577C1830.13 580.115 1813.98 579.349 1794.65 572.277C1779.92 566.888 1762.88 556.846 1743.54 542.152C1724.27 527.618 1711.75 519.295 1705.97 517.183C1695.6 513.388 1682.55 512.553 1666.8 514.677C1651.14 516.961 1641.95 517.608 1639.24 516.616Z" fill="#F9CD2F"/>
</svg>
