<?xml version="1.0" encoding="UTF-8"?>
<svg id="Layer_8" xmlns="http://www.w3.org/2000/svg" xmlns:xlink="http://www.w3.org/1999/xlink" viewBox="0 0 538.59 494.63">
  <defs>
    <style>
      .cls-1 {
        fill: none;
      }

      .cls-2 {
        fill: #f4cf88;
      }

      .cls-3 {
        clip-path: url(#clippath-1);
      }

      .cls-4 {
        clip-path: url(#clippath-3);
      }

      .cls-5 {
        clip-path: url(#clippath-4);
      }

      .cls-6 {
        clip-path: url(#clippath-2);
      }

      .cls-7 {
        clip-path: url(#clippath-7);
      }

      .cls-8 {
        clip-path: url(#clippath-6);
      }

      .cls-9 {
        clip-path: url(#clippath-8);
      }

      .cls-10 {
        clip-path: url(#clippath-5);
      }

      .cls-11 {
        fill: #101111;
      }

      .cls-12 {
        fill: #e44325;
      }

      .cls-13 {
        clip-path: url(#clippath);
      }
    </style>
    <clipPath id="clippath">
      <rect class="cls-1" x="205.71" y="158.9" width="136.72" height="137.33"/>
    </clipPath>
    <clipPath id="clippath-1">
      <rect class="cls-1" x="205.71" y="158.81" width="137" height="137.42"/>
    </clipPath>
    <clipPath id="clippath-2">
      <rect class="cls-1" x="261.1" y="158.81" width="25.33" height="24.09"/>
    </clipPath>
    <clipPath id="clippath-3">
      <rect class="cls-1" x="299.77" y="268.24" width="42.67" height="67.58"/>
    </clipPath>
    <clipPath id="clippath-4">
      <rect class="cls-1" x="299.77" y="266.9" width="42.94" height="68.91"/>
    </clipPath>
    <clipPath id="clippath-5">
      <rect class="cls-1" x="205.71" y="268.24" width="43.39" height="67.58"/>
    </clipPath>
    <clipPath id="clippath-6">
      <rect class="cls-1" x="205.71" y="266.9" width="43.39" height="68.91"/>
    </clipPath>
    <clipPath id="clippath-7">
      <rect class="cls-1" x="255.77" y="298.9" width="36" height="36.91"/>
    </clipPath>
    <clipPath id="clippath-8">
      <rect class="cls-1" x="255.77" y="298.9" width="37.33" height="36.91"/>
    </clipPath>
  </defs>
  <g class="cls-13">
    <path class="cls-11" d="M223.06,215.62l-.77-.38-.73-.44-.68-.52-.81-.31-.64-.58-.73-.44-.65-.56-.68-.51-.66-.53-.65-.56-.61-.59-.48-.71-.65-.57-.48-.7-.53-.67-.45-.71-.65-.59-.48-.7-.29-.82-.46-.72-.45-.72-.43-.73-.2-.85-.3-.79-.42-.75-.21-.83-.29-.8-.35-.78-.25-.81-.13-.85-.28-.8-.31-.8-.11-.84-.21-.83-.05-.86-.1-.84-.16-.84-.13-.84-.06-.85-.2-.83.14-.86-.23-.84-.07-1.7.12-.85-.03-.85.1-.85v-.85s.04-.85.04-.85v-.85s.11-.84.11-.84v-.85s-.01-.86-.01-.86l.06-.85.21-.83v-.85s.19-.83.19-.83l.07-.85.13-.84.23-.82.17-.83.22-.82.14-.84.18-.83.27-.81.24-.81.3-.8.21-.82.33-.78.27-.8.3-.8.25-.82.42-.74.48-.66.76-.29.84-.12.85-.05.85-.04.84.15.86-.03.84.16.81.32.83.18.84.15.83.21.86.1.8.31.81.27.8.32.78.35.85.18.8.29.72.49.83.23.78.35.76.39.76.4.76.39.83.25.78.36.72.45.68.53.83.27.66.56.76.39.7.49.79.34.64.59.72.46.82.3.66.55.67.53.7.49.68.52.71.47.63.58.77.4.58.65.77.41.7.49.61.61.68.52.57.65.65.56.69.5.66.55.57.64.73.47.53.69.72.47.58.63.54.67.75.46.51.7.61.59.64.58.48.72.62.59.7.52.44.76.55.65.63.59.57.63.55.68.86-.12.8-.19.81-.17.8-.24.82-.08.84-.02.82-.1.81-.17.82-.1.83-.06.82-.12.83-.03h.83s.82-.23.82-.23l.83-.02.83.06.83.04.82.03.83-.11.82.15.83-.08.82.05.83.02.81.21.82.1.82.11.85-.07.79.27.81.16.82.15.82.16.78.44.5-.76.64-.57.45-.74.73-.49.42-.78.62-.59.56-.64.64-.58.63-.58.64-.57.54-.66.68-.53.62-.59.5-.71.67-.54.71-.48.61-.6.53-.7.63-.57.74-.46.66-.54.6-.61.65-.55.72-.46.56-.67.73-.45.66-.54.65-.57.72-.47.73-.44.65-.57.76-.4.66-.55.71-.47.78-.37.7-.49.69-.51.74-.43.66-.56.81-.32.68-.53.73-.43.82-.28.69-.51.76-.41.79-.32.8-.31.76-.39.72-.49.81-.29.83-.24.76-.4.77-.4.88-.09.77-.4.83-.22.79-.33.82-.23.81-.28.83-.22.82-.25.88.04.82-.26.84-.14.84-.16.86.04.85-.05.84.09.83.13.81.18.55.65.28.81.29.8.36.77.39.76.14.85.3.8.22.82.27.81.19.83.24.82.15.83.16.83.28.82.15.83.14.84-.05.86.23.83.11.84.14.84.05.85v.85s.19.84.19.84l.09.85-.07.85.1.84.07.85v.85s0,.85,0,.85l-.16.85-.04.84v.85s.06.85.06.85l-.12.84-.13.84-.03.85-.16.84-.09.84-.06.85-.21.83-.23.82-.05.86-.27.81-.15.84-.2.83-.35.78-.13.85-.39.77-.33.79-.22.82-.3.8-.35.78-.47.72-.31.8-.52.68-.81,1.5-.44.73-.53.68-.68.55-.47.71-.6.6-.56.64-.61.59-.61.59-.63.57-.68.51-.62.59-.78.36-.68.52-.68.52-.73.44-.81.29-.75.45.13.86.34.79.13.84.04.85.19.83.26.82.12.84.14.84.15.84.23.82.11.84.09.84.11.84.03.85.23.83.1.84.1.84-.05.86.2.83.15.84-.07.86.05.85.14.84.04.85.09.84.14.85.04.85-.09.85v.85s.05.85.05.85l-.1.85.08.85v.85s.03.85.03.85l-.13.85.11.86-.23.83.1.86-.16.84.05.86-.19.83-.16.84-.08.85-.14.84v.86s-.28.83-.28.83l-.21.84-.07.86-.15.85-.29.81-.09.86-.08.86-.38.8-.02.88-.2.83-.23.83-.31.8-.19.84-.36.78-.28.82-.38.77-.23.83-.38.78-.46.73-.45.73-.46.73-.52.69-.57.65-.68.54-.49.72-.76.44-.64.57-.58.66-.72.46-.78.39-.7.5-.74.43-.74.43-.7.51-.82.29-.7.51-.83.28-.77.38-.76.42-.76.41-.78.34-.75.38-.69.5-.7.47-.77.34-.61.61-.74.4-.65.54-.61.57-.69.49-.66.52-.6.59-.53.66-.46.71-.61.59-.43.72-.53.67-.42.73-.38.76-.31.78-.49.69-.46.68-.56.61-.65.54-.8.29-.84.19-.82.27-.87.04-.86.05-.86.08-.85.24-.87-.04-.86.13-.87-.1-.86.19-.87-.08-.86-.02h-.86s-.86-.05-.86-.05l-.86.15-.86-.08-.87.07-.86-.07h-.86l-.86-.09-.87-.04-.85-.14-.88-.06-.86.07-.85.18-.86.04-.86.06-.86-.02-.86-.03-.86.04-.86.06h-.86s-.86-.19-.86-.19l-.86.06-.86.08-.87.05-.86-.22-.86-.03-.88.15-.85-.19-.86-.07-.85-.13-.87-.03-.83-.23-.88-.04-.78-.4-.8-.24-.78-.36-.55-.66-.49-.69-.34-.77-.42-.73-.36-.76-.49-.69-.38-.76-.49-.68-.53-.65-.54-.65-.48-.7-.62-.57-.69-.49-.55-.66-.76-.41-.67-.49-.63-.57-.72-.44-.72-.44-.76-.38-.73-.41-.74-.4-.75-.39-.79-.35-.76-.41-.75-.42-.77-.4-.78-.38-.75-.41-.69-.54-.8-.33-.72-.47-.73-.45-.66-.56-.75-.43-.59-.64-.68-.53-.67-.55-.56-.65-.68-.54-.6-.63-.44-.74-.49-.7-.44-.74-.39-.77-.38-.77-.28-.82-.44-.74-.26-.82-.37-.78-.11-.86-.3-.81-.23-.83-.24-.83-.21-.83-.27-.82-.04-.87-.32-.82-.17-.84-.05-.87-.22-.83-.04-.86-.14-.85-.2-.83-.11-.84-.2-.83-.16-.84v-.86l.05-.85-.16-.84v-.85s-.22-.84-.22-.84l.08-.86-.14-.84-.02-.85.05-.85.11-.85v-.85s-.04-.85-.04-.85l.05-.85.06-.84-.02-.85v-.85s0-.85,0-.85l.19-.84v-.85l.2-1.69v-.85s.1-.85.1-.85l.21-.83.09-.84.02-.85.16-.84-.02-.86.24-.82v-.86s.25-.82.25-.82l.16-.83v-.86l.21-.83.1-.84.2-.82.1-.85.31-.8.19-.83.06-.86.27-.81"/>
  </g>
  <g class="cls-3">
    <path class="cls-11" d="M262.98,295.52s-.06,0-.08-.01l-.82-.21-.79-.03-.84.15s-.08,0-.13,0l-.83-.19-.83-.06-.86-.13-.85-.03s-.05,0-.08-.01l-.8-.22-.84-.04s-.09-.01-.14-.04l-.75-.38-.77-.23s-.04-.01-.05-.02l-.78-.37s-.08-.05-.11-.08l-.55-.66-.5-.71s-.03-.04-.04-.06l-.34-.75-.41-.72-.36-.76-.48-.67s-.02-.03-.03-.05l-.36-.73-.48-.66-1.05-1.29-.48-.69-.58-.53-.68-.47s-.04-.04-.06-.06l-.51-.61-.7-.38s-.03-.02-.04-.03l-.67-.51-.63-.57-1.42-.86-.73-.35-1.49-.81-.74-.39-.78-.34-2.3-1.22-.77-.38-.77-.42s-.03-.02-.05-.03l-.65-.51-.77-.31s-.04-.02-.05-.03l-.72-.47-.72-.44s-.03-.02-.04-.03l-.64-.54-.72-.42s-.06-.04-.08-.06l-.57-.62-.65-.52-.67-.55-.04-.04-.54-.63-.66-.52-.04-.04-.59-.63s-.03-.04-.05-.06l-.44-.75-.48-.68-.45-.76-.78-1.57s-.01-.03-.02-.04l-.27-.78-.42-.72s-.03-.04-.03-.07l-.25-.8-.36-.76s-.03-.06-.03-.1l-.11-.83-.29-.77-.47-1.68-.21-.84-.26-.8s-.02-.06-.02-.09l-.03-.82-.3-.76s-.01-.04-.02-.06l-.17-.84s0-.03,0-.05l-.05-.83-.21-.8s-.01-.05-.01-.07l-.04-.85-.14-.83-.19-.81-.13-.87-.19-.8-.16-.86s0-.04,0-.05v-.86s.04-.84.04-.84l-.16-.8s0-.04,0-.06v-.81s-.21-.8-.21-.8c-.01-.04-.02-.08-.01-.11l.08-.82-.13-.8s0-.03,0-.05l-.02-.85.05-.88.11-.85v-.83s-.04-.84-.04-.84v-.04l.11-1.7v-.82s0-.86,0-.86v-.84s0-.05,0-.08l.18-.8v-.82s0-.03,0-.04l.19-1.67.02-.84.09-.87s0-.04,0-.05l.21-.81.09-.82v-.83s.02-.04.02-.05l.15-.81-.02-.82s0-.07.02-.1l.23-.77v-.81s0-.07,0-.1l.25-.8.16-.79v-.83s0-.06,0-.08l.22-.81.09-.83s0-.03,0-.04l.19-.81.1-.82s.01-.06.02-.08l.31-.78.18-.78.05-.83s0-.06.02-.09l.17-.48-.55-.27-.76-.45s-.02-.02-.03-.02l-.64-.49-.77-.29s-.08-.04-.1-.07l-.61-.55-.7-.43s-.03-.02-.05-.03l-.64-.56-.66-.5-.67-.54-.65-.56-.63-.6s-.03-.03-.05-.05l-.45-.68-.61-.54s-.04-.04-.05-.06l-.48-.7-.51-.65s-.02-.02-.02-.03l-.43-.68-.61-.56s-.04-.04-.05-.06l-.48-.7s-.03-.05-.04-.08l-.28-.78-.89-1.41-.44-.74s-.03-.06-.04-.09l-.19-.83-.28-.75-.41-.72-.03-.08-.21-.83-.28-.77-.34-.75s-.01-.03-.01-.04l-.26-.81s-.01-.03-.01-.05l-.11-.82-.27-.78-.31-.79s-.02-.06-.02-.08l-.1-.83-.21-.8s-.01-.04-.01-.07l-.05-.85-.09-.82-.16-.81-.13-.85-.06-.84-.2-.81s-.01-.09,0-.13l.13-.79-.21-.77s0-.05-.01-.07l-.07-1.7s0-.04,0-.06l.11-.82-.04-.82s0-.04,0-.05l.1-.83v-.83s.04-.86.04-.86l-.03-.84s0-.04,0-.05l.12-.82v-.83s-.01-.85-.01-.85l.06-.88s0-.04.01-.05l.2-.8v-.82s.02-.04.02-.06l.17-.81.07-.83.13-.86s.01-.03.01-.04l.23-.82.16-.81.22-.83.14-.82.18-.84s0-.03.01-.04l.27-.81.24-.81.3-.8.21-.81.02-.05.34-.78.26-.78.31-.81.24-.8s.02-.05.03-.07l.42-.74s.01-.02.02-.03l.49-.66s.09-.09.15-.11l.76-.29s.05-.01.07-.02l.84-.12,1.73-.09s.05,0,.07,0l.81.14.83-.02s.05,0,.07,0l.85.15s.04.01.06.02l.78.31.81.17.83.15.83.21.84.1s.05.01.07.02l.8.31.8.26.81.32.76.34.81.16s.03,0,.05.01l.81.29s.05.02.07.04l.68.46.78.22s.03.01.04.02l.78.35,2.27,1.17.81.26s.03,0,.04.02l.78.36s.02.01.04.02l.72.45s.02.01.03.02l.64.49.77.26s.08.03.11.06l.64.54.73.38s.03.01.04.02l.68.47.76.33s.07.04.09.06l.61.57.67.42.79.29s.07.04.1.06l.66.55.66.52.69.47.69.53.69.46s.03.02.04.03l.6.55.73.38s.07.04.09.07l.54.6.72.38s.02.01.03.02l.7.49s.03.03.05.04l.59.6.66.51s.03.03.04.04l.56.63.63.55.67.48.68.56s.03.02.04.03l.55.61.69.45s.06.04.08.07l.49.64.68.45s.04.03.06.05l.58.63.52.65.7.43s.07.05.09.08l.49.68.59.57.63.57s.04.04.05.06l.45.69.58.54.68.51s.07.06.09.1l.43.73.52.61.61.58.59.65.44.55.67-.09.77-.18.82-.17.77-.24s.04-.01.06-.01l.82-.08.86-.02.79-.09.78-.17.86-.1.84-.06.8-.12h.04l.83-.03h.8s.78-.22.78-.22c.03,0,.05-.01.08-.01l.83-.02h.03l.83.06,1.61.06.8-.1s.07,0,.1,0l.78.14.79-.07h.05l.83.05.82.02s.06,0,.08.01l.79.21,1.58.21.81-.07s.09,0,.14.02l.77.26.79.16.81.14.82.17s.07.02.1.03l.51.29.34-.51s.03-.04.05-.06l.6-.55.43-.7s.06-.08.1-.1l.66-.44.38-.71s.04-.05.06-.08l.62-.59.55-.63s.02-.02.03-.03l1.88-1.71.53-.65s.04-.04.05-.05l.67-.53.57-.55.49-.68s.04-.05.06-.06l.67-.54.71-.48.57-.56.51-.67s.03-.03.04-.05l.64-.57s.03-.03.05-.04l.72-.44.63-.52.59-.6.68-.57s.03-.02.04-.03l.68-.43.52-.63s.05-.05.08-.07l.71-.44.64-.53.64-.56s.03-.02.04-.03l.72-.47.72-.43.63-.55s.04-.03.07-.04l.73-.38.63-.53s.02-.02.03-.02l.71-.47s.03-.02.04-.03l.75-.36.68-.47.68-.51s.02-.01.03-.02l.71-.41.64-.54s.06-.04.09-.06l.77-.3.64-.5s.02-.02.04-.03l.73-.43s.04-.02.06-.03l.78-.26.65-.48s.03-.02.04-.03l.75-.41s.02-.01.03-.01l.79-.33.79-.31.73-.36.7-.48s.05-.03.08-.04l.8-.29.82-.23,1.49-.78s.08-.04.13-.04l.81-.08.71-.36s.04-.02.06-.03l.8-.22.77-.32s.03-.01.04-.01l.82-.22.79-.28.84-.23.81-.25s.08-.02.11-.02l.82.04.76-.24s.03,0,.05,0l.84-.14.83-.16s.05,0,.08,0l.85.04.82-.05h.05l.85.09.85.13.83.19c.07.02.14.05.18.11l.55.65s.04.06.06.1l.55,1.59.35.75.39.76s.03.06.03.09l.13.82.28.77.23.85.27.79s.01.02.01.03l.19.83.24.79s0,.03.01.04l.3,1.65.27.79s.01.03.01.05l.29,1.68s0,.05,0,.07l-.05.81.21.78s0,.03.01.04l.11.84.14.83v.04l.05.85v.83l.18.8s0,.03.01.04l.09.85s0,.04,0,.06l-.06.82.1.82.07.86v.88s0,.85,0,.85c0,.02,0,.04,0,.06l-.16.83-.05.83v.83l.06.83s0,.04,0,.07l-.25,1.67-.03.83s0,.03-.01.05l-.16.84-.08.82-.05.84s0,.04-.01.06l-.21.82-.22.8-.05.82s0,.06-.02.09l-.27.79-.15.81-.21.85s-.01.04-.02.05l-.33.74-.12.81s-.02.07-.03.1l-.38.77-.31.74-.21.81-.31.83-.36.8s-.02.03-.03.04l-.45.69-.3.76s-.03.06-.05.08l-.5.66-.8,1.47-.46.74s-.01.02-.02.03l-.52.67s-.03.04-.05.06l-.65.52-.44.67s-.03.03-.04.05l-.59.61-.55.63-1.24,1.2-.64.58-.69.52-.6.58s-.06.05-.09.06l-.75.34-1.33,1.01s-.02.02-.03.02l-.73.44-.06.03-.78.28-.54.32.09.6.32.76s.02.05.03.08l.13.84v.03l.04.83.18.8.24.8s.01.03.01.05l.12.84.29,1.67.22.79s.01.03.01.05l.11.84.09.85.11.83.03.85.22.79s0,.03.01.05l.2,1.69s0,.04,0,.06l-.04.81.19.78.16.86s.01.06,0,.09l-.07.83.04.81.14.83s0,.03,0,.04l.04.85.09.83.14.83s0,.03,0,.04l.04.85v.04l-.09.84v.83s.05.83.05.83v.06l-.09.82.07.82v.88l.03.84v.06l-.11.8.1.81s0,.09-.01.13l-.21.78.09.79s0,.07,0,.1l-.16.8.05.82s0,.06,0,.09l-.19.83-.15.82-.07.82-.14.83v.84s-.01.07-.02.1l-.27.83-.2.79-.07.83-.15.88s0,.04-.02.06l-.28.78-.17,1.68s-.02.08-.03.11l-.35.73-.02.81s0,.05-.01.07l-.19.84-.24.84-.31.81-.19.82s-.01.05-.02.07l-.36.77-.27.8s-.01.03-.02.04l-.37.74-.22.81s-.02.04-.03.06l-.38.77-.02.03-1.37,2.19-.54.71-.58.67s-.03.03-.04.05l-.64.51-.46.68s-.06.08-.1.1l-.73.43-.6.54-.57.65s-.05.04-.07.06l-.72.46s-.02.02-.03.02l-.75.38-.68.48-1.5.87-.69.5s-.05.03-.08.04l-.78.27-.66.49s-.06.04-.09.05l-.81.27-.75.38-1.5.82-.8.35-.71.36-.67.48-.71.48s-.03.02-.05.03l-.72.32-.57.56s-.05.04-.08.06l-.72.38-.63.51-.6.56s-.02.02-.04.03l-.68.49-.64.5-.57.56-.51.65-.44.68s-.03.04-.05.06l-.58.56-.4.69s-.02.03-.03.04l-.52.65-.41.71-.37.74-.31.76s-.02.05-.04.07l-.95,1.36s-.02.03-.03.04l-.56.61-.03.03-.66.54s-.06.04-.1.06l-.8.29s-.03,0-.04.01l-.84.19-.8.26s-.06.02-.09.02l-1.73.08-.82.07-.81.24s-.07.02-.11.01l-.84-.04-.83.13h-.08l-.81-.09-.81.18s-.07,0-.1,0l-.87-.08-1.7-.03-.84-.04-.83.14s-.06,0-.08,0l-.83-.08-.84.07h-.06l-.86-.07h-.88l-.86-.09-.85-.04s-.02,0-.04,0l-.86-.13-.82-.06-.81.07-.83.18s-.04,0-.06,0l-.86.03-.86.06-1.76-.04-.84.04-.85.06h-.89s-.05,0-.07,0l-.82-.18-.82.06-.86.08-.88.05s0-.01-.01-.01ZM261.26,294.6h.01l.86.03s.05,0,.07,0l.81.21.81-.05.85-.08.88-.06s.06,0,.09,0l.83.18h.83l.84-.07.88-.04,1.75.04.84-.05.85-.03.83-.18s.03,0,.04,0l.86-.07s.04,0,.05,0l.88.06.86.14.84.04.86.09h.85s.86.07.86.07l.84-.07h.06l.82.08.82-.15s.04,0,.07,0l.86.04,1.72.03.84.07.81-.18s.07-.01.11,0l.83.09.82-.12s.04,0,.06,0l.82.04.79-.23s.05-.01.06-.02l.86-.07,1.7-.09.78-.26.85-.2.73-.27.59-.48.53-.58.92-1.32.3-.75.39-.78.43-.75s.02-.03.03-.05l.51-.65.42-.71s.03-.05.06-.07l.58-.57.44-.68.54-.69.03-.03.6-.59s.02-.02.03-.03l.66-.52.68-.49.6-.56.67-.55s.04-.03.06-.04l.7-.38.58-.57s.06-.05.09-.07l.75-.34.68-.46.68-.49s.03-.02.04-.03l.76-.38.79-.35,1.48-.82.79-.39s.03-.02.04-.02l.78-.27.66-.48s.05-.03.08-.05l.78-.28.67-.48s.02-.02.03-.02l1.48-.86.68-.48s.03-.02.04-.03l.76-.39.67-.43.55-.63s.02-.02.03-.03l.64-.57s.04-.03.05-.04l.69-.41.45-.67s.05-.05.07-.08l.66-.52.55-.63.5-.67,1.35-2.15.36-.73.22-.81s.01-.04.02-.06l.38-.75.27-.79s0-.03.01-.04l.35-.75.18-.81.02-.05.31-.8.22-.8.18-.79.02-.84s.02-.09.04-.14l.35-.74.17-1.66.02-.08.29-.79.14-.82.07-.83s0-.04.01-.06l.21-.84.27-.8v-.81s0-.03,0-.05l.14-.84.08-.83.16-.86.18-.8-.05-.81s0-.06.01-.08l.15-.79-.09-.81s0-.08.01-.13l.21-.77-.1-.79s0-.06,0-.09l.11-.82-.03-.83v-.86l-.08-.82v-.07l.1-.82-.05-.82v-.86s-.01-.02-.01-.04l.09-.83-.03-.81-.14-.83-.09-.87-.04-.85-.14-.82s0-.03,0-.04l-.05-.85v-.05l.07-.82-.15-.8-.2-.81s-.01-.07-.01-.1l.05-.83-.2-1.64-.22-.81s0-.05-.01-.07l-.03-.85-.11-.81-.09-.85-.1-.81-.22-.8-.3-1.71-.11-.82-.24-.79-.2-.85s0-.04,0-.06l-.04-.84-.11-.78-.32-.76s-.02-.05-.03-.08l-.13-.86c-.02-.13.05-.27.16-.33l.75-.45s.04-.02.06-.03l.78-.28.68-.42,1.34-1.02s.04-.03.06-.04l.73-.34.58-.55s.02-.02.03-.03l.68-.51.6-.55,1.22-1.18.54-.62.58-.6.45-.68s.05-.05.07-.08l.65-.52.49-.63.44-.71.8-1.49s.02-.03.03-.04l.49-.65.3-.76s.02-.04.03-.06l.45-.7.35-.75.29-.78.21-.8s.01-.03.02-.05l.33-.78.36-.74.12-.8s.02-.06.03-.09l.34-.75.2-.8.15-.81s0-.04.01-.05l.26-.77.05-.81s0-.05.01-.07l.22-.82.2-.79.05-.82.09-.86.16-.84.03-.83v-.04l.25-1.65-.06-.82v-.88l.05-.86s0-.03,0-.04l.15-.82v-.82s0-.84,0-.84l-.07-.82-.1-.83s0-.05,0-.07l.07-.82-.09-.8-.18-.82s-.01-.05-.01-.07v-.85l-.05-.81-.14-.82-.11-.83-.22-.8s-.02-.07-.01-.1l.05-.83-.28-1.61-.27-.79s-.01-.03-.01-.04l-.3-1.66-.23-.8-.19-.83-.27-.79-.22-.84-.29-.77s-.02-.05-.02-.06l-.13-.8-.36-.72-.36-.78s-.01-.02-.02-.03l-.54-1.56-.43-.52-.7-.16-.81-.13-.81-.09-.82.04-.85-.03-.81.15-.83.14-.79.25s-.08.02-.12.02l-.82-.04-.77.23-.83.23-.79.27-.82.23-.77.32s-.03.01-.04.02l-.79.21-.73.38s-.08.03-.12.04l-.81.08-1.47.77s-.04.02-.06.02l-.83.24-.74.27-.68.46s-.02.02-.04.03l-.76.39s-.02.01-.03.01l-.8.31-.77.32-.71.39-.67.49s-.06.04-.09.05l-.79.27-.69.41-.67.52s-.05.04-.08.05l-.76.29-.61.53s-.03.03-.05.04l-.72.42-.68.49-.7.5s-.03.02-.05.03l-.76.36-.67.45-.64.54s-.04.03-.06.04l-.73.38-.61.54s-.03.03-.05.04l-.73.44-.69.45-.63.55-.66.55s-.03.02-.04.03l-.69.43-.52.63s-.05.05-.08.07l-.71.45-.64.54-.58.59s-.02.02-.03.02l-.66.54s-.03.02-.04.03l-.71.44-.58.54-.51.67s-.02.03-.03.04l-.61.6s-.03.03-.05.04l-.71.48-.6.49-.48.67s-.03.04-.04.05l-.62.58-.67.53-.52.64-.03.03-1.89,1.72-.56.63-.59.58-.4.73s-.06.09-.1.12l-.68.45-.41.68s-.04.05-.06.07l-.61.55-.48.72c-.09.14-.29.19-.44.1l-.73-.41-.78-.1-.81-.14-.82-.17s-.03,0-.04-.01l-.73-.25-.78.07s-.05,0-.08,0l-1.63-.21s-.03,0-.04-.01l-.77-.21-.79-.02-.81-.05-.8.07s-.06,0-.09,0l-.77-.14-.78.1s-.04,0-.06,0l-1.66-.07-.83-.06-.77.02-.78.21s-.05.01-.08.01h-.83s-.8.04-.8.04l-.81.11-.85.06-.81.1-.78.17-.85.1-.86.02-.77.08-.77.23-1.64.36-.88.13c-.12.02-.23-.03-.31-.12l-.54-.68-.57-.62-.6-.57-.03-.03-.55-.65s-.03-.03-.04-.05l-.4-.7-.65-.47s-.02-.02-.03-.03l-.62-.59s-.03-.04-.05-.05l-.45-.69-.6-.55-.62-.6s-.03-.03-.04-.04l-.47-.65-.69-.43s-.06-.05-.08-.07l-.54-.67-.54-.58-.69-.45s-.06-.05-.08-.07l-.5-.64-.68-.44s-.05-.04-.07-.06l-.56-.63-.64-.53-.68-.49-.67-.57s-.02-.02-.03-.04l-.55-.62-.65-.51s-.02-.02-.03-.03l-.58-.59-.66-.46-.75-.4s-.06-.05-.09-.07l-.54-.6-.71-.38s-.05-.03-.07-.05l-.62-.56-.69-.46-.69-.54-.69-.47-.69-.54-.62-.52-.78-.28s-.05-.02-.06-.03l-.72-.46s-.04-.03-.05-.04l-.59-.55-.74-.32s-.04-.02-.06-.03l-.69-.48-.74-.39s-.04-.03-.06-.04l-.61-.52-.77-.26s-.07-.03-.1-.05l-.67-.52-.7-.43-.73-.34-.81-.24s-.04-.02-.05-.03l-2.28-1.17-.74-.33-.81-.23s-.06-.03-.09-.05l-.69-.47-.74-.27-.83-.16s-.05-.02-.07-.03l-.78-.34-.79-.31-.79-.26-.78-.3-.82-.1s-.03,0-.04-.01l-.83-.21-.81-.14-.84-.18s-.04-.01-.06-.02l-.78-.31-.78-.14-.83.03s-.04,0-.06,0l-.81-.15-1.67.09-.78.11-.63.24-.42.56-.39.69-.24.78-.31.82-.27.79-.34.78-.2.8s0,.03-.01.04l-.3.8-.23.79-.27.8-.17.81-.14.83s0,.02,0,.03l-.22.82-.16.82-.23.83-.13.82-.07.83s0,.03,0,.04l-.17.8-.02.82s0,.05-.01.08l-.2.8-.05.82.02.82v.86s0,.03,0,.04l-.13.82.02.82-.03.86v.84s-.01.02-.01.04l-.1.82.04.83s0,.04,0,.06l-.11.82.07,1.64.22.8s.02.1,0,.15l-.14.8.19.77s0,.04.01.06l.06.85.12.81.16.82.1.87.05.84.21.8s0,.03,0,.04l.1.81.3.76.29.82.02.06.11.82.24.77.35.76.3.83.21.82.4.71s.02.03.02.04l.3.8s.01.03.02.04l.18.8.41.69.9,1.44s.03.04.04.07l.27.78.44.64.62.56s.04.04.06.07l.44.7.52.65.47.69.61.54s.04.04.06.06l.46.68.59.57.63.55.66.53.67.51.64.56.71.42s.04.03.05.04l.59.54.76.28s.06.03.09.05l.66.51.72.43.62.3s.09,0,.14.02c.17.06.27.25.2.42l-.26.77-.05.81s0,.04-.01.05l-.19.83s0,.03-.01.05l-.3.76-.09.8s0,.03,0,.04l-.19.81-.1.83s0,.03,0,.04l-.2.78v.82s0,.04,0,.07l-.16.83s0,.02-.01.04l-.24.77v.81s0,.06,0,.1l-.23.77.02.81s0,.05,0,.07l-.16.81-.02.83-.09.87s0,.03,0,.05l-.2.81-.09.82v.82s-.01.02-.02.03l-.2,1.67v.83s0,.05,0,.07l-.18.8v.81s0,.86,0,.86l.02.84-.11,1.7.03.83v.86s.01.03.01.05l-.12.85-.04.82.02.81.14.82s0,.06,0,.09l-.08.8.2.78s.01.05.01.08v.82s.16.81.16.81c.01.03.01.05.01.08l-.05.85v.81l.15.81.2.81.13.88.19.8.15.87s0,.03,0,.04l.04.83.21.8s.01.04.01.06l.05.84.16.8.31.79s.02.07.03.1l.03.83.26.78.21.86.47,1.65.29.78s.02.05.02.07l.1.82.35.73s.02.03.02.04l.24.78.42.72s.02.04.03.06l.27.8.75,1.52.43.72.48.68.44.73.55.58.67.52s.03.03.05.04l.54.63.64.53.67.52s.03.02.04.04l.56.6.7.41s.04.03.05.04l.64.54.71.44.7.46.78.32s.06.03.08.05l.66.52.73.4,1.53.77,1.52.82.77.34,1.51.8.74.41.74.36,1.47.9s.04.02.05.04l.63.57.63.47.73.4s.07.05.1.08l.52.63.66.46s.03.02.04.03l.62.57s.03.04.05.06l.48.7,1.05,1.28.51.69.03.05.36.73.48.67s.02.03.03.05l.36.76.41.71s.01.02.02.03l.33.74.47.66.49.58.68.32.78.23s.04.01.06.02l.72.37.8.03s.05,0,.07.02l.8.22.82.02s.03,0,.04,0l.85.13.83.06s.03,0,.05.01l.79.18.81-.14s.04-.01.06-.01Z"/>
  </g>
  <path class="cls-2" d="M272.63,199.06l.85-.03.85.13h.85s.86,0,.86,0l.83.22.83.19.85.08.85.16.82.26.79.35.83.2.77.38.84.21.78.36.8.31.75.42.78.36.82.28.76.41.73.44.71.47.64.59.74.43.7.48.67.53.76.41.58.65.69.51.68.53.69.51.63.58.56.66.55.66.72.49.51.69.6.61.49.7.6.62.42.76.58.64.47.72.66.56.46.71.57.63.42.75.51.67.61.6.46.71.57.63.6.6.61.58.46.72.66.54.61.57.47.72.56.63.69.52.48.7.69.51.59.61.51.68.47.7.42.73.54.65.34.77.44.71.35.76.26.8.41.76-.02.86.35.79.04.85-.03.84.26.83-.12.85-.02.84.13.84-.21.84-.06.83.12.85-.19.83-.03.86-.02.86-.22.84-.11.85v.86s-.28.83-.28.83l-.16.84-.1.85-.15.84-.24.82-.17.84-.17.84-.16.84-.38.79-.11.86-.4.77-.14.86-.26.82-.47.73-.21.84-.48.72-.27.83-.39.77-.49.71-.39.77-.58.64-.51.69-.51.7-.63.59-.69.51-.6.63-.74.44-.84.23-.79.33-.84.1-.85.05-.86-.1-.84.19-.85.08-.86.06-.77.39-.84.21-.7.51-.74.42-.63.57-.65.55-.7.49-.6.61-.53.67-.62.59-.86.11-.87-.07-.82-.33-.85-.17-.84-.2-.85-.2-.83-.28-.82-.28-.85-.2-.84-.22-.81-.35-.82-.28-.84-.21-.88-.09-.82-.31h-.88s-.85-.21-.85-.21l-.87-.04-.84-.24-.86-.18h-.88s-.87.04-.87.04h-.87s-.86.09-.86.09l-.84.06-.85-.03-.83.17-.85.02-.83.14-.8.3-.86.02-.81.26-.82.2-.81.24-.81.23-.79.3-.84.11-.77.37-.81.24-.74.41-.81.24-.78.33-.65-.54-.67-.49-.69-.45-.65-.54-.74-.39-.79-.29-.69-.45-.76-.34-.76-.33-.7-.46-.8-.22-.76-.36-.8-.23-.8-.23-.84-.05-.82-.28-.84-.15-.84-.14-.83-.17-.82-.23-.81-.25-.82-.22-.79-.3-.78-.34-.77-.38-.77-.36-.72-.45-.7-.48-.59-.63-.61-.58-.7-.51-.45-.73-.61-.6-.52-.68-.36-.78-.42-.73-.42-.74-.39-.72-.27-.81-.4-.76-.25-.81-.28-.81-.15-.84-.19-.83-.11-.84-.28-.81-.24-.82.04-.87-.26-.83v-.86l-.16-.84-.03-.85-.06-.85.09-.86-.23-.84-.03-.85.19-.86-.06-.85-.07-.85-.03-.85.26-.83.08-.84.05-.85.1-.84.19-.83.2-.82.16-.83.21-.82.1-.85.24-.82.31-.79.4-.76.35-.78.43-.73.38-.76.47-.7.4-.76.55-.65.4-.77.57-.63.58-.63.61-.59.68-.52.52-.69.74-.45.61-.59.73-.44.58-.65.7-.48.73-.43.76-.39.65-.56.73-.44.72-.44.64-.57.65-.54.64-.56.68-.52.52-.67.52-.66.5-.68.56-.65.4-.75.55-.67.34-.79.37-.77.43-.73.49-.7.52-.68.42-.73.47-.71.61-.59.44-.74.68-.52.6-.6.61-.6.71-.48.75-.41.73-.44.74-.41.79-.33.84-.19.76-.4.85-.13.79-.32.83-.21.83-.18.83-.21.86-.05.84-.09.81-.3.84-.15.86.07.83-.27.86.06.85-.05.84-.03Z"/>
  <path class="cls-11" d="M292.15,275.7h-.03l-.87-.07s-.07-.01-.1-.03l-.79-.31-.82-.17-1.7-.4-1.68-.56-.82-.19-.85-.22s-.03-.01-.05-.02l-.8-.35-.8-.27-.8-.2-.85-.09s-.05,0-.08-.02l-.77-.29h-.83s-.05-.01-.07-.02l-.82-.2-.84-.04s-.05,0-.07-.02l-.84-.24-.8-.17h-.84s-.85.04-.85.04h-.87s-.84.09-.84.09l-.85.06s-.03,0-.04,0l-.81-.03-.79.16s-.04.01-.06.01h-.82s-.78.15-.78.15l-.77.28s-.07.02-.1.02l-.81.02-.76.25-.84.21-1.61.47-.76.29s-.05.02-.07.02l-.8.11-.72.34s-.03.01-.05.02l-.78.23-.71.4s-.05.02-.07.03l-.79.23-.77.32c-.11.05-.24.03-.34-.05l-.65-.54-.65-.48-.68-.44s-.02-.02-.03-.03l-.62-.51-.69-.36-.77-.29s-.05-.02-.06-.03l-.68-.44-1.49-.66s-.03-.02-.05-.03l-.66-.44-.76-.21s-.04-.02-.06-.02l-.73-.35-1.54-.44-.8-.05s-.06,0-.09-.02l-.79-.27-.82-.14-.83-.13-.85-.17-.84-.23-.82-.26-.81-.22s-.02,0-.04-.01l-.79-.31-.79-.34-1.54-.74s-.02-.01-.04-.02l-.72-.45-.71-.49s-.04-.03-.05-.05l-.59-.63-.59-.55-.68-.49s-.06-.06-.09-.1l-.43-.7-.58-.57s-.02-.03-.03-.04l-.52-.68s-.03-.04-.04-.06l-.36-.78-.83-1.46-.4-.77s-.02-.04-.02-.05l-.26-.78-.39-.74s-.02-.04-.02-.06l-.26-.81-.28-.79s-.01-.04-.02-.06l-.14-.84-.19-.81s0-.02,0-.04l-.1-.81-.28-.78-.25-.84s-.01-.07-.01-.11l.04-.81-.24-.77s-.01-.07-.01-.1v-.83l-.16-.81s-.01-.04-.01-.06l-.02-.85-.06-.84v-.06l.09-.8-.21-.79s-.01-.05-.01-.07l-.03-.85s0-.06,0-.08l.18-.81-.13-1.65-.03-.87s0-.07.02-.1l.24-.8.08-.81.04-.83.1-.86s0-.02,0-.03l.18-.83.2-.83.16-.82.21-.82.09-.83s.01-.04.01-.05l.24-.82.32-.83s.01-.02.02-.04l.41-.75.34-.76.02-.03.43-.73.37-.74s.02-.03.03-.04l.46-.68.38-.74s.03-.04.04-.06l.53-.63.38-.73s.03-.05.05-.07l1.16-1.26.63-.6s.02-.02.03-.03l.64-.49.49-.66s.06-.06.09-.08l.7-.43.58-.57s.04-.04.06-.05l.69-.42.55-.6s.04-.04.06-.05l.7-.48.76-.44.74-.39.62-.53s.03-.03.04-.04l1.43-.87.61-.55,1.29-1.1.66-.51,1.01-1.3.49-.68.55-.64.39-.72s.03-.04.04-.05l.52-.63.32-.74.38-.78.44-.76.51-.72.51-.67.41-.72.48-.73s.03-.04.05-.05l.58-.56.42-.71s.05-.07.08-.09l.67-.51,1.2-1.19s.03-.03.04-.04l.71-.48.78-.43.72-.43.76-.42.81-.34s.04-.02.06-.02l.8-.18.72-.38s.07-.03.11-.04l.81-.12.75-.31.05-.02.82-.21.84-.18.81-.21s.04-.01.06-.01l.86-.05.79-.09.78-.28s.04-.02.06-.02l.84-.15s.05,0,.08,0l.8.07.77-.24s.08-.02.12-.01l.84.06,1.69-.08.85-.03h.06l.82.13h.83s.86-.01.86-.01c.03,0,.06,0,.09.01l.83.22.8.18.84.08.87.16s.03.01.04.01l.82.26s.02.01.04.02l.76.34.81.2s.04.01.07.02l.74.36.8.2s.04.02.06.02l.78.36.78.31s.03.01.04.02l.75.41.74.35.8.28s.04.01.05.02l.76.41.75.45.73.48s.03.02.04.03l.61.56.71.41.72.5.67.53.73.4s.06.04.09.07l.56.62,2.03,1.53s.02.02.03.02l.63.58.03.03,1.08,1.28.69.47s.05.04.08.07l.5.68.58.6s.02.03.03.04l.48.68.58.6s.04.05.05.07l.4.72.55.61s.02.03.03.04l.44.67.62.54s.05.05.06.07l.45.69.55.6s.03.04.05.06l.41.73.48.64.59.58s.03.03.05.05l.45.69.55.61.58.58.61.58s.04.04.05.06l.44.68.62.51.64.59s.04.04.05.06l.45.7.53.59.66.49s.05.05.08.07l.45.66.65.48s.03.02.04.04l.59.6s.02.02.03.03l.51.68.48.71.42.74.52.63s.04.05.05.08l.33.75.43.69s.02.03.02.04l.35.77s.01.02.02.04l.25.77.39.73c.03.05.04.11.04.16v.8s.31.72.31.72c.02.04.03.08.03.12l.04.85-.03.81.24.78s.02.09.01.14l-.12.83-.02.79.13.82s0,.08,0,.13l-.2.81-.06.78.12.82s0,.08,0,.12l-.18.81-.03.82-.02.85s0,.05-.01.08l-.21.82-.11.81v.85s-.02.06-.03.1l-.26.8-.15.82-.1.83-.15.86s0,.02,0,.04l-.24.82-.49,2.49s-.02.06-.03.08l-.36.73-.1.81s-.02.08-.04.11l-.38.72-.13.81s0,.03-.01.05l-.26.82s-.02.06-.04.08l-.44.69-.19.79s-.03.07-.05.1l-.46.69-.26.78s-.01.04-.02.05l-.39.77s-.02.03-.02.04l-.48.69-.38.75s-.03.06-.05.07l-.57.63-1,1.38s-.03.03-.04.05l-.63.59s-.02.02-.03.03l-.67.49-.58.6s-.04.04-.07.06l-.74.44s-.06.03-.08.03l-.82.23-.77.32s-.06.02-.09.02l-.84.1-.87.05h-.06l-.8-.09-.79.17s-.03,0-.04,0l-.84.08-.8.06-.71.36s-.05.02-.07.03l-.78.19-.64.47s-.02.02-.04.03l-.71.39-.6.55-.66.55-.7.5-.57.57-.53.66-.03.03-.62.59c-.05.05-.11.08-.18.09l-.86.12s-.04.03-.06.03ZM291.36,274.97l.79.06.71-.09.53-.5.52-.65s.01-.02.02-.03l.6-.61s.03-.03.05-.04l.7-.5.63-.53.63-.57s.04-.03.06-.04l.73-.4.68-.5s.07-.04.11-.06l.8-.2.74-.38s.08-.04.13-.04l.86-.06.82-.08.83-.18s.07-.01.11,0l.82.09.82-.05.78-.09.75-.31s.02-.01.04-.01l.79-.22.67-.4.57-.59s.03-.03.04-.04l.68-.5.58-.56,1-1.36s.01-.02.02-.03l.56-.61.36-.73s.02-.03.03-.04l.48-.69.37-.72.26-.8s.02-.06.04-.08l.44-.68.2-.79s.02-.07.04-.1l.45-.7.23-.76.13-.83s.02-.07.04-.1l.37-.72.1-.8s.02-.07.03-.1l.36-.74.49-2.49.24-.83.14-.82.1-.84.16-.86s.01-.03.01-.05l.26-.78v-.81s.01-.03.02-.04l.11-.85s0-.03,0-.04l.21-.8.02-.83.03-.86s0-.04,0-.06l.18-.77-.11-.8s0-.05,0-.07l.06-.84s0-.03.01-.05l.19-.77-.12-.78s0-.04,0-.05l.02-.84v-.04l.11-.78-.23-.76s-.02-.07-.02-.1l.03-.85-.03-.76-.33-.73s-.03-.09-.03-.14l.02-.78-.36-.68s-.02-.04-.03-.05l-.25-.78-.33-.72-.43-.7s-.01-.03-.02-.04l-.33-.73-.51-.61s-.02-.04-.03-.05l-.42-.74-.46-.67-.49-.65-.55-.57-.67-.49s-.06-.05-.08-.08l-.45-.66-.65-.48s-.04-.03-.05-.04l-.56-.64s-.02-.03-.03-.04l-.45-.69-.58-.55-.65-.53s-.05-.05-.07-.08l-.44-.68-.59-.56-.6-.6-.58-.64s-.02-.03-.03-.04l-.45-.68-.58-.57s-.03-.03-.04-.04l-.51-.68s-.02-.02-.02-.04l-.4-.71-.54-.6s-.02-.03-.03-.04l-.44-.67-.62-.53s-.04-.04-.06-.07l-.46-.7-.56-.61s-.03-.04-.04-.06l-.4-.72-.56-.58s-.03-.03-.04-.04l-.48-.68-.58-.59s-.02-.02-.03-.04l-.48-.65-.68-.46s-.05-.04-.07-.06l-1.1-1.3-.6-.55-2.04-1.54s-.03-.03-.05-.05l-.54-.6-.71-.39s-.04-.02-.05-.03l-.68-.53-.68-.47-.72-.42s-.04-.03-.06-.04l-.63-.57-.69-.46-.73-.44-.71-.39-.8-.27-.03-.02-.77-.36-.76-.41-.78-.31-.77-.35-.8-.2s-.05-.02-.07-.02l-.74-.36-.8-.2s-.04-.01-.06-.02l-.77-.34-.78-.24-.82-.15-.83-.08s-.03,0-.04,0l-.83-.19-.8-.22-.82.02h-.86s-.03,0-.05,0l-.81-.13-1.67.07-.85.05h-.04l-.8-.05-.77.24s-.09.02-.13.01l-.82-.07-.77.13-.79.29s-.05.01-.08.02l-.84.1-.84.05-.79.2-.85.18-.79.2-.77.32s-.05.02-.07.02l-.8.12-.71.38s-.05.02-.08.03l-.81.18-.76.32-.72.4-.72.43-.76.42-.66.45-1.2,1.18s-.02.02-.03.03l-.63.48-.41.69s-.04.05-.06.07l-.58.57-.45.68-.41.71s-.02.03-.02.04l-.52.68-.48.69-.42.71-.35.74-.33.77s-.03.06-.05.08l-.53.65-.39.72s-.03.04-.04.06l-.56.65-.48.66-1.05,1.33s-.04.05-.06.06l-.68.52-1.91,1.66s-.03.03-.05.04l-1.43.87-.63.54s-.04.03-.06.04l-.76.4-.72.42-.65.45-.56.61s-.05.05-.08.06l-.7.42-.59.57s-.04.03-.06.05l-.68.42-.48.64s-.04.05-.07.07l-.66.5-.6.58-1.11,1.2-.38.73s-.03.04-.04.06l-.53.62-.37.72s-.02.02-.02.03l-.46.69-.37.73-.43.74-.34.76-.4.76-.31.78-.22.77-.09.83s0,.03-.01.05l-.21.82-.16.81-.39,1.65-.1.82-.04.83-.08.86s0,.04-.01.06l-.24.78.03.8.13,1.69s0,.06-.01.1l-.18.81.03.78.22.81s.01.08,0,.13l-.09.83.06.82.03.84.16.81s0,.04,0,.07v.81l.24.78s.02.08.01.11l-.04.81.23.77.28.79s.02.05.02.07l.11.83.19.81.14.84.28.78.24.8.38.73s.02.03.02.05l.26.79.38.73.83,1.46.36.77.48.63.59.59s.04.04.05.06l.42.68.65.47s.02.02.03.03l.61.58.58.61.68.46.69.44,1.52.73.77.33.77.29.8.22.82.25.81.23.81.16.82.13.84.15s.04.01.05.02l.78.26.8.05s.05,0,.07.01l1.6.46s.04.01.05.02l.73.35.78.21s.06.02.09.04l.68.45,1.49.66s.03.02.05.03l.66.43.76.28s.03.01.04.02l.73.39s.04.03.06.04l.64.52.68.44.68.51.51.42.6-.25s.03-.01.04-.01l.77-.23.71-.39s.05-.02.07-.03l.78-.23.74-.35s.06-.03.1-.03l.81-.1.75-.29,1.64-.47.83-.21.79-.26s.06-.02.09-.02l.8-.02.76-.28s.04-.01.06-.02l.83-.14s.03,0,.05,0h.82s.8-.17.8-.17c.02,0,.05,0,.07,0l.83.03.82-.06.85-.1h.91s.85-.05.85-.05h.9s.05.02.06.02l.86.18.83.23.83.04s.05,0,.06.01l.81.2h.85s.07.01.11.03l.79.29.83.09s.03,0,.04,0l.84.21.85.29.81.35.82.21.84.19,1.68.56,1.67.39.84.17s.04.01.06.02l.76.29Z"/>
  <path class="cls-11" d="M308.48,238.72l-.11.86.22.85-.1.86-.1.85.17.86-.28.84.1.86-.13.85-.11.85-.08.86-.27.82-.11.85-.33.8-.32.8-.33.78-.28.81-.2.84-.49.71-.29.82-.48.71-.62.61-.48.7-.48.72-.7.51-.59.62-.64.57-.69.51-.79.36-.72.48-.8.33-.85.17-.79.32-.84.15-.8.35-.85.08-.84.15-.86-.1-.85.07-.85-.13-.85-.05-.82-.22h-.88l-.8-.3-.78-.34-.79-.31-.8-.29-.78-.37-.74-.43-.6-.61-.74-.44-.6-.61-.58-.62-.58-.63-.38-.78-.43-.73-.4-.75-.36-.77-.44-.74-.29-.8-.18-.84-.21-.82-.11-.84-.2-.83.03-.86-.1-.85.12-.86.09-.85.06-.85.07-.86.25-.82.35-.79.2-.84.3-.82.47-.73.41-.77.65-.6.4-.78.61-.6.53-.69.68-.54.63-.59.63-.58.61-.62.77-.42.69-.51.73-.46.8-.34.72-.48.81-.3.78-.37.8-.33.82-.28.85-.17.83-.24.85-.14.84-.18.85-.13.85-.12.86.07.86-.14.86.07.84.23.85.08.85.17.82.27.72.49.74.43.77.4.58.64.6.61.63.61.38.78.52.7.33.8.18.85.36.79.13.85-.03.86"/>
  <path class="cls-11" d="M293.46,262.17h-.04l-.83-.1-.82.07s-.05,0-.07,0l-.85-.13-.82-.05s-.05,0-.07,0l-.78-.21h-.83s-.07-.01-.11-.03l-.81-.29-.8-.36-.78-.3-.79-.29-.8-.39-.77-.43s-.06-.03-.07-.06l-.58-.59-.71-.42s-.04-.04-.06-.06l-.6-.61-1.18-1.26s-.04-.05-.06-.08l-.38-.78-.42-.71-.4-.76-.38-.78-.43-.71s-.02-.04-.03-.06l-.29-.8s-.01-.03-.02-.04l-.18-.84-.21-.81s-.01-.03-.01-.04l-.11-.82-.2-.82s-.01-.06-.01-.09l.03-.84-.09-.83s0-.06,0-.08l.12-.86.09-.84.14-1.71s0-.05.01-.07l.26-.83s.01-.03.01-.04l.34-.76.19-.81s.01-.03.01-.04l.3-.82s.02-.05.03-.07l.47-.73.39-.74s.04-.06.07-.08l.6-.56.37-.72s.04-.06.06-.08l.6-.59.51-.67s.04-.04.06-.06l.68-.54,1.23-1.16.6-.61s.05-.04.07-.06l.75-.41.68-.49.76-.47s.03-.02.04-.02l.77-.33.7-.47s.04-.03.07-.04l.81-.3.76-.36.81-.33.84-.29s.03,0,.04,0l.85-.17.8-.24s.03,0,.04,0l.85-.14.83-.17,1.72-.24s.05,0,.07,0l.83.07.82-.14s.05,0,.08,0l.86.07s.04,0,.06.01l.81.22.83.08s.03,0,.04,0l.84.17s.03,0,.04.01l.82.27s.06.03.08.04l.72.49.72.41.76.4s.07.04.09.07l.58.64.59.6.62.6s.05.06.07.09l.36.76.49.67s.03.05.04.07l.33.8s.01.04.02.06l.17.82.35.76s.02.06.03.09l.12.85s0,.04,0,.06l-.02.59c.09.07.14.18.12.3l-.1.8.21.79s.01.08,0,.13l-.19,1.65.16.82c.01.06,0,.11-.01.16l-.24.78.08.8s0,.05,0,.08l-.13.85-.11.84-.08.85s0,.05-.01.07l-.26.79-.11.82s-.01.06-.02.08l-.98,2.38-.27.77-.19.83s-.03.08-.05.11l-.47.67-.28.78s-.02.05-.04.08l-.48.71s-.03.04-.04.05l-.59.59-.94,1.39s-.05.06-.08.08l-.68.49-.57.6-.66.59s-.02.01-.03.02l-.7.51s-.04.03-.06.04l-.76.34-.7.46s-.04.03-.06.03l-.79.33s-.04.01-.06.02l-.82.17-.77.31s-.05.02-.07.02l-.8.14-.76.34s-.07.03-.1.03l-.85.08-.82.15s-.07.02-.08.02ZM292.59,261.4h.04l.81.1.8-.14.83-.08.75-.33s.05-.02.08-.02l.81-.14.76-.31s.04-.01.06-.02l.82-.17.74-.3.69-.46s.03-.02.05-.03l.76-.34.65-.48.63-.57.57-.6s.03-.03.05-.04l.66-.47.93-1.38s.03-.03.04-.05l.59-.59.44-.65.27-.78s.03-.06.04-.08l.46-.65.18-.79s0-.02.01-.04l.29-.8.97-2.35.11-.81s0-.04.01-.06l.26-.78.08-.82.11-.86.13-.81-.09-.83s0-.09.02-.14l.24-.76-.15-.78s-.01-.06,0-.1l.2-1.65-.21-.79s-.01-.08,0-.13l.07-.58c-.06-.06-.1-.15-.1-.24l.03-.83-.11-.78-.34-.74s-.02-.05-.02-.07l-.17-.82-.3-.73-.49-.67s-.02-.04-.03-.05l-.35-.73-.58-.56-.6-.62-.55-.6-.72-.38-.76-.43-.7-.48-.76-.24-.81-.17-.84-.07s-.04-.01-.06-.01l-.81-.22-.79-.07-.82.13s-.05.01-.08,0l-.83-.07-1.67.23-.82.17-.85.14-.81.23-.85.18-.8.27-.78.32-.77.36-.8.3-.69.46s-.04.02-.05.03l-.77.33-.71.44-.68.49s-.02.02-.04.03l-.72.4-.58.58-1.26,1.19-.68.53-.49.66s-.02.03-.03.04l-.57.57-.38.73s-.04.07-.07.09l-.6.56-.39.72-.47.72-.28.76-.19.83s-.01.04-.02.06l-.34.77-.23.77-.14,1.68-.09.86-.11.82.09.81v.05l-.03.81.19.79s0,.02,0,.04l.11.82.21.8.18.83.27.75.43.71.38.79.39.74.42.72.37.76,1.14,1.22.57.57.7.42s.05.03.07.05l.57.58.71.4.75.36.77.28.8.31.79.35.73.27h.81s.06,0,.08.01l.79.21.82.05.84.12.82-.06s.03,0,.03,0Z"/>
  <path class="cls-11" d="M238.6,238.72l.03-.86.32-.81.06-.87.36-.79.36-.78.45-.73.47-.71.47-.72.65-.57.64-.57.66-.54.69-.54.8-.34.81-.32.88-.06.83-.22.85-.07.86-.09.86-.1.86.08h.87l.83.28.86.07.85.14.79.38.85.16.81.28.77.39.8.32.83.26.77.4.73.45.67.56.72.47.83.33.61.63.63.58.61.6.65.57.55.66.54.67.55.67.61.63.33.81.36.78.48.72.2.84.24.82.34.8.06.86.23.84.07.86-.09.86.09.86-.07.85-.24.82-.12.84-.14.84-.15.85-.4.77-.34.78-.23.83-.51.7-.43.74-.49.7-.53.68-.63.59-.61.6-.71.48-.69.49-.71.47-.73.44-.8.31-.75.41-.84.19-.82.23-.83.22-.86.03-.83.2-.85.08-.85.02-.85-.15h-.85s-.83-.21-.83-.21l-.87-.03-.78-.4-.83-.21-.77-.38-.81-.28-.81-.29-.69-.52-.68-.52-.73-.46-.67-.54-.58-.64-.48-.71-.58-.64-.41-.76-.54-.67-.39-.77-.41-.75-.3-.8-.33-.79-.41-.76-.27-.82-.21-.83-.17-.84-.02-.86-.2-.83-.13-.84-.07-.85-.21-.84.09-.86-.08-.85-.06-.85-.07-.86v-.85s.13-.85.13-.85"/>
  <path class="cls-11" d="M254.43,262.17s-.04,0-.06,0l-.82-.14h-.83s-.05-.01-.08-.02l-.8-.2-.83-.02c-.05,0-.1-.01-.15-.04l-.75-.38-.79-.2s-.04-.01-.06-.02l-.75-.37-1.61-.57s-.06-.03-.09-.05l-1.36-1.04-.71-.44s-.02-.01-.03-.02l-.68-.54s-.03-.02-.04-.04l-.58-.64s-.02-.03-.03-.04l-.46-.7-.56-.61s-.03-.04-.05-.06l-.4-.73-.52-.65s-.03-.04-.04-.06l-.39-.77-.41-.74s-.01-.03-.02-.04l-.3-.8-.32-.78-.4-.73s-.02-.04-.03-.06l-.26-.82-.22-.85-.17-.86s0-.04,0-.05l-.03-.83-.19-.8-.13-.88-.06-.85-.2-.81s-.02-.08-.01-.11l.08-.83-.21-2.53v-.03l.02-.86v-.04l.12-.85s.02-.07.03-.1l.03-.73s.01-.07.02-.11l.3-.76.05-.82s.02-.08.03-.12l.73-1.56s.01-.03.02-.04l.45-.73.95-1.44s.04-.05.06-.07l1.28-1.14.67-.56.69-.54s.05-.03.07-.04l.8-.34.82-.32s.07-.02.1-.02l.84-.06.8-.21s.04,0,.06-.01l1.71-.16.86-.1h.07l.86.08h.84s.07,0,.11.02l.79.27.82.06.89.15s.06.01.09.03l.75.36.81.15s.03,0,.05.01l.81.28s.03,0,.05.02l.77.39.77.31.81.24s.04.01.05.02l.77.4.76.47s.03.02.04.03l.66.54.67.44.79.31s.08.05.12.08l.6.63.62.57.62.61.64.56s.03.02.04.04l1.63,2,.59.6s.05.07.07.1l.33.81.34.75.47.7s.04.07.05.11l.2.84.24.79.33.79s.02.07.03.1l.05.83.22.8s.01.04.01.06l.07.86s0,.04,0,.06l-.08.82.08.83s0,.04,0,.06l-.07.85s0,.05-.01.07l-.24.81-.11.82-.29,1.7s-.02.06-.04.09l-.4.77-.32.74-.23.81s-.03.07-.05.1l-.5.68-.41.73-.52.72-.54.69s-.02.03-.03.04l-.63.59-.6.6s-.03.03-.05.04l-.71.48-.68.49-.72.48-.74.45s-.03.02-.05.03l-.78.3-.73.4s-.06.03-.09.04l-.84.19-1.63.45s-.05.01-.07.01l-.82.03-.8.19s-.03.01-.05.01l-.85.08-.89.02h.01ZM252.76,261.35h.82s.04.01.05.01l.82.14h.82s.8-.09.8-.09l.81-.19s.04,0,.07,0l.82-.03,1.6-.44.81-.18.71-.39s.03-.01.05-.02l.77-.29.7-.43.7-.46.68-.49.69-.47.59-.58.61-.57.51-.66.49-.69.41-.71s.02-.02.02-.03l.47-.65.22-.78s.01-.03.01-.04l.34-.78.39-.74.28-1.64.11-.83s.01-.04.01-.05l.24-.79.06-.79-.08-.83s0-.05,0-.07l.08-.83-.07-.8-.22-.81s-.01-.04-.01-.07l-.05-.81-.32-.76s-.01-.02-.01-.03l-.24-.82-.19-.8-.45-.68s-.02-.03-.03-.05l-.35-.78-.32-.76-.56-.58-1.64-2-.63-.55-.63-.62-.63-.57-.57-.59-.77-.3s-.04-.02-.06-.03l-.72-.47s-.02-.01-.03-.02l-.65-.54-.72-.44-.72-.38-.81-.24-.82-.33-.78-.39-.78-.26-.83-.16s-.06-.01-.08-.03l-.75-.36-.81-.13-.84-.06s-.06-.01-.08-.02l-.78-.27h-.82l-.86-.08-1.69.18-.83.07-.81.21s-.04.01-.06.01l-.83.05-.77.3-.74.32-.66.51-.66.54-1.23,1.1-.92,1.39-.44.7-.7,1.49-.05.81s-.01.07-.03.1l-.3.76-.03.8c0,.06-.02.11-.05.16l-.1.7-.02.82.22,2.54v.06l-.08.81.19.78s.01.04.01.05l.07.85.12.82.19.81s.01.04.01.06l.03.84.16.81.21.81.24.77.4.74.34.82.29.79.4.73.38.74.52.65.03.05.39.72.55.6s.02.02.03.04l.46.69.55.6.64.51.72.45,1.35,1.03,1.57.55s.03.01.04.02l.74.36.8.2s.05.02.07.03l.72.37.79.02s.05,0,.07.01l.82.19Z"/>
  <path class="cls-11" d="M272.58,257.83l.82-.36.88-.07.84.3.5.73.24.86.32.83.6.65.77.49.9.1.42.43-.03.82-.51.66-.51.64-.42.73-.68.48-.6.57-.78.29-.71.45-.83-.12-.64-.5-.83.32-.84.17h-.86l-.76-.42-.67-.54-.58-.64-.55-.7-.34-.77-.35-.77-.05-.85.12-.77.77-.17.82.11.74-.15.4-.63.03-.8.23-.78.07-.8.6-.53.73.37.74.36Z"/>
  <path class="cls-11" d="M274.62,266.76s-.03,0-.05,0l-.82-.11c-.06,0-.11-.03-.16-.07l-.49-.39-.65.25s-.04.02-.05.02l-.84.17s-.04.01-.07.01h-.86c-.06,0-.11-.02-.16-.05l-.75-.42s-.04-.02-.05-.03l-.67-.54s-.03-.02-.04-.03l-.59-.64-.56-.72s-.03-.04-.04-.06l-.69-1.55s-.03-.07-.03-.11l-.05-.85s0-.05,0-.07l.11-.77c.02-.14.13-.24.26-.27l.78-.17s.07-.01.11,0l.77.1.55-.11.28-.44.03-.71s0-.05.01-.08l.22-.76.07-.77c0-.08.05-.16.11-.22l.61-.53c.1-.09.24-.11.36-.05l1.32.67.67-.3s.07-.03.11-.03l.88-.07s.09,0,.14.02l.84.29c.07.02.13.07.17.13l.49.73s.04.06.05.09l.24.86.29.74.53.57.67.43.83.1c.07.01.15.04.2.1l.41.43c.06.07.1.15.09.24l-.03.82c0,.07-.03.14-.07.19l-1.01,1.28-.41.71s-.06.07-.09.1l-.66.47-.58.55s-.07.05-.11.07l-.75.28-.68.43s-.1.06-.17.06ZM273.93,266l.61.08.61-.38s.04-.02.06-.03l.71-.27.56-.52s.02-.02.04-.03l.62-.44.38-.66s.02-.03.03-.04l.95-1.21.02-.57-.23-.24-.79-.09s-.1-.03-.14-.05l-.77-.49s-.04-.03-.06-.05l-.6-.65s-.06-.07-.07-.11l-.32-.83-.23-.84-.41-.6-.68-.23-.75.06-.77.34c-.09.04-.2.04-.29,0l-1.26-.64-.34.29-.06.67s0,.04-.01.06l-.22.74-.03.76c0,.06-.02.11-.05.16l-.4.64c-.05.07-.13.13-.22.15l-.74.15s-.07.01-.11,0l-.77-.1-.49.11-.08.51.05.76.65,1.45.52.67.55.6.63.5.65.36h.74s.77-.16.77-.16l.8-.31c.11-.04.23-.02.32.05l.58.45Z"/>
  <path class="cls-11" d="M273.1,206.27l.34.64.29.75.53.63.31.74.35.7.75.21.8.06.78.22.8.1.75.05-.52.53-.55.59-.54.59-.57.57-.53.54.1.74.11.79v.81s.28.77.28.77l.05.76-.7-.29-.71-.37-.71-.36-.7-.4-.69-.43-.73.36-.68.43-.78.24-.7.4-.61.38v-.72s.24-.77.24-.77l.17-.79-.03-.82.26-.78-.64-.52-.47-.67-.7-.43-.52-.62-.56-.55.78-.05.8-.11.78-.19.81-.03.82-.15.32-.77.26-.77.38-.71.34-.73.43-.58Z"/>
  <path class="cls-11" d="M276.62,217.38s-.08-.01-.13-.03l-.7-.29-1.45-.74-.71-.4-.55-.34-.55.27-.66.43s-.05.03-.08.04l-.74.23-.67.38-.6.37c-.1.06-.23.07-.34.01-.1-.06-.17-.17-.17-.29v-.72s0-.07,0-.11l.25-.76.16-.72-.03-.78s0-.08.02-.11l.19-.57-.46-.38s-.04-.04-.06-.06l-.43-.61-.64-.4s-.06-.04-.08-.07l-.52-.62-.54-.53c-.09-.09-.12-.23-.08-.35.04-.13.16-.21.29-.22l.79-.05.77-.1.75-.18s.05,0,.06-.01l.79-.03.63-.11.26-.6.24-.74s.02-.04.02-.05l.38-.71.33-.71s.02-.04.04-.06l.44-.58c.07-.09.18-.14.29-.13.11.01.21.08.27.18l.34.64s.01.02.02.04l.27.7.49.59s.04.05.05.08l.31.74.27.55.58.16.77.06s.04,0,.06.01l.76.21.77.09.73.05c.13.01.24.09.29.21.05.12.02.26-.07.35l-.52.53-1.08,1.17-.99.99.19,1.38s0,.03,0,.04v.76s.26.72.26.72c.01.03.02.06.02.08l.05.76c0,.12-.04.22-.14.29-.06.04-.12.06-.19.06ZM273.1,214.88c.06,0,.13.02.18.05l.69.43.69.39,1.6.8-.02-.18-.25-.73s-.02-.07-.02-.1v-.79s-.21-1.52-.21-1.52c-.02-.1.02-.2.09-.27l1.09-1.1,1.11-1.2h-.03s-.81-.1-.81-.1c-.02,0-.04-.01-.05-.01l-.75-.21-.77-.06s-.04,0-.06-.01l-.75-.21c-.09-.03-.17-.09-.21-.17l-.35-.69-.3-.72-.5-.6s-.04-.06-.06-.09l-.28-.73-.09-.17-.11.15-.32.7-.37.7-.24.74-.33.8c-.04.1-.14.18-.25.2l-.82.15h-.04l-.78.04-.76.18-.9.12.04.03.5.6.66.4s.07.05.1.09l.44.63.6.49c.1.09.15.23.1.36l-.24.72.03.77s0,.05,0,.08l-.17.79s-.01.02-.01.03l-.23.72v.09l.11-.07.71-.4s.04-.02.06-.03l.73-.23.65-.41s.02-.02.03-.02l.73-.36c.05-.02.1-.03.15-.03Z"/>
  <path class="cls-11" d="M282.66,212.83l-.21-.8-.13-.8-.1-.82-.41-.71-.3-.76-.29-.77-.59-.59-.54-.6.44-.48.63.55.66.52.56.61.52.65.4.73.64.57.42.72.26.8.29.78.26.79.34.77.19.82.03.83.06.83.1.83-.21.84-.05.84-.07.85-.38.78-.19.83-.35.77-.29.81-.39.76-.49.7-.47.71-.69.53-.58.62-.65.54-.6.61-.67.53-.73.45-.8.31-.76.4-.81.28-.84.18-.84.15-.85.03-.84.24-.85-.15-.85.02-.83-.23h-.87l-.82-.26-.77-.39-.86-.15-.77-.39-.76-.41-.64-.59-.72-.47-.63-.57-.56-.65-.55-.65-.53-.67-.47-.7-.52-.69-.28-.81-.45-.74-.15-.84-.19-.83-.13-.84-.14-.83-.06-.84-.04-.87.03-.88.07-.87.16-.86.22-.85.4-.79.31-.82.49-.73.45-.74.54-.68.4-.8.65-.59.59-.65.66-.57.81-.38.27.32-.57.67-.62.63-.33.82-.46.74-.29.83-.34.81.02.9-.13.85.04.87-.08.84.17.81.25.8.2.81.38.74.41.72.47.68.4.75.61.58.63.55.64.55.82.26.7.44.74.4.79.28.82.21.84.02.84.11.84-.06.82-.24h.85s.79-.31.79-.31l.72-.45.82-.23.72-.44.65-.55.63-.55.64-.56.52-.67.46-.7.28-.81.28-.78.32-.77.17-.82.12-.82.03-.83.13-.82Z"/>
  <path class="cls-11" d="M273.3,230.37s-.04,0-.06,0l-.82-.14-.82.02s-.07,0-.1-.02l-.79-.22h-.82s-.06,0-.1-.02l-.82-.26s-.03-.02-.05-.02l-.73-.36-.81-.14s-.06-.02-.09-.03l-.77-.38-.77-.42s-.05-.03-.07-.05l-.61-.57-.69-.45s-.03-.02-.04-.04l-.64-.57s-.02-.02-.03-.03l-1.1-1.3-.53-.67-.49-.72-.51-.67s-.04-.06-.05-.09l-.27-.78-.43-.7s-.04-.07-.05-.11l-.16-.85-.19-.81-.26-1.69-.07-.88-.04-.88.02-.9.07-.89s0-.03,0-.04l.16-.86.22-.88s.02-.04.03-.07l.39-.77.3-.81s.02-.05.04-.07l.49-.72.43-.73s.02-.03.03-.04l.52-.65.39-.77s.04-.07.07-.1l.64-.58.58-.64s.02-.02.03-.03l.67-.57s.05-.04.08-.05l.81-.38c.14-.06.3-.03.4.08l.27.32c.1.12.1.3,0,.42l-.56.67-.59.6-.31.77s-.02.03-.03.05l-.44.71-.28.79-.32.77.02.82v.06l-.13.83.04.83v.04l-.07.79.16.76.25.78.2.79.36.71.39.7.47.67s.02.02.02.04l.38.7.57.54,1.2,1.04.76.24s.06.02.08.04l.7.44.7.37.77.28.75.19.81.02h.04l.8.11.78-.06.78-.23s.06-.02.09-.02h.8s.7-.28.7-.28l.69-.43s.06-.03.08-.04l.78-.22.66-.41,1.86-1.62.5-.65.43-.65.54-1.56.32-.76.16-.78.11-.79.04-.82v-.03l.11-.75-.19-.73-.13-.83-.1-.76-.38-.66s-.02-.03-.02-.04l-.57-1.47-.54-.54-.56-.62c-.11-.13-.11-.32,0-.44l.43-.48c.13-.13.33-.15.46-.03l.63.55.65.5s.03.02.04.04l.56.61.53.67s.03.03.03.05l.38.68.59.53s.05.05.07.08l.42.72s.02.05.03.07l.26.8.28.77.27.79.33.74s.01.04.02.06l.19.81s0,.04,0,.07l.03.83.06.81.11.82s0,.08,0,.12l-.21.81-.05.82-.07.86s-.02.08-.04.11l-.36.75-.18.79s-.02.04-.03.06l-.35.77-.28.77s-.01.03-.02.04l-.39.76s-.02.03-.03.04l-.49.69-.46.7s-.05.06-.07.08l-.67.52-.56.59s-.02.02-.03.03l-.64.53-.59.6s-.02.02-.03.03l-.67.53s-.02.02-.04.03l-.73.45s-.04.02-.05.03l-.79.3-.74.39s-.03.02-.05.02l-.81.28s-.03,0-.04,0l-.84.18-.85.16s-.04,0-.05,0l-.81.03-.8.22s-.05,0-.08,0ZM272.45,229.56s.04,0,.06,0l.78.13.77-.22s.05-.01.08-.01l.83-.03.82-.15.81-.17.77-.26.73-.39s.03,0,.03-.02l.78-.3.69-.42.64-.5.58-.59s.02-.02.02-.03l.64-.53.57-.6s.03-.03.04-.04l.65-.49.44-.67.49-.69.37-.71.29-.79.35-.77.18-.79s.02-.05.03-.07l.35-.73.11-1.63s0-.04.01-.06l.2-.78-.1-.77-.06-.84-.03-.82-.17-.75-.32-.74-.27-.81-.28-.77-.25-.78-.38-.65-.6-.53s-.05-.06-.07-.09l-.39-.71-.5-.63-.53-.57-.64-.5-.4-.34v.02s.33.38.33.38l.58.57s.06.07.07.11l.58,1.51.4.69s.04.08.04.13l.1.82.13.79.2.77s.01.08,0,.13l-.11.8-.03.82s0,.02,0,.03l-.12.82-.17.83s-.01.05-.02.06l-.32.77-.55,1.57s-.02.05-.04.07l-.47.71-.53.69-.05.05-1.91,1.66s-.03.02-.04.03l-.72.44s-.05.03-.08.04l-.77.22-.68.42s-.04.02-.06.03l-.79.3s-.08.03-.11.03h-.81s-.77.24-.77.24c-.02.01-.05.01-.07.02l-.85.06s-.04,0-.07,0l-.82-.11-.82-.02s-.05,0-.08,0l-.81-.21-.82-.29s-.03-.02-.05-.02l-.74-.39-.69-.43-.78-.25s-.08-.04-.11-.06l-1.27-1.1-.62-.58s-.05-.05-.07-.09l-.39-.73-.46-.66-.02-.03-.41-.72-.39-.75s-.02-.05-.03-.07l-.2-.81-.25-.77s0-.03-.01-.04l-.17-.82s-.01-.06,0-.09l.07-.81-.04-.84s0-.05,0-.06l.13-.83-.02-.86s0-.09.03-.13l.34-.81.28-.81s.02-.05.03-.07l.45-.72.32-.8s.04-.07.07-.11l.62-.63.19-.22-.28.13-.62.54-.57.64s-.02.02-.03.03l-.6.55-.38.74s-.02.04-.04.06l-.53.66-.44.73-.48.71-.29.78s-.01.03-.01.04l-.38.76-.21.82-.16.82-.06.85-.03.86.04.85.06.83.26,1.65.19.8.15.81.42.68s.03.04.03.07l.27.77.48.64.48.72.52.65,1.08,1.27.6.55.7.45s.03.02.04.04l.6.57.72.39.72.36.81.15s.06.02.09.03l.74.38.75.23h.82s.06,0,.09.02l.78.21.81-.02s-.01-.02-.01-.02Z"/>
  <path class="cls-2" d="M293.41,255.11l-.5-.76-.32-.8-.23-.82-.33-.78-.39-.76-.18-.84-.28-.81-.13-.84-.23-.82-.03-.85-.08-.85.02-.85-.02-.85.14-.84-.05-.87.4-.78.22-.82.3-.79.33-.78.46-.71.42-.73.48-.8.6.71.48.71.35.79.35.77.35.78.23.82.02.86.27.81.13.85-.16.85.11.85-.05.85-.19.83-.06.85-.22.83-.26.81-.33.79-.34.78-.1.87-.38.77-.35.78-.45.78Z"/>
  <path class="cls-2" d="M254.04,255.08l-.34-.81-.52-.7-.23-.83-.33-.78-.3-.8-.16-.83-.29-.8-.27-.81.02-.87-.25-.82-.02-.85.07-.85-.03-.85.05-.84.19-.83.03-.86.19-.84.36-.78.46-.72.4-.75.38-.77.57-.63.56.63.43.74.49.7.28.81.31.79.2.82.21.82.06.84.25.83-.2.85v.84s-.08.84-.08.84l-.09.84-.21.82-.14.83-.08.86-.25.82-.28.81-.38.77-.34.78-.31.79-.45.77Z"/>
  <path class="cls-2" d="M291.46,279.7l.21.81-.3.8-.2.81-.21.82-.48.7-.25.81-.49.69-.33.79-.59.62-.35.79-.54.66-.61.59-.71.45-.68.52-.84-.13-.67-.48-.38-.77-.05-.85-.1-.84-.02-.86.28-.83.02-.87.23-.82.29-.81.18-.84.23-.81.76-.41.69-.56.79-.41.85-.23.89-.06.86-.02.88.15.64.6Z"/>
  <path class="cls-11" d="M285.92,289.89s-.04,0-.05,0l-.84-.13c-.05-.01-.1-.03-.15-.06l-.67-.48s-.08-.07-.1-.13l-.38-.76s-.03-.08-.03-.13l-.05-.85-.09-.83-.03-.89s0-.08.02-.11l.27-.78.02-.82s0-.05.01-.08l.23-.83.3-.81.18-.81.23-.83c.03-.08.08-.16.17-.2l.73-.4.67-.54s.03-.03.05-.04l.79-.42s.04-.02.07-.03l.86-.23s.04-.01.06-.01l.88-.06.88-.03s.04,0,.06,0l.88.15c.07.01.13.04.18.09l.64.61s.07.09.09.15l.21.81c.02.07.02.14,0,.2l-.3.78-.41,1.62s-.03.07-.05.1l-.46.67-.24.77s-.03.06-.04.09l-.47.66-.31.76s-.04.07-.06.1l-.56.58-.32.73-.05.08-.54.66s-.02.02-.03.03l-.61.59s-.04.03-.05.04l-.71.45-.66.51c-.05.05-.13.07-.19.07ZM285.21,289.11l.62.1.57-.44.7-.45.58-.56.49-.6.33-.74s.04-.07.06-.09l.55-.58.3-.72s.02-.05.04-.07l.46-.65.23-.76s.03-.06.05-.09l.45-.66.4-1.58s0-.03.02-.04l.27-.7-.17-.61-.49-.48-.74-.13-.83.02-.84.06-.79.21-.72.38-.67.54s-.03.02-.05.03l-.64.34-.19.68-.18.82s-.01.03-.02.04l-.3.81-.21.77-.02.82s0,.07-.02.1l-.26.77.02.8.09.82.05.8.31.63.54.4Z"/>
  <path class="cls-2" d="M282.31,277.8l.17.78.24.74-.02.78-.14.77.03.8-.17.84-.31.8-.14.85-.39.77-.17.85-.49.71-.34.8-.66.56-.74.39-.82.11-.85-.25-.46-.77-.4-.78-.32-.82v-.9s-.21-.86-.21-.86l.06-.89-.13-.88.18-.88-.14-.89.12-.78.26-.73.43-.65.31-.72.64-.46.68-.42.79-.19.8.14.79.14.76.32.66.7Z"/>
  <path class="cls-11" d="M278.36,288.7s-.06,0-.1-.02l-.85-.26c-.08-.02-.15-.07-.19-.15l-.46-.77-.41-.8s-.01-.02-.01-.03l-.32-.83s-.02-.08-.02-.12v-.85s-.2-.82-.2-.82c0-.03-.01-.07,0-.1l.05-.85-.12-.84s0-.07,0-.11l.17-.82-.13-.83s-.01-.06,0-.1l.11-.77s0-.05.02-.06l.26-.73s.02-.05.04-.07l.41-.63.3-.7c.02-.06.06-.1.11-.14l.64-.46.7-.43s.06-.03.1-.04l.79-.19s.09-.02.13,0l1.59.28s.05.01.07.02l.76.33s.08.04.11.07l.66.7s.07.1.08.15l.17.78.23.71s.02.07.02.11l-.02.79s0,.03,0,.05l-.13.74.02.76s0,.06,0,.08l-.17.84-.02.05-.29.78-.14.81s-.02.06-.03.09l-.36.73-.16.81s-.03.08-.05.12l-.47.69-.33.77s-.05.09-.09.13l-.66.56s-.04.03-.06.04l-.74.39s-.07.03-.1.04l-.82.11s-.04.02-.05.02ZM277.73,287.83l.66.2.69-.1.66-.34.57-.49.31-.73s.02-.04.03-.05l.45-.66.16-.78s.02-.06.03-.08l.36-.73.13-.8s.01-.04.02-.06l.3-.78.16-.78-.03-.76s0-.04,0-.07l.13-.74.02-.7-.22-.69-.16-.72-.55-.58-.66-.28-1.48-.26-.67.16-.64.39-.55.39-.27.64s-.02.04-.03.05l-.4.61-.23.67-.1.69.13.84s0,.08,0,.11l-.17.82.12.82s0,.05,0,.07l-.06.83.2.81s.01.06.01.08v.83s.28.75.28.75l.39.77.39.64Z"/>
  <path class="cls-2" d="M259.44,279.2l.8-.38.88.17.88.08.85.24.74.48.82.33.77.46.22.84.13.85.34.8.06.86.3.82v.87s.14.84.14.84l-.14.85-.15.82-.22.84-.72.49h-.83s-.81-.29-.81-.29l-.54-.67-.62-.57-.44-.72-.49-.68-.55-.65-.51-.68-.24-.83-.33-.77-.41-.74-.33-.77-.26-.8-.06-.84.11-.73.63-.56Z"/>
  <path class="cls-11" d="M265.15,289.81s0,0,0,0h-.83s-.07-.01-.11-.02l-.81-.29c-.06-.02-.11-.06-.15-.1l-.53-.66-.6-.55s-.04-.05-.06-.07l-.44-.72-.48-.65-.54-.63-.53-.7s-.04-.06-.05-.1l-.24-.81-.33-.75-.39-.71-.34-.8-.27-.83s-.02-.05-.02-.08l-.07-.83s0-.05,0-.08l.11-.73c.01-.07.05-.14.1-.19l.63-.56s.05-.04.08-.05l.8-.38c.06-.03.14-.04.2-.03l.88.16.85.08s.04,0,.06,0l.85.24s.06.03.09.04l.72.47.79.32s.04.01.05.02l.77.46c.07.04.13.11.15.2l.22.84s0,.03,0,.03l.13.81.32.76s.03.07.03.11l.06.82.29.77s.02.08.02.12v.83s.13.82.13.82c0,.04,0,.07,0,.11l-.13.85-.16.84-.22.86c-.02.07-.07.14-.13.19l-.72.49c-.06.04-.12.05-.19.05ZM264.37,289.14h.68s.53-.36.53-.36l.19-.72.15-.8.13-.79-.14-.79s0-.04,0-.06v-.8s-.27-.76-.27-.76c-.01-.03-.02-.06-.02-.09l-.06-.81-.32-.74s-.02-.06-.03-.08l-.13-.83-.18-.7-.63-.38-.8-.32s-.04-.02-.05-.03l-.7-.46-.77-.21-.84-.08-.8-.15-.66.31-.51.45-.09.57.06.76.24.76.32.74.39.71.35.79s.01.03.01.04l.23.77.47.64.54.63.51.69.43.71.59.54s.02.03.03.04l.48.6.67.23Z"/>
  <path class="cls-2" d="M268.62,277.21l.66-.47.81-.11.79-.03.82.02.69.45.54.56.54.58.18.77.28.72v.77s.04.88.04.88l.13.88.08.89-.22.87-.13.87-.07.88-.2.85-.35.81-.63.6-.76.3-.84.05-.72-.46-.52-.67-.6-.63-.2-.85-.36-.77-.24-.82-.22-.82-.19-.83-.18-.83-.09-.78-.1-.77-.06-.78.09-.78.27-.76.75-.59Z"/>
  <path class="cls-11" d="M270.99,288.66c-.06,0-.13-.02-.18-.05l-.72-.46s-.06-.05-.08-.07l-.51-.66-.59-.61s-.07-.09-.08-.16l-.19-.82-.34-.74s-.02-.03-.02-.05l-.24-.82-.22-.83-.38-1.67s0-.02,0-.03l-.09-.78-.1-.76-.06-.8v-.06l.08-.78s.01-.05.02-.07l.27-.76c.02-.06.06-.11.11-.15l.74-.58.68-.48s.09-.05.15-.05l.81-.11s.02,0,.03,0l.79-.03.84.02c.06,0,.13.02.17.05l.69.45s.04.03.06.05l1.08,1.14s.07.09.08.15l.18.76.27.7s.03.08.03.13v.77s.04.85.04.85l.13.85.08.9s0,.08-.01.11l-.22.85-.12.85-.07.86s0,.03,0,.04l-.2.86s-.01.04-.02.06l-.35.81s-.04.07-.07.1l-.63.6s-.07.05-.11.07l-.76.3s-.07.02-.1.02l-.84.05s0,0-.01,0ZM270.5,287.62l.58.37.67-.04.65-.25.53-.51.31-.72.19-.8.07-.85.13-.89s0-.02.01-.03l.2-.82-.08-.83-.13-.86-.06-.91v-.73s-.24-.66-.24-.66c0-.01-.01-.03-.01-.04l-.16-.69-.99-1.04-.58-.38-.72-.02-.76.03-.71.1-.6.42-.66.52-.22.63-.08.71.05.74.1.75.09.77.37,1.64.21.81.23.79.35.75s.02.04.02.06l.18.76.54.56s.02.02.03.03l.48.63Z"/>
  <path class="cls-12" d="M297.6,192.56l.47-.62.5-.68.49-.69.53-.66.48-.7.41-.76.64-.58.57-.63.56-.64.56-.64.42-.77.71-.5.49-.7.65-.56.57-.63.59-.6.58-.62.64-.56.59-.6.67-.54.67-.52.63-.57.58-.64.74-.44.74-.42.66-.54.63-.59.72-.46.77-.39.75-.41.71-.48.81-.29.79-.31.79-.31.76-.39.81-.26.82-.21.79-.33.86-.08.84-.12.84-.17.85-.07.86.09h.86l.86.04.88-.12.85.19.83.18.53.47-.43.74-.79.38-.69.49-.64.59-.71.48-.74.45-.66.55-.68.55-.52.7-.45.74-.31.79-.17.82-.03.84.22.81.33.78.43.73.58.6.78.19.87.02.7-.54.79-.36.81-.22.71.46.18.86-.04.87v.85s.02.86.02.86v.85s-.16.83-.16.83l-.4.76-.28.79-.47.72-.74.46-.85.11-.84.11-.83-.23h-.85l-.83-.15-.82-.18-.85.05-.83-.03h-.84l-.73.42-.68.51-.24.82-.35.78.03.85-.07.84.18.84.41.76.61.6.54.67.73.44.79.32.71.48.85.17.79.34.85.09.81.32.8.3.29.85-.04.88-.25.83-.1.88-.45.76-.38.78-.45.75-.6.63-.53.68-.61.64-.82.34-.72.49-.85.18-.86-.03-.83-.05-.45-.69-.44-.73-.64-.58-.57-.62-.51-.68-.49-.7-.6-.59-.69-.51-.57-.63-.67-.52-.61-.59-.71-.47-.61-.59-.68-.5-.66-.53-.71-.46-.66-.54-.81-.31-.59-.65-.73-.44-.73-.44-.74-.41-.7-.48-.77-.38-.81-.29-.74-.41-.74-.39-.71-.46-.76-.4-.78-.33-.76-.38-.69-.51-.78-.32Z"/>
  <path class="cls-11" d="M321.42,209.48h-.01l-.86-.03-.84-.05c-.1-.01-.2-.06-.26-.15l-.45-.69-.41-.7-.6-.55-.59-.64s-.02-.02-.03-.03l-.51-.67-.48-.68-.57-.56-.67-.49s-.03-.03-.05-.04l-.55-.6-.65-.5-.03-.03-.58-.57-.68-.45s-.04-.02-.05-.04l-.6-.57-.67-.49-.66-.53-.7-.45s-.02-.01-.03-.02l-.63-.5-.76-.3s-.09-.05-.12-.08l-.56-.61-1.41-.85-.73-.41-.71-.49-.72-.35-.79-.28s-.03-.02-.05-.03l-.74-.41-.74-.39-.74-.48-.72-.38-.76-.32-.78-.38-.05-.03-.66-.48-.74-.3c-.1-.04-.17-.12-.2-.22-.03-.1,0-.2.06-.29l.97-1.3.49-.69.54-.68.46-.67.4-.74s.04-.06.07-.09l.64-.58.55-.6,1.08-1.25.4-.73s.06-.08.1-.11l.67-.46.46-.66s.03-.04.05-.06l.63-.55.56-.61.6-.61.58-.61.66-.58.58-.59s.02-.02.03-.03l1.34-1.06.61-.55.56-.62s.05-.04.07-.06l.74-.44.73-.41.64-.52.61-.58s.03-.03.05-.04l.72-.46.03-.02.77-.39.73-.4.68-.46s.05-.03.07-.04l.81-.29,1.57-.62.73-.38s.03-.02.05-.02l.81-.26.82-.21.77-.32s.06-.02.09-.03l.85-.08.83-.12.81-.17s.03,0,.04-.01l.85-.07h.06l.84.09h.84s.85.04.85.04l.84-.11s.08,0,.12,0l1.69.38c.05.02.1.04.15.08l.53.47c.12.1.15.28.07.41l-.44.74c-.03.06-.08.1-.14.13l-.77.37-.66.47-.62.57s-.03.02-.04.03l-.71.48-.73.44-.64.54-.65.52-.49.67-.41.69-.29.73-.16.77-.03.76.2.74.31.74.4.68.48.5.66.16.71.02.61-.46s.04-.03.06-.04l.79-.35s.04-.02.05-.02l.81-.22c.09-.03.19-.01.27.04l.71.46c.07.05.13.13.14.21l.18.86s0,.05,0,.08l-.04.86.04,2.55s0,.04,0,.07l-.17.83s-.02.06-.03.08l-.38.74-.28.77s-.02.05-.04.07l-.47.72s-.06.07-.1.1l-.74.46s-.08.04-.13.05l-1.7.22s-.08,0-.13-.01l-.78-.22h-.8s-.04,0-.06,0l-.83-.15-.79-.17-.81.06h-.04l-.84-.04h-.74s-.64.38-.64.38l-.58.43-.21.71s-.01.03-.02.05l-.32.71.02.78v.04l-.06.8.15.74.37.67.57.56s.02.02.03.03l.5.63.66.4.77.31s.04.02.06.03l.66.45.78.16s.05.02.07.02l.74.32.8.08s.06.01.09.03l1.6.63c.09.04.16.11.19.2l.29.85s.02.08.02.12l-.04.88s0,.06-.01.08l-.24.81-.1.85s-.02.09-.04.13l-.45.76-.37.76-.46.77s-.03.04-.05.06l-.59.62-.53.67s-.01.02-.02.03l-.61.63s-.07.06-.11.08l-.79.32-.7.47s-.07.04-.12.05l-.85.18h-.07ZM319.91,208.76l.66.04.82.03.75-.16.67-.45s.04-.03.06-.04l.76-.31.55-.57.52-.67s.02-.02.03-.03l.58-.6.43-.71.36-.76.43-.72.09-.81s0-.04.01-.06l.24-.8.03-.77-.22-.65-1.42-.55-.81-.08s-.07-.02-.1-.03l-.76-.33-.81-.16s-.09-.03-.13-.05l-.68-.46-.76-.31s-.03-.01-.05-.02l-.73-.44s-.06-.05-.09-.08l-.53-.66-.59-.58s-.04-.05-.06-.08l-.41-.75s-.03-.06-.04-.09l-.17-.84s0-.06,0-.09l.07-.83-.03-.84c0-.05.01-.1.03-.15l.34-.76.23-.8c.02-.07.07-.13.12-.17l.68-.51s.02-.02.03-.02l.72-.42s.1-.05.17-.05h.84s.83.02.83.02l.84-.05s.06,0,.09,0l.83.18.79.14h.82s.06,0,.08.02l.77.21,1.56-.2.61-.39.41-.63.27-.74.02-.05.38-.72.15-.75-.03-2.53.03-.84-.14-.69-.47-.31-.64.18-.73.33-.67.52c-.06.05-.13.07-.21.07l-.87-.02s-.05,0-.07-.01l-.79-.19c-.06-.02-.11-.05-.16-.09l-.57-.6s-.04-.04-.05-.06l-.43-.73s-.01-.03-.02-.04l-.33-.78s0-.03-.01-.04l-.22-.81s-.01-.07-.01-.1l.03-.83s0-.04,0-.05l.17-.82s.01-.04.02-.06l.31-.79s.02-.03.03-.05l.44-.74.53-.72s.04-.04.06-.06l.68-.55.65-.55s.03-.02.04-.03l.74-.45.67-.46.62-.57s.02-.02.04-.03l.7-.5.05-.03.7-.34.24-.42-.27-.23-1.55-.35-.81.11h-.06l-.86-.04h-.85s-.03,0-.04,0l-.83-.09-.8.07-.82.17-.86.13-.82.07-.74.31s-.03.01-.04.01l-.82.21-.77.25-.73.38-1.61.64-.78.28-.68.46-.77.42-.76.38-.68.43-.61.57-.68.55s-.03.02-.05.03l-1.43.84-.55.6-.65.59-1.33,1.06-.58.59-.66.58-.56.6-.6.61-.57.62-.03.03-.61.54-.47.67s-.05.06-.08.08l-.65.46-.38.69s-.03.04-.04.06l-1.11,1.28-.58.64-.61.56-.39.71s-.01.02-.02.04l-.48.7-.54.68-1.2,1.65.38.15s.05.03.07.04l.67.49.73.36.77.32.78.41.74.48.72.38.72.4.79.28s.03.01.04.02l.77.37s.03.02.04.03l.7.48.72.4,1.46.88s.05.04.07.06l.54.59.73.29s.06.03.09.05l.65.53.7.45s.02.02.03.02l.66.53.67.49s.02.02.03.03l.59.57.68.45s.03.02.05.04l.59.58.66.51s.03.02.04.04l.56.6.66.49.03.03.61.59s.03.03.04.05l.49.7.49.66.56.61.61.56s.05.05.07.08l.43.73.33.53Z"/>
  <path class="cls-12" d="M249.16,193l-.75.39-.78.33-.8.29-.69.51-.81.29-.68.54-.8.3-.69.49-.79.33-.73.42-.65.57-.74.41-.72.44-.65.55-.8.33-.66.54-.76.4-.68.51-.6.6-.61.59-.77.4-.67.52-.59.61-1.21,1.19-.67.53-.6.61-.45.73-.56.64-.57.63-.34.8-.59.58-.81.14-.85-.09-.82-.23-.78-.36-.72-.46-.63-.59-.6-.61-.57-.65-.5-.71-.47-.74-.27-.83-.26-.83-.06-.87v-.85s.18-.85.18-.85l.74-.48h.87l.8-.34.81-.23.81-.27.83-.23.67-.55.7-.47.63-.57.6-.61.37-.77.14-.84.05-.84-.02-.85-.35-.79-.34-.75-.57-.59-.78-.26-.81-.14-.84-.03h-.85s-.82.2-.82.2l-.84.11-.84.04-.83.04-.84.08-.84-.16-.68-.53-.46-.69-.48-.69-.26-.81-.09-.84-.02-.84-.06-.85.04-.86.03-.86.19-.84.63-.57.8.33.8.32.69.55h.86s.77-.24.77-.24l.6-.57.47-.71.46-.74.06-.88-.03-.84-.17-.83-.36-.77-.46-.71-.59-.63-.51-.71-.74-.46-.61-.63-.75-.44-.68-.53-.7-.51-.68-.5-.63-.57.59-.52.83-.24.88.07.85-.2.86.08.86-.08.86-.05.84.2.84.13.84.15.86.03.84.15.79.33.78.35.79.32.8.3.73.42.83.26.71.47.81.31.61.62.71.47.69.49.78.38.71.48.69.5.65.55.56.65.74.45,1.2,1.21.65.55.68.53.59.61.54.66.63.58.45.74.59.61.57.63.61.6.57.63.6.61.46.72.51.68.58.63.39.77.61.6.45.72.45.73-.76.36Z"/>
  <path class="cls-11" d="M226.93,209.52s-.03,0-.04,0l-.85-.09s-.04,0-.06-.01l-.82-.23s-.04-.01-.05-.02l-.78-.36s-.03-.01-.04-.02l-.72-.46s-.04-.02-.05-.04l-.62-.59-.61-.63-.58-.67-.53-.73-.48-.76s-.03-.05-.04-.08l-.53-1.67s-.01-.05-.01-.07l-.06-.86v-.88s.02-.04.02-.06l.17-.85c.02-.09.07-.16.15-.21l.74-.48c.06-.04.12-.05.18-.05h.8s.73-.31.73-.31c.01,0,.03,0,.04-.01l.82-.24.8-.26.77-.23.62-.51s.02-.02.03-.02l.68-.45.6-.55.55-.55.32-.68.13-.79.05-.81-.02-.76-.65-1.42-.48-.49-.68-.22-.77-.14-.81-.03h-.8s-.78.19-.78.19c-.02,0-.03,0-.04,0l-.84.11-1.7.09-.83.08s-.06,0-.09,0l-.84-.17c-.05-.01-.1-.03-.14-.06l-.68-.53s-.05-.04-.07-.07l-.46-.69-.48-.68s-.03-.06-.04-.09l-.27-.8s-.01-.05-.01-.07l-.09-.84-.02-.87-.06-.84v-.04l.07-1.71s0-.04,0-.06l.19-.84c.01-.07.05-.13.1-.17l.63-.58c.1-.08.23-.11.35-.06l1.59.65s.06.03.08.05l.6.47h.71s.65-.21.65-.21l.52-.49.45-.68.41-.67.06-.78-.03-.8-.15-.76-.34-.71-.44-.67-.56-.6s-.02-.03-.03-.04l-.47-.66-.68-.43s-.05-.03-.06-.04l-.58-.59-.71-.42s-.03-.01-.04-.02l-.68-.53-1.38-1s-.02-.02-.03-.02l-.63-.57c-.07-.06-.11-.15-.11-.24,0-.09.04-.18.11-.24l.59-.52s.08-.06.13-.07l.83-.24s.08-.02.12-.02l.82.07.8-.19s.07-.01.11,0l.83.08.83-.08.88-.05s.06,0,.09,0l.84.2,1.63.27.84.03s.03,0,.05,0l.84.15s.05.01.07.02l.79.33.79.36,1.56.6s.04.02.05.03l.71.4.79.24s.06.02.09.04l.68.45.77.29s.08.05.11.08l.59.59.68.45.68.48.75.37s.03.02.04.02l.7.48.7.51.67.57s.02.02.03.04l.54.61.69.42s.04.03.06.05l1.2,1.21.63.54.66.52s.03.02.04.03l.59.61.54.67.6.57s.04.04.06.07l.43.71.56.59.58.64.59.58.58.64.59.59s.03.04.04.06l.46.72.5.65.55.6s.04.05.05.07l.36.72.58.57s.04.04.05.06l.9,1.45c.05.08.06.18.04.27-.03.09-.09.17-.18.21l-.76.36-.74.39-.8.34-.78.28-.66.48s-.06.04-.08.05l-.76.27-.63.5s-.06.04-.09.05l-.77.29-.66.47s-.05.03-.07.04l-.77.32-.69.39-.62.55-.06.05-.74.4-.69.42-.63.54s-.05.04-.09.06l-.76.31-.63.5s-.04.03-.05.04l-.73.39-.64.48-1.2,1.18s-.05.04-.08.06l-.74.39-.63.49-.57.59-1.22,1.19-.68.54-.55.57-.43.7s-.02.03-.04.05l-1.09,1.22-.32.74s-.04.08-.07.11l-.59.58c-.05.05-.11.08-.18.09l-.81.14s-.02.02-.04.02ZM226.14,208.77l.78.08.66-.11.47-.46.31-.73s.04-.07.06-.09l1.11-1.24.44-.71.05-.06.59-.6s.02-.02.03-.03l.67-.53,1.18-1.17.58-.61s.03-.02.04-.03l.67-.52s.04-.02.05-.03l.72-.38,1.18-1.17s.02-.02.03-.03l.68-.51.05-.03.73-.39.64-.51s.05-.04.08-.05l.75-.31.61-.52s.03-.03.05-.03l.72-.44.73-.39.62-.54s.04-.03.06-.04l.73-.42s.03-.02.04-.02l.76-.31.66-.47s.05-.03.07-.04l.76-.28.63-.51s.07-.04.1-.05l.76-.27.65-.48s.06-.04.09-.05l.8-.29.77-.32,1.17-.59-.68-1.1-.59-.57s-.05-.05-.06-.09l-.37-.72-.55-.6-.53-.7-.45-.71-.58-.58-.58-.64-.59-.58-.59-.64-.58-.6s-.03-.04-.05-.06l-.42-.7-.59-.55s-.02-.02-.03-.03l-.54-.67-.55-.57-.66-.52-.66-.56-1.19-1.2-.7-.43s-.06-.04-.08-.07l-.55-.63-.63-.54-.67-.48-.68-.46-.75-.38s-.03-.02-.05-.03l-.69-.49-.7-.46s-.04-.03-.06-.04l-.56-.57-.74-.28s-.04-.02-.06-.04l-.67-.44-.78-.24s-.05-.02-.07-.03l-.72-.41-1.56-.61-.79-.36-.74-.32-.79-.14-.84-.03h-.05l-1.67-.28-.82-.19-.81.04-.85.08h-.06l-.81-.08-.8.19s-.07.01-.1.01l-.81-.07-.7.2-.26.23.34.31,1.36.99.68.52.72.43s.05.04.07.06l.58.59.7.44s.07.06.09.09l.49.69.57.61s.03.03.04.04l.47.72s.02.03.03.04l.36.77s.02.05.03.07l.17.83s0,.03,0,.05l.03.85v.04l-.07.88c0,.05-.02.1-.05.15l-.46.74-.48.72s-.03.04-.05.05l-.61.57s-.08.06-.13.08l-.77.23s-.06.01-.09.01l-.88.02c-.08,0-.16-.03-.21-.07l-.65-.53-1.37-.55-.39.36-.16.71-.07,1.67.06.84.02.86.09.78.24.72.46.65.43.65.57.45.72.14.8-.08,1.69-.08.79-.11.8-.21s.05-.01.09-.01h.85s.85.04.85.04c.02,0,.03,0,.04,0l.81.14s.03,0,.05.02l.78.26c.05.02.1.05.14.09l.57.59s.05.06.06.09l.7,1.54s.03.08.03.13l.02.86-.05.86-.14.87s-.02.06-.03.09l-.36.77s-.04.06-.06.09l-.6.61-.64.58s-.03.02-.04.03l-.69.46-.66.54s-.08.05-.12.06l-.83.24-.8.26-.81.23-.77.33s-.08.04-.14.03h-.77s-.55.35-.55.35l-.14.68v.82s.05.8.05.8l.5,1.59.45.7.49.69.55.63.59.6.59.56.68.43.73.34.76.21Z"/>
  <path class="cls-2" d="M281.56,178.45l-.5-.36-.57-.24-.47-.41-.55-.26-.55-.27-.49-.36-.54-.29-.52-.35-.56.48-.64.23-.75.09-.14.61-.02.61-.33.53-.11.59-.19.57.03.63-.38.52-.02.62-.19.67-.16-.69-.12-.59-.26-.55-.16-.58v-.62l-.18-.57-.19-.57-.22-.56-.09-.61-.74-.07-.53-.46-.63-.16-.57.19-.51.35-.48.39-.6.16-.52.32-.46.43-.54.28-.56.24-.58.32.42-.54.22-.59.31-.54.29-.55.38-.5.18-.61.42-.47.32-.54.22-.57-.27-.48-.22-.55-.04-.66-.66-.12-.61-.17-.64-.1-.63-.13-.59-.28-.61-.21-.61-.18-.65-.05-.66-.22.64-.17.61-.04.54-.31.61-.02.54-.3.59-.08.57-.17.59-.09.56-.21.6-.15.19-.74.41-.61-.34-.5-.35-.49-.14-.61-.32-.5-.26-.55-.35-.48-.24-.55-.39-.47-.28-.53-.27-.48.47.33.53.31.53.31.53.31.57.23.55.28.55.27.54.3.45.45.61.14.46-.24.51-.14.26-.55.13-.61.07-.63.23-.57.2-.59.14-.61.3-.56-.03-.65.34-.55.08-.6.26.55.1.61.05.63.33.55.16.6.11.61.17.59.11.62.24.57.13.6.49.27.54.14.58-.22.51-.35.57-.24.46-.44.56-.26.54-.29.57-.24.5-.36.51-.34.63-.35-.41.58-.21.57-.32.51-.25.55-.47.42-.14.61-.38.47-.19.58-.35.48-.28.52.31.63.22.76.63.1.56.22.6.05.55.25.6.07.59.1.55.26.6.04.54.3.65.12-.66.24-.65.08-.61.2-.6.21-.61.22-.64.08-.64.11-.62.16-.57.27-.14.53-.17.57-.4.52.32.55.42.48.2.6.43.47.3.55.33.53.16.62.34.52.27.45-.5-.16Z"/>
  <g class="cls-6">
    <path class="cls-11" d="M274.08,182.4h0c-.15,0-.28-.11-.32-.26l-.16-.69-.11-.56-.24-.51s-.02-.04-.02-.06l-.16-.58s-.01-.06-.01-.09v-.57l-.35-1.08-.21-.54s-.02-.05-.02-.07l-.05-.36-.48-.05c-.07,0-.14-.03-.18-.08l-.48-.41-.45-.12-.44.15-.47.32-.46.37s-.08.05-.12.06l-.56.15-.45.28-.44.41s-.04.04-.07.05l-.54.29-.59.25-.55.31c-.14.08-.31.04-.41-.07-.1-.12-.11-.3-.01-.42l.39-.5.21-.54s.01-.04.02-.05l.31-.54.28-.54s.02-.04.03-.05l.34-.45.16-.55s.04-.09.07-.13l.4-.45.29-.48.15-.41-.19-.35s-.01-.03-.02-.04l-.22-.55s-.02-.07-.02-.1l-.02-.4-.4-.07-.63-.17-.62-.1-.65-.14s-.05-.01-.07-.03l-.57-.27-.59-.2-.57-.17-.61-.04s-.06-.01-.08-.02l-.66-.23c-.14-.05-.23-.18-.23-.32,0-.15.1-.27.24-.31l.64-.17s.04-.01.06-.01l.54-.04.47-.27s.1-.04.16-.04l.53-.02.46-.27s.08-.04.12-.04l.57-.08.55-.16s.03,0,.05-.01l.56-.08.52-.2s.03-.01.04-.02l.4-.09.14-.55s.02-.07.05-.1l.28-.42-.56-.8s-.04-.08-.05-.12l-.12-.55-.29-.45s-.02-.03-.03-.04l-.24-.52-.33-.46s-.03-.04-.04-.06l-.23-.51-.36-.44s-.03-.04-.04-.05l-.28-.53-.27-.47c-.08-.14-.05-.3.06-.41.11-.1.28-.11.41-.03l.47.33,1.56.91.55.23,1.12.55.55.31s.05.03.07.06l.38.38.4.08.35-.19s.05-.02.07-.03l.35-.09.18-.38.12-.57.07-.59s.01-.06.02-.09l.24-.58.19-.55.13-.59s.02-.06.04-.08l.26-.48-.03-.56c0-.06.02-.13.05-.19l.3-.48.07-.54c.02-.15.14-.26.28-.28.15-.03.29.06.35.19l.26.56s.02.05.03.08l.1.61.05.58.3.48s.03.06.04.09l.16.6.11.62.17.58s.01.02.01.04l.1.57.23.54s.02.04.02.06l.09.45.32.17.4.1.45-.17.47-.33s.04-.02.06-.03l.52-.22.41-.4s.06-.05.09-.06l.56-.26.52-.28.56-.24.47-.34.52-.34.64-.37c.14-.08.31-.05.41.06.11.11.12.29.03.42l-.38.55-.2.53s-.02.04-.03.06l-.31.49-.24.53s-.05.08-.08.11l-.39.35-.12.51s-.04.09-.06.13l-.34.43-.17.52s-.03.06-.05.09l-.34.47-.19.35.23.47s.01.03.02.05l.16.55.41.06s.05.01.07.02l.52.2.56.05s.07.02.1.03l.5.23.55.06.61.1s.06.02.08.03l.49.22.55.04c.05,0,.1.02.14.04l.48.27.59.11c.15.03.26.15.28.3.01.15-.08.29-.22.34l-.66.24s-.05.02-.07.02l-.61.07-1.19.4-.6.22s-.05.02-.07.02l-.64.09-.62.11-.57.14-.4.19-.09.38-.17.58s-.03.08-.05.11l-.27.33.19.33.4.46s.05.07.06.11l.18.54.38.42s.03.04.04.06l.3.55.32.51s.03.06.04.09l.15.57.31.48.28.46c.07.12.06.27-.03.38-.09.11-.23.15-.36.11l-.5-.16s-.07-.03-.09-.05l-.47-.34-.53-.22s-.07-.03-.09-.05l-.43-.38-1.06-.51s-.04-.02-.05-.03l-.47-.35-.52-.29-.33-.22-.36.32s-.06.05-.1.06l-.65.22s-.05.02-.07.02l-.52.06-.08.35-.02.59c0,.06-.02.11-.06.17l-.3.47-.09.53s0,.03-.01.04l-.17.52.03.57c0,.07-.02.15-.06.21l-.32.43-.02.52s0,.05-.02.08l-.19.67c-.04.15-.17.24-.32.24ZM273.86,180.13l.2.42.28-.39-.03-.51s0-.08.02-.12l.18-.55.1-.57s.02-.08.05-.12l.29-.45.02-.53s0-.04.01-.06l.14-.61c.03-.14.15-.23.28-.26l.72-.09.55-.19.51-.44c.11-.1.28-.11.4-.03l.52.35.51.28s.03.02.04.03l.46.34,1.07.51s.05.03.08.05l.43.37.48.2s-.02-.04-.02-.06l-.15-.57-.3-.49-.29-.53-.41-.43s-.06-.07-.07-.11l-.18-.54-.37-.43s-.03-.03-.04-.05l-.33-.55c-.07-.12-.06-.27.03-.37l.36-.46.15-.51.13-.51c.02-.09.09-.17.18-.22l.57-.27s.04-.02.06-.03l.63-.16.66-.12.62-.08,1.19-.42.61-.21s.05-.01.07-.01l.18-.03-.12-.06-.53-.04s-.08-.01-.11-.03l-.51-.24-.55-.09-.58-.07s-.07-.02-.1-.03l-.5-.22-.55-.05s-.06-.01-.09-.02l-.53-.2-.58-.09c-.13-.02-.23-.11-.27-.23l-.22-.73-.29-.59c-.05-.1-.05-.21,0-.31l.28-.52s.02-.02.03-.04l.32-.44.18-.53s.03-.07.06-.1l.33-.41.13-.54c.02-.06.05-.13.1-.17l.42-.38.22-.48s.02-.03.03-.04l.3-.47.03-.08-.07.05-.49.35s-.04.03-.06.04l-.57.24-.52.28-.53.24-.42.4s-.06.05-.1.06l-.54.23-.48.33s-.05.03-.07.04l-.58.21c-.06.03-.14.03-.2.01l-.54-.14s-.05-.02-.08-.03l-.48-.27c-.09-.05-.15-.13-.17-.22l-.12-.57-.23-.54s-.02-.05-.03-.07l-.1-.6-.17-.57s0-.02,0-.04l-.11-.61-.14-.53-.31-.51s-.04-.09-.05-.15l-.07-.74-.1.15.03.55c0,.06-.01.12-.04.17l-.28.52-.12.56s-.01.03-.01.04l-.2.59-.23.55-.07.58-.13.64s-.02.05-.03.07l-.26.55c-.05.09-.13.16-.22.18l-.47.12-.43.23c-.07.04-.15.05-.22.03l-.61-.13c-.06-.01-.12-.05-.17-.09l-.42-.42-.49-.28-1.09-.54-.55-.22s-.03-.02-.04-.02l-.94-.55.22.28s.03.05.05.07l.23.52.34.45s.02.04.03.06l.24.53.31.48s.04.07.05.11l.13.55.66.94c.07.11.07.26,0,.37l-.37.56-.18.69c-.03.12-.12.21-.24.24l-.57.14-.54.21s-.05.02-.07.02l-.57.08-.55.16s-.04.01-.05.01l-.53.07-.48.27s-.1.05-.16.05h-.53s-.33.2-.33.2l.48.14.62.21s.03.01.04.01l.55.27.59.13.62.1s.03,0,.04.01l.62.17.62.1c.15.03.27.16.28.31l.03.6.19.48.26.47c.05.08.05.18.02.27l-.22.58s-.02.04-.03.05l-.32.53s-.02.04-.03.05l-.37.42-.16.54s-.03.08-.05.11l-.37.47-.27.53-.3.53-.07.19.14-.06.47-.26.43-.4s.03-.03.05-.04l.52-.32s.06-.03.09-.03l.54-.15.43-.34.53-.36s.05-.03.08-.04l.58-.19c.06-.02.13-.02.19,0l.62.16c.05.01.09.04.14.07l.45.39.64.06c.15.01.28.13.29.28l.09.57.2.53.38,1.16s.02.07.02.1v.58l.11.49Z"/>
  </g>
  <g class="cls-4">
    <path class="cls-12" d="M316.68,335.39l-.61-.57-.64-.54-.73-.42-.63-.54-.58-.6-.72-.44-.55-.64-.57-.61-.49-.69-.61-.56-.73-.45-.54-.64-.53-.65-.46-.69-.53-.64-.58-.6-.52-.65-.54-.64-.42-.72-.48-.68-.43-.71-.56-.64-.22-.83-.51-.67-.43-.71-.37-.74-.26-.8-.34-.75-.34-.76-.32-.77-.21-.81-.29-.78-.16-.81-.22-.81.04-.84-.23-.82.06-.83.06-.83.04-.83.05-.83.02-.84.26-.79.29-.78v-.87s.47-.72.47-.72l.41-.72.3-.77.45-.7.38-.74.47-.68.52-.64.4-.72.56-.6.39-.74.44-.7.58-.59.66-.51.59-.57.54-.62,1.15-1.18.63-.52.51-.66.7-.45.53-.64.6-.56.62-.54.73-.4.61-.55.65-.51.72-.41.57-.61.65-.51.68-.47.81-.27.67-.48.54-.67.84-.22.69-.45.63-.54.64-.53.8-.27.62-.55.77-.32.66-.49.76-.33.65-.51.66-.5.69-.44.7-.42.69-.45.69-.44.62-.55.66-.49.69-.44.69-.44.59-.58.6-.56.69-.45.63-.54.44-.71.53-.63.61-.55.41-.71.44-.69.61-.59.22-.8.29-.76.37-.6.33.63.34.76.45.7.31.77.47.71.27.79.13.83.23.8.26.8.1.83.08.83-.19.83-.06.82.03.85-.39.76-.19.81-.42.72-.33.78-.66.54-.48.69-.64.54-.6.59-.73.4-.73.4-.7.48-.81.24-.78.32-.86.02-.8.21-.82.11-.81.27-.84-.13-.84.14-.92-.17.89.27.81.18.78.3.82.19.74.38.69.47.65.53.72.41.69.46.67.5.52.66.6.57.66.53.36.77.6.59.31.78.45.7.45.71.16.83.36.76.09.84.21.81-.06.84-.04.83-.02.81-.6-.55-.78-.33-.63-.55-.83-.22-.59-.63-.78-.32-.73-.39-.81-.21-.7-.48-.82-.17-.81-.19-.82-.13-.79-.26-.82-.16-.81-.16-.83.16-.82-.09-.82.12-.84-.02-.78.29-.83.1-.8.25-.69.47-.74.38-.63.54-.63.56-.49.8.92-.04.75.34.74.31.8.14.78.24.61.58.83.17.57.6.67.45.57.56.51.63.64.51.54.6.35.73.42.68.38.61-.72.26-.84-.15-.82.1-.81.16-.8.18-.79.26-.8.18-.8.19-.79.23-.79.24-.78.26-.77.3-.67.49-.75.34-.64.52-.7.43-.6.55-.77.39-.5.66-.46.69-.54.63-.29.78-.4.71-.24.78-.36.74-.21.79-.28.78.06.84-.28.79.15.83-.17.82-.06.82.05.82.25.8.09.81.08.82v.84s.24.79.24.79l.29.78.22.79.32.76.06.84.29.77.31.77.42.71.31.76.35.76Z"/>
  </g>
  <g class="cls-5">
    <path class="cls-11" d="M316.68,335.83c-.11,0-.22-.04-.3-.12l-.61-.56-.59-.5-.7-.4s-.05-.03-.06-.05l-.63-.54s-.02-.02-.03-.03l-.54-.56-.68-.41s-.07-.06-.1-.09l-.54-.64-.56-.59s-.03-.03-.04-.05l-.46-.65-.55-.51-.7-.43s-.07-.06-.1-.09l-1.07-1.28s-.02-.03-.03-.04l-.45-.68-.52-.62-.56-.58s-.02-.02-.02-.03l-1.06-1.28s-.03-.05-.05-.07l-.41-.7-.47-.66s-.01-.02-.02-.03l-.41-.68-.53-.6c-.04-.05-.07-.11-.09-.18l-.2-.75-.45-.6s-.02-.03-.03-.04l-.43-.71-.39-.77s-.02-.04-.03-.06l-.24-.78-.67-1.49-.32-.78s-.02-.04-.02-.06l-.2-.79-.28-.76s-.01-.05-.02-.07l-.16-.82-.21-.78s-.02-.09-.02-.14l.04-.77-.22-.74s-.02-.1-.02-.15l.13-1.66.03-.81.05-.84.02-.82s0-.09.02-.13l.26-.8.28-.72v-.79c0-.08.03-.17.07-.23l.47-.72.38-.67.29-.74s.02-.06.04-.08l.43-.68.36-.72s.02-.04.03-.05l.48-.68.51-.64.38-.69s.04-.06.06-.09l.52-.56.35-.69s.01-.02.02-.03l.44-.7s.04-.05.06-.08l.58-.58s.03-.03.05-.04l.65-.49.55-.54.53-.6,1.16-1.19s.03-.02.04-.03l.59-.49.48-.62s.07-.07.11-.1l.65-.41.48-.59.04-.04.6-.56.64-.55s.05-.04.07-.06l.69-.38.57-.52.03-.03.65-.5s.03-.03.05-.04l.66-.38.53-.56s.03-.03.05-.04l.65-.51.7-.48s.07-.04.11-.06l.74-.24.56-.41.5-.63c.06-.07.14-.13.23-.15l.77-.21.61-.39.6-.52.65-.54s.09-.06.14-.07l.71-.24.55-.5s.08-.06.13-.08l.72-.29.61-.46s.06-.04.09-.06l.71-.31,1.27-.98s.02-.01.03-.02l.69-.44.72-.43,1.33-.86.59-.53s.02-.02.03-.03l.66-.48,1.37-.88.55-.55.62-.57s.04-.03.05-.04l.67-.44.55-.47.41-.66s.03-.04.04-.05l.52-.63s.03-.03.05-.05l.56-.51.38-.65.44-.7s.05-.05.07-.08l.53-.51.19-.69s.01-.03.02-.04l.29-.76s.02-.05.04-.06l.36-.61c.08-.14.23-.21.39-.21s.3.09.38.23l.33.63.34.75.44.68s.03.05.04.07l.3.73.45.67s.04.06.05.1l.27.79s.02.05.02.07l.13.81.22.78.25.78s.02.05.02.08l.1.83.09.84s0,.09-.01.14l-.19.8-.05.77.04.83c0,.07-.02.15-.05.21l-.36.71-.18.76s-.03.08-.05.11l-.4.7-.32.76c-.03.06-.07.12-.13.17l-.61.51-.45.64s-.04.06-.07.08l-.63.53-.58.58s-.06.05-.1.07l-1.44.8-.68.46s-.08.04-.12.06l-.78.24-.76.32s-.1.03-.16.03l-.81.02-.75.18s-.03,0-.04,0l-.79.12-.37.12.25.06s.07.02.1.04l.74.38s.03.02.05.03l.69.47s.02.02.03.03l.62.51.69.39.72.47.69.52s.06.05.08.07l.51.64.56.54.64.52c.06.04.09.09.13.16l.32.7.55.54s.07.09.1.15l.29.74.88,1.39s.05.09.06.15l.16.78.33.72s.04.09.04.14l.09.81.21.78s.02.1.01.14l-.06.84-.04.82-.02.79c0,.17-.1.32-.27.39-.15.07-.34.04-.46-.08l-.55-.49-.71-.3s-.08-.05-.11-.07l-.56-.48-.73-.2c-.08-.02-.15-.06-.2-.12l-.53-.57-.68-.28s-.03-.01-.04-.02l-.69-.36-.76-.19c-.05-.02-.1-.04-.14-.06l-.63-.43-1.54-.34-.8-.12s-.05-.01-.07-.02l-.76-.25-1.53-.29-.76.14s-.08,0-.13,0l-.77-.08-.77.11s-.05,0-.07,0l-.75-.02-.7.26s-.07.02-.1.03l-.79.09-.69.22-.64.44s-.03.02-.05.03l-.7.36-.59.51-.59.56h.1c.06,0,.14.01.2.04l.74.34.68.29.76.14s.04,0,.05.01l.78.24c.06.02.12.05.17.1l.52.49.71.15c.09.02.17.06.23.13l.54.56.63.42s.04.03.06.05l.58.56s.03.03.04.04l.47.59.59.47s.04.03.05.05l.54.6s.05.07.07.1l.34.72.79,1.28c.07.11.08.25.04.37-.04.13-.14.22-.26.27l-.73.26c-.07.03-.15.04-.22.02l-.78-.14-.74.09-1.57.34-.77.25s-.03,0-.04.01l-1.59.37-1.54.46-.77.26-.69.28-.63.46s-.05.03-.07.04l-.7.31-.59.48s-.03.03-.05.03l-.67.41-.56.53s-.06.05-.1.07l-.68.34-.44.58-.45.67s-.02.03-.03.04l-.49.57-.26.71s-.02.05-.03.06l-.38.68-.23.74s-.01.04-.02.06l-.34.7-.19.75s0,.03-.01.04l-.25.69.06.74c0,.07,0,.13-.03.18l-.24.69.13.72c.01.06.01.11,0,.16l-.16.79-.06.77.05.74.23.75s.01.06.02.08l.17,1.64s0,.03,0,.04v.78s.22.73.22.73l.28.74s0,.02.01.04l.21.76.31.73s.03.09.03.14l.06.78.56,1.44.41.68.03.06.62,1.51c.08.19.02.41-.15.53-.09.04-.18.07-.27.07ZM314.96,333.51l.56.32-.26-.45s-.03-.04-.03-.06l-.6-1.54s-.02-.08-.03-.13l-.05-.77-.29-.69s-.02-.04-.02-.06l-.21-.77-.29-.76-.23-.82s-.02-.08-.02-.11v-.82s-.17-1.57-.17-1.57l-.23-.76s-.02-.07-.02-.1l-.05-.82v-.06l.06-.82s0-.04.01-.06l.16-.73-.14-.75c-.01-.08,0-.15.02-.22l.25-.7-.06-.74c0-.07,0-.13.02-.18l.28-.77.2-.77s.02-.06.03-.08l.34-.71.23-.75s.02-.06.03-.08l.38-.69.28-.76c.02-.05.05-.09.08-.14l.52-.61.45-.67.52-.68c.04-.06.09-.1.15-.13l.71-.36.56-.52s.04-.04.07-.05l.67-.41.62-.5s.06-.05.09-.06l.71-.32.64-.46s.06-.04.1-.06l.77-.3.8-.27,1.59-.47,1.6-.38.77-.25s.03-.01.04-.01l1.63-.34s.02,0,.04-.01l.82-.09s.09,0,.13,0l.73.13.11-.04-.52-.84s-.02-.03-.03-.04l-.32-.68-.48-.53-.6-.48s-.05-.05-.07-.07l-.49-.61-.53-.52-.64-.43s-.05-.04-.07-.06l-.47-.5-.7-.15c-.08-.02-.16-.06-.21-.11l-.54-.51-.66-.2-.78-.14s-.07-.02-.1-.03l-.73-.31-.67-.3-.81.04c-.15.01-.31-.08-.39-.22-.08-.14-.08-.31,0-.45l.49-.8s.05-.07.08-.09l.62-.56.65-.55s.05-.04.08-.06l.71-.36.67-.46s.07-.04.11-.05l.8-.26.08-.02.78-.09.73-.27c.05-.02.1-.03.16-.03l.8.02.78-.11s.08,0,.11,0l.76.09.77-.15c.06-.01.11-.01.17,0l1.63.32s.04,0,.06.01l.76.25.79.11s.02,0,.03,0l1.63.36c.05.01.11.03.15.06l.64.44.74.19s.07.02.1.04l.71.38.76.31c.05.02.1.06.15.1l.51.54.71.19c.06.02.13.05.18.09l.58.51.71.3h.02s.04-.71.04-.71l.06-.78-.19-.74s-.01-.04-.01-.06l-.09-.76-.33-.7s-.03-.07-.03-.1l-.15-.74-.84-1.34s-.03-.05-.04-.07l-.28-.7-.53-.53s-.07-.08-.09-.13l-.31-.68-.58-.47s-.02-.02-.03-.02l-.6-.57-.04-.04-.49-.61-.62-.46-.68-.44-.69-.4s-.04-.03-.06-.04l-.63-.52-.65-.44-.67-.34-.77-.17s-.04-.01-.06-.02l-.74-.29-.78-.17s-.02,0-.03-.01l-.89-.27c-.22-.07-.35-.3-.3-.52s.28-.36.51-.32l.84.16.77-.13s.09-.01.14,0l.74.11.71-.23s.05-.02.07-.02l.8-.11.78-.2s.07-.01.1-.01l.78-.02.7-.29s.03-.01.04-.01l.74-.23.65-.44s.02-.02.03-.02l1.41-.78.55-.55s.02-.02.03-.03l.59-.5.44-.64s.05-.06.08-.08l.58-.47.29-.68s.02-.04.03-.05l.38-.67.18-.76s.02-.06.04-.09l.33-.66-.03-.73v-.05l.05-.82s0-.05.01-.07l.18-.76-.17-1.54-.24-.76-.23-.82s0-.04-.01-.05l-.13-.79-.24-.71-.44-.66s-.03-.05-.04-.08l-.29-.73-.43-.67s-.03-.04-.03-.06l-.3-.65-.22.59-.22.79c-.02.07-.06.14-.12.19l-.57.55-.41.65-.4.7s-.05.07-.09.1l-.59.53-.48.58-.43.69s-.05.07-.08.1l-.62.54s-.04.03-.05.04l-.67.44-.57.53-.58.57s-.04.04-.07.06l-1.38.89-.62.46-.6.54s-.04.03-.05.04l-1.38.9-.72.43-.67.43-1.29.99s-.06.04-.09.06l-.71.31-.61.47s-.06.04-.09.06l-.7.29-.57.51s-.1.07-.15.08l-.72.25-.57.47-.62.54s-.03.03-.05.04l-.69.44s-.08.05-.13.06l-.69.19-.45.56s-.05.05-.08.08l-.66.48s-.08.05-.13.06l-.75.24-.63.43-.59.47-.55.58s-.06.06-.1.08l-.69.4-.61.47-.6.54s-.05.05-.08.06l-.69.38-.59.51-.56.54-.51.61s-.06.06-.1.09l-.64.41-.46.59s-.04.05-.06.07l-.62.51-1.13,1.16-.53.6s-.02.02-.02.02l-.59.58s-.03.03-.04.04l-.64.48-.53.53-.41.65-.37.72s-.04.07-.07.1l-.53.56-.36.68s-.03.04-.05.07l-.51.64-.44.63-.36.71s-.02.03-.03.04l-.42.66-.29.73s-.02.04-.03.05l-.41.72-.41.63v.74s-.02.1-.03.15l-.29.78-.23.72-.02.78-.05.84-.03.82-.11,1.6.21.74s.02.09.02.14l-.04.78.2.74.16.81.28.74s.01.03.02.05l.2.77.3.74.67,1.5s.02.03.02.05l.24.77.35.71.4.66.49.65s.06.09.07.15l.2.74.49.55s.03.04.05.07l.42.7.47.66s.02.03.02.04l.4.69,1.03,1.24.57.59.55.66s.02.03.03.04l.45.68,1.01,1.2.67.42s.05.03.07.05l.61.56s.04.04.06.07l.47.66.55.58.51.6.67.41s.06.04.09.07l.56.58.58.51Z"/>
  </g>
  <g class="cls-10">
    <path class="cls-12" d="M232.15,334.66l.34-.74.19-.81.28-.78.25-.78.45-.72.16-.81.21-.79.11-.82.13-.81.3-.78.18-.81.13-.81-.09-.83.05-.82.09-.82.15-.83-.26-.81.1-.84-.33-.78-.07-.83-.23-.79-.18-.82-.39-.73-.35-.75-.55-.63-.4-.72-.56-.6-.61-.55-.43-.74-.67-.49-.63-.54-.74-.37-.68-.47-.8-.25-.73-.36-.76-.34-.77-.3-.79-.24-.79-.23-.81-.19-.83-.06-.82-.09-.82-.07-.82-.09-.8-.3-.92.14.38-.81.42-.69.57-.59.46-.66.45-.69.65-.49.65-.49.61-.52.77-.29.56-.64.83-.16.7-.41.7-.42.8-.16.81-.04.67-.3-.46-.55-.5-.65-.64-.52-.65-.52-.79-.27-.75-.35-.76-.36-.84-.04-.8-.23-.84.02-.83-.09-.82.26-.83.02-.82.11-.83.09-.79.29-.78.3-.74.38-.84.13-.71.45-.76.32-.7.44-.85.17-.59.62-.77.33-.6.59-.76.41-.07-.85.06-.83.18-.81.02-.83.25-.8.09-.83.4-.73.21-.81.32-.78.54-.65.34-.78.66-.54.44-.72.56-.62.69-.48.61-.56.64-.54.66-.53.77-.34.77-.33.76-.34.71-.46.8-.26.79-.28.74-.07-.73.02-.82.19-.83-.2-.85.1-.82-.15-.83-.16-.74-.43-.8-.22-.74-.39-.8-.25-.72-.42-.65-.52-.72-.43-.59-.59-.65-.54-.35-.78-.55-.64-.33-.77-.39-.74-.05-.85-.32-.79-.08-.83.19-.83.03-.83.13-.82.07-.83.19-.81.36-.76.3-.77.17-.83.38-.74.28-.79.44-.71.49-.82.18.94.35.74.52.65.22.82.48.67.57.6.44.7.58.58.71.46.57.58.53.64.65.51.7.44.6.55.63.53.68.47.73.39.67.47.68.45.67.47.69.45.73.38.74.37.63.53.74.38.62.55.77.32.59.6.74.35.76.34.69.45.54.68.83.23.7.43.54.67.67.47.69.44.76.36.6.57.66.49.68.46.55.62.65.51.66.5.7.44.53.65.69.46.55.61.59.57.58.58.59.57.53.64.42.73.48.66.6.56.64.54.43.71.57.6.43.7.44.71.48.68.34.77.42.72.25.8.11.84.49.71.13.83.07.83.23.8.11.83.05.83-.06.83-.14.82.08.84-.27.8-.09.83-.21.8-.14.83-.29.78-.23.8-.27.79-.32.78-.44.71-.38.74-.35.75-.31.78-.63.59-.33.78-.49.67-.46.69-.56.63-.46.69-.5.66-.47.69-.54.63-.62.56-.58.6-.59.58-.42.76-.56.62-.69.48-.63.55-.67.49-.51.68-.66.5-.63.54-.55.64-.66.5-.7.44.39-.72Z"/>
  </g>
  <g class="cls-8">
    <path class="cls-11" d="M231.77,335.82c-.1,0-.21-.04-.3-.11-.15-.14-.18-.35-.09-.53l.39-.72.31-.68.18-.77s0-.03.01-.05l.28-.78.25-.77s.03-.07.05-.1l.41-.65.14-.73s0-.03,0-.04l.21-.76.11-.79.13-.82s.01-.06.02-.09l.29-.75.18-.77.11-.73-.09-.78v-.07l.05-.82.1-.84.13-.74-.22-.71c-.02-.06-.02-.13-.02-.18l.09-.72-.28-.68s-.03-.08-.04-.13l-.07-.78-.22-.75s0-.02-.01-.03l-.17-.76-.36-.68-.33-.72-.51-.58s-.04-.05-.05-.08l-.37-.67-.52-.55-.59-.54s-.06-.07-.09-.1l-.38-.66-.59-.44-.61-.53-.7-.35s-.04-.02-.05-.03l-.63-.44-.73-.23s-.05-.01-.07-.02l-.73-.36-.74-.34-.74-.29-1.55-.46-.76-.18-.79-.06-.84-.1-.81-.07-.83-.1s-.07-.02-.1-.03l-.69-.26-.81.12c-.16.03-.32-.04-.42-.17-.09-.13-.11-.3-.05-.45l.39-.81s.01-.03.02-.04l.42-.7s.04-.05.06-.08l.55-.56.44-.63.44-.68s.06-.08.1-.11l1.3-.98.59-.51s.08-.06.13-.08l.67-.25.49-.56c.07-.07.15-.12.25-.14l.75-.14,1.33-.79s.09-.05.14-.05l.8-.16s.04,0,.06,0l.73-.04.07-.03-.09-.11-.48-.62-1.19-.95-.71-.24s-.03-.01-.04-.02l-1.43-.67-.76-.04s-.06,0-.1-.02l-.74-.22-.77.02h-.06l-.74-.08-.73.22s-.08.02-.12.02l-.8.02-.8.11-.79.08-1.48.56-.72.36s-.09.04-.14.04l-.74.11-.63.4s-.04.03-.07.03l-.73.31-.67.42s-.09.05-.15.06l-.72.15-.5.52s-.09.08-.14.1l-.69.3-.54.53s-.06.05-.1.07l-.76.41c-.13.07-.29.07-.41,0-.13-.07-.22-.2-.23-.35l-.07-.85s0-.05,0-.07l.06-.83s0-.04.01-.07l.18-.77.02-.79s0-.08.02-.12l.23-.75.08-.79c.01-.06.03-.11.05-.16l.37-.69.2-.76s.01-.04.02-.05l.32-.78s.04-.08.07-.11l.5-.6.32-.72c.03-.06.07-.12.12-.16l.6-.49.4-.66s.03-.05.05-.07l.56-.62s.05-.05.08-.07l.67-.46.59-.55.65-.56.66-.53s.06-.05.1-.06l2.26-.99.24-.16-.18.02s-.08,0-.13,0l-1.66-.3s-.1-.03-.14-.05l-.69-.41-.74-.21s-.06-.02-.09-.03l-.7-.36-.76-.24s-.06-.03-.09-.04l-.72-.42s-.04-.02-.05-.04l-.63-.5-.69-.41s-.06-.04-.08-.07l-.58-.57-.64-.53s-.09-.09-.11-.16l-.34-.7-.51-.58s-.06-.08-.07-.11l-.32-.76-.39-.72c-.03-.06-.04-.12-.05-.18l-.05-.78-.3-.72s-.03-.08-.03-.12l-.08-.84s0-.09.01-.14l.18-.8.03-.79v-.05l.13-.82.07-.8s0-.05.01-.06l.19-.82s.02-.06.03-.09l.36-.74.28-.72.15-.79s.02-.08.04-.11l.36-.72.28-.77s.02-.05.04-.08l.93-1.53c.09-.16.28-.24.45-.2.18.03.32.17.35.34l.17.89.31.65.48.61s.06.1.08.16l.2.74.41.58.56.57s.04.05.05.07l.41.67.51.52.67.43s.05.04.08.07l.57.59.03.03.5.6.59.46.68.43s.04.03.06.05l.61.55.6.51.64.44.71.38.05.03.67.47.67.45.68.48.66.43,1.45.73s.06.04.09.06l.59.51.69.35s.06.04.09.06l.57.51.7.29c.05.03.1.06.15.1l.54.55,1.42.66s.04.02.06.03l.69.45s.07.06.1.09l.46.57.69.2s.08.03.11.05l.7.43s.08.06.11.09l.51.62.63.44.65.42.73.34s.08.04.11.08l.58.55.64.48.66.44s.06.05.08.07l.53.59,1.25.96.69.43s.08.05.11.09l.48.59.64.43s.06.04.08.07l.55.61.57.54,1.18,1.16s.02.03.03.04l.53.64s.03.04.04.06l.41.7.45.61.57.54.62.53s.06.06.09.1l.41.66.55.57s.04.05.05.08l.87,1.41.47.67s.03.05.04.07l.33.74.41.71s.03.06.04.09l.25.8s.01.05.02.07l.09.74.44.63c.04.06.06.12.07.18l.13.83.08.82.22.77s.01.04.01.06l.12.83v.03l.05.83v.06l-.06.83s0,.03,0,.04l-.13.77.07.78c0,.06,0,.13-.02.18l-.25.76-.08.78s0,.04-.01.07l-.21.79-.14.8s-.01.05-.02.08l-.29.78-.22.77-.27.81-.32.8s-.02.05-.04.07l-.43.69-.36.72-.35.74-.31.76c-.02.06-.06.11-.1.15l-.56.53-.29.69s-.03.06-.05.09l-.49.67-.45.67s-.03.04-.04.05l-.54.6-.45.66-.52.68-.46.67s-.02.03-.03.04l-.54.64s-.03.03-.04.04l-.62.56-.56.58-.56.55-.39.69s-.03.06-.06.08l-.56.63s-.05.04-.07.06l-.67.47-.61.54s-.02.01-.03.02l-.62.46-.46.63s-.06.06-.09.09l-.67.5-.58.5-.53.61s-.04.05-.07.06l-.66.51s-.02.02-.04.02l-.7.45c-.1.03-.18.06-.26.06ZM233.11,333.24l-.18.78.43-.5s.03-.04.05-.05l.63-.54.64-.48.47-.63s.05-.06.09-.09l.66-.49.61-.54s.02-.02.04-.03l.65-.45.49-.55.4-.71s.05-.07.07-.1l.59-.58.57-.59.63-.56.51-.59.46-.67.51-.68.45-.67s.02-.03.04-.05l.54-.6.44-.67.47-.65.31-.72c.02-.06.06-.11.1-.15l.56-.53.28-.69.36-.78.38-.75s.02-.02.02-.04l.42-.68.3-.74.26-.76.22-.79.28-.77.14-.79s0-.02,0-.04l.2-.77.08-.79s.01-.07.02-.09l.24-.71-.07-.76s0-.07,0-.11l.14-.81.06-.78-.05-.79-.11-.78-.22-.77s-.02-.05-.02-.08l-.08-.83-.11-.7-.44-.64c-.04-.05-.06-.12-.07-.19l-.1-.81-.22-.72-.4-.68s-.02-.03-.02-.04l-.33-.72-.46-.65-.86-1.4-.54-.57s-.04-.05-.06-.07l-.4-.64-.58-.5-.61-.58s-.04-.04-.06-.06l-.48-.66s-.02-.03-.03-.04l-.4-.69-.48-.59-1.74-1.7-.54-.59-.65-.43s-.07-.05-.1-.09l-.47-.59-.65-.4s-.02-.01-.03-.02l-1.31-1.01s-.04-.04-.06-.06l-.52-.58-.64-.43-.68-.51s-.03-.02-.04-.03l-.55-.53-.69-.32s-.03-.02-.05-.03l-.69-.44-.68-.48s-.06-.05-.09-.08l-.49-.61-.58-.36-.78-.22c-.08-.03-.16-.07-.22-.15l-.5-.61-.6-.39-1.48-.69s-.09-.05-.13-.09l-.53-.54-.69-.29s-.09-.04-.13-.07l-.58-.52-.68-.35s-.06-.03-.09-.06l-.59-.5-1.43-.73s-.02-.02-.04-.02l-.69-.45-.69-.48-.67-.45-.66-.46-.7-.37s-.03-.02-.05-.03l-.67-.46s-.03-.02-.04-.03l-.63-.53-.59-.54-.66-.42s-.02-.02-.04-.03l-.65-.5s-.05-.05-.07-.07l-.52-.63-.53-.54-.66-.43s-.05-.04-.07-.06l-.58-.58s-.05-.05-.06-.08l-.41-.67-.54-.56s-.03-.03-.04-.05l-.48-.67s-.06-.09-.07-.14l-.2-.73-.46-.58s-.04-.05-.05-.08l-.33-.7-.34.55-.27.75s-.01.03-.02.05l-.35.69-.15.78s-.02.05-.02.07l-.3.78-.02.03-.34.71-.18.74-.07.8-.13.82-.04.8s0,.05,0,.08l-.18.77.07.7.3.73s.03.09.03.14l.05.76.35.66s.01.02.02.04l.3.7.51.58s.05.07.07.11l.31.69.57.48s.02.02.03.03l.55.55.67.4.05.03.63.5.65.38.76.23s.05.02.07.03l.69.36.76.21s.07.03.11.04l.68.4,1.51.27.79-.08s.1,0,.15.01l.73.17.73-.17s.05-.01.08-.01l.74-.02c.23,0,.44.17.45.41.02.24-.16.44-.4.46l-.69.06-.74.26-.75.25-.66.43s-.04.02-.06.03l-.76.34-1.49.65-.6.49-.63.54-.59.55s-.04.03-.05.04l-.65.45-.5.55-.41.69s-.06.08-.1.11l-.58.47-.3.68s-.04.07-.07.1l-.49.59-.28.69-.21.79s-.02.06-.04.09l-.35.67-.08.75s-.01.06-.02.08l-.23.73-.02.77s0,.06-.01.08l-.18.79-.06.77v.16s.13-.06.13-.06l.55-.55s.08-.07.14-.09l.69-.3.54-.56c.06-.07.14-.11.23-.13l.78-.15.64-.4s.04-.02.06-.03l.73-.3.68-.43c.05-.03.11-.06.17-.06l.77-.11.68-.34s.03-.02.04-.02l1.56-.59s.07-.02.11-.03l.83-.08.81-.11s.03,0,.05,0l.77-.02.76-.24c.05-.02.11-.02.17-.02l.81.09.81-.02s.09,0,.14.02l.76.22.79.04c.06,0,.11.02.17.04l1.48.69.77.26s.09.04.13.07l1.29,1.03s.05.04.07.07l.51.65.45.54c.09.1.12.24.09.38-.03.14-.12.24-.24.3l-.69.29c-.05.02-.1.04-.16.04l-.78.04-.69.14-1.34.79s-.09.04-.14.05l-.68.13-.46.53c-.05.05-.11.09-.17.11l-.7.27-.55.47-1.26.95-.41.63-.47.68s-.03.04-.05.05l-.54.55-.41.68.11-.02c.07-.01.15,0,.22.02l.75.29.76.09.81.07.83.1.81.06s.05,0,.06.01l.81.19.82.23.8.25.8.3.78.35.72.35.77.24s.08.03.11.06l.66.45.72.36s.06.04.09.06l.63.54.64.47s.09.08.12.14l.39.68.56.5s.02.02.03.03l.57.6s.05.06.07.09l.37.68.52.59s.05.07.07.1l.34.76.38.7s.04.07.05.11l.17.8.23.77s.02.06.02.09l.07.76.3.72c.03.07.04.15.03.22l-.09.75.22.72c.02.07.02.14.02.2l-.15.83-.09.79-.04.76.09.8s0,.08,0,.11l-.13.81-.19.83s0,.04-.02.06l-.29.73-.22,1.57s-.01.04-.02.06l-.21.77-.15.8c-.01.05-.03.1-.06.15l-.42.67-.23.73-.28.77Z"/>
  </g>
  <path class="cls-12" d="M286.84,317.6l.17.64-.22.61.04.64-.21.6-.09.62-.03.65-.3.56-.24.58-.19.6-.4.5-.17.63-.31.55-.49.42-.38.5-.46.43-.32.56-.56.32-.42.46-.54.32-.52.35-.42.51-.54.33-.57.26-.59.22-.57.28-.61.15-.6.21-.63.09-.62.12-.64-.04-.62.18-.63-.06-.63-.07-.63-.07-.64.04-.62-.11-.6-.18-.64-.05-.58-.27-.57-.26-.53-.35-.57-.26-.63-.17-.52-.36-.5-.38-.45-.45-.47-.41-.49-.4-.44-.45-.44-.45-.33-.54-.37-.51-.31-.54-.4-.49-.12-.64-.33-.54-.26-.57-.2-.59-.09-.62-.15-.61-.14-.61-.11-.61-.02-.63-.07-.63.04-.63v-.63s.19-.61.19-.61v-.64s.2-.6.2-.6l.21-.59.19-.59.2-.59.18-.6.35-.53.36-.51.17-.64.48-.43.44-.45.38-.51.46-.42.42-.46.48-.39.52-.35.46-.43.56-.28.48-.42.53-.35.59-.22.63-.11.6-.16.59-.19.61-.14.61-.11.63-.03.61-.15.63.09.63-.09h.63s.63.07.63.07l.6.21.62.09.6.16.57.27.63.11.59.23.56.29.46.47.54.31.63.2.36.55.47.41.52.36.49.4.3.57.47.43.28.57.38.49.23.59.34.53.3.55.22.58.18.6.16.6.12.61.18.6.08.63v.63s-.07.64-.07.64Z"/>
  <path class="cls-11" d="M274.78,330.77h-.03l-1.85-.2-.61.03s-.05,0-.07,0l-.62-.1s-.03,0-.04-.01l-.57-.18-.6-.05s-.08-.01-.11-.03l-1.15-.52s-.03-.02-.05-.03l-.51-.34-.52-.23-.6-.16s-.07-.03-.1-.05l-.52-.36-.51-.39s-.03-.02-.04-.03l-.45-.45-.45-.4-.47-.39s-.02-.02-.03-.03l-.89-.91s-.03-.04-.04-.05l-.33-.54-.36-.49s-.02-.02-.02-.03l-.3-.52-.39-.47s-.06-.09-.07-.15l-.11-.58-.3-.48s-.01-.03-.02-.04l-.26-.57-.21-.63s-.01-.04-.02-.06l-.09-.63-.28-1.19-.11-.64s0-.03,0-.05l-.02-.63-.07-.6s0-.04,0-.05l.04-.63v-.61s0-.07.01-.1l.18-.55v-.58s0-.08.01-.11l.42-1.19.57-1.78s.02-.06.04-.09l.35-.53.34-.47.16-.58c.02-.06.05-.11.1-.16l.48-.43.41-.42.36-.48s.03-.04.04-.05l.46-.42.4-.44s.02-.02.04-.03l.48-.4.52-.35.44-.41s.05-.04.08-.05l.52-.27.45-.39s.02-.02.03-.03l.53-.35s.05-.03.07-.04l.6-.21s.04-.01.06-.02l.63-.11.58-.16.58-.18.64-.15.63-.12s.03,0,.05,0l.59-.03.59-.14s.08-.01.12,0l.58.08.58-.08h.68s.65.07.65.07c.03,0,.05.01.08.02l.57.2.59.09s.03,0,.04,0l.6.16s.04.02.06.02l.53.25.59.1s.04.01.06.02l.59.23.03.02.56.29s.06.04.09.06l.42.44.47.27.59.19c.07.03.13.07.18.13l.34.51.44.38.49.35.51.42s.06.06.08.1l.27.52.43.39s.05.06.07.1l.26.54.36.47s.04.05.05.08l.22.56.32.5.32.57s.01.03.02.04l.23.59.34,1.23.13.64.17.58s.01.03.01.05l.09.63v.67s0,.03,0,.05l-.07.56.15.56c.02.07.02.14,0,.2l-.2.55.04.57s0,.09-.02.13l-.2.57-.09.57-.03.63s-.02.1-.04.15l-.3.55-.24.56-.18.58s-.03.07-.05.1l-.36.45-.16.56s-.02.05-.03.07l-.31.55s-.04.07-.07.09l-.46.4-.35.47s-.03.03-.04.04l-.42.4-.29.52c-.03.05-.07.09-.13.13l-.52.29-.39.43s-.04.05-.07.06l-.54.32-.46.31-.39.47s-.05.05-.08.07l-.54.33s-.03.02-.04.02l-.58.26-.61.23-.55.26s-.04.02-.07.03l-.59.14-.58.21-.06.02-.63.1-.61.11s-.06.01-.08.01l-.58-.04-.56.16s-.05.02-.08.02ZM272.9,329.9h.03l1.81.19.56-.16s.08-.01.12-.01l.59.04.58-.11.61-.09.56-.2s.02-.01.04-.01l.58-.14.54-.26.62-.23.54-.24.47-.29.39-.46s.04-.04.07-.06l.51-.35.52-.31.39-.43s.05-.05.08-.07l.48-.27.27-.48s.04-.06.06-.08l.44-.41.36-.47s.03-.04.05-.05l.45-.39.26-.47.16-.58s.03-.08.06-.12l.36-.45.17-.54.25-.6.02-.03.27-.49.03-.57s0-.03,0-.04l.09-.61s0-.04.02-.06l.19-.54-.04-.57s0-.09.02-.13l.19-.52-.14-.53s-.02-.09-.01-.13l.08-.6v-.58l-.08-.58-.17-.58-.13-.65-.33-1.18-.2-.54-.29-.53-.33-.51s-.02-.04-.03-.06l-.21-.54-.35-.46s-.03-.04-.04-.06l-.24-.52-.42-.39s-.05-.05-.07-.09l-.27-.51-.44-.36-.5-.35-.49-.43s-.04-.04-.06-.06l-.31-.45-.52-.17s-.04-.02-.07-.03l-.54-.31s-.05-.03-.07-.06l-.42-.43-.49-.26-.55-.21-.59-.11s-.06-.02-.08-.03l-.54-.26-.56-.15-.6-.09s-.04-.01-.06-.02l-.56-.2-.59-.06h-.58s-.6.07-.6.07c-.03,0-.06,0-.09,0l-.57-.08-.56.14s-.04,0-.06.01l-.6.03-.59.11-.59.14-.57.18-.62.17-.63.11-.53.19-.48.32-.47.41s-.04.03-.07.04l-.52.26-.43.4s-.03.02-.04.03l-.52.35-.44.36-.41.44-.46.42-.35.47s-.02.03-.03.03l-.44.45-.43.38-.15.54s-.03.07-.05.11l-.36.51-.31.47-.17.56-.8,2.33v.58s0,.07-.01.11l-.17.56v.58l-.03.62.07.59.02.64.1.59.28,1.2.09.63.19.57.23.52.32.52s.04.07.04.11l.11.56.35.43s.02.03.03.05l.3.53.35.49.33.53.84.85.47.39.48.42.45.45.48.37.46.32.57.15.05.02.57.26s.03.02.05.03l.51.34,1.08.49.58.04s.05.01.07.02l.58.18.56.1.6-.04s.02.02.03.02Z"/>
  <path class="cls-2" d="M274.41,312.45l.57-.16.46-.44.61-.17.43-.48.58-.23.59-.21.47-.42.49-.37.55-.29.54-.29.53-.31.59-.21.44-.46.58-.23.53-.32.54-.3.56-.28.46-.43.55-.29.53-.33.6-.19.43-.5.53-.17-.16.53-.47.45-.28.55-.3.54-.3.54-.22.59-.43.46-.17.61-.39.49-.24.58-.28.55-.49.43-.14.64-.35.52-.39.49-.3.55-.19.6-.34.52-.31.54-.27.56-.42.48-.27.56-.41.53.3.6.31.55.47.46.16.64.41.49.21.6.35.53.44.48.21.61.29.56.36.52.2.61.45.47.34.53.17.63.32.54.25.58.45.47.17.63.38.51.23.59.32.43-.51-.17-.55-.3-.52-.34-.52-.35-.56-.28-.51-.37-.56-.28-.52-.36-.54-.31-.48-.42-.6-.21-.49-.39-.51-.37-.53-.33-.6-.22-.54-.32-.51-.36-.6-.21-.5-.39-.53-.35-.48-.42-.59-.31-.49.47-.55.3-.55.3-.58.26-.54.32-.52.36-.54.33-.52.35-.58.27-.53.33-.55.3-.49.41-.63.17-.5.4-.52.35-.54.32-.58.26-.54.33-1.04.71-.56.3-.51.38-.56.31.26-.57.41-.47.2-.59.36-.49.34-.52.3-.54.28-.55.23-.58.36-.5.36-.5.13-.63.43-.46.36-.51.26-.56.34-.51.27-.56.32-.53.33-.52.23-.57.36-.51.19-.59.23-.58.34-.48-.19-.57-.27-.56-.33-.53-.63-1.07-.27-.56-.4-.49-.22-.59-.39-.49-.33-.52-.32-.53-.21-.59-.34-.52-.31-.54-.24-.58-.41-.48-.33-.53-.3-.54-.15-.63-.33-.53-.47-.44-.13-.65-.32-.43.47.24.57.24.46.44.59.21.48.4.56.26.49.39.56.26.57.26.54.31.53.33.54.31.53.32.57.24.54.3.52.35.51.35.57.25.55.29.49.39.53.33.6.19.52.27Z"/>
  <path class="cls-11" d="M262.1,330.52c-.08,0-.16-.03-.22-.09-.11-.1-.14-.25-.08-.39l.26-.56s.03-.05.05-.08l.36-.43.18-.53s.03-.07.05-.09l.37-.49.33-.5.56-1.05.22-.55s.02-.05.04-.07l.68-.94.12-.56c.01-.06.04-.11.08-.16l.41-.45.33-.46.25-.53s.02-.03.02-.04l.33-.49.26-.54s0-.02.02-.03l.32-.53.33-.49.22-.55s.02-.05.04-.07l.33-.46.18-.55.24-.6s.02-.04.04-.06l.24-.34-.13-.39-.27-.54-.31-.5-.63-1.08-.26-.55-.37-.46s-.04-.06-.05-.09l-.2-.54-.36-.45s-.02-.02-.02-.03l-.33-.53-.33-.54s-.02-.04-.03-.06l-.2-.56-.32-.48-.32-.56s-.01-.03-.02-.04l-.22-.53-.38-.44s-.02-.02-.03-.04l-.33-.53-.31-.56s-.03-.06-.03-.09l-.14-.58-.28-.44-.44-.41c-.05-.05-.09-.11-.1-.18l-.11-.57-.28-.37c-.09-.13-.08-.3.02-.42.1-.11.27-.15.41-.07l.47.24.55.23s.07.04.1.06l.41.39.53.19s.07.04.1.06l.45.38.53.24s.04.03.06.04l.46.36,1.1.51.56.32.54.33,1.04.62.55.23s.02.01.03.01l.54.3,1.03.7.54.24.57.29s.04.03.05.04l.48.39.47.3.56.18s.03.02.05.02l.4.2.36-.1.39-.38s.09-.07.15-.08l.52-.14.36-.41s.08-.07.13-.09l.57-.23.55-.19.43-.37.52-.39s.03-.02.04-.03l1.09-.59.52-.3s.04-.02.06-.03l.52-.19.39-.41s.07-.06.12-.08l.55-.22.5-.31.56-.31.53-.26.43-.4s.04-.03.06-.05l.55-.29.51-.32s.05-.03.07-.04l.52-.16.36-.43s.09-.08.15-.1l.53-.18c.11-.04.25-.01.33.08.09.08.13.21.09.33l-.16.54c-.02.05-.05.1-.09.14l-.42.41-.26.5-.59,1.07-.21.57s-.04.08-.07.11l-.38.41-.15.54s-.04.08-.06.11l-.36.46-.22.53-.29.58s-.05.07-.08.1l-.41.36-.11.53s-.03.08-.05.11l-.35.51-.38.49-.27.49-.18.58s-.02.06-.04.08l-.34.52-.3.52-.25.54s-.03.05-.05.08l-.39.44-.26.52s-.02.04-.04.06l-.28.37.21.41.28.49.43.43s.07.09.09.16l.14.56.36.44s.04.06.06.1l.2.56.31.47.42.46s.05.07.07.12l.2.58.27.52.35.49s.04.06.05.09l.17.54.4.42s.03.03.04.05l.34.53s.03.06.04.09l.16.58.3.51s.02.03.02.04l.22.53.41.43s.06.08.08.14l.16.57.34.46s.03.05.04.07l.22.55.3.39c.08.12.09.28,0,.39-.08.12-.23.17-.37.13l-.51-.17s-.04-.01-.06-.03l-.55-.3-1.05-.7-.55-.27s-.03-.02-.05-.03l-.48-.35-.54-.27s-.03-.02-.05-.03l-.52-.35-.52-.3s-.04-.03-.05-.04l-.43-.38-.54-.19s-.07-.03-.09-.05l-.5-.39-.49-.36-.48-.31-.56-.21s-.04-.02-.05-.03l-.54-.32-.49-.35-.56-.2s-.06-.03-.09-.05l-.5-.39-.51-.33s-.02-.02-.03-.03l-.45-.39-.35-.18-.32.31s-.05.04-.07.05l-1.1.6-.58.26-.53.31-.49.35-.55.34-.51.34s-.03.02-.05.03l-.56.26-.52.32-.54.29-.46.39s-.08.06-.13.07l-.57.15-.44.35-.55.36-.56.33s-.02.02-.04.02l-.55.25-.52.32-1.04.7s-.02.02-.03.02l-.54.29-.49.36s-.02.02-.04.02l-.56.31c-.08.03-.14.05-.19.05ZM263.25,328.71l-.15.46.45-.24,1.03-.7.55-.34s.03-.02.04-.02l.56-.25.53-.31.51-.34.47-.38s.08-.05.12-.06l.56-.16.43-.36s.04-.03.05-.04l.56-.3.52-.32s.02-.01.04-.02l.55-.26.5-.33.54-.34.5-.35.56-.33s.03-.02.04-.02l.58-.26,1.04-.57.46-.44c.1-.1.26-.13.38-.06l.59.31s.05.03.06.04l.47.41.51.34.47.36.55.2s.06.02.08.04l.51.36.49.29.57.21s.04.02.06.03l.53.33.52.39.46.36.55.19s.08.04.11.07l.45.4.52.29.52.36.54.27s.04.02.05.03l.49.35.54.27s.03.01.04.02l1.13.74-.07-.16-.35-.48s-.05-.07-.06-.11l-.15-.55-.39-.42s-.05-.06-.06-.09l-.24-.56-.31-.53s-.03-.05-.03-.08l-.16-.58-.3-.46-.42-.45s-.06-.08-.08-.13l-.18-.57-.34-.47s-.02-.03-.03-.04l-.29-.56s-.01-.03-.02-.05l-.18-.54-.39-.43s-.03-.03-.04-.05l-.34-.53s-.03-.05-.03-.07l-.2-.54-.37-.45s-.05-.08-.07-.13l-.14-.54-.4-.4s-.04-.05-.06-.07l-.31-.55-.31-.61c-.06-.11-.04-.24.03-.35l.39-.5.26-.53s.03-.05.05-.07l.39-.44.24-.53.32-.56.33-.49.17-.56s.02-.04.03-.06l.3-.55s.02-.04.03-.05l.39-.49.3-.44.13-.58c.02-.07.05-.13.1-.18l.45-.39.24-.49.23-.56s.03-.06.05-.08l.35-.44.15-.55s.04-.09.08-.14l.39-.42.19-.53s.01-.03.02-.05l.77-1.41-.4.12-.49.31-.53.28-.43.4s-.05.04-.08.05l-.55.28-.53.29-.51.32s-.03.02-.05.03l-.52.2-.39.41s-.08.07-.13.08l-.56.2-.51.3-1.08.58-.48.36-.45.4s-.07.05-.11.06l-.59.21-.49.2-.38.42s-.1.08-.16.1l-.54.15-.4.38s-.09.07-.14.08l-.57.15c-.08.03-.16.02-.23-.02l-.49-.25-.58-.18s-.06-.02-.08-.04l-.53-.33s-.02-.02-.03-.02l-.46-.37-.52-.27-.55-.24s-.04-.02-.06-.03l-1.02-.7-.51-.28-.56-.23s-.03-.02-.04-.02l-2.13-1.27-1.1-.51s-.05-.03-.07-.04l-.46-.36-.53-.24s-.05-.03-.07-.05l-.44-.36-.54-.19s-.08-.04-.11-.07l-.42-.39-.15-.06.04.2.4.38s.04.04.06.07l.33.53s.03.06.04.1l.14.58.28.51.31.49.39.46s.04.06.06.09l.22.55.3.52.33.5s.03.05.04.07l.2.56.3.51.32.5.39.48s.04.06.05.09l.2.54.36.44s.03.05.04.07l.27.56.93,1.56.29.58s.02.03.02.05l.19.57c.04.1.02.21-.04.29l-.31.45-.22.54-.19.58s-.03.06-.04.08l-.34.47-.21.54s-.02.04-.03.06l-.34.52-.3.5-.26.54s-.02.03-.02.05l-.33.49-.25.53s-.02.04-.03.05l-.36.51-.03.03-.37.4-.11.55s-.03.08-.06.13l-.7.97-.21.54-.3.57-.3.55-.36.54-.35.47Z"/>
  <g class="cls-7">
    <path class="cls-2" d="M270.71,313.82l.32-.5.06-.62.24-.57v-.63s.26-.57.26-.57l.11-.61.41-1.17.16-.6.02-.63.21-.58.2-.58.06-.63.27-.57-.03-.64.32-.56.22-1.22.07-.61.29-.56.13-.61.03-.63.26-.62.21.63.23.58.17.59.09.61.13.61.14.6.17.6.19.59.24.58.04.63.29.56.14.6.14.61.11.61.29.56.05.63.23.58.09.62.19.59.17.6.21.59.16.6.06.67.64.19h.65s.56.34.56.34l.65.03.56.34.66-.02.58.27.57.29.64.07.63.11.6.19.6.2.61.18.57.28h.66s.58.27.58.27l.61.17.6.19.6.21.64.05.6.2.64.19-.67.05-.55.36-.65-.02-.56.33-.65-.03-.6.18-1.21.32-.58.26h-.64s-.57.32-.57.32l-.63.06-.59.23-.6.18-.66-.05-.56.34-.62.11-.63.06-.6.17-.58.29-.62.11-.58.14-.09.59-.28.58-.11.62-.24.58-.18.6-.15.61.03.65-.32.57-.04.64-.26.58-.11.62v.65s-.27.58-.27.58l-.17.6-.08.63-.28.58v.65l-.11.62-.31.57-.14.61-.22.59v.65l-.21.5-.14-.5-.09-.61-.16-.59-.35-.54-.19-.58-.14-.6-.13-.6-.21-.58-.11-.61-.21-.58-.14-.62-.18-.59-.05-.63-.3-.56-.09-.61-.1-.61-.15-.6-.27-.56-.17-.59-.11-.61-.28-.56-.09-.61-.14-.6-.56-.27-.61-.14h-.64s-.59-.21-.59-.21l-.59-.19-.58-.24-.6-.17-.61-.12-.6-.16-.61-.13-.58-.23-.6-.16-.59-.19-.63-.07-.55-.34-.63-.09-.6-.14-.6-.17-.58-.24-.6-.16-.61-.14-.61-.14-.57-.16.56-.19.6-.14.58-.21.63-.05.57-.28.62-.08.61-.11.6-.17.59-.18.57-.24.62-.09.61-.1.55-.35.64-.02.62-.1.58-.21.61-.11.59-.2.6-.15.61-.13.58-.24.63-.11.51-.31Z"/>
  </g>
  <g class="cls-9">
    <path class="cls-11" d="M274.55,335.29h-.02c-.14-.01-.26-.1-.3-.24l-.14-.5s0-.03,0-.04l-.09-.59-.14-.52-.33-.49s-.03-.05-.04-.08l-.19-.59-.27-1.2-.21-.56s-.01-.04-.01-.05l-.11-.58-.2-.55s-.01-.03-.01-.05l-.13-.6-.17-.56s-.01-.05-.02-.07l-.04-.56-.26-.49s-.03-.07-.04-.1l-.09-.61-.1-.6-.14-.54-.26-.53s-.02-.04-.02-.06l-.17-.59-.11-.58-.27-.52s-.03-.06-.03-.1l-.1-.61-.09-.42-.39-.19-.54-.12h-.6s-.07-.02-.1-.02l-1.18-.39-.59-.24-.57-.17-.58-.11-.63-.16-.59-.13s-.04-.01-.06-.02l-.56-.22-.58-.16-.57-.19-.59-.06c-.05,0-.1-.02-.14-.05l-.49-.3-.55-.07-.64-.15-.61-.17s-.03,0-.04-.01l-.56-.23-.58-.15-1.21-.27-.59-.17c-.14-.04-.23-.17-.24-.31,0-.15.09-.28.23-.32l.56-.18.61-.15.57-.21s.05-.02.08-.02l.56-.05.51-.24s.07-.03.1-.03l.62-.08.59-.11.57-.16.58-.18.55-.23s.05-.02.08-.02l1.16-.18.49-.31s.1-.05.17-.05l.61-.03.56-.09.56-.2s.03-.01.05-.01l.58-.11.56-.2s.02,0,.04-.01l.6-.15.59-.12.55-.23s.05-.02.07-.02l.56-.09.38-.24.24-.37.05-.54s.01-.06.03-.09l.21-.52v-.57s.02-.09.04-.13l.23-.54.11-.57s.01-.03.02-.05l.4-1.17.14-.54.02-.59s.01-.07.02-.1l.4-1.13.05-.58s.01-.08.03-.11l.23-.49-.02-.56c0-.06.02-.13.04-.18l.29-.51.21-1.16.07-.6s.02-.08.03-.11l.27-.52.11-.54.03-.6s.01-.08.03-.12l.26-.61c.05-.13.19-.21.32-.2.14,0,.26.09.3.23l.2.63.23.56s.01.02.01.04l.16.59s.01.03.01.04l.09.61.26,1.19.17.57.18.58.23.55s.02.07.03.11l.03.56.26.5s.03.05.03.08l.28,1.21.1.57.27.52s.03.08.04.13l.05.58.22.53s.02.05.02.07l.09.59.18.57.17.61.21.56.17.63s.01.04.01.06l.04.44.38.11h.61c.06,0,.11.02.17.05l.48.29.56.03c.06,0,.11.02.16.05l.48.29.56-.02s.09.01.14.03l.58.26.54.27.58.06.65.11s.03,0,.05.01l1.2.39.59.18s.04.01.05.02l.51.24h.58s.09.02.14.04l.55.26.58.15.62.19.56.2.6.04.08.02.6.2.63.18c.15.05.25.2.23.35-.02.16-.15.28-.31.3l-.58.04-.48.31c-.06.04-.13.06-.19.06l-.56-.02-.48.28c-.05.03-.11.05-.18.05l-.6-.02-.55.17-1.19.32-.56.24s-.08.03-.13.03h-.57s-.5.28-.5.28c-.04.02-.08.03-.13.04l-.59.06-.55.21-.62.19s-.08.02-.13.02l-.55-.05-.47.29s-.07.04-.12.04l-.62.11-.63.06-.55.15-.55.28s-.06.02-.09.03l-.62.11-.35.08-.06.38s-.01.06-.03.09l-.26.54-.1.57s-.02.05-.02.07l-.24.57-.17.59-.14.55.03.6c0,.06-.02.12-.04.18l-.29.5-.04.56s-.02.08-.03.11l-.24.55-.1.56v.62s-.02.09-.04.13l-.26.56-.16.56-.08.6s-.01.07-.03.1l-.24.51v.57s0,.04-.01.06l-.11.62s-.02.06-.03.09l-.29.53-.13.57s0,.03-.01.04l-.2.54v.59s0,.09-.03.13l-.21.5c-.05.11-.18.19-.31.19ZM274.12,332.57l.33.5s.04.06.05.1l.07.25.11-.3.14-.59s.02-.06.03-.08l.28-.53.1-.54v-.61c0-.05.01-.1.04-.15l.26-.54.07-.57s.01-.03.01-.05l.17-.61s.01-.03.02-.04l.23-.52v-.58s.02-.04.02-.05l.11-.62s.01-.05.02-.07l.23-.53.04-.58c0-.05.02-.1.04-.14l.28-.48-.02-.56s0-.06.01-.09l.15-.61.18-.62s.01-.03.01-.04l.23-.55.1-.58s.02-.06.03-.08l.26-.53.08-.55c.02-.13.12-.24.26-.27l.58-.14.59-.1.54-.27s.04-.02.06-.03l.6-.17s.04-.01.06-.01l.63-.06.54-.09.5-.31c.06-.04.14-.05.2-.05l.6.05.54-.16.57-.22s.05-.02.09-.02l.57-.05.51-.28s.09-.04.15-.04h.58s.52-.24.52-.24c.02,0,.03-.02.05-.02l1.21-.32.58-.18s.07-.02.11-.01l.56.02.48-.28c.06-.03.12-.04.18-.04h.55s.14-.07.14-.07l-.13-.04-.6-.04s-.06-.01-.09-.02l-.6-.21-.59-.19-.59-.16s-.04-.01-.06-.02l-.51-.23h-.58c-.05,0-.1-.02-.14-.04l-.55-.27-.58-.17-1.19-.39-.6-.1-.61-.06s-.08-.02-.12-.04l-.57-.29-.49-.22h-.58c-.06.01-.13,0-.18-.03l-.48-.3-.56-.03c-.06,0-.11-.02-.16-.05l-.48-.29h-.56s-.06-.01-.09-.02l-.64-.18c-.13-.04-.22-.15-.23-.29l-.06-.64-.16-.58-.2-.56-.17-.62-.18-.58-.02-.05-.08-.58-.22-.54s-.02-.06-.03-.09l-.04-.56-.27-.51s-.03-.06-.03-.09l-.11-.61-.26-1.15-.28-.53s-.04-.08-.04-.14l-.04-.57-.22-.53-.2-.61-.17-.61-.27-1.23-.1-.61-.15-.56-.08-.19v.14s-.01.04-.01.05l-.13.6s-.02.06-.03.08l-.26.51-.07.56-.22,1.24s-.02.07-.04.1l-.27.48.02.55c0,.05-.01.1-.03.15l-.24.52-.05.57s0,.05-.02.08l-.4,1.13-.02.58s0,.05-.01.08l-.16.59-.4,1.17-.11.58s-.01.05-.02.07l-.22.51v.57s-.02.08-.03.13l-.22.53-.06.57c0,.06-.02.1-.05.15l-.32.5s-.06.07-.1.1l-.49.32s-.08.04-.13.05l-.58.1-.55.23s-.04.02-.06.02l-.61.13-.58.14-.57.2s-.03.01-.05.02l-.59.11-.56.2s-.04.01-.06.02l-.61.09s-.03,0-.04,0l-.55.02-.47.3s-.08.04-.13.04l-1.2.19-.54.22-.62.2-.6.17-.64.12-.58.08-.52.26s-.08.03-.12.03l-.58.05-.54.19.59.13.61.16.05.02.56.23.58.16.59.14.59.08s.09.02.13.05l.49.3.55.06s.05,0,.07.02l.59.19.58.15s.03.01.04.02l.56.22.58.13.61.16.59.11.63.18s.03,0,.04.02l.58.24,1.11.36h.59s.05.01.07.02l.61.14s.05.02.07.02l.57.28c.09.04.16.13.18.22l.14.6.09.58.26.52s.02.06.03.09l.12.6.15.54.26.53s.02.05.02.07l.15.59.11.63.08.57.26.51s.04.08.04.13l.05.59.17.55.13.61.21.56s.01.04.01.05l.11.58.2.55s0,.03.01.04l.27,1.2.13.49Z"/>
  </g>
</svg>