<?xml version="1.0" encoding="UTF-8"?>
<svg id="Layer_12" xmlns="http://www.w3.org/2000/svg" xmlns:xlink="http://www.w3.org/1999/xlink" viewBox="0 0 538.59 494.63">
  <defs>
    <style>
      .cls-1 {
        fill: none;
      }

      .cls-2 {
        fill: #f4cf88;
      }

      .cls-3 {
        clip-path: url(#clippath-1);
      }

      .cls-4 {
        clip-path: url(#clippath-3);
      }

      .cls-5 {
        clip-path: url(#clippath-2);
      }

      .cls-6 {
        fill: #e44325;
      }

      .cls-7 {
        fill: #6c5c25;
      }

      .cls-8 {
        clip-path: url(#clippath);
      }

      .cls-9 {
        fill: #d46ba9;
      }
    </style>
    <clipPath id="clippath">
      <rect class="cls-1" x="291.82" y="181.81" width="41.33" height="48.23"/>
    </clipPath>
    <clipPath id="clippath-1">
      <rect class="cls-1" x="196.91" y="308.71" width="33.58" height="50.1"/>
    </clipPath>
    <clipPath id="clippath-2">
      <rect class="cls-1" x="306.49" y="208.71" width="56.42" height="22.67"/>
    </clipPath>
    <clipPath id="clippath-3">
      <rect class="cls-1" x="277.16" y="202.04" width="85.76" height="49.33"/>
    </clipPath>
  </defs>
  <path class="cls-7" d="M254,288.83l.58-.2.49-.48.67-.1.54-.38.59-.27.58-.29.58-.34.39-.55.4-.54.31-.6.29-1.3.03-.67.08-.66.06-.66.07-.66.07-.72-.58.45-.66.08-.63.14-.59.26-.64.1h-.65s-.63.11-.63.11l-.66.13-.61.27-.61.28-.64.21-.57.36-.59.33-.68.11-.57.37-.64.21-.64.23-.49.51-.61.28-.57.34-.63.26-.6.3-.58.35-.52.49-.66.29-.52.48-.66.3-.44.57-.6.38-.48.52-.47.52-.5.49-.51.49-.36.6-.4.55-.41.55-.33.59-.4.56-.26.64-.24.65-.35.58-.3.61-.42.55-.19.66-.27.63-.32.6-.17.66-.07.68-.16.66h-.04s-.06.67-.06.67l-.09.66.17.65-.04.68.34.6.16.64.26.61.24.61.16.66.22.64.49.49.34.57.28.61.41.52.65.04.67.13.66-.17.67-.03.67-.08.58-.38.63-.21.7-.02.56-.38.61-.27.56-.35.6-.3.56-.36.57-.36.58-.36.55-.4.41-.55.59-.38.42-.55.44-.52.3-.63.39-.56.44-.53.49-.49.26-.64.35-.59.16-.68.34-.59.36-.59.09-.69.24-.64.14-.67.17-.66.26-.64.08-.68.04-.68.15-.67-.05-.69.14-.69-.18-.67-.19-.66-.05-.68-.14-.64ZM248.18,302.86l-.43.58-.67.26-.67.29-.72-.15-.68-.13-.68-.18-.65-.29-.61-.35-.54-.46-.64-.36-.43-.58-.48-.54-.35-.63-.1-.71v-.69s-.01-.71-.01-.71l.3-.64.2-.69.39-.6.49-.52.58-.42.4-.6.56-.44.55-.43.63-.33.86-.47.65-.28.72.06.7-.19.69.2.65.26.69.2.59.39.47.53.45.55.08.71.1.67v.68s0,.69,0,.69l-.15.68-.21.67-.23.66-.31.63-.56.48-.22.68-.45.53-.52.47-.44.53Z"/>
  <path class="cls-7" d="M239.79,309.59s-.05,0-.08-.01l-.65-.12-.61-.04c-.12,0-.23-.07-.31-.17l-.41-.52s-.04-.05-.05-.09l-.27-.59-.3-.49-.46-.45s-.08-.1-.1-.16l-.22-.64s-.01-.03-.02-.04l-.15-.63-.23-.59-.26-.59s-.02-.05-.02-.07l-.14-.58-.31-.55c-.04-.07-.06-.15-.06-.24l.03-.61-.15-.59c-.02-.05-.02-.11-.01-.17l.09-.67.05-.64c0-.09.04-.17.09-.23l.12-.47.07-.65s.01-.04.01-.06l.18-.66s.02-.06.03-.09l.32-.61.24-.57.19-.64c.02-.05.04-.1.08-.15l.4-.51.28-.57.02-.03.33-.55.48-1.26s.03-.07.05-.09l.39-.54.31-.57s.02-.04.04-.05l.8-1.08.36-.59s.04-.06.07-.08l1.01-.98.94-1.02s.06-.05.09-.07l.54-.34.4-.51c.04-.06.1-.1.16-.13l.59-.27.47-.44s.07-.06.12-.08l.58-.26.46-.45s.05-.04.07-.06l.58-.35s.03-.02.04-.02l.6-.3.62-.26.55-.33s.03-.02.04-.02l.54-.25.43-.45c.05-.05.11-.08.17-.11l1.23-.42.52-.34s.1-.05.16-.06l.61-.1.52-.29.55-.35s.06-.03.1-.04l.61-.21,1.21-.54s.06-.03.09-.03l1.29-.24s.06,0,.09,0h.61s.54-.08.54-.08l.55-.23s.05-.02.08-.03l.62-.14s.03,0,.05,0l.54-.06.48-.38c.14-.1.32-.12.47-.04.15.08.24.24.22.42l-.28,2.7-.03.64s0,.05-.01.07l-.29,1.31s-.02.07-.04.1l-.31.6s-.02.04-.04.06l-.78,1.09s-.08.09-.14.13l-.58.34s-.03.01-.04.02l-.58.29-.57.25-.5.35c-.05.04-.12.06-.18.07l-.54.09-.39.39s-.1.08-.16.1l-.23.08.05.27s0,.03,0,.05l.05.64.35,1.29c.02.06.02.14.01.2l-.13.63.04.63s0,.08-.01.12l-.14.64-.04.65-.08.7s-.02.08-.03.11l-.24.62-.17.63-.14.65s-.01.05-.02.07l-.22.59-.09.64c0,.06-.03.12-.06.17l-.36.59-.3.53-.14.61s-.03.09-.05.13l-.33.56-.24.61c-.02.06-.06.1-.09.15l-.48.48-.41.5-.35.52-.29.59s-.04.06-.06.09l-.44.52-.4.53s-.07.07-.11.1l-.52.34-.36.49s-.06.07-.09.09l-.55.4-1.73,1.1s-.03.02-.04.03l-.58.29-.55.34s-.04.02-.06.03l-.58.25-.53.36c-.07.04-.15.07-.24.07h-.64s-.51.18-.51.18l-.54.35c-.06.04-.11.06-.18.07l-.67.08s-.03,0-.04,0l-.63.03-.61.16s-.08.03-.12.03ZM238.7,308.57l.45.03s.04,0,.05.01l.58.11.56-.15s.06-.01.08-.02l.66-.03.55-.07.51-.33s.06-.04.1-.05l.63-.21s.09-.02.13-.02h.58s.46-.32.46-.32c.02-.01.05-.03.07-.04l.58-.26.54-.33s.03-.02.04-.02l.58-.29,1.7-1.08.47-.34.38-.51s.07-.08.11-.1l.53-.34.36-.48.42-.49.28-.58s.02-.04.03-.06l.39-.56s.02-.02.02-.03l.44-.53s.02-.02.03-.03l.43-.44.22-.56s.02-.04.03-.06l.32-.53.14-.61s.03-.08.05-.12l.34-.59.32-.52.08-.6s.01-.06.02-.09l.23-.6.14-.64.18-.68s.01-.03.02-.05l.23-.58.07-.62.04-.66s0-.04.01-.06l.13-.61-.04-.62s0-.08,0-.11l.13-.59-.34-1.22s-.02-.06-.02-.09l-.04-.66-.1-.61c-.04-.21.08-.42.29-.48l.48-.17.42-.41c.06-.07.15-.11.23-.13l.57-.09.45-.33s.05-.03.07-.04l.59-.27.56-.27.48-.29.71-.99.27-.52.27-1.21.03-.63.19-1.79h-.02l-.64.07-.56.13-.56.24s-.07.03-.1.03l-.64.1s-.05,0-.08,0h-.6s-1.2.22-1.2.22l-1.18.53s-.03.01-.04.02l-.59.19-.53.33-.6.34s-.09.04-.14.05l-.59.1-.49.32s-.07.04-.1.05l-1.17.4-.42.44s-.08.07-.13.09l-.59.27-.56.33s-.04.02-.06.03l-.63.26-.56.28-.52.32-.48.46s-.08.06-.13.08l-.59.27-.47.43s-.07.06-.11.07l-.56.26-.38.49s-.07.08-.12.1l-.55.34-.91.99-.99.96-.33.56s-.02.02-.02.03l-.8,1.08-.31.57-.03.05-.36.51-.48,1.23s-.02.05-.04.07l-.34.56-.3.59s-.03.05-.04.07l-.38.48-.17.58-.02.05-.27.63-.3.59-.16.58-.07.64s0,.04-.01.06l-.16.66s-.03.08-.05.11l-.04.48-.08.6.15.57s.02.09.02.14l-.03.55.28.49s.04.07.04.11l.15.6.24.57.25.63s.01.04.02.06l.15.64.18.52.42.42s.05.06.06.08l.35.56s.02.04.03.05l.25.56.25.33ZM246.42,304.43s-.06,0-.09-.01l-1.39-.28-.71-.19s-.04-.02-.06-.03l-.65-.28s-.03-.02-.04-.02l-.61-.35s-.05-.03-.07-.05l-.51-.44-.6-.34c-.05-.03-.1-.07-.14-.12l-.42-.56-.47-.53s-.04-.05-.06-.07l-.35-.63s-.04-.09-.05-.15l-.1-.71s0-.05,0-.07v-.69s0-.7,0-.7c0-.07.02-.13.04-.19l.29-.61.19-.66s.03-.08.06-.11l.39-.6s.03-.04.05-.06l.49-.52s.04-.04.06-.05l.52-.38.36-.54s.05-.07.09-.1l1.11-.86s.04-.04.06-.05l.63-.33.85-.47s.03-.02.04-.02l.65-.28c.07-.03.14-.04.21-.03l.64.05.63-.17c.08-.02.16-.02.23,0l.69.2s.03,0,.04.01l.64.25.67.2s.08.03.12.05l.59.4s.06.04.08.07l.47.53.46.56c.05.07.09.15.09.23l.08.71.1.66v.74s0,.7,0,.7c0,.03,0,.06-.01.08l-.15.68s0,.03-.01.04l-.21.67-.23.68s-.02.04-.02.05l-.31.63c-.03.05-.07.1-.11.14l-.47.4-.19.56c-.02.05-.05.1-.08.15l-.45.53s-.03.03-.04.04l-.5.45-.41.49-.41.57c-.05.07-.11.12-.19.15l-.67.26-.65.28c-.05.03-.11.04-.17.04ZM244.49,303.12l.65.18,1.24.24.54-.23.56-.22.35-.48s.01-.02.02-.03l.44-.53s.03-.03.04-.04l.5-.46.39-.44.2-.6c.02-.07.07-.14.13-.19l.49-.42.26-.52.22-.64.2-.63.14-.63.02-.65v-.64s-.1-.64-.1-.64l-.07-.6-.37-.45-.43-.47-.49-.33-.63-.18s-.03,0-.04-.01l-.64-.25-.55-.16-.59.16c-.05.02-.1.02-.15.02l-.61-.05-.53.22-1.44.78-1.03.8-.36.54s-.07.08-.11.11l-.55.39-.43.46-.33.52-.19.63s-.02.04-.03.06l-.26.55v.61s0,.67,0,.67l.09.6.29.52.45.5s.02.02.03.03l.38.51.56.31s.05.04.07.05l.51.44.56.32.61.26Z"/>
  <path class="cls-7" d="M306.05,220.35l-.59.39-.52.47-.67.27-.47.56-.58.39-.66.28-.56.42-.56.43-.63.32-.46.57-.59.39-.64.31-.57.41-.63.32-.54.46-.64.3-.54.47-.68.24-.58.4-.5.52-.69.21-.51.51-.56.23.42-.44.42-.57.39-.6.46-.53.45-.55.5-.51.4-.59.53-.48.33-.64.61-.42.43-.56.32-.66.58-.44.43-.57.33-.61.51-.48.43-.54.36-.59.48-.5.26-.67.48-.49.42-.55.41-.56.39-.57.57-.43.3-.64.49-.49.33-.62.55-.44.44-.54.4-.56.41-.56.4-.56.46-.52.29-.65.47-.51.37-.58.43-.55.51-.48.46-.52.33-.63.48-.5.32-.63.42-.55.47-.52.54-.46.3-.65.45-.53.42-.55.49-.49.45-.53.33-.61.55-.45.28-.66.51-.48.47-.51.33-.62.41-.56.45-.52.38-.58.58-.42.44-.53.43-.53.38-.59.41-.56.42-.56.39-.58.43-.54.63-.39.3-.66.49-.5.54-.46.41-.56.49-.5.29-.67.61-.4.39-.6.48-.5.48-.51.52-.47.44-.56.53-.46.53-.46.47-.52.52-.47.48-.51.57-.41.65-.3.68.11-.08.64-.06.7-.45.54-.36.58-.23.65-.34.59-.41.55-.28.63-.46.52-.7,1.17-.42.54-.3.62-.33.6-.53.46-.31.62-.46.51-.45.51-.2.69-.42.53-.38.57-.47.5-.44.52-.4.56-.29.63-.5.48-.32.6-.53.46-.26.66-.48.49-.36.58-.39.57-.44.53-.48.49-.38.57-.45.52-.46.51-.38.57-.45.51-.65,1.23-.43.53-.4.56-.52.46-.33.6-.42.54-.48.49-.39.56-.35.59-.46.51-.45.52-.42.55-.48.48-.32.62-.52.45-.26.66-.44.52-.39.56-.42.53-.51.47-.46.52-.21.68-.36.57-.45.52-.33.6-.36.58-.49.49-.29.63Z"/>
  <g class="cls-8">
    <path class="cls-7" d="M292.71,229.64c-.15,0-.28-.07-.36-.19-.11-.17-.09-.4.04-.54l.4-.42.4-.56.38-.58s.03-.03.04-.05l.46-.53.44-.54s.02-.02.03-.03l.47-.48.38-.56s.04-.06.07-.08l.48-.43.3-.57c.03-.06.08-.11.14-.16l.55-.38.36-.47.3-.61c.03-.06.08-.12.13-.16l.53-.4.37-.49.32-.59s.05-.08.08-.11l.48-.46.4-.49.34-.57s.04-.05.06-.07l.42-.44.23-.58c.02-.05.05-.1.09-.15l.47-.47.8-1.08.38-.56s.06-.07.1-.1l.48-.36.26-.54s.05-.08.08-.12l.45-.45.3-.56c.03-.05.07-.1.11-.14l.52-.42.41-.49,1.19-1.66s.02-.02.03-.03l.41-.47.26-.59s.05-.09.08-.12l.45-.47.35-.55s.02-.02.02-.03l.42-.55s.03-.04.04-.05l.51-.48.41-.45.3-.58s.04-.07.07-.1l.44-.45.29-.57s.03-.05.04-.07l.42-.55s.02-.02.03-.03l.47-.52s.03-.02.04-.03l.46-.41.26-.56s.04-.07.06-.1l.45-.53.41-.53s.03-.03.04-.04l.49-.49.4-.46.31-.57s.07-.09.11-.13l.46-.38.23-.56c.03-.06.06-.1.1-.15l.51-.48.41-.45.31-.57s.02-.04.03-.05l.41-.56s.02-.02.03-.03l.44-.49.35-.56s.07-.08.11-.11l.54-.39.82-.99.36-.57.84-1.15.39-.57.45-.57s.07-.08.11-.1l.52-.32.25-.54s.05-.09.08-.13l.49-.49s.02-.02.03-.03l.5-.43.38-.52s.03-.04.04-.05l.44-.44.26-.6c.03-.08.09-.15.16-.19l.53-.34.33-.52s.04-.05.05-.07l.97-1,.52-.47.41-.53s.04-.04.06-.06l1.04-.9.45-.51s.02-.02.03-.03l.52-.47.47-.49s.04-.04.06-.05l.57-.41s.05-.03.07-.04l.65-.31c.08-.03.17-.05.25-.03l.69.11c.23.04.39.24.36.48l-.08.64-.06.69c0,.09-.04.17-.1.24l-.43.52-.32.51-.21.6s-.02.05-.03.07l-.34.59s-.02.03-.03.04l-.38.51-.25.59s-.05.08-.08.12l-.43.48-.68,1.14s-.02.03-.03.04l-.39.5-.27.58-.34.63s-.06.08-.1.11l-.46.41-.27.54s-.04.07-.07.1l-.85.94-.17.6c-.01.05-.04.1-.07.14l-.41.53-.36.55s-.03.04-.04.06l-.46.51-.43.51-.35.49-.27.6s-.05.09-.09.13l-.45.43-.29.55s-.06.08-.1.12l-.44.4-.22.56c-.02.05-.05.1-.09.15l-.45.45-.33.54-.39.58s-.02.03-.03.04l-.45.52-.47.49-.36.54s-.02.03-.03.04l-.89,1.01-.36.55-.03.05-.42.47-.63,1.18s-.03.05-.05.07l-.43.53-.38.54s-.05.05-.07.07l-.46.42-.29.53s-.03.04-.04.06l-.42.54-.04.04-.46.47-.36.52-.34.57s-.03.05-.05.07l-.9,1.02-.4.52s-.02.03-.04.04l-.44.44-.29.56s-.06.09-.1.13l-.45.39-.22.56s-.04.08-.07.13l-.43.5-.37.55-.45.55s-.02.03-.04.04l-.49.46-.38.43-.18.59s-.03.07-.05.1l-.36.58s-.03.04-.04.05l-.42.48-.3.56-.38.6s-.03.05-.06.08l-.44.44-.25.56c-.03.07-.09.14-.16.18l-.56.37-.49.45s-.08.06-.13.08l-.57.23-.4.47s-.05.06-.09.08l-.58.4s-.05.03-.08.04l-.61.26-.52.39-.55.42s-.04.03-.06.04l-.54.29-.41.5s-.06.07-.1.09l-.59.39-.05.03-.6.29-.54.39s-.04.03-.06.04l-.58.29-.49.43s-.07.04-.1.06l-.58.28-.49.43s-.09.06-.14.08l-.63.22-.49.34-.47.48c-.05.06-.11.09-.18.11l-.59.18-.43.43s-.09.07-.14.09l-.56.23c-.07.03-.13.04-.18.04ZM295.17,226.8l-.58.7.06-.07s.04-.04.06-.05l.58-.4s.06-.04.1-.05l.6-.22.47-.41s.06-.05.1-.07l.59-.28.49-.42s.06-.05.09-.06l.6-.3.55-.39s.04-.03.06-.04l.61-.29.51-.33.42-.52s.09-.08.14-.11l.59-.31.53-.41.57-.42s.05-.04.09-.05l.62-.26.49-.33.43-.51c.05-.05.1-.09.17-.13l.6-.23.46-.42s.04-.03.05-.04l.48-.32.23-.52s.05-.09.09-.13l.45-.46.34-.54.31-.58s.04-.05.06-.07l.43-.49.32-.5.19-.62c.02-.06.05-.11.09-.16l.45-.52s.02-.02.03-.03l.48-.45.41-.51.37-.53s.02-.03.03-.04l.4-.46.23-.59c.02-.06.07-.13.12-.17l.46-.4.28-.54s.05-.08.08-.11l.47-.47.4-.52.9-1.02.33-.56s.02-.02.02-.03l.4-.56s.03-.04.04-.05l.47-.47.38-.49.32-.58s.05-.08.09-.11l.48-.43.36-.52.42-.52.62-1.19s.04-.06.06-.09l.43-.49.36-.55s.03-.03.04-.05l.88-1,.37-.55s.03-.04.05-.06l.48-.49.41-.48.36-.55.35-.57s.04-.06.06-.08l.43-.43.23-.57c.02-.06.06-.12.11-.16l.46-.41.29-.54s.05-.08.08-.11l.44-.42.26-.56s.03-.05.04-.08l.4-.55.46-.55.46-.49.35-.54s.02-.02.02-.03l.37-.47.18-.61c.02-.06.05-.12.09-.17l.88-.97.28-.56s.06-.09.1-.14l.47-.41.3-.53.28-.6s.03-.05.05-.08l.4-.52.69-1.15s.03-.05.05-.07l.41-.46.24-.57s.03-.06.05-.09l.4-.53.31-.53.21-.61s.03-.06.04-.09l.36-.58s.02-.03.04-.05l.37-.44.08-.81-.14-.02-.48.23-.51.36-.46.48-.52.47-.45.51s-.03.03-.04.04l-1.04.89-.4.52s-.04.04-.06.06l-.52.47-.92.96-.36.56c-.03.05-.08.09-.13.13l-.49.33-.24.55c-.02.05-.05.1-.09.14l-.47.47-.4.54s-.04.05-.07.08l-.53.44-.43.43-.27.58c-.04.08-.09.15-.17.19l-.56.35-.38.48-.38.56-.84,1.14-.36.57s-.02.03-.03.04l-.88,1.06s-.05.05-.08.07l-.51.38-.33.52s-.03.03-.04.05l-.45.5-.38.52-.32.59s-.04.06-.06.09l-.47.51-.46.44-.24.58c-.03.06-.07.12-.13.16l-.48.4-.29.54s-.04.05-.06.08l-.45.52-.49.49-.41.53-.42.5-.27.59c-.03.06-.06.11-.11.15l-.52.44-.44.45-.39.51-.3.59s-.05.07-.07.11l-.44.45-.3.56s-.03.06-.06.09l-.46.52-.51.48-.39.51-.36.57s-.03.05-.05.07l-.42.45-.26.58s-.04.08-.07.11l-.44.51-1.19,1.66-.46.56s-.04.05-.06.06l-.48.39-.29.54s-.05.07-.07.1l-.44.44-.27.57c-.03.06-.07.12-.13.16l-.51.39-.35.52-.83,1.12s-.03.03-.04.04l-.43.43-.23.58c-.02.06-.05.1-.09.15l-.44.46-.34.55s-.02.03-.03.04l-.43.54s-.03.03-.04.05l-.46.43-.3.56s-.02.03-.03.05l-.43.56s-.05.07-.08.09l-.5.38-.27.56s-.03.05-.05.08l-.43.56s-.06.07-.1.09l-.52.36-.29.54s-.06.09-.09.12l-.49.45-.37.55s-.03.04-.05.06l-.48.51Z"/>
  </g>
  <path class="cls-7" d="M288.28,245.77l-.57.58-.42.57-.62.31-.62.3-.53.44-.58.36-.7.11-.58.36-.61.31h-.71s-.66.17-.66.17l-.63.29-.71.18-.17-.75-.25-.65-.22-.67.03-.7.03-.69.08-.7.24-.66.21-.67.51-.54.26-.69.47-.55.61-.41.52-.49.5-.47.6-.34.45-.56.59-.35.65-.26.6-.35.65-.27.56-.42.65-.26.55-.44.68-.21.58-.38.51-.5.69-.2.51-.51.68-.22.55-.43.55-.42.53-.46.57-.39.56-.42.57-.38.55-.51-.2.73v.71s-.35.63-.35.63l-.16.67-.04.72-.39.6-.23.66-.17.68-.4.58-.34.6-.29.64-.45.53-.26.68-.51.49-.45.53-.46.52-.46.53-.63.36-.39.6-.55.43-.4.59-.55.44Z"/>
  <path class="cls-7" d="M280.34,250.18c-.08,0-.16-.02-.23-.07-.1-.06-.17-.16-.2-.28l-.16-.71-.23-.61-.23-.68c-.02-.05-.03-.11-.02-.16l.06-1.4.08-.72s.01-.07.03-.1l.24-.66.2-.66c.02-.06.06-.12.1-.17l.44-.48.23-.61s.04-.09.07-.13l.47-.55s.05-.06.08-.08l.57-.4,1-.94s.05-.04.08-.06l.53-.3.4-.49s.07-.07.11-.1l.59-.36s.04-.02.07-.03l.61-.24.57-.33s.04-.02.05-.03l.6-.24.52-.39s.06-.05.1-.06l.59-.23.5-.4s.09-.06.14-.07l.63-.19.5-.32.47-.47c.06-.05.11-.09.19-.1l.58-.17.43-.43s.1-.08.17-.1l.6-.2,1.05-.81.51-.44s.03-.02.04-.03l.57-.39.53-.41.57-.38.53-.48c.14-.14.35-.16.52-.06.17.1.24.3.19.49l-.19.67v.65c0,.08-.01.15-.05.22l-.33.58-.14.58-.04.68c0,.07-.03.15-.07.21l-.36.56-.21.59-.17.66c-.02.05-.04.1-.06.14l-.39.56-.33.59-.28.6s-.04.06-.06.09l-.4.48-.23.61c-.02.06-.06.11-.1.16l-.49.47-1.37,1.57s-.07.06-.11.08l-.53.31-.33.51s-.06.07-.09.1l-.5.4-.36.53s-.05.07-.08.1l-.53.43-.54.54-.4.54c-.04.06-.09.1-.15.14l-1.2.58-.49.41-.05.03-.58.36s-.1.05-.16.06l-.61.1-.52.32-.64.33c-.06.03-.13.05-.19.05h-.66s-.57.15-.57.15l-.59.27s-.05.02-.08.02l-.71.18s-.05,0-.09,0ZM280.13,247.62l.2.59.24.63s.02.04.02.07l.07.32.24-.06.59-.27s.05-.02.08-.03l.66-.16s.06-.01.09-.01h.61s.53-.28.53-.28l.56-.35s.1-.05.16-.06l.61-.1.48-.3.51-.42s.06-.04.09-.06l1.14-.56.35-.48s.03-.03.04-.05l.58-.58.03-.03.5-.4.35-.53s.06-.07.09-.1l.49-.39.34-.54c.04-.06.09-.1.15-.14l.56-.33,1.32-1.52s.02-.02.03-.03l.43-.43.22-.59s.04-.09.07-.13l.42-.49.27-.58.36-.63s.01-.03.02-.04l.35-.52.15-.6s.01-.03.01-.04l.23-.65s.03-.06.05-.09l.33-.51.03-.6s0-.05.01-.08l.16-.67s.03-.08.05-.11l.3-.53v-.24l-.26.17-.53.4-.57.39-.51.44-1.11.87s-.08.06-.13.07l-.58.19-.43.43c-.06.05-.12.09-.19.11l-.59.17-.43.43s-.04.04-.07.05l-.58.38s-.07.04-.1.05l-.6.18-.49.39s-.07.05-.11.06l-.6.24-.52.38s-.06.04-.09.05l-.61.25-.57.34-.06.03-.61.24-.49.3-.4.51s-.08.08-.13.1l-.55.31-.97.92s-.04.03-.06.05l-.56.38-.39.45-.23.62c-.02.05-.05.1-.09.14l-.44.47-.18.58-.23.63-.07.65-.05,1.3Z"/>
  <path class="cls-7" d="M280.47,249.7l-.76-.05-.67.07-.68-.06-.66.12-.68-.03-.66.18-.64.12.42-.48.29-.63.52-.45.49-.47.33-.59.38-.57.56-.42.33-.6.35-.59.58-.4.26-.52-.16.59-.14.68-.31.66v.71l.14.7.06.7.22.67.42.66Z"/>
  <path class="cls-7" d="M275.72,250.5c-.15,0-.3-.08-.38-.22-.09-.16-.07-.36.05-.51l.38-.43.27-.57c.03-.05.06-.1.1-.15l.52-.45.43-.42.3-.54.4-.59s.07-.08.1-.11l.48-.35.29-.52.36-.6c.03-.05.07-.1.13-.14l.48-.34.21-.42c.1-.19.33-.29.54-.21.21.08.32.31.27.52l-.17.59-.13.65s-.02.07-.03.1l-.28.57v.57l.14.65s0,.03,0,.05l.05.65.19.57.39.61c.09.14.09.31,0,.45-.08.15-.23.22-.4.21l-.73-.05-.64.06s-.05,0-.08,0l-.61-.05-.61.11s-.06.01-.09.01l-.61-.02-.59.17-.67.13s-.05.01-.08.01ZM276.79,249.22l-.08.17.19-.05s.09-.02.13-.02l.64.03.62-.11s.07,0,.11,0l.64.05.62-.06-.02-.05-.22-.67s-.02-.07-.02-.1l-.05-.68-.14-.67s-.02-.06-.02-.09v-.49l-.09.18c-.03.05-.07.1-.13.14l-.5.37-.33.5-.31.57s-.05.08-.08.1l-.49.47-.46.4Z"/>
  <path class="cls-7" d="M278.92,255.67l-.71.17-.71-.21-.71.03-.71-.1-.7-.15-.71-.04-.71-.05-.72-.03-.71-.03-.71.09-.68.16-.71.11.03.11-.73.39.05-.61.17-.7.16-.7.49-.55.2-.72.53-.49.49-.53.63-.35.58-.43.69-.21.63-.33.69-.19.69-.18.63-.3h.69s.68.02.68.02l.66-.17.67-.1.67.17.67-.1.65-.21.71.04.67-.16.61-.33.62-.29.7-.07.6-.32.56-.4.64-.28.56-.38.52-.45.52-.41.16.66-.21.68.02.71-.25.66-.43.56-.33.61-.36.59-.49.49-.3.67-.49.5-.58.4-.52.47-.61.35-.53.46-.65.27-.57.41-.7.13-.64.26-.63.35-.7.04Z"/>
  <path class="cls-7" d="M269.72,256.56c-.09,0-.17-.02-.24-.07-.13-.09-.2-.24-.19-.4l.05-.61s0-.05.01-.07l.32-1.39c.02-.07.05-.14.1-.19l.42-.47.18-.62c.02-.08.06-.15.12-.2l.53-.49.47-.51s.06-.06.1-.08l.6-.34.56-.41s.08-.05.13-.07l.65-.2.6-.31s.06-.03.08-.04l1.34-.36.59-.28c.06-.03.12-.04.19-.05l1.31.02.6-.16s.03,0,.05-.01l.67-.09c.06,0,.11,0,.17,0l.59.15.55-.08.61-.2c.05-.02.11-.02.16-.02l.64.04.55-.13.56-.31.65-.3s.09-.03.14-.04l.62-.06.51-.27.54-.38s.05-.04.08-.05l.59-.26.51-.35.49-.43.53-.43c.12-.09.27-.12.41-.07.14.05.24.16.28.31l.17.66c.02.08.01.16-.01.23l-.19.61.02.64c0,.06-.01.11-.03.17l-.24.66s-.04.08-.06.11l-.42.53-.31.57-.36.61s-.04.06-.06.08l-.43.44-.27.59s-.06.09-.09.13l-.49.5-.06.05-.56.39-.5.44s-.05.04-.07.06l-.57.33-.5.43s-.07.06-.11.07l-.6.26-.53.38c-.05.04-.11.07-.17.08l-.66.12-.57.23-.6.34c-.06.03-.13.05-.19.05l-.67.03-.67.17c-.07.02-.15.02-.22-.01l-.64-.19-.65.03s-.06,0-.08,0l-.71-.1-.69-.15-.68-.04-.73-.06-1.38-.05-.65.08-.66.16-.44.07s-.08.08-.14.11l-.73.38c-.07.04-.15.05-.21.05ZM277.5,255.19s.09.01.13.02l.6.18.6-.14s.05-.01.08-.01l.6-.03.54-.3.04-.02.64-.26s.05-.02.08-.03l.6-.11.49-.36s.05-.04.08-.05l.58-.24.47-.42s.04-.04.07-.05l.57-.33.49-.43s.03-.03.04-.03l.55-.38.41-.41.27-.59s.05-.09.09-.13l.45-.46.33-.55.32-.59s.03-.04.04-.06l.4-.51.19-.51-.02-.63c0-.05,0-.1.02-.15l.11-.37-.4.35s-.03.02-.04.03l-.57.38s-.04.03-.07.04l-.59.26-.53.37s-.04.02-.05.03l-.61.32s-.1.04-.15.05l-.64.06-.55.26-.58.32s-.07.03-.11.04l-.66.16s-.08.02-.13.01l-.63-.04-.57.18s-.04.02-.07.02l-.67.1c-.06.01-.11.01-.17,0l-.59-.15-.56.08-.64.17s-.08.02-.12.02l-1.27-.02-.54.26s-.05.02-.07.03l-1.33.36-.59.31s-.04.02-.07.03l-.62.19-.52.38s-.03.02-.04.03l-.57.32-.44.48-.46.43-.17.6c-.02.06-.05.12-.09.17l-.42.47-.21.9s.04-.01.06-.01l.71-.12.65-.16s.03-.01.04-.01l.7-.09s.05,0,.07,0l1.43.05.73.05.71.04s.04,0,.06.01l.7.15.64.09.68-.04s.02,0,.02,0Z"/>
  <path class="cls-7" d="M270.23,271.89l.33-.6.18-.67.47-.54.2-.66.3-.61.33-.6.22-.65.26-.64.25-.64.29-.62.24-.64.27-.64.43-.55.2-.67.46-.54.19-.67.33-.6.24-.65.5-.51.14-.71.42-.55.31-.61.44-.53.33-.6.5-.48.39-.56.52-.5-.74.04-.72.15-.71-.18-.7-.18-.72.02-.72-.04-.69-.26-.73.06-.71.08-.73-.16-.72.13-.62.4.03.06-.63.34-.45.52-.41.56-.53.44-.46.51-.43.54-.49.48-.4.57-.58.41-.3.65-.44.53-.54.46-.39.57-.35.59-.45.54-.17.7-.33.6-.37.58-.2.65-.32.6-.28.62-.52.45-.42.54-.63.29-.54.4-.48.5-.68.18-.51.47-.68.17-.56.39-.56.38-.54.42-.57.35-.53.42-.53.42-.37.56-.41.54-.03.68-.23.66.12.69.41.56.28.64.56.42.66.21.61.32.66.16.68.03.67.13.68-.18.67.07.68-.05.67-.08.66-.11.54.11.49-.23.7-.04.66-.27.71-.02.67-.2.64-.3.62-.32.59-.38.59-.37.42-.58.53-.44.4-.57.41-.56.46-.53.39-.58.23-.67ZM261.18,272.76l-.46-.51v-.65s.34-.52.34-.52l.46-.47.55-.38.45-.51.48-.47.47-.46.44-.49.4-.53.39-.59.53-.47.52-.47.54-.47.66-.29.64-.34.71-.13.72-.09.72.05.57.44.39.54.26.67-.05.71-.09.7-.13.7-.42.59-.27.66-.51.49-.54.45-.5.49-.6.37-.63.31-.63.31-1.31.48-.68.16-.69.09-.69.05h-.7s-.7-.1-.7-.1l-.63-.34Z"/>
  <path class="cls-7" d="M257.85,278.61s-.05,0-.08-.01l-.64-.12-.65-.02s-.06,0-.09-.02l-.67-.16s-.07-.03-.1-.04l-.57-.3-.61-.2s-.09-.04-.13-.06l-.56-.42c-.06-.05-.11-.1-.14-.18l-.26-.59-.39-.52c-.04-.05-.07-.11-.08-.18l-.12-.69c-.02-.07-.01-.15.02-.22l.21-.6.03-.61c0-.09.04-.17.09-.24l.41-.54.35-.54s.06-.07.09-.1l1.06-.83s.03-.02.04-.03l.55-.34.52-.41,1.15-.78s.09-.05.14-.06l.57-.15.43-.4c.05-.05.12-.08.19-.1l.56-.15.4-.41s.03-.03.05-.05l.54-.4s.05-.04.08-.05l.53-.25.36-.45s.04-.04.05-.06l.44-.39.24-.54.31-.58.19-.61s.03-.07.05-.1l.37-.58.28-.53.16-.65c.02-.06.05-.12.09-.18l.42-.51.34-.56.41-.59s.05-.06.07-.08l.51-.43.38-.46.28-.59c.03-.07.08-.13.14-.17l.52-.37.35-.5s.03-.05.05-.06l.47-.47.41-.52.48-.53s.03-.03.04-.04l.49-.41.38-.52s.02-.02.02-.03l.46-.52s.07-.07.11-.09l.43-.23c.03-.06.08-.11.14-.15l.62-.4c.05-.03.1-.05.16-.07l.72-.12c.05-.01.11-.01.16,0l.66.14,1.38-.13c.06,0,.13,0,.19.03l.63.23.65.03.69-.02s.08,0,.11.02l1.31.33.62-.13s.05-.01.07-.01l.74-.03c.19,0,.35.09.42.26s.03.36-.1.48l-.49.46-.36.53s-.04.05-.06.07l-.45.44-.3.55s-.03.05-.05.07l-.41.49-.29.57s-.03.04-.04.06l-.35.47-.11.61c-.02.08-.06.16-.11.22l-.44.45-.21.56s-.02.03-.03.05l-.3.56-.18.63c-.02.06-.05.11-.08.16l-.4.47-.18.58s-.04.1-.07.14l-.4.51-.24.58-.23.63-.3.65-.49,1.25-.22.63s-.02.05-.03.07l-.33.6-.27.57-.19.63c-.02.06-.05.11-.09.16l-.4.46-.16.57s-.02.06-.04.09l-.31.57-.21.64s-.03.07-.05.1l-.39.58s-.02.03-.04.05l-.45.51-.79,1.1s-.05.06-.08.08l-.49.41-.38.54s-.07.09-.12.11l-1.18.75s-.02.02-.03.02l-.62.33-.66.3s-.03.02-.05.02l-.67.2s-.07.02-.11.02l-.64.02-.58.24s-.09.03-.14.03l-.61.04-.41.2c-.09.04-.19.05-.28.03l-.46-.1-.58.1-.69.08-.7.04h-.07l-.59-.06-.6.16s-.08.03-.12.03ZM256.56,277.59l.64.02s.04,0,.07.01l.57.11.58-.16c.05-.02.11-.02.16-.01l.64.07.64-.04.65-.07.64-.11c.05-.01.11,0,.16,0l.4.08.35-.17c.05-.03.11-.04.17-.04l.63-.04.58-.24c.05-.02.1-.03.15-.03l.66-.02.59-.18.61-.28.58-.31,1.09-.69.37-.51s.05-.06.07-.08l.49-.41.77-1.08s.02-.02.03-.03l.44-.51.33-.51.2-.61s.02-.05.03-.07l.3-.56.17-.62c.02-.06.05-.13.09-.18l.41-.46.17-.57s.02-.05.03-.07l.3-.61.32-.59.22-.61.51-1.29.3-.65.23-.61.28-.65s.03-.07.05-.1l.39-.49.18-.59c.02-.06.05-.1.08-.15l.4-.47.17-.58s.02-.06.03-.09l.32-.58.24-.62c.02-.05.05-.1.09-.15l.41-.42.11-.58c.01-.06.04-.13.08-.18l.39-.52.29-.58s.04-.06.06-.08l.42-.5.32-.56s.04-.07.08-.1l.46-.45.16-.23-.3.06c-.06.02-.13.01-.19,0l-1.35-.34-.66.02-.75-.04s-.09-.01-.13-.03l-.6-.23-1.33.13s-.09,0-.14,0l-.65-.14-.55.1-.35.22c-.04.08-.1.15-.19.2l-.56.3-.39.44-.4.54s-.05.06-.07.08l-.51.43-.44.48-.41.52s-.02.03-.04.04l-.46.45-.37.54s-.06.08-.1.11l-.48.34-.26.54s-.03.06-.05.09l-.44.53s-.04.04-.06.06l-.49.42-.36.52-.34.57s-.03.04-.04.05l-.38.46-.15.6s-.02.07-.04.1l-.33.6-.35.56-.18.6-.03.08-.32.59-.27.59c-.03.06-.06.11-.11.15l-.48.43-.4.51c-.04.05-.09.09-.16.13l-.59.27-.47.35-.46.47c-.06.06-.13.1-.2.11l-.57.15-.43.4c-.06.05-.12.08-.19.1l-.6.15-1.06.72-.51.4s-.02.02-.04.03l-.55.35-.98.77-.33.51-.35.45-.02.55s-.01.09-.02.13l-.2.55.08.47.35.48s.03.06.05.08l.23.54.41.31.59.18s.05.02.07.04l.56.3.57.14ZM262.52,273.64s-.05,0-.06,0l-.7-.1s-.09-.03-.14-.05l-.64-.34s-.08-.06-.12-.09l-.46-.51c-.08-.08-.11-.19-.11-.29v-.65c0-.08.03-.16.07-.23l.33-.52s.04-.06.06-.08l.46-.46s.04-.04.06-.05l.51-.35.42-.47.97-.95.41-.45.39-.52.37-.57s.05-.06.08-.09l1.59-1.41s.07-.05.11-.07l.66-.3.61-.32s.08-.04.13-.04l.71-.13.74-.1h.08l.73.05c.08,0,.17.04.23.09l.57.44s.06.06.09.09l.39.55s.04.06.05.09l.27.67c.02.06.03.13.03.19l-.05.71-.1.72-.14.72c-.01.06-.03.11-.07.17l-.38.54-.25.61c-.02.06-.06.11-.1.15l-.51.49s-.02.02-.03.02l-.53.43-.49.48s-.05.04-.07.06l-.59.37s-.03.01-.04.02l-1.25.61s-.03.01-.05.02l-1.31.47s-.03.01-.05.01l-.68.17s-.03,0-.04,0l-.69.09-.72.06-.73.02ZM261.95,272.68l.6.08h.67s.67-.06.67-.06l.65-.09.64-.16,1.27-.46,1.21-.6.54-.33.46-.45s.02-.02.03-.03l.53-.43.43-.42.23-.58s.03-.06.05-.09l.36-.51.12-.6.09-.68.04-.59-.21-.53-.32-.45-.42-.32-.56-.04-.67.09-.63.11-.58.31-.61.28-1.5,1.33-.35.54-.42.56s-.02.02-.03.03l-.44.49-.97.95-.44.48s-.05.05-.07.07l-.52.35-.41.41-.23.38v.35s.29.33.29.33l.51.27Z"/>
  <path class="cls-6" d="M259.63,280.43l-.58.27-.55.36-.63.16-.63.17-.65-.04-.63.21-.65-.15-.71.05h-.71s-.7-.12-.7-.12h-.73s-.68-.24-.68-.24l-.66-.3-.48-.53-.31-.57-.04-.63.27-.58.27-.63.41-.55.49-.47.53-.42.58-.36.56-.38.2.66.45.52.59.33.58.33.66.13.64.2.66.08.67.04.67.18.68-.05.66-.18.68.02.67-.07.5-.13.48.02-.18.59-.43.48-.46.44-.41.49-.52.37-.56.3Z"/>
  <path class="cls-7" d="M255.98,282s-.07,0-.1-.01l-.58-.14-.65.05h-.04l-.71-.02h-.06l-.67-.11h-.7s-.08-.02-.13-.03l-.69-.22s-.03-.01-.05-.02l-.66-.3c-.05-.03-.1-.06-.15-.1l-.47-.53s-.04-.05-.06-.08l-.32-.57c-.03-.05-.05-.12-.05-.18l-.03-.63c0-.07.01-.14.04-.2l.54-1.2s.03-.06.05-.08l.41-.55s.03-.04.05-.06l.49-.47s.02-.03.04-.03l.53-.42s.03-.02.04-.02l.58-.36.54-.38c.11-.08.26-.09.39-.05s.23.15.27.29l.17.57.34.39,1.05.59.59.11s.03.01.04.01l.6.19.63.08.64.04s.06,0,.09.02l.59.16.56-.05.63-.17s.08-.01.13-.01l.65.02.61-.06.47-.12s.09-.02.13-.02l.47.02c.14.01.26.07.34.18s.1.25.06.38l-.18.59c-.02.06-.05.12-.09.16l-.43.48-.47.45-.4.47s-.05.05-.07.07l-.52.37s-.03.02-.05.03l-.56.3s-.02.01-.02.01l-.55.26-.52.34s-.09.05-.14.06l-1.24.32s-.09.02-.14.01l-.57-.03-.55.19s-.07.02-.13.02ZM255.33,280.98s.07,0,.1.01l.53.12.51-.18c.05-.02.11-.03.17-.02l.58.03,1.12-.29.48-.32s.04-.03.06-.03l.57-.26.53-.28.45-.32.38-.44.03-.03.46-.44.26-.29-.22.06s-.04.01-.06.01l-.67.07h-.05l-.61-.02-.6.17s-.06.01-.08.01l-.68.06s-.1,0-.15-.02l-.63-.17-.62-.04-.69-.09s-.05,0-.08-.02l-.61-.19-.64-.13s-.09-.03-.13-.05l-1.17-.66s-.08-.06-.11-.09l-.45-.52s-.07-.1-.09-.16l-.03-.09-.07.05-.57.35-.5.39-.45.43-.35.48-.48,1.08.02.42.24.44.39.43.55.25.6.19h.66s.05.02.06.02l.68.1.66.02.69-.05s.01,0,.02,0Z"/>
  <path class="cls-2" d="M245.49,293.06l.61-.32.53-.45.69-.13.56-.4.62-.26.62-.28.55-.42.63-.26.59-.32.67-.17.54-.44.69-.14.58-.35.6-.32"/>
  <path class="cls-7" d="M245.49,293.49c-.16,0-.31-.08-.39-.23-.11-.21-.03-.47.19-.59l.56-.29.49-.42c.06-.05.13-.08.2-.1l.6-.11.47-.34s.06-.04.08-.05l1.19-.52.51-.39s.06-.04.09-.05l.6-.26.58-.31s.06-.03.09-.04l.58-.15.46-.39c.05-.04.12-.07.19-.09l.61-.13.52-.31.61-.33c.21-.11.47-.04.59.18s.04.47-.18.58l-.59.32-.56.34s-.09.04-.14.05l-.58.12-.45.38c-.05.04-.11.07-.17.09l-.62.16-.55.29s-.02.01-.03.02l-.58.24-.51.38s-.05.04-.08.05l-1.2.52-.52.37c-.05.04-.11.06-.17.07l-.58.11-.43.38s-.05.04-.08.06l-.6.32c-.06.05-.13.06-.2.06Z"/>
  <path class="cls-7" d="M255.45,281.48l-.72.32-.64.2-.6.29-.65.18-.63.23-.58.33-.66.17-.55.41-.65.21-.61.28-.53.44-.69.14-.54.42-.6.29-.59.32-.56.46.02-.71.18-.66.49-.47.39-.57.65-.25.52-.44.3-.56.2-.66.31-.65.49-.52.51-.5.52-.36.31.6.61.41.65.32.72.07.7.07.7.08.71.07.83.07Z"/>
  <path class="cls-7" d="M245.64,286.6c-.06,0-.13-.02-.19-.04-.15-.07-.25-.23-.24-.4l.02-.71s0-.08.02-.11l.18-.66c.02-.07.06-.15.12-.2l.46-.43.36-.53c.05-.07.12-.13.2-.16l.58-.22.4-.34.23-.45.19-.62s.02-.04.03-.06l.31-.65s.04-.08.08-.11l.49-.52.52-.51s.04-.03.06-.05l.52-.36c.1-.07.23-.09.35-.07.12.03.22.11.28.22l.27.5.49.33.55.27,3.58.34c.2.02.35.16.39.35.04.2-.07.39-.25.47l-.72.32s-.03.02-.05.02l-.61.19-.57.28s-.05.02-.07.03l-.63.17-.58.22-.56.31s-.07.04-.1.05l-.58.14-.48.36s-.08.05-.13.06l-.62.2-.53.24-.48.41c-.06.05-.13.08-.19.09l-.59.11-.46.35s-.05.04-.08.05l-.61.29-.54.29-.52.43c-.08.07-.18.1-.28.1ZM246.22,285.03l-.06.2.42-.22.58-.29.51-.39c.05-.04.12-.07.18-.08l.58-.11.44-.37s.06-.05.1-.06l.6-.29s.04-.02.06-.02l.57-.18.49-.36s.1-.06.16-.08l.6-.15.54-.3.06-.03.63-.23s.02,0,.04-.01l.61-.17.29-.14-1.88-.18c-.05,0-.1-.02-.15-.04l-.65-.32s-.03-.02-.05-.03l-.6-.41c-.06-.04-.11-.09-.14-.16l-.08-.16-.08.06-.48.47-.43.46-.27.56-.19.63s-.02.05-.04.07l-.29.57c-.03.05-.07.1-.11.13l-.52.44s-.08.05-.13.07l-.52.2-.32.46s-.04.05-.06.07l-.41.38Z"/>
  <path class="cls-9" d="M248.34,302.99l-.61.4-.6.38-.7.17-.71-.08-.72.03-.62-.4-.7-.17-.65-.33-.55-.46-.56-.45-.48-.54-.38-.61-.22-.67-.41-.61v-.72s.17-.7.17-.7l.19-.68.39-.59.42-.57.39-.58.56-.43.42-.59.59-.38.56-.41.49-.53.94-.33.64-.27.7-.05.7.02.71-.03.67.24.65.29.49.51.61.37.24.67.31.61.15.68-.03.69.02.7-.21.67-.25.66-.41.57-.32.61-.32.61-.41.56-.3.64-.38.59-.45.53Z"/>
  <path class="cls-7" d="M246.41,304.37h-.04l-.68-.07-.69.03c-.08,0-.17-.02-.25-.07l-.56-.36-.63-.15s-.07-.03-.1-.04l-.64-.34s-.05-.03-.07-.05l-1.11-.91s-.04-.04-.05-.06l-.48-.54s-.03-.04-.05-.06l-.38-.61s-.03-.06-.04-.09l-.2-.61-.38-.56c-.05-.08-.08-.16-.08-.24v-.72s.01-.06.02-.09l.16-.7.19-.7s.03-.09.06-.13l.4-.59.42-.58.38-.57s.06-.08.1-.1l.51-.4.37-.53s.08-.09.12-.12l.6-.38.51-.38.46-.49c.05-.06.1-.09.17-.11l.95-.33.61-.26s.09-.03.14-.03l.7-.05s.03,0,.04,0l.7.02.68-.03c.06,0,.11.01.17.03l.67.24.68.3s.09.05.14.09l.46.47.56.34c.08.05.15.13.18.22l.24.64.3.59s.03.07.04.1l.15.67s.01.07.01.11l-.03.69.02.68s0,.09-.02.14l-.21.67-.26.68s-.03.07-.05.1l-.4.55-.63,1.19s-.02.03-.03.05l-.38.53-.29.6s-.02.04-.03.05l-.38.59-.03.05-.45.53s-.06.06-.1.08l-1.22.78s-.08.04-.13.05l-.7.17s-.08.03-.11.03ZM245.71,303.43s.03,0,.05,0l.64.06.56-.13,1.1-.7.39-.46.35-.54.29-.61s.02-.05.04-.07l.39-.54.64-1.2s.02-.03.03-.05l.39-.53.23-.6.18-.58-.02-.64.03-.66-.13-.57-.28-.56s-.02-.03-.03-.05l-.19-.53-.48-.29s-.06-.04-.08-.07l-.44-.45-.57-.25-.56-.2-.63.03-.7-.02-.61.04-.57.24-.86.3-.42.45s-.04.04-.06.05l-.56.42-.55.35-.36.52s-.05.07-.09.09l-.51.39-.35.53-.42.58-.35.52-.17.62-.14.63v.55s.33.5.33.5c.02.03.04.07.05.1l.2.63.33.54.43.48,1.06.86.55.29.66.16s.09.03.13.06l.51.32.59-.02s0,0,0,0Z"/>
  <path class="cls-7" d="M234.67,315.36l.27-.74.09-.68.06-.69-.1-.69-.09-.69-.15-.68-.27-.65-.14-.69-.35-.61-.16-.69-.41-.58-.25-.65-.28-.64-.22-.66-.08-.69-.16-.9.14-.64.36-.54.26-.61.58-.36.38-.55.46-.46.52-.41.54-.45-.06.66-.07.66-.08.67.31.63.1.65.14.65.27.61.18.64.25.61.36.56.22.64.46.49.28.61.35.55.25.67-.23.7-.03.7-.28.65-.34.61-.29.66-.48.52-.49.52-.63.35-.48.55-.71.4Z"/>
  <path class="cls-7" d="M234.67,315.8c-.1,0-.2-.04-.28-.1-.14-.11-.19-.31-.13-.48l.26-.7.08-.63.05-.62-.18-1.34-.13-.61-.26-.61s-.02-.05-.02-.07l-.14-.62-.32-.55s-.04-.08-.04-.12l-.14-.6-.35-.52s-.04-.05-.05-.09l-.25-.65-.27-.63s-.01-.02-.01-.03l-.22-.66s-.01-.06-.02-.09l-.08-.69-.15-.87c-.01-.06-.01-.11,0-.17l.14-.64c.01-.05.03-.1.06-.15l.34-.51.24-.58c.04-.08.1-.15.17-.2l.5-.31.32-.47s.03-.04.05-.06l.47-.46s.02-.03.04-.04l.52-.4.54-.44c.13-.11.32-.13.48-.05.16.08.24.25.23.43l-.2,1.86.26.51s.03.09.04.13l.09.66.13.57.24.57s.02.04.02.05l.17.62.23.55.34.53s.03.06.04.09l.19.55.4.43s.06.07.07.12l.27.59.33.53s.03.05.04.08l.24.67c.04.09.04.19,0,.29l-.21.64-.03.65c0,.05-.02.1-.03.15l-.27.65s-.02.03-.02.04l-.33.59-.28.64s-.05.08-.08.12l-.98,1.04s-.07.06-.11.08l-.56.31-.43.48s-.07.07-.11.09l-.71.41c-.08.03-.15.05-.22.05ZM234.91,310.41l.25.61s.02.05.03.08l.14.68.19,1.41s0,.06,0,.1l-.09.98.11-.14s.07-.06.11-.09l.57-.31.88-.94.26-.59s.01-.02.02-.04l.33-.59.23-.56.03-.63s0-.08.02-.11l.18-.55-.18-.48-.33-.52s-.02-.04-.03-.06l-.24-.55-.42-.45s-.07-.09-.09-.16l-.21-.59-.33-.52s-.03-.05-.04-.07l-.26-.61s-.01-.03-.02-.05l-.18-.61-.25-.58s-.02-.05-.03-.08l-.14-.65-.09-.61-.28-.56c-.04-.08-.06-.16-.05-.25l.11-.94-.23.19-.42.42-.35.52s-.08.09-.13.12l-.46.29-.21.49s-.02.05-.04.07l-.31.48-.1.48.15.81.08.68.2.6.27.62.24.61.38.54s.05.1.07.16l.14.62.32.55s.04.08.05.13l.13.64Z"/>
  <path class="cls-7" d="M229.24,322.2l.22-.54.17-.67.3-.65.09-.69.04-.7v-.7s-.04-.7-.04-.7l-.07-.69.14-.7-.21-.69-.07-.69v-.7s-.02-.7-.02-.7l-.1-.69.14-.71-.25-.68-.12-.68v-.7s-.08-.69-.08-.69h.06s-.08-.56-.08-.56v-.56s.1-.62.1-.62l.27-.59.53-.39.48-.46.64-.21.56-.4.69-.19.26.7.21.65.14.69.3.63.24.65.16.68.38.6.05.71.34.62.22.66.11.69.13.69v.71l-.17.69-.36.63.15.74-.26.68-.34.63-.32.64-.48.54-.47.53-.43.57-.58.42-.43.58-.6.39-.57.43-.48.55-.58.24Z"/>
  <path class="cls-7" d="M229.24,322.64c-.11,0-.22-.04-.31-.13-.13-.12-.16-.31-.09-.47l.21-.51.16-.64s.02-.05.03-.08l.27-.59.08-.63.05-.67-.05-1.35-.06-.67s0-.08,0-.13l.11-.59-.18-.58s-.02-.06-.02-.09l-.07-.69v-.04l-.02-1.36-.1-.67s0-.09,0-.14l.11-.6-.21-.56s-.01-.05-.02-.07l-.12-.69s-.01-.05-.01-.08v-.67s-.07-.66-.07-.66c-.01-.08,0-.15.03-.22l-.05-.34s0-.04,0-.06v-.56s0-.06,0-.08l.11-.63s.02-.07.03-.1l.27-.59c.03-.07.08-.13.14-.17l.51-.37.46-.44s.1-.08.17-.1l.58-.19.51-.35s.08-.05.13-.07l.69-.19c.22-.06.44.06.52.27l.26.7.22.67s.01.04.01.05l.13.64.28.57s.01.03.01.04l.25.65s.01.03.02.05l.15.61.34.55c.04.06.06.13.06.2l.04.62.29.54s.02.05.03.07l.22.66s.02.05.02.07l.11.69.13.68s0,.05,0,.08v.71s0,.07-.01.1l-.17.68s-.02.08-.05.11l-.28.48.12.58c.02.08.01.17-.02.24l-.26.68s-.02.03-.03.05l-.66,1.26-.06.09-.95,1.07-.41.54s-.06.07-.09.09l-.53.37-.39.53s-.07.08-.12.11l-.59.37-.52.4-.45.52s-.1.09-.16.11l-.59.25s-.1.06-.16.06ZM230.39,316.89l.06.63.05,1.43-.04.73-.09.72s-.02.09-.04.13l-.22.49.51-.39s.02-.02.03-.02l.54-.34.38-.52s.06-.07.1-.1l.53-.38.39-.52.93-1.05.63-1.21.21-.54-.13-.61c-.02-.1,0-.21.05-.3l.33-.57.14-.58v-.61l-.13-.65-.1-.67-.2-.59-.32-.59c-.03-.06-.05-.11-.05-.18l-.04-.61-.32-.51s-.04-.08-.05-.13l-.16-.65-.23-.6-.29-.61s-.03-.07-.04-.1l-.14-.66-.32-.94-.24.06-.49.35s-.08.05-.12.06l-.54.18-.4.39s-.03.03-.05.04l-.44.32-.2.44-.09.53v.49s.08.53.08.53c.01.08,0,.17-.03.23l.06.47v.72s.1.61.1.61l.23.64c.03.07.04.15.02.23l-.13.64.09.62s0,.04,0,.05l.02,1.38.06.63.2.65c.02.07.02.14.01.21l-.12.63Z"/>
  <path class="cls-6" d="M220.36,354.64l-.56.42-.52.46-.52.47-.71.17-.59.35-.6.35-.62.32-.69.14-.66.24-.71-.05-.68.11-.68.08-.68.16-.68.17h-.7s-.69,0-.69,0l-.68-.27-.68-.03-.68-.08-.71.06-.66-.27-.67-.16-.67-.17-.66-.2-.61-.32-.63-.32-.59-.38-.55-.45-.46-.53-.54-.44-.55-.44-.39-.59-.38-.59-.52-.5-.3-.64-.39-.59-.27-.65-.25-.67-.18-.68-.03-.72-.31-.65-.09-.7.04-.71-.11-.7v-.7s.05-.7.05-.7l-.16-.71.16-.7.04-.69.17-.67-.04-.7.14-.68.4-.59.18-.66.34-.6.25-.65.48-.51.34-.59.38-.59.48-.49.55-.42.58-.37.45-.55.67-.24.51-.49.61-.33.63-.29.67-.2.65-.22.62-.33.69-.09.68-.1.69-.05.68-.11.66-.21.69.09.69-.16.69.14.67.19.7.05.66.22.64.28.59.36.57.39.66.27.48.51.57.42.31.65.58.44.32.63.26.65.23.65.38.6.18.68.09.7.05.69.1.69-.11.7.08.69-.08.69-.06.7-.24.66-.21.66-.29.63-.24.65-.33.6-.29.65-.51.49-.34.63-.51.47-.56.42-.64.3-.59.35-.56.42-.61.33-.69.14-.67.19-.67.24-.7-.16-.71.14-.71-.03-.66-.29-.67-.19-.65-.26-.63-.31-.59-.39-.57-.43-.37-.62-.59-.44-.44-.56-.36-.61-.35-.63-.36-.58-.03-.7-.3-.63-.08-.68.15-.67.13-.66.27-.63.25-.63.36-.57.39-.55.34-.58.5-.45.39-.56.57-.38.44-.54.57-.36.59-.34.66-.2.68.04h.67l.65.16.58.33.66.19.45.53.61.3.52.43.42.52.44.52.32.6.14.67-.09.66.18.67-.14.66-.18.64-.15.65-.33.58-.36.55-.38.54-.6.27-.58.31-.65-.11-.62-.17-.66-.13-.42-.53-.49-.41-.2-.6v-.63s0-.66,0-.66l.29-.59.36-.59.36.72.62.48.5.61.7-.27.23-.64.18-.66-.18-.65-.25-.6-.42-.52-.42-.55-.56-.4-.7-.25-.74-.02-.62.4-.51.48-.45.54-.41.58-.37.61-.26.67-.26.67-.08.72.09.72.08.7.34.6.35.58.51.47.57.39.55.47.67.22.71.06.67.19.69.06.69-.09h.71l.61-.36.62-.29.56-.41.41-.56.42-.55.38-.58.28-.64.26-.65.16-.68.14-.68.09-.69v-.69s-.07-.69-.07-.69l-.17-.67-.19-.66-.3-.63-.49-.49-.31-.65-.57-.42-.53-.45-.54-.45-.64-.31-.63-.29-.66-.23-.66-.23-.68-.11-.69-.07-.68-.18-.69.15-.72-.03-.62.35-.63.3-.54.44-.67.26-.38.62-.55.41-.43.54-.51.47-.35.59-.47.52-.29.63-.35.6-.29.63-.1.69-.34.61-.27.64-.03.7-.04.69-.24.67.11.69.13.68-.11.7.14.69.35.62.35.59.22.69.49.51.58.4.52.47.6.35.64.27.61.32.67.19.59.41.71.07.65.24.6.38.65.22.67.17.66.21.69-.16.67-.02.68.02.66-.17.67-.11.61-.32.66-.18.57-.39.67-.19.57-.38.47-.52.66-.24.43-.55.63-.31.46-.52.44-.52.38-.56.42-.53.38-.56.41-.54.28-.63.41-.55.16-.68.46-.54.23-.65.06-.69.36-.61.14-.67v-.69s.18-.67.18-.67l.04-.69-.11-.68-.03-.69-.35-.61-.16-.66-.32-.6-.73-1.19-.14-.7-.42-.57-.17-.68-.32-.63-.02-.71-.11-.68-.13-.68-.09-.68-.06-.69.04-.69-.15-.7.11-.69v-.69s.09-.69.09-.69l.2-.67.17-.68v-.7s.22-.67.22-.67l.02-.7.15-.68.22-.66.31-.62.04-.69.24-.64.22-.64.33-.6.29-.61.18-.67.43-.54.15-.69.41-.55.38-.56.25-.65.35-.58.41-.54.34-.59.56-.43.43-.52.42-.53.39-.57.43-.52.45-.51.46-.51.2.07-.17.72.27.67v.7s-.04.7-.04.7l.11.68v.7s.29.68.29.68l-.15.71.15.69v1.39l-.06.7.06.69-.09.69-.1.69-.03.69-.11.68-.11.69-.3.65-.43.53-.44.52-.47.5-.22.67-.52.48-.38.57-.2.67-.28.62-.3.61-.09.68-.25.64-.05.68v.68s.01.68.01.68l.21.65.22.65.02.69.31.61.15.67.17.66.46.55.22.65.27.63.31,1.33.15.66.23.66-.07.69.08.69-.21.67.08.7-.24.65-.11.68-.17.67-.28.63-.34.6-.24.64-.34.59-.38.57-.3.61-.4.55-.27.64-.3.63-.41.55-.39.56-.53.46-.35.6-.45.52-.51.46-.44.53-.41.56-.52.45-.5.46Z"/>
  <g class="cls-3">
    <path class="cls-7" d="M210.78,358.46l-.71-.02s-.1-.01-.15-.03l-.61-.24-.62-.03-.67-.08-.66.06c-.07.01-.14,0-.2-.03l-.62-.25-1.32-.33-.68-.2s-.05-.02-.08-.03l-1.23-.64s-.03-.01-.04-.02l-.59-.38s-.03-.02-.04-.03l-.54-.45s-.04-.03-.05-.05l-.44-.51-1.07-.85s-.07-.06-.09-.1l-.74-1.14-.48-.47s-.07-.08-.09-.13l-.29-.61-.37-.57s-.03-.05-.04-.07l-.27-.65-.26-.68s-.01-.03-.01-.04l-.19-.68s-.01-.07-.01-.1l-.02-.63-.28-.57s-.03-.09-.04-.14l-.08-.7s0-.05,0-.07l.03-.67-.1-.65s0-.05,0-.07v-.7s.05-.66.05-.66l-.15-.65c-.02-.06-.02-.13,0-.19l.16-.67.04-.65s0-.05.01-.08l.15-.6-.04-.64s0-.07.01-.11l.14-.68c.01-.05.03-.1.06-.15l.36-.54.17-.6s.02-.07.04-.09l.32-.57.24-.62c.02-.05.05-.09.09-.14l.44-.47.32-.55.38-.6s.04-.04.06-.06l.48-.5.05-.05.55-.42s.02-.02.03-.02l.53-.33.41-.49c.05-.06.11-.1.19-.13l.58-.21.45-.43s.06-.05.09-.07l.61-.33.66-.3s.04-.02.06-.02l.67-.19.6-.21.59-.31s.09-.04.15-.05l1.36-.2s.03,0,.04,0l.67-.05.62-.1.64-.2c.06-.02.13-.03.19-.02l.61.08.62-.14c.06-.02.12-.02.18,0l.68.14s.03,0,.04.01l.63.17.66.05s.08.01.11.02l.66.22s.03.01.04.02l.64.28s.04.02.06.03l.59.37.54.37.62.25c.06.03.11.06.15.1l.46.48.54.39c.06.04.1.1.14.17l.27.55.49.38c.06.04.09.09.13.15l.32.63s.02.03.02.04l.26.65.22.62.35.57s.04.08.05.13l.17.68s0,.03.01.05l.09.69.05.72.1.66s0,.09,0,.13l-.1.64.07.65s0,.06,0,.09l-.13,1.38s-.01.07-.03.11l-.24.66-.2.65s-.01.04-.02.05l-.29.63-.23.62s-.02.04-.03.06l-.32.59-.28.63c-.02.05-.06.1-.1.14l-.45.44-.31.57s-.05.08-.09.11l-.52.47s-.02.02-.04.03l-.56.42s-.04.03-.07.04l-.62.3-.55.33-.55.4s-.03.02-.05.04l-.61.33s-.08.04-.12.04l-.67.13-.65.19-.65.23c-.08.03-.16.04-.24.02l-.61-.14-.63.11s-.07.01-.1,0l-.71-.03c-.05,0-.1-.01-.16-.03l-.64-.28-.65-.18s-.03-.01-.04-.02l-.65-.26-.66-.33s-.03-.02-.05-.03l-.59-.39-.59-.45s-.08-.08-.11-.13l-.32-.55-.52-.38s-.06-.05-.08-.08l-.45-.56s-.03-.03-.04-.05l-1.07-1.81c-.04-.07-.06-.14-.06-.21l-.03-.61-.24-.53s-.03-.09-.04-.14l-.07-.68s0-.09,0-.14l.28-1.33s.01-.05.03-.08l.27-.62.24-.61s.03-.05.04-.07l.36-.57.4-.56.32-.55s.05-.07.08-.1l.46-.42.35-.52s.08-.08.12-.11l.52-.33.4-.48s.06-.06.1-.09l.58-.36.61-.34s.06-.03.08-.04l.66-.2c.05-.02.1-.02.15-.02l.68.03h.64s.07,0,.1.02l.65.16s.07.02.1.04l.54.3.61.17c.08.03.16.07.21.14l.39.46.53.27s.06.03.08.05l.52.43s.04.04.06.07l.85,1.03s.04.05.05.08l.32.6s.04.08.04.12l.14.67s.01.1,0,.15l-.08.57.16.58c.02.07.02.14,0,.2l-.14.66-.19.67-.14.63s-.02.08-.05.12l-.33.58-.37.57-.39.55c-.05.06-.1.11-.18.15l-.6.27-.55.3c-.08.05-.18.07-.28.05l-.65-.11s-.03,0-.05-.01l-.6-.17-.64-.13c-.1-.02-.19-.07-.26-.16l-.39-.49-.46-.38c-.06-.05-.11-.12-.14-.2l-.2-.61s-.02-.09-.02-.13v-.63s0-.67,0-.67c0-.06.01-.13.04-.18l.29-.59s.01-.03.02-.04l.36-.59c.08-.14.23-.21.39-.21.16,0,.3.1.37.24l.32.63.55.42s.05.04.07.07l.31.38.22-.08.16-.44.14-.53-.14-.51-.22-.52-.77-.98-.46-.32-.58-.21h-.54s-.46.28-.46.28l-.46.44-.42.5-.39.56-.34.55-.48,1.25-.06.61.16,1.28.62,1.04.43.41.55.36s.03.02.04.03l.47.42.54.18.66.05s.06,0,.09.02l.63.18.6.05.65-.09s.04,0,.06,0h.59l.5-.3s.03-.02.04-.02l.59-.28.47-.34.8-1.07.34-.53.26-.6.24-.6.15-.65.13-.67.09-.64v-.64s-.07-.64-.07-.64l-.16-.65-.18-.61-.25-.53-.44-.44s-.06-.08-.08-.13l-.26-.56-.48-.35s-.02-.02-.03-.02l-1.02-.87-1.2-.56-1.25-.44-.65-.1-.66-.07s-.05,0-.07-.01l-.58-.16-.58.13s-.07.02-.11.01l-.59-.03-.52.29-.6.29-.49.41s-.08.05-.12.07l-.54.2-.3.49s-.07.09-.11.12l-.51.38-.4.5s-.03.04-.04.05l-.46.43-.33.54s-.03.05-.05.07l-.43.46-.26.57s-.02.03-.02.04l-.34.58-.26.55-.09.64c-.01.05-.03.1-.05.15l-.32.59-.23.55-.07,1.32s-.01.08-.02.11l-.2.57.09.58.13.66s.01.09,0,.15l-.09.63.11.55.67,1.14s.03.06.04.09l.18.59.39.4.54.38s.03.02.05.04l.48.44.54.31.61.26.61.31.63.18s.09.03.13.06l.49.34.6.06s.07.01.11.03l.65.24s.05.03.08.04l.56.35.59.2.65.17.57.18.58-.14s.06-.01.09-.01l.67-.02.64.02.6-.15s.03,0,.04-.01l.61-.1.55-.28s.06-.03.08-.04l.59-.16.5-.35s.09-.05.14-.06l.6-.17.47-.31.43-.48s.1-.09.17-.11l.55-.2.35-.45c.04-.06.09-.09.15-.12l.55-.28.82-.94.36-.54s.01-.02.02-.03l.41-.51.37-.55.39-.52.26-.58s.03-.06.04-.08l.36-.48.14-.58c.02-.07.05-.13.09-.18l.41-.48.18-.52.05-.64c.01-.07.03-.13.06-.18l.32-.55.11-.56v-.65s0-.07.02-.11l.17-.62.03-.59-.1-.64s0-.04,0-.05l-.02-.58-.3-.52s-.04-.08-.05-.12l-.15-.6-.29-.55-.71-1.16s-.05-.09-.06-.14l-.12-.61-.36-.49s-.06-.1-.07-.15l-.16-.63-.3-.58c-.03-.06-.05-.13-.05-.2v-.68s-.26-1.32-.26-1.32l-.08-.71-.06-.71s0-.04,0-.06l.03-.63-.14-.65c-.01-.05-.01-.1,0-.16l.11-.66v-.67s0-.03,0-.05l.08-.69s0-.05.01-.07l.21-.67.14-.6v-.65s.02-.08.03-.13l.19-.61.02-.65s0-.06.01-.08l.15-.68s0-.03.01-.04l.22-.66s.01-.04.02-.06l.27-.54.04-.6s.01-.09.03-.13l.24-.64.22-.63.03-.06.33-.6.26-.55.17-.63c.01-.06.04-.11.08-.16l.37-.46.12-.58c.02-.06.04-.13.08-.17l.41-.55.34-.51.23-.59s.02-.05.03-.07l.35-.58s.02-.03.03-.05l.4-.52.32-.56c.03-.05.06-.09.11-.13l.52-.4.81-.98.36-.55s.02-.03.03-.04l.43-.52.91-1.03c.11-.13.3-.18.47-.12l.2.07c.2.07.32.29.28.5l-.13.59.21.55s.03.1.03.15l.02.7v.04l-.05.65.1.64s.01.05.01.07v.61s.25.6.25.6c.03.08.04.17.02.26l-.13.61.13.6s.01.06.01.09v1.39l-.06.7.06.66s0,.07,0,.09l-.19,1.36-.02.67s0,.04-.01.06l-.23,1.37s-.02.08-.03.11l-.3.64s-.03.06-.05.09l-.43.53-.44.53-.42.45-.2.58c-.02.07-.06.13-.11.18l-.48.45-.32.48-.19.6s-.01.03-.02.05l-.27.63-.28.57-.08.61s-.02.07-.03.1l-.23.58-.04.6.02,1.28.41,1.22s.02.08.02.13l.02.6.27.53s.03.06.04.1l.29,1.22.4.47s.06.09.08.14l.22.65.25.59s.02.04.03.07l.46,1.98.22.64c.02.06.03.13.02.19l-.07.64.08.64c0,.06,0,.13-.02.18l-.18.58.06.61c.01.06,0,.13-.02.2l-.23.61-.11.64s0,.03,0,.04l-.17.67s-.02.04-.02.06l-.28.63s-.02.03-.02.05l-.33.57-.23.6-.03.06-.34.59-.38.57-.3.58-.03.06-.38.52-.25.59-.3.64s-.03.06-.05.08l-.41.55-.38.55s-.04.06-.07.08l-.47.41-.31.54s-.03.04-.04.06l-.45.52s-.02.03-.04.05l-.49.44-.42.5-.39.53s-.04.05-.06.07l-1.01.91-.03.03-.55.42-1.01.9c-.06.05-.12.08-.19.1l-.64.15-1.13.67-.65.33s-.07.03-.11.04l-.66.13-.63.23c-.06.02-.11.03-.18.03l-.67-.05-.63.13-.68.08-1.33.32s-.06.01-.1.02h-.69ZM210.17,357.58l.61.02h.64s1.32-.33,1.32-.33c.02,0,.03-.01.05-.01l.68-.08.66-.1s.06,0,.1,0l.63.05.57-.21s.04-.02.06-.02l.63-.13.57-.3,1.17-.69s.08-.04.13-.05l.59-.14.95-.86.56-.43.97-.88.39-.52.45-.55.04-.04.49-.44.4-.47.33-.57s.05-.07.09-.1l.48-.42.36-.52.4-.53.27-.58.27-.63s.03-.06.05-.08l.38-.53.29-.58s.02-.03.03-.04l.38-.57.31-.54.23-.61s.02-.04.03-.06l.33-.57.26-.58.16-.61.11-.66s.01-.06.02-.08l.21-.56-.07-.6c0-.06,0-.11.02-.17l.18-.58-.08-.6v-.1l.07-.59-.2-.56s-.01-.03-.01-.05l-.45-1.95-.26-.59-.2-.6-.41-.48s-.07-.11-.09-.17l-.31-1.29-.29-.56c-.03-.06-.04-.12-.04-.18l-.02-.64-.41-1.23s-.02-.09-.02-.14l-.02-1.35v-.04l.05-.68s.02-.08.03-.12l.23-.59.09-.64s.02-.09.04-.13l.3-.61.26-.58.2-.64s.03-.08.05-.11l.38-.57s.04-.05.06-.07l.43-.41.19-.57c.02-.06.05-.11.09-.16l.47-.49.81-.99.26-.54.21-1.29.03-.67v-.05l.19-1.32-.06-.65v-.07l.06-.7v-1.31l-.14-.65c-.02-.06-.02-.12,0-.18l.13-.58-.22-.55c-.02-.05-.03-.1-.03-.16v-.66s-.11-.66-.11-.66c-.01-.04-.01-.07,0-.1l.05-.69v-.6s-.21-.52-.21-.52l-.24.28-.41.49-.37.55s-.02.02-.02.03l-.86,1.05s-.05.05-.07.07l-.49.38-.29.52-.03.05-.4.52-.32.53-.23.6s-.03.06-.05.09l-.38.56-.36.49-.12.59c-.02.07-.04.13-.08.18l-.38.47-.15.57s-.02.05-.03.08l-.29.61-.32.58-.43,1.19-.03.63c0,.06-.02.12-.05.17l-.3.59-.2.61-.14.62-.02.66s0,.08-.02.12l-.19.6v.64l-.02.09-.17.68-.2.66-.07.63v.67s0,.05-.01.07l-.1.61.13.61s.01.08.01.11l-.04.66.06.66.08.66.25,1.33s0,.05,0,.07v.61s.29.53.29.53c.02.03.03.06.03.1l.15.59.37.5c.04.05.06.11.07.17l.13.63.68,1.11.33.63s.03.07.04.1l.15.6.32.55c.04.07.06.14.06.21l.03.66.1.66s0,.06,0,.09l-.04.68s-.01.06-.02.09l-.17.61v.64s0,.05-.01.08l-.14.67s-.03.09-.05.13l-.31.52-.05.6s-.01.07-.03.11l-.23.64c-.02.05-.04.09-.08.14l-.39.46-.14.57c-.01.05-.04.11-.07.16l-.38.51-.26.58s-.03.05-.05.08l-.41.55-.36.54s-.02.02-.02.03l-.41.52-.36.55s-.02.03-.03.04l-.9,1.04s-.08.08-.13.1l-.55.27-.37.47c-.05.06-.11.11-.19.14l-.56.21-.41.44s-.05.05-.08.07l-.57.38s-.08.05-.13.06l-.6.17-.51.35s-.08.05-.14.06l-.62.17-.57.29s-.08.04-.13.05l-.66.11-.64.16s-.07.02-.11.02l-.68-.02-.6.02-.65.15c-.08.02-.16.02-.23,0l-.66-.21-.64-.17s-.03,0-.04-.01l-.65-.22s-.07-.03-.09-.04l-.56-.36-.55-.21-.66-.06c-.07,0-.15-.03-.2-.07l-.53-.37-.6-.17s-.06-.02-.08-.03l-.61-.32-.61-.26-.05-.03-.6-.35s-.05-.04-.07-.06l-.49-.45-.55-.38s-.05-.03-.07-.05l-.49-.51c-.04-.05-.08-.1-.1-.17l-.2-.64-.68-1.17s-.04-.09-.05-.14l-.14-.69c-.01-.05-.01-.1,0-.15l.09-.64-.11-.6-.11-.71c-.01-.07,0-.14.02-.21l.21-.61.07-1.32c0-.05.02-.1.04-.15l.27-.65s.01-.03.02-.04l.3-.55.09-.61s.02-.08.04-.12l.29-.63s.01-.02.02-.03l.33-.58.28-.61s.04-.08.07-.11l.44-.48.33-.55s.05-.07.07-.09l.48-.45.41-.52s.05-.06.08-.08l.48-.36.33-.55c.05-.08.13-.15.22-.18l.6-.23.47-.39s.06-.04.09-.06l.63-.3.6-.33c.07-.04.15-.06.23-.05l.67.03.63-.14c.07-.02.14-.02.21,0l.65.17.65.07.71.11s.05.01.07.02l1.32.46s.02.01.04.02l.64.29.64.31s.06.03.09.05l1.06.9.55.41c.06.05.11.1.14.17l.27.59.44.44s.06.08.09.12l.29.63s.02.04.03.06l.19.66.17.69s.01.03.01.05l.09.69v.76s0,.04-.01.05l-.09.69-.14.71-.17.69s-.01.04-.02.07l-.26.65-.28.65s-.02.05-.04.07l-.37.58-.84,1.14s-.06.07-.09.1l-.57.41s-.04.03-.07.04l-.6.28-.59.35c-.07.04-.14.06-.22.06h-.69l-.66.08s-.06.01-.09,0l-.7-.06s-.06,0-.08-.01l-.63-.18-.67-.05s-.07-.01-.1-.02l-.67-.22c-.06-.02-.11-.05-.15-.08l-.52-.46-.55-.37s-.04-.03-.05-.04l-.51-.47s-.06-.06-.08-.09l-.7-1.19c-.03-.05-.05-.11-.06-.17l-.17-1.41s0-.07,0-.1l.07-.72s.02-.07.03-.11l.52-1.34s.02-.05.04-.07l.37-.61.41-.6s.02-.03.03-.04l.45-.53s.02-.02.03-.04l.51-.48s.04-.04.06-.05l.62-.4c.07-.04.16-.06.24-.07l.74.02s.09.01.14.03l.7.25s.07.03.11.05l.56.4s.07.06.09.09l.83,1.06s.05.07.07.11l.24.6.02.05.18.65c.02.07.02.15,0,.22l-.17.66s-.01.03-.01.04l-.23.64c-.04.12-.14.21-.26.26l-.7.27c-.17.07-.37.01-.48-.13l-.47-.58-.58-.45c-.06-.04-.09-.09-.13-.15h0s-.18.37-.18.37v.56s0,.55,0,.55l.14.43.4.32s.04.04.06.07l.32.4.5.1s.03,0,.04.01l.6.17.48.08.45-.24.53-.23.31-.44.35-.54.29-.5.14-.59.19-.66.11-.52-.16-.57c-.02-.06-.02-.12-.01-.18l.08-.59-.11-.53-.27-.51-.81-.98-.45-.37-.56-.28c-.05-.03-.09-.06-.14-.1l-.36-.43-.53-.15s-.07-.02-.09-.04l-.53-.3-.54-.14h-.61s-.63-.03-.63-.03l-.54.17-.55.31-.5.31-.4.48s-.06.07-.1.09l-.49.32-.34.49s-.04.05-.06.08l-.45.41-.31.53-.41.57-.32.52-.23.59-.26.59-.26,1.23.06.54.27.56c.03.05.04.11.04.17l.03.59.3.49.7,1.21.39.49.55.4s.08.08.11.13l.32.55.51.38.54.35.6.3.59.24.65.18s.03.01.05.02l.59.26.58.02.66-.12c.06-.01.12-.01.18,0l.58.14.55-.2.69-.2s.02-.01.04-.01l.63-.13.53-.29.54-.4s.02-.02.03-.02l.59-.36s.03-.01.04-.02l.6-.29.51-.38.45-.41.3-.57s.05-.07.08-.1l.44-.43.24-.56.02-.03.31-.58.23-.61.28-.64.2-.64.23-.63.13-1.29-.07-.65s0-.07,0-.11l.1-.64-.09-.63-.07-.76-.09-.64-.15-.59-.34-.55s-.03-.05-.04-.08l-.23-.65-.24-.61-.27-.52-.5-.38c-.05-.04-.1-.1-.13-.16l-.26-.55-.48-.35s-.04-.03-.06-.05l-.42-.44-.57-.23s-.06-.03-.08-.04l-.57-.39-.55-.34-.59-.26-.59-.2-.65-.04s-.06-.01-.09-.02l-.65-.19-.58-.11-.6.14s-.1.01-.15,0l-.59-.08-.57.18s-.04.01-.07.02l-.67.11s-.03,0-.04,0l-.67.05-1.29.19-.55.29s-.04.02-.06.03l-.65.22-.65.19-.6.27-.53.29-.47.45s-.09.07-.15.09l-.55.2-.38.46s-.07.07-.1.09l-.57.36-.52.39-.43.44-.35.55-.33.58s-.04.06-.06.08l-.42.44-.22.57s-.02.04-.03.05l-.31.55-.17.61s-.03.08-.06.13l-.35.53-.11.54.04.65s0,.09-.01.13l-.16.63-.04.65s0,.05-.01.07l-.14.6.14.61s.01.07.01.12l-.04.7v.65s.09.66.09.66c0,.03,0,.06,0,.09l-.04.68.07.59.28.59c.03.05.04.11.04.17l.03.67.17.61.24.65.25.6.36.56s.03.04.03.05l.27.57.46.45s.04.04.06.07l.73,1.12,1.04.83s.04.04.06.05l.44.51.49.41.56.35,1.19.61.62.18,1.32.33s.04.01.06.02l.56.22.6-.05s.06,0,.09,0l.68.08.66.03s.09.02.14.03l.6.24Z"/>
  </g>
  <path class="cls-9" d="M261.26,272.66l-.54-.41v-.65s.21-.64.21-.64l.54-.41.5-.45.64-.27.52-.44.4-.56.53-.44.26-.64.44-.56.42-.57.58-.41.57-.42.59-.41.74-.05.66-.22.7-.17.73-.02.64.38.44.6-.07.72.02.68-.09.68-.1.69-.17.69-.39.6-.46.55-.66.33-.52.45-.58.39-.53.49-.69.18-.65.26-.66.24-.67.21-.69.09-.7.08-.71-.03-.68-.19-.57-.39Z"/>
  <path class="cls-7" d="M263.22,273.7h-.02l-.7-.03s-.07-.01-.09-.02l-.68-.19s-.09-.03-.13-.06l-.57-.38-.02-.02-.55-.41c-.11-.08-.17-.21-.17-.35v-.65s.02-.09.03-.13l.21-.64c.03-.08.08-.16.15-.21l.53-.39.49-.44s.07-.06.12-.08l.57-.24.42-.36.37-.52s.05-.06.08-.08l.44-.38.22-.53s.03-.07.06-.1l.85-1.12s.07-.07.1-.09l.58-.41.56-.41.61-.42c.06-.04.14-.07.21-.07l.69-.05.61-.2s.02-.01.03-.01l.69-.17s.06-.01.09-.01l.73-.02c.08,0,.16.02.23.06l.64.38c.05.03.09.07.13.12l.45.59c.06.09.09.19.08.3l-.07.7.02.66s0,.05,0,.07l-.19,1.37s0,.03,0,.05l-.17.7s-.03.09-.06.13l-.39.6s-.02.03-.03.04l-.46.55s-.08.08-.14.11l-.61.3-.48.41s-.03.02-.04.03l-.55.36-.5.47c-.05.05-.11.09-.19.1l-.66.17-.62.25-.67.24-.69.22s-.05.02-.08.02l-1.4.17h-.05ZM262.59,272.81l.62.03,1.32-.16.64-.2.64-.23.64-.25s.03-.01.05-.02l.58-.15.44-.42s.04-.03.06-.05l.55-.37.51-.43s.06-.05.09-.06l.58-.28.38-.45.33-.52.15-.61.18-1.31-.02-.65s0-.04,0-.05l.06-.56-.29-.4-.46-.27-.56.02-.63.15-.65.21s-.07.02-.1.02l-.62.05-.5.34-.56.41-.54.38-.79,1.03-.23.58c-.03.07-.07.13-.13.17l-.48.41-.36.51s-.04.05-.07.07l-.52.44s-.07.05-.11.07l-.57.24-.45.4s-.02.02-.03.03l-.43.32-.14.44v.36l.36.27.5.34.56.16Z"/>
  <path class="cls-6" d="M357.94,213.88l-.05.65-.22.58-.47.47-.63.26-.65.28-.69.1h-.69s-.69-.03-.69-.03l-.69.04h-.69s-.69-.08-.69-.08h-1.39s-.68-.15-.68-.15l-.69-.05-.79-.11.55.55.59.39.19.7.34.57v.64l-.43.47-.69.08-.68-.19-.68.14-.68.04-.67-.09-.68-.05-.66-.28-.69.09-.67-.11-.67-.12-.67-.13-.67-.11-.66-.17-.68-.02.68.41-.07.66-.63.44-.61.23-.6.34-.66.1-.68-.07-.65.24-.67-.2-.56.13.06.66-.18.66-.3.67-.63.38-.7.2-.66.26-.64.39-.71.16h-.82s.39.63.39.63l.05.71-.68.24-.64.26-.7.04-.69-.06-.7.09-.76-.18.18.75-.14.69-.2.68-.57.41-.58.3-.67.21-.68-.18-.63.06-.63.03-.46.42-.49.47-.49.47-.55.44-.71.06-.64.21-.67.16-.7.06-.67-.19-.67-.09-.61-.34-.66-.16-.66-.16-.69-.04h-.69s-.66-.15-.66-.15l-.66-.14-.63-.35-.67-.09-.67-.11-.69.06-.65-.23-.67-.08-.66-.04.6-.29.64-.25.6-.33.6-.32.62-.29.65-.24-.05-.04.68-.14.69.03.68-.03.66-.25.68-.05.65-.21.66-.15.65-.19.64-.2.68-.14.5-.49.52-.4.43-.49.68-.08h.7s.71-.02.71-.02l.68-.24.71.04.7-.13.71-.06.64-.34.64-.26.7-.21.29-.63-.36-.57-.66-.15-.6-.26.65-.03.69-.22.71-.12.72-.06.72-.03.68-.29.77.04v-.63l-.36-.44-.49-.34-.51-.34.65-.15.61-.29.66-.08.66-.13.66-.11.63-.21.59-.34.67-.11.55-.41.61-.23.47-.44-.47-.42-.59-.29.74.13.69.16.71.1.72-.12.71.1.71-.1.72.18.7-.24h.71s.71-.03.71-.03l.71-.09.64-.35.6-.31.32-.54-.48-.51-.71-.24-.68-.33-.75-.14.61-.1h.68l.67.14.67.07.67.11h.68s.67.08.67.08l.69-.05.66.17.69-.09.66.09h1.41l.64-.41-.39-.62-.6-.35-.57-.43-.64-.28.64.03.65.24.65-.2.64-.16.68-.04.61-.26.58-.33.52-.42.38-.53.68.11.62.34.71.02.67.18.64.25.64.26.66.18.58.42.71.07.66.2.6.33.64.26.59.3-.59.22-.64.15-.64.13-.63.2-.66.02-.64.19-.63.05Z"/>
  <g class="cls-5">
    <path class="cls-7" d="M318.68,231.27s-.08,0-.12-.02l-.64-.18-.65-.09c-.05-.01-.1-.03-.15-.06l-.56-.32-1.22-.29-.65-.05h-.66s-.06-.02-.08-.02l-1.32-.28s-.09-.02-.13-.05l-.55-.32-.59-.08-.62-.11-.64.06c-.07,0-.13,0-.19-.02l-.6-.22-.62-.08-.63-.03c-.2-.01-.36-.16-.41-.35-.04-.19.06-.39.24-.47l.6-.29.64-.25,1.19-.64.63-.3s.02-.01.04-.02l.43-.16c.06-.07.15-.11.24-.14l.67-.14s.07-.01.1,0l.67.03.6-.02.59-.22s.08-.03.11-.03l.63-.05.6-.2s.03-.01.04-.01l.66-.15,1.26-.38s.03,0,.05-.01l.55-.11.41-.4s.03-.02.04-.03l.48-.38.4-.45c.07-.08.17-.13.28-.15l.67-.08h.05l1.34-.02.61-.22c.06-.02.11-.03.17-.02l.67.04.64-.11h.04l.63-.05.56-.3s.03-.02.04-.02l.64-.26s.03-.01.04-.02l.51-.15.11-.24-.14-.22-.48-.1s-.05-.02-.08-.03l-.6-.26c-.19-.08-.29-.28-.26-.47s.2-.35.41-.36l.59-.03.63-.2.06-.02.71-.12s.03,0,.04,0l.72-.05.66-.03.61-.26c.06-.02.13-.03.19-.03l.31.02h0s-.22-.28-.22-.28l-.95-.64c-.15-.09-.22-.27-.19-.44.03-.17.16-.31.33-.35l.6-.14.57-.27s.08-.03.13-.04l.66-.08.63-.13.64-.1.56-.18.54-.33s.1-.04.15-.05l.57-.09.46-.35s.07-.04.11-.05l.54-.2.06-.06-.07-.06-.54-.27c-.19-.1-.29-.32-.22-.53.07-.2.27-.33.48-.29l.74.13.7.17.62.09.65-.11s.09,0,.14,0l.65.09.65-.09c.06,0,.11,0,.17.01l.59.14.58-.2s.09-.03.14-.03l1.4-.03.61-.08.56-.31.51-.26.09-.15-.19-.19-.6-.21s-.04-.02-.05-.02l-.63-.31-.69-.13c-.21-.04-.35-.22-.35-.43s.16-.39.36-.43l.61-.1s.04,0,.07,0h.68s.06,0,.09,0l.65.14.65.07.66.11h.65s.67.07.67.07l.65-.04c.05,0,.1,0,.14.02l.58.15.6-.08s.08,0,.11,0l.64.08h1.26l.17-.11-.1-.17-.51-.3s-.03-.02-.04-.03l-.53-.4-.59-.26c-.19-.08-.3-.29-.25-.49.05-.21.26-.34.44-.33l.64.03s.09.01.13.03l.51.19.51-.16.66-.17s.06-.01.08-.02l.6-.03.52-.22.53-.3.45-.35.34-.48c.1-.14.27-.2.43-.18l.68.11s.09.03.14.05l.53.29.61.02s.07.01.1.02l.66.18.05.02,1.26.49.65.18s.1.04.14.07l.48.35.59.06s.06.01.08.02l.66.2s.06.02.08.04l.58.32.61.24s.03.01.04.02l.59.3c.15.08.25.23.24.41,0,.18-.11.32-.28.39l-.59.23s-.04.01-.06.02l-.64.15-.64.13-.6.19s-.08.02-.12.02h-.6s-.59.19-.59.19c-.03,0-.06.01-.09.02l-.25.02-.02.28s-.01.08-.03.12l-.21.58c-.02.06-.06.11-.1.16l-.47.47s-.08.08-.14.1l-1.27.53s-.07.02-.1.03l-.69.1s-.04,0-.07,0l-1.38-.03-.67.04h-.72s-.04,0-.05,0l-.66-.08h-1.36s-.07,0-.1,0l-.65-.16c.07.06.13.14.16.22l.18.64.31.52c.04.07.06.14.06.22v.64c0,.1-.04.21-.11.29l-.43.47c-.07.08-.17.13-.28.14l-.69.08c-.05,0-.11,0-.16-.02l-.58-.16-.58.11s-.04,0-.06,0l-.68.04s-.05,0-.08,0l-.67-.08-.66-.05s-.09-.02-.14-.04l-.54-.23-.58.08s-.08,0-.13,0l-2.84-.51-.06.54c-.01.13-.08.23-.18.31l-.63.43s-.06.04-.09.05l-.58.22-.57.32s-.09.04-.15.05l-.67.1s-.07.01-.11,0l-.58-.06-.56.2c-.09.03-.18.04-.27,0l-.56-.17-.09.02.03.28c0,.05,0,.1-.02.15l-.18.66s-.02.04-.02.06l-.3.67c-.04.08-.09.16-.17.2l-.63.38s-.07.04-.1.05l-.68.19-.61.24-.61.38s-.08.04-.13.05l-.71.16s-.07.01-.11.01h-.03c.03.05.04.1.04.16l.05.71c.02.19-.1.38-.29.44l-.68.24-.63.25s-.09.03-.14.03l-.69.04h-.06l-.65-.06-.65.08c-.05,0-.1,0-.15-.01h-.07s.02.06.02.06c.01.06.02.13,0,.19l-.14.69s0,.03,0,.04l-.2.68c-.03.09-.08.18-.16.23l-.57.41s-.04.03-.05.03l-.58.3s-.05.02-.07.03l-.67.21c-.08.03-.16.03-.24.01l-.61-.16-.55.05-.49.02-.34.31-.98.94-.57.46c-.07.05-.15.09-.24.09l-.66.06-.59.19s-.03,0-.04.01l-.67.16s-.04,0-.06.01l-.7.06s-.03-.02-.04-.02ZM317.48,230.14l.59.08s.04.01.06.01l.6.17.58-.05.63-.15.63-.2s.06-.02.1-.02l.58-.05.44-.35,1.43-1.34c.07-.07.17-.1.27-.11l.63-.03.61-.06c.05,0,.1,0,.15.01l.56.15.51-.16.52-.27.42-.3.15-.52.11-.58-.16-.66c-.04-.15,0-.3.11-.41s.26-.15.41-.11l.68.16.62-.08h.1l.66.06.59-.03.57-.23.39-.14-.02-.28-.33-.55c-.08-.13-.09-.3-.01-.44.08-.14.24-.22.38-.22l.76.02.59-.14.58-.35s.04-.03.07-.03l.66-.27s.03-.01.05-.01l.64-.19.46-.28.22-.52.16-.56-.05-.58c-.02-.21.13-.41.33-.46l.56-.13c.07-.02.15-.02.22,0l.53.16.52-.19c.06-.02.13-.03.19-.03l.63.07.53-.08.53-.3s.04-.02.06-.03l.56-.21.42-.3.02-.19-.44-.27c-.17-.1-.25-.3-.19-.49.06-.19.23-.31.43-.31l.68.02s.06.01.09.02l.66.17,2.58.45.63-.09c.08-.01.16,0,.23.04l.59.25.6.04.66.08.61-.04.65-.13c.07-.02.14-.01.2,0l.6.17.44-.05.21-.23v-.36l-.28-.47s-.04-.07-.04-.1l-.15-.54-.46-.3s-.04-.04-.06-.05l-.55-.55c-.13-.13-.16-.33-.08-.5s.26-.27.45-.24l.79.11.66.05s.05,0,.07.01l.63.15h1.34s.03,0,.05,0l.67.08h.66l.67-.04h.04l1.34.03.6-.09,1.15-.48.34-.34.16-.44.04-.59c.01-.21.19-.39.4-.4l.58-.04.59-.18s.07-.02.11-.02h.6s.57-.19.57-.19c.02,0,.03-.01.05-.01l.74-.15-.18-.07s-.03-.02-.05-.02l-.57-.31-.58-.18-.66-.06c-.08-.01-.15-.04-.21-.08l-.52-.38-.58-.16-.05-.02-1.26-.49-.59-.16-.67-.02c-.07,0-.14-.02-.19-.05l-.56-.3-.34-.06-.22.31s-.05.06-.08.09l-.52.42s-.04.03-.06.04l-.58.33s-.03.02-.04.03l-.61.26s-.1.03-.15.03l-.64.04-.82.23.22.13c.06.04.11.08.15.15l.39.61c.13.2.07.47-.13.6l-.64.41c-.07.05-.16.07-.24.07h-1.41s-.04,0-.06-.01l-.6-.08-.63.08c-.05,0-.11,0-.17-.01l-.59-.16-.61.04h-.07l-.67-.07h-.65s-.04-.02-.06-.02l-.66-.11.37.39c.14.14.16.35.06.52l-.32.54c-.04.07-.1.13-.18.17l-.6.31-.63.34s-.1.04-.15.05l-.71.09s-.03,0-.04,0l-1.37.03-.63.22c-.08.03-.16.03-.24.01l-.64-.16-.63.09s-.08.01-.12,0l-.64-.09-.66.1s-.09.01-.14,0l-.58-.09c-.01.11-.05.22-.14.3l-.47.44s-.09.07-.15.09l-.56.21-.5.38c-.06.04-.12.07-.19.08l-.59.1-.52.31s-.06.03-.09.04l-.64.21-.06.02-.66.11-.64.13-.63.08-.37.17.24.17s.06.05.08.08l.36.44c.06.08.1.18.1.28v.62c0,.12-.06.23-.14.32-.08.08-.2.12-.32.11l-.66-.03-.59.24s-.1.03-.15.03l-.72.03-.69.05-.48.08s.02.02.02.03l.36.57c.08.12.09.28.03.42l-.29.63c-.05.11-.15.2-.27.23l-.68.2-.6.24-.62.33c-.05.03-.11.05-.17.05l-.69.06-.68.13s-.07,0-.1,0l-.63-.04-.59.21s-.09.03-.14.03l-1.39.02-.49.06-.32.36s-.04.04-.06.06l-.5.39-.48.47c-.06.06-.14.1-.22.11l-.66.13-1.28.39-.67.15-.64.2s-.06.02-.1.02l-.62.05-.59.22s-.09.03-.14.03l-.69.03h-.04l-.63-.03-.4.08s-.07.05-.11.06l-.63.24-.6.29-1.03.55.44.16.6-.06s.08,0,.11,0l.67.12.66.09c.06,0,.11.03.16.05l.56.32,1.22.25h.65s.7.07.7.07c.02,0,.05,0,.07.01l1.31.31s.08.03.11.05l.54.3Z"/>
  </g>
  <path class="cls-6" d="M334.69,215.81h-.03s.06-.18.06-.18"/>
  <path class="cls-7" d="M334.69,216.24s-.04,0-.06,0h-.03c-.13-.02-.23-.09-.31-.2-.07-.11-.08-.24-.05-.36l.06-.17c.07-.23.32-.35.55-.28.22.07.35.32.28.54l-.02.07s0,.03,0,.04c-.03.21-.2.38-.41.38Z"/>
  <path class="cls-6" d="M354.02,209.93l-.74-.04-.67-.14-.64-.28-.68-.14-.66-.18-.68-.09-.68-.1-.69-.05-.65-.26-.68-.1-.67-.14h-.69s-.68-.1-.68-.1l-.67-.18h-.71s.56.45.56.45l.54.46.28.64-.21.7-.67.32-.71.11-.64.19-.65.12-.66.08-.66.04-.65.21-.67-.07-.66.12-.66.08-.66-.08-.61-.08.59.31.51.49.65.34.13.71-.08.69-.6.34-.65.21-.69.14-.7-.06-.68-.19-.69-.05h-.71l-.67-.19-.7-.1-.66-.22.67.3.35.64-.08.59-.53.49-.65.15-.63.18-.64.17-.6.32-.66.1-.67-.05-.65.11-.65.15-.66.07-.58.07.56.25.52.44.32.54-.34.47-.63.23-.68.11-.65.21-.65.22-.69.08-.66.19-.68.07-.7.27.57.6-.13.76-.37.56-.64.2-.61.36-.68.12-.71-.1-.66.23-.68.15-.69.03-.68.07-.08-.18-.38.6-.53.44-.54.42-.56.4-.55.41-.59.35-.52.46-.56.39-.67.38.76-.02.68-.05.66-.24.68-.06.69.05.64-.31.71.06.6-.39.69-.09.65-.23.51-.48.56-.38.43-.47.63-.03.68-.26.7-.07.72.12.69-.14.67-.25.72.04.66-.28.67-.21.64-.31.24-.6-.28-.57-.68-.08-.63-.2.67-.23.73.03.7-.14.69-.24h.73l.69-.23.73-.04.07-.6-.33-.52-.54-.31-.65-.28.78-.05.63-.22.61-.26.61-.26.66-.12.61-.27.69-.02.63-.23.62-.24.56-.39.27-.47-.31-.35-.63-.36.79.28,1.43.14.72-.13.71.15h.71s.71-.05.71-.05l.71-.09.71-.04.7-.13.69-.14.69-.16.7-.23.3-.73-.6-.45-.66-.37-.71-.26-.77-.08.63-.11.68-.05.68.05.67.05.67.08.66.21.69-.11.67.09.66.18.68.02.67.11h.71s.66-.28.66-.28l.64-.27-.32-.64-.54-.47-.7-.19-.69-.32.71.19.67-.05h.66s.63-.23.63-.23l.67-.08.58-.33.53-.39.54-.37.5-.52ZM334.31,215.54l.33.1-.33-.1Z"/>
  <path class="cls-7" d="M311.67,227.36c-.2,0-.37-.13-.42-.32-.06-.19.03-.4.2-.49l.65-.36.53-.36.49-.44.06-.05.57-.34,1.09-.8.99-.8.34-.54c.08-.14.23-.22.4-.21.12.01.22.06.3.15l.4-.04.68-.03.61-.14.64-.23c.07-.03.14-.03.21-.02l.64.09.53-.09.55-.32s.06-.04.09-.05l.49-.15.23-.36.07-.46-.42-.45c-.1-.1-.14-.25-.11-.39.03-.15.14-.26.27-.31l.7-.27s.07-.02.11-.02l.65-.07.61-.19s.05-.01.07-.01l.64-.07,1.26-.42s.04-.01.06-.02l.64-.1.46-.17.1-.14-.14-.23-.42-.35-.51-.23c-.18-.08-.28-.27-.26-.46.03-.19.18-.34.38-.37l.58-.07.64-.06.61-.15.68-.11s.07-.01.1,0l.63.04.53-.08.54-.29s.06-.03.09-.03l1.24-.35.57-.13.33-.31.05-.3-.21-.38-.54-.24c-.21-.09-.31-.34-.23-.55.09-.22.33-.33.55-.25l.62.21.66.09s.04,0,.06.02l.62.17h.65l.72.05s.06.01.08.02l.65.18.6.05.6-.12.58-.19.37-.21.05-.41-.08-.44-.46-.24s-.07-.05-.1-.07l-.45-.45-.54-.29c-.19-.1-.28-.31-.21-.52.06-.2.27-.32.47-.3l1.21.16.61-.07.63-.12s.08-.01.13,0l.58.06.55-.18s.07-.02.11-.02l.66-.04.63-.08.6-.11.61-.18s.03-.01.05-.01l.66-.1.44-.21.1-.36-.18-.4-1.02-.84c-.14-.12-.2-.31-.14-.48.06-.18.22-.29.41-.29h.71s.07,0,.11.02l.64.17.63.09h.66s.06.01.09.01l.67.14.66.09s.07.02.1.03l.59.24.62.04,1.39.2s.04.01.05.01l.66.18.66.13s.06.01.09.03l.59.27.59.13.7.03c.17.01.32.11.38.27s.03.33-.08.45l-.5.55s-.05.04-.07.06l-.54.36-.52.38s-.03.02-.04.03l-.58.33c-.05.03-.11.04-.17.05l-.63.07-.58.21s-.05.02-.08.02l.11.1s.07.08.1.13l.32.64c.05.1.06.23.02.34s-.13.2-.24.25l-1.3.56c-.06.02-.12.03-.18.03h-.71s-.05-.01-.07-.01l-.64-.11h-.65s-.07-.02-.1-.03l-.64-.18-.58-.08-.63.1c-.07.01-.14.01-.2-.01l-.62-.2-.84-.09s.01,0,.01,0l.6.45c.16.11.22.33.15.51l-.3.73c-.05.11-.15.2-.26.24l-.7.24s-.03,0-.04.01l-.69.15-1.41.27s-.04,0-.06,0l-.71.04-.68.09-.73.05h-.74c-.05.01-.06,0-.1,0l-.62-.14-.64.11s-.08.01-.12,0l-.81-.07c0,.06-.02.11-.05.16l-.27.46c-.03.06-.08.1-.13.14l-.55.39s-.06.03-.09.04l-.62.25-.65.23s-.08.03-.13.03l-.61.02-.54.23s-.06.02-.09.03l-.6.11-1.38.57.02.02c.06.03.11.08.15.14l.33.51c.06.09.08.19.07.29l-.07.6c-.03.21-.19.37-.4.38l-.68.05-.64.21s-.09.02-.13.02h-.66l-.62.22s-.04.01-.06.02l-.45.09.23.49c.05.11.06.23.01.34l-.24.6c-.04.1-.11.19-.21.23l-.64.31s-.04.02-.06.03l-.65.2-.64.27c-.06.03-.13.04-.2.04l-.63-.04-.59.22s-.04.02-.07.02l-.69.14c-.05.01-.1.01-.15,0l-.66-.11-.58.06-.63.24s-.09.02-.13.03l-.45.02-.31.34s-.05.05-.08.07l-.53.35-.48.46s-.09.07-.15.09l-.65.23s-.06.02-.09.02l-.59.07-.52.34c-.08.05-.18.07-.27.07l-.59-.05-.53.26c-.07.03-.15.05-.22.04l-.66-.05-.59.05-.61.22s-.07.02-.11.03l-.68.05-.78.02-.02.02ZM313.68,226.06l-.28.24.22-.08s.07-.02.1-.03l.68-.06s.05,0,.07,0l.58.04.53-.26c.07-.04.15-.05.23-.04l.56.05.47-.31c.06-.04.12-.06.19-.07l.64-.08.52-.18.44-.42s.04-.03.06-.04l.52-.35.4-.43c.08-.08.18-.13.3-.14l.56-.02.63-.23s.07-.02.1-.03l.7-.07s.07,0,.11,0l.64.11.58-.11.64-.24c.05-.02.11-.03.18-.03l.63.03.56-.24s.03-.01.04-.01l.64-.2.46-.22.1-.27-.09-.19-.44-.05s-.06-.01-.08-.02l-.63-.2c-.18-.06-.3-.22-.3-.41s.11-.35.29-.41l.67-.23c.05-.02.11-.03.16-.03l.68.04.62-.13.66-.23s.09-.03.15-.03h.66l.63-.2s.07-.02.11-.02l.38-.03v-.09s-.18-.29-.18-.29l-.42-.24-.63-.26c-.19-.08-.3-.27-.27-.47s.2-.35.4-.36l.72-.05.57-.2,1.2-.51s.06-.02.09-.03l.61-.11.57-.24c.05-.02.1-.03.16-.04l.63-.02.57-.2.56-.22.43-.3.06-.11-.06-.07-.57-.33s-.07-.05-.1-.08l-.08-.02c-.19-.06-.31-.23-.31-.42,0-.04.01-.08.02-.12.07-.23.31-.36.54-.3l.33.1c.08.03.16.08.21.14l.49.17,1.31.13.66-.12c.06-.01.11-.01.17,0l.66.14h.67l.68-.05.69-.09.71-.03,1.36-.26.66-.15.49-.17.1-.24-.31-.23-.6-.34-.63-.23-.71-.07c-.21-.02-.38-.2-.39-.41s.14-.41.35-.44l.63-.11s.03,0,.05,0l.68-.05h.06l1.34.1.69.08s.05.01.08.02l.56.18.59-.09s.08,0,.13,0l.67.09s.04,0,.06.01l.6.17.63.02s.04,0,.06,0l.64.11h.59s.8-.34.8-.34l-.07-.15-.4-.35-.6-.16s-.05-.02-.07-.03l-.69-.32c-.2-.1-.3-.33-.22-.54s.3-.33.52-.27l.65.17.6-.04h.61s.56-.21.56-.21c.03-.01.06-.02.09-.02l.58-.07.48-.28.82-.59-.52-.11s-.06-.01-.09-.03l-.59-.27-.63-.13-.66-.18-1.34-.19-.66-.04s-.09-.02-.13-.03l-.6-.24-.63-.09-.65-.13h-.65s-.04,0-.06-.01l-.57-.08s.06.07.07.11l.28.64c.04.09.05.2.02.3l-.2.7c-.04.11-.11.21-.23.27l-.67.32s-.08.03-.12.04l-.69.11-.61.18s-.03,0-.05.01l-.65.11-.68.09-.63.04-.59.2c-.06.02-.13.03-.19.02l-.6-.07-.59.11-.45.06.39.2c.11.06.2.18.22.31l.13.71s.01.08,0,.13l-.08.69c-.02.14-.1.26-.22.33l-.6.34s-.05.03-.08.04l-.65.2s-.03,0-.05.01l-.69.14s-.08.01-.12.01l-.7-.06s-.05-.01-.08-.02l-.64-.18-.65-.04h-.68s-.08,0-.12-.02l-.48-.14c.02.06.03.13.02.2l-.08.59c-.02.09-.06.19-.13.26l-.53.49c-.06.06-.13.09-.21.11l-.66.15-1.19.33-.56.3s-.09.04-.14.04l-.66.1s-.06.01-.09,0l-.63-.04-.6.1-.62.15s-.03,0-.05.01l.08.07s.07.07.09.11l.32.54c.09.15.08.34-.03.47l-.34.47c-.05.07-.12.12-.2.15l-.63.23s-.05.02-.08.02l-.65.11-1.27.43s-.06.02-.09.02l-.65.07-.62.18s-.05.02-.08.02l-.67.08.13.14c.09.1.14.23.11.36l-.13.77c-.01.06-.03.11-.07.17l-.37.56c-.06.08-.14.15-.23.18l-.59.19-.57.34s-.09.04-.15.05l-.68.12s-.09,0-.14,0l-.6-.08-.56.2s-.04.01-.05.01l-.68.16s-.05,0-.07.01l-.69.03-.66.07-.14.22s-.06.07-.09.1l-1.07.87-1.12.82s-.02.02-.04.02l-.55.33Z"/>
  <path class="cls-6" d="M343.63,210.81l-.64.16-.64.2-.65.18-.66.11-.67-.05-.66-.05-.66.24-.66.02-.66-.13h-.73s.7.26.7.26l.59.37.56.45.17.7-.14.68-.52.52h-.72l-.68.09-.7-.03-.69-.05-.7-.03-.71-.03-.69-.15-.65-.32-.73-.07.66.33.43.55-.13.57-.46.59-.68.09-.63.18-.6.32-.67.03-.63.25-.68-.04-.66.06-.64.24-.65.1h-.71l.64.31.53.4.4.49-.36.51-.61.3-.7.03-.66.18-.67.14-.64.26-.66.16-.69.07-.67.23.35.68.15.71-.46.56-.6.37-.68.1-.7.02-.67.14-.68.07-.69.05-.69.02-.69.16.54-.39.37-.55.36-.54.45-.47.34-.55.37-.53.42-.53.04-.69.31-.58.03-.76.16-.75-.06-.76-.15-.76.73.17.68.23h.7s.7-.09.7-.09l.69.05.69-.08h.7s.69-.14.69-.14l.73.03.65-.33.06-.66-.37-.55.59.16.69-.02.66-.24.67-.08.7-.03.63-.32.44-.55.28-.74-.18-.75-.45-.63h.74s.68,0,.68,0l.67-.11.66-.12.67-.08.65-.2.64-.23.67-.11.6-.26.63-.24.43-.53-.18-.6-.18-.5.54.03.64.08.65-.18.64.04.7.23.72-.11.71-.03.7.09.71.05.66.28.67.26.5.53.27.67-.32.61-.61.35-.69.17Z"/>
  <path class="cls-7" d="M316.61,223.57c-.17,0-.32-.1-.4-.26-.08-.19-.02-.41.15-.53l.48-.34.69-1.02s.03-.04.05-.06l.42-.44.32-.51.38-.55.35-.43.02-.55c0-.06.03-.13.05-.18l.27-.49.03-.66s0-.05.01-.07l.15-.69-.05-.67-.14-.73c-.03-.14.02-.29.13-.4.11-.1.26-.14.4-.11l.72.18s.03,0,.04.01l.61.2h.6s.67-.09.67-.09c.03,0,.06,0,.09,0l.66.05.65-.08s.03,0,.05,0h.66s.65-.13.65-.13c.03,0,.07-.01.1,0l.61.03.34-.17.03-.26-.28-.42c-.1-.15-.1-.35,0-.49.1-.15.29-.21.46-.17l.53.14.55-.02.6-.22s.06-.02.09-.03l.67-.08.64-.03.46-.23.34-.42.21-.55-.13-.54-.4-.56c-.09-.14-.1-.31-.04-.45.07-.14.22-.23.38-.24h.74s.65,0,.65,0l1.28-.22.66-.08.6-.19.61-.22s.06-.02.08-.02l.62-.1.55-.23.53-.2.21-.27-.12-.39-.17-.48c-.05-.14-.03-.29.06-.4.09-.11.22-.18.38-.17l.53.03.59.07.57-.16s.09-.02.14-.02l.64.04s.08.01.11.02l.6.2.61-.09h.05l.71-.03s.05,0,.07,0l.71.09.68.05s.09.01.14.03l.66.28.66.25c.06.03.11.06.16.1l.51.53s.07.08.08.14l.27.67c.05.11.04.25-.02.36l-.32.61c-.04.08-.1.14-.17.18l-.61.35s-.07.03-.11.04l-1.33.33-.61.19-.66.18s-.03,0-.04.01l-.66.11s-.06.01-.1,0l-1.25-.09-.56.21s-.09.03-.14.03h-.18s.24.21.24.21c.08.06.13.14.15.23l.17.7c.02.07.02.13,0,.19l-.14.69c-.02.08-.06.16-.12.22l-.52.52c-.08.08-.19.13-.31.13h-.69l-.65.08h-.07l-.69-.02-.71-.06-1.4-.06s-.05,0-.07-.01l-.46-.09s0,.07-.01.11l-.13.58c-.02.06-.04.12-.09.18l-.46.59c-.07.09-.17.15-.28.16l-.65.09-.56.16-.56.29c-.05.03-.11.05-.18.05l-.6.03-.55.23c-.06.03-.13.04-.19.03l-.64-.04-.57.05-.58.22s-.06.02-.09.02h-.04s.03.03.03.03c.03.03.06.05.08.08l.4.49c.12.15.13.36.01.53l-.36.51c-.04.06-.1.1-.16.14l-.61.31c-.06.03-.11.04-.18.04l-.65.02-.61.17-.66.14-.6.24s-.04.02-.06.02l-.66.16s-.04,0-.06.01l-.64.07-.15.05.12.23s.03.07.04.1l.15.71c.03.13,0,.27-.09.36l-.46.56s-.07.07-.11.09l-.59.38c-.05.03-.1.05-.16.06l-.69.1s-.04,0-.06,0l-.66.02-.64.13s-.03,0-.04,0l-.68.07-.7.05-.67.02-.65.15h-.08ZM318.23,221.94l-.4.6h.15s.67-.06.67-.06l.65-.07.65-.14s.05,0,.08,0l.67-.02.57-.09.46-.29.28-.34-.1-.45-.32-.63c-.06-.11-.06-.24-.02-.36.05-.12.14-.21.26-.25l.67-.23s.06-.02.1-.02l.66-.07.6-.15.61-.24s.05-.02.08-.02l.67-.14.64-.17s.06-.02.1-.02l.61-.02.44-.21.11-.16-.16-.19-.46-.34-.6-.3c-.18-.09-.27-.29-.23-.48.05-.2.22-.33.42-.33h.68s.58-.08.58-.08l.59-.22s.08-.02.11-.03l.66-.06h.07l.58.04.53-.22s.09-.03.14-.03l.57-.03.51-.27s.06-.02.08-.03l.63-.18s.04-.01.06-.02l.51-.07.3-.38.06-.28-.24-.31-.57-.3c-.19-.09-.28-.31-.22-.51.05-.2.24-.33.45-.31l.73.07c.05,0,.1.02.15.04l.6.29.6.13,1.38.06.71.05.65.03.65-.08s.04,0,.06,0h.55l.3-.3.09-.46-.11-.46-.43-.35-.54-.33-.66-.25c-.2-.08-.31-.28-.27-.48.04-.21.22-.35.43-.35h.73s.05,0,.08.01l.61.12.54-.02.59-.22c.06-.02.12-.03.18-.03l1.28.1.59-.1.62-.17.62-.2.66-.17h0l.64-.16.45-.26.17-.32-.17-.41-.38-.4-.58-.22-.6-.25-.64-.05-.7-.09-.65.03-.69.1c-.07.01-.14,0-.2-.02l-.65-.22-.51-.03-.58.16c-.05.02-.11.02-.17.01l-.5-.06.15.51c.04.14.01.28-.08.4l-.43.53c-.05.06-.11.11-.18.14l-.63.24-.58.25s-.07.02-.1.03l-.63.1-.59.22-.67.21s-.05.02-.08.02l-.67.08-1.31.22s-.05,0-.08.01l-.57-.02s.04.07.04.1l.18.75c.02.08.02.18-.02.26l-.28.74s-.04.08-.07.12l-.44.55s-.09.09-.15.11l-.63.32c-.06.03-.11.04-.18.05l-.7.03-.59.07-.62.22s-.09.03-.14.03l-.49.02-.06.65c-.01.15-.1.28-.23.35l-.66.33c-.07.04-.14.05-.21.05l-.68-.03-.65.13s-.06.01-.09,0h-.67s-.67.07-.67.07h-.08l-.65-.05-.65.09s-.04,0-.06,0h-.7s-.09-.02-.14-.03l-.71-.23.02.1s0,.03,0,.05l.06.76s0,.08,0,.12l-.16.72-.03.72c0,.07-.02.13-.05.19l-.26.49-.03.59c0,.09-.04.18-.09.25l-.42.53-.35.51-.33.54s-.03.04-.06.07l-.42.44Z"/>
  <path class="cls-2" d="M337.1,207.62l-.51-.25"/>
  <path class="cls-7" d="M337.1,208.06c-.06,0-.13-.02-.19-.05l-.51-.25c-.21-.1-.3-.36-.2-.58.11-.21.37-.3.58-.2l.51.25c.22.1.31.37.2.58-.07.16-.23.24-.39.24Z"/>
  <path class="cls-6" d="M326.53,209.79l-.62.22-.63.18-.64.13-.63.15-.68-.07-.55.22.45.39.51.36.44.43-.23.45-.55.31h-.65s-.64.09-.64.09l-.64.11-.64.08-.65.02-.63-.14.04-.7-.24-.7v-.71s.21-.69.21-.69l.29-.64.3-.63.52-.47.61-.37.72-.06.66-.1.65-.15.68.11.66-.09.66-.04.66-.04.67-.08.6.43.44.6-.05.72-.47.45-.66.22Z"/>
  <path class="cls-7" d="M320.21,213.28s-.06,0-.09-.01l-.63-.14c-.21-.05-.36-.24-.34-.45l.04-.61-.22-.61s-.03-.09-.03-.14v-.71s.01-.09.02-.13l.21-.69s.02-.04.03-.05l.58-1.28c.03-.05.06-.1.1-.13l.52-.47s.04-.04.07-.05l.61-.37c.06-.04.13-.06.19-.06l.72-.06.63-.1.62-.14c.06-.02.11-.02.17,0l.6.11.59-.09h.04l1.32-.08.65-.08c.11-.02.22.02.31.08l.6.43s.07.06.1.1l.44.6c.06.08.08.18.08.28l-.05.72c0,.11-.05.21-.13.29l-.46.45s-.1.08-.16.1l-1.27.44-.65.18s-.03.01-.04.01l-.64.12-.61.15s-.09.02-.14.01l-.15-.02.18.13s.04.03.05.04l.45.43c.14.14.17.34.08.52l-.23.45c-.04.08-.1.14-.18.18l-.55.3c-.06.04-.14.05-.2.05h-.63s-.61.09-.61.09l-.62.11-.66.09h-.05l-.65.02s0,0-.01,0ZM320.04,212.36l.21.05.57-.02.62-.08.61-.11.66-.08s.03,0,.05,0h.54s.34-.2.34-.2l.03-.05-.19-.19-.48-.35-.48-.4c-.11-.1-.17-.25-.15-.4.03-.15.13-.28.27-.33l.55-.22c.06-.03.14-.04.2-.03l.6.06.56-.14.64-.13.61-.17.59-.21h0l.57-.19.28-.27.03-.4-.31-.42-.41-.3-.51.06-1.33.08-.64.09s-.09,0-.14,0l-.59-.1-.57.13-.68.1-.65.05-.49.3-.43.39-.53,1.16-.18.6v.58s.21.63.21.63c.02.06.03.11.03.17l-.02.33Z"/>
  <path class="cls-6" d="M335.85,209.86l-.66.15-.61.31-.7-.06-.66.13-.65.19-.66.2-.69-.1h-.62s.4.66.4.66l-.02.75-.27.69-.34.58-.67.17-.62.3-.68.05-.68.07-.68.02-.76.02.53.5-.11.57-.64.27-.67.23-.7.12-.7.04-.7.05-.7-.2-.7.15-.69-.18-.68-.11-.67-.13v-.65s-.17-.64-.17-.64l.03-.65-.1-.59.59-.02.65-.06.64-.04.65.07.65.04.6-.32.56-.21.26-.43-.35-.54-.57-.31-.57-.3.63-.24.65-.04.63-.15.61-.2.67.05.63-.18.69-.21.5-.52-.17-.68-.48-.51-.55-.55.81.03h.69l.69-.04.69.06.69.03.7-.2.69.21.69.05.7-.12.69.15.7-.09.68.19.69.07.7-.12h.69s-.04.12-.04.12l.4.48-.02.58-.39.49-.55.34-.6.23Z"/>
  <path class="cls-7" d="M323.3,216.18s-.08-.01-.12-.02l-.59-.17-.59.13c-.07.02-.14.02-.2,0l-.67-.18-.66-.1-.68-.13c-.21-.04-.36-.22-.35-.44v-.58s-.15-.57-.15-.57c-.01-.04-.02-.09-.01-.14l.02-.61-.09-.54c-.02-.13.02-.25.09-.34.07-.1.19-.16.32-.16l.59-.02.61-.06.66-.04s.05,0,.07,0l.65.07.51.02.49-.27s.04-.02.06-.03l.42-.16.04-.07-.15-.22-1.04-.55c-.15-.08-.24-.24-.23-.41.01-.17.12-.32.28-.38l.63-.24s.08-.03.13-.03l.61-.04.58-.14.6-.2c.05-.02.11-.03.17-.02l.59.04.56-.15.57-.18.26-.27-.08-.33-.94-.97c-.13-.13-.17-.31-.09-.47s.24-.27.41-.26l.81.02h.68s.67-.03.67-.03h.06l.69.06.6.02.64-.18c.08-.02.16-.02.24,0l.64.19.59.04.65-.11c.05-.01.11-.01.16,0l.61.13.63-.09c.06,0,.12,0,.18.01l.65.18.6.06.64-.11s.05,0,.08,0h.69c.14,0,.27.07.35.19.05.07.08.16.08.26l.27.32c.07.08.1.19.1.29l-.02.59c0,.09-.04.18-.09.25l-.38.49s-.07.07-.11.1l-.55.34s-.05.03-.08.04l-.61.23s-.04.02-.06.02l-.6.14-.57.29c-.08.04-.16.05-.24.05l-.65-.06-.57.11-1.29.39c-.06.02-.12.02-.19.01l-.46-.07c.03.07.05.14.05.21l-.02.75c0,.05-.01.1-.03.15l-.27.69-.03.06-.34.58c-.06.1-.16.18-.27.2l-.62.16-.58.28s-.1.04-.16.04l-.68.05-.66.08s-.02,0-.04,0h-.5c.01.06.01.13,0,.18l-.11.57c-.03.14-.13.26-.26.32l-.63.26-.7.24-.06.02-.71.13s-.04,0-.05,0l-1.39.08h-.03ZM322.6,215.11s.08,0,.12.02l.63.18,1.3-.08.65-.11.64-.21.39-.17.02-.11-.35-.33c-.13-.12-.17-.31-.1-.47.06-.16.22-.27.39-.28l1.42-.04.66-.07.61-.05.54-.27s.06-.03.09-.03l.49-.13.23-.39.23-.58v-.55s-.31-.54-.31-.54c-.08-.13-.08-.3-.01-.43.07-.14.21-.22.36-.23l.62-.02s.05,0,.07,0l.59.08,1.21-.36s.03-.01.04-.01l.66-.13s.08-.01.13,0l.58.06.5-.26s.06-.03.1-.04l.63-.14.54-.21.45-.28.24-.32v-.28s-.25-.32-.25-.32h-.32l-.66.11s-.08.01-.12,0l-.69-.07s-.04-.01-.07-.02l-.6-.17-.61.09s-.1,0-.15-.01l-.61-.13-.61.1s-.07.01-.1,0l-.69-.05s-.06-.01-.09-.02l-.57-.17-.58.16s-.08.02-.13.02l-.69-.03-.68-.06-.67.04h-.47l.29.3c.05.06.09.12.1.2l.17.68c.04.15,0,.3-.11.41l-.5.52c-.05.05-.11.09-.18.11l-.69.21-.64.18s-.1.02-.15.02l-.59-.04-.54.18s-.02,0-.03.01l-.63.15s-.05.01-.07.01h-.09s.14.08.14.08c.06.04.11.08.16.15l.35.54c.09.14.09.32.01.46l-.26.43c-.05.08-.13.15-.22.18l-.53.2-.57.31c-.07.04-.15.06-.22.05l-.65-.03-.64-.07-.6.04-.75.07.02.1s0,.06,0,.09l-.02.58.16.57s.02.08.02.12v.29l.31.05.67.1s.03,0,.04.01l.59.16.6-.13s.07,0,.1,0Z"/>
  <path class="cls-7" d="M351.77,207.99l.63.28.7.11.57.42.61.31.63.29.62.31.66.23.59.36.69.17.59.35.57.39.66.23.64.27.57.41.61.33.63.28.65.24-.61-.31-.66-.21-.65-.22-.64-.24-.6-.36-.7-.07-.65-.22-.66-.2-.58-.43-.66-.21-.66-.2-.69-.06-.69-.09-.66-.19-.66-.17-.62-.35-.69-.09-.65-.22-.69-.06-.69-.05-.68-.07-.64-.33h-.69s-.69-.07-.69-.07l-.67-.16-.69-.02-.67-.16-.69.04-.69-.19-.71.06-.71-.04-.69-.22h-.71s-.71-.09-.71-.09l-.65.14-.64-.18-.65.09-.64-.1v-.03l-.69.07-.68-.22-.7.11h-.7s-.68-.22-.68-.22l-.69-.02-.7.18h-.69s-.69-.16-.69-.16l-.69-.09-.7.16-.69-.05-.69-.14-.69.22-.7-.2-.66.21-.67-.13-.67.02-.65.22-.66.05-.65.09-.67-.02-.69.17-.59.36-.56.4-.38.58-.24.66-.12.7-.05.71.21.7-.15.72.08.64.04.65.15.64.21.63-.15.77v.75s.18.77.18.77l-.16.75-.11.65-.46.52-.13.66-.31.58-.45.48-.38.53-.49.44-.4.52-.42.51-.04-.04-.97.97-.56.4-.58.38-.55.41-.49.49-.57.39-.54.43-.58.38-.08-.14-.6.32-.51.49-.61.32-.63.28-.68.16-.59.34-.61.29-.69.09-.6.32-.65.21-.6.32-.65.21-.57.38-.6.31-.67.16-.64.23-.58.36-.6.31-.67.16-.59.34-.68.14-.53.48-.68.15-.64.23-.61.3-.65.21-.59.33-.59.36-.67.16-.56.4-.65.22-.64.23-.63.24-.61.28-.67.15-.65.19-.59.36-.64.23-.61.28-.66.17-.63.26-.67.1-.64.22-.55.4-.56.35-.5.45-.57.39-.36.57-.36.57-.32.59-.35.57-.29.61-.4.56-.23.63-.09.69-.26.62-.35.59-.07.68-.29.62-.02.69-.18.65-.32.62.04.76-.96.06v-.76s-.07-.68-.07-.68v-.68l.17-.68.02-.68-.07-.69-.03-.68.03-.68.06-.68.03-.69.26-.65.03-.69.1-.67.23-.65.07-.68.16-.66.13-.68.31-.61.37-.58.29-.61.16-.69.47-.51.52-.45.47-.48.48-.48.51-.45.57-.39.64-.26.54-.43.64-.24.59-.35.62-.28.68-.16.56-.41.71-.06.63-.26.64-.23.63-.27.61-.31.65-.2.64-.22.64-.23.67-.13.66-.19.65-.21.67-.13.61-.32.69-.05.61-.35.66-.17.68-.09.68-.11.63-.27.69-.05.62-.3.63-.27.66-.18.72.04.61-.32.67-.14.67-.13.64-.25.62-.29.64-.26.68-.1.68-.11.59-.38.55-.41.7-.17.54-.43.51-.48.43-.54.39-.56.4-.55.33-.59.37-.57.24-.64.43-.57.08-.7.27-.64.05-.69.04-.69.15-.67-.06-.69.2-.68-.19-.68-.1-.67.07-.7-.1-.68-.07-.65-.13-.64-.16-.66.04-.66.06-.66.13-.66.25-.61.34-.56.3-.59.51-.43.58-.35.59-.33.6-.32.64-.27.69-.05.68-.04.67-.12.68-.03.67-.26.69.17.68-.17.68.15.69-.15.68.03.68.06.69.11.7-.07h.7s.7,0,.7,0l.7.08.7-.14h.71l.7.16.71-.09.7.07.71-.03.68.26.71-.03.69.11.71-.02.69.15.69.14.7.11.7.06.68.06.68.07.65.27.67.12.66.16.7-.02.64.27.68.1.63.28.69.07.63.28.68.12.68.1.61.31.68.11.61.32.67.15.6.35.69.09.61.36Z"/>
  <g class="cls-4">
    <path class="cls-7" d="M277.86,250.23c-.11,0-.21-.04-.29-.11-.09-.08-.14-.19-.15-.31v-.75s-.06-.65-.06-.65v-.72s0-.07.01-.1l.16-.64v-.61s-.05-.66-.05-.66l-.03-.71v-.04l.03-.68.06-.7.03-.66s.01-.1.03-.15l.23-.58.03-.61s0-.03,0-.05l.1-.67s.01-.06.02-.08l.21-.6.07-.63s0-.04.01-.06l.16-.67.13-.66s.02-.08.04-.11l.31-.61s.02-.02.02-.03l.35-.56.26-.54.15-.65c.02-.07.05-.15.1-.2l.47-.51s.02-.02.04-.03l.51-.43.93-.95.53-.47s.03-.03.05-.04l.56-.38s.05-.03.08-.05l.58-.24.5-.39s.07-.05.11-.06l.61-.23.55-.33s.03-.02.05-.02l.62-.28s.05-.02.08-.03l.58-.14.49-.36c.06-.05.14-.08.22-.08l.65-.05.56-.23.67-.23.59-.26.59-.3s.04-.02.06-.03l.65-.2,1.27-.45s.05-.01.07-.02l.66-.12.63-.19.64-.21s.03-.01.05-.01l.61-.12.57-.29c.05-.03.1-.05.16-.05l.6-.04.53-.3s.07-.03.1-.04l.66-.17s.03,0,.05-.01l.68-.09.61-.1.58-.25s.09-.03.15-.04l.6-.04.55-.26.65-.28s.04-.02.06-.02l.66-.18s.09-.02.14-.02l.59.03.52-.27s.07-.03.11-.04l1.3-.27.6-.24.6-.28.65-.27s.06-.02.1-.03l1.27-.19.51-.33.52-.39c.05-.04.1-.07.16-.08l.61-.15.45-.35.46-.44.41-.52.77-1.08.32-.57.36-.55.22-.6s.04-.08.06-.11l.36-.47.07-.58s.02-.08.03-.12l.24-.57.07-1.29s0-.05.01-.08l.14-.6-.05-.61c0-.05,0-.11.01-.16l.17-.57-.15-.56s0-.03-.01-.04l-.1-.68s-.01-.07,0-.11l.07-.64-.09-.63-.07-.65-.13-.63-.16-.64s-.02-.08-.01-.13l.04-.66.06-.67s0-.03,0-.04l.13-.66s.02-.06.03-.08l.25-.61s.02-.04.03-.06l.34-.57.28-.56c.03-.05.07-.1.11-.14l.51-.43s.04-.03.06-.04l.58-.35,1.21-.66s.03-.01.04-.02l.64-.27s.09-.03.14-.03l1.35-.09.65-.12s.04,0,.06,0l.61-.02.6-.23c.08-.04.17-.04.26-.02l.58.14.58-.14c.06-.02.13-.02.2,0l.59.14.59-.14s.07-.01.11-.01l.68.03.7.06.66.1.65-.07s.04,0,.05,0h.7s.7.01.7.01c.02,0,.03,0,.05,0l.64.07.64-.13s.07,0,.09-.01h.71s.06,0,.09.01l.63.14.63-.08h.1l.67.07.68-.03c.06,0,.11.01.17.03l.6.22.63-.03s.06,0,.09,0l.66.11.67-.02s.07,0,.1.01l1.38.29.66.11,1.37.11.68.07s.09.02.12.03l.6.25.63.11.63.15h.64c.06-.01.13,0,.18.02l.59.24.63.09s.08.02.11.03l.57.25.62.07s.09.02.13.03l.58.27.62.11.67.09s.09.02.14.04l.56.28.61.11s.09.02.13.04l.56.3.61.14s.09.03.13.05l.53.3.6.07c.06.01.11.03.17.06l.58.34.56.25.65.1c.07.01.14.04.19.08l.54.4.58.29.61.28.6.3.63.22s.06.02.08.04l.54.33.62.15s.08.03.11.05l.59.35.55.38.6.21.66.27s.06.03.09.05l.55.4.53.29.65.21s.05.02.07.03l.61.31c.21.1.29.35.2.56-.09.21-.33.31-.55.23l-.65-.24-.67-.3-.59-.2-.66-.24s-.05-.02-.07-.03l-.52-.31-.6-.06s-.07-.01-.1-.02l-.65-.22-.64-.19s-.09-.04-.14-.07l-.52-.39-1.2-.37-.65-.06-.7-.09-.06-.02-1.31-.35s-.07-.03-.1-.05l-.55-.31-.6-.08s-.05-.01-.08-.02l-.6-.2-1.32-.1-.7-.08c-.05,0-.1-.02-.15-.05l-.55-.28-.59-.02-.71-.06s-.04,0-.06-.01l-.63-.15-.65-.02s-.06,0-.08-.01l-.61-.14-.63.03s-.09,0-.14-.02l-.62-.17-.64.06s-.05,0-.06,0l-.71-.04s-.07-.01-.1-.02l-.63-.2h-.65s-.04.01-.06,0l-.64-.08-.58.13c-.07.02-.14.01-.2,0l-.55-.15-.56.07s-.09,0-.13,0l-.64-.1s-.02,0-.03-.01l-.55.06c-.06,0-.12,0-.18-.02l-.59-.19-.6.09s-.04,0-.06,0h-.7c-.05,0-.09,0-.14-.02l-.63-.21-.57-.02-.64.16s-.07.02-.11.02h-.69s-.06-.01-.09-.02l-.67-.15-.59-.08-.63.15s-.08.01-.13.01l-.69-.05s-.04,0-.06,0l-.58-.12-.58.19c-.08.03-.17.03-.26,0l-.57-.17-.53.17c-.07.02-.14.03-.21.02l-.63-.12-.55.02-.58.2s-.07.02-.1.02l-.66.05-.63.09s-.05,0-.07,0l-.61-.02-.57.14-.54.33-.46.33-.3.48-.21.58-.11.64-.04.61.18.62c.02.07.03.14.01.21l-.14.65.07.57.05.64.13.58.21.6c.03.07.03.15.02.22l-.15.73v.66s.17.72.17.72c.01.06.01.13,0,.18l-.16.76-.1.64c-.02.08-.05.16-.1.22l-.39.42-.11.54s-.02.08-.04.13l-.31.58s-.04.07-.07.09l-.43.46-.36.51s-.04.05-.07.07l-.46.41-.37.49-.44.52c-.05.07-.13.11-.21.14l-.82.82s-.04.03-.05.05l-.56.4-.6.38-.49.38-.47.47s-.04.04-.06.06l-.55.37-.52.42s-.03.02-.04.03l-.58.38c-.1.06-.22.08-.33.06-.02,0-.04-.02-.07-.02l-.26.14-.47.45s-.06.05-.1.07l-.6.32-.65.29s-.05.02-.08.03l-.61.14-.54.31s-.02.02-.04.02l-.61.29s-.08.03-.13.03l-.61.08-.53.29s-.04.02-.06.03l-.61.21-.57.3-.06.03-.59.19-.53.35s-.03.01-.04.02l-.6.31s-.07.03-.1.04l-.65.16-.57.21-.55.34-.63.32s-.06.03-.1.04l-.61.15-.53.31s-.08.04-.13.05l-.56.12-.45.4c-.06.05-.13.08-.2.1l-.65.14-.59.21-.59.29s-.04.02-.06.02l-.61.2-.55.31-.57.35s-.08.04-.13.05l-.59.14-.5.35s-.07.04-.11.06l-.65.21-1.25.47-.59.27s-.06.02-.09.03l-.67.15-.57.17-.54.33s-.05.03-.08.04l-.64.23-.59.27s-.04.02-.07.03l-.63.16-.6.24s-.06.02-.1.03l-.64.1-.54.19-.49.36-.56.35-.47.42s-.04.03-.05.04l-.5.33-.68,1.07-.3.57-.36.57-.28.59s-.03.05-.04.07l-.36.51-.2.54-.09.64s-.02.08-.03.11l-.26.61s-.02.04-.03.06l-.3.51-.06.58c0,.05-.02.1-.04.14l-.26.54-.02.59s0,.07-.01.1l-.18.65s-.02.06-.04.08l-.27.52.03.64c.01.23-.17.44-.41.45l-.96.06s-.01-.02-.02-.02ZM278.22,248.35l.05.66v.33s.08,0,.08,0l-.02-.33c0-.08.01-.16.05-.22l.3-.57.15-.56.02-.64c0-.06.02-.11.04-.17l.26-.55.06-.6c.01-.06.03-.13.06-.18l.34-.56.22-.54.08-.63s.01-.06.02-.09l.23-.63s.03-.07.05-.1l.38-.53.27-.57s.02-.03.03-.04l.35-.57.3-.57.74-1.17s.07-.09.13-.13l.55-.37.47-.43s.04-.03.06-.05l.57-.35.53-.38s.07-.04.11-.06l.64-.22s.05-.02.08-.02l.63-.1.58-.23s.04-.02.06-.02l.62-.16.58-.27.63-.22.55-.34s.07-.03.11-.04l.65-.19.66-.15.57-.27,1.3-.49.59-.2.52-.36s.1-.06.15-.07l.6-.14.53-.32.6-.34s.05-.03.08-.04l.61-.2.58-.28s.03-.01.04-.02l.64-.23s.04-.02.06-.02l.56-.13.45-.4c.05-.05.13-.09.2-.1l.61-.13.53-.31s.08-.04.12-.05l.62-.15.56-.29.56-.34s.05-.03.07-.03l.64-.24s.04-.01.05-.02l.62-.14.54-.28.56-.36s.07-.04.1-.05l.61-.2.57-.3s.05-.02.07-.03l.61-.2.57-.3s.09-.04.15-.05l.63-.08.54-.24.58-.33s.08-.04.12-.05l.64-.15.59-.26.53-.28.46-.45s.06-.05.1-.07l.6-.32c.1-.06.22-.06.33-.03l.28-.18.52-.42s.02-.02.03-.02l.53-.36.46-.46s.03-.03.04-.04l.55-.41.6-.39.51-.36.95-.94s.1-.08.16-.1l.28-.34.39-.5s.03-.04.05-.06l.45-.4.35-.49s.02-.03.04-.05l.41-.44.26-.47.11-.6c.02-.08.05-.15.1-.21l.38-.42.09-.53.14-.67-.15-.68s-.01-.06-.01-.09v-.76s0-.06,0-.09l.13-.66-.18-.52s0-.03-.01-.05l-.15-.64s-.01-.04-.01-.07l-.04-.65-.08-.61s0-.1.01-.14l.13-.61-.18-.59c-.02-.05-.02-.1-.02-.15l.05-.71s0-.03,0-.05l.12-.7s.01-.05.02-.07l.24-.66s.03-.06.04-.08l.38-.59s.07-.08.11-.12l.56-.4.62-.38s.08-.04.12-.05l.69-.17s.07-.02.11-.02l.64.02.61-.09.64-.05.59-.2s.09-.02.13-.02l.66-.02s.06,0,.09.01l.56.1.55-.18c.08-.03.17-.03.26,0l.57.17.57-.18c.07-.03.15-.03.22-.01l.67.14.6.04.64-.14s.1-.02.15-.01l.69.09s.03,0,.04.01l.64.14h.59s.65-.15.65-.15c.04-.01.08-.02.13-.02l.69.02s.09,0,.13.02l.61.21h.59s.67-.11.67-.11c.07-.01.14,0,.2.02l.6.19.6-.06c.09,0,.18,0,.26.05l.44.07.59-.08c.06,0,.11,0,.17.01l.54.15.55-.11s.1-.01.15,0l.68.09h.68s.09,0,.14.01l.65.2.62.04.69-.06c.05,0,.1,0,.15.02l.63.17.63-.03s.08,0,.12.01l.64.15.65.02s.05,0,.08.01l.64.15.65.06h.67c.06.01.13.03.19.06l.57.29.6.07,1.37.1s.07.02.1.03l.61.2.65.08c.06,0,.11.03.16.05l.57.33,1.24.34.75.09-.05-.02-.61-.28-.63-.32s-.04-.02-.06-.04l-.48-.35-.59-.09s-.08-.02-.11-.04l-.63-.28s-.03-.02-.04-.02l-.53-.31-.6-.07c-.06-.01-.11-.03-.17-.06l-.54-.32-.6-.14s-.08-.02-.11-.04l-.55-.29-.61-.1s-.08-.03-.13-.04l-.55-.28-.61-.08-.69-.13s-.07-.02-.1-.03l-.57-.26-.61-.06s-.09-.02-.13-.03l-.58-.26-.62-.08s-.07-.02-.1-.03l-.55-.23h-.61s-.07.01-.11,0l-.66-.17-.65-.11s-.06-.02-.09-.03l-.58-.24-1.29-.12-.7-.05s-.02,0-.04,0l-.7-.11-1.35-.29-.66.02s-.05,0-.08,0l-.65-.11-.66.03c-.06,0-.11,0-.17-.03l-.6-.22-.62.03s-.04,0-.06,0l-.65-.07-.66.09c-.05.01-.1,0-.15,0l-.65-.15h-.61l-.66.13s-.09.01-.14.01l-.68-.08h-1.36s-.68.06-.68.06c-.04,0-.08,0-.11,0l-.69-.11-.65-.06-.6-.02-.64.14c-.06.02-.13.02-.19,0l-.58-.13-.59.14c-.07.02-.14.02-.2,0l-.56-.14-.55.21s-.09.03-.14.03l-.65.03-.65.11s-.03,0-.05,0l-1.3.08-.55.23-1.16.64-.54.32-.41.35-.26.52-.34.57-.22.54-.11.59-.05.61-.03.58.14.59.13.66s0,.02.01.04l.07.65.1.66s.01.07,0,.1l-.07.64.09.6.18.66c.02.08.02.16,0,.23l-.18.6.05.6s0,.09-.01.14l-.15.64-.08,1.34c0,.05-.02.1-.04.14l-.24.58-.08.63c-.01.08-.04.15-.08.21l-.39.52-.21.58s-.03.06-.04.08l-.37.57-.33.57s-.02.03-.02.04l-.79,1.1-.44.56s-.03.03-.04.05l-.5.47s-.03.02-.04.03l-.54.43s-.1.06-.17.08l-.61.15-.47.35-.62.4c-.05.04-.1.06-.16.07l-1.32.2-.58.23-.6.28-.66.26s-.05.02-.07.03l-1.27.26-.56.29c-.07.04-.15.05-.22.05l-.65-.03-.56.15-.6.26-.6.29s-.1.04-.16.04l-.62.04-.56.24s-.06.02-.1.03l-.67.11-.67.09-.58.15-.56.32c-.05.03-.11.05-.18.06l-.6.04-.54.27s-.07.04-.11.04l-.65.13-.62.2-.67.2s-.03,0-.04.01l-.64.11-1.26.45-.63.2-.58.3-.65.28-.67.23-.6.26s-.08.03-.13.03l-.59.05-.46.34s-.1.06-.16.07l-.63.15-.56.25-.57.34s-.04.03-.07.03l-.58.22-.49.39s-.06.04-.1.06l-.59.24-.51.34-.49.44-.93.94s-.02.02-.03.03l-.5.43-.38.41-.14.58s-.02.06-.03.09l-.29.61s-.02.04-.03.05l-.36.56-.28.54-.12.61-.16.65-.07.66s-.01.07-.02.1l-.22.6-.09.61-.02.66c0,.05-.02.1-.04.15l-.23.59-.03.61-.06.7-.03.64.03.67.06.66s0,.04,0,.05l-.02.68s0,.06-.02.09l-.16.63.02.6Z"/>
  </g>
  <path class="cls-6" d="M295.97,232.96l-.65.31-.49.49-.52.46-.6.35-.49.51-.65.28-.54.45-.56.4-.7.18-.53.46-.59.35-.56.41-.58.39-.68.2-.59.36-.61.34-.59.35-.61.33-.65.26-.48.53-.58.36-.65.27-.53.54.52-.55.32-.63.54-.44.39-.58.53-.45.36-.59.53-.45.36-.59.39-.57.52-.46.36-.59.53-.46.39-.57.53-.46.31-.64.46-.52.43-.54.55-.44.4-.56.4-.56.4-.57.44-.52.47-.5.63-.32.54-.45.61-.33.54-.46.7-.21.55-.44.6-.35.52-.49.66-.28.58-.4.49-.52.63-.32.58-.39.59-.38.55-.44.65-.3.61-.35.58-.39.48-.53.66-.29.48-.54.67-.27.56-.6-.37.69-.34.58-.43.52-.46.5-.32.6-.32.59-.39.56-.45.51-.45.51-.33.6-.45.51-.44.52-.4.54-.41.54-.44.51-.33.6-.39.56-.47.48-.46.49-.58.38-.44.51-.39.58-.64.29-.42.55Z"/>
  <path class="cls-7" d="M282.54,241.98c-.11,0-.21-.04-.3-.12-.17-.17-.18-.43-.01-.61l.47-.5.29-.57c.03-.05.07-.1.11-.14l.49-.41.34-.52s.05-.07.08-.09l.48-.42.33-.53s.06-.07.09-.1l.47-.41.33-.53.39-.59s.05-.06.07-.08l.47-.42.32-.54s.05-.08.09-.1l.48-.42.36-.53s.05-.06.07-.08l.46-.41.28-.56s.04-.07.06-.09l.46-.52.42-.53s.04-.05.07-.06l.5-.41,1.15-1.64s.02-.03.03-.04l.44-.52.48-.51s.07-.07.12-.09l.58-.3.51-.42s.05-.04.07-.05l.58-.31.51-.43s.1-.07.16-.08l.61-.19.48-.39s.04-.03.06-.04l.56-.33.48-.45s.08-.07.13-.09l.61-.26.5-.35.47-.48s.07-.06.11-.08l.6-.31,1.14-.74.53-.43s.06-.04.09-.06l.63-.29.6-.34.52-.34.45-.49s.09-.08.15-.11l.57-.24.42-.47c.05-.05.1-.09.17-.11l.58-.22.48-.53c.15-.16.39-.19.57-.06s.23.37.13.56l-.37.69-.34.6s-.03.04-.04.06l-.43.52-.44.48-.63,1.14s-.02.03-.02.04l-.39.56-.03.05-.87.97-.3.56s-.04.06-.06.08l-.89,1.02-.79,1.06-.43.49-.31.56s-.02.03-.03.04l-.39.56s-.03.04-.04.05l-.93.97s-.05.05-.08.07l-.53.35-.39.45-.38.55c-.05.07-.1.12-.18.15l-.54.24-.35.46c-.04.06-.09.1-.16.13l-.58.27-.43.44-.54.48s-.04.04-.07.06l-.55.32-.45.46s-.08.07-.14.09l-.58.26-.49.41-.58.43s-.09.05-.15.07l-.6.15-.45.4s-.04.03-.06.05l-.58.34-.55.4-.59.4s-.08.04-.12.06l-.63.18-.55.33-.63.34-.58.35-.63.34s-.03.02-.04.02l-.55.22-.42.45s-.05.05-.09.07l-.57.36s-.05.03-.07.04l-.57.23-.46.47c-.08.09-.19.13-.3.13ZM285.52,238.6l-.33.53s-.06.07-.09.1l-.07.06.21-.08.59-.32.58-.35.63-.34.57-.35s.07-.03.1-.04l.63-.18.52-.35.55-.4s.02-.01.03-.02l.56-.33.5-.44s.11-.08.18-.09l.63-.16.49-.36.52-.43s.06-.05.1-.07l.57-.24.43-.44s.06-.06.09-.07l.56-.33.48-.44.47-.47s.08-.07.12-.09l.55-.26.36-.46c.04-.06.1-.1.16-.13l.53-.24.32-.47s.02-.03.03-.04l.44-.51s.06-.05.09-.07l.54-.35.89-.93.36-.51.32-.58s.03-.05.05-.07l.44-.51.8-1.05.89-1.01.3-.56s.04-.06.06-.08l.88-.99.35-.52.64-1.17s.04-.06.06-.09l.05-.05-.24.1-.42.46s-.05.05-.08.07l-.58.38-.64.36s-.02.01-.03.02l-.59.28-.51.41s-.03.02-.04.03l-1.17.76s-.03.02-.04.03l-.56.29-.45.47s-.04.04-.06.05l-.58.4s-.05.04-.08.05l-.58.24-.46.44s-.05.04-.08.06l-.58.34-.52.42s-.09.06-.15.08l-.61.18-.47.4s-.05.04-.07.05l-.58.32-.52.42s-.05.04-.08.05l-.56.29-.42.44-.42.49-1.18,1.68s-.05.06-.08.09l-.51.41-.4.51-.43.49-.29.58c-.03.05-.06.1-.11.14l-.48.42-.36.53s-.04.06-.07.08l-.47.42-.33.54s-.05.07-.08.1l-.48.43-.36.53-.35.57s-.05.08-.09.1l-.48.43Z"/>
  <path class="cls-2" d="M309.96,238.28l-.37.89-.37.91-.3.94-.16.99.16.99.44.9.46.87-.98-.16-.99.06-1.04-.04-.91.47-.94.39-.93.43-.8.63-.8.63-.76.73.65-.88.63-.84.62-.86.33-1.01.28-1.02.19-1.02.03-1.04-.3-.99-.44-.92.86.42.96.26.99-.1.96-.23.91-.37.86-.47.76-.57Z"/>
  <path class="cls-7" d="M301.67,248.26c-.09,0-.17-.03-.23-.09-.14-.12-.16-.33-.05-.48l1.86-2.53.32-.96.27-.99.18-.97.03-.95-.28-.91-.43-.9c-.07-.13-.04-.3.07-.41s.27-.13.41-.06l.83.41.86.23.9-.08.91-.22.87-.35.82-.45.74-.55c.13-.09.31-.09.43,0,.13.1.17.27.11.41l-.73,1.79-.29.9-.14.91.14.89.42.85.46.86c.06.12.05.26-.03.37s-.21.16-.34.14l-.94-.15-.95.06-.98-.03-.83.42-.95.4-.88.41-1.56,1.21-.74.72c-.08.07-.17.1-.25.1ZM304.41,240.1s.02.04.02.06l.3.98s.02.08.02.11l-.03,1.04s0,.04-.01.06l-.19,1.02-.28,1.04-.33,1.03s-.03.07-.05.1l-.13.18.09-.07s.05-.03.07-.04l.93-.43.94-.39.89-.45c.05-.03.11-.04.18-.04l1.03.04.96-.06s.05,0,.08,0l.28.04-.13-.24-.45-.91s-.02-.06-.03-.1l-.16-.99s0-.08,0-.11l.16-.99s0-.03.01-.05l.3-.94.29-.7-.66.36s-.03.01-.04.02l-.91.37s-.03.01-.05.02l-.96.23s-.03,0-.05,0l-.98.09s-.09,0-.13-.01l-.96-.26s0,0-.01,0Z"/>
  <path class="cls-2" d="M307.24,194.85l-.4.95-.45,1.01-.09,1.11.24,1.09.52.88-.9-.2-1.03.14-.98.29-.96.38-.85.58-.74.72-.89.61.71-.86.64-.86.44-.98.23-1.05.21-1.04-.2-1.04-.53-1.03,1.05.61,1.1-.08,1.06-.2,1.04-.38.79-.67Z"/>
  <path class="cls-7" d="M300.69,202.78c-.09,0-.19-.04-.26-.11-.12-.13-.13-.33-.01-.46l.71-.86.6-.81.41-.91.42-1.97-.18-.92-.52-.98c-.07-.14-.04-.31.07-.42.11-.11.29-.13.42-.05l.96.56.97-.07,1.02-.19.95-.35.74-.63c.13-.11.3-.11.44-.02.13.09.18.27.12.42l-.4.95-.43.96-.08,1.01.22.98.49.83c.07.12.06.28-.02.39-.09.11-.23.17-.36.14l-.84-.19-.94.13-.96.28-.9.36-.8.54-.72.69s-.03.03-.04.04l-.9.62c-.06.05-.13.07-.2.07ZM303.06,196.49s0,.03.01.04l.2,1.04s0,.09,0,.14l-.44,2.09s-.02.05-.02.07l-.3.67.48-.32s.04-.02.07-.03l.96-.39,1.02-.3s.04,0,.05-.01l1.03-.14s.08,0,.13.01l.1.02-.1-.17s-.03-.07-.04-.1l-.25-1.09s-.01-.07,0-.1l.09-1.11s.02-.08.03-.12l.34-.75-.86.32s-.04.01-.06.02l-1.06.2h-.04l-1.1.08c-.08,0-.15-.01-.21-.05Z"/>
  <path class="cls-2" d="M253.34,251.17l-.48.83-.28,1.01-.41.98.13,1.06.03,1.04.36.98.55.88-1.02-.34-1.07.2-1.05.12-1.03.3-.96.45-.94.52-.87.62-.76.77-.73.66.67-.81.6-.94.56-.96.43-1.03.3-1.07.21-1.09.06-1.11-.32-1.07-.68-.98,1.04.43.98.29,1.05.06,1.01-.27.92-.5.93-.46.77-.55Z"/>
  <path class="cls-7" d="M244.8,261.59c-.09,0-.18-.04-.24-.1-.13-.13-.14-.34-.03-.48l.66-.79.59-.92.54-.93.4-.99.3-1.05.2-1.04.06-1.03-.28-.96-.65-.94c-.09-.13-.08-.3.01-.42.1-.12.27-.17.41-.1l1.02.42.93.27.95.05.92-.24.88-.48.91-.45.74-.54c.14-.1.32-.09.44.02s.16.29.07.44l-.46.8-.27.96s0,.03-.02.04l-.37.9.12.96.03,1.02.33.9.53.85c.08.13.07.29-.03.41-.09.11-.24.16-.39.11l-.93-.31-.98.18-1.05.13-.97.28-.94.44-.9.49-.83.59-.73.74-.75.67c-.06.06-.15.1-.23.1ZM247.6,252.96h0s.04.08.05.11l.32,1.07s.02.08.01.12l-.06,1.11s0,.04-.01.05l-.21,1.08-.31,1.1s-.01.03-.02.04l-.42,1.03s-.02.03-.02.05l-.21.35.22-.16s.02-.02.04-.02l.94-.52.99-.46s.04-.02.05-.02l1.03-.29s.04-.01.06-.01l1.05-.13,1.05-.19c.06-.01.12,0,.18.02l.09.03-.03-.05-.03-.06-.36-.98s-.03-.07-.03-.11l-.03-1.04-.13-1.02c0-.06,0-.12.03-.18l.4-.96.2-.71-.64.32-.9.49s-.05.03-.08.03l-1.02.27s-.07.02-.11.01l-1.05-.06s-.05-.01-.08-.02l-.97-.28Z"/>
  <path class="cls-2" d="M344.91,187.27l-.52.88-.33,1.06-.04,1.12.23,1.09.48.88-.89-.24-1.01.28-.96.3-.96.35-.93.46-.8.66-.79.72.79-.8.39-1.01.56-.91.33-1.01.15-1.06-.04-1.09-.67-.95,1.05.47,1.08.11,1.07-.24,1.01-.44.79-.63Z"/>
  <path class="cls-7" d="M338.4,195.17c-.09,0-.19-.04-.26-.11-.13-.14-.13-.35,0-.49l.74-.74.36-.94s.02-.04.03-.06l.54-.87.31-.95.14-.99-.03-.95-.61-.86c-.09-.14-.08-.31.02-.43.1-.12.27-.16.42-.1l1,.45.97.1.98-.22.93-.41.75-.59c.14-.1.32-.1.45.01.13.11.16.3.07.45l-.5.84-.3.98-.03,1.02.21,1,.45.83c.07.13.06.28-.03.39s-.23.16-.37.12l-.79-.22-.92.25-.95.3-.94.35-.86.42-.76.64-.78.7c-.07.07-.16.09-.24.09ZM340.91,188.81s.02.07.03.11l.04,1.09v.06l-.16,1.06s0,.04-.01.06l-.33,1.02s-.02.05-.04.07l-.47.77.79-.39.99-.37.98-.31,1.02-.28c.06-.02.13-.02.19,0l.08.03-.08-.15s-.03-.06-.04-.09l-.23-1.09s0-.06,0-.08l.03-1.12s.01-.06.02-.09l.23-.75-.69.3s-.04.02-.06.02l-1.07.24s-.08.01-.11.01l-1.08-.12s0-.01,0-.01Z"/>
  <path class="cls-2" d="M243.3,320.93l-.48,1.1-.36,1.02-.18,1.09.28,1.07.59.96-1.05-.18-1.02.1-.99.24-.96.38-.89.53-.83.63-.6.74.59-.8.56-.91.53-.94.34-1.03-.04-1.08-.16-1.02-.42-.97.98.52,1.11.02,1.03-.34,1.06-.31.91-.82Z"/>
  <path class="cls-7" d="M236.82,328.96c-.07,0-.15-.02-.21-.07-.15-.11-.18-.33-.07-.48l.59-.81.54-.89.5-.9.31-.94-.04-1-.15-.95-.4-.93c-.06-.14-.03-.3.08-.4.11-.1.27-.13.41-.06l.91.48.97.02.97-.32.99-.29.85-.76c.12-.11.31-.12.44-.02.14.1.19.28.11.43l-.48,1.1-.34.97-.16.98.24.95.56.92c.07.12.07.27-.01.38-.08.12-.21.18-.35.15l-.99-.18-.94.09-.95.23-.91.36-.85.51-.77.58-.57.71c-.07.09-.18.13-.28.13ZM238.93,322.63l.03.06s.02.06.02.08l.16,1.02s0,.03,0,.04l.04,1.08s0,.08-.02.12l-.34,1.03s-.02.05-.03.07l-.31.56.46-.27s.03-.02.05-.03l.96-.38s.03-.01.05-.02l.99-.24s.03-.01.05-.01l1.01-.1s.07,0,.1,0l.28.05-.19-.3s-.03-.06-.04-.09l-.28-1.07s-.01-.1,0-.15l.18-1.09s0-.04.01-.06l.29-.83-.98.29-1.02.33s-.08.02-.12.02l-1.09-.03c-.06,0-.11-.01-.16-.04l-.1-.06Z"/>
  <path class="cls-2" d="M294.52,199.56l-.49.84-.31.95-.41.93-.11,1.01v1.02s.3.96.3.96l.34.94.57.89-1.05-.38-1.06.05-1.06.1-1.01.31-.92.52-.9.53-.9.54-.88.57-.89.57-.7.76.61-.89.63-.89.54-.95.53-.95.46-1,.31-1.05.14-1.1-.05-1.1-.36-1.06-.57-.86.79.53.99.24,1.01-.15.96-.16.97-.22.95-.32.83-.56.74-.6Z"/>
  <path class="cls-7" d="M285.05,211.02c-.08,0-.16-.03-.22-.08-.15-.12-.18-.32-.07-.48l1.22-1.77,1.06-1.89.44-.95.3-1.01.14-1.04-.05-1.03-.32-.96-.55-.83c-.09-.15-.08-.33.05-.45.12-.12.31-.14.44-.04l.73.49.86.21,1.9-.31.93-.2.89-.3.8-.54.71-.58c.14-.11.33-.11.45,0,.13.11.16.3.07.45l-.47.8-.29.92s-.01.03-.02.04l-.39.88-.1.95v.92s.29.91.29.91l.32.89.55.85c.08.13.07.3-.02.42-.1.12-.26.17-.4.11l-.99-.35-.99.04-1,.09-.94.29-.89.5-1.78,1.06-1.72,1.11-.68.72c-.07.08-.17.12-.26.12ZM288.26,201.74l.29.86s.02.07.02.1l.05,1.11s0,.04,0,.06l-.14,1.09s0,.04-.01.05l-.31,1.06s-.01.03-.02.05l-.46.99-.97,1.73.63-.4,1.81-1.07.93-.52s.04-.02.07-.03l1.01-.31s.05-.01.07-.02l1.06-.1,1.08-.04s.09,0,.13.02l.07.03h0s-.03-.06-.04-.08l-.34-.94-.32-.97s-.02-.07-.02-.11v-1.02s.13-1.04.13-1.04c0-.04.02-.07.03-.1l.41-.91.15-.48-.4.27s-.06.03-.08.04l-.95.33s-.03,0-.04.01l-.97.21-1.99.32s-.09,0-.14,0l-.71-.18Z"/>
</svg>